<?xml version="1.0" encoding="utf-8"?>
<!-- Generator: Adobe Illustrator 28.0.0, SVG Export Plug-In . SVG Version: 6.00 Build 0)  -->
<svg version="1.1" id="Capa_1" xmlns="http://www.w3.org/2000/svg" xmlns:xlink="http://www.w3.org/1999/xlink" x="0px" y="0px"
	 viewBox="0 0 1000 1000" style="enable-background:new 0 0 1000 1000;" xml:space="preserve">
<style type="text/css">
	.st0{display:none;fill:#1B2C4D;}
	.st1{fill:none;}
	.st2{fill:#71C6D9;}
	.st3{fill:url(#SVGID_1_);}
	.st4{fill:url(#SVGID_00000030448253834397592330000004204666791429272509_);}
	.st5{fill:url(#SVGID_00000049182774168789311190000015946814370096707231_);}
	.st6{fill:url(#SVGID_00000001626397382758302120000003757312535593153977_);}
	.st7{fill:#FFFFFF;}
</style>
<rect y="0" class="st0" width="1000" height="1000"/>
<g>
	<g>
		<path class="st1" d="M84.2,574.4c-16.2,0-29.7-1.3-40.5-4s-19.4-7-25.9-13c-6.5-5.9-11.1-13.7-13.8-23.3s-4-21.4-4-35.4V475
			c0-14,1.3-25.9,4-35.6s7.3-17.5,13.8-23.5c6.5-5.9,15.1-10.2,25.9-12.9c10.8-2.7,24.3-4,40.5-4H211v41.4H85.8
			c-7.6,0-13.8,0.5-18.6,1.6c-4.9,1.1-8.7,3-11.5,5.7s-4.7,6.4-5.8,11.2c-1.1,4.7-1.6,10.7-1.6,17.8v20.7c0,6.9,0.5,12.7,1.6,17.3
			s3,8.4,5.8,11.2s6.6,4.8,11.5,6s11.1,1.8,18.6,1.8h125.6v40.8L84.2,574.4L84.2,574.4z"/>
		<path class="st1" d="M280,504.5v8.1c0,5.4,0.4,9.7,1.3,12.9s2.4,5.8,4.7,7.6c2.3,1.8,5.3,3.1,9.1,3.7c3.8,0.6,8.5,1,14.1,1h151.2
			v36.6H309.1c-27.8,0-47.7-5.3-59.6-15.9c-11.9-10.6-17.8-27.5-17.8-50.8v-40.5c0-12.7,1.2-23.5,3.7-32.2s6.8-15.8,12.9-21
			c6.1-5.3,14.3-9.1,24.4-11.5s23-3.6,38.5-3.6H396c12.5,0,22.9,1.2,31.2,3.6c8.3,2.4,14.9,5.7,19.7,9.9c4.9,4.2,8.3,9.3,10.2,15.2
			c1.9,5.9,2.9,12.4,2.9,19.3v57.6L280,504.5L280,504.5z M412,450.7c0-5.8-1.5-9.7-4.4-11.7c-2.9-1.9-8-2.9-15.4-2.9H312
			c-6,0-11.1,0.3-15.2,0.8s-7.4,1.8-9.9,3.7c-2.5,1.9-4.3,4.7-5.3,8.4c-1.1,3.7-1.6,8.6-1.6,14.9v9.4h132V450.7z"/>
		<path class="st2" d="M616.4,574.4V398.9h49.2v175.4h-49.2V574.4z"/>
		<polygon class="st2" points="665.6,354.4 652.5,354.4 652.5,340.2 630.2,340.2 630.2,354.4 616.4,354.4 616.4,375.1 630.2,375.1 
			630.2,389.4 652.5,389.4 652.5,375.1 665.6,375.1 		"/>
		<path class="st2" d="M690.9,574.4V398.9h49.2v175.4h-49.2V574.4z"/>
		<path class="st1" d="M825.2,574.4c-12.7,0-23.2-1.1-31.4-3.2c-8.2-2.2-14.7-5.2-19.6-9.2c-4.9-4-8.3-8.8-10.2-14.6
			c-1.9-5.7-2.9-12.1-2.9-19.3v-16.5c0-7.3,0.9-13.9,2.8-19.6c1.8-5.7,5-10.6,9.5-14.6s10.7-7,18.6-9.1c7.9-2,17.9-3.1,29.9-3.1
			h129.8v-3.9c0-11.2-2.3-18.7-6.8-22.5s-12.2-5.7-23-5.7H761.1v-34.3H922c14,0,25.9,1.3,35.8,3.9c9.8,2.6,17.9,6.5,24.1,11.8
			c6.3,5.3,10.8,12,13.8,20.1c2.9,8.1,4.4,17.7,4.4,29v42.7c0,12.7-1.2,23.4-3.7,32c-2.5,8.6-6.8,15.6-12.9,21
			c-6.1,5.4-14.4,9.2-24.6,11.5c-10.3,2.3-23.1,3.4-38.7,3.4h-95V574.4z M951.8,495.1H827.2c-5.6,0-10,1.2-13.3,3.7
			c-3.2,2.5-4.9,7.2-4.9,14.1v12c0,6.3,1.7,10.6,5.2,12.9c3.4,2.4,8.3,3.6,14.6,3.6h90.6c5.6,0,10.5-0.4,14.6-1.3
			c4.1-0.9,7.4-2.4,10-4.7s4.5-5.4,5.8-9.5s1.9-9.4,1.9-15.9v-14.9H951.8z"/>
		<path class="st1" d="M596.9,438.1v-39.2h-55.2v-49.5h-49.1v49.5h-24.8v39.2h24.8v60.1v0.9v8.6c0,23.3,6.4,40.2,18.2,50.8
			c11.9,10.6,31.7,15.9,59.6,15.9h26.5v-36.6h-26.5c-5.6,0-10.3-0.3-14.1-1c-3.8-0.6-6.8-1.9-9.1-3.7s-3.8-4.4-4.7-7.6
			c-0.4-1.6-0.6-3.5-0.8-5.7v-15.3l0,0v-17.8l0,0v-48.6L596.9,438.1L596.9,438.1z"/>
		
			<linearGradient id="SVGID_1_" gradientUnits="userSpaceOnUse" x1="105.7" y1="630.5962" x2="105.7" y2="516.2999" gradientTransform="matrix(1 0 0 -1 0 997.89)">
			<stop  offset="0" style="stop-color:#014898"/>
			<stop  offset="1" style="stop-color:#307ABE"/>
		</linearGradient>
		<path class="st3" d="M84.2,574.4c-16.2,0-29.7-1.3-40.5-4s-19.4-7-25.9-13c-6.5-5.9-11.1-13.7-13.8-23.3s-4-21.4-4-35.4V475
			c0-14,1.3-25.9,4-35.6s7.3-17.5,13.8-23.5c6.5-5.9,15.1-10.2,25.9-12.9c10.8-2.7,24.3-4,40.5-4H211v41.4H85.8
			c-7.6,0-13.8,0.5-18.6,1.6c-4.9,1.1-8.7,3-11.5,5.7s-4.7,6.4-5.8,11.2c-1.1,4.7-1.6,10.7-1.6,17.8v20.7c0,6.9,0.5,12.7,1.6,17.3
			s3,8.4,5.8,11.2s6.6,4.8,11.5,6s11.1,1.8,18.6,1.8h125.6v40.8L84.2,574.4L84.2,574.4z"/>
		
			<linearGradient id="SVGID_00000044136492604545093400000014548200613941994647_" gradientUnits="userSpaceOnUse" x1="346.05" y1="630.5962" x2="346.05" y2="516.2999" gradientTransform="matrix(1 0 0 -1 0 997.89)">
			<stop  offset="0" style="stop-color:#014898"/>
			<stop  offset="1" style="stop-color:#307ABE"/>
		</linearGradient>
		<path style="fill:url(#SVGID_00000044136492604545093400000014548200613941994647_);" d="M280,504.5v8.1c0,5.4,0.4,9.7,1.3,12.9
			s2.4,5.8,4.7,7.6c2.3,1.8,5.3,3.1,9.1,3.7c3.8,0.6,8.5,1,14.1,1h151.2v36.6H309.1c-27.8,0-47.7-5.3-59.6-15.9
			c-11.9-10.6-17.8-27.5-17.8-50.8v-40.5c0-12.7,1.2-23.5,3.7-32.2s6.8-15.8,12.9-21c6.1-5.3,14.3-9.1,24.4-11.5s23-3.6,38.5-3.6
			H396c12.5,0,22.9,1.2,31.2,3.6c8.3,2.4,14.9,5.7,19.7,9.9c4.9,4.2,8.3,9.3,10.2,15.2c1.9,5.9,2.9,12.4,2.9,19.3v57.6L280,504.5
			L280,504.5z M412,450.7c0-5.8-1.5-9.7-4.4-11.7c-2.9-1.9-8-2.9-15.4-2.9H312c-6,0-11.1,0.3-15.2,0.8s-7.4,1.8-9.9,3.7
			c-2.5,1.9-4.3,4.7-5.3,8.4c-1.1,3.7-1.6,8.6-1.6,14.9v9.4h132V450.7z"/>
		
			<linearGradient id="SVGID_00000070798279013964431310000003315827105053226936_" gradientUnits="userSpaceOnUse" x1="880.6" y1="630.5962" x2="880.6" y2="516.2999" gradientTransform="matrix(1 0 0 -1 0 997.89)">
			<stop  offset="0" style="stop-color:#014898"/>
			<stop  offset="1" style="stop-color:#307ABE"/>
		</linearGradient>
		<path style="fill:url(#SVGID_00000070798279013964431310000003315827105053226936_);" d="M825.2,574.4c-12.7,0-23.2-1.1-31.4-3.2
			c-8.2-2.2-14.7-5.2-19.6-9.2c-4.9-4-8.3-8.8-10.2-14.6c-1.9-5.7-2.9-12.1-2.9-19.3v-16.5c0-7.3,0.9-13.9,2.8-19.6
			c1.8-5.7,5-10.6,9.5-14.6s10.7-7,18.6-9.1c7.9-2,17.9-3.1,29.9-3.1h129.8v-3.9c0-11.2-2.3-18.7-6.8-22.5s-12.2-5.7-23-5.7H761.1
			v-34.3H922c14,0,25.9,1.3,35.8,3.9c9.8,2.6,17.9,6.5,24.1,11.8c6.3,5.3,10.8,12,13.8,20.1c2.9,8.1,4.4,17.7,4.4,29v42.7
			c0,12.7-1.2,23.4-3.7,32c-2.5,8.6-6.8,15.6-12.9,21c-6.1,5.4-14.4,9.2-24.6,11.5c-10.3,2.3-23.1,3.4-38.7,3.4h-95V574.4z
			 M951.8,495.1H827.2c-5.6,0-10,1.2-13.3,3.7c-3.2,2.5-4.9,7.2-4.9,14.1v12c0,6.3,1.7,10.6,5.2,12.9c3.4,2.4,8.3,3.6,14.6,3.6h90.6
			c5.6,0,10.5-0.4,14.6-1.3c4.1-0.9,7.4-2.4,10-4.7s4.5-5.4,5.8-9.5s1.9-9.4,1.9-15.9v-14.9H951.8z"/>
		
			<linearGradient id="SVGID_00000062883307546419833330000013265871197698350720_" gradientUnits="userSpaceOnUse" x1="532.35" y1="630.5962" x2="532.35" y2="516.2999" gradientTransform="matrix(1 0 0 -1 0 997.89)">
			<stop  offset="0" style="stop-color:#014898"/>
			<stop  offset="1" style="stop-color:#307ABE"/>
		</linearGradient>
		<path style="fill:url(#SVGID_00000062883307546419833330000013265871197698350720_);" d="M596.9,438.1v-39.2h-55.2v-49.5h-49.1
			v49.5h-24.8v39.2h24.8v60.1v0.9v8.6c0,23.3,6.4,40.2,18.2,50.8c11.9,10.6,31.7,15.9,59.6,15.9h26.5v-36.6h-26.5
			c-5.6,0-10.3-0.3-14.1-1c-3.8-0.6-6.8-1.9-9.1-3.7s-3.8-4.4-4.7-7.6c-0.4-1.6-0.6-3.5-0.8-5.7v-15.3l0,0v-17.8l0,0v-48.6
			L596.9,438.1L596.9,438.1z"/>
		<circle class="st2" cx="715.5" cy="364.8" r="24.6"/>
	</g>
	<g>
		<path class="st7" d="M188.3,620.5c-1.3-1.4-2.5-2.3-3.7-2.8s-2.4-0.7-3.6-0.7c-1.8,0-3.5,0.3-4.9,1c-1.5,0.6-2.7,1.5-3.8,2.7
			c-1.1,1.1-1.9,2.5-2.5,4s-0.9,3.2-0.9,4.9c0,1.9,0.3,3.6,0.9,5.2c0.6,1.6,1.4,3,2.5,4.1c1.1,1.2,2.3,2.1,3.8,2.7
			c1.5,0.7,3.1,1,4.9,1c1.4,0,2.8-0.3,4.1-1s2.6-1.8,3.7-3.2l5.2,3.7c-1.6,2.2-3.5,3.8-5.8,4.8s-4.7,1.5-7.3,1.5
			c-2.7,0-5.2-0.4-7.5-1.3c-2.3-0.9-4.2-2.1-5.9-3.7c-1.6-1.6-2.9-3.5-3.8-5.8c-0.9-2.2-1.4-4.7-1.4-7.5s0.5-5.4,1.4-7.7
			s2.2-4.3,3.8-5.9c1.6-1.6,3.6-2.9,5.9-3.7c2.3-0.9,4.8-1.3,7.5-1.3c2.4,0,4.6,0.4,6.6,1.3s3.9,2.3,5.7,4.3L188.3,620.5z"/>
		<path class="st7" d="M194.9,615.5c0-1,0.4-1.8,1.1-2.5c0.7-0.7,1.6-1.1,2.7-1.1c1.1,0,2,0.3,2.8,1c0.7,0.7,1.1,1.5,1.1,2.6
			s-0.4,1.9-1.1,2.6c-0.7,0.7-1.7,1-2.8,1s-2-0.4-2.7-1.1C195.2,617.3,194.9,616.5,194.9,615.5z M195.7,623.6h6v23.8h-6V623.6z"/>
		<path class="st7" d="M211.3,637.6c0.2,1.8,0.9,3.2,2.1,4.2c1.2,1,2.6,1.5,4.3,1.5c1.5,0,2.7-0.3,3.7-0.9c1-0.6,1.9-1.4,2.7-2.3
			l4.3,3.2c-1.4,1.7-2.9,2.9-4.7,3.7c-1.7,0.7-3.5,1.1-5.4,1.1c-1.8,0-3.5-0.3-5.1-0.9c-1.6-0.6-3-1.4-4.1-2.5
			c-1.2-1.1-2.1-2.4-2.8-3.9s-1-3.2-1-5.1s0.3-3.6,1-5.1s1.6-2.9,2.8-3.9c1.2-1.1,2.5-1.9,4.1-2.5s3.3-0.9,5.1-0.9
			c1.7,0,3.2,0.3,4.5,0.9c1.4,0.6,2.5,1.4,3.5,2.5s1.7,2.4,2.3,4s0.8,3.4,0.8,5.5v1.6h-18.1V637.6z M223.5,633.1
			c0-1.8-0.6-3.1-1.6-4.1c-1.1-1-2.5-1.5-4.4-1.5c-1.8,0-3.2,0.5-4.2,1.5s-1.7,2.4-1.9,4.1H223.5z"/>
		<path class="st7" d="M233,623.6h5.7v3.8h0.1c0.6-1.2,1.4-2.2,2.6-3.1c1.2-0.9,2.7-1.3,4.7-1.3c1.6,0,2.9,0.3,4,0.8s2,1.2,2.7,2.1
			c0.7,0.9,1.2,1.9,1.5,3s0.4,2.3,0.4,3.5v15h-6v-12.1c0-0.7,0-1.4-0.1-2.2s-0.2-1.6-0.5-2.3s-0.7-1.3-1.3-1.8s-1.4-0.7-2.4-0.7
			s-1.8,0.2-2.5,0.5s-1.2,0.8-1.7,1.3c-0.4,0.6-0.8,1.2-1,1.9s-0.3,1.5-0.3,2.3v13h-6v-23.7H233z"/>
		<path class="st7" d="M275.8,630.7c-0.7-0.7-1.4-1.3-2.2-1.7c-0.8-0.4-1.5-0.6-2.3-0.6c-1.1,0-2.1,0.2-2.9,0.6s-1.6,0.9-2.2,1.6
			c-0.6,0.7-1.1,1.4-1.4,2.3c-0.3,0.9-0.5,1.8-0.5,2.7s0.2,1.8,0.5,2.7s0.8,1.6,1.4,2.3s1.3,1.2,2.2,1.6c0.9,0.4,1.8,0.6,2.9,0.6
			c0.9,0,1.8-0.2,2.6-0.6c0.8-0.4,1.5-0.9,2-1.7l4,4.3c-0.6,0.6-1.3,1.1-2.1,1.5s-1.6,0.8-2.4,1c-0.8,0.3-1.6,0.5-2.3,0.6
			c-0.7,0.1-1.4,0.2-1.9,0.2c-1.8,0-3.5-0.3-5.1-0.9c-1.6-0.6-3-1.4-4.1-2.5c-1.2-1.1-2.1-2.4-2.8-3.9c-0.7-1.5-1-3.2-1-5.1
			s0.3-3.6,1-5.1s1.6-2.9,2.8-3.9c1.2-1.1,2.5-1.9,4.1-2.5s3.3-0.9,5.1-0.9c1.5,0,3.1,0.3,4.6,0.9c1.5,0.6,2.9,1.5,4,2.8
			L275.8,630.7z"/>
		<path class="st7" d="M280.7,615.5c0-1,0.4-1.8,1.1-2.5s1.6-1.1,2.7-1.1s2,0.3,2.8,1c0.7,0.7,1.1,1.5,1.1,2.6s-0.4,1.9-1.1,2.6
			c-0.7,0.7-1.7,1-2.8,1c-1.1,0-2-0.4-2.7-1.1C281,617.3,280.7,616.5,280.7,615.5z M281.5,623.6h6v23.8h-6V623.6z"/>
		<path class="st7" d="M307.2,644.1h-0.1c-0.9,1.4-2,2.3-3.3,3c-1.3,0.6-2.8,0.9-4.4,0.9c-1.1,0-2.2-0.1-3.2-0.4
			c-1-0.3-2-0.7-2.8-1.3s-1.5-1.3-2-2.2s-0.7-1.9-0.7-3.1c0-1.3,0.2-2.4,0.7-3.3c0.5-0.9,1.1-1.7,1.9-2.3s1.7-1.1,2.7-1.5
			s2.1-0.6,3.2-0.8s2.2-0.3,3.3-0.3c1.1-0.1,2.2-0.1,3.2-0.1h1.5v-0.6c0-1.5-0.5-2.6-1.5-3.3s-2.3-1.1-3.9-1.1
			c-1.3,0-2.4,0.2-3.5,0.7c-1.1,0.4-2,1.1-2.8,1.8l-3.1-3.1c1.3-1.4,2.9-2.3,4.6-2.9c1.8-0.6,3.6-0.9,5.5-0.9c1.7,0,3.1,0.2,4.3,0.6
			c1.2,0.4,2.1,0.9,2.9,1.5s1.3,1.3,1.8,2.1c0.4,0.8,0.7,1.6,0.9,2.4c0.2,0.8,0.3,1.6,0.3,2.3s0.1,1.4,0.1,2v13.7h-5.4v-3.8H307.2z
			 M306.9,636.7h-1.2c-0.8,0-1.8,0-2.8,0.1s-2,0.2-2.9,0.5c-0.9,0.2-1.7,0.6-2.3,1.1c-0.6,0.5-0.9,1.1-0.9,2c0,0.6,0.1,1,0.4,1.4
			c0.2,0.4,0.6,0.7,1,1s0.8,0.5,1.3,0.6s1,0.2,1.5,0.2c2.1,0,3.6-0.5,4.5-1.5c1-1,1.5-2.3,1.5-4v-1.4H306.9z"/>
		<path class="st7" d="M334.4,610.2v49.6h-5.1v-49.6H334.4z"/>
		<path class="st7" d="M359.2,617.9h-10.8v-5.7h27.8v5.7h-10.8v29.5h-6.2V617.9z"/>
		<path class="st7" d="M377.2,637.6c0.2,1.8,0.9,3.2,2.1,4.2s2.6,1.5,4.3,1.5c1.5,0,2.7-0.3,3.7-0.9c1-0.6,1.9-1.4,2.7-2.3l4.3,3.2
			c-1.4,1.7-2.9,2.9-4.7,3.7c-1.7,0.7-3.5,1.1-5.4,1.1c-1.8,0-3.5-0.3-5.1-0.9c-1.6-0.6-3-1.4-4.1-2.5c-1.2-1.1-2.1-2.4-2.8-3.9
			c-0.7-1.5-1-3.2-1-5.1s0.3-3.6,1-5.1s1.6-2.9,2.8-3.9c1.2-1.1,2.5-1.9,4.1-2.5s3.3-0.9,5.1-0.9c1.7,0,3.2,0.3,4.5,0.9
			c1.4,0.6,2.5,1.4,3.5,2.5s1.7,2.4,2.3,4c0.5,1.6,0.8,3.4,0.8,5.5v1.6h-18.1V637.6z M389.4,633.1c0-1.8-0.6-3.1-1.6-4.1
			c-1.1-1-2.5-1.5-4.4-1.5c-1.8,0-3.2,0.5-4.2,1.5s-1.7,2.4-1.9,4.1H389.4z"/>
		<path class="st7" d="M415.2,630.7c-0.7-0.7-1.4-1.3-2.2-1.7c-0.8-0.4-1.5-0.6-2.3-0.6c-1.1,0-2.1,0.2-2.9,0.6s-1.6,0.9-2.2,1.6
			c-0.6,0.7-1.1,1.4-1.4,2.3c-0.3,0.9-0.5,1.8-0.5,2.7s0.2,1.8,0.5,2.7s0.8,1.6,1.4,2.3s1.3,1.2,2.2,1.6c0.9,0.4,1.8,0.6,2.9,0.6
			c0.9,0,1.8-0.2,2.6-0.6c0.8-0.4,1.5-0.9,2-1.7l4,4.3c-0.6,0.6-1.3,1.1-2.1,1.5s-1.6,0.8-2.4,1c-0.8,0.3-1.6,0.5-2.3,0.6
			c-0.7,0.1-1.4,0.2-1.9,0.2c-1.8,0-3.5-0.3-5.1-0.9c-1.6-0.6-3-1.4-4.1-2.5c-1.2-1.1-2.1-2.4-2.8-3.9c-0.7-1.5-1-3.2-1-5.1
			s0.3-3.6,1-5.1s1.6-2.9,2.8-3.9c1.2-1.1,2.5-1.9,4.1-2.5s3.3-0.9,5.1-0.9c1.5,0,3.1,0.3,4.6,0.9c1.5,0.6,2.9,1.5,4,2.8
			L415.2,630.7z"/>
		<path class="st7" d="M420.8,623.6h5.7v3.8h0.1c0.6-1.2,1.4-2.2,2.6-3.1c1.2-0.9,2.7-1.3,4.7-1.3c1.6,0,2.9,0.3,4,0.8
			s2,1.2,2.7,2.1c0.7,0.9,1.2,1.9,1.5,3s0.4,2.3,0.4,3.5v15h-6v-12.1c0-0.7,0-1.4-0.1-2.2s-0.2-1.6-0.5-2.3s-0.7-1.3-1.3-1.8
			c-0.6-0.5-1.4-0.7-2.4-0.7s-1.8,0.2-2.5,0.5s-1.2,0.8-1.7,1.3c-0.4,0.6-0.8,1.2-1,1.9s-0.3,1.5-0.3,2.3v13h-6L420.8,623.6
			L420.8,623.6z"/>
		<path class="st7" d="M446.1,635.5c0-1.9,0.3-3.6,1-5.1s1.6-2.9,2.8-3.9c1.2-1.1,2.5-1.9,4.1-2.5s3.3-0.9,5.1-0.9
			c1.8,0,3.5,0.3,5.1,0.9c1.6,0.6,3,1.4,4.1,2.5c1.2,1.1,2.1,2.4,2.8,3.9c0.7,1.5,1,3.2,1,5.1s-0.3,3.6-1,5.1s-1.6,2.9-2.8,3.9
			c-1.2,1.1-2.5,1.9-4.1,2.5s-3.3,0.9-5.1,0.9c-1.8,0-3.5-0.3-5.1-0.9c-1.6-0.6-3-1.4-4.1-2.5c-1.2-1.1-2.1-2.4-2.8-3.9
			C446.5,639.1,446.1,637.4,446.1,635.5z M452.1,635.5c0,0.9,0.2,1.8,0.5,2.7s0.8,1.6,1.4,2.3s1.3,1.2,2.2,1.6
			c0.9,0.4,1.8,0.6,2.9,0.6s2.1-0.2,2.9-0.6c0.9-0.4,1.6-0.9,2.2-1.6c0.6-0.7,1.1-1.4,1.4-2.3s0.5-1.8,0.5-2.7s-0.2-1.8-0.5-2.7
			s-0.8-1.6-1.4-2.3s-1.3-1.2-2.2-1.6c-0.9-0.4-1.8-0.6-2.9-0.6s-2.1,0.2-2.9,0.6s-1.6,0.9-2.2,1.6c-0.6,0.7-1.1,1.4-1.4,2.3
			C452.2,633.7,452.1,634.6,452.1,635.5z"/>
		<path class="st7" d="M475.7,609.9h6v37.5h-6V609.9z"/>
		<path class="st7" d="M485.3,635.5c0-1.9,0.3-3.6,1-5.1s1.6-2.9,2.8-3.9c1.2-1.1,2.5-1.9,4.1-2.5s3.3-0.9,5.1-0.9
			c1.8,0,3.5,0.3,5.1,0.9c1.6,0.6,3,1.4,4.1,2.5c1.2,1.1,2.1,2.4,2.8,3.9c0.7,1.5,1,3.2,1,5.1s-0.3,3.6-1,5.1s-1.6,2.9-2.8,3.9
			c-1.2,1.1-2.5,1.9-4.1,2.5s-3.3,0.9-5.1,0.9c-1.8,0-3.5-0.3-5.1-0.9c-1.6-0.6-3-1.4-4.1-2.5c-1.2-1.1-2.1-2.4-2.8-3.9
			C485.7,639.1,485.3,637.4,485.3,635.5z M491.3,635.5c0,0.9,0.2,1.8,0.5,2.7s0.8,1.6,1.4,2.3s1.3,1.2,2.2,1.6
			c0.9,0.4,1.8,0.6,2.9,0.6s2.1-0.2,2.9-0.6c0.9-0.4,1.6-0.9,2.2-1.6c0.6-0.7,1.1-1.4,1.4-2.3s0.5-1.8,0.5-2.7s-0.2-1.8-0.5-2.7
			s-0.8-1.6-1.4-2.3s-1.3-1.2-2.2-1.6c-0.9-0.4-1.8-0.6-2.9-0.6s-2.1,0.2-2.9,0.6s-1.6,0.9-2.2,1.6c-0.6,0.7-1.1,1.4-1.4,2.3
			C491.4,633.7,491.3,634.6,491.3,635.5z"/>
		<path class="st7" d="M539.3,623.6v21.7c0,2.2-0.3,4.1-0.8,5.8s-1.3,3.2-2.5,4.4c-1.1,1.2-2.5,2.1-4.2,2.8s-3.7,1-6,1
			c-2.2,0-4.3-0.3-6.3-0.8c-2-0.6-3.8-1.6-5.5-3.1l3.6-4.9c1.2,1.1,2.4,1.9,3.7,2.5s2.8,0.9,4.5,0.9c1.4,0,2.6-0.2,3.6-0.6
			c1-0.4,1.8-0.9,2.3-1.6c0.6-0.7,1-1.5,1.2-2.5s0.4-2.1,0.4-3.2v-1.7h-0.1c-0.9,1.2-2,2-3.4,2.6s-2.9,0.9-4.4,0.9
			c-1.8,0-3.4-0.3-4.9-1c-1.5-0.6-2.7-1.5-3.7-2.6s-1.8-2.4-2.4-3.9c-0.6-1.5-0.8-3.1-0.8-4.8c0-1.8,0.3-3.4,0.8-4.9s1.3-2.8,2.3-4
			c1-1.1,2.3-2,3.7-2.7c1.4-0.6,3.1-1,4.9-1c1.7,0,3.3,0.3,4.7,1c1.5,0.7,2.6,1.7,3.5,3.2h0.1v-3.6L539.3,623.6L539.3,623.6z
			 M526.6,628.3c-1.1,0-2,0.2-2.9,0.5s-1.6,0.8-2.2,1.4c-0.6,0.6-1.1,1.4-1.4,2.2c-0.3,0.9-0.5,1.8-0.5,2.9c0,1,0.2,1.9,0.5,2.7
			s0.8,1.6,1.5,2.2c0.6,0.6,1.4,1.1,2.2,1.5c0.9,0.4,1.8,0.5,2.8,0.5c1.1,0,2.1-0.2,3-0.5c0.9-0.4,1.6-0.8,2.2-1.5
			c0.6-0.6,1.1-1.3,1.4-2.2c0.3-0.9,0.5-1.8,0.5-2.8c0-2.1-0.6-3.8-1.9-5.1C530.5,629,528.8,628.3,526.6,628.3z"/>
		<path class="st7" d="M544.2,623.6h6v23.8h-6V623.6z M549.2,612.3h6.7l-7,7.1h-4.7L549.2,612.3z"/>
		<path class="st7" d="M569.8,644.1L569.8,644.1c-1,1.4-2.1,2.3-3.4,3c-1.3,0.6-2.8,0.9-4.4,0.9c-1.1,0-2.2-0.1-3.2-0.4
			c-1-0.3-2-0.7-2.8-1.3s-1.5-1.3-2-2.2s-0.7-1.9-0.7-3.1c0-1.3,0.2-2.4,0.7-3.3c0.5-0.9,1.1-1.7,1.9-2.3c0.8-0.6,1.7-1.1,2.7-1.5
			s2.1-0.6,3.2-0.8c1.1-0.2,2.2-0.3,3.3-0.3c1.1-0.1,2.2-0.1,3.2-0.1h1.5v-0.6c0-1.5-0.5-2.6-1.5-3.3s-2.3-1.1-3.9-1.1
			c-1.3,0-2.4,0.2-3.5,0.7c-1.1,0.4-2,1.1-2.8,1.8l-3.1-3.1c1.3-1.4,2.9-2.3,4.6-2.9c1.8-0.6,3.6-0.9,5.5-0.9c1.7,0,3.1,0.2,4.3,0.6
			c1.2,0.4,2.1,0.9,2.9,1.5c0.8,0.6,1.3,1.3,1.8,2.1c0.4,0.8,0.7,1.6,0.9,2.4c0.2,0.8,0.3,1.6,0.3,2.3s0.1,1.4,0.1,2v13.7H570v-3.8
			H569.8z M569.5,636.7h-1.2c-0.8,0-1.8,0-2.8,0.1s-2,0.2-2.9,0.5c-0.9,0.2-1.7,0.6-2.3,1.1s-0.9,1.1-0.9,2c0,0.6,0.1,1,0.4,1.4
			c0.2,0.4,0.6,0.7,1,1s0.8,0.5,1.3,0.6s1,0.2,1.5,0.2c2.1,0,3.6-0.5,4.5-1.5c1-1,1.5-2.3,1.5-4L569.5,636.7L569.5,636.7z"/>
		<path class="st7" d="M597,610.2v49.6h-5.1v-49.6H597z"/>
		<path class="st7" d="M614.4,612.3h6.2v35.1h-6.2V612.3z"/>
		<path class="st7" d="M625.9,623.6h5.7v3.8h0.1c0.6-1.2,1.4-2.2,2.6-3.1c1.2-0.9,2.7-1.3,4.7-1.3c1.6,0,2.9,0.3,4,0.8
			s2,1.2,2.7,2.1c0.7,0.9,1.2,1.9,1.5,3s0.4,2.3,0.4,3.5v15h-6v-12.1c0-0.7,0-1.4-0.1-2.2s-0.2-1.6-0.5-2.3s-0.7-1.3-1.3-1.8
			s-1.4-0.7-2.4-0.7s-1.8,0.2-2.5,0.5s-1.2,0.8-1.7,1.3c-0.4,0.6-0.8,1.2-1,1.9s-0.3,1.5-0.3,2.3v13h-6L625.9,623.6L625.9,623.6z"/>
		<path class="st7" d="M652.3,623.6h5.7v3.8h0.1c0.6-1.2,1.4-2.2,2.6-3.1c1.2-0.9,2.7-1.3,4.7-1.3c1.6,0,2.9,0.3,4,0.8
			s2,1.2,2.7,2.1c0.7,0.9,1.2,1.9,1.5,3s0.4,2.3,0.4,3.5v15h-6v-12.1c0-0.7,0-1.4-0.1-2.2s-0.2-1.6-0.5-2.3s-0.7-1.3-1.3-1.8
			s-1.4-0.7-2.4-0.7s-1.8,0.2-2.5,0.5s-1.2,0.8-1.7,1.3c-0.4,0.6-0.8,1.2-1,1.9s-0.3,1.5-0.3,2.3v13h-6L652.3,623.6L652.3,623.6z"/>
		<path class="st7" d="M677.6,635.5c0-1.9,0.3-3.6,1-5.1s1.6-2.9,2.8-3.9c1.2-1.1,2.5-1.9,4.1-2.5s3.3-0.9,5.1-0.9s3.5,0.3,5.1,0.9
			c1.6,0.6,3,1.4,4.1,2.5c1.2,1.1,2.1,2.4,2.8,3.9s1,3.2,1,5.1s-0.3,3.6-1,5.1s-1.6,2.9-2.8,3.9c-1.2,1.1-2.5,1.9-4.1,2.5
			s-3.3,0.9-5.1,0.9s-3.5-0.3-5.1-0.9c-1.6-0.6-3-1.4-4.1-2.5c-1.2-1.1-2.1-2.4-2.8-3.9C678,639.1,677.6,637.4,677.6,635.5z
			 M683.6,635.5c0,0.9,0.2,1.8,0.5,2.7s0.8,1.6,1.4,2.3c0.6,0.7,1.3,1.2,2.2,1.6c0.9,0.4,1.8,0.6,2.9,0.6s2.1-0.2,2.9-0.6
			c0.9-0.4,1.6-0.9,2.2-1.6c0.6-0.7,1.1-1.4,1.4-2.3s0.5-1.8,0.5-2.7s-0.2-1.8-0.5-2.7s-0.8-1.6-1.4-2.3c-0.6-0.7-1.3-1.2-2.2-1.6
			c-0.9-0.4-1.8-0.6-2.9-0.6s-2.1,0.2-2.9,0.6c-0.9,0.4-1.6,0.9-2.2,1.6c-0.6,0.7-1.1,1.4-1.4,2.3
			C683.8,633.7,683.6,634.6,683.6,635.5z"/>
		<path class="st7" d="M703.9,623.6h6.5l6.3,16.7h0.1l6.4-16.7h6.1l-9.4,23.8h-6.4L703.9,623.6z"/>
		<path class="st7" d="M745.8,644.1L745.8,644.1c-1,1.4-2.1,2.3-3.4,3c-1.3,0.6-2.8,0.9-4.4,0.9c-1.1,0-2.2-0.1-3.2-0.4
			c-1-0.3-2-0.7-2.8-1.3s-1.5-1.3-2-2.2s-0.7-1.9-0.7-3.1c0-1.3,0.2-2.4,0.7-3.3c0.5-0.9,1.1-1.7,1.9-2.3c0.8-0.6,1.7-1.1,2.7-1.5
			s2.1-0.6,3.2-0.8c1.1-0.2,2.2-0.3,3.3-0.3c1.1-0.1,2.2-0.1,3.2-0.1h1.5v-0.6c0-1.5-0.5-2.6-1.5-3.3s-2.3-1.1-3.9-1.1
			c-1.3,0-2.4,0.2-3.5,0.7c-1.1,0.4-2,1.1-2.8,1.8l-3.1-3.1c1.3-1.4,2.9-2.3,4.6-2.9c1.8-0.6,3.6-0.9,5.5-0.9c1.7,0,3.1,0.2,4.3,0.6
			c1.2,0.4,2.1,0.9,2.9,1.5c0.8,0.6,1.3,1.3,1.8,2.1c0.4,0.8,0.7,1.6,0.9,2.4c0.2,0.8,0.3,1.6,0.3,2.3s0.1,1.4,0.1,2v13.7H746v-3.8
			H745.8z M745.4,636.7h-1.2c-0.8,0-1.8,0-2.8,0.1s-2,0.2-2.9,0.5c-0.9,0.2-1.7,0.6-2.3,1.1s-0.9,1.1-0.9,2c0,0.6,0.1,1,0.4,1.4
			c0.2,0.4,0.6,0.7,1,1s0.8,0.5,1.3,0.6s1,0.2,1.5,0.2c2.1,0,3.6-0.5,4.5-1.5c1-1,1.5-2.3,1.5-4L745.4,636.7L745.4,636.7z"/>
		<path class="st7" d="M771.8,630.7c-0.7-0.7-1.4-1.3-2.2-1.7s-1.5-0.6-2.3-0.6c-1.1,0-2.1,0.2-2.9,0.6c-0.9,0.4-1.6,0.9-2.2,1.6
			c-0.6,0.7-1.1,1.4-1.4,2.3c-0.3,0.9-0.5,1.8-0.5,2.7s0.2,1.8,0.5,2.7s0.8,1.6,1.4,2.3c0.6,0.7,1.3,1.2,2.2,1.6
			c0.9,0.4,1.8,0.6,2.9,0.6c0.9,0,1.8-0.2,2.6-0.6c0.8-0.4,1.5-0.9,2-1.7l4,4.3c-0.6,0.6-1.3,1.1-2.1,1.5s-1.6,0.8-2.4,1
			c-0.8,0.3-1.6,0.5-2.3,0.6s-1.4,0.2-1.9,0.2c-1.8,0-3.5-0.3-5.1-0.9c-1.6-0.6-3-1.4-4.1-2.5c-1.2-1.1-2.1-2.4-2.8-3.9
			s-1-3.2-1-5.1s0.3-3.6,1-5.1s1.6-2.9,2.8-3.9c1.2-1.1,2.5-1.9,4.1-2.5s3.3-0.9,5.1-0.9c1.5,0,3.1,0.3,4.6,0.9
			c1.5,0.6,2.9,1.5,4,2.8L771.8,630.7z"/>
		<path class="st7" d="M776.7,615.5c0-1,0.4-1.8,1.1-2.5c0.7-0.7,1.6-1.1,2.7-1.1c1.1,0,2,0.3,2.8,1c0.7,0.7,1.1,1.5,1.1,2.6
			s-0.4,1.9-1.1,2.6c-0.7,0.7-1.7,1-2.8,1s-2-0.4-2.7-1.1C777.1,617.3,776.7,616.5,776.7,615.5z M777.6,623.6h6v23.8h-6V623.6z"/>
		<path class="st7" d="M787.2,635.5c0-1.9,0.3-3.6,1-5.1s1.6-2.9,2.8-3.9c1.2-1.1,2.5-1.9,4.1-2.5s3.3-0.9,5.1-0.9s3.5,0.3,5.1,0.9
			c1.6,0.6,3,1.4,4.1,2.5c1.2,1.1,2.1,2.4,2.8,3.9s1,3.2,1,5.1s-0.3,3.6-1,5.1s-1.6,2.9-2.8,3.9c-1.2,1.1-2.5,1.9-4.1,2.5
			s-3.3,0.9-5.1,0.9s-3.5-0.3-5.1-0.9c-1.6-0.6-3-1.4-4.1-2.5c-1.2-1.1-2.1-2.4-2.8-3.9S787.2,637.4,787.2,635.5z M793.1,635.5
			c0,0.9,0.2,1.8,0.5,2.7s0.8,1.6,1.4,2.3c0.6,0.7,1.3,1.2,2.2,1.6c0.9,0.4,1.8,0.6,2.9,0.6s2.1-0.2,2.9-0.6
			c0.9-0.4,1.6-0.9,2.2-1.6c0.6-0.7,1.1-1.4,1.4-2.3c0.3-0.9,0.5-1.8,0.5-2.7s-0.2-1.8-0.5-2.7s-0.8-1.6-1.4-2.3
			c-0.6-0.7-1.3-1.2-2.2-1.6c-0.9-0.4-1.8-0.6-2.9-0.6s-2.1,0.2-2.9,0.6c-0.9,0.4-1.6,0.9-2.2,1.6c-0.6,0.7-1.1,1.4-1.4,2.3
			C793.3,633.7,793.1,634.6,793.1,635.5z M802.7,612.3h6.7l-7,7.1h-4.7L802.7,612.3z"/>
		<path class="st7" d="M816.7,623.6h5.7v3.8h0.1c0.6-1.2,1.4-2.2,2.6-3.1c1.2-0.9,2.7-1.3,4.7-1.3c1.6,0,2.9,0.3,4,0.8
			s2,1.2,2.7,2.1c0.7,0.9,1.2,1.9,1.5,3s0.4,2.3,0.4,3.5v15h-6v-12.1c0-0.7,0-1.4-0.1-2.2s-0.2-1.6-0.5-2.3s-0.7-1.3-1.3-1.8
			s-1.4-0.7-2.4-0.7s-1.8,0.2-2.5,0.5s-1.2,0.8-1.7,1.3c-0.4,0.6-0.8,1.2-1,1.9s-0.3,1.5-0.3,2.3v13h-6L816.7,623.6L816.7,623.6z"/>
	</g>
</g>
</svg>
