<?xml version="1.0" encoding="utf-8"?>
<!-- Generator: Adobe Illustrator 27.1.1, SVG Export Plug-In . SVG Version: 6.00 Build 0)  -->
<svg version="1.1" id="Capa_1" xmlns="http://www.w3.org/2000/svg" xmlns:xlink="http://www.w3.org/1999/xlink" x="0px" y="0px"
	 viewBox="0 0 1000 1000" style="enable-background:new 0 0 1000 1000;" xml:space="preserve">
<style type="text/css">
	.st0{fill:#F5F5F5;}
	.st1{fill-rule:evenodd;clip-rule:evenodd;fill:#C5442E;}
	
		.st2{clip-path:url(#SVGID_00000104685133186464723490000002159065787740857221_);fill:url(#SVGID_00000117644427641818128660000017688582701588643227_);}
	
		.st3{clip-path:url(#SVGID_00000078037243872986029980000001332543943405555380_);fill:url(#SVGID_00000051376793989900084010000017769108189610924470_);}
	
		.st4{clip-path:url(#SVGID_00000154387109095472926330000003243940317121530282_);fill:url(#SVGID_00000150081219654202258180000001373396158810456217_);}
	.st5{fill-rule:evenodd;clip-rule:evenodd;fill:#DF001A;}
	.st6{fill:#DF001A;}
	.st7{fill-rule:evenodd;clip-rule:evenodd;fill:#AFB0B3;}
	.st8{fill-rule:evenodd;clip-rule:evenodd;}
	
		.st9{clip-path:url(#SVGID_00000047758359831723145120000011545876779850870202_);fill:url(#SVGID_00000017492832100123842460000014282293427796861610_);}
	
		.st10{clip-path:url(#SVGID_00000008863049466674189900000008829629845664021936_);fill:url(#SVGID_00000000201462536810716520000013337358186846307474_);}
</style>
<rect x="0" class="st0" width="1000" height="1000"/>
<g>
	<path d="M947.8,659.4h10.3l32.2,45.1h0.2v-37.1c0-0.6,0-1.6-0.2-2.9c-0.2-1.4-0.2-2.9-0.6-4.9h5.7c-0.4,1.8-0.6,3.3-0.8,4.9
		c-0.2,1.4-0.2,2.5-0.2,3.1v42.2h-10.3l-31.2-44.9h-0.2v36.7c0,1,0,2.1,0.2,3.7c0.2,1.6,0.4,2.9,0.6,4.1h-5.9c0.4-1,0.6-2.5,0.8-5.1
		c0.2-2.3,0.2-4.1,0.2-4.9v-30.5c0-0.4,0-1.6-0.2-3.5C948.4,663.5,948.2,661.5,947.8,659.4 M904.5,659.4H931c3.5,0,6.1,1,7.6,2.5
		c1.6,1.8,2.3,3.9,2.3,6.6V700c0,3.3-1,5.9-2.7,7.2c-1.8,1.4-4.3,2.1-7.6,2.1h-26c-3.5,0-6.1-0.8-7.8-2.5c-1.6-1.6-2.3-3.9-2.3-6.8
		v-31.8c0-2.9,1-5.3,2.7-6.6C899,660.1,901.6,659.4,904.5,659.4 M929.7,663.3h-23.8c-1.2,0-2.1,0.2-2.5,0.8
		c-0.6,0.6-0.8,1.6-0.8,2.9v34.8c0,1.4,0.2,2.3,0.8,2.9c0.6,0.6,1.4,0.8,2.7,0.8h23.6c1.4,0,2.1-0.2,2.7-0.8
		c0.4-0.6,0.8-1.6,0.6-2.9v-34.4c0-1.4-0.2-2.3-0.6-3.1C932,663.7,931,663.3,929.7,663.3 M876.8,659.4h9.6c-0.2,1.2-0.4,2.3-0.6,3.5
		c-0.2,1.2-0.2,2.1-0.2,3.1v36.9c0,0.8,0,2,0.2,3.3c0.2,1.4,0.4,2.3,0.6,3.3h-9.6c0.2-0.8,0.4-2,0.6-3.1c0.2-1.4,0.2-2.3,0.2-3.1
		V666c0-0.4,0-1.2,0-2.5C877.3,662.3,877.2,660.7,876.8,659.4 M820.7,659.4h10.3l32.2,45.1h0.2v-37.1c0-0.6,0-1.6-0.2-2.9
		c-0.2-1.4-0.4-2.9-0.6-4.9h5.7c-0.4,1.8-0.6,3.3-0.8,4.9c-0.2,1.4-0.2,2.5-0.2,3.1v42.2H857l-31.6-44.5h-0.2v36.7
		c0,1,0,2.1,0.2,3.7c0.2,1.6,0.4,2.9,0.6,4.1h-5.9c0.4-1,0.6-2.5,0.8-5.1c0.2-2.3,0.2-4.1,0.2-4.9v-30.5c0-0.4,0-1.6-0.2-3.5
		C821.3,663.5,821.1,661.5,820.7,659.4 M767.6,659.4h9.6c-0.2,1.4-0.4,2.5-0.6,3.7c-0.2,1.2-0.2,2.1-0.2,2.9v35.5
		c0,1.4,0.2,2.3,0.6,3.1c0.4,0.6,1.4,1,2.5,1h26c1.6,0,2.5-0.4,2.9-1c0.4-0.6,0.6-1.6,0.6-2.9v-34.4c0-0.4,0-1.4-0.2-2.7
		s-0.2-3.1-0.6-4.9h5.7c-0.2,1.4-0.6,2.7-0.6,4.5c-0.2,1.6-0.2,2.7-0.2,3.7v33.2c0,2.7-0.4,4.9-1.6,6.4c-1.2,1.6-3.3,2.3-6.4,2.3
		h-26.9c-3.5,0-6.1-0.8-7.6-2.1c-1.4-1.4-2.1-3.7-2.1-6.6V666c0-0.4,0-1.4-0.2-2.7C768.2,661.9,767.8,660.5,767.6,659.4
		 M764.9,659.4c-0.4,0.6-1,1.4-1.4,2.3c-0.6,1-1,2.1-1.8,3.3L745,709.3h-9.8l-16.4-41.8c-0.6-1.6-1.4-3.1-2-4.5
		c-0.6-1.4-1.4-2.5-2-3.9h10.5c0,0.6,0.2,1.6,0.4,2.5c0.2,1.2,0.6,2.1,0.8,3.1l15.6,40.4l0,0l15.4-40.6c0.4-0.8,0.6-1.8,0.8-2.9
		c0.2-1.2,0.4-2.1,0.4-2.5h6.1V659.4z M674.5,663.3v19.1h26c1.6,0,2.5-0.2,3.1-1c0.4-0.6,0.8-1.8,0.6-3.1V667c0-1.6-0.2-2.5-0.8-3.1
		c-0.6-0.6-1.6-0.8-2.9-0.8h-26V663.3z M665.7,659.4h36.1c3.9,0,6.6,0.8,8.2,2.1c1.6,1.6,2.3,3.9,2.3,7.2v9.2c0,3.3-0.8,5.7-2.3,7
		c-1.6,1.4-3.9,2-7.2,2c2.5,5.7,4.7,10.5,6.6,14.3c2,3.7,3.5,6.6,5.1,8.6h-9.6l-10.7-22.8h-19.7v16.4c0,0.6,0,1.6,0.2,2.9
		c0.2,1.4,0.2,2.5,0.6,3.5h-9.6c0.2-1.4,0.4-2.5,0.6-3.7c0.2-1.2,0.2-2.1,0.2-2.7v-37.1c0-0.8,0-1.8-0.2-3.1
		C666.1,661.3,665.9,660.1,665.7,659.4 M621.2,659.4h39.2l0.4,4.5c-1.8-0.2-3.5-0.4-5.1-0.4c-1.8,0-2.7-0.2-3.3-0.2H630v19.1h20.5
		c0.4,0,1.6,0,3.5,0s3.7-0.2,5.3-0.4v5.1c-2.1-0.2-4.1-0.4-5.9-0.4c-1.6,0-2.7,0-3.1,0h-20.5v19.1h23c0.6,0,1.8,0,3.1-0.2
		c1.6-0.2,3.1-0.2,4.7-0.4l-0.4,4.5H621c0.4-1.4,0.6-2.7,0.6-3.7c0-1,0.2-2,0.2-2.9v-37.3c0-1.2,0-2.1-0.2-3.3
		C621.6,661.1,621.4,660.1,621.2,659.4 M615.9,664.2c-1.6-0.4-3.1-0.6-4.9-0.8c-1.8-0.2-3.1-0.2-4.3-0.2h-18.4
		c-1.6,0-2.5,0.2-2.9,0.8c-0.6,0.6-0.8,1.6-0.8,3.1v34.4c0,1.4,0.2,2.3,0.6,2.9c0.4,0.6,1.4,1,2.9,1h19.7c1.2,0,2.5,0,4.3-0.2
		c1.8-0.2,3.1-0.4,4.3-0.8l-0.4,4.9H587c-3.9,0-6.4-0.6-8-2c-1.6-1.4-2.3-3.7-2.3-7v-32c0-3.1,0.8-5.5,2.3-7c1.6-1.4,4.3-2.1,8-2.1
		h28.3L615.9,664.2z"/>
	<path class="st1" d="M244.8,720.1c-16-15.6-44.7-20.9-43.7-30.3l-15.8,6.8c-1,9.4,28.5,15.8,44.5,31.2L244.8,720.1z"/>
	<g>
		<g>
			<defs>
				<path id="SVGID_1_" d="M116.1,564.5c30.7,12.1,114.4,24.2,165.8,39.2c117.9,34.4-94.9,76.7-96.6,92.5
					c40.6-19.7,184.7-47.4,140.8-84.5c-8.2-7-18.5-10.9-28.7-14.3C236,576.6,121.6,566.2,113,552.8l-8.2-0.4
					C106.1,554.7,109.7,561.9,116.1,564.5"/>
			</defs>
			<clipPath id="SVGID_00000080207006077658078790000006545785961337061789_">
				<use xlink:href="#SVGID_1_"  style="overflow:visible;"/>
			</clipPath>
			
				<linearGradient id="SVGID_00000039828451337879862450000013332632491976015791_" gradientUnits="userSpaceOnUse" x1="-206.4272" y1="1056.4961" x2="-201.8022" y2="1056.4961" gradientTransform="matrix(69.3201 -18.1606 11.5468 44.0748 2200.8167 -49647.0898)">
				<stop  offset="0" style="stop-color:#DF001A"/>
				<stop  offset="0.1" style="stop-color:#F1E2E0"/>
				<stop  offset="0.2" style="stop-color:#DF001A"/>
				<stop  offset="1" style="stop-color:#C30D23"/>
			</linearGradient>
			
				<polygon style="clip-path:url(#SVGID_00000080207006077658078790000006545785961337061789_);fill:url(#SVGID_00000039828451337879862450000013332632491976015791_);" points="
				69.6,561.5 380.8,479.5 434.9,686.9 123.5,768.9 			"/>
		</g>
	</g>
	<g>
		<g>
			<defs>
				<path id="SVGID_00000112600828907190678010000004452740057240922534_" d="M9.3,374.5c-3.9,5.5-7.6,12.1-8.4,17.6
					C44.4,320,220,287.6,373.2,290.7l6.4-16c-10.7-0.4-21.7-0.6-32.6-0.6C202.4,274,49.7,304.6,9.3,374.5"/>
			</defs>
			<clipPath id="SVGID_00000138558102132011903780000005793907327466314131_">
				<use xlink:href="#SVGID_00000112600828907190678010000004452740057240922534_"  style="overflow:visible;"/>
			</clipPath>
			
				<linearGradient id="SVGID_00000085218177067802006680000003968510896282573998_" gradientUnits="userSpaceOnUse" x1="-205.7029" y1="1054.9803" x2="-201.0813" y2="1054.9803" gradientTransform="matrix(81.9569 0 0 26.3352 16860.2656 -27450.1992)">
				<stop  offset="0" style="stop-color:#DE1A24"/>
				<stop  offset="9.000000e-02" style="stop-color:#DD684E"/>
				<stop  offset="0.16" style="stop-color:#E8B8AD"/>
				<stop  offset="0.2" style="stop-color:#E79F8C"/>
				<stop  offset="0.24" style="stop-color:#EDC3BA"/>
				<stop  offset="0.26" style="stop-color:#ECB9AE"/>
				<stop  offset="0.43" style="stop-color:#DE1A24"/>
				<stop  offset="0.67" style="stop-color:#E77C66"/>
				<stop  offset="1" style="stop-color:#DE1A24"/>
			</linearGradient>
			
				<rect x="0.7" y="274" style="clip-path:url(#SVGID_00000138558102132011903780000005793907327466314131_);fill:url(#SVGID_00000085218177067802006680000003968510896282573998_);" width="378.8" height="117.9"/>
		</g>
	</g>
	<g>
		<g>
			<defs>
				<path id="SVGID_00000101093033049368713300000003905134435232614591_" d="M0.7,392.1C-13.2,471.3,222.5,504.1,407,494l9.4-10.9
					C231.9,493.2-4,456.9,9.9,377.4L0.7,392.1z"/>
			</defs>
			<clipPath id="SVGID_00000150088515726789956470000013612989079944704669_">
				<use xlink:href="#SVGID_00000101093033049368713300000003905134435232614591_"  style="overflow:visible;"/>
			</clipPath>
			
				<linearGradient id="SVGID_00000147196364143462235890000010989233445496644018_" gradientUnits="userSpaceOnUse" x1="-206.4219" y1="1025.0334" x2="-201.7874" y2="1025.0334" gradientTransform="matrix(83.4277 47.0939 -39.2076 69.457 57417.1523 -61143.6484)">
				<stop  offset="0" style="stop-color:#E47567"/>
				<stop  offset="1.000000e-02" style="stop-color:#EDB8B2"/>
				<stop  offset="0.37" style="stop-color:#DB1B24"/>
				<stop  offset="1" style="stop-color:#CB2429"/>
			</linearGradient>
			
				<polygon style="clip-path:url(#SVGID_00000150088515726789956470000013612989079944704669_);fill:url(#SVGID_00000147196364143462235890000010989233445496644018_);" points="
				90.7,192.7 470.1,408.3 312.5,689 -66.9,473.5 			"/>
		</g>
	</g>
	<polygon class="st1" points="358.6,265.8 378.7,300.9 443.7,291.7 444.3,288.6 359.2,262.4 	"/>
	<polygon class="st5" points="359.8,262.8 379.5,297.2 443.9,289 444.1,288.4 	"/>
	<path class="st6" d="M997.2,605.1c0,10.5-3.7,19.5-11.3,26.9c-7.4,7.6-16.8,11.3-27.7,11.3H842.6c-10.7,0-19.9-3.7-27.5-11.3
		s-11.5-16.6-11.5-26.9V455.7c0-10.5,3.9-19.5,11.5-26.9c7.6-7.4,16.8-11.3,27.5-11.3h115.6c10.9,0,20.1,3.7,27.7,11.3
		c7.4,7.4,11.3,16.6,11.3,26.9v59.2c0,8.6-4.3,12.7-12.9,12.7h-57.6c-8.6,0-12.9-4.3-12.9-12.7v-42.2c0-8.6-4.3-12.7-13.1-12.7
		c-8.6,0-12.9,4.3-12.9,12.7v115.2c0,8.6,4.3,12.7,12.9,12.7c8.6,0,13.1-4.3,13.1-12.7v-8.4c0-8.6,4.3-12.7,12.9-12.7h57.6
		c8.6,0,12.9,4.3,12.9,12.7V605.1z M778.4,630.7c0,8.6-4.3,12.7-12.9,12.7h-123c-8.6,0-12.9-4.3-12.9-12.7V430.3
		c0-8.6,4.3-12.7,12.9-12.7h123c8.6,0,12.9,4.3,12.9,12.7v17c0,8.6-4.3,12.7-12.9,12.7h-39c-8.6,0-13.1,4.3-13.1,12.7
		c0,8.2,4.3,12.5,13.1,12.7h39c8.6,0,12.9,4.3,12.9,12.7v16.6c0,8.6-4.3,12.7-12.9,12.7h-38.7c-8.6,0-12.9,4.3-12.9,12.7l-0.4,47.6
		c0,8.6,4.5,12.7,13.3,12.7h38.7c8.6,0,12.9,4.3,12.9,12.7V630.7z M604,514.9c0,8.6-4.3,12.7-13.1,12.7h-39.2
		c-8.8,0-13.1,4.3-13.1,12.7V673c0,8.6-4.3,12.7-12.9,12.7h-31.6c-10.7,0-19.9-3.7-27.5-11.3c-7.6-7.4-11.5-16.6-11.5-26.9V430.3
		c0-8.6,4.3-12.7,12.9-12.7h122.8c8.6,0,13.1,4.3,13.1,12.7v17c0,8.6-4.3,12.7-13.1,12.7h-38.9c-8.6,0-12.9,4.3-12.9,12.7
		c0,8.2,4.3,12.5,12.9,12.7h38.9c8.6,0,13.1,4.3,13.1,12.7v16.8H604z"/>
	<path d="M998.6,355.8l0.4,3.1c-0.8-0.2-1.8-0.2-2.9-0.2c-1.2,0-2,0-2.7,0h-15c-1,0-1.6,0.2-1.8,0.6c-0.4,0.4-0.6,1-0.4,2v6.1
		c0,1,0.2,1.6,0.4,2c0.4,0.4,1,0.6,2,0.6h14.8c2.5,0,4.1,0.4,5.3,1.4c1,1,1.6,2.5,1.4,4.5v7.8c0,2.3-0.6,3.9-1.8,4.7
		c-1.2,0.8-2.7,1.2-4.9,1.2h-21.7l-0.4-2.9c1,0.2,2,0.2,2.9,0.2c1,0,1.8,0.2,2.1,0.2h16c1,0,1.6-0.2,2-0.6c0.4-0.4,0.4-1.2,0.4-2.1
		v-7c0-1-0.2-1.8-0.4-2c-0.4-0.4-1-0.6-1.8-0.6h-14.8c-2.7,0-4.7-0.6-5.5-1.8c-0.8-1.2-1.2-2.5-1.2-4.3v-6.8c0-2,0.4-3.3,1.4-4.5
		c1-1,2.7-1.6,5.3-1.6h20.9V355.8z M942.2,355.8h17.6c2.3,0,4.1,0.6,5.1,1.8c1,1.2,1.6,2.5,1.6,4.5v20.9c0,2.1-0.6,3.9-1.8,4.9
		c-1.2,1-2.9,1.4-5.1,1.4h-17.2c-2.3,0-4.1-0.6-5.1-1.6c-1-1.2-1.6-2.5-1.6-4.5V362c0-2,0.6-3.5,1.8-4.5
		C938.5,356.2,940,355.8,942.2,355.8 M958.8,358.3H943c-0.8,0-1.4,0.2-1.8,0.6s-0.6,1-0.4,2v23c0,1,0.2,1.6,0.4,2
		c0.4,0.4,1,0.6,1.8,0.6h15.6c0.8,0,1.6-0.2,1.8-0.6c0.4-0.4,0.4-1,0.4-2v-22.6c0-1,0-1.6-0.4-2
		C960.3,358.5,959.7,358.3,958.8,358.3 M906.1,358.3v27.9h17.2c1,0,1.6-0.2,1.8-0.6c0.4-0.4,0.4-1,0.4-2v-22.8c0-0.8-0.2-1.6-0.4-2
		c-0.4-0.4-1-0.6-2-0.6H906.1z M900.2,355.8H924c2.7,0,4.5,0.6,5.5,1.6c1,1,1.4,2.5,1.4,4.5v21.3c0,2-0.4,3.5-1.6,4.5
		c-1,1-2.7,1.4-5.3,1.4h-23.8c0.2-0.4,0.2-1.2,0.4-2c0-0.8,0.2-1.6,0.2-2.5v-24.8c0-0.4,0-1-0.2-1.8
		C900.6,357.1,900.4,356.5,900.2,355.8 M878.5,360.3L878.5,360.3l-7.8,15.8h15.6L878.5,360.3z M875,355.8h6.6
		c2.7,5.5,5.1,10.2,7,14.3c2,3.9,3.5,7.2,4.9,10c1.4,2.7,2.3,4.7,3.1,6.2c0.8,1.6,1.4,2.3,2,2.9h-7c0-0.4-0.2-0.8-0.2-1.2
		s-0.2-0.8-0.4-1.2c-0.6-1.4-1.2-2.7-1.8-3.9s-1.4-2.5-2-3.9h-18.2c-0.6,1.2-1.2,2.3-1.8,3.5c-0.6,1.2-1.2,2.3-1.8,3.5
		c-0.2,0.6-0.4,1-0.6,1.6c-0.2,0.6-0.2,1-0.2,1.6h-4.3c0.4-0.4,0.8-1,1.2-1.6c0.4-0.6,0.8-1.2,1.2-2.1l13.5-27.5
		c-0.2-0.2-0.4-0.6-0.6-0.8C876,356.7,875.6,356.3,875,355.8 M834.6,355.8h26l0.2,3.1c-1.2-0.2-2.3-0.2-3.3-0.2c-1.2,0-1.8,0-2.1,0
		h-15v12.7h13.7c0.4,0,1.2,0,2.3,0c1.2,0,2.3-0.2,3.5-0.2v3.3c-1.4-0.2-2.7-0.2-3.9-0.4c-1.2,0-1.8,0-2.1,0h-13.5v12.7h15.2
		c0.4,0,1.2,0,2.1-0.2c1,0,2-0.2,3.1-0.2l-0.2,2.9h-26c0.2-1,0.4-1.8,0.4-2.5s0.2-1.4,0.2-2v-24.8c0-0.8,0-1.4-0.2-2.1
		C834.8,356.9,834.8,356.3,834.6,355.8 M804.5,355.8h6.2c-0.2,1-0.4,1.8-0.4,2.5c0,0.8-0.2,1.4-0.2,1.8v26.2h16c0.6,0,1.6,0,2.5-0.2
		c1,0,2.1-0.2,3.1-0.2l-0.4,2.9h-26.9c0.2-0.6,0.2-1.2,0.4-2.1c0-0.8,0.2-1.6,0.2-2v-25c0-0.2,0-0.8,0-1.6
		C804.9,357.3,804.7,356.5,804.5,355.8 M775.6,358.3v15.4h17.8c1,0,1.6-0.2,1.8-0.6c0.4-0.4,0.4-1.2,0.4-2.1v-10.2
		c0-1-0.2-1.6-0.4-2s-1-0.6-1.8-0.6L775.6,358.3L775.6,358.3z M769.8,355.8h24.4c2.5,0,4.3,0.6,5.3,1.6s1.4,2.5,1.4,4.5v8.8
		c0,2.1-0.4,3.7-1.6,4.7c-1,1-2.7,1.4-5.3,1.4h-18.5v8.2c0,0.2,0,0.6,0,1.6c0,0.8,0.2,1.8,0.4,2.7h-6.2c0.2-0.8,0.4-1.6,0.4-2.3
		c0-0.8,0.2-1.6,0.2-2v-24.6c0-0.4,0-1.2-0.2-2.1C770.2,356.9,770,356.3,769.8,355.8 M723.7,355.8h7.4l13.5,29.7l13.3-29.7h7.4
		c-0.2,1-0.4,2-0.4,3.1s-0.2,2-0.2,2.3v23.6c0,0.4,0,1,0,1.8c0,0.8,0.2,1.6,0.4,2.3h-6.4c0.2-1,0.4-1.8,0.4-2.5s0-1.4,0-1.6v-25.4
		h-0.2l-13.3,29.7h-5.3l-13.5-29.7h-0.2v25.8c0,0.6,0,1.2,0.2,2c0,0.8,0.2,1.4,0.4,2h-3.7c0.2-1,0.4-2.1,0.6-3.7
		c0-1.6,0.2-2.5,0.2-3.1v-20.1c0-0.6,0-1.6-0.2-2.9C724.1,357.7,723.9,356.5,723.7,355.8 M694.4,355.8h26l0.2,3.1
		c-1.2-0.2-2.3-0.2-3.3-0.2c-1.2,0-1.8,0-2.1,0h-15v12.7h13.7c0.4,0,1,0,2.3,0c1.2,0,2.3-0.2,3.5-0.2v3.3c-1.4-0.2-2.7-0.2-3.9-0.4
		c-1.2,0-1.8,0-2.1,0h-13.5v12.7h15.2c0.4,0,1.2,0,2.1-0.2c1,0,2-0.2,3.1-0.2l-0.2,2.9h-26c0.2-1,0.4-1.8,0.4-2.5s0-1.4,0-2v-24.8
		c0-0.8,0-1.4-0.2-2.1C694.6,356.9,694.4,356.3,694.4,355.8 M650.1,355.8h26l0.2,3.1c-1.2-0.2-2.3-0.2-3.3-0.2c-1.2,0-1.8,0-2.1,0
		h-15v12.7h13.7c0.4,0,1.2,0,2.3,0c1.2,0,2.3-0.2,3.5-0.2v3.3c-1.4-0.2-2.7-0.2-3.9-0.4c-1.2,0-1.8,0-2.1,0h-13.7v12.7h15.2
		c0.4,0,1.2,0,2.1-0.2c1,0,2-0.2,3.1-0.2l-0.2,2.9h-26c0.2-1,0.4-1.8,0.4-2.5s0-1.4,0-2v-24.8c0-0.8,0-1.4-0.2-2.1
		C650.5,356.9,650.3,356.3,650.1,355.8 M620.6,358.3v27.9h17.2c1,0,1.6-0.2,1.8-0.6c0.4-0.4,0.4-1,0.4-2v-22.8c0-0.8,0-1.6-0.4-2
		c-0.4-0.4-1-0.6-2-0.6H620.6z M614.9,355.8h23.8c2.7,0,4.5,0.6,5.5,1.6c1,1,1.4,2.5,1.4,4.5v21.3c0,2-0.4,3.5-1.6,4.5
		c-1,1-2.7,1.4-5.3,1.4h-24c0.2-0.4,0.2-1.2,0.4-2s0.2-1.6,0.2-2.5v-24.8c0-0.4,0-1-0.2-1.8C615.1,357.1,614.9,356.5,614.9,355.8
		 M571.4,355.8H589c2.3,0,4.1,0.6,5.1,1.8c1,1.2,1.6,2.5,1.6,4.5v20.9c0,2.1-0.6,3.9-1.8,4.9c-1.2,1-2.9,1.4-5.1,1.4h-17.2
		c-2.3,0-4.1-0.6-5.1-1.6c-1-1.2-1.6-2.5-1.6-4.5V362c0-2,0.6-3.5,1.8-4.5C567.7,356.2,569.3,355.8,571.4,355.8 M588,358.3h-15.8
		c-0.8,0-1.4,0.2-1.8,0.6s-0.6,1-0.4,2v23c0,1,0.2,1.6,0.4,2c0.4,0.4,1,0.6,1.8,0.6h15.6c0.8,0,1.6-0.2,1.8-0.6c0.4-0.4,0.4-1,0.4-2
		v-22.6c0-1,0-1.6-0.4-2C589.6,358.5,589,358.3,588,358.3 M535.3,358.3v27.9h17.4c1,0,1.6-0.2,1.8-0.6c0.4-0.4,0.4-1,0.4-2v-22.8
		c0-0.8-0.2-1.6-0.4-2c-0.4-0.4-1-0.6-2-0.6H535.3z M529.4,355.8h23.8c2.7,0,4.5,0.6,5.5,1.6s1.4,2.5,1.4,4.5v21.3
		c0,2-0.4,3.5-1.6,4.5c-1,1-2.7,1.4-5.3,1.4h-24c0.2-0.4,0.2-1.2,0.4-2c0.2-0.8,0.2-1.6,0.2-2.5v-24.8c0-0.4,0-1-0.2-1.8
		C529.8,357.1,529.6,356.5,529.4,355.8 M493.1,355.8h6.8l21.5,29.9h0.2V361c0-0.4,0-1.2-0.2-2c0-1-0.2-2-0.4-3.3h3.7
		c-0.2,1.2-0.4,2.1-0.4,3.1s-0.2,1.8-0.2,2.1V389h-6.6l-20.9-29.5h-0.2v24.4c0,0.6,0,1.4,0.2,2.3c0,1,0.2,2,0.4,2.7h-3.9
		c0.2-0.6,0.4-1.8,0.4-3.3c0.2-1.6,0.2-2.7,0.2-3.3v-20.1c0-0.2,0-1-0.2-2.3C493.5,358.5,493.5,357.1,493.1,355.8 M464.4,355.8H482
		c2.3,0,4.1,0.6,5.1,1.8c1,1.2,1.6,2.5,1.6,4.5v20.9c0,2.1-0.6,3.9-1.8,4.9c-1.2,1-2.9,1.4-5.1,1.4h-17.2c-2.3,0-4.1-0.6-5.1-1.6
		c-1-1.2-1.6-2.5-1.6-4.5V362c0-2,0.6-3.5,1.8-4.5C460.9,356.2,462.5,355.8,464.4,355.8 M481.2,358.3h-15.8c-0.8,0-1.4,0.2-1.8,0.6
		c-0.4,0.4-0.6,1-0.4,2v23c0,1,0.2,1.6,0.4,2c0.4,0.4,1,0.6,1.8,0.6H481c0.8,0,1.6-0.2,1.8-0.6c0.4-0.4,0.4-1,0.4-2v-22.6
		c0-1-0.2-1.6-0.4-2C482.6,358.5,482,358.3,481.2,358.3 M456,355.8l0.4,3.1c-1-0.2-2.1-0.2-3.3-0.2c-1.2,0-2.1,0-2.9,0h-14.8v12.7
		h13.3c0.4,0,1.2,0,2.5,0c1.2,0,2.3-0.2,3.3-0.2v3.3c-1.4-0.2-2.5-0.2-3.5-0.4c-1.2,0-2,0-2.3,0h-13.1V385c0,0.6,0,1.2,0,2.1
		c0,0.8,0.2,1.6,0.4,2.1h-6.2c0.2-1,0.4-1.8,0.4-2.5s0-1.4,0-2v-24.8c0-0.8,0-1.4-0.2-2.1c0-0.8-0.2-1.4-0.4-2H456V355.8z"/>
	<path class="st7" d="M310.6,378c4.5,26.2-4.5,39-57.2,80.6c-82.4,65,104.5,143.9,15.2,267.3c2-60.7-8.6-111.9-46.9-141.7
		c-24,87.9-73.8,135.7-142.5,153.3c263.6-231.4-24.4-363.9,6.6-196.2C-8.1,372,268.2,483.3,310.6,378"/>
	<path class="st7" d="M195.2,364.2c-12.7,0-23,10.2-23,22.6c0,12.5,10.3,22.6,23,22.6c12.7,0,23-10.2,23-22.6
		C218.2,374.3,208.1,364.2,195.2,364.2"/>
	<path class="st8" d="M315.4,368.5c4.5,26.2-4.5,39-57,80.6c-82.4,65,104.5,143.9,15.2,267.3c2-60.7-8.6-111.9-47.1-141.7
		c-24,87.9-73.6,135.7-142.5,153.3c263.6-231.4-24.4-363.7,6.6-196.2C-3.2,362.2,273.1,473.5,315.4,368.5"/>
	<path class="st8" d="M200.2,354.6c-12.7,0-23,10.2-23,22.6s10.3,22.6,23,22.6s23-10.2,23-22.6C223.1,364.7,212.9,354.6,200.2,354.6
		"/>
	<g>
		<g>
			<defs>
				<path id="SVGID_00000043440586432419111760000013007769511929364927_" d="M103,537.5c-5.7,4.5,1.8,22.1,8.6,16.2
					c27.5-24,147.4-39.2,305.2-54.5v-16.6C258.2,497.9,131.1,514.5,103,537.5"/>
			</defs>
			<clipPath id="SVGID_00000176725863801671475070000000078396114422691973_">
				<use xlink:href="#SVGID_00000043440586432419111760000013007769511929364927_"  style="overflow:visible;"/>
			</clipPath>
			
				<linearGradient id="SVGID_00000062903078888744303100000002471337867310433704_" gradientUnits="userSpaceOnUse" x1="-201.237" y1="1080.947" x2="-196.6233" y2="1080.947" gradientTransform="matrix(69.1898 0 0 16.5765 14021.0918 -17397.1855)">
				<stop  offset="0" style="stop-color:#DF001A"/>
				<stop  offset="4.000000e-02" style="stop-color:#C91223"/>
				<stop  offset="0.62" style="stop-color:#CE1023"/>
				<stop  offset="0.7" style="stop-color:#E35C4A"/>
				<stop  offset="0.85" style="stop-color:#DF001A"/>
				<stop  offset="0.94" style="stop-color:#EFB0A6"/>
				<stop  offset="1" style="stop-color:#E55236"/>
			</linearGradient>
			
				<rect x="97.5" y="482.7" style="clip-path:url(#SVGID_00000176725863801671475070000000078396114422691973_);fill:url(#SVGID_00000062903078888744303100000002471337867310433704_);" width="319.2" height="76.9"/>
		</g>
	</g>
	<g>
		<g>
			<defs>
				<path id="SVGID_00000138539969127444940350000011085824380087323550_" d="M291.6,606.8c95.5,33.8-104.7,74.2-106.4,89.4
					c40.6-19.7,184.7-47.4,140.8-84.5c-9.6-8.2-22.5-12.5-34.4-16.2L291.6,606.8z M116.1,564.5l-3.1-11.7l-8.2-0.4
					C106.1,554.7,109.7,561.9,116.1,564.5"/>
			</defs>
			<clipPath id="SVGID_00000114037891735804593860000005321331609183708082_">
				<use xlink:href="#SVGID_00000138539969127444940350000011085824380087323550_"  style="overflow:visible;"/>
			</clipPath>
			
				<linearGradient id="SVGID_00000048485204411640611650000007796487700717898682_" gradientUnits="userSpaceOnUse" x1="-206.4383" y1="1056.4374" x2="-201.8128" y2="1056.4374" gradientTransform="matrix(69.3576 -18.1704 11.553 44.0986 2203.5193 -49673.5547)">
				<stop  offset="0" style="stop-color:#DF001A"/>
				<stop  offset="0.1" style="stop-color:#F1E2E0"/>
				<stop  offset="0.2" style="stop-color:#DF001A"/>
				<stop  offset="1" style="stop-color:#C30D23"/>
			</linearGradient>
			
				<polygon style="clip-path:url(#SVGID_00000114037891735804593860000005321331609183708082_);fill:url(#SVGID_00000048485204411640611650000007796487700717898682_);" points="
				69.6,561.5 368.9,482.7 422.2,686.9 122.7,765.8 			"/>
		</g>
	</g>
</g>
</svg>
