<?xml version="1.0" encoding="utf-8"?>
<!-- Generator: Adobe Illustrator 28.0.0, SVG Export Plug-In . SVG Version: 6.00 Build 0)  -->
<svg version="1.1" id="Capa_2_00000011736935919877412780000001462457809247342976_"
	 xmlns="http://www.w3.org/2000/svg" xmlns:xlink="http://www.w3.org/1999/xlink" x="0px" y="0px" viewBox="0 0 1000 1000"
	 style="enable-background:new 0 0 1000 1000;" xml:space="preserve">
<style type="text/css">
	.st0{fill:#F5F5F5;}
	.st1{fill:url(#SVGID_1_);}
	.st2{fill:url(#SVGID_00000076586708821977590270000013014927478104768402_);}
	.st3{fill:url(#SVGID_00000024689248625095927250000001940003828041182600_);}
	.st4{fill:url(#SVGID_00000180361727394058621500000004781717595414484143_);}
	.st5{fill:url(#SVGID_00000048482565910797337400000017418105403320143236_);}
	.st6{fill:url(#SVGID_00000149379478283812098620000012007759476385354373_);}
	.st7{fill:url(#SVGID_00000111893244383748811750000008333556111721322937_);}
	.st8{fill:url(#SVGID_00000059304422172816151740000011917756033333587875_);}
	.st9{fill:url(#SVGID_00000147918483693482927060000009065052803524176780_);}
	.st10{fill:url(#SVGID_00000157288623409486702720000009633568827181455244_);}
	.st11{fill:url(#SVGID_00000143603308386221583870000009688724035098135206_);}
	.st12{fill:url(#SVGID_00000056424528159570946300000003160259605046205094_);}
	.st13{fill:url(#SVGID_00000145022496316296033570000009436274005706908070_);}
	.st14{fill:url(#SVGID_00000018930874139003551850000018433706467068034751_);}
	.st15{fill:url(#SVGID_00000165935923138263604450000015269370389867044799_);}
	.st16{fill:url(#SVGID_00000055705041195581341810000003888340498665713317_);}
	.st17{fill:url(#SVGID_00000021089564873002603330000016385526375042521778_);}
	.st18{fill:url(#SVGID_00000075151647041695021490000005521513729751340440_);}
</style>
<rect class="st0" width="1000" height="1000"/>
<g>
	
		<linearGradient id="SVGID_1_" gradientUnits="userSpaceOnUse" x1="669.2785" y1="814.2987" x2="198.3488" y2="728.4338" gradientTransform="matrix(1 0 0 -1 0 1002)">
		<stop  offset="0.1296" style="stop-color:#283337"/>
		<stop  offset="1" style="stop-color:#5DBBAE"/>
	</linearGradient>
	<path class="st1" d="M568.9,247.1c26.7-14.5,29.6-16.2,45.6-24.8c4.6-2.5,10.4-5.6,18.3-9.9c7.9-4.3,16.4-7.5,25.1-9.3
		c4.6-1,9.4-1.6,14.3-1.8c3.9-0.1,7.9,0,11.9,0.4c7.1,0.8,14.9,2.4,22.9,5.6c5,2,10.2,4.6,15.3,7.9l0.1,0.1l0,0l0,0l0.1,0.1l0.1,0.1
		c0.1,0,0.1,0.1,0.3,0.1l0.1,0.1l0,0l0,0l0,0l0,0l0,0l0,0c0,0-0.1-0.8-0.3-2c-0.5-2.8-1.6-8.3-4.1-15c-1-2.8-2.1-5.6-3.6-8.8
		c-6-12.5-16.2-27-33.5-36.6c-16.2-9.2-38.6-14-69.6-9.3c-9.7,5.4-19.2,10.8-28.8,16.2c-1.5,0.9-3,1.6-4.5,2.5
		c-17.5,9.8-35.1,19.7-52.6,29.5c2.1,23.2,5.3,52.3,7.4,74.1c9.3-5.1,18.4-10,20.7-11.3C555.7,254.2,567.6,247.9,568.9,247.1z"/>
	
		<linearGradient id="SVGID_00000132771648189265828250000000013005888966549949_" gradientUnits="userSpaceOnUse" x1="549.9845" y1="432.6598" x2="700.4697" y2="885.8854" gradientTransform="matrix(1 0 0 -1 0 1002)">
		<stop  offset="0.1296" style="stop-color:#283337"/>
		<stop  offset="1" style="stop-color:#5DBBAE"/>
	</linearGradient>
	<path style="fill:url(#SVGID_00000132771648189265828250000000013005888966549949_);" d="M547,532.3c0,0,1.5,46.5-47,70.6
		c0,0,87.1,28,117.8-62.4v-89.6L547,402.9V532.3z"/>
	
		<linearGradient id="SVGID_00000003100674738584922810000014750681176835672971_" gradientUnits="userSpaceOnUse" x1="558.5543" y1="454.1055" x2="691.9254" y2="880.1848" gradientTransform="matrix(1 0 0 -1 0 1002)">
		<stop  offset="0.1296" style="stop-color:#283337"/>
		<stop  offset="1" style="stop-color:#5DBBAE"/>
	</linearGradient>
	<path style="fill:url(#SVGID_00000003100674738584922810000014750681176835672971_);" d="M547,532.3c0,0,1.5,46.5-47,70.6
		c0,0,87.1,28,117.8-62.4v-89.6L547,402.9V532.3z"/>
	
		<linearGradient id="SVGID_00000085942578378107484200000014382095769865265059_" gradientUnits="userSpaceOnUse" x1="271.2155" y1="720.1596" x2="632.3798" y2="417.419" gradientTransform="matrix(1 0 0 -1 0 1002)">
		<stop  offset="0.1296" style="stop-color:#283337"/>
		<stop  offset="1" style="stop-color:#5DBBAE"/>
	</linearGradient>
	<path style="fill:url(#SVGID_00000085942578378107484200000014382095769865265059_);" d="M310.8,294.2c0,0-37.2-16-36.4-78.3
		c-47.6,44.5-29.8,94-17,117.1c2.5,4.3,5.3,8.6,8.5,13.2l88,52.3l68.6-42.5L310.8,294.2z"/>
	
		<linearGradient id="SVGID_00000035515147974305154900000002342787537899436719_" gradientUnits="userSpaceOnUse" x1="390.6254" y1="904.0506" x2="715.201" y2="607.8015" gradientTransform="matrix(1 0 0 -1 0 1002)">
		<stop  offset="0" style="stop-color:#3EABC5"/>
		<stop  offset="1" style="stop-color:#051A22"/>
	</linearGradient>
	<path style="fill:url(#SVGID_00000035515147974305154900000002342787537899436719_);" d="M689.2,394.3c0,0,37.2,16,36.4,78.3
		c47.6-44.5,29.8-94,17-117.1c-2.5-4.3-5.3-8.6-8.5-13.2l-19.3-11.5l-63.3-37.7L573.1,330l1.4,0.8L689.2,394.3z"/>
	
		<linearGradient id="SVGID_00000089559495390725458000000003258897151444241330_" gradientUnits="userSpaceOnUse" x1="458.0259" y1="883.3716" x2="266.8212" y2="373.4928" gradientTransform="matrix(1 0 0 -1 0 1002)">
		<stop  offset="0" style="stop-color:#051A22"/>
		<stop  offset="1" style="stop-color:#3EABC5"/>
	</linearGradient>
	<path style="fill:url(#SVGID_00000089559495390725458000000003258897151444241330_);" d="M437.8,325.4c9.3-5.1,15.2-14.9,15.2-25.6
		V156.2c0,0-1.5-46.5,47-70.6c0,0-87.1-28-117.8,62.4v122.2c0,2.8-1.5,5.4-3.9,6.8L353.3,292l68.9,42.1L437.8,325.4z"/>
	
		<linearGradient id="SVGID_00000178897651884654113490000009213587289670663081_" gradientUnits="userSpaceOnUse" x1="422.123" y1="938.5601" x2="746.6988" y2="642.311" gradientTransform="matrix(1 0 0 -1 0 1002)">
		<stop  offset="0" style="stop-color:#3EABC5"/>
		<stop  offset="0.8321" style="stop-color:#051A22"/>
	</linearGradient>
	<path style="fill:url(#SVGID_00000178897651884654113490000009213587289670663081_);" d="M502.3,23.4H500
		c0,0-103.7-5.3-117.8,114.2V148C412.9,57.7,500,85.5,500,85.5h2.3c3.1,1.5,6.1,3.3,8.8,5V23.6C505.5,23.2,502.3,23.4,502.3,23.4z"
		/>
	
		<linearGradient id="SVGID_00000150096602099310770380000001509803473198193287_" gradientUnits="userSpaceOnUse" x1="254.5773" y1="749.3548" x2="619.2825" y2="349.2415" gradientTransform="matrix(1 0 0 -1 0 1002)">
		<stop  offset="0.1296" style="stop-color:#283337"/>
		<stop  offset="1" style="stop-color:#5DBBAE"/>
	</linearGradient>
	<path style="fill:url(#SVGID_00000150096602099310770380000001509803473198193287_);" d="M310.8,294.2c0,0-37.2-16-36.4-78.3
		c-47.6,44.5-29.8,94-17,117.1c2.5,4.3,5.3,8.6,8.5,13.2l88,52.3l68.6-42.5L310.8,294.2z"/>
	
		<linearGradient id="SVGID_00000151511020119717064870000005966855311815177639_" gradientUnits="userSpaceOnUse" x1="430.2796" y1="889.9807" x2="279.2043" y2="466.2619" gradientTransform="matrix(1 0 0 -1 0 1002)">
		<stop  offset="0" style="stop-color:#051A22"/>
		<stop  offset="1" style="stop-color:#3EABC5"/>
	</linearGradient>
	<path style="fill:url(#SVGID_00000151511020119717064870000005966855311815177639_);" d="M207.8,434.3c-1.1,15.4,0.9,32.6,7.9,51.3
		l0.6,1.4C268,602,379.5,549.2,379.5,549.2l8.4-4.8c-101.2,15.4-111.1-71.7-111.1-71.7c-0.9-62.3,36.4-78.3,36.4-78.3l109.2-60.2
		l-68.9-42.1l-89.6,53.3C231.7,364.2,210.4,397.3,207.8,434.3z"/>
	
		<linearGradient id="SVGID_00000118376722317059123580000008251090307214844043_" gradientUnits="userSpaceOnUse" x1="437.3911" y1="891.1097" x2="246.1865" y2="381.2309" gradientTransform="matrix(1 0 0 -1 0 1002)">
		<stop  offset="0" style="stop-color:#051A22"/>
		<stop  offset="1" style="stop-color:#3EABC5"/>
	</linearGradient>
	<path style="fill:url(#SVGID_00000118376722317059123580000008251090307214844043_);" d="M207.8,434.3c-1.1,15.4,0.9,32.6,7.9,51.3
		l0.6,1.4C268,602,379.5,549.2,379.5,549.2l8.4-4.8c-101.2,15.4-111.1-71.7-111.1-71.7c-0.9-62.3,36.4-78.3,36.4-78.3l109.2-60.2
		l-68.9-42.1l-89.6,53.3C231.7,364.2,210.4,397.3,207.8,434.3z"/>
	
		<linearGradient id="SVGID_00000156547519782656242610000012040701187168475526_" gradientUnits="userSpaceOnUse" x1="591.2841" y1="443.8605" x2="724.6552" y2="869.9398" gradientTransform="matrix(1 0 0 -1 0 1002)">
		<stop  offset="0.1296" style="stop-color:#283337"/>
		<stop  offset="1" style="stop-color:#5DBBAE"/>
	</linearGradient>
	<path style="fill:url(#SVGID_00000156547519782656242610000012040701187168475526_);" d="M621.7,411.4l114.6-68.2
		c31.8-18.9,53.3-52,55.9-89c1.1-15.4-0.9-32.6-7.9-51.3l-0.6-1.4C732,86.5,620.5,139.3,620.5,139.3l-8.4,4.8
		c101.2-15.4,111.1,71.7,111.1,71.7c0.9,62.3-36.4,78.3-36.4,78.3l-124.6,68.9c-9.3,5.1-15.2,14.9-15.2,25.6v14.5l70.8,47.9v-32.8
		C617.8,415.5,619.3,412.8,621.7,411.4z"/>
	
		<linearGradient id="SVGID_00000101071875520779592070000016118475657312317094_" gradientUnits="userSpaceOnUse" x1="665.5558" y1="834.7159" x2="194.626" y2="748.851" gradientTransform="matrix(1 0 0 -1 0 1002)">
		<stop  offset="0.1296" style="stop-color:#283337"/>
		<stop  offset="1" style="stop-color:#5DBBAE"/>
	</linearGradient>
	<path style="fill:url(#SVGID_00000101071875520779592070000016118475657312317094_);" d="M511,200.6c-7.5,4.3-16.8,4.3-24.3-0.1
		c-39.5-22.6-79-45-118.6-67.6c0,0-82.7-29.2-133.7,33.8c-7.9,9.8-15,21.7-20.9,36.2c-0.5,1.3-1,2.6-1.4,3.9c-0.4,1-0.8,2.1-1,3.1
		c-0.4,1.4-0.9,2.8-1.3,4c-0.3,0.9-0.5,1.9-0.8,2.8c-0.6,2.3-1.1,4.4-1.5,6.6c-0.5,2.6-0.9,5.1-1.3,7.6c-1.1,8.5-1.3,17.2-0.5,25.7
		c1.1,11.3,3.9,22.2,8.3,32.3c3.5,8.1,7.9,15.9,13.2,23.1c5.8,7.8,12.5,14.9,20.2,21.2c0.8,0.6,1.4,1.1,2.1,1.6
		c2.3,1.8,4.6,3.5,7.1,5.1c3,2,6.3,3.9,9.4,5.8c0,0-3.9-4.9-8.5-13.2c-7.5-13.2-11.8-25.4-13.5-36.9c-7.8-49.6,30.6-80.2,30.6-80.2
		c0.4-0.3,0.6-0.5,1-0.8c5.4-4,33.7-22.7,70.8-12.9c7.3,1.9,14,4.9,20.6,8.5c40,22.6,80.1,45.1,120.1,67.7
		c7.4,4.1,16.4,4.3,23.9,0.1c2.4-1.3,12.7-6.9,22.6-12.3c-2.1-21.8-5.3-51-7.4-74.1C521.1,195,516,197.8,511,200.6z"/>
	
		<linearGradient id="SVGID_00000007423563803953147620000002166278082086269624_" gradientUnits="userSpaceOnUse" x1="681.6615" y1="817.651" x2="216.9281" y2="728.245" gradientTransform="matrix(1 0 0 -1 0 1002)">
		<stop  offset="0.1296" style="stop-color:#283337"/>
		<stop  offset="1" style="stop-color:#5DBBAE"/>
	</linearGradient>
	<path style="fill:url(#SVGID_00000007423563803953147620000002166278082086269624_);" d="M568.9,247.1
		c26.7-14.5,29.6-16.2,45.6-24.8c4.6-2.5,10.4-5.6,18.3-9.9c7.9-4.3,16.4-7.5,25.1-9.3c4.6-1,9.4-1.6,14.3-1.8
		c3.9-0.1,7.9,0,11.9,0.4c7.1,0.8,14.9,2.4,22.9,5.6c5,2,10.2,4.6,15.3,7.9l0.1,0.1l0,0l0,0l0.1,0.1l0.1,0.1c0.1,0,0.1,0.1,0.3,0.1
		l0.1,0.1l0,0l0,0l0,0l0,0l0,0l0,0c0,0-0.1-0.8-0.3-2c-0.5-2.8-1.6-8.3-4.1-15c-1-2.8-2.1-5.6-3.6-8.8c-6-12.5-16.2-27-33.5-36.6
		c-16.2-9.2-38.6-14-69.6-9.3c-9.7,5.4-19.2,10.8-28.8,16.2c-1.5,0.9-3,1.6-4.5,2.5c-17.5,9.8-35.1,19.7-52.6,29.5
		c2.1,23.2,5.3,52.3,7.4,74.1c9.3-5.1,18.4-10,20.7-11.3C555.7,254.2,567.6,247.9,568.9,247.1z"/>
	
		<linearGradient id="SVGID_00000036941022898922285100000004327218367541455024_" gradientUnits="userSpaceOnUse" x1="427.6812" y1="944.6496" x2="752.257" y2="648.4005" gradientTransform="matrix(1 0 0 -1 0 1002)">
		<stop  offset="0" style="stop-color:#3EABC5"/>
		<stop  offset="1" style="stop-color:#051A22"/>
	</linearGradient>
	<path style="fill:url(#SVGID_00000036941022898922285100000004327218367541455024_);" d="M624,277.1c-2.4-1.4-3.9-4-3.9-6.8V137.5
		C608.4,39.4,536.5,25.5,511,23.6v66.9c39.6,24.9,38.2,65.7,38.2,65.7V300c0,10.7,5.8,20.4,15.2,25.6l8.6,4.8l78.3-36.9L624,277.1z"
		/>
	
		<linearGradient id="SVGID_00000173121068178630181320000006275178295617626251_" gradientUnits="userSpaceOnUse" x1="320.6607" y1="449.3639" x2="772.116" y2="564.4406" gradientTransform="matrix(1 0 0 -1 0 1002)">
		<stop  offset="0" style="stop-color:#051A22"/>
		<stop  offset="1" style="stop-color:#3EABC5"/>
	</linearGradient>
	<path style="fill:url(#SVGID_00000173121068178630181320000006275178295617626251_);" d="M794.2,431.6c-1.1-11.3-3.9-22.2-8.3-32.3
		c-3.5-8.1-7.9-15.9-13.2-23.1c-5.8-7.8-12.5-14.9-20.2-21.2c-0.8-0.6-1.4-1.1-2.1-1.6c-2.3-1.8-4.6-3.5-7.1-5.1
		c-3-2-6.3-3.9-9.4-5.8c0,0,3.9,4.9,8.5,13.2c7.5,13.2,11.8,25.4,13.5,36.9c7.8,49.6-30.6,80.2-30.6,80.2c-0.4,0.3-0.6,0.5-1,0.8
		c-5.4,4-33.7,22.7-70.8,12.9c-7.3-1.9-14-4.9-20.6-8.5c-40-22.6-80.1-45.1-120.1-67.7c-7.4-4.1-16.4-4.3-23.9-0.1
		c-1.5,0.9-6.3,3.4-12,6.5v78.1c4-2.3,7.9-4.4,11.9-6.6c7.5-4.3,16.8-4.3,24.3,0.1c39.5,22.6,79,45,118.6,67.6
		c0,0,82.7,29.2,133.7-33.8c7.9-9.8,15-21.7,20.9-36.2c0.5-1.3,1-2.6,1.4-3.9c0.4-1,0.8-2.1,1-3.1c0.4-1.4,0.9-2.8,1.3-4
		c0.3-0.9,0.5-1.9,0.8-2.8c0.6-2.3,1.1-4.4,1.5-6.6c0.5-2.6,0.9-5.1,1.3-7.6C794.8,448.8,795.1,440.1,794.2,431.6z"/>
	
		<linearGradient id="SVGID_00000053540478095691929660000014856637550513716912_" gradientUnits="userSpaceOnUse" x1="276.8702" y1="520.6906" x2="794.7711" y2="520.6906" gradientTransform="matrix(1 0 0 -1 0 1002)">
		<stop  offset="0" style="stop-color:#051A22"/>
		<stop  offset="1" style="stop-color:#3EABC5"/>
	</linearGradient>
	<path style="fill:url(#SVGID_00000053540478095691929660000014856637550513716912_);" d="M445.8,433.5c-1.4,0.8-13.3,7.1-14.8,8
		c-26.7,14.5-29.6,16.2-45.6,24.8c-4.6,2.5-10.4,5.6-18.3,9.9s-16.4,7.5-25.1,9.3c-4.6,1-9.4,1.6-14.3,1.8c-3.9,0.1-7.9,0-11.9-0.4
		c-7.1-0.8-14.9-2.4-22.9-5.6c-5-2-10.2-4.6-15.3-7.9l-0.1-0.1l0,0l0,0l-0.1-0.1l-0.1-0.1c-0.1,0-0.1-0.1-0.3-0.1l-0.1-0.1l0,0l0,0
		l0,0l0,0l0,0l0,0c0,0,0.1,0.8,0.3,2c0.5,2.8,1.6,8.3,4.1,15c1,2.8,2.1,5.6,3.6,8.8c6,12.5,16.2,27,33.5,36.6
		c16.2,9.2,38.6,14,69.6,9.3c9.7-5.4,19.2-10.8,28.8-16.2c1.5-0.9,3-1.6,4.5-2.5c18.6-10.4,37.2-20.8,55.8-31.3v-78.1
		C465.3,422.8,449,431.7,445.8,433.5z"/>
	
		<linearGradient id="SVGID_00000075124138706054140780000016739005498504250791_" gradientUnits="userSpaceOnUse" x1="310.1898" y1="490.442" x2="761.6451" y2="605.5188" gradientTransform="matrix(1 0 0 -1 0 1002)">
		<stop  offset="0" style="stop-color:#051A22"/>
		<stop  offset="1" style="stop-color:#3EABC5"/>
	</linearGradient>
	<path style="fill:url(#SVGID_00000075124138706054140780000016739005498504250791_);" d="M445.8,433.5c-1.4,0.8-13.3,7.1-14.8,8
		c-26.7,14.5-29.6,16.2-45.6,24.8c-4.6,2.5-10.4,5.6-18.3,9.9s-16.4,7.5-25.1,9.3c-4.6,1-9.4,1.6-14.3,1.8c-3.9,0.1-7.9,0-11.9-0.4
		c-7.1-0.8-14.9-2.4-22.9-5.6c-5-2-10.2-4.6-15.3-7.9l-0.1-0.1l0,0l0,0l-0.1-0.1l-0.1-0.1c-0.1,0-0.1-0.1-0.3-0.1l-0.1-0.1l0,0l0,0
		l0,0l0,0l0,0l0,0c0,0,0.1,0.8,0.3,2c0.5,2.8,1.6,8.3,4.1,15c1,2.8,2.1,5.6,3.6,8.8c6,12.5,16.2,27,33.5,36.6
		c16.2,9.2,38.6,14,69.6,9.3c9.7-5.4,19.2-10.8,28.8-16.2c1.5-0.9,3-1.6,4.5-2.5c18.6-10.4,37.2-20.8,55.8-31.3v-78.1
		C465.3,422.8,449,431.7,445.8,433.5z"/>
	
		<linearGradient id="SVGID_00000178896441337570059730000003975859673717596805_" gradientUnits="userSpaceOnUse" x1="229.666" y1="726.6479" x2="594.371" y2="326.5345" gradientTransform="matrix(1 0 0 -1 0 1002)">
		<stop  offset="0.1296" style="stop-color:#283337"/>
		<stop  offset="1" style="stop-color:#5DBBAE"/>
	</linearGradient>
	<path style="fill:url(#SVGID_00000178896441337570059730000003975859673717596805_);" d="M500,603h-2.3c-48.6-24.2-47-70.6-47-70.6
		V388.6c0-10.7-5.8-20.4-15.2-25.6l-13.2-7.3l-68.6,42.5l22.1,13.2c2.4,1.4,3.9,4,3.9,6.8V551c14.2,119.5,117.8,114.2,117.8,114.2
		h2.3c0,0,103.7,5.3,117.8-114.2v-3.4l-2.1-1.3C583.2,629.6,500,603,500,603z"/>
</g>
<g>
	<path d="M696.1,798.6c0-15.8,0-31.6,0-47.4c0-2.6,0.7-3.8,3.4-3.8c16,0.2,32-0.3,47.9,0.7c16.6,1.1,30.4,8.3,39.8,22.7
		c5.5,8.5,7.5,17.9,7.5,27.9c0,7.7-1.1,15.3-4.4,22.3c-4.9,10.6-12.7,18.4-23.3,23.3c-9.3,4.3-19,5.8-29.1,5.8
		c-12.6,0.1-25.1,0-37.7,0c-3.9,0-4.2-0.4-4.1-4.3C696.2,830.2,696.2,814.4,696.1,798.6C696.1,798.6,696.1,798.6,696.1,798.6z
		 M725.7,798.6C725.7,798.6,725.8,798.6,725.7,798.6c0,7.3,0.1,14.6,0,21.9c0,2.5,0.9,3.5,3.5,3.4c3.5-0.2,7.1,0.2,10.5-0.2
		c3.7-0.4,7.6-1,11-2.4c8.6-3.7,13.1-10.6,13.8-20c0.9-13-5.2-23.6-18.5-26.1c-5.4-1-11-0.9-16.5-1.1c-3.4-0.1-3.8,0.3-3.8,3.8
		C725.7,784.7,725.7,791.7,725.7,798.6z"/>
	<path d="M355.6,798.7c0-15.9,0-31.8,0-47.7c0-2.4,0.7-3.7,3.3-3.6c16.5,0.1,33.1-0.1,49.6,0.5c8.5,0.3,16.5,3.2,23,9.1
		c8.5,7.7,11.8,17.6,11.2,28.9c-0.4,8.1-2.3,15.7-7.9,21.9c-1.9,2.2-4.2,4.1-6.5,5.9c-1.7,1.4-2,2.7-1,4.5
		c5.3,9.5,10.5,19,15.8,28.5c1.3,2.3,0.9,3.3-1.7,3.4c-9.3,0.1-18.7,0.1-28-0.1c-1.3,0-3-1.5-3.7-2.7c-4.1-7.7-8-15.6-11.8-23.4
		c-1-2.1-2.5-3.1-4.8-2.9c-0.6,0.1-1.3,0.1-1.9,0c-6.8-0.6-6,1-6,6.1c0,6.6,0,13.3,0,19.9c0,2.2-0.8,3.2-3.1,3.1
		c-7.7-0.1-15.3,0-23,0c-3.1,0-3.6-0.5-3.6-3.8C355.6,830.5,355.6,814.6,355.6,798.7C355.6,798.7,355.6,798.7,355.6,798.7z
		 M384.9,784.4C384.9,784.4,384.9,784.4,384.9,784.4c0,3.4,0,6.8,0,10.2c0,1.6,0.6,3,2.5,2.9c4.4-0.1,8.9,0.1,13.3-0.4
		c4.4-0.5,8.6-1.8,10.7-6.3c4.5-9.6-0.9-18.7-11.5-19.1c-4-0.2-8.1,0-12.2-0.1c-2,0-2.9,0.8-2.8,2.8
		C384.9,777.8,384.9,781.1,384.9,784.4z"/>
	<path d="M297.6,850.3c-4.2,0-8.3-0.1-12.5,0c-2,0.1-3.2-0.7-3.9-2.4c-1.1-2.8-2.2-5.7-3.2-8.5c-0.8-2.4-2.1-3.6-4.8-3.5
		c-9.5,0.1-19,0-28.5,0c-2.4,0-3.9,0.8-4.6,3.3c-0.9,3.2-2.2,6.3-3.7,9.2c-0.4,0.9-1.9,1.8-3,1.9c-8.5,0.1-17,0.1-25.5,0
		c-2.7,0-3.3-0.9-2.2-3.5c5.1-13,10.3-26,15.4-39c3.8-9.7,7.3-19.5,11.1-29.2c3-7.6,6-15.2,9.1-22.8c0.8-2.1,1.4-4.2,2.5-6.1
		c0.6-1,2-2,3.1-2c8.1-0.2,16.2-0.1,24.4-0.1c1.7,0,2.7,0.5,3.4,2.2c2.4,6.4,5,12.7,7.5,19c3.1,8,6.2,16,9.3,24
		c3.8,9.9,7.5,19.8,11.4,29.7c3,7.8,6.1,15.6,9.3,23.3c1.6,3.8,1.2,4.6-2.8,4.6C305.3,850.2,301.5,850.2,297.6,850.3
		C297.6,850.2,297.6,850.3,297.6,850.3z M259.3,783.2c-0.8,1.6-1.4,2.4-1.7,3.3c-3,8.2-6,16.4-9,24.6c-0.7,1.9-0.1,2.9,2,2.9
		c5.8,0,11.6,0,17.4,0c1.9,0,2.4-1,1.8-2.7c-2.7-7.4-5.4-14.9-8.1-22.3C261,787.3,260.3,785.6,259.3,783.2z"/>
	<path d="M604.8,772.2c-1.5-0.2-2.4-0.3-3.2-0.3c-9.7,0-19.4,0-29.1,0c-3.8,0-4-0.3-4-4.2c0-5.5,0-11.1,0-16.6
		c0-3.3,0.2-3.6,3.7-3.6c21.9,0,43.8,0,65.7,0c3.3,0,3.7,0.4,3.7,3.6c0,4.3,0.2,8.7-0.1,13c-0.1,1.6-0.6,3.6-1.7,4.7
		c-5.4,5.5-10.9,10.7-16.5,16c-2.4,2.2-2.4,3.3,0.8,4.2c5.1,1.3,9.1,4.3,12.9,7.7c8,7,10.3,16.1,9.3,26.3
		c-1.1,11-6.5,19.4-16.5,24.2c-4.5,2.2-9.5,3.8-14.4,4.5c-8.6,1.3-17.4,1-25.7-1.8c-9.2-3.2-16.6-9-20.6-18.1
		c-1.7-3.8-2.2-8.1-3-12.3c-0.4-2.1,0.9-3.1,2.9-3.1c7.2,0,14.4,0,21.6,0.1c1.8,0,3.3,0.7,3.7,2.6c1.1,4.8,4.5,6.9,9,7.7
		c5.9,1.1,11.6-1.2,14.1-5.3c3.8-6.1-0.4-14.9-8.7-15.5c-5.7-0.4-11.4-0.2-17.2-0.2c-3.5,0-4-0.5-4-4c0-3.2-0.3-6.5,0.1-9.7
		c0.2-1.6,1.1-3.3,2.3-4.5c4-4.2,8.3-8.2,12.4-12.3C603,774.6,603.7,773.6,604.8,772.2z"/>
	<path d="M490.6,798.9c0-15.8,0-31.6,0-47.4c0-3.6,0.4-4.1,3.9-4.1c7.5,0,15,0.1,22.4,0c2.5,0,3.4,0.7,3.4,3.3
		c-0.1,31.9,0,63.9-0.1,95.8c0,3.4-0.3,3.7-3.6,3.7c-7.4,0-14.8,0-22.2,0c-3.6,0-3.9-0.4-3.9-4C490.6,830.5,490.6,814.7,490.6,798.9
		C490.6,798.9,490.6,798.9,490.6,798.9z"/>
	<path d="M269.8,902.9c0.1-0.1,0.6-0.4,1.1-0.6c0.4-0.2,0.9-0.1,1.4-0.1c11-0.2,7.6-0.3,11.9,10.3c2.3,5.8,4.2,11.8,6.2,17.7
		c0.1,0.4,0.5,0.7,1.1,1.5c0.8-1.4,1.6-2.5,2-3.7c1.7-4.8,3.2-9.6,4.9-14.3c1.1-3.2,2.5-6.3,3.7-9.5c0.2-0.4,0.4-0.9,0.7-1.2
		c1.3-1.4,9.3-1.1,11.1,0.7c-4.6,0.8-3.5,4.3-3.5,7.2c0,7.6-0.1,15.1,0,22.7c0,3.2-1.5,7.4,4.5,7.9c-0.2,0.3-0.3,0.5-0.5,0.8
		c-0.8,0.3-1.6,0.8-2.5,0.8c-3.6,0.1-7.2,0.1-10.8,0c-0.7,0-1.4-0.5-2.2-0.8c0.6-0.5,1.3-0.9,1.9-1.5c0.8-0.9,2-1.8,2-2.8
		c0.2-7.8,0.2-15.5,0.1-23.3c0-0.8-0.6-1.6-1-2.4c-0.5,0.7-1.3,1.4-1.6,2.2c-2.6,7.1-5.2,14.3-7.8,21.5c-0.7,1.9-2.1,2.3-3.9,2.3
		c-2-0.1-3.4-0.8-4.1-2.7c-2.1-6.1-4.2-12.2-6.3-18.3c-0.7-2-1.7-4-2.5-6c-0.3,0-0.5,0.1-0.8,0.1c-0.1,0.9-0.4,1.8-0.4,2.7
		c0,7.2,0.2,14.4,0,21.6c-0.1,3.2,0.9,5.3,4.5,5.9c-0.1,0.2-0.2,0.4-0.3,0.7c-0.6,0.3-1.2,0.8-1.8,0.8c-2.3,0.1-4.6,0.1-6.9,0
		c-0.6,0-1.1-0.7-1.6-1.1c0.5-0.4,0.9-1,1.4-1.1c2-0.2,2.3-1.5,2.3-3.2c0-10.1,0.2-20.1,0.1-30.2C272.3,906,270.8,904.6,269.8,902.9
		z"/>
	<path d="M388,902.7c0.7-0.2,1.4-0.6,2.2-0.6c6.1,0.1,12.2,0.1,18.3,0.3c4.2,0.2,8.2,3.5,9.1,7c1.4,5.8,0,10.2-4.4,12.8
		c-2.1,1.2-2.2,2.4-1.2,4.3c1.9,3.6,3.7,7.2,5.8,10.7c0.9,1.4,2.6,2.4,3.9,3.5c0.4,0.4,0.8,0.8,1.3,1.2c-0.6,0.3-1.1,1-1.7,1
		c-2.5,0.1-5,0.1-7.5-0.2c-0.9-0.1-2-1-2.4-1.8c-2.1-3.9-3.9-7.9-5.9-11.9c-0.5-1-0.8-2.2-1.6-2.9c-1-0.8-2.4-1.5-3.5-1.4
		c-0.7,0.1-1.5,1.9-1.5,3c-0.2,3,0,6.1,0,9.1c0,2.1,0.3,3.7,2.8,3.9c0.4,0,0.7,0.6,1.1,1c-0.4,0.4-0.7,1-1.1,1
		c-4.5,0-9-0.1-13.5-0.2c-0.2,0-0.4-0.4-0.6-0.6c0.1-0.3,0.1-0.7,0.3-0.7c3.8-0.6,3.6-3.3,3.6-6.2c-0.1-9.2-0.2-18.5,0-27.7
		c0.1-2.7-1.9-3-3.5-3.9C387.9,903.3,387.9,903,388,902.7z M398.7,913C398.7,913,398.6,913,398.7,913c0,2-0.2,4.1,0,6.1
		c0.1,1,0.6,2.3,1.3,2.8c2.8,2,9.3-0.5,9.7-3.9c0.5-3.3,0.4-6.8-0.1-10.1c-0.4-3.2-7.8-5.2-10.2-3c-0.5,0.5-0.7,1.5-0.7,2.2
		C398.6,909.1,398.7,911.1,398.7,913z"/>
	<path d="M613.4,922.7c-0.6,3.4-0.7,7-1.9,10.3c-2.9,7.8-7.4,10.5-15.7,10.3c-7.7-0.2-13.1-4.7-14.6-12.9c-1.2-6.4-1.2-12.8,1-19.1
		c2.6-7.3,9-10,16.3-9.5c9.7,0.7,13.8,8,14.2,15.7c0.1,1.8,0.2,3.5,0.3,5.3C613.2,922.7,613.3,922.7,613.4,922.7z M588.6,922.2
		c-0.1,0-0.2,0-0.4,0c0.2,4,0.1,8,0.6,11.9c0.6,4.6,3.7,6.9,8.6,6.8c4.4-0.1,7.3-2.7,7.5-7.3c0.2-7.5,0.3-15.1-0.1-22.7
		c-0.1-2-1.5-4.8-3.2-5.7c-6.1-3.5-12.7-0.4-13,7C588.5,915.6,588.6,918.9,588.6,922.2z"/>
	<path d="M643.3,910c-0.2,0.9-0.5,1.9-0.5,2.8c0,7.9,0,15.9,0,23.8c0,2,0,4,2.8,4.3c0.4,0,0.7,0.7,1,1.1c0.1,0.2-0.4,0.8-0.6,0.8
		c-3.2,0-6.5,0.8-9.6-0.4c0.1-0.5,0.1-0.8,0.2-0.9c3.8-1.1,3.8-4,3.7-7.2c-0.1-8,0-16.1,0.2-24.1c0.1-2.9-0.3-5.4-3.5-6.9
		c0.1-0.2,0.3-0.4,0.4-0.7c1-0.2,2-0.6,3-0.7c1.6-0.1,3.1,0.1,4.7,0.1c2,0,3.3,0.8,4.4,2.7c4.5,7.7,9.3,15.3,14,22.9
		c0.1,0.2,0.4,0.3,1.2,0.9c0.3-1.3,0.8-2.3,0.8-3.3c0.1-5.9,0.2-11.8-0.1-17.7c-0.1-1.6-1.6-3.1-2.5-4.7c1.6-1.2,5.7-1.2,8.3,0.5
		c-5.1,2.4-3.2,6.9-3.3,10.6c-0.2,8.8,0.1,17.5,0,26.3c0,0.8-0.9,2.3-1.3,2.3c-1-0.1-2.4-0.5-3-1.3c-2.9-4.4-5.6-8.9-8.4-13.4
		c-3.4-5.6-6.8-11.2-10.2-16.8c-0.3-0.5-0.5-0.9-0.8-1.4C644,909.8,643.6,909.9,643.3,910z"/>
	<path d="M442.7,902.7c0.7-0.1,1.6-0.5,2.6-0.6c7.1-0.1,14.2-0.1,21.3-0.1c3.1,0,3.6,0.6,3.6,3.8c0,1.9-0.2,3.8-0.4,5.6
		c-0.5,0-0.9,0.1-1.4,0.1c-0.4-1.1-0.8-2.2-1.1-3.4c-0.8-3.2-1.7-4-5-4c-2.1,0-4.2,0-6.4,0c-1.9,0-3,0.8-2.9,2.8c0,3.7,0,7.4,0,11.1
		c0,0.5,0.1,1.5,0.3,1.5c2.3,0.5,4.6,1.1,6.8,1c1,0,2.2-1.3,3-2.3c0.5-0.6,0.3-1.7,0.7-2.3c0.2-0.3,1.8-0.1,1.8-0.1
		c0.3,4.2,0.6,8.5-0.1,12.6c-0.3,0.1-0.7,0.1-1,0.2c-0.4-0.9-0.9-1.7-1.2-2.6c-0.9-2.9-3.1-3.9-7.8-3.3c-2.9,0.3-2.5,2.5-2.6,4.4
		c-0.1,3.4,0.1,6.8,0,10.2c-0.1,2,0.7,3,2.7,3c2.8,0,5.5,0,8.3,0c2.2,0,3.4-1.1,3.7-3.3c0.1-0.7,0.2-1.5,0.6-2.1
		c0.3-0.5,1-0.9,1.6-1.3c0.4,0.6,1,1.1,1.1,1.7c0.1,1.6,0.1,3.3,0,5c-0.2,2.2-1.8,2.3-3.5,2.3c-6.4,0-12.7,0-19.1,0
		c-1.7,0-3.3,0.1-5,0.1c-0.5,0-1-0.6-1.5-0.9c0.4-0.4,0.8-1.1,1.2-1.2c2.3-0.2,2.5-1.7,2.5-3.5c0-10,0.1-19.9-0.1-29.9
		C445.5,905.9,443.8,904.5,442.7,902.7z"/>
	<path d="M335.9,941.5c0.6-0.3,1.4-0.4,1.9-0.8c0.8-0.7,2-1.7,2-2.5c0.2-10.3,0.2-20.6,0.1-31c0-1.3-1.6-2.7-2.7-4.3
		c0.6-0.2,1.4-0.7,2.1-0.7c5.9,0.1,11.8,0,17.7,0.5c5.8,0.5,9.8,5.4,9.6,11.5c-0.1,5.2-3.4,10.3-9.3,11c-2.3,0.3-4.6,0.3-6.9,0.3
		c-2.2,0-3.3,1.1-3.4,3.1c-0.1,3.2,0,6.5,0,9.7c0,2.1,1.5,2.4,3.2,2.6c0.7,0.1,1.3,0.7,2,1c-0.7,0.4-1.4,1.2-2.1,1.2
		c-4.1,0.1-8.1,0.1-12.2,0c-0.7,0-1.4-0.4-2.2-0.6C335.9,942.1,335.9,941.8,335.9,941.5z M347,913.8C347,913.8,347,913.8,347,913.8
		c0.1,2.2-0.1,4.4,0.1,6.6c0.1,1,0.8,2.4,1.7,2.9c3.3,1.7,8.4-0.5,9.3-4.1c0.6-2.4,0.9-4.9,0.7-7.3c-0.4-6.1-3.2-8.2-9.2-7.5
		c-1.8,0.2-2.6,1.1-2.6,2.9C347,909.4,347,911.6,347,913.8z"/>
	<path d="M719.9,911.8c-0.7-1.5-1.5-3-2-4.6c-0.6-2-1.7-2.9-3.7-2.9c-2.5,0-5,0-7.5,0c-2,0-3.1,1-3,3.1c0,3.7,0,7.4,0.1,11.1
		c0,0.5,0.1,1.2,0.4,1.6c1.2,1.8,8.7,1.1,9.7-0.9c0.6-1.2,1.3-2.4,2-3.6c0.3,0.1,0.5,0.2,0.8,0.3c0,4.2,0,8.4,0,12.6
		c-0.3,0.1-0.6,0.2-0.9,0.3c-0.6-1-1.4-2-1.9-3.1c-1.3-2.4-3.9-3.2-8-2.4c-2.6,0.5-2.1,2.7-2.1,4.4c-0.1,3.4,0,6.8,0,10.2
		c-0.1,2,0.8,2.9,2.8,2.9c2.2,0,4.4,0,6.6,0c4.1,0,4.6-0.4,5.9-4.3c0.4-1.1,1.3-2.1,1.9-3.2c0.3,1.3,0.9,2.5,0.9,3.8
		c-0.1,6.2,0.8,6-6,6c-6.7,0.1-13.5,0-20.2-0.1c-1,0-2-0.3-3-0.5c0.1-0.6,0.1-0.9,0.2-0.9c4.1-0.8,4.1-3.7,4-7.1
		c-0.2-8-0.1-16.1,0-24.1c0-2.8,0.6-5.7-3.5-6.7c0.2-0.3,0.3-0.6,0.5-0.8c1.2-0.3,2.5-0.7,3.7-0.7c6.5-0.1,13.1,0,19.6,0
		c3.6,0,4.4,0.8,4.4,4.4c0,1.7,0,3.4,0,5.1C720.9,911.6,720.4,911.7,719.9,911.8z"/>
	<path d="M756.7,943.2c-4.8,0.6-9-1.6-12-6.2c-0.5-0.7-1-1.8-0.8-2.5c0.2-0.8,1.1-1.7,1.9-2c0.4-0.2,1.7,0.7,1.9,1.3
		c3,8,7.5,7.7,13.1,6.7c1.9-0.3,3.9-3.1,4.7-5.1c0.9-2.5-0.6-5.3-3-6.6c-2.9-1.6-6.2-2.7-9.4-3.8c-5.9-2-9.9-7.9-8.8-13.1
		c1.5-7.1,6.8-11.1,13.7-10.6c4.9,0.4,9.3,1.8,11.4,6.8c1.6,3.7,0.4,6-3.1,6.4c-2.2,0.2-3.3-0.4-3.1-2.9c0.2-2.8-0.6-5.3-3.2-6.9
		c-3.4-2-7.4-1.1-9.4,2.1c-1.7,2.7-0.5,8.1,2.6,9.8c3,1.6,6.3,3,9.7,3.9c6.5,1.8,9.6,8.5,7.7,14
		C768.3,940.5,765.2,942.9,756.7,943.2z"/>
	<path d="M507,943.2c-5.4,0.4-9.5-1.8-12.3-6.4c-0.5-0.9-0.8-2.1-0.6-3.1c0.1-0.6,1.3-1.3,2.1-1.4c0.5-0.1,1.3,0.8,1.6,1.5
		c2.3,6.3,7.1,9,13.3,6.7c1.9-0.7,3.8-3.1,4.4-5.1c0.8-2.7-0.7-5.4-3.2-6.8c-2.7-1.5-5.7-2.4-8.7-3.5c-6.6-2.3-10.6-8.2-9.1-13.8
		c1.9-7.4,8-11.2,15.5-9.8c4,0.7,7.3,2.3,9.3,6.1c2,3.8,0.5,6.8-3.5,6.9c-1.9,0.1-2.7-0.6-2.5-2.6c0.2-2.9-0.5-5.5-3.1-7.2
		c-2.6-1.7-5.2-1.6-7.7,0.3c-2.3,1.7-3,4.3-2.2,7.2c1.1,3.5,3.4,5.5,6.9,6.5c2.6,0.8,5.3,1.5,7.8,2.7c4.5,2.1,7,6.7,6.2,11
		c-1.1,6.2-4.6,9.8-10,10.5C509.8,943.1,508.4,943.1,507,943.2z"/>
	<path d="M542.7,903.7c3-2,12.4-2,14.3-0.6c0,0.1,0,0.2,0,0.3c-3.7,1.5-3.3,4.7-3.3,7.8c0,8.7,0.1,17.3,0.1,26
		c0,2.2,0.5,3.6,2.9,3.8c0.4,0,0.7,0.7,1,1.1c-0.4,0.3-0.7,1-1.1,1c-4.3,0.1-8.7,0-13,0c-0.4,0-0.8-0.6-1.1-0.8
		c0.1-0.3,0.1-0.5,0.1-0.5c4.3-1,3.7-4.4,3.7-7.5c0-7.9,0-15.9,0-23.8C546.4,907.6,547.3,904.5,542.7,903.7z"/>
	<path d="M231.2,942.1c0.1-0.4,0.2-0.7,0.2-0.7c4.2-0.8,3.9-4.1,3.8-7.2c-0.1-7.7,0-15.5,0-23.2c0-2.9,1-6.2-3.2-7.3
		c2.1-2.1,11.4-2.1,13.7-0.2c-4.7,1.4-3.5,5.2-3.5,8.4c-0.1,8.2,0.1,16.4,0,24.6c0,2.4,0.3,4.2,3.1,4.5c0.3,0,0.5,0.4,0.8,0.6
		C244.8,943.2,233.7,943.5,231.2,942.1z"/>
</g>
</svg>
