<?xml version="1.0" encoding="utf-8"?>
<!-- Generator: Adobe Illustrator 28.0.0, SVG Export Plug-In . SVG Version: 6.00 Build 0)  -->
<svg version="1.1" id="Capa_2_00000011736935919877412780000001462457809247342976_"
	 xmlns="http://www.w3.org/2000/svg" xmlns:xlink="http://www.w3.org/1999/xlink" x="0px" y="0px" viewBox="0 0 1000 1000"
	 style="enable-background:new 0 0 1000 1000;" xml:space="preserve">
<style type="text/css">
	.st0{fill:url(#SVGID_1_);}
	.st1{fill:url(#SVGID_00000014612730291991593850000011872423218787667859_);}
	.st2{fill:url(#SVGID_00000044889684504632939490000000743493075001259961_);}
	.st3{fill:url(#SVGID_00000110464914522303913870000004567754679073945747_);}
	.st4{fill:url(#SVGID_00000021114378932314627570000016360860892549070244_);}
	.st5{fill:url(#SVGID_00000036213151982406881710000018394576721968993948_);}
	.st6{fill:url(#SVGID_00000054224225501698181780000001148529074457633205_);}
	.st7{fill:url(#SVGID_00000159456919995257057850000014589956054641989014_);}
	.st8{fill:url(#SVGID_00000029760463488337453730000005248968058700804283_);}
	.st9{fill:url(#SVGID_00000128457583411759519690000003187260041832162489_);}
	.st10{fill:url(#SVGID_00000083804217883997919660000007448170851089865375_);}
	.st11{fill:url(#SVGID_00000021101241345449176330000008907834343026052017_);}
	.st12{fill:url(#SVGID_00000012470054911697005000000013761557916109066419_);}
	.st13{fill:url(#SVGID_00000102513750988023350300000005941601782817256578_);}
	.st14{fill:url(#SVGID_00000158024296699328844710000001624863029758128831_);}
	.st15{fill:url(#SVGID_00000172432809214455739250000011309545317215524005_);}
	.st16{fill:url(#SVGID_00000181081947553455750420000011484728680234306965_);}
	.st17{fill:url(#SVGID_00000103259843542676377410000001539328807280187318_);}
	.st18{fill:#FFFFFF;}
</style>
<g>
	<g>
		
			<linearGradient id="SVGID_1_" gradientUnits="userSpaceOnUse" x1="622.5879" y1="874.3149" x2="281.5541" y2="812.1339" gradientTransform="matrix(1 0 0 -1 0 1160.11)">
			<stop  offset="0.1296" style="stop-color:#283337"/>
			<stop  offset="1" style="stop-color:#5DBBAE"/>
		</linearGradient>
		<path class="st0" d="M549.9,328.9c19.3-10.5,21.4-11.7,33-18c3.3-1.8,7.5-4.1,13.3-7.2c5.7-3.1,11.9-5.4,18.2-6.7
			c3.3-0.7,6.8-1.2,10.4-1.3c2.8-0.1,5.7,0,8.6,0.3c5.1,0.6,10.8,1.7,16.6,4.1c3.6,1.4,7.4,3.3,11.1,5.7l0.1,0.1l0,0l0,0l0.1,0.1
			l0.1,0.1c0.1,0,0.1,0.1,0.2,0.1l0.1,0.1l0,0l0,0l0,0l0,0l0,0l0,0c0,0-0.1-0.6-0.2-1.4c-0.4-2-1.2-6-3-10.9c-0.7-2-1.5-4.1-2.6-6.4
			c-4.3-9.1-11.7-19.6-24.3-26.5c-11.7-6.7-28-10.1-50.4-6.7c-7,3.9-13.9,7.8-20.9,11.7c-1.1,0.7-2.2,1.2-3.3,1.8
			c-12.7,7.1-25.4,14.3-38.1,21.4c1.5,16.8,3.8,37.9,5.4,53.7c6.7-3.7,13.3-7.2,15-8.2C540.4,334.1,549,329.5,549.9,328.9z"/>
		
			<linearGradient id="SVGID_00000142879107814100337830000004822550064863809971_" gradientUnits="userSpaceOnUse" x1="536.2175" y1="597.8248" x2="645.1946" y2="926.0378" gradientTransform="matrix(1 0 0 -1 0 1160.11)">
			<stop  offset="0.1296" style="stop-color:#283337"/>
			<stop  offset="1" style="stop-color:#5DBBAE"/>
		</linearGradient>
		<path style="fill:url(#SVGID_00000142879107814100337830000004822550064863809971_);" d="M534.1,535.5c0,0,1.1,33.7-34,51.1
			c0,0,63.1,20.3,85.3-45.2v-64.9l-51.3-34.8V535.5z"/>
		
			<linearGradient id="SVGID_00000142159107630257959300000004132880310806299799_" gradientUnits="userSpaceOnUse" x1="542.4232" y1="613.3553" x2="639.0067" y2="921.9097" gradientTransform="matrix(1 0 0 -1 0 1160.11)">
			<stop  offset="0.1296" style="stop-color:#283337"/>
			<stop  offset="1" style="stop-color:#5DBBAE"/>
		</linearGradient>
		<path style="fill:url(#SVGID_00000142159107630257959300000004132880310806299799_);" d="M534.1,535.5c0,0,1.1,33.7-34,51.1
			c0,0,63.1,20.3,85.3-45.2v-64.9l-51.3-34.8V535.5z"/>
		
			<linearGradient id="SVGID_00000088110750334438163060000005905616932019259783_" gradientUnits="userSpaceOnUse" x1="334.3071" y1="805.9794" x2="595.852" y2="586.7433" gradientTransform="matrix(1 0 0 -1 0 1160.11)">
			<stop  offset="0.1296" style="stop-color:#283337"/>
			<stop  offset="1" style="stop-color:#5DBBAE"/>
		</linearGradient>
		<path style="fill:url(#SVGID_00000088110750334438163060000005905616932019259783_);" d="M363,363c0,0-26.9-11.6-26.4-56.7
			c-34.5,32.2-21.6,68.1-12.3,84.8c1.8,3.1,3.8,6.2,6.2,9.6l63.7,37.9l49.7-30.8L363,363z"/>
		
			<linearGradient id="SVGID_00000071549426394374553020000017317643231497716359_" gradientUnits="userSpaceOnUse" x1="420.8599" y1="939.2388" x2="655.9083" y2="724.7036" gradientTransform="matrix(1 0 0 -1 0 1160.11)">
			<stop  offset="0" style="stop-color:#3EABC5"/>
			<stop  offset="1" style="stop-color:#051A22"/>
		</linearGradient>
		<path style="fill:url(#SVGID_00000071549426394374553020000017317643231497716359_);" d="M637,435.5c0,0,26.9,11.6,26.4,56.7
			c34.5-32.2,21.6-68.1,12.3-84.8c-1.8-3.1-3.8-6.2-6.2-9.6l-14-8.3l-45.8-27.3L553,389l1,0.6L637,435.5z"/>
		
			<linearGradient id="SVGID_00000003085087064821689940000003283748739314118544_" gradientUnits="userSpaceOnUse" x1="469.6259" y1="924.2168" x2="331.1609" y2="554.9771" gradientTransform="matrix(1 0 0 -1 0 1160.11)">
			<stop  offset="0" style="stop-color:#051A22"/>
			<stop  offset="1" style="stop-color:#3EABC5"/>
		</linearGradient>
		<path style="fill:url(#SVGID_00000003085087064821689940000003283748739314118544_);" d="M455,385.6c6.7-3.7,11-10.8,11-18.5v-104
			c0,0-1.1-33.7,34-51.1c0,0-63.1-20.3-85.3,45.2v88.5c0,2-1.1,3.9-2.8,4.9l-18.1,10.9l49.9,30.5L455,385.6z"/>
		
			<linearGradient id="SVGID_00000023979151834059789790000000890398686772083127_" gradientUnits="userSpaceOnUse" x1="443.6361" y1="964.1929" x2="678.6846" y2="749.6578" gradientTransform="matrix(1 0 0 -1 0 1160.11)">
			<stop  offset="0" style="stop-color:#3EABC5"/>
			<stop  offset="0.8321" style="stop-color:#051A22"/>
		</linearGradient>
		<path style="fill:url(#SVGID_00000023979151834059789790000000890398686772083127_);" d="M501.7,166.9H500c0,0-75.1-3.8-85.3,82.7
			v7.5c22.2-65.4,85.3-45.3,85.3-45.3h1.7c2.2,1.1,4.4,2.4,6.4,3.6v-48.4C504,166.8,501.7,166.9,501.7,166.9z"/>
		
			<linearGradient id="SVGID_00000008148631867125721630000004029922196850079880_" gradientUnits="userSpaceOnUse" x1="322.2476" y1="827.1224" x2="586.3567" y2="537.3718" gradientTransform="matrix(1 0 0 -1 0 1160.11)">
			<stop  offset="0.1296" style="stop-color:#283337"/>
			<stop  offset="1" style="stop-color:#5DBBAE"/>
		</linearGradient>
		<path style="fill:url(#SVGID_00000008148631867125721630000004029922196850079880_);" d="M363,363c0,0-26.9-11.6-26.4-56.7
			c-34.5,32.2-21.6,68.1-12.3,84.8c1.8,3.1,3.8,6.2,6.2,9.6l63.7,37.9l49.7-30.8L363,363z"/>
		
			<linearGradient id="SVGID_00000052065980901743939580000001257467518716777346_" gradientUnits="userSpaceOnUse" x1="449.516" y1="929.0089" x2="340.1116" y2="622.1639" gradientTransform="matrix(1 0 0 -1 0 1160.11)">
			<stop  offset="0" style="stop-color:#051A22"/>
			<stop  offset="1" style="stop-color:#3EABC5"/>
		</linearGradient>
		<path style="fill:url(#SVGID_00000052065980901743939580000001257467518716777346_);" d="M288.4,464.5
			c-0.8,11.2,0.7,23.6,5.7,37.1l0.4,1c37.4,83.3,118.2,45,118.2,45l6.1-3.5c-73.3,11.2-80.5-51.9-80.5-51.9
			c-0.7-45.1,26.4-56.7,26.4-56.7l79.1-43.6l-49.9-30.5L329,400.1C305.7,413.7,290.3,437.7,288.4,464.5z"/>
		
			<linearGradient id="SVGID_00000142174253661144277280000016128622689370169242_" gradientUnits="userSpaceOnUse" x1="454.6659" y1="929.8268" x2="316.2009" y2="560.5872" gradientTransform="matrix(1 0 0 -1 0 1160.11)">
			<stop  offset="0" style="stop-color:#051A22"/>
			<stop  offset="1" style="stop-color:#3EABC5"/>
		</linearGradient>
		<path style="fill:url(#SVGID_00000142174253661144277280000016128622689370169242_);" d="M288.4,464.5
			c-0.8,11.2,0.7,23.6,5.7,37.1l0.4,1c37.4,83.3,118.2,45,118.2,45l6.1-3.5c-73.3,11.2-80.5-51.9-80.5-51.9
			c-0.7-45.1,26.4-56.7,26.4-56.7l79.1-43.6l-49.9-30.5L329,400.1C305.7,413.7,290.3,437.7,288.4,464.5z"/>
		
			<linearGradient id="SVGID_00000058580517360315716900000017617648324752059294_" gradientUnits="userSpaceOnUse" x1="566.1481" y1="605.929" x2="662.7316" y2="914.4835" gradientTransform="matrix(1 0 0 -1 0 1160.11)">
			<stop  offset="0.1296" style="stop-color:#283337"/>
			<stop  offset="1" style="stop-color:#5DBBAE"/>
		</linearGradient>
		<path style="fill:url(#SVGID_00000058580517360315716900000017617648324752059294_);" d="M588.2,447.9l83-49.4
			c23-13.7,38.6-37.7,40.5-64.5c0.8-11.2-0.7-23.6-5.7-37.1l-0.4-1c-37.4-83.3-118.2-45-118.2-45l-6.1,3.5
			c73.3-11.2,80.5,51.9,80.5,51.9c0.7,45.1-26.4,56.7-26.4,56.7l-90.2,49.9c-6.7,3.7-11,10.8-11,18.5v10.5l51.3,34.7v-23.8
			C585.3,450.9,586.4,448.9,588.2,447.9z"/>
		
			<linearGradient id="SVGID_00000067917298695220264100000016690583939311297716_" gradientUnits="userSpaceOnUse" x1="619.9" y1="889.0563" x2="278.8661" y2="826.8754" gradientTransform="matrix(1 0 0 -1 0 1160.11)">
			<stop  offset="0.1296" style="stop-color:#283337"/>
			<stop  offset="1" style="stop-color:#5DBBAE"/>
		</linearGradient>
		<path style="fill:url(#SVGID_00000067917298695220264100000016690583939311297716_);" d="M508,295.3c-5.4,3.1-12.2,3.1-17.6-0.1
			c-28.6-16.4-57.2-32.6-85.9-49c0,0-59.9-21.1-96.8,24.5c-5.7,7.1-10.9,15.7-15.1,26.2c-0.4,0.9-0.7,1.9-1,2.8
			c-0.3,0.7-0.6,1.5-0.7,2.2c-0.3,1-0.7,2-0.9,2.9c-0.2,0.7-0.4,1.4-0.6,2c-0.4,1.7-0.8,3.2-1.1,4.8c-0.4,1.9-0.7,3.7-0.9,5.5
			c-0.8,6.2-0.9,12.5-0.4,18.6c0.8,8.2,2.8,16.1,6,23.4c2.5,5.9,5.7,11.5,9.6,16.7c4.2,5.6,9.1,10.8,14.6,15.4
			c0.6,0.4,1,0.8,1.5,1.2c1.7,1.3,3.3,2.5,5.1,3.7c2.2,1.4,4.6,2.8,6.8,4.2c0,0-2.8-3.5-6.2-9.6c-5.4-9.6-8.5-18.4-9.8-26.7
			c-5.6-35.9,22.2-58.1,22.2-58.1c0.3-0.2,0.4-0.4,0.7-0.6c3.9-2.9,24.4-16.4,51.3-9.3c5.3,1.4,10.1,3.5,14.9,6.2
			c29,16.4,58,32.7,87,49c5.4,3,11.9,3.1,17.3,0.1c1.7-0.9,9.2-5,16.4-8.9c-1.5-15.8-3.8-36.9-5.4-53.7
			C515.3,291.2,511.6,293.2,508,295.3z"/>
		
			<linearGradient id="SVGID_00000057121204150554369610000008567431549522404539_" gradientUnits="userSpaceOnUse" x1="631.5541" y1="876.7428" x2="295.0074" y2="811.9976" gradientTransform="matrix(1 0 0 -1 0 1160.11)">
			<stop  offset="0.1296" style="stop-color:#283337"/>
			<stop  offset="1" style="stop-color:#5DBBAE"/>
		</linearGradient>
		<path style="fill:url(#SVGID_00000057121204150554369610000008567431549522404539_);" d="M549.9,328.9c19.3-10.5,21.4-11.7,33-18
			c3.3-1.8,7.5-4.1,13.3-7.2c5.7-3.1,11.9-5.4,18.2-6.7c3.3-0.7,6.8-1.2,10.4-1.3c2.8-0.1,5.7,0,8.6,0.3c5.1,0.6,10.8,1.7,16.6,4.1
			c3.6,1.4,7.4,3.3,11.1,5.7l0.1,0.1l0,0l0,0l0.1,0.1l0.1,0.1c0.1,0,0.1,0.1,0.2,0.1l0.1,0.1l0,0l0,0l0,0l0,0l0,0l0,0
			c0,0-0.1-0.6-0.2-1.4c-0.4-2-1.2-6-3-10.9c-0.7-2-1.5-4.1-2.6-6.4c-4.3-9.1-11.7-19.6-24.3-26.5c-11.7-6.7-28-10.1-50.4-6.7
			c-7,3.9-13.9,7.8-20.9,11.7c-1.1,0.7-2.2,1.2-3.3,1.8c-12.7,7.1-25.4,14.3-38.1,21.4c1.5,16.8,3.8,37.9,5.4,53.7
			c6.7-3.7,13.3-7.2,15-8.2C540.4,334.1,549,329.5,549.9,328.9z"/>
		
			<linearGradient id="SVGID_00000170976598619771427440000001473836135241720981_" gradientUnits="userSpaceOnUse" x1="447.6466" y1="968.5867" x2="682.6951" y2="754.0516" gradientTransform="matrix(1 0 0 -1 0 1160.11)">
			<stop  offset="0" style="stop-color:#3EABC5"/>
			<stop  offset="1" style="stop-color:#051A22"/>
		</linearGradient>
		<path style="fill:url(#SVGID_00000170976598619771427440000001473836135241720981_);" d="M589.8,350.7c-1.7-1-2.8-2.9-2.8-4.9
			v-96.2c-8.5-71-60.5-81.1-79-82.5v48.4c28.7,18,27.7,47.6,27.7,47.6v104.1c0,7.7,4.2,14.8,11,18.5l6.2,3.5l56.7-26.7L589.8,350.7z
			"/>
		
			<linearGradient id="SVGID_00000105419192412340956320000008077839949889394348_" gradientUnits="userSpaceOnUse" x1="370.166" y1="609.8601" x2="697.097" y2="693.1954" gradientTransform="matrix(1 0 0 -1 0 1160.11)">
			<stop  offset="0" style="stop-color:#051A22"/>
			<stop  offset="1" style="stop-color:#3EABC5"/>
		</linearGradient>
		<path style="fill:url(#SVGID_00000105419192412340956320000008077839949889394348_);" d="M713.1,462.5c-0.8-8.2-2.8-16.1-6-23.4
			c-2.5-5.9-5.7-11.5-9.6-16.7c-4.2-5.6-9.1-10.8-14.6-15.4c-0.6-0.4-1-0.8-1.5-1.2c-1.7-1.3-3.3-2.5-5.1-3.7
			c-2.2-1.4-4.6-2.8-6.8-4.2c0,0,2.8,3.5,6.2,9.6c5.4,9.6,8.5,18.4,9.8,26.7c5.6,35.9-22.2,58.1-22.2,58.1c-0.3,0.2-0.4,0.4-0.7,0.6
			c-3.9,2.9-24.4,16.4-51.3,9.3c-5.3-1.4-10.1-3.5-14.9-6.2c-29-16.4-58-32.7-87-49c-5.4-3-11.9-3.1-17.3-0.1
			c-1.1,0.7-4.6,2.5-8.7,4.7v56.6c2.9-1.7,5.7-3.2,8.6-4.8c5.4-3.1,12.2-3.1,17.6,0.1c28.6,16.4,57.2,32.6,85.9,49
			c0,0,59.9,21.1,96.8-24.5c5.7-7.1,10.9-15.7,15.1-26.2c0.4-0.9,0.7-1.9,1-2.8c0.3-0.7,0.6-1.5,0.7-2.2c0.3-1,0.7-2,0.9-2.9
			c0.2-0.7,0.4-1.4,0.6-2c0.4-1.7,0.8-3.2,1.1-4.8c0.4-1.9,0.7-3.7,0.9-5.5C713.5,475,713.7,468.7,713.1,462.5z"/>
		
			<linearGradient id="SVGID_00000062171907461550197680000005911495988670114463_" gradientUnits="userSpaceOnUse" x1="338.4603" y1="661.4607" x2="713.5093" y2="661.4607" gradientTransform="matrix(1 0 0 -1 0 1160.11)">
			<stop  offset="0" style="stop-color:#051A22"/>
			<stop  offset="1" style="stop-color:#3EABC5"/>
		</linearGradient>
		<path style="fill:url(#SVGID_00000062171907461550197680000005911495988670114463_);" d="M460.8,463.9c-1,0.6-9.6,5.1-10.7,5.8
			c-19.3,10.5-21.4,11.7-33,18c-3.3,1.8-7.5,4.1-13.3,7.2s-11.9,5.4-18.2,6.7c-3.3,0.7-6.8,1.2-10.4,1.3c-2.8,0.1-5.7,0-8.6-0.3
			c-5.1-0.6-10.8-1.7-16.6-4.1c-3.6-1.4-7.4-3.3-11.1-5.7l-0.1-0.1l0,0l0,0l-0.1-0.1l-0.1-0.1c-0.1,0-0.1-0.1-0.2-0.1l-0.1-0.1l0,0
			l0,0l0,0l0,0l0,0l0,0c0,0,0.1,0.6,0.2,1.4c0.4,2,1.2,6,3,10.9c0.7,2,1.5,4.1,2.6,6.4c4.3,9.1,11.7,19.6,24.3,26.5
			c11.7,6.7,28,10.1,50.4,6.7c7-3.9,13.9-7.8,20.9-11.7c1.1-0.7,2.2-1.2,3.3-1.8c13.5-7.5,26.9-15.1,40.4-22.7v-56.6
			C474.9,456.2,463.1,462.6,460.8,463.9z"/>
		
			<linearGradient id="SVGID_00000138573131970921494230000002588528688704140941_" gradientUnits="userSpaceOnUse" x1="362.5993" y1="639.5446" x2="689.5303" y2="722.8799" gradientTransform="matrix(1 0 0 -1 0 1160.11)">
			<stop  offset="0" style="stop-color:#051A22"/>
			<stop  offset="1" style="stop-color:#3EABC5"/>
		</linearGradient>
		<path style="fill:url(#SVGID_00000138573131970921494230000002588528688704140941_);" d="M460.8,463.9c-1,0.6-9.6,5.1-10.7,5.8
			c-19.3,10.5-21.4,11.7-33,18c-3.3,1.8-7.5,4.1-13.3,7.2s-11.9,5.4-18.2,6.7c-3.3,0.7-6.8,1.2-10.4,1.3c-2.8,0.1-5.7,0-8.6-0.3
			c-5.1-0.6-10.8-1.7-16.6-4.1c-3.6-1.4-7.4-3.3-11.1-5.7l-0.1-0.1l0,0l0,0l-0.1-0.1l-0.1-0.1c-0.1,0-0.1-0.1-0.2-0.1l-0.1-0.1l0,0
			l0,0l0,0l0,0l0,0l0,0c0,0,0.1,0.6,0.2,1.4c0.4,2,1.2,6,3,10.9c0.7,2,1.5,4.1,2.6,6.4c4.3,9.1,11.7,19.6,24.3,26.5
			c11.7,6.7,28,10.1,50.4,6.7c7-3.9,13.9-7.8,20.9-11.7c1.1-0.7,2.2-1.2,3.3-1.8c13.5-7.5,26.9-15.1,40.4-22.7v-56.6
			C474.9,456.2,463.1,462.6,460.8,463.9z"/>
		
			<linearGradient id="SVGID_00000005246245228636236770000005251634053957712014_" gradientUnits="userSpaceOnUse" x1="304.2034" y1="810.6749" x2="568.3124" y2="520.9243" gradientTransform="matrix(1 0 0 -1 0 1160.11)">
			<stop  offset="0.1296" style="stop-color:#283337"/>
			<stop  offset="1" style="stop-color:#5DBBAE"/>
		</linearGradient>
		<path style="fill:url(#SVGID_00000005246245228636236770000005251634053957712014_);" d="M500,586.7h-1.7
			c-35.2-17.5-34-51.1-34-51.1V431.4c0-7.7-4.2-14.8-11-18.5l-9.6-5.3l-49.7,30.8l16,9.6c1.7,1,2.8,2.9,2.8,4.9V549
			c10.3,86.5,85.3,82.7,85.3,82.7h1.7c0,0,75.1,3.8,85.3-82.7v-2.5l-1.5-0.9C560.3,605.9,500,586.7,500,586.7z"/>
	</g>
	<g>
		<path class="st18" d="M642.1,728.3c0-11.4,0-22.9,0-34.3c0-1.9,0.5-2.8,2.5-2.8c11.6,0.1,23.2-0.2,34.7,0.5c12,0.8,22,6,28.8,16.4
			c4,6.2,5.4,13,5.4,20.2c0,5.6-0.8,11.1-3.2,16.1c-3.5,7.7-9.2,13.3-16.9,16.9c-6.7,3.1-13.8,4.2-21.1,4.2c-9.1,0.1-18.2,0-27.3,0
			c-2.8,0-3-0.3-3-3.1C642.1,751.2,642.1,739.8,642.1,728.3L642.1,728.3z M663.5,728.3C663.5,728.3,663.6,728.3,663.5,728.3
			c0,5.3,0.1,10.6,0,15.9c0,1.8,0.7,2.5,2.5,2.5c2.5-0.1,5.1,0.1,7.6-0.1c2.7-0.3,5.5-0.7,8-1.7c6.2-2.7,9.5-7.7,10-14.5
			c0.7-9.4-3.8-17.1-13.4-18.9c-3.9-0.7-8-0.7-11.9-0.8c-2.5-0.1-2.8,0.2-2.8,2.8C663.5,718.2,663.5,723.3,663.5,728.3z"/>
		<path class="st18" d="M395.5,728.4c0-11.5,0-23,0-34.5c0-1.7,0.5-2.7,2.4-2.6c11.9,0.1,24-0.1,35.9,0.4c6.2,0.2,11.9,2.3,16.7,6.6
			c6.2,5.6,8.5,12.7,8.1,20.9c-0.3,5.9-1.7,11.4-5.7,15.9c-1.4,1.6-3,3-4.7,4.3c-1.2,1-1.4,2-0.7,3.3c3.8,6.9,7.6,13.8,11.4,20.6
			c0.9,1.7,0.7,2.4-1.2,2.5c-6.7,0.1-13.5,0.1-20.3-0.1c-0.9,0-2.2-1.1-2.7-2c-3-5.6-5.8-11.3-8.5-16.9c-0.7-1.5-1.8-2.2-3.5-2.1
			c-0.4,0.1-0.9,0.1-1.4,0c-4.9-0.4-4.3,0.7-4.3,4.4c0,4.8,0,9.6,0,14.4c0,1.6-0.6,2.3-2.2,2.2c-5.6-0.1-11.1,0-16.7,0
			c-2.2,0-2.6-0.4-2.6-2.8C395.5,751.4,395.5,739.9,395.5,728.4L395.5,728.4z M416.7,718L416.7,718c0,2.5,0,4.9,0,7.4
			c0,1.2,0.4,2.2,1.8,2.1c3.2-0.1,6.4,0.1,9.6-0.3c3.2-0.4,6.2-1.3,7.7-4.6c3.3-7-0.7-13.5-8.3-13.8c-2.9-0.1-5.9,0-8.8-0.1
			c-1.4,0-2.1,0.6-2,2C416.7,713.2,416.7,715.6,416.7,718z"/>
		<path class="st18" d="M353.5,765.7c-3,0-6-0.1-9.1,0c-1.4,0.1-2.3-0.5-2.8-1.7c-0.8-2-1.6-4.1-2.3-6.2c-0.6-1.7-1.5-2.6-3.5-2.5
			c-6.9,0.1-13.8,0-20.6,0c-1.7,0-2.8,0.6-3.3,2.4c-0.7,2.3-1.6,4.6-2.7,6.7c-0.3,0.7-1.4,1.3-2.2,1.4c-6.2,0.1-12.3,0.1-18.5,0
			c-2,0-2.4-0.7-1.6-2.5c3.7-9.4,7.5-18.8,11.2-28.2c2.8-7,5.3-14.1,8-21.1c2.2-5.5,4.3-11,6.6-16.5c0.6-1.5,1-3,1.8-4.4
			c0.4-0.7,1.4-1.4,2.2-1.4c5.9-0.1,11.7-0.1,17.7-0.1c1.2,0,2,0.4,2.5,1.6c1.7,4.6,3.6,9.2,5.4,13.8c2.2,5.8,4.5,11.6,6.7,17.4
			c2.8,7.2,5.4,14.3,8.3,21.5c2.2,5.6,4.4,11.3,6.7,16.9c1.2,2.8,0.9,3.3-2,3.3C359,765.7,356.3,765.7,353.5,765.7
			C353.5,765.7,353.5,765.7,353.5,765.7z M325.7,717.2c-0.6,1.2-1,1.7-1.2,2.4c-2.2,5.9-4.3,11.9-6.5,17.8c-0.5,1.4-0.1,2.1,1.4,2.1
			c4.2,0,8.4,0,12.6,0c1.4,0,1.7-0.7,1.3-2c-2-5.4-3.9-10.8-5.9-16.1C327,720.1,326.5,718.9,325.7,717.2z"/>
		<path class="st18" d="M575.9,709.2c-1.1-0.1-1.7-0.2-2.3-0.2c-7,0-14,0-21.1,0c-2.8,0-2.9-0.2-2.9-3c0-4,0-8,0-12
			c0-2.4,0.1-2.6,2.7-2.6c15.9,0,31.7,0,47.6,0c2.4,0,2.7,0.3,2.7,2.6c0,3.1,0.1,6.3-0.1,9.4c-0.1,1.2-0.4,2.6-1.2,3.4
			c-3.9,4-7.9,7.7-11.9,11.6c-1.7,1.6-1.7,2.4,0.6,3c3.7,0.9,6.6,3.1,9.3,5.6c5.8,5.1,7.5,11.7,6.7,19c-0.8,8-4.7,14-11.9,17.5
			c-3.3,1.6-6.9,2.8-10.4,3.3c-6.2,0.9-12.6,0.7-18.6-1.3c-6.7-2.3-12-6.5-14.9-13.1c-1.2-2.8-1.6-5.9-2.2-8.9
			c-0.3-1.5,0.7-2.2,2.1-2.2c5.2,0,10.4,0,15.6,0.1c1.3,0,2.4,0.5,2.7,1.9c0.8,3.5,3.3,5,6.5,5.6c4.3,0.8,8.4-0.9,10.2-3.8
			c2.8-4.4-0.3-10.8-6.3-11.2c-4.1-0.3-8.3-0.1-12.5-0.1c-2.5,0-2.9-0.4-2.9-2.9c0-2.3-0.2-4.7,0.1-7c0.1-1.2,0.8-2.4,1.7-3.3
			c2.9-3,6-5.9,9-8.9C574.6,710.9,575.1,710.2,575.9,709.2z"/>
		<path class="st18" d="M493.2,728.5c0-11.4,0-22.9,0-34.3c0-2.6,0.3-3,2.8-3c5.4,0,10.9,0.1,16.2,0c1.8,0,2.5,0.5,2.5,2.4
			c-0.1,23.1,0,46.3-0.1,69.4c0,2.5-0.2,2.7-2.6,2.7c-5.4,0-10.7,0-16.1,0c-2.6,0-2.8-0.3-2.8-2.9
			C493.2,751.4,493.2,740,493.2,728.5L493.2,728.5z"/>
		<path class="st18" d="M333.3,803.8c0.1-0.1,0.4-0.3,0.8-0.4c0.3-0.1,0.7-0.1,1-0.1c8-0.1,5.5-0.2,8.6,7.5c1.7,4.2,3,8.5,4.5,12.8
			c0.1,0.3,0.4,0.5,0.8,1.1c0.6-1,1.2-1.8,1.4-2.7c1.2-3.5,2.3-7,3.5-10.4c0.8-2.3,1.8-4.6,2.7-6.9c0.1-0.3,0.3-0.7,0.5-0.9
			c0.9-1,6.7-0.8,8,0.5c-3.3,0.6-2.5,3.1-2.5,5.2c0,5.5-0.1,10.9,0,16.4c0,2.3-1.1,5.4,3.3,5.7c-0.1,0.2-0.2,0.4-0.4,0.6
			c-0.6,0.2-1.2,0.6-1.8,0.6c-2.6,0.1-5.2,0.1-7.8,0c-0.5,0-1-0.4-1.6-0.6c0.4-0.4,0.9-0.7,1.4-1.1c0.6-0.7,1.4-1.3,1.4-2
			c0.1-5.6,0.1-11.2,0.1-16.9c0-0.6-0.4-1.2-0.7-1.7c-0.4,0.5-0.9,1-1.2,1.6c-1.9,5.1-3.8,10.4-5.6,15.6c-0.5,1.4-1.5,1.7-2.8,1.7
			c-1.4-0.1-2.5-0.6-3-2c-1.5-4.4-3-8.8-4.6-13.3c-0.5-1.4-1.2-2.9-1.8-4.3c-0.2,0-0.4,0.1-0.6,0.1c-0.1,0.7-0.3,1.3-0.3,2
			c0,5.2,0.1,10.4,0,15.6c-0.1,2.3,0.7,3.8,3.3,4.3c-0.1,0.1-0.1,0.3-0.2,0.5c-0.4,0.2-0.9,0.6-1.3,0.6c-1.7,0.1-3.3,0.1-5,0
			c-0.4,0-0.8-0.5-1.2-0.8c0.4-0.3,0.7-0.7,1-0.8c1.4-0.1,1.7-1.1,1.7-2.3c0-7.3,0.1-14.6,0.1-21.9
			C335.1,806.1,334.1,805.1,333.3,803.8z"/>
		<path class="st18" d="M418.9,803.7c0.5-0.1,1-0.4,1.6-0.4c4.4,0.1,8.8,0.1,13.3,0.2c3,0.1,5.9,2.5,6.6,5.1c1,4.2,0,7.4-3.2,9.3
			c-1.5,0.9-1.6,1.7-0.9,3.1c1.4,2.6,2.7,5.2,4.2,7.7c0.7,1,1.9,1.7,2.8,2.5c0.3,0.3,0.6,0.6,0.9,0.9c-0.4,0.2-0.8,0.7-1.2,0.7
			c-1.8,0.1-3.6,0.1-5.4-0.1c-0.7-0.1-1.4-0.7-1.7-1.3c-1.5-2.8-2.8-5.7-4.3-8.6c-0.4-0.7-0.6-1.6-1.2-2.1c-0.7-0.6-1.7-1.1-2.5-1
			c-0.5,0.1-1.1,1.4-1.1,2.2c-0.1,2.2,0,4.4,0,6.6c0,1.5,0.2,2.7,2,2.8c0.3,0,0.5,0.4,0.8,0.7c-0.3,0.3-0.5,0.7-0.8,0.7
			c-3.3,0-6.5-0.1-9.8-0.1c-0.1,0-0.3-0.3-0.4-0.4c0.1-0.2,0.1-0.5,0.2-0.5c2.8-0.4,2.6-2.4,2.6-4.5c-0.1-6.7-0.1-13.4,0-20.1
			c0.1-2-1.4-2.2-2.5-2.8C418.9,804.1,418.9,803.9,418.9,803.7z M426.7,811.2C426.7,811.2,426.6,811.2,426.7,811.2
			c0,1.4-0.1,3,0,4.4c0.1,0.7,0.4,1.7,0.9,2c2,1.4,6.7-0.4,7-2.8c0.4-2.4,0.3-4.9-0.1-7.3c-0.3-2.3-5.6-3.8-7.4-2.2
			c-0.4,0.4-0.5,1.1-0.5,1.6C426.6,808.3,426.7,809.8,426.7,811.2z"/>
		<path class="st18" d="M582.2,818.2c-0.4,2.5-0.5,5.1-1.4,7.5c-2.1,5.6-5.4,7.6-11.4,7.5c-5.6-0.1-9.5-3.4-10.6-9.3
			c-0.9-4.6-0.9-9.3,0.7-13.8c1.9-5.3,6.5-7.2,11.8-6.9c7,0.5,10,5.8,10.3,11.4c0.1,1.3,0.1,2.5,0.2,3.8
			C582,818.2,582.1,818.2,582.2,818.2z M564.2,817.8c-0.1,0-0.1,0-0.3,0c0.1,2.9,0.1,5.8,0.4,8.6c0.4,3.3,2.7,5,6.2,4.9
			c3.2-0.1,5.3-2,5.4-5.3c0.1-5.4,0.2-10.9-0.1-16.4c-0.1-1.4-1.1-3.5-2.3-4.1c-4.4-2.5-9.2-0.3-9.4,5.1
			C564.1,813,564.2,815.4,564.2,817.8z"/>
		<path class="st18" d="M603.8,809c-0.1,0.7-0.4,1.4-0.4,2c0,5.7,0,11.5,0,17.2c0,1.4,0,2.9,2,3.1c0.3,0,0.5,0.5,0.7,0.8
			c0.1,0.1-0.3,0.6-0.4,0.6c-2.3,0-4.7,0.6-7-0.3c0.1-0.4,0.1-0.6,0.1-0.7c2.8-0.8,2.8-2.9,2.7-5.2c-0.1-5.8,0-11.7,0.1-17.5
			c0.1-2.1-0.2-3.9-2.5-5c0.1-0.1,0.2-0.3,0.3-0.5c0.7-0.1,1.4-0.4,2.2-0.5c1.2-0.1,2.2,0.1,3.4,0.1c1.4,0,2.4,0.6,3.2,2
			c3.3,5.6,6.7,11.1,10.1,16.6c0.1,0.1,0.3,0.2,0.9,0.7c0.2-0.9,0.6-1.7,0.6-2.4c0.1-4.3,0.1-8.5-0.1-12.8c-0.1-1.2-1.2-2.2-1.8-3.4
			c1.2-0.9,4.1-0.9,6,0.4c-3.7,1.7-2.3,5-2.4,7.7c-0.1,6.4,0.1,12.7,0,19c0,0.6-0.7,1.7-0.9,1.7c-0.7-0.1-1.7-0.4-2.2-0.9
			c-2.1-3.2-4.1-6.4-6.1-9.7c-2.5-4.1-4.9-8.1-7.4-12.2c-0.2-0.4-0.4-0.7-0.6-1C604.3,808.8,604,808.9,603.8,809z"/>
		<path class="st18" d="M458.5,803.7c0.5-0.1,1.2-0.4,1.9-0.4c5.1-0.1,10.3-0.1,15.4-0.1c2.2,0,2.6,0.4,2.6,2.8
			c0,1.4-0.1,2.8-0.3,4.1c-0.4,0-0.7,0.1-1,0.1c-0.3-0.8-0.6-1.6-0.8-2.5c-0.6-2.3-1.2-2.9-3.6-2.9c-1.5,0-3,0-4.6,0
			c-1.4,0-2.2,0.6-2.1,2c0,2.7,0,5.4,0,8c0,0.4,0.1,1.1,0.2,1.1c1.7,0.4,3.3,0.8,4.9,0.7c0.7,0,1.6-0.9,2.2-1.7
			c0.4-0.4,0.2-1.2,0.5-1.7c0.1-0.2,1.3-0.1,1.3-0.1c0.2,3,0.4,6.2-0.1,9.1c-0.2,0.1-0.5,0.1-0.7,0.1c-0.3-0.7-0.7-1.2-0.9-1.9
			c-0.7-2.1-2.2-2.8-5.6-2.4c-2.1,0.2-1.8,1.8-1.9,3.2c-0.1,2.5,0.1,4.9,0,7.4c-0.1,1.4,0.5,2.2,2,2.2c2,0,4,0,6,0
			c1.6,0,2.5-0.8,2.7-2.4c0.1-0.5,0.1-1.1,0.4-1.5c0.2-0.4,0.7-0.7,1.2-0.9c0.3,0.4,0.7,0.8,0.8,1.2c0.1,1.2,0.1,2.4,0,3.6
			c-0.1,1.6-1.3,1.7-2.5,1.7c-4.6,0-9.2,0-13.8,0c-1.2,0-2.4,0.1-3.6,0.1c-0.4,0-0.7-0.4-1.1-0.7c0.3-0.3,0.6-0.8,0.9-0.9
			c1.7-0.1,1.8-1.2,1.8-2.5c0-7.2,0.1-14.4-0.1-21.7C460.6,806,459.3,805,458.5,803.7z"/>
		<path class="st18" d="M381.2,831.8c0.4-0.2,1-0.3,1.4-0.6c0.6-0.5,1.4-1.2,1.4-1.8c0.1-7.5,0.1-14.9,0.1-22.4c0-0.9-1.2-2-2-3.1
			c0.4-0.1,1-0.5,1.5-0.5c4.3,0.1,8.5,0,12.8,0.4c4.2,0.4,7.1,3.9,7,8.3c-0.1,3.8-2.5,7.5-6.7,8c-1.7,0.2-3.3,0.2-5,0.2
			c-1.6,0-2.4,0.8-2.5,2.2c-0.1,2.3,0,4.7,0,7c0,1.5,1.1,1.7,2.3,1.9c0.5,0.1,0.9,0.5,1.4,0.7c-0.5,0.3-1,0.9-1.5,0.9
			c-3,0.1-5.9,0.1-8.8,0c-0.5,0-1-0.3-1.6-0.4C381.2,832.2,381.2,832,381.2,831.8z M389.2,811.7L389.2,811.7
			c0.1,1.6-0.1,3.2,0.1,4.8c0.1,0.7,0.6,1.7,1.2,2.1c2.4,1.2,6.1-0.4,6.7-3c0.4-1.7,0.7-3.5,0.5-5.3c-0.3-4.4-2.3-5.9-6.7-5.4
			c-1.3,0.1-1.9,0.8-1.9,2.1C389.2,808.5,389.2,810.1,389.2,811.7z"/>
		<path class="st18" d="M659.3,810.3c-0.5-1.1-1.1-2.2-1.4-3.3c-0.4-1.4-1.2-2.1-2.7-2.1c-1.8,0-3.6,0-5.4,0c-1.4,0-2.2,0.7-2.2,2.2
			c0,2.7,0,5.4,0.1,8c0,0.4,0.1,0.9,0.3,1.2c0.9,1.3,6.3,0.8,7-0.7c0.4-0.9,0.9-1.7,1.4-2.6c0.2,0.1,0.4,0.1,0.6,0.2
			c0,3,0,6.1,0,9.1c-0.2,0.1-0.4,0.1-0.7,0.2c-0.4-0.7-1-1.4-1.4-2.2c-0.9-1.7-2.8-2.3-5.8-1.7c-1.9,0.4-1.5,2-1.5,3.2
			c-0.1,2.5,0,4.9,0,7.4c-0.1,1.4,0.6,2.1,2,2.1c1.6,0,3.2,0,4.8,0c3,0,3.3-0.3,4.3-3.1c0.3-0.8,0.9-1.5,1.4-2.3
			c0.2,0.9,0.7,1.8,0.7,2.8c-0.1,4.5,0.6,4.3-4.3,4.3c-4.9,0.1-9.8,0-14.6-0.1c-0.7,0-1.4-0.2-2.2-0.4c0.1-0.4,0.1-0.7,0.1-0.7
			c3-0.6,3-2.7,2.9-5.1c-0.1-5.8-0.1-11.7,0-17.5c0-2,0.4-4.1-2.5-4.9c0.1-0.2,0.2-0.4,0.4-0.6c0.9-0.2,1.8-0.5,2.7-0.5
			c4.7-0.1,9.5,0,14.2,0c2.6,0,3.2,0.6,3.2,3.2c0,1.2,0,2.5,0,3.7C660,810.1,659.7,810.2,659.3,810.3z"/>
		<path class="st18" d="M685.9,833c-3.5,0.4-6.5-1.2-8.7-4.5c-0.4-0.5-0.7-1.3-0.6-1.8c0.1-0.6,0.8-1.2,1.4-1.4
			c0.3-0.1,1.2,0.5,1.4,0.9c2.2,5.8,5.4,5.6,9.5,4.9c1.4-0.2,2.8-2.2,3.4-3.7c0.7-1.8-0.4-3.8-2.2-4.8c-2.1-1.2-4.5-2-6.8-2.8
			c-4.3-1.4-7.2-5.7-6.4-9.5c1.1-5.1,4.9-8,9.9-7.7c3.5,0.3,6.7,1.3,8.3,4.9c1.2,2.7,0.3,4.3-2.2,4.6c-1.6,0.1-2.4-0.3-2.2-2.1
			c0.1-2-0.4-3.8-2.3-5c-2.5-1.4-5.4-0.8-6.8,1.5c-1.2,2-0.4,5.9,1.9,7.1c2.2,1.2,4.6,2.2,7,2.8c4.7,1.3,7,6.2,5.6,10.1
			C694.3,831.1,692.1,832.8,685.9,833z"/>
		<path class="st18" d="M505.1,833c-3.9,0.3-6.9-1.3-8.9-4.6c-0.4-0.7-0.6-1.5-0.4-2.2c0.1-0.4,0.9-0.9,1.5-1
			c0.4-0.1,0.9,0.6,1.2,1.1c1.7,4.6,5.1,6.5,9.6,4.9c1.4-0.5,2.8-2.2,3.2-3.7c0.6-2-0.5-3.9-2.3-4.9c-2-1.1-4.1-1.7-6.3-2.5
			c-4.8-1.7-7.7-5.9-6.6-10c1.4-5.4,5.8-8.1,11.2-7.1c2.9,0.5,5.3,1.7,6.7,4.4c1.4,2.8,0.4,4.9-2.5,5c-1.4,0.1-2-0.4-1.8-1.9
			c0.1-2.1-0.4-4-2.2-5.2c-1.9-1.2-3.8-1.2-5.6,0.2c-1.7,1.2-2.2,3.1-1.6,5.2c0.8,2.5,2.5,4,5,4.7c1.9,0.6,3.8,1.1,5.6,2
			c3.3,1.5,5.1,4.9,4.5,8c-0.8,4.5-3.3,7.1-7.2,7.6C507.1,833,506.1,833,505.1,833z"/>
		<path class="st18" d="M531,804.4c2.2-1.4,9-1.4,10.4-0.4c0,0.1,0,0.1,0,0.2c-2.7,1.1-2.4,3.4-2.4,5.6c0,6.3,0.1,12.5,0.1,18.8
			c0,1.6,0.4,2.6,2.1,2.8c0.3,0,0.5,0.5,0.7,0.8c-0.3,0.2-0.5,0.7-0.8,0.7c-3.1,0.1-6.3,0-9.4,0c-0.3,0-0.6-0.4-0.8-0.6
			c0.1-0.2,0.1-0.4,0.1-0.4c3.1-0.7,2.7-3.2,2.7-5.4c0-5.7,0-11.5,0-17.2C533.6,807.2,534.3,805,531,804.4z"/>
		<path class="st18" d="M305.4,832.2c0.1-0.3,0.1-0.5,0.1-0.5c3-0.6,2.8-3,2.8-5.2c-0.1-5.6,0-11.2,0-16.8c0-2.1,0.7-4.5-2.3-5.3
			c1.5-1.5,8.3-1.5,9.9-0.1c-3.4,1-2.5,3.8-2.5,6.1c-0.1,5.9,0.1,11.9,0,17.8c0,1.7,0.2,3,2.2,3.3c0.2,0,0.4,0.3,0.6,0.4
			C315.2,833,307.2,833.2,305.4,832.2z"/>
	</g>
</g>
</svg>
