<?xml version="1.0" encoding="utf-8"?>
<!-- Generator: Adobe Illustrator 27.1.1, SVG Export Plug-In . SVG Version: 6.00 Build 0)  -->
<svg version="1.1" id="Capa_1" xmlns="http://www.w3.org/2000/svg" xmlns:xlink="http://www.w3.org/1999/xlink" x="0px" y="0px"
	 viewBox="0 0 1000 1000" style="enable-background:new 0 0 1000 1000;" xml:space="preserve">
<style type="text/css">
	.st0{fill:#F4F4F4;}
	.st1{fill:#4528D8;}
	.st2{fill:#4CB7F6;}
	.st3{fill:#1C1056;}
</style>
<rect class="st0" width="1000" height="1000"/>
<g>
	<path class="st1" d="M173.6,472.2c1.1,0.1,0.8,1,0.8,1.6c0,11.7,0,23.4,0,35.2c0,11.4-1.7,22.4-7.1,32.7
		c-6.1,11.4-14.7,20.1-26.4,25.7C95.4,589,50,610.6,4.5,632.2c-1,0.5-2.5,0.5-2.8,2C0.3,634.6,0,634,0,632.5c0.1-26,0-52,0-78
		c0.5,0.5,0.9,0,1.3-0.2c13-6.2,26.1-12.4,39.1-18.6c0.1,0,0.3-0.1,0.4-0.1c41-19.5,82-39,123-58.6
		C167.2,475.5,170.5,474.1,173.6,472.2z"/>
	<path class="st2" d="M174,365.7c0,0.8,0.1,1.6,0.1,2.3c0.1,24.8,0.1,49.7,0.2,74.5c0,1.8-0.6,2.7-2.2,3.5
		c-12.8,6-25.5,12.1-38.2,18.2c-0.1,0-0.3,0-0.4,0.1C95.9,482.2,58.3,500.1,20.6,518c-6.8,3.3-13.7,6.4-20.6,9.6c0-16.5,0-33,0-49.4
		c0.7-0.5,0.8-0.5,0.9-1.3c0.7-5.1,2.2-10,4.3-14.6c5.8-13.2,15-23.3,28.1-29.6c42.5-20.2,85-40.4,127.5-60.6
		c4.3-2.1,8.8-3.8,12.9-6.4C173.7,365.7,173.9,365.7,174,365.7z"/>
	<path class="st3" d="M0,527.7c6.9-3.2,13.7-6.4,20.6-9.6c37.6-17.9,75.3-35.8,112.9-53.7c0.1-0.1,0.3-0.1,0.4-0.1
		c4.7,1.4,9.5,2,14.3,2.9c7.6,1.5,15.3,2.9,22.9,4.3c0.8,0.2,1.6,0.5,2.4,0.7c-3.1,1.9-6.4,3.3-9.7,4.8c-41,19.5-82,39.1-123,58.6
		c-0.1,0.1-0.3,0.1-0.4,0.1c-0.9-0.5-1.9-0.6-2.8-0.8c-7.7-1.5-15.4-3-23.2-4.3c-4.8-0.9-9.5-2.2-14.4-2.5C0,527.9,0,527.8,0,527.7z
		"/>
	<path class="st3" d="M541.2,501.1c0-10.7,0-21.5,0-32.2c0-6.8,3.9-10.7,10.7-10.7c1.9,0,3.8,0.1,5.8,0c1.6-0.1,2.4,0.4,2.6,2
		c0,0.4,0.2,0.8,0.3,1.2c0.3,1.8,0.9,2.1,2.5,1c3.7-2.5,7.6-4.5,12-5.4c12.1-2.6,23.2-1.2,32.4,7.9c1,1,1.7,0.7,2.5,0
		c6-5,13-7.9,20.7-8.8c9.9-1,19.5,0.1,27.4,7.1c5.2,4.7,8.1,10.7,9.7,17.4c0.8,3.4,1.4,6.8,1.4,10.3c0,12.1,0,24.3,0,36.4
		c0,5.4-3.9,9.2-9.3,9.2c-3.7,0-7.4-0.1-11.1,0c-2,0.1-2.7-0.6-2.7-2.6c0.1-13.5,0-27,0-40.5c0-2.6-0.3-5.2-0.9-7.8
		c-1.9-7.7-7.5-11.1-15.3-9.5c-7.2,1.5-12.2,7.5-12.9,15.3c-0.3,2.9-0.3,5.8-0.3,8.7c0,9.1,0,18.2,0,27.3c0,5.2-3.9,9-9,9.1
		c-3.8,0-7.7-0.1-11.5,0.1c-1.9,0.1-2.6-0.5-2.5-2.5c0.1-13.7,0-27.4,0-41.1c0-3-0.5-5.9-1.4-8.8c-2-6.4-7.7-9.4-14.7-8
		c-7.2,1.5-11.9,6.9-12.9,14.6c-0.3,2.3-0.4,4.7-0.4,7c0,9.8,0,19.6,0,29.4c0,5.6-3.8,9.3-9.4,9.4c-3.7,0-7.4-0.1-11.1,0
		c-1.9,0.1-2.6-0.5-2.6-2.5C541.3,523.2,541.2,512.2,541.2,501.1z"/>
	<path class="st3" d="M681.9,514c0-15.1,0-30.2,0-45.4c0-6.6,3.8-10.4,10.5-10.4c2,0,4,0,6,0c1.3,0,2.1,0.4,2.4,1.8
		c0.3,1.5,0,3.7,1.4,4.2c1.3,0.5,2.6-1.4,3.8-2.2c14.5-9.6,36.5-7.5,49,4.5c8.4,8.1,12.4,17.9,12.8,29.4
		c0.4,12.5-3.2,23.6-12.2,32.4c-6.9,6.7-15.4,10.1-24.9,10.8c-8.6,0.6-16.7-0.8-24-5.7c-1.6-1.1-1.7-0.1-1.7,1.2c0,6,0,12.1,0,18.1
		c0,7-3.7,10.7-10.6,10.7c-3.3,0-6.7-0.1-10,0c-1.9,0.1-2.4-0.6-2.4-2.4C681.9,545.4,681.9,529.7,681.9,514z M744.6,497.1
		c0-1.4,0-3.3-0.5-5.2c-2-7.9-6.6-13.3-14.6-15.4c-7.5-1.9-14.3-0.4-19.8,5.2c-5.3,5.5-6.8,12.2-5.7,19.7
		c1.9,12.8,14.2,20.6,26.5,16.7C739.5,515.4,744.6,507.9,744.6,497.1z"/>
	<path class="st3" d="M893,504.2c-9.7,0-19.3,0-29,0c-1.6,0-2.5,0.2-1.8,2.1c4.9,13.2,21.3,17.9,31.3,9.8c0.6-0.5,1.4-0.9,1.7-1.6
		c1.3-2.7,3.6-2.7,6.1-2.7c6.1,0.1,12.2,0,18.3,0c2.4,0,2.5,0,1.5,2.4c-5.6,12.8-15.5,20.7-29,23.8c-13.6,3.1-26.5,1-37.7-7.7
		c-9.7-7.6-14.9-17.6-15.6-30c-0.8-12.8,3.2-23.9,12.4-32.7c7.6-7.3,16.9-11,27.5-11.6c11.4-0.6,21.8,2,30.7,9.2
		c9.7,7.8,14.6,18.1,15.2,30.4c0.1,2.2,0.1,4.4-0.2,6.6c-0.2,1.5-0.9,2-2.4,1.9C912.3,504.2,902.6,504.2,893,504.2z M881.3,488
		c5.6,0,11.2,0,16.8,0c1.7,0,2.2-0.3,1.3-2c-3.6-7.2-9.1-11.5-17.4-11.6c-8.7-0.1-15.1,3.7-19.1,11.5c-0.8,1.6-0.5,2.1,1.3,2.1
		C869.9,487.9,875.6,488,881.3,488z"/>
	<path class="st3" d="M499.3,504.2c-9.6,0-19.2,0-28.8,0c-2.5,0-2.7,0.3-1.8,2.6c4.7,12.6,20.8,17.4,31.2,9.3c0.6-0.5,1.4-1,1.7-1.6
		c1.3-2.5,3.4-2.7,5.9-2.6c6.2,0.1,12.5,0.1,18.8,0c1.8,0,2.1,0.5,1.4,2.1c-4,9.5-10.6,16.7-20,20.9c-16.4,7.3-32.3,6.3-46.9-4.6
		c-9.7-7.3-14.8-17.4-15.6-29.5c-0.9-12.9,3-24,12.3-33c7.6-7.4,17-11.1,27.6-11.7c11.5-0.6,22,2.2,31,9.5
		c8.2,6.6,12.9,15.4,14.5,25.8c0.5,3.5,0.5,7.1,0.2,10.6c-0.1,1.7-0.8,2.4-2.7,2.3C518.5,504.1,508.9,504.2,499.3,504.2z M487.7,488
		c5.6,0,11.2,0,16.8,0c1.7,0,2.2-0.4,1.3-2c-3.6-7.2-9.1-11.5-17.4-11.6c-8.7-0.1-15.1,3.7-19.1,11.5c-0.8,1.6-0.5,2.1,1.3,2.1
		C476.3,487.9,482,488,487.7,488z"/>
	<path class="st3" d="M344.5,504.2c-9.6,0-19.2,0-28.8,0c-2.5,0-2.6,0.2-1.7,2.5c4.8,12.3,19.9,17.3,30.3,10
		c1.2-0.8,2.4-1.7,3.1-2.9c1-1.7,2.5-2,4.3-2c6.3,0.1,12.5,0,18.8,0c3.4,0,3.4,0,1.9,3.2c-5.6,12.2-15.2,19.7-28.1,22.8
		c-14.1,3.3-27.5,1.2-39-8.2c-9.4-7.6-14.3-17.6-14.9-29.7c-0.6-10.3,2-19.7,8.4-27.9c6.9-8.9,16-14.1,27.2-15.6
		c11.2-1.6,21.9,0,31.5,6.3c11.7,7.6,17.9,18.5,18.7,32.4c0.1,2.1,0,4.3,0,6.4c0,1.9-0.7,2.7-2.8,2.7
		C363.7,504.1,354.1,504.2,344.5,504.2z M332.8,488c5.5,0,11.1,0,16.6,0c2.5,0,2.6-0.1,1.4-2.5c-3.7-7.4-9.7-11.3-18.1-11.1
		c-8.3,0.2-14.2,4.2-18,11.5c-0.8,1.5-0.7,2.1,1.2,2.1C321.6,487.9,327.2,488,332.8,488z"/>
	<path class="st3" d="M268.5,481.6c-3.3,0-6.5,0-9.8,0c-1.1,0-1.8-0.3-2.1-1.5c-0.9-3-3.1-4.7-6.1-5.3c-3.4-0.7-6.8-0.7-10,0.9
		c-2.2,1.1-3.7,2.8-3.6,5.3c0.1,2.6,2.1,3.7,4.3,4.4c4.4,1.4,9.1,1.6,13.6,2.6c6.3,1.3,12.7,2.6,18.3,6c5.8,3.6,8.9,8.6,9.4,15.5
		c1,14.9-7.5,24-19.7,27.4c-10.9,3.1-22,3.8-32.9,0c-10.5-3.6-16.9-10.9-18.6-22c-0.4-2.7-0.2-3,2.5-3c6,0,11.9,0,17.9,0
		c1,0,2-0.1,2.4,1.2c1.3,4.5,4.9,6.1,9,6.7c3.6,0.6,7.2,0.3,10.7-0.9c2.9-1,4.6-3,4.6-5.5c-0.1-2.8-2.1-4.1-4.4-4.9
		c-5.1-1.9-10.6-2.7-15.9-3.9c-4.4-1-8.7-1.9-12.8-3.9c-9.3-4.6-12.2-12.9-11.4-22.3c1-11.2,7.5-17.8,17.8-20.9
		c9.3-2.8,18.7-3.3,28.2-1c11.5,2.8,18.4,10.5,20.1,22.1c0.4,2.6,0.1,2.9-2.4,2.9C274.6,481.6,271.5,481.6,268.5,481.6
		C268.5,481.6,268.5,481.6,268.5,481.6z"/>
	<path class="st3" d="M780,500.9c0-10.8,0-21.6,0-32.4c0-6.4,4-10.3,10.4-10.3c2.1,0,4.3,0,6.4,0c1.2,0,1.8,0.4,2,1.6
		c0.3,1.5,0.7,2.9,1,4.3c0.2,1.1,0.8,1.3,1.6,0.6c8.9-7.1,19.4-6.8,29.9-6.6c1.1,0,1.5,0.6,1.5,1.6c0,5.8,0,11.5,0,17.3
		c0,1.4-0.8,1.6-1.9,1.6c-4.5,0.1-9.1-0.3-13.6,0.7c-7,1.6-11.6,5.7-13.4,12.7c-0.6,2.2-0.9,4.4-0.9,6.7c0,9.1-0.1,18.2,0,27.3
		c0.1,5.3-3.3,11.1-10.5,10.6c-3.4-0.2-6.8-0.1-10.2,0c-1.8,0.1-2.3-0.5-2.3-2.3C780,523.2,780,512.1,780,500.9z"/>
	<path class="st3" d="M386.4,500.9c0-10.8,0-21.6,0-32.4c0-6.4,4-10.3,10.4-10.3c2.1,0,4.3,0,6.4,0c1.2,0,1.8,0.4,2.1,1.6
		c0.3,1.5,0.7,2.9,1,4.3c0.2,1.1,0.7,1.2,1.6,0.6c8.9-6.9,19.4-6.8,29.9-6.5c1.1,0,1.5,0.6,1.5,1.6c0,5.7,0,11.4,0,17
		c0,1.5-0.7,1.8-2,1.8c-3.7,0.1-7.4-0.1-11.1,0.3c-10.3,1.2-16.6,8.1-16.8,18.6c-0.1,9.5-0.2,19,0,28.5c0.1,5.3-3.3,11.1-10.5,10.6
		c-3.4-0.2-6.8-0.1-10.2,0c-1.8,0.1-2.3-0.5-2.3-2.3C386.4,523.2,386.4,512.1,386.4,500.9z"/>
	<path class="st1" d="M950.1,539.6c-8.5,0.3-17.4-7.4-17-17.9c0.4-9.1,7.5-16.6,17.2-16.6c8.5,0,16.9,6.8,16.8,17.4
		C967.1,533,958.5,539.9,950.1,539.6z"/>
	<path class="st3" d="M997.3,459.4c-1.5,2-3.1,4-4.6,6.1c-0.9,1.3-1.6,1.4-2.5,0c-1.5-2.1-3-4.1-4.6-6.1c-0.9,0.5-0.6,1.2-0.6,1.8
		c0,3.3,0,6.7,0,10c0,0.7,0,1.3-0.9,1.4c-1,0.1-1.1-0.7-1.1-1.4c0-4.8,0-9.7,0-14.5c0-0.6,0-1.2,0.7-1.4c0.8-0.2,1.3,0.2,1.8,0.8
		c1.6,2.2,3.3,4.3,4.8,6.5c0.8,1.2,1.4,1.2,2.2,0c1.5-2.1,3.1-4.1,4.6-6.1c0.5-0.7,1-1.5,2-1.2c1.1,0.3,0.7,1.3,0.7,2
		c0,4.5,0,9,0,13.4c0,0.8,0.2,1.9-1.1,1.8c-1.2-0.1-0.9-1.1-0.9-1.8c0-3.7,0-7.5,0-11.2C997.7,459.5,997.5,459.4,997.3,459.4z"/>
	<path class="st3" d="M972.7,464.7c0-2-0.1-4,0-6c0.1-1.4-0.5-2-1.9-1.9c-0.9,0.1-1.8,0-2.8,0c-0.5,0-0.8-0.3-0.8-0.8
		c0-0.5,0.3-0.8,0.8-0.8c3.8,0,7.5,0,11.3,0c0.5,0,0.8,0.3,0.8,0.8c0,0.5-0.3,0.8-0.8,0.8c-0.3,0-0.6,0-0.9,0
		c-3.7,0.2-3.7,0.2-3.7,4c0,3.3,0,6.7,0,10c0,0.7,0.1,1.5-1,1.6c-1.2,0.1-1.1-0.9-1.1-1.6C972.7,468.9,972.7,466.8,972.7,464.7z"/>
</g>
</svg>
