<?xml version="1.0" encoding="utf-8"?>
<!-- Generator: Adobe Illustrator 27.1.1, SVG Export Plug-In . SVG Version: 6.00 Build 0)  -->
<svg version="1.1" id="Capa_1" xmlns="http://www.w3.org/2000/svg" xmlns:xlink="http://www.w3.org/1999/xlink" x="0px" y="0px"
	 viewBox="0 0 512 512" style="enable-background:new 0 0 512 512;" xml:space="preserve">
<style type="text/css">
	.st0{display:none;fill:#E5007E;}
	.st1{fill:#E5007E;}
</style>
<g>
	<path class="st0" d="M313.5,93.4C287.8,36.6,360.2,3.7,369.3,0c0.9,0,0.9,0,0.9,0s-32.1,26.6-20.1,70.5
		c11.9,44.9,48.5,37.5,60.4,84.3c10.1,39.4-7.3,69.6-7.3,69.6s0.9,0.9,2.7,2.7c0.9,0.9,0.9,1.8,1.8,3.7l0,0c0,0.9,0,1.8,0.9,1.8
		c0,3.7-1.8,6.4-4.6,7.3c-2.7,0.9-5.5,0.9-8.2-0.9c-20.1-17.4-44.9-28.4-75.1-27.5c-8.2,0-11-11-3.7-14.7l0,0h0.9
		c1.8-1.8,2.7-4.6,4.6-6.4c0-0.9,0.9-0.9,0.9-1.8s0.9-0.9,0.9-1.8C350.1,145.6,330,131,313.5,93.4z M335.5,364.5
		c13.7-6.4,25.6-17.4,30.2-32.1c1.8-4.6,2.7-10.1,4.6-14.7c6.4-13.7,22.9-20.1,31.1-33.9c-10.1,13.7-27.5,20.1-44,19.2
		c-7.3,0-14.7-1.8-22-1.8s-14.7,0.9-21.1,5.5c-7.3,5.5-11,15.6-12.8,24.7c-4.6,19.2-7.3,26.6-25.6,41.2c0,0,22-1.8,30.2-2.7
		C316.2,370.9,326.3,368.1,335.5,364.5z M420.6,334.3c-0.9,3.7-7.3,3.7-8.2,6.4c-2.7,8.2-8.2,11-13.7,18.3
		c-3.7,4.6-2.7,23.8-9.2,34.8c-6.4,11-11.9,10.1-22,20.1c-3.7,3.7-7.3,7.3-11.9,7.3c-1.8,0-3.7,0-5.5,0.9s-3.7,1.8-4.6,3.7
		c-4.6,4.6-9.2,9.2-12.8,13.7c-2.7,2.7-5.5,5.5-8.2,6.4c-4.6,1.8-11,0.9-15.6,2.7c-1.8,0.9-4.6,1.8-6.4,2.7s-4.6,0-6.4-1.8
		c-2.7-3.7,2.7-11.9-1.8-13.7c-1.8-0.9-3.7,0-5.5,0.9c-3.7,1.8-6.4,5.5-7.3,10.1c-1.8,4.6-1.8,10.1-6.4,11.9c0-1.8-3.7-2.7-5.5-2.7
		c-1.8,0.9-3.7,2.7-4.6,4.6c-2.7,4.6-3.7,9.2-7.3,12.8c-1.8,1.8-3.7,2.7-4.6,2.7l0,0l0,0l0,0l0,0c-0.9,0-1.8,0-4.6-2.7
		c-3.7-3.7-4.6-8.2-7.3-12.8c-0.9-1.8-2.7-3.7-4.6-4.6c-1.8-0.9-4.6,0-5.5,2.7c-4.6-1.8-4.6-7.3-6.4-11.9c-0.9-3.7-3.7-7.3-7.3-10.1
		c-1.8-0.9-3.7-1.8-5.5-0.9c-4.6,2.7,1.8,10.1-1.8,13.7c-0.9,1.8-3.7,1.8-6.4,1.8c-1.8-0.9-4.6-1.8-6.4-2.7c-4.6-1.8-11,0-15.6-2.7
		c-3.7-0.9-6.4-3.7-8.2-6.4c-4.6-4.6-9.2-9.2-12.8-13.7c-1.8-1.8-2.7-2.7-4.6-3.7c-1.8-0.9-3.7,0-5.5-0.9c-4.6-0.9-8.2-4.6-11.9-7.3
		c-9.2-10.1-15.6-9.2-22-20.1c-6.4-11-5.5-30.2-9.2-34.8c-5.5-7.3-11-10.1-13.7-18.3c-0.9-2.7-8.2-3.7-8.2-6.4
		c-0.9-3.7-12.8-8.2-15.6-6.4c11,8.2,16.5,22,22,34.8c1.8,4.6,11.9,14.7,9.2,19.2c-0.9,1.8-2.7,2.7-4.6,4.6
		c-3.7,4.6-2.7,10.1-0.9,15.6c2.7,4.6,7.3,8.2,11.9,10.1c3.7,0.9,6.4,1.8,9.2,3.7c6.4,4.6,8.2,13.7,9.2,22
		c1.8,9.2,3.7,18.3,7.3,27.5c0,0.9,0.9,1.8,1.8,2.7c0.9,0,0.9,0,1.8,0c3.7,0,7.3-3.7,11-6.4s8.2-4.6,11-1.8c0.9,0.9,1.8,2.7,2.7,3.7
		c1.8,1.8,4.6,1.8,7.3,3.7c3.7,2.7,4.6,7.3,4.6,11.9c0,0.9,0,1.8,0,2.7l0,0c0,0,0,11.9,0.9,18.3s10.1,12.8,16.5,11.9
		c-2.7-7.3-3.7-15.6-1.8-22.9c0.9-2.7,1.8-4.6,3.7-6.4c1.8-1.8,6.4,0,6.4,2.7c1.8-3.7,7.3-5.5,11-3.7c4.6,1.8,6.4,7.3,11,9.2
		c1.8,0.9,3.7,0,6.4,0.9s5.5,3.7,7.3,6.4c1.8,2.7,2.7,4.6,5.5,6.4c2.7,1.8,5.5,2.7,10.1,1.8c4.6,0,7.3-0.9,10.1-1.8
		c2.7-1.8,3.7-3.7,5.5-6.4c1.8-2.7,3.7-5.5,7.3-6.4c1.8-0.9,3.7,0,6.4-0.9c4.6-1.8,6.4-6.4,11-9.2c3.7-1.8,9.2,0,11,3.7
		c0-2.7,3.7-3.7,6.4-2.7c1.8,0.9,2.7,3.7,3.7,6.4c1.8,7.3,0.9,15.6-1.8,22.9c7.3,0.9,15.6-5.5,16.5-11.9s0.9-18.3,0.9-18.3l0,0
		c0-0.9,0-1.8,0-2.7c0-4.6,0.9-9.2,4.6-11.9c1.8-1.8,4.6-1.8,7.3-3.7c0.9-0.9,1.8-2.7,2.7-3.7c3.7-2.7,8.2-0.9,11,1.8
		c3.7,2.7,6.4,5.5,11,6.4c0.9,0,1.8,0,1.8,0c0.9-0.9,1.8-1.8,1.8-2.7c3.7-9.2,6.4-18.3,7.3-27.5c0.9-8.2,2.7-17.4,9.2-22
		c2.7-1.8,6.4-2.7,9.2-3.7c4.6-1.8,10.1-5.5,11.9-10.1c2.7-4.6,2.7-11-0.9-15.6c-0.9-1.8-3.7-2.7-4.6-4.6
		c-2.7-4.6,7.3-14.7,9.2-19.2c6.4-12.8,11.9-26.6,22-34.8C433.5,326.9,420.6,331.5,420.6,334.3z M101.9,227.1
		c-0.9,0.9-0.9,1.8-1.8,3.7l0,0c0,0.9,0,1.8-0.9,1.8c0,3.7,1.8,6.4,4.6,7.3c2.7,0.9,5.5,0.9,8.2-0.9c20.1-17.4,44.9-28.4,75.1-27.5
		c8.2,0,11-11,3.7-14.7l0,0h-0.9c-1.8-1.8-2.7-4.6-4.6-6.4c0-0.9-0.9-0.9-0.9-1.8s-0.9-0.9-0.9-1.8c-24.7-41.2-5.5-54.9,11.9-92.5
		C220.1,36.6,147.7,3.7,138.6,0c-0.9,0-0.9,0-0.9,0s32.1,26.6,20.1,70.5c-11.9,44.9-48.5,37.5-60.4,84.3
		c-10.1,39.4,7.3,69.6,7.3,69.6S102.9,225.3,101.9,227.1z M193.5,307.7c-5.5-4.6-13.7-5.5-21.1-5.5s-14.7,0.9-22,1.8
		c-16.5,0-33.9-6.4-44-19.2c7.3,13.7,24.7,20.1,31.1,33.9c1.8,4.6,2.7,10.1,4.6,14.7c4.6,14.7,16.5,25.6,30.2,32.1
		c9.2,4.6,19.2,6.4,29.3,6.4c8.2,0,30.2,2.7,30.2,2.7c-18.3-14.7-21.1-22.9-25.6-41.2C204.5,322.3,200.8,313.2,193.5,307.7z"/>
	<path class="st0" d="M324.5,93.4C298.8,36.6,371.2,3.7,380.3,0c0.9,0,0.9,0,0.9,0s-32.1,26.6-20.1,70.5
		c11.9,44.9,48.5,37.5,60.4,84.3c10.1,39.4-7.3,69.6-7.3,69.6s0.9,0.9,2.7,2.7c0.9,0.9,0.9,1.8,1.8,3.7l0,0c0,0.9,0,1.8,0.9,1.8
		c0,3.7-1.8,6.4-4.6,7.3c-2.7,0.9-5.5,0.9-8.2-0.9c-20.1-17.4-44.9-28.4-75.1-27.5c-8.2,0-11-11-3.7-14.7l0,0h0.9
		c1.8-1.8,2.7-4.6,4.6-6.4c0-0.9,0.9-0.9,0.9-1.8s0.9-0.9,0.9-1.8C361.1,145.6,341,131,324.5,93.4z M346.5,364.5
		c13.7-6.4,25.6-17.4,30.2-32.1c1.8-4.6,2.7-10.1,4.6-14.7c6.4-13.7,22.9-20.1,31.1-33.9c-10.1,13.7-27.5,20.1-44,19.2
		c-7.3,0-14.7-1.8-22-1.8s-14.7,0.9-21.1,5.5c-7.3,5.5-11,15.6-12.8,24.7c-4.6,19.2-7.3,26.6-25.6,41.2c0,0,22-1.8,30.2-2.7
		C327.2,370.9,337.3,368.1,346.5,364.5z M431.6,334.3c-0.9,3.7-7.3,3.7-8.2,6.4c-2.7,8.2-8.2,11-13.7,18.3
		c-3.7,4.6-2.7,23.8-9.2,34.8c-6.4,11-11.9,10.1-22,20.1c-3.7,3.7-7.3,7.3-11.9,7.3c-1.8,0-3.7,0-5.5,0.9s-3.7,1.8-4.6,3.7
		c-4.6,4.6-9.2,9.2-12.8,13.7c-2.7,2.7-5.5,5.5-8.2,6.4c-4.6,1.8-11,0.9-15.6,2.7c-1.8,0.9-4.6,1.8-6.4,2.7s-4.6,0-6.4-1.8
		c-2.7-3.7,2.7-11.9-1.8-13.7c-1.8-0.9-3.7,0-5.5,0.9c-3.7,1.8-6.4,5.5-7.3,10.1c-1.8,4.6-1.8,10.1-6.4,11.9c0-1.8-3.7-2.7-5.5-2.7
		c-1.8,0.9-3.7,2.7-4.6,4.6c-2.7,4.6-3.7,9.2-7.3,12.8c-1.8,1.8-3.7,2.7-4.6,2.7l0,0l0,0l0,0l0,0c-0.9,0-1.8,0-4.6-2.7
		c-3.7-3.7-4.6-8.2-7.3-12.8c-0.9-1.8-2.7-3.7-4.6-4.6c-1.8-0.9-4.6,0-5.5,2.7c-4.6-1.8-4.6-7.3-6.4-11.9c-0.9-3.7-3.7-7.3-7.3-10.1
		c-1.8-0.9-3.7-1.8-5.5-0.9c-4.6,2.7,1.8,10.1-1.8,13.7c-0.9,1.8-3.7,1.8-6.4,1.8c-1.8-0.9-4.6-1.8-6.4-2.7c-4.6-1.8-11,0-15.6-2.7
		c-3.7-0.9-6.4-3.7-8.2-6.4c-4.6-4.6-9.2-9.2-12.8-13.7c-1.8-1.8-2.7-2.7-4.6-3.7c-1.8-0.9-3.7,0-5.5-0.9c-4.6-0.9-8.2-4.6-11.9-7.3
		c-9.2-10.1-15.6-9.2-22-20.1c-6.4-11-5.5-30.2-9.2-34.8c-5.5-7.3-11-10.1-13.7-18.3c-0.9-2.7-8.2-3.7-8.2-6.4
		c-0.9-3.7-12.8-8.2-15.6-6.4c11,8.2,16.5,22,22,34.8c1.8,4.6,11.9,14.7,9.2,19.2c-0.9,1.8-2.7,2.7-4.6,4.6
		c-3.7,4.6-2.7,10.1-0.9,15.6c2.7,4.6,7.3,8.2,11.9,10.1c3.7,0.9,6.4,1.8,9.2,3.7c6.4,4.6,8.2,13.7,9.2,22
		c1.8,9.2,3.7,18.3,7.3,27.5c0,0.9,0.9,1.8,1.8,2.7c0.9,0,0.9,0,1.8,0c3.7,0,7.3-3.7,11-6.4c3.7-2.7,8.2-4.6,11-1.8
		c0.9,0.9,1.8,2.7,2.7,3.7c1.8,1.8,4.6,1.8,7.3,3.7c3.7,2.7,4.6,7.3,4.6,11.9c0,0.9,0,1.8,0,2.7l0,0c0,0,0,11.9,0.9,18.3
		s10.1,12.8,16.5,11.9c-2.7-7.3-3.7-15.6-1.8-22.9c0.9-2.7,1.8-4.6,3.7-6.4c1.8-1.8,6.4,0,6.4,2.7c1.8-3.7,7.3-5.5,11-3.7
		c4.6,1.8,6.4,7.3,11,9.2c1.8,0.9,3.7,0,6.4,0.9s5.5,3.7,7.3,6.4c1.8,2.7,2.7,4.6,5.5,6.4s5.5,2.7,10.1,1.8c4.6,0,7.3-0.9,10.1-1.8
		c2.7-1.8,3.7-3.7,5.5-6.4c1.8-2.7,3.7-5.5,7.3-6.4c1.8-0.9,3.7,0,6.4-0.9c4.6-1.8,6.4-6.4,11-9.2c3.7-1.8,9.2,0,11,3.7
		c0-2.7,3.7-3.7,6.4-2.7c1.8,0.9,2.7,3.7,3.7,6.4c1.8,7.3,0.9,15.6-1.8,22.9c7.3,0.9,15.6-5.5,16.5-11.9s0.9-18.3,0.9-18.3l0,0
		c0-0.9,0-1.8,0-2.7c0-4.6,0.9-9.2,4.6-11.9c1.8-1.8,4.6-1.8,7.3-3.7c0.9-0.9,1.8-2.7,2.7-3.7c3.7-2.7,8.2-0.9,11,1.8
		c3.7,2.7,6.4,5.5,11,6.4c0.9,0,1.8,0,1.8,0c0.9-0.9,1.8-1.8,1.8-2.7c3.7-9.2,6.4-18.3,7.3-27.5c0.9-8.2,2.7-17.4,9.2-22
		c2.7-1.8,6.4-2.7,9.2-3.7c4.6-1.8,10.1-5.5,11.9-10.1c2.7-4.6,2.7-11-0.9-15.6c-0.9-1.8-3.7-2.7-4.6-4.6
		c-2.7-4.6,7.3-14.7,9.2-19.2c6.4-12.8,11.9-26.6,22-34.8C444.4,326.9,432.5,331.5,431.6,334.3z M112.9,227.1
		c-0.9,0.9-0.9,1.8-1.8,3.7l0,0c0,0.9,0,1.8-0.9,1.8c0,3.7,1.8,6.4,4.6,7.3c2.7,0.9,5.5,0.9,8.2-0.9c20.1-17.4,44.9-28.4,75.1-27.5
		c8.2,0,11-11,3.7-14.7l0,0h-0.9c-1.8-1.8-2.7-4.6-4.6-6.4c0-0.9-0.9-0.9-0.9-1.8s-0.9-0.9-0.9-1.8c-24.7-41.2-5.5-54.9,11.9-92.5
		C231.1,36.6,158.7,3.7,149.6,0c-0.9,0-0.9,0-0.9,0s32.1,26.6,20.1,70.5c-11.9,44.9-48.5,37.5-60.4,84.3
		c-10.1,39.4,7.3,69.6,7.3,69.6S113.9,225.3,112.9,227.1z M204.5,307.7c-5.5-4.6-13.7-5.5-21.1-5.5c-7.3,0-14.7,0.9-22,1.8
		c-16.5,0-33.9-6.4-44-19.2c7.3,13.7,24.7,20.1,31.1,33.9c1.8,4.6,2.7,10.1,4.6,14.7c4.6,14.7,16.5,25.6,30.2,32.1
		c9.2,4.6,19.2,6.4,29.3,6.4c8.2,0,30.2,2.7,30.2,2.7c-18.3-14.7-21.1-22.9-25.6-41.2C215.5,322.3,211.8,313.2,204.5,307.7z"/>
	<path class="st1" d="M319,93.4C293.3,36.6,365.7,3.7,374.8,0c0.9,0,0.9,0,0.9,0s-32.1,26.6-20.1,70.5
		c11.9,44.9,48.5,37.5,60.4,84.3c10.1,39.4-7.3,69.6-7.3,69.6s0.9,0.9,2.7,2.7c0.9,0.9,0.9,1.8,1.8,3.7l0,0c0,0.9,0,1.8,0.9,1.8
		c0,3.7-1.8,6.4-4.6,7.3c-2.7,0.9-5.5,0.9-8.2-0.9c-20.1-17.4-44.9-28.4-75.1-27.5c-8.2,0-11-11-3.7-14.7l0,0h0.9
		c1.8-1.8,2.7-4.6,4.6-6.4c0-0.9,0.9-0.9,0.9-1.8s0.9-0.9,0.9-1.8C355.6,145.6,335.5,131,319,93.4z M341,364.5
		c13.7-6.4,25.6-17.4,30.2-32.1c1.8-4.6,2.7-10.1,4.6-14.7c6.4-13.7,22.9-20.1,31.1-33.9c-10.1,13.7-27.5,20.1-44,19.2
		c-7.3,0-14.7-1.8-22-1.8s-14.7,0.9-21.1,5.5c-7.3,5.5-11,15.6-12.8,24.7c-4.6,19.2-7.3,26.6-25.6,41.2c0,0,22-1.8,30.2-2.7
		C321.7,370.9,331.8,368.1,341,364.5z M426.1,334.3c-0.9,3.7-7.3,3.7-8.2,6.4c-2.7,8.2-8.2,11-13.7,18.3c-3.7,4.6-2.7,23.8-9.2,34.8
		c-6.4,11-11.9,10.1-22,20.1c-3.7,3.7-7.3,7.3-11.9,7.3c-1.8,0-3.7,0-5.5,0.9s-3.7,1.8-4.6,3.7c-4.6,4.6-9.2,9.2-12.8,13.7
		c-2.7,2.7-5.5,5.5-8.2,6.4c-4.6,1.8-11,0.9-15.6,2.7c-1.8,0.9-4.6,1.8-6.4,2.7s-4.6,0-6.4-1.8c-2.7-3.7,2.7-11.9-1.8-13.7
		c-1.8-0.9-3.7,0-5.5,0.9c-3.7,1.8-6.4,5.5-7.3,10.1c-1.8,4.6-1.8,10.1-6.4,11.9c0-1.8-3.7-2.7-5.5-2.7c-1.8,0.9-3.7,2.7-4.6,4.6
		c-2.7,4.6-3.7,9.2-7.3,12.8c-1.8,1.8-3.7,2.7-4.6,2.7l0,0l0,0l0,0l0,0c-0.9,0-1.8,0-4.6-2.7c-3.7-3.7-4.6-8.2-7.3-12.8
		c-0.9-1.8-2.7-3.7-4.6-4.6c-1.8-0.9-4.6,0-5.5,2.7c-4.6-1.8-4.6-7.3-6.4-11.9c-0.9-3.7-3.7-7.3-7.3-10.1c-1.8-0.9-3.7-1.8-5.5-0.9
		c-4.6,2.7,1.8,10.1-1.8,13.7c-0.9,1.8-3.7,1.8-6.4,1.8c-1.8-0.9-4.6-1.8-6.4-2.7c-4.6-1.8-11,0-15.6-2.7c-3.7-0.9-6.4-3.7-8.2-6.4
		c-4.6-4.6-9.2-9.2-12.8-13.7c-1.8-1.8-2.7-2.7-4.6-3.7c-1.8-0.9-3.7,0-5.5-0.9c-4.6-0.9-8.2-4.6-11.9-7.3
		c-9.2-10.1-15.6-9.2-22-20.1c-6.4-11-5.5-30.2-9.2-34.8c-5.5-7.3-11-10.1-13.7-18.3c-0.9-2.7-8.2-3.7-8.2-6.4
		c-0.9-3.7-12.8-8.2-15.6-6.4c11,8.2,16.5,22,22,34.8c1.8,4.6,11.9,14.7,9.2,19.2c-0.9,1.8-2.7,2.7-4.6,4.6
		c-3.7,4.6-2.7,10.1-0.9,15.6c2.7,4.6,7.3,8.2,11.9,10.1c3.7,0.9,6.4,1.8,9.2,3.7c6.4,4.6,8.2,13.7,9.2,22
		c1.8,9.2,3.7,18.3,7.3,27.5c0,0.9,0.9,1.8,1.8,2.7c0.9,0,0.9,0,1.8,0c3.7,0,7.3-3.7,11-6.4c3.7-2.7,8.2-4.6,11-1.8
		c0.9,0.9,1.8,2.7,2.7,3.7c1.8,1.8,4.6,1.8,7.3,3.7c3.7,2.7,4.6,7.3,4.6,11.9c0,0.9,0,1.8,0,2.7l0,0c0,0,0,11.9,0.9,18.3
		s10.1,12.8,16.5,11.9c-2.7-7.3-3.7-15.6-1.8-22.9c0.9-2.7,1.8-4.6,3.7-6.4c1.8-1.8,6.4,0,6.4,2.7c1.8-3.7,7.3-5.5,11-3.7
		c4.6,1.8,6.4,7.3,11,9.2c1.8,0.9,3.7,0,6.4,0.9s5.5,3.7,7.3,6.4c1.8,2.7,2.7,4.6,5.5,6.4c2.7,1.8,5.5,2.7,10.1,1.8
		c4.6,0,7.3-0.9,10.1-1.8c2.7-1.8,3.7-3.7,5.5-6.4c1.8-2.7,3.7-5.5,7.3-6.4c1.8-0.9,3.7,0,6.4-0.9c4.6-1.8,6.4-6.4,11-9.2
		c3.7-1.8,9.2,0,11,3.7c0-2.7,3.7-3.7,6.4-2.7c1.8,0.9,2.7,3.7,3.7,6.4c1.8,7.3,0.9,15.6-1.8,22.9c7.3,0.9,15.6-5.5,16.5-11.9
		s0.9-18.3,0.9-18.3l0,0c0-0.9,0-1.8,0-2.7c0-4.6,0.9-9.2,4.6-11.9c1.8-1.8,4.6-1.8,7.3-3.7c0.9-0.9,1.8-2.7,2.7-3.7
		c3.7-2.7,8.2-0.9,11,1.8c3.7,2.7,6.4,5.5,11,6.4c0.9,0,1.8,0,1.8,0c0.9-0.9,1.8-1.8,1.8-2.7c3.7-9.2,6.4-18.3,7.3-27.5
		c0.9-8.2,2.7-17.4,9.2-22c2.7-1.8,6.4-2.7,9.2-3.7c4.6-1.8,10.1-5.5,11.9-10.1c2.7-4.6,2.7-11-0.9-15.6c-0.9-1.8-3.7-2.7-4.6-4.6
		c-2.7-4.6,7.3-14.7,9.2-19.2c6.4-12.8,11.9-26.6,22-34.8C438.9,326.9,427,331.5,426.1,334.3z M107.4,227.1
		c-0.9,0.9-0.9,1.8-1.8,3.7l0,0c0,0.9,0,1.8-0.9,1.8c0,3.7,1.8,6.4,4.6,7.3c2.7,0.9,5.5,0.9,8.2-0.9c20.1-17.4,44.9-28.4,75.1-27.5
		c8.2,0,11-11,3.7-14.7l0,0h-0.9c-1.8-1.8-2.7-4.6-4.6-6.4c0-0.9-0.9-0.9-0.9-1.8s-0.9-0.9-0.9-1.8c-24.7-41.2-5.5-54.9,11.9-92.5
		C225.6,36.6,153.2,3.7,144.1,0c-0.9,0-0.9,0-0.9,0s32.1,26.6,20.1,70.5c-11.9,44.9-48.5,37.5-60.4,84.3
		c-10.1,39.4,7.3,69.6,7.3,69.6S108.4,225.3,107.4,227.1z M199,307.7c-5.5-4.6-13.7-5.5-21.1-5.5s-14.7,0.9-22,1.8
		c-16.5,0-33.9-6.4-44-19.2c7.3,13.7,24.7,20.1,31.1,33.9c1.8,4.6,2.7,10.1,4.6,14.7c4.6,14.7,16.5,25.6,30.2,32.1
		c9.2,4.6,19.2,6.4,29.3,6.4c8.2,0,30.2,2.7,30.2,2.7c-18.3-14.7-21.1-22.9-25.6-41.2C210,322.3,206.3,313.2,199,307.7z"/>
</g>
</svg>
