<?xml version="1.0" encoding="utf-8"?>
<!-- Generator: Adobe Illustrator 28.0.0, SVG Export Plug-In . SVG Version: 6.00 Build 0)  -->
<svg version="1.1" id="Capa_1" xmlns="http://www.w3.org/2000/svg" xmlns:xlink="http://www.w3.org/1999/xlink" x="0px" y="0px"
	 viewBox="0 0 1000 1000" style="enable-background:new 0 0 1000 1000;" xml:space="preserve">
<style type="text/css">
	.st0{fill:#FFFFFF;}
	.st1{fill:#E30C0A;}
</style>
<circle class="st0" cx="500" cy="500" r="409.8"/>
<g>
	<path class="st1" d="M768,160.5C714.6,118,650.8,88.1,581.2,74.7c-10.5-2-21.2-3.6-32.1-4.9c-16.3-1.9-32.8-2.8-49.8-2.8
		c-54.9,0-107.4,10.3-155.5,28.9C182,158.6,67.7,315.8,67.7,500c0,184.1,114.2,341.5,276,404.2c48.1,18.6,100.6,28.8,155.5,28.8
		c17,0,33.5-1,49.8-2.8c10.9-1.3,21.6-2.8,32.1-5c69.7-13.2,133.5-43.4,186.8-85.8c46.2-36.6,84.7-82.4,112.8-134.5
		c32.8-61.1,51.5-130.9,51.5-205.1S913.5,356,880.8,295C852.7,242.8,814.2,197.1,768,160.5 M810.6,745
		c-12.8,16.7-27.2,32.3-42.6,46.7c-51.4,47.9-115.6,82-186.8,96.9c-10.5,2.1-21.2,3.9-32.1,5.2c-16.1,2.2-32.8,3.2-49.8,3.2
		c-55.2,0-107.7-11.6-155.5-32C235,818.2,151.4,724.2,118.9,608.2c-1.6-6,1.5-12,7.5-13.4c6-1.5,12.1,1.5,13.4,7.6
		c29.5,106.7,105.1,194.2,203.9,239.7c47.3,21.8,100,33.9,155.5,33.9c17,0,33.7-1.1,49.8-3.4c10.9-1.4,21.6-3.2,32.1-5.6
		c61.2-13.7,116.5-42.3,161.7-81.2c-13.4,4.5-28.5,6-43.5,6c-60.2,0-90.3-33.2-90.3-99.2V438.3h-28h-17.2v-16.4H581h28V315.1
		l118.8,1.4v105.3h40.1h29v16.4h-29h-40.1v242.1c0,21,1.6,34.7,3,42c4.6,16.5,15,24,30.1,24c2.7,0,5,0,7.1-0.3
		c7.2-0.5,13-2.2,20.2-5.7c1.4-3,4.4-6.1,5.8-7.4c4.7-6.2,10.5-6.2,15.1-3.1C813.6,734.6,815,740.5,810.6,745 M894.7,501.4
		c0,6.1-4.4,10.7-10.5,10.7c-1.1,0-2.3-0.2-3.4-0.5c-4.3-1.5-7.2-5.3-7.2-10.2c0-100.9-40-192.5-105.7-259.7
		c-49.8-51.3-114.3-88.2-186.8-104.1c-10.5-2.5-21.2-4.3-32.1-5.7c-16.1-2.2-32.8-3.3-49.8-3.3c-54.7,0-107.7,11.7-155.5,33
		c-16.5,7.4-32.3,16-47.4,25.6c14.3-2,30.2-4.1,47.4-5.1c7.9-0.6,16.2-1,24.7-1c84.3,0,132.3,21.1,144.3,60.3
		c4.6,13.5,6.1,30.2,6.1,51.1v187.9c0,27,6,40.5,16.4,40.5c4.9,0,9.5-0.6,13.6-2.3c7.6-2.5,14.3-7.6,21-14.1l11.1,9.7l0.8,0.8
		l-0.8,1c-9.9,10.9-20.4,20-31.9,27.1c-21.1,13.1-44.6,20-70.7,20c-16.5,0-33.2-6.1-48.2-18c-15-12-25.4-25.5-30-40.5
		c-16.9,19.1-35.6,33.6-56.4,43.3c-21.9,10.1-46.1,15.2-73,15.2c-30.1,0-57.1-9-79.7-25.5c-22.5-18-34.5-42.1-34.5-72.3
		c0-49.5,30.1-82.6,91.7-100.7c23.9-7.3,56.1-11.7,95.5-13.7c17.3-0.9,36.1-1.3,56.4-1.3v-64.5c0-27.2-4.7-48-10.6-60.2
		c-7.2-17.1-23.7-26.2-45.8-27H340c-25.7,0-43.6,3-54.2,9.1c-10.6,5.9-15.1,12-15.1,17.9c0,6.1,4.6,15.1,16.6,25.6
		c10.6,10.6,16.4,22.5,16.4,36.1c0,15-6,27.1-16.4,36.2c-10.6,10.5-22.6,14.9-37.6,14.9c-16.5,0-30-5.9-42-16.3
		c-12.1-10.6-18-22.6-18-39.1c0-12.1,3-24.2,10.5-36.2c6-10.5,14.9-17.9,24-27.1l1.4-1.4c34.1-33.3,74.1-60.4,118.2-79.4
		c47.4-20.6,100.1-31.9,155.5-31.9c17,0,33.7,1.1,49.8,3.1c10.9,1.3,21.6,3.1,32.1,5.4c71.3,14.9,135.6,49,186.8,96.6
		c53.5,49.5,93,113.6,112.8,185.8C889.9,430.3,894.7,465.3,894.7,501.4"/>
	<path class="st1" d="M291.9,427.9c-3.1,12.1-4.6,21-4.6,28.5c0,21.1,3,36.2,7.6,45c7.5,12.2,19.5,19.5,39,19.5
		c3.2,0,6.7-0.1,9.9-0.8c17.8-3,36.1-14.4,56.4-32.2V364.6c-22.3,0-41,2.8-56.4,8.2C316.3,382.6,299.6,400.9,291.9,427.9"/>
</g>
</svg>
