<?xml version="1.0" encoding="utf-8"?>
<!-- Generator: Adobe Illustrator 28.0.0, SVG Export Plug-In . SVG Version: 6.00 Build 0)  -->
<svg version="1.1" id="Capa_1" xmlns="http://www.w3.org/2000/svg" xmlns:xlink="http://www.w3.org/1999/xlink" x="0px" y="0px"
	 viewBox="0 0 451 512" style="enable-background:new 0 0 451 512;" xml:space="preserve">
<style type="text/css">
	.st0{fill:#5B5C60;}
	.st1{fill:#A7A8AB;}
	.st2{fill:#B4B5B7;}
	.st3{fill:#AFB0B2;}
	.st4{fill:#ACADAF;}
	.st5{fill:#8E8D8D;}
	.st6{fill:#959393;}
	.st7{fill:#646569;}
	.st8{fill:#5F6064;}
	.st9{fill:#A3A4A7;}
	.st10{fill:#696A6E;}
	.st11{fill:#A1A0A1;}
	.st12{fill:#88898D;}
	.st13{fill:#858689;}
	.st14{fill:#999898;}
	.st15{fill:#9D9C9C;}
	.st16{fill:#A8A9AC;}
	.st17{fill:#95969A;}
	.st18{fill:#A9A8A9;}
	.st19{fill:#8D8E91;}
	.st20{fill:#A0A1A4;}
	.st21{fill:#8A8989;}
	.st22{fill:#868484;}
	.st23{fill:#A5A4A5;}
	.st24{fill:#999A9D;}
	.st25{fill:#85868A;}
	.st26{fill:#B1B2B4;}
	.st27{fill:#8F9093;}
	.st28{fill:#9C9DA0;}
	.st29{fill:#8A8B8F;}
	.st30{fill:#CFCFCF;}
	.st31{fill:#909194;}
	.st32{fill:#AFAEAE;}
	.st33{fill:#9FA0A3;}
	.st34{fill:#828080;}
	.st35{fill:#A5A6A8;}
	.st36{fill:#ABACAF;}
	.st37{fill:#9E9FA2;}
	.st38{fill:#939497;}
	.st39{fill:#9B9C9F;}
	.st40{fill:#A8A9AB;}
	.st41{fill:#949598;}
	.st42{fill:#A2A3A5;}
	.st43{fill:#B0B1B3;}
	.st44{fill:#B8B7B7;}
	.st45{fill:#737478;}
	.st46{fill:#B2B2B2;}
	.st47{fill:#9D9EA1;}
	.st48{fill:#98999C;}
	.st49{fill:#929396;}
	.st50{fill:#8A8B8E;}
	.st51{fill:#A7A8AA;}
	.st52{fill:#B1B1B3;}
	.st53{fill:#B8B8B9;}
	.st54{fill:#C0C0C1;}
	.st55{fill:#A3A4A6;}
	.st56{fill:#78797C;}
	.st57{fill:#939498;}
	.st58{fill:#959699;}
	.st59{fill:#97989B;}
	.st60{fill:#C9C9C9;}
	.st61{fill:#919295;}
	.st62{fill:#9E9FA1;}
	.st63{fill:#A6A7AA;}
	.st64{fill:#797777;}
	.st65{fill:#6E6F72;}
	.st66{fill:#898A8E;}
	.st67{fill:#7D7B7C;}
	.st68{fill:#C1C1C1;}
	.st69{fill:#ABACAE;}
	.st70{fill:#8D8E92;}
	.st71{fill:#7D7E81;}
	.st72{fill:#8E8F91;}
	.st73{fill:#828386;}
	.st74{fill:#ABABAE;}
	.st75{fill:#A3A3A6;}
	.st76{fill:#9B9C9E;}
	.st77{fill:#AFB0B1;}
	.st78{fill:#8E8F92;}
	.st79{fill:#CACACA;}
	.st80{fill:#B4B5B6;}
	.st81{fill:#6D6E72;}
	.st82{fill:#BDBCBD;}
	.st83{fill:#C8C8C9;}
	.st84{fill:#C5C5C6;}
	.st85{fill:#C5C5C5;}
	.st86{fill:#A7A7A9;}
	.st87{fill:#BCBCBD;}
	.st88{fill:#8E8F93;}
	.st89{fill:#76777A;}
	.st90{fill:#A2A3A6;}
	.st91{fill:#B8B9BA;}
	.st92{fill:#727376;}
	.st93{fill:#818286;}
	.st94{fill:#CCCCCC;}
	.st95{fill:#797A7E;}
	.st96{fill:#747578;}
	.st97{fill:#BCBCBE;}
	.st98{fill:#BDBDBD;}
	.st99{fill:#8B8C8F;}
	.st100{fill:#C4C3C3;}
	.st101{fill:#818285;}
	.st102{fill:#7C7D80;}
	.st103{fill:#696A6D;}
	.st104{fill:#6F7073;}
	.st105{fill:#B8B7B8;}
	.st106{fill:#C2C2C3;}
	.st107{fill:#8B8C90;}
	.st108{fill:#9A9B9E;}
	.st109{fill:#656669;}
	.st110{fill:#B4B4B6;}
	.st111{fill:#BBBCBD;}
	.st112{fill:#C7C7C7;}
	.st113{fill:#AEADAD;}
	.st114{fill:#A9A9AB;}
	.st115{fill:#BFBEBE;}
	.st116{fill:#ADAEB0;}
	.st117{fill:#CACACB;}
	.st118{fill:#A4A3A4;}
	.st119{fill:#B9B9B9;}
	.st120{fill:#898888;}
	.st121{fill:#9E9D9D;}
	.st122{fill:#979696;}
	.st123{fill:#A8A7A7;}
	.st124{fill:#D6D6D6;}
	.st125{fill:#020202;}
	.st126{fill:#010101;}
	.st127{fill:#070707;}
</style>
<g>
	<path class="st0" d="M154.5,342.2c-6.2-4-10.9-9.8-16.3-14.7c-14.5-13.4-28.6-27.1-42.9-40.7c-25.1-23.8-50.1-47.7-75.2-71.5
		c-2.3-2.2-5-3.8-6.6-6.7c-2-3.7-0.8-6.1,3.3-6.6c5.1-0.6,10.2-0.2,15.3,0.4c2.2,1.1,3.4,3.2,5.1,4.9
		C74.6,244.6,112,282,149.3,319.5c2,2,5.4,3.1,5.6,6.7C154.6,331.5,155.3,336.9,154.5,342.2z"/>
	<path class="st1" d="M182.1,185.5c-4.5,0-8.9,0-13.4,0c-1.7-1.2-3.1-2.8-4.6-4.3c-22.6-22.7-45.3-45.3-67.9-68
		c-1.5-1.5-4.1-2.9-2.6-5.9c2.1-1.8,4.2-3.7,6.3-5.5c1.7,0.3,2.6,1.7,3.7,2.8c25.2,25.3,50.5,50.5,75.7,75.8
		C180.7,181.8,183.1,182.8,182.1,185.5z"/>
	<path class="st2" d="M144.2,185.5c-5.3,0-10.5,0-15.8,0c-1-0.5-2.1-1.1-2.9-1.9C107,165,88.3,146.6,70,127.9
		c3.2-2.9,6.4-5.7,9.5-8.6c3.8,3.3,7.1,7,10.6,10.5c17.1,17.1,34.2,34.2,51.2,51.3C142.6,182.3,144.5,183.3,144.2,185.5z"/>
	<path class="st3" d="M144.2,185.5c-4.4-4.5-8.8-9.1-13.2-13.5c-16.3-16.3-32.6-32.6-48.8-48.9c-1.1-1.1-2.6-1.9-2.6-3.8
		c2.3-2,4.2-4.4,7-5.8c1.7,0.4,2.6,1.8,3.7,2.9c21.1,21.1,42.2,42.2,63.2,63.3c1.6,1.6,3.9,2.9,3.4,5.8
		C152.6,185.5,148.4,185.5,144.2,185.5z"/>
	<path class="st4" d="M156.8,185.5c-0.8-1.9-2.1-3.3-3.5-4.7c-21.2-21.2-42.5-42.5-63.7-63.8c-1.1-1.1-2.1-2.4-3.1-3.5
		c2.1-2.4,4.5-4.5,7.2-6.2c-0.3,2.4,1.5,3.5,2.9,4.9c23.1,23.1,46.1,46.2,69.2,69.3c1.2,1.2,2.8,2.1,3,4
		C164.7,185.5,160.8,185.5,156.8,185.5z"/>
	<path class="st5" d="M253.2,12.6c4.3,6.5,10.8,10.8,15.9,16.5c3.3,4.2,7.5,7.7,11.2,11.5c47.2,46.9,94,94.1,141,141.1
		c1.1,1.1,2.6,1.9,2.3,3.9c-1.6,0-3.2,0-4.7,0c-1.8-0.7-3.1-2-4.4-3.3C357.8,125.3,301,68.5,244.2,11.6c-1.5-1.5-3.8-2.7-2.9-5.5
		c0.1-1.2,0.7-2.2,1.6-3C247.2,5.3,249.6,9.6,253.2,12.6z"/>
	<path class="st6" d="M241.3,6.1c0.1,2.1,1.9,3.1,3.1,4.4C301.5,67.7,358.6,124.9,415.7,182c1.1,1.1,2.1,2.3,3.2,3.5
		c-1.6,0-3.2,0-4.7,0c-1.8-0.7-3.1-2-4.4-3.3C354,126.3,298.2,70.5,242.4,14.6c-1.1-1.1-2.5-2-2.8-3.7
		C239.7,9.1,240.2,7.5,241.3,6.1z"/>
	<path class="st7" d="M34.5,202.4c3.9,0.2,7.9,0.5,11.8,0.7c1.5,1.2,2.9,2.7,4.3,4.1c33.1,33.1,66.2,66.2,99.2,99.3
		c1.7,1.7,4,3,5.1,5.4c0,2,0,3.9,0,5.9c-1,1.9-2.2,0.6-3.2,0c-1.4-0.8-2.4-2.1-3.5-3.2C113.1,279.5,78,244.4,43,209.2
		C40.4,206.6,37.5,204.5,34.5,202.4z"/>
	<path class="st2" d="M209.1,249.6c2.3,4.7,2.2,9.8,2.2,14.8c0,4,0,8-0.1,12.1c-2.3-0.7-1.5-2.6-1.7-4.1c0.6-3.3-0.7-5.5-3.1-7.9
		c-17.5-17.3-34.8-34.7-52.2-52.1c-1.2-1.2-3.3-2.2-2.1-4.5c6.4,0.3,12.9,0,19,2.3c-0.1,1.5,0.9,2.4,1.8,3.4
		C185,225.5,197,237.6,209.1,249.6z"/>
	<path class="st8" d="M34.5,202.4c3.7,0.2,5.7,2.8,8.1,5.2c35.8,35.9,71.6,71.8,107.4,107.6c1.3,1.3,2.7,2.5,4.4,3.3
		c0.7,2.1,0.7,4.2,0,6.3c-1.7-0.8-3.1-2-4.4-3.3C111.8,283.2,73.6,245,35.4,206.7c-1.3-1.3-2.5-2.7-3.3-4.4
		C32.9,202.4,33.7,202.4,34.5,202.4z"/>
	<path class="st9" d="M182.1,185.5c-0.2-1.9-1.8-2.8-3-4c-25.3-25.4-50.7-50.8-76-76.2c-1.1-1.1-2.1-2.3-3.1-3.5
		c0.9-1.6,2.4-2.4,3.9-3.2c8.7,8.7,17.5,17.2,26,26.2c-0.6,6.1,6.6,12.3,12.4,13.7c9.9,2.4,19.9,1.1,29.8,1.5
		c1.5,0.1,3.2-0.5,4.6,0.6c-1.6,1.6-3.6,1.1-5.4,1.2c-3.1,0.1-6.2,0-9.3-0.1c-3-0.1-6-0.3-9.1,0.1c0.3,1.8,1.6,2.5,2.6,3.5
		c11.5,11.6,23.1,23.2,34.7,34.8c1.5,1.5,3.6,2.8,3.1,5.5C189.5,185.5,185.8,185.5,182.1,185.5z"/>
	<path class="st10" d="M154.4,311.3c-1.6-0.1-2.5-1.4-3.5-2.4c-34.1-34.1-68.2-68.2-102.3-102.4c-1-1-2.3-1.8-2.4-3.5
		c2.1,0,4.2,0,6.3,0.1c1.5,0.6,2.7,1.6,3.8,2.7c8.3,8.3,16.6,16.7,25,25c1.1,1.1,2.1,2.3,2.8,3.8c5.1,5.4,11.2,9.8,15.9,15.5
		c17.7,17.8,35.2,35.7,53.1,53.2C155.7,305.9,155,308.5,154.4,311.3z"/>
	<path class="st11" d="M407.9,185.5c-1.3,0-2.6,0-4,0c-1.8-0.7-3-2-4.4-3.3C353.8,136.4,308,90.5,262.2,44.7c-4-4-7.6-8.3-11.6-12.3
		c-4.2-5-9.6-9.1-11.4-15.8c1.9-0.3,2.8,1.2,3.9,2.3c54.2,54.2,108.4,108.5,162.6,162.8C406.7,182.7,408.2,183.6,407.9,185.5z"/>
	<path class="st12" d="M275.2,185.5c-4.5,0-8.9,0-13.4,0c-6.3-5.6-12-11.8-18-17.7c-7.8-7.7-15.5-15.4-23.1-23.2c-1-1-4-2.4-0.7-4.4
		c3.8,0,7.6,0,11.4,0c1-0.1,1.7,0.6,2.3,1.2c12.6,13,25.6,25.6,38.3,38.5C273.6,181.5,275.8,182.8,275.2,185.5z"/>
	<path class="st2" d="M239.9,297.1c0-4.2,0-8.4,0-12.7c2.5-0.6,3.8,1.4,5.2,2.8c9.5,9.4,18.9,18.9,28.4,28.4c1,1,1.8,2.2,3.5,3
		c0.9-3.4,0.3-6.7,0.3-10c-0.1-3.9-0.1-7.8-0.1-11.7c0-4.9-0.2-9.8,0-14.6c0.2-4.4-0.7-8.8,0.6-13.1c0.3-0.5,0.7-0.7,1.2-0.5
		c0,18.6,0,37.1,0,55.7c0,9.6,0.1,19.2,0.1,28.8c0,1.9,0.6,4-0.7,5.7c-0.4-0.3-0.6-0.7-0.8-1.1c-0.5-1.8-0.3-3.6-0.4-5.4
		c0.1-2-0.1-4,0-6c0.1-1.9,0-3.8,0.1-5.7c0.6-3.4-0.6-5.8-3.2-8.3c-10.7-10.3-21-20.9-31.6-31.4
		C241.5,299.8,240.5,298.6,239.9,297.1z"/>
	<path class="st13" d="M275.2,185.5c-0.8-1.9-2.2-3.2-3.6-4.6c-12.2-12.1-24.3-24.3-36.4-36.5c-1.1-1.1-2.6-1.9-2.6-3.7
		c3.1-1.1,6.3,0.1,9.4-0.7c0.5,0,1.1,0,1.6,0c1.6,0.6,2.9,1.8,4.1,3c12.8,12.8,25.6,25.6,38.3,38.4c1.1,1.1,2.8,2.1,2.6,4.1
		C284.2,185.5,279.7,185.5,275.2,185.5z"/>
	<path class="st0" d="M211.2,381.6c-0.7,6.5-5.2,9.3-9.8,5.3c-9.8-8.5-19-17.7-28.4-26.6c-0.3-0.3-0.4-1-0.5-1.4
		c-0.6-4.3-0.1-8.7-0.3-13c-0.1-1.5,0.6-1.9,1.9-1.4c1.5,0.5,2.6,1.7,3.8,2.8c10.2,10.2,20.4,20.4,30.6,30.6
		C209.6,378.9,210.6,380.1,211.2,381.6z"/>
	<path class="st14" d="M239.6,10.9c1,0.9,2,1.7,3,2.6C299,69.9,355.4,126.4,411.8,182.9c0.8,0.8,1.6,1.8,2.4,2.6c-1.1,0-2.1,0-3.2,0
		c-1.6-0.6-2.9-1.8-4.1-3C352.1,127.6,297.2,72.6,242.4,17.7C240.5,15.8,238.5,14,239.6,10.9L239.6,10.9z"/>
	<path class="st15" d="M239.7,10.9c-0.4,2.8,1.5,4.3,3.2,6c55,55.1,110,110.1,165,165.2c1.1,1.1,2.1,2.3,3.2,3.5c-1.1,0-2.1,0-3.2,0
		c-0.7-0.8-1.3-1.6-2.1-2.4C351,128.3,296.2,73.5,241.5,18.6c-0.7-0.7-1.6-1.4-2.3-2.1C239,14.6,238.5,12.7,239.7,10.9z"/>
	<path class="st16" d="M278.3,282c0,5,0,10,0,15c-2.1,0.4-3-1.3-4.1-2.5c-9.5-9.4-18.9-18.8-28.3-28.3c-1.9-1.9-4.6-3.1-5.8-5.8
		c0-0.8-0.2-1.5,0.3-2.2c-0.1-3.9,0.5-7.6,2.3-11.1c0.8,0.1,1.4,0.6,2,1.2C256,259.5,267.4,270.6,278.3,282z"/>
	<path class="st17" d="M242.1,140c-3.1,1.3-6.3,0.3-9.4,0.7c-4.5,0-8.9,0-13.4,0c-3.4,2.1-7.1,0.9-10.7,1.1c-2.7,0.1-5.3,0-8,0
		c-2.7-0.3-5.6,0.3-8.3-0.6c5.9,6,12.1,12.1,18.2,18.2c7,7,14,13.9,20.9,21c1.4,1.4,3.4,2.7,2.8,5.2c-3.4,0-6.8,0-10.2,0
		c-7.4-6.8-14.3-14.2-21.5-21.3c-6.2-6.2-12.5-12.4-18.6-18.7c-1.3-1.3-3.1-2.6-2.5-4.9C201.6,139.5,221.8,140,242.1,140z"/>
	<path class="st18" d="M400.8,185.5c-1.3,0-2.6,0-3.9,0c-1.8-0.7-3-2-4.4-3.3c-30-30.1-60-60.1-90-90.2c-2.5-2.5-4.8-5.2-7.5-7.5
		c-8.3-9.4-16.8-18.5-24.3-28.5c1.1-0.8,2-0.1,2.8,0.5c1,0.8,1.9,1.8,2.9,2.7c40.4,40.4,80.8,80.8,121.1,121.3
		C398.8,182,400.9,183,400.8,185.5z"/>
	<path class="st19" d="M208.2,140.7c3.7,0,7.4,0,11-0.1c0,1.8,1.5,2.7,2.6,3.8c12.4,12.5,24.9,24.9,37.3,37.4
		c1.1,1.1,2.6,1.9,2.7,3.7c-3.7,0-7.4,0-11.1,0c-7.2-6.5-13.8-13.7-20.7-20.5c-6.6-6.6-13.2-13.2-19.8-19.8
		C209.2,144,207,143.1,208.2,140.7z"/>
	<path class="st20" d="M193.1,185.5c-0.8-1.9-2.2-3.3-3.6-4.7c-12.3-12.2-24.5-24.5-36.7-36.8c-0.8-0.8-2.3-1.5-1.9-2.7
		c0.5-1.4,2.1-0.7,3.2-0.7c2.2-0.1,4.5,0,6.7,0c1.3,0.7,2.5,1.5,3.5,2.5c12.5,12.6,25.1,25.1,37.6,37.7c1.2,1.3,2.9,2.5,2.3,4.7
		C200.5,185.5,196.8,185.5,193.1,185.5z"/>
	<path class="st21" d="M423.7,185.5c-1.1-1.2-2.1-2.4-3.2-3.5C370.7,132.2,321,82.4,271.3,32.6c-0.9-0.9-3-1.3-2.1-3.5
		c10.8,9.7,21.5,19.4,32.3,29.2c1.2,2.4,3.4,4,5.3,5.8c39.9,38.7,78.7,78.6,118.2,117.8c1,1,2.3,1.8,2,3.6
		C425.8,185.5,424.7,185.5,423.7,185.5z"/>
	<path class="st22" d="M426.8,185.5c-1.1-1.2-2.1-2.4-3.2-3.5c-39.7-39.8-79.5-79.6-119.2-119.4c-1.2-1.2-3.1-2.2-3-4.4
		c9.6,8.8,20,16.6,29.3,25.7c1,1,2.2,1.8,3.3,2.7c0.7,2.3,2.7,3.5,4.2,5c30.7,29.6,60.3,60.2,90.6,90.2c1,1,2.3,1.8,2,3.6
		C429.5,185.5,428.1,185.5,426.8,185.5z"/>
	<path class="st9" d="M278.3,282c-1.2,0-1.9-0.8-2.6-1.5c-10.6-10.6-21.2-21.2-31.7-31.8c-0.5-0.5-0.8-1-1.2-1.6
		c0.8-3.7,2.6-7,4.8-10.1c9.1,8.7,17.9,17.8,26.8,26.8c1.5,1.5,4.1,2.1,4,4.9C278.4,273.1,278.4,277.6,278.3,282z"/>
	<path class="st23" d="M400.8,185.5c-0.9-1-1.7-2-2.6-2.9C357,141.4,315.8,100.2,274.6,59c-1.2-1.2-2.1-2.8-4-3
		c-7.1-7.5-13.6-15.5-20-23.6c1.3,0.2,2,1.3,2.8,2.1C303,84.2,352.7,134,402.4,183.7c0.6,0.6,1,1.2,1.5,1.8
		C402.9,185.5,401.8,185.5,400.8,185.5z"/>
	<path class="st24" d="M181.3,140.6c0.7,1.9,2.1,3.3,3.5,4.7c12.2,12.1,24.3,24.3,36.4,36.5c1.1,1.1,2.6,1.9,2.7,3.7
		c-3.4,0-6.8,0-10.3,0c-7.6-7-14.7-14.6-22.1-21.8c-6.1-6-12.1-12-18-18.1c-1.3-1.3-3.2-2.5-2.5-4.9c1.9,0,3.7-0.1,5.6-0.1
		C178.2,140.6,179.8,140.6,181.3,140.6z"/>
	<path class="st25" d="M295.8,207.9c2.8-0.1,5.7-0.1,8.5-0.2c4.7-1.1,8.5-0.2,11.9,3.6c6,6.6,12.6,12.7,18.8,19.1
		c1.1,1.2,2.8,2.1,2.5,4.2c-5.2,1-10.5,1.4-15.8,1.6c-8.1-7.8-16-15.8-23.9-23.9C296.8,211.2,295.5,209.9,295.8,207.9z"/>
	<path class="st26" d="M240.5,258.2c0,0.8,0.1,1.7,0.1,2.5c1.5,2.6,0.9,5.4,0.9,8.1c-0.1,2.7,0.8,4.6,2.7,6.6
		c11.5,11.4,23,22.6,34.2,34.3c0,2.2,0.1,4.5,0,6.7c-0.1,1.3,0.9,3.3-0.8,3.9c-1.3,0.5-2.1-1.3-3-2.2
		c-10.1-10.1-20.3-20.2-30.4-30.4c-1.3-1.3-2.6-2.5-4.4-3.3c0-8,0-16,0-24C239.9,259.7,240.3,259,240.5,258.2z"/>
	<path class="st27" d="M309.2,237.7c-4.1,0.5-7.9,2.1-11.8,3.4c-1.4-0.3-2.2-1.3-3.1-2.3c-6.3-6.3-12.7-12.6-18.9-18.9
		c-1.6-1.6-3.6-3.1-3.3-5.8c3.3-2.4,7.2-3.6,11.1-4.5c8.4,7.9,16.4,16.2,24.5,24.4C308.7,234.9,309.7,236,309.2,237.7z"/>
	<path class="st28" d="M171.1,140.7c0.7,1.9,2.1,3.3,3.5,4.7c12.1,12.1,24.3,24.3,36.4,36.4c1.1,1.1,2.6,1.9,2.7,3.7
		c-3.2,0-6.3,0-9.5,0c-0.8-1.9-2.1-3.2-3.5-4.6c-12.3-12.3-24.6-24.6-36.9-37c-1-1-1.9-2.1-2.9-3.2
		C164.3,140.7,167.7,140.7,171.1,140.7z"/>
	<path class="st29" d="M309.2,237.7c-0.7-1.7-2-3.1-3.3-4.4c-6.8-6.8-13.6-13.6-20.3-20.4c-1-1-2.3-1.8-2.4-3.5
		c4.1-1.2,8.4-1.6,12.7-1.5c6.8,9.1,15.7,16.2,23.4,24.5c1,1.1,2.6,1.9,2.6,3.8C317.7,237.2,313.4,237.4,309.2,237.7z"/>
	<path class="st30" d="M369.2,185.6c-2.6,0-5.3,0-7.9,0c-1.4-0.7-2.6-1.6-3.8-2.8c-14.1-14.1-28.2-28.2-42.2-42.3
		c-1-1-2.7-1.9-2.2-3.8c1.6-1.3,3.2-2.6,4.7-3.9c16.8,16.5,33.3,33.2,49.9,49.9C368.6,183.3,369.6,184.2,369.2,185.6z"/>
	<path class="st31" d="M208.2,140.7c0.1,1.8,1.6,2.7,2.7,3.7c12.4,12.5,24.9,24.9,37.3,37.4c1.1,1.1,2.6,1.9,2.7,3.7
		c-2.9,0-5.8,0-8.7,0c-7.2-6.5-13.8-13.7-20.7-20.5c-6.6-6.6-13.2-13.2-19.8-19.8c-1.1-1.2-3.3-2.1-2.1-4.5
		C202.4,140.7,205.3,140.7,208.2,140.7z"/>
	<path class="st32" d="M294.9,84.5c1.5-0.1,2.3,1,3.2,1.9c32.5,32.5,65,65,97.4,97.5c0.5,0.5,0.8,1,1.2,1.5c-1.3,0-2.6,0-4,0
		c-1.8-0.7-3-2-4.3-3.3c-22.4-22.4-44.7-44.8-67.1-67.1c-2.7-2.7-5-5.8-7.7-8.4C307.1,99.6,300.6,92.4,294.9,84.5z"/>
	<path class="st4" d="M63.5,133.4c1.3-1.7,3-3,4.8-4c1.5,0.3,2.4,1.6,3.4,2.6c16.3,16.2,32.5,32.5,48.7,48.8
		c1.3,1.3,3.4,2.3,2.4,4.8c-2.1,0-4.2,0-6.3,0c-1.1-0.5-2.1-1.1-2.9-1.9C96.9,166.9,80.2,150.2,63.5,133.4z"/>
	<path class="st33" d="M278.4,268.6c-9.4-9.3-18.8-18.6-28.2-27.9c-1.1-1.1-2.6-1.9-2.6-3.8c1.2-2.4,2.5-4.6,4.5-6.4
		c1.4-0.6,2.2,0.4,3,1.2c8.8,8.8,17.8,17.5,26.3,26.5c-0.8,3.4-1.6,6.8-2.4,10.2C278.9,268.6,278.6,268.6,278.4,268.6z"/>
	<path class="st34" d="M430.8,185.5c-1.1-1.2-2.1-2.4-3.2-3.5c-30.6-30.6-61.2-61.2-91.7-91.9c-0.8-0.8-3.2-1.2-2-3.4
		c8.4,7.2,16.9,14.3,25.3,21.5c1.1,0.9,2,2,3.1,3c1,2.5,3.3,4,5.1,5.8c21.9,20.8,42.7,42.6,64.2,63.8c1.3,1.2,2.9,2.5,2.3,4.7
		C432.9,185.5,431.8,185.5,430.8,185.5z"/>
	<path class="st35" d="M211.2,282.1c0,1.6,0,3.2,0,4.7c-2.4,1.1-3.3-1-4.5-2.2c-8.4-8.3-16.8-16.7-25.1-25.1
		c-16.4-16.5-33-32.9-49.3-49.5c-1.4-1.4-2.9-2.2-4.8-2.1c-0.9-0.2-2.1-0.2-2.1-1.6c3.7-0.4,7.4,0.2,11,0.7
		c6.5,6.1,12.7,12.6,19,18.9c17.8,17.7,35.5,35.5,53.2,53.2C209.5,280.1,210.4,281,211.2,282.1z"/>
	<path class="st36" d="M210.5,271.8c0.2,1.6-0.6,3.3,0.7,4.7c0,0.5,0,1.1,0,1.6c-1.9,0.3-2.8-1.2-3.9-2.3
		c-21.4-21.4-42.8-42.8-64.2-64.3c-1.1-1.1-2.6-2-2.1-3.9c4-1,6.9,0.4,9.8,3.3c18.6,18.8,37.4,37.6,56.1,56.3
		C208.3,268.6,209.6,270,210.5,271.8z"/>
	<path class="st37" d="M125.3,206.3c0.6,0.8,1.5,0.6,2.3,0.7c3.7,3.3,7.1,7,10.7,10.5c23.4,23.4,46.8,46.9,70.3,70.3
		c0.9,0.9,1.8,1.9,2.6,2.9c0,1.6,0,3.1,0,4.7c-2.2,0.3-3.2-1.6-4.4-2.8c-11.1-11-22.1-22-33.1-33.1c-1.6-1.6-3-3.3-5.1-4.2
		c-3.5-5.5-7.9-10.1-13.4-13.6c-1-2-2.7-3.5-4.3-5.1c-8.7-8.8-17.5-17.5-26.2-26.3c-1.1-1.1-2.9-2.1-2.6-4.1
		C123.2,206.3,124.2,206.3,125.3,206.3z"/>
	<path class="st38" d="M199.5,140.7c0.1,1.8,1.6,2.7,2.6,3.7c12.4,12.5,24.9,24.9,37.3,37.4c1.1,1.1,2.6,1.9,2.7,3.7
		c-2.6,0-5.3,0-7.9,0c-0.8-1.9-2.2-3.3-3.6-4.7c-12.2-12.2-24.3-24.3-36.5-36.5c-1-1-1.9-2-3.4-3.6
		C194.1,140.7,196.8,140.7,199.5,140.7z"/>
	<path class="st39" d="M281.5,258.4c-1.7,0-2.5-1.4-3.5-2.4c-7.5-7.5-15.1-15.1-22.6-22.6c-1-1-2.2-1.9-3.3-2.8c1.4-3,4.1-5,6.5-7.1
		c9.8,8.3,18.7,17.4,27.1,27.1C284.4,253.2,282.9,255.8,281.5,258.4z"/>
	<path class="st40" d="M141.1,207.8c0.6,0.7,1.1,1.5,1.7,2.1c22.2,22.2,44.4,44.5,66.6,66.7c0.6,0.6,1.2,1,1.8,1.5c0,1.3,0,2.7,0,4
		c-1.7-0.1-2.5-1.4-3.4-2.4c-23-23-46.1-46.1-69.1-69.1c-1-1-2.3-1.8-2.4-3.5c1.6,0,3.1,0.1,4.7,0.1c0.3,0.1,0.4,0.3,0.3,0.4
		C141.2,207.7,141.2,207.8,141.1,207.8z"/>
	<path class="st41" d="M272.1,214c4.8,7.3,11.8,12.5,17.6,18.8c2.5,2.8,5.6,5.1,7.8,8.2c-2.3,1.6-4.9,2.7-6.9,4.8
		c-1.2,0.5-2-0.3-2.8-1c-7.6-7.5-15.1-15-22.5-22.6c-0.9-0.9-2-1.9-1-3.4C266.5,216.7,269.3,215.4,272.1,214z"/>
	<path class="st13" d="M373.1,270c-2.4,2.1-4.2,5-7.2,6.6c-1.5,1.1-2.5-0.1-3.3-1c-5.7-5.5-11.3-11.2-16.8-16.8
		c-0.7-0.7-1.5-1.5-1.1-2.7c2.2-2.8,5.2-4.8,7.8-7.2c1.6-0.5,2.4,0.7,3.3,1.5c5.4,5.3,10.7,10.6,16,16
		C372.7,267.3,374.2,268.2,373.1,270z"/>
	<path class="st42" d="M211.2,290.8c-1.7-0.1-2.5-1.4-3.4-2.4c-25.9-25.9-51.9-51.9-77.8-77.8c-1-1-2.3-1.8-2.4-3.5
		c2.4-0.5,3.7,0.8,5.3,2.4c25.2,25.3,50.4,50.6,75.7,75.8c0.7,0.7,1.4,1.6,2.6,1.6C211.2,288.1,211.2,289.4,211.2,290.8z"/>
	<path class="st43" d="M209.1,249.6c-1.7,0.2-2.5-1.2-3.5-2.2c-11.3-11.3-22.6-22.6-33.8-34c-0.6-0.7-4.1-1.6-0.6-3.4
		C189.5,217.8,203.3,229.8,209.1,249.6z"/>
	<path class="st44" d="M388.9,185.5c-1.6,0-3.2,0-4.7,0c-1.8-0.7-3-2-4.3-3.3c-18.5-18.5-36.9-37-55.4-55.5
		c-1.3-1.3-2.5-2.7-3.3-4.3c-0.3-1.8-0.6-3.7-0.9-5.5c1.8-0.6,2.6,0.8,3.6,1.8c21.1,21.1,42.2,42.1,63.2,63.3
		C387.9,182.9,389.3,183.8,388.9,185.5z"/>
	<path class="st45" d="M211.2,348.4c0,2.4,0,4.7,0,7.1c-1.8,0.5-3-0.7-4.1-1.7c-11.2-11.1-22.3-22.2-33.3-33.3
		c-0.8-0.8-1.3-1.6-1.5-2.7c0-2,0-3.9,0-5.9c1.5-2.2,2.7-0.5,3.8,0.4c2.2,1.9,4.1,4,6.2,6.1c8.6,8.6,17.1,17.1,25.7,25.7
		C209.2,345.4,210.5,346.7,211.2,348.4z"/>
	<path class="st43" d="M141.1,207.8c0-0.2,0-0.4,0-0.7c3.7-0.4,7.4,0.5,11.1,0.7c0,1.7,1.4,2.5,2.4,3.5
		c18.2,18.2,36.5,36.5,54.8,54.6c1.9,1.9,0.9,3.9,1.2,5.9c-1.3-1.1-2.6-2.2-3.8-3.4c-19-18.9-37.9-37.9-56.8-56.9
		C147.4,208.8,144.8,207.1,141.1,207.8z"/>
	<path class="st46" d="M388.9,185.5c-2.8-2.9-5.6-5.9-8.5-8.8c-18.9-19-37.8-37.9-56.8-56.8c-1.1-1.1-2-2.5-3.5-3.1
		c-1.5-3.8-4.2-6.8-6.4-10.2c0.8,0.6,1.7,1.1,2.5,1.9c25.2,25.1,50.3,50.3,75.4,75.5c0.5,0.5,0.8,1,1.2,1.5
		C391.6,185.5,390.3,185.5,388.9,185.5z"/>
	<path class="st47" d="M278.3,358c0.1,0.3,0.1,0.6,0.2,0.8c-0.5,2.8-3,3.8-4.8,5.5c-9.9-11.3-21-21.4-31.5-32.1
		c-0.8-0.8-1.8-1.5-2.3-2.6c0-2.9,0-5.8,0-8.7c1.2-0.4,2,0.4,2.7,1.2C254.5,334,266.7,345.7,278.3,358z"/>
	<path class="st48" d="M257.9,139.9c2.4,0,4.7,0,7.1,0c6.9,6.3,13.3,13.1,19.9,19.7c7.3,7.2,14.5,14.5,21.7,21.8
		c1.1,1.2,2.9,2.1,2.6,4.1c-2.1,0-4.2,0-6.3,0c-1.6-0.6-2.8-1.8-4.1-3c-12.8-12.8-25.6-25.6-38.3-38.4
		C259.3,142.9,257.6,142,257.9,139.9z"/>
	<path class="st49" d="M257.9,139.9c13.8,13.9,27.7,27.9,41.5,41.8c1.2,1.2,2.3,2.5,3.4,3.7c-2.1,0-4.2,0-6.3,0
		c-1.6-0.6-2.8-1.8-4.1-3c-12.8-12.8-25.6-25.6-38.3-38.4c-1.1-1.1-2.8-2.1-2.6-4.1C253.7,139.9,255.8,139.9,257.9,139.9z"/>
	<path class="st50" d="M344.8,256c6.5,6.6,13,13.2,19.5,19.8c0.4,0.4,1.2,0.5,1.7,0.7c-1.8,3-4.5,5-7.2,7.1c-1.7,0.3-2.6-1-3.6-2
		c-5.1-5-10.1-10-15.1-15.1c-1.1-1.1-2.8-2.2-1.8-4.3C340.3,259.9,342.4,257.8,344.8,256z"/>
	<path class="st51" d="M63.5,133.4c1.3,0,2.1,0.9,3,1.7c16.4,16.5,32.9,32.9,49.3,49.4c0.3,0.3,0.5,0.6,0.7,1c-1.8,0-3.7,0-5.5,0
		c-1.1-0.5-2.1-1.1-2.9-1.9c-15.9-15.9-31.8-31.8-47.7-47.8C61.4,135,62.5,134.2,63.5,133.4z"/>
	<path class="st52" d="M334.4,185.5c-2.1,0-4.2,0-6.3,0c-1.2-0.6-2.3-1.3-3.2-2.2c-13.1-13.1-26.3-26.2-39.3-39.4
		c-0.8-0.8-3.1-1.8-1.1-3.6c2,0,3.9,0,5.9,0c2.3,0.8,3.3,2.9,4.8,4.5c12.2,12.1,24.3,24.3,36.4,36.4
		C332.9,182.3,334.7,183.3,334.4,185.5z"/>
	<path class="st53" d="M334.4,185.5c-12.9-13.1-25.9-26.1-38.8-39.2c-1.7-1.7-4.1-3-4.6-5.7c1.8-1,3.7-0.2,5.5-0.5
		c0.9,0,1.4,0.5,2,1.1c13,13.5,26.4,26.5,39.5,39.8c1.2,1.2,3.1,2.2,2.8,4.4C338.7,185.5,336.5,185.5,334.4,185.5z"/>
	<path class="st10" d="M211.2,361.9c0,2.4,0,4.7,0,7.1c-2,0.6-3.2-0.8-4.4-2c-11-10.9-21.9-21.8-32.8-32.8c-0.8-0.8-1.6-1.7-1.8-3
		c0-2,0-3.9,0-5.9c2-1.8,2.9,0.3,3.9,1.2c6.4,6.2,12.6,12.6,18.9,18.8c4.8,4.8,9.4,9.8,14.6,14.2C210.4,360.3,210.8,361,211.2,361.9
		z"/>
	<path class="st54" d="M297.4,140.6c-2.1,0-4.2,0-6.3,0c-2.4,0-4.7,0-7.1,0c-1.3,1.3-3,1-4.5,1.1c-1.4,0.1-2.7,0-4.1-0.2
		c-0.7-0.1-1.3-0.4-1.7-1c1.2-1.2,2.7-0.7,4.1-0.7c8.9-0.1,17.8,0,26.7-0.1c1.9-0.4,2.8,1.1,3.9,2.2c13.3,13.2,26.5,26.5,39.7,39.8
		c1,1.1,2.6,1.9,2.2,3.9c-1.8,0-3.7,0-5.5,0c-1.9-0.8-3.2-2.2-4.6-3.6c-11.9-11.9-23.8-23.8-35.7-35.7
		C302.3,144,300.1,142,297.4,140.6z"/>
	<path class="st55" d="M60.4,135.8c1.3,0,2.1,0.9,3,1.7c15.7,15.7,31.3,31.4,47,47.1c0.3,0.3,0.5,0.6,0.7,1c-2.1,0-4.2,0-6.3,0
		c-6.4-5.8-12.4-12.2-18.5-18.3c-9.7-9.6-19.4-19.2-28.9-29C58,137,59.2,136.4,60.4,135.8z"/>
	<path class="st56" d="M211.2,348.4c-11.6-11.5-23.1-23-34.7-34.4c-1.1-1.1-1.9-2.6-3.7-2.7c-1.1-2-0.3-4.1-0.5-6.2
		c0-1.5,0.9-1.3,1.8-0.9c2,1.1,3.7,2.5,5.3,4.1c9.7,9.7,19.4,19.4,29.1,29.1c1.1,1.1,2.1,2.3,2.7,3.8
		C211.2,343.7,211.2,346.1,211.2,348.4z"/>
	<path class="st38" d="M172.7,275c0-1-0.1-2-0.1-3.1c-0.4-1.1-0.8-2.5,0.2-3.2c1.1-0.8,2.2,0.2,3.2,0.9c0.8,0.6,1.6,1.4,2.3,2.1
		c10,10,20,20,30,30c1.2,1.2,2.4,2.5,3,4.1c0,2.1,0,4.2,0,6.3c-1.8,1.1-2.7-0.4-3.6-1.3c-11-10.9-21.9-21.9-32.9-32.9
		C173.8,277,173.3,276,172.7,275z"/>
	<path class="st57" d="M125.2,80.4c2.4-2.7,5.2-4.8,7.9-7c5.9,5.7,11.7,11.4,17.3,17.4c-2.1,2.8-4.4,5.5-7,7.9
		c-1.7,1.1-2.7-0.3-3.7-1.2c-4.5-4.4-9-8.8-13.3-13.3C125.4,83.2,124.2,82.1,125.2,80.4z"/>
	<path class="st43" d="M122.9,185.5c-0.1-1.8-1.6-2.6-2.7-3.7c-16.2-16.3-32.5-32.6-48.8-48.9c-1.1-1.1-2.1-2.4-3.1-3.5
		c0.5-0.5,1.1-1,1.6-1.5c1.3,0,2.1,0.9,3,1.7c18.3,18.3,36.5,36.6,54.8,54.9c0.3,0.3,0.4,0.6,0.7,1
		C126.6,185.5,124.7,185.5,122.9,185.5z"/>
	<path class="st27" d="M150.4,90.8c-4.4-2-6.9-6.1-10.2-9.3c-2.5-2.5-5.8-4.4-7-8.1c2.7-2.3,5.3-4.6,8-6.9c4.5,2.3,7.3,6.5,10.8,9.9
		c2,1.9,4.6,3.5,5.5,6.4C155.1,85.5,152.8,88.1,150.4,90.8z"/>
	<path class="st58" d="M320.2,279.6c1.8-2.4,3.9-4.5,6.4-6.2c1.4,0.2,2.2,1.3,3.1,2.2c5.2,5.1,10.3,10.3,15.4,15.5
		c1,1,2.6,1.9,2,3.8c-1.5,2.3-4,3.4-5.9,5.3c-1.3,1-2.2-0.1-3-0.8c-5.8-5.6-11.5-11.3-17.1-17.1
		C320.5,281.6,319.7,280.8,320.2,279.6z"/>
	<path class="st13" d="M172.8,304.3c0,2.4,0,4.7,0,7.1c0,2.4,0,4.8,0,7.2c0.9,2.1,1.5,4.2,0,6.3c0,2.4,0,4.7,0,7.1
		c1,2,1.1,4.1,1,6.3c-0.2,2.1,0.5,4.4-1,6.3c-0.1,4.8-0.2,9.5-0.3,14.3c-1.3-1.9-0.6-4.1-0.6-6.2c0-19.2,0.1-38.4,0.2-57.7
		c0-2.5,0.4-5,0.6-7.5c1.5-1.1,2.5,0.1,3.4,1c11.7,11.8,23.7,23.3,35.1,35.4c0,1.8,0,3.7,0,5.5c-2.7,0.5-4-1.6-5.5-3.1
		c-10.7-10.6-21.3-21.2-32-32c-0.3,1.6,0,3,0,4.4C173.6,300.6,174.2,302.6,172.8,304.3z"/>
	<path class="st59" d="M95.2,185.5c-1.8,0-3.7,0-5.5,0c-1.3-0.6-2.5-1.4-3.5-2.5c-11.6-11.6-23.2-23.3-34.9-34.9
		c-0.8-0.8-1.8-1.6-2-2.9c0.8-1.2,2-1.8,3.2-2.3c1.9-1,3,0.4,4,1.5c12.3,12.2,24.5,24.5,36.7,36.7C94.4,182.3,95.8,183.5,95.2,185.5
		z"/>
	<path class="st30" d="M415,230.7c-1.3,1.9-2.8,3.5-4.7,4.7c-1.8-0.4-2.8-1.9-4-3c-6.8-6.8-13.6-13.6-20.4-20.4
		c-3-3.1-5.9-6.3-10.4-7.3c4.2-1.5,8.5-0.5,12.7-0.7c1.4,0.7,2.6,1.7,3.7,2.8c6.9,7,13.9,13.9,20.8,20.9
		C413.7,228.4,414.7,229.2,415,230.7z"/>
	<path class="st24" d="M125.2,80.4c0,1.5,1.1,2.3,2,3.2c4.3,4.3,8.7,8.7,13,13c0.9,0.9,1.7,2,3.2,2c-2.2,2.6-4.3,5.2-6.5,7.8
		c-1.4,0.4-2.2-0.6-3-1.4c-5.1-5-10.2-10.1-15.2-15.3c-0.8-0.8-1.8-1.6-1.3-3C120,84.7,122.6,82.6,125.2,80.4z"/>
	<path class="st59" d="M264.2,218.9c0.1,0.5,0.1,1.1,0.5,1.5c8.6,8.5,16.7,17.5,25.8,25.5c-1.6,1.6-3.1,3.2-4.7,4.7
		c-9.5-8.6-18.4-17.7-27.1-27.1C260.1,221.5,262.3,220.4,264.2,218.9z"/>
	<path class="st60" d="M369.2,185.6c-6.7-6.8-13.4-13.7-20.1-20.4c-9.5-9.6-19.1-19.1-28.6-28.7c-1.1-1.1-2.6-1.9-2.6-3.8
		c0.5-0.5,1-1.1,1.5-1.6c1.8-0.6,2.6,0.9,3.6,1.8c16.4,16.3,32.7,32.7,49,49.1c1,1,2.3,1.8,2,3.6
		C372.4,185.6,370.8,185.6,369.2,185.6z"/>
	<path class="st61" d="M347.2,294.9c-5-6.2-11.2-11.4-16.6-17.2c-1.3-1.4-2.6-2.9-4-4.3c2.1-2.1,4.2-4.2,6.3-6.2
		c7.2,6.9,14.3,13.9,21.2,21.2C351.8,290.5,349.5,292.7,347.2,294.9z"/>
	<path class="st62" d="M309.2,185.5c-13.8-13.9-27.7-27.9-41.5-41.9c-1.1-1.1-2.6-1.9-2.7-3.7c1.8,0,3.7,0,5.5,0
		c14.1,13.5,27.7,27.6,41.6,41.4c1.1,1.1,2.9,2.1,1.9,4.2C312.4,185.5,310.8,185.5,309.2,185.5z"/>
	<path class="st38" d="M49.3,145.3c3.5,2.4,6.1,5.7,9.1,8.7c10.5,10.5,20.9,21.1,31.3,31.6c-2.1,0-4.2,0-6.3,0
		c-1.1-0.5-2.1-1.1-2.9-1.9c-11.6-11.7-23.4-23.2-34.9-35.1C46.5,147,47.8,146.1,49.3,145.3z"/>
	<path class="st63" d="M320,320.7c-1.8,2.7-5.1,3.8-7.1,6.3c-6.9-4.3-12.5-9.9-16.8-16.8c0.2-2.6-0.3-5.2,0.3-7.8
		c0.2-1.5,1.3-2.2,2.4-3C306,306.4,313.3,313.3,320,320.7z"/>
	<path class="st64" d="M387.6,133.4c15.3,12.4,29.7,25.7,44.3,38.8c2.1,1.9,4.4,3.8,5.8,6.4c1.1,1.9,1.9,3.9-0.3,5.6
		c-2,0.5-2.9-1-3.9-2.1c-14.9-14.9-29.8-29.8-44.6-44.7c-0.9-0.9-2-1.8-2.3-3.1C386.4,133.6,386.6,133,387.6,133.4z"/>
	<path class="st7" d="M172.8,338.3c0-2.1,0-4.2,0-6.3c11.2,11.2,22.5,22.3,33.7,33.5c1.4,1.4,2.8,2.8,4.6,3.6c0,2.1,0,4.2,0,6.3
		c-1.8,1.1-2.7-0.4-3.6-1.3c-11-10.9-21.9-21.9-32.8-32.8C173.9,340.4,173.3,339.3,172.8,338.3z"/>
	<path class="st55" d="M278.3,358c-1.8-0.1-2.6-1.6-3.7-2.7c-11.6-11.5-23.2-22.9-34.7-34.4c0-2.1,0-4.2,0-6.3
		c1.9-0.3,2.8,1.2,3.8,2.2c10.7,10.6,21.3,21.3,31.9,31.9c1.1,1.1,2,2.4,2.8,3.8C278.4,354.3,278.3,356.1,278.3,358z"/>
	<path class="st65" d="M172.8,324.8c0-2.1,0-4.2,0-6.3c11.3,11.2,22.5,22.3,33.8,33.5c1.4,1.4,2.8,2.8,4.6,3.6c0,2.1,0,4.2,0,6.3
		c-5.8-3.8-10-9.2-14.9-13.9C188.4,340.3,180.6,332.6,172.8,324.8z"/>
	<path class="st36" d="M278.4,339.8c0,2.1,0,4.2,0,6.3c-1.6,0.4-2.4-0.8-3.3-1.7c-11.6-11.4-22.9-23.1-34.6-34.4
		c-0.3-0.3-0.4-0.7-0.6-1c0-2.1,0-4.2,0-6.3c2.4-0.2,3.8,1.5,5.3,2.9c10.3,10.2,20.5,20.5,30.7,30.7
		C276.9,337.3,277.7,338.5,278.4,339.8z"/>
	<path class="st51" d="M239.9,309c1.9,0.7,3.3,2.2,4.7,3.5c11.3,11.2,22.6,22.4,33.8,33.6c0,2.1,0,4.2,0,6.3
		c-9.8-9.7-19.6-19.4-29.5-29.1c-3-3-6-5.8-9.1-8.8C239.9,312.7,239.9,310.8,239.9,309z"/>
	<path class="st50" d="M211.2,324c-1.8-0.1-2.6-1.6-3.7-2.7c-10.4-10.3-20.7-20.7-31.1-31c-1.1-1.1-1.9-2.6-3.7-2.6
		c0-2.1,0-4.2,0-6.3c1.8-0.6,3,0.6,4.1,1.7c10.9,10.8,21.7,21.6,32.5,32.5c0.9,0.9,1.4,1.9,1.9,3C211.2,320.3,211.2,322.1,211.2,324
		z"/>
	<path class="st66" d="M157.4,82.8c-5.4-5.4-10.9-10.9-16.3-16.3c2.9-2.5,5.7-5,8.6-7.5c5,5,10.2,9.9,15,15.2
		C162.9,77.6,159.7,79.9,157.4,82.8z"/>
	<path class="st67" d="M387.6,133.4c-1.1,0.8-0.1,1.3,0.4,1.8c16,16.1,32.1,32.1,48.2,48.2c0.4,0.4,0.9,0.6,1.3,0.8
		c-0.8,1.3-2,1.6-3.5,1.3c-0.8-1.9-2.2-3.3-3.6-4.7c-22.1-22.1-44.2-44.2-66.3-66.4c-0.8-0.8-2.8-1.3-1.8-3.2
		C370.4,119.1,379.9,125.2,387.6,133.4z"/>
	<path class="st50" d="M39.3,154.1c0.8-1.6,2.4-2.3,3.8-3.2c1.8-0.5,2.6,0.9,3.6,1.9c9.4,9.3,18.8,18.7,28.1,28.1
		c1.2,1.3,2.9,2.5,2.3,4.7c-2.1,0-4.2,0-6.3,0c-1.3-0.6-2.5-1.4-3.5-2.5c-8.6-8.6-17.2-17.2-25.8-25.8
		C40.6,156.3,39.5,155.5,39.3,154.1z"/>
	<path class="st59" d="M239.9,329.5c1.6,0.7,2.9,1.8,4.1,3c9.1,9.2,18.3,18.3,27.4,27.5c1.2,1.2,2.6,2.3,2.3,4.3
		c-0.8,1.3-1.8,2.4-3.2,3.2c-9.7-9.4-19.1-19.1-28.7-28.6c-0.9-0.9-1.4-1.9-1.9-3C239.9,333.7,239.9,331.6,239.9,329.5z"/>
	<path class="st20" d="M304.5,294.1c1.8-1.7,3.3-3.8,5.5-5c6.4,6.1,12.5,12.5,18.8,18.8c0.8,0.7,1.4,1.6,1.6,2.6
		c-1,2.2-2.9,3.4-4.8,4.7c-1.9,1.3-3.2,0-4.4-1.2c-5.2-5.1-10.4-10.3-15.5-15.5C304.6,297.3,303.1,296.1,304.5,294.1z"/>
	<path class="st68" d="M320.3,128.7c0.1-1.1-0.2-2.3,0.8-3.2c1.9,0,3.1,1.4,4.2,2.6c17.7,17.7,35.5,35.5,53.2,53.2
		c1.1,1.1,2.9,2.1,1.9,4.2c-1.1,0-2.1,0-3.2,0c-1.6-0.7-2.8-1.8-4.1-3c-16.8-16.8-33.5-33.6-50.3-50.4
		C321.8,131.2,320.5,130.3,320.3,128.7z"/>
	<path class="st59" d="M211.2,305.8c-11.1-11-22.2-22-33.2-33c-0.8-0.8-1.7-1.7-2.5-2.5c-0.7-0.6-1.6-1.5-2.4-0.9
		c-0.5,0.4-0.4,1.7-0.5,2.6c-0.6-3.5-1.1-6.9-1.7-10.4c1.9-1.3,2.9,0.3,4,1.3c11.5,11.4,23,22.9,34.4,34.4c0.9,0.9,1.4,1.9,1.9,3
		C211.2,302.1,211.2,303.9,211.2,305.8z"/>
	<path class="st69" d="M393.9,250.5c-0.8,0.8-1.6,1.6-2.4,2.4c-2.3,0.5-3.2-1.4-4.4-2.7c-13.4-13.3-26.8-26.7-40.1-40.1
		c-2-2-4-3.4-6.9-2.9c-1.2-0.1-2.5,0-3.4-1.1c4-1.3,8-0.4,12-0.7c1.4,0.7,2.6,1.7,3.8,2.8c13,13.1,26.1,26.1,39.1,39.2
		C392.5,248.3,393.6,249.2,393.9,250.5z"/>
	<path class="st25" d="M164.7,74.2c-5.9-4.2-11-9.1-15-15.2c2-2.4,4.6-4.3,7-6.2c0.1,0,0.3-0.2,0.4-0.1c5.7,3.7,10.6,8.2,13.9,14.2
		C169.5,69.9,167.2,72.2,164.7,74.2z"/>
	<path class="st37" d="M57.3,138.2c1.5,0,2.3,1.1,3.2,2c14.1,14.1,28.2,28.3,42.4,42.4c0.8,0.8,1.8,1.6,1.8,2.9c-1.6,0-3.2,0-4.8,0
		c-2.3-1.2-3.6-3.4-5.3-5.2c-13.3-13.2-26.6-26.5-39.7-39.8C55.5,139.5,56.3,138.8,57.3,138.2z"/>
	<path class="st9" d="M304.5,294.1c-0.2,1.5,0.6,2.4,1.6,3.4c5.4,5.4,10.8,10.7,16.1,16.1c1,1,1.9,1.8,3.4,1.5
		c-1.9,1.8-3.3,4.1-5.6,5.5c-7.8-6.3-15.1-13.2-21.1-21.3C300.7,297.5,302.3,295.5,304.5,294.1z"/>
	<path class="st70" d="M354.1,288.4c-1.2,0-1.9-0.8-2.6-1.5c-5.7-5.7-11.3-11.3-17-17c-0.7-0.7-1.6-1.4-1.5-2.6
		c1.8-1.7,3.6-3.3,5.4-5c0,1,0.5,1.7,1.2,2.4c6.4,6.3,12.8,12.7,19.3,19C357.8,285.7,355.8,286.9,354.1,288.4z"/>
	<path class="st24" d="M320.2,279.6c6.8,7.2,13.2,14.7,21.1,20.7c-2,1.9-3.9,3.8-5.9,5.7c-0.9,0.4-1.5-0.3-2-0.8
		c-5.5-5.8-11.3-11.3-16.9-17.1c-1-1-2.4-1.8-1.9-3.6C316.5,282.8,318.4,281.2,320.2,279.6z"/>
	<path class="st71" d="M172.8,304.3c0-2.1,0-4.2,0-6.3c1.2-0.5,2,0.4,2.7,1.1c11.9,12,24.1,23.7,35.7,36c0,2.1,0,4.2,0,6.3
		c-9.6-9.5-19.2-19-28.7-28.5C179.4,309.8,176.4,306.7,172.8,304.3z"/>
	<path class="st28" d="M314.7,284.4c5,5.2,10.1,10.3,15.1,15.5c1.9,2,3.8,4,5.6,6c-1.2,2.1-3.5,2.9-5,4.6
		c-6.5-6.4-13-12.8-19.5-19.3c-0.5-0.5-0.6-1.4-0.9-2.1C311.6,287.5,313.1,286,314.7,284.4z"/>
	<path class="st72" d="M211.2,318.4c-11.3-11.2-22.6-22.4-33.8-33.6c-1.4-1.4-2.8-2.8-4.7-3.5c0-2.1,0-4.2,0-6.3
		c11.6,11.5,23.2,23,34.8,34.4c1.1,1.1,1.9,2.6,3.7,2.7C211.2,314.2,211.2,316.3,211.2,318.4z"/>
	<path class="st8" d="M172.8,338.3c11.5,11.5,23.1,22.9,34.6,34.4c1.1,1.1,1.9,2.6,3.7,2.7c0,2.1,0,4.2,0,6.3
		c-11.2-11.2-22.5-22.3-33.7-33.5c-1.4-1.4-2.7-2.8-4.6-3.6C172.8,342.5,172.8,340.4,172.8,338.3z"/>
	<path class="st33" d="M133.1,112.1c-0.8,2.4-1.7,4.7-2.5,7.1c-1.8,1.1-2.7-0.4-3.6-1.3c-6.2-6.1-12.4-12.3-18.6-18.6
		c-0.9-0.9-2.4-1.9-1.3-3.6c1.6-1.4,3.1-2.7,4.7-4.1c1.3,0.2,2,1.1,2.8,1.9C120.8,99.8,127.1,105.8,133.1,112.1z"/>
	<path class="st73" d="M211.2,335c-1.8-0.1-2.6-1.6-3.7-2.7c-10.5-10.5-21-21-31.5-31.5c-1-1-2.1-1.9-3.2-2.9c0-1.6-0.4-3.3,0.2-5
		c1.5,0.3,2.2,1.5,3,2.4c10.3,10.3,20.6,20.5,30.8,30.8c1.3,1.3,2.6,2.5,4.4,3.3C211.2,331.3,211.2,333.2,211.2,335z"/>
	<path class="st74" d="M279.2,140.6c1.6,0,3.2,0,4.7,0c5.8,5.9,11.5,11.8,17.3,17.7c8.9,9.1,17.9,18.1,26.8,27.2c-1.8,0-3.7,0-5.5,0
		c-9.6-9-18.6-18.5-27.9-27.7c-4.5-4.4-8.9-8.9-13.3-13.4C280.4,143.4,278.8,142.6,279.2,140.6z"/>
	<path class="st75" d="M313.9,185.5c-0.1-1.8-1.6-2.6-2.7-3.7c-12.7-12.7-25.4-25.4-38-38.1c-1.1-1.1-2.6-1.9-2.7-3.7
		c1,0.3,2,0.9,3.1,0.6c0.6,0,1.1,0.1,1.7,0.1c1.5,0.8,2.8,1.8,4,3.1c12.3,12.4,24.7,24.7,37,37.1c1.2,1.3,3.4,2.3,2.4,4.8
		C317.1,185.5,315.5,185.5,313.9,185.5z"/>
	<path class="st54" d="M404.8,240.2c-0.8,1.3-1.8,2.4-3.2,3.2c-11.8-11.4-23.3-23.1-34.8-34.8c-1.5-1.5-3-2.4-5.2-2.1
		c-1.2,0-2.4,0-3.6,0.1c-1.5,0-3,0.1-4.5-0.4c-0.4-0.2-0.8-0.4-1-0.8c5.8-1.4,11.7-0.4,17.5-0.6c1.6,0.7,2.8,1.8,4,3
		c9.4,9.4,18.9,18.9,28.2,28.3C403.4,237.2,405.2,238.1,404.8,240.2z"/>
	<path class="st28" d="M133.1,112.1c-0.6-0.2-1.4-0.3-1.8-0.7c-6.5-6.6-13-13.2-19.5-19.9c1.8-1.6,3.7-3.2,5.5-4.7
		c6.2,6.9,12.8,13.4,19.6,19.7C136.2,108.8,134.8,110.5,133.1,112.1z"/>
	<path class="st76" d="M54.9,140.6c1.7,0,2.5,1.3,3.5,2.3c12.9,12.9,25.7,25.7,38.6,38.6c1.2,1.2,2.3,2.5,3,4.1c-1.6,0-3.2,0-4.7,0
		c-0.7-1.6-1.8-2.9-3-4.1c-12.1-12.1-24.1-24.1-36.2-36.2c-1-1-1.9-2.3-3.5-2.3C53.3,142.1,54.1,141.3,54.9,140.6z"/>
	<path class="st77" d="M352.5,205.3c0.3,0,0.6,0.1,0.9,0.1c1.6,0.7,2.8,1.8,4.1,3c12,12.1,24.1,24.1,36,36.1c1.1,1.1,2.9,2,2.5,4.1
		c-0.7,0.6-1.4,1.2-2.1,1.8c-1-0.8-2.1-1.6-3-2.5c-13.3-13.3-26.6-26.6-39.9-39.9c-0.8-0.8-1.5-1.8-2.3-2.7
		C350,205.4,351.3,205.4,352.5,205.3z"/>
	<path class="st59" d="M148.1,238.7c-3.2-0.5-6.3-1.1-9.5-1.6c0.4-1.6-0.9-2.3-1.8-3.3c-8.1-8.4-16.9-16.1-24.4-25.1
		c-1.1-1.3-3.3-1.1-3.8-3.1c2.9-0.4,5.8,0.4,8.6,0.6c0.7,0.6,1.7,0.8,2.3,1.5c9.3,9.1,18.5,18.3,27.6,27.6
		C148.1,236.2,149.2,237.2,148.1,238.7z"/>
	<path class="st78" d="M131.5,236.3c-2.7-0.1-5.4,0.3-7.9-0.8c0.5-0.8,2.6-0.8,0.7-2.6c-8.4-8.2-16.7-16.4-24.8-24.9
		c-2-2.1-4.4-1.4-6.6-1.8c-0.7-0.2-1.5-0.4-1.5-1.5c4.5-0.3,8.9,0.4,13.4,0.7c1.5,0.6,2.7,1.6,3.8,2.7c7.8,7.8,15.5,15.6,23.3,23.4
		c0.6,0.6,1.1,1.1,1.6,1.7c0.5,0.7,1.2,1.6,0.7,2.5C133.5,237.1,132.5,236.7,131.5,236.3z"/>
	<path class="st72" d="M77.1,185.5c-0.7-1.1-1.3-2.3-2.2-3.2c-10.1-10.2-20.3-20.4-30.5-30.6c-0.4-0.4-0.9-0.6-1.3-0.9
		c0.8-0.8,1.6-1.5,2.5-2.3c0.8,0,1.5,0.3,2.1,0.9c11.9,12,23.8,24,35.7,36.1C81.3,185.5,79.2,185.5,77.1,185.5z"/>
	<path class="st39" d="M211.2,300.2c-12.1-12-24.1-24-36.2-35.9c-1.2-1.2-2.1-2.8-4.1-2.7c-0.8-2-2.2-3.9-2.3-6.2
		c2.4-1.3,3.2,1,4.3,2.1c11.7,11.6,23.4,23.4,35.1,35c1,1,2.1,1.9,3.2,2.9C211.2,297.1,211.2,298.6,211.2,300.2z"/>
	<path class="st79" d="M375.5,204.6c3.1-0.4,5.4,0.8,7.5,3.1c9,9.3,18.1,18.5,27.2,27.7c-1.3,1.1-2.6,2.2-3.9,3.3
		c-10.2-10-20.3-20.2-30.4-30.4c-0.9-0.9-2.4-1.9-1.2-3.7C375,204.6,375.2,204.6,375.5,204.6z"/>
	<path class="st80" d="M396,248.8c-7.7-7.9-15.5-15.7-23.2-23.6c-6.5-6.6-12.9-13.1-19.3-19.7c1.6,0,3.2,0,4.7,0
		c1.6,0.7,2.8,1.8,4.1,3.1c11.2,11.3,22.5,22.5,33.7,33.8c1.1,1.1,2.9,2,2.5,4.1C397.9,247.5,397.1,248.3,396,248.8z"/>
	<path class="st81" d="M154.4,311.3c0.6-3.6-0.6-6.1-3.4-8.8c-11.6-11.2-23.2-22.4-34.2-34.3c-5.6-6-11.9-11.4-16.7-18.1
		c8.5,8,17.1,15.9,25.6,23.9c9,8.5,17.9,17,26.9,25.5c1.6,1.5,2.6,3.1,2.6,5.4c-0.1,11.7,0,23.4,0,35.1c0,0.7,0.3,1.6-0.7,2
		c0-5.8-0.1-11.6-0.1-17.4c0-2.1,0-4.2,0-6.3C154.4,316.1,154.4,313.7,154.4,311.3z"/>
	<path class="st82" d="M380.3,185.5c0-1.5-1.2-2.3-2.1-3.2c-18-18-36-36-53.9-54c-1-1-2.1-1.9-3.2-2.9c0-1,0.1-2.1,0.1-3.1
		c1.1,1,2.2,1.9,3.2,2.9c19,19,38,38,57,57.1c1,1,1.9,2.1,2.9,3.2C382.9,185.5,381.6,185.5,380.3,185.5z"/>
	<path class="st51" d="M340.8,206.2c2.6-0.5,4.4,0.7,6.2,2.5c13.6,13.7,27.3,27.4,41,41.1c1.1,1.1,2.4,2.1,3.6,3.1
		c-0.7,0.9-1.3,2-2.6,2.2c-1.5-0.4-2.4-1.5-3.5-2.5c-5.1-5.1-10.2-10.2-15.3-15.3c-1-1-2-2.1-2.6-3.4c-1-2.1-2.9-1.6-4.6-1.7
		c0.5-1.9-0.8-2.8-1.9-4c-5.9-5.9-11.9-11.8-17.8-17.8C342.1,209.2,340.4,208.3,340.8,206.2z"/>
	<path class="st50" d="M92.9,205.4c3.6-0.6,6.2,0.7,8.8,3.5c8.3,8.8,17,17.1,25.7,25.9c-1.3,1.1-2.7,0.4-3.8,0.7c-1-0.1-2-0.1-3-0.2
		c-9-8.4-17.5-17.3-26.2-26.1C93.3,208.3,92.3,207.1,92.9,205.4z"/>
	<path class="st71" d="M107.8,233.9c-2.9-0.2-5.8,0.2-8.6-0.8c1.6-1.8-0.3-2.6-1.2-3.4c-6.8-6.9-13.8-13.7-20.6-20.7
		c-1.2-1.2-3.2-2.3-1.9-4.6c4.1-0.9,7.2,0.6,10,3.7c6.7,7.1,13.8,13.9,20.7,20.9c1,1,2.2,1.9,2.6,3.4
		C109.2,233.2,109.4,234.3,107.8,233.9z"/>
	<path class="st43" d="M278.4,339.8c-10.5-10.4-21.1-20.9-31.6-31.3c-2.1-2.1-4.3-4.2-6.9-5.8c0-1.8,0-3.7,0-5.5
		c11.8,11.7,23.4,23.4,35.3,34.9C277.6,334.3,278.9,336.5,278.4,339.8z"/>
	<path class="st83" d="M357.3,185.6c-1.1,0-2.1,0-3.2,0c-1.4-0.7-2.7-1.6-3.8-2.8c-13.5-13.6-27.1-27.1-40.6-40.7
		c-0.9-0.9-2-1.7-2.3-3.1c0.6-0.8,1.5-0.7,2.4-0.8c1.9-0.9,3,0.4,4,1.5c13.8,13.8,27.7,27.6,41.4,41.5
		C356.5,182.4,358,183.5,357.3,185.6z"/>
	<path class="st84" d="M307.5,139c2.6,2.4,5.2,4.8,7.7,7.3c13,13.1,26,26.2,39,39.3c-1.3,0-2.6,0-4,0
		c-11.1-11.3-22.2-22.5-33.4-33.8c-4.1-4.1-8.2-8-12.4-12C305.3,138.8,306.5,139.1,307.5,139z"/>
	<path class="st19" d="M251.6,139.9c13.8,13.9,27.7,27.9,41.5,41.8c1.2,1.2,2.3,2.5,3.5,3.7c-1.6,0-3.1,0-4.7,0
		c-8-7.4-15.5-15.4-23.2-23c-6.2-6.1-12.3-12.2-18.4-18.4c-1.1-1.2-2.8-2.1-2.6-4.1C249,139.9,250.3,139.9,251.6,139.9z"/>
	<path class="st66" d="M247.7,139.9c13.8,13.9,27.7,27.9,41.5,41.9c1.1,1.1,2.6,1.9,2.7,3.7c-1.1,0-2.1,0-3.2,0
		c-11.6-11.7-23.2-23.4-34.8-35.2c-3.4-3.4-6.8-6.9-10.1-10.4C245,139.9,246.3,139.9,247.7,139.9z"/>
	<path class="st38" d="M131.5,236.3c4.3-0.3,1.6-2.1,0.5-3.1c-8-8.1-16.1-16.1-24.1-24.2c-1.1-1.1-2.1-2.3-3.2-3.5
		c1.3,0,2.7,0,4,0.1c3.8,0.5,5.3,3.9,7.6,6.3c7.2,7.3,14.5,14.5,21.7,21.8c0.7,0.7,1.4,1.2,1.9,2c1.5,2.3-0.9,1-1.4,1.4
		C136.2,236.9,133.8,237.4,131.5,236.3z"/>
	<path class="st85" d="M320.3,128.7c1,0.9,2,1.6,3,2.6c17.1,17.1,34.2,34.2,51.3,51.3c0.9,0.9,1.7,1.9,2.6,2.9c-1.1,0-2.1,0-3.2,0
		c-5.9-6-11.7-12-17.6-18c-11.2-11.3-22.4-22.5-33.7-33.7c-1-1-2.2-1.9-3.2-2.8C319.5,130.2,319.4,129.3,320.3,128.7z"/>
	<path class="st86" d="M318.7,185.5c-0.1-1.8-1.6-2.6-2.7-3.7c-12.6-12.7-25.3-25.3-37.9-38c-1-1-1.9-2.1-2.9-3.2c1.3,0,2.6,0,3.9,0
		c6.5,6.7,13,13.3,19.6,20c7.1,7.2,14.3,14.3,21.4,21.5c1,1,2.3,1.8,2.4,3.5C321.3,185.5,320,185.5,318.7,185.5z"/>
	<path class="st87" d="M297.4,140.6c1.5-0.1,2.8,0,4,1.2c14.4,14.6,28.9,29.2,43.4,43.8c-1.3,0-2.6,0-3.9,0
		c-12.9-13.1-25.9-26.1-38.8-39.2C300.3,144.6,297.9,143.4,297.4,140.6z"/>
	<path class="st73" d="M107.8,233.9c1.7-1.3,0.1-2.1-0.6-2.8c-8.3-8.4-16.7-16.7-25-25.1c-2-2-4.4-1.2-6.6-1.4
		c-0.6,0.2-0.8-0.1-0.8-0.6c4-0.3,7.9,0.2,11.8,0.7c1.4,0.7,2.6,1.6,3.8,2.8c7.3,7.3,14.6,14.6,21.9,22c1.4,1.4,3.4,2.7,2.7,5.2
		C112.6,234.6,110.1,234.9,107.8,233.9z"/>
	<path class="st88" d="M347.8,233.7c-2.6,0.3-5.2,0.6-7.8,0.8c-0.8-1.8-2-3.3-3.4-4.7c-6.2-6.2-12.4-12.3-18.5-18.6
		c-1.1-1.1-2.8-2-2.5-4.1c1.5,0,3.1-0.1,4.6-0.1c0.5-0.4,1-0.4,1.6-0.2c2,0.8,3.2,2.6,4.7,4c6.3,6.2,12.6,12.5,18.8,18.8
		C346.4,230.7,348.1,231.6,347.8,233.7z"/>
	<path class="st89" d="M96.8,233c-1.9,0-3.8,0.2-5.5-0.6c-1.6-0.9-3-2-4.3-3.4c-7.3-7.5-15-14.6-22-22.4c-1.8-2-4-1.6-6.1-1.9
		c-0.7-0.2-1.5-0.4-1.5-1.5c4.2-0.2,8.4,0.1,12.6,0.7c8.7,8.3,17.1,16.9,25.5,25.4C96.5,230.2,97.9,231.2,96.8,233z"/>
	<path class="st38" d="M239.9,335.8c9.9,9.8,19.8,19.7,29.7,29.5c0.5,0.5,0.6,1.4,0.9,2.1c-0.6,1-1.3,1.8-2.4,2.4
		c-0.7-0.1-1.2-0.4-1.7-0.9c-8.9-8.9-18-17.6-26.6-26.8C239.9,340,239.9,337.9,239.9,335.8z"/>
	<path class="st39" d="M148.1,238.7c0-1.8-1.4-2.7-2.5-3.8c-8.5-8.5-17-17-25.4-25.5c-1-1-1.9-2.1-2.8-3.2c1.6,0,3.2,0.1,4.8,0.1
		c10.3,10.4,20.5,20.7,30.8,31.1c1.1,1.2,3.2,2,2.3,4.4C152.8,240.8,150.5,239.7,148.1,238.7z"/>
	<path class="st58" d="M347.8,233.7c-7.7-7.8-15.4-15.6-23.1-23.4c-1-1-1.9-2.1-2.9-3.2c3.9-1.2,7.2-0.5,10.2,2.7
		c5.6,5.9,11.5,11.6,17.2,17.4c1.6,1.6,3.7,3.1,3.4,5.9C351.1,233.4,349.5,234,347.8,233.7z"/>
	<path class="st69" d="M296.6,311.3c5.5,5.2,10.9,10.5,16.3,15.7c-1.5,2.5-3.6,4.2-5.9,5.7c-2.2,0.4-3.1-1.6-4.6-2.5
		C295.3,325.5,295.4,318.6,296.6,311.3z"/>
	<path class="st56" d="M54.2,185.5c-2.1,0-4.2,0-6.3,0c-2.2-0.8-3.7-2.5-5.2-4.2c-5.1-5.5-11.1-10-15.4-16.3c1.1-1,2.1-2.1,3.2-3.1
		c1.7-1.1,2.7,0.3,3.7,1.2c6.3,6.2,12.5,12.4,18.7,18.7C53.8,182.8,55.3,183.8,54.2,185.5z"/>
	<path class="st90" d="M107.1,95.7c0.3,0.7,0.5,1.5,1,2c6.8,6.9,13.6,13.7,20.4,20.5c0.5,0.5,1.3,0.7,2,1.1
		c-0.2,1.8-0.5,3.7-0.7,5.5c-2-0.8-3.4-2.3-4.9-3.8c-6.2-6.2-12.4-12.4-18.5-18.6c-1.1-1.1-2.5-2-2.5-3.8
		C104.8,97.4,105.8,96.4,107.1,95.7z"/>
	<path class="st91" d="M398.4,246.4c-8.4-8.5-16.7-17-25.1-25.5c-5.1-5.1-10.1-10.3-15.1-15.5c1.3,0,2.6,0,3.9,0
		c1.4,0.8,2.6,1.7,3.8,2.8c10.7,10.7,21.4,21.4,32,32.1c1.1,1.2,3.3,2.1,2.1,4.5C399.7,245.6,399.2,246.1,398.4,246.4z"/>
	<path class="st92" d="M58.9,203.9c3.4-0.6,5.6,0.7,8,3.4c6.9,7.5,14.4,14.6,21.6,21.8c1,1,1.9,2.2,2.8,3.2
		c-1.9-0.1-3.7-0.2-5.6-0.2c-1.4-0.4-2.5-1.4-3.5-2.4c-7.1-7.2-14.3-14.3-21.4-21.5C59.7,207,57.9,206,58.9,203.9z"/>
	<path class="st93" d="M34.2,158.7c0.6-1,1.4-1.8,2.6-2.3c1.6-0.5,2.4,0.7,3.3,1.6c8.1,8,16.2,16.1,24.2,24.2
		c0.9,0.9,2.1,1.7,1.7,3.3c-1.8,0-3.7,0-5.5,0c-1.5-0.6-2.7-1.6-3.8-2.8c-6.5-6.5-13-13-19.5-19.6C35.9,161.9,34.5,160.6,34.2,158.7
		z"/>
	<path class="st94" d="M357.3,185.6c-0.7-1.6-1.7-2.9-3-4.1c-13.7-13.6-27.3-27.3-41-41c-1-1-1.9-2.3-3.5-2.3c0.9-0.9,2-1.4,3.2-1.5
		c3.1,3.2,6.1,6.5,9.3,9.7c12.9,13.1,25.9,26.2,38.9,39.3C360,185.6,358.7,185.6,357.3,185.6z"/>
	<path class="st50" d="M239.9,354c0-2.1,0-4.2,0-6.3c1.7-1.1,2.7,0.4,3.6,1.3c6.8,6.7,13.5,13.4,20.2,20.2c0.9,0.9,2.4,1.9,1.2,3.6
		c-0.6,1.3-1.8,1.9-2.9,2.6c-0.4,0.2-0.8,0.2-1.1,0C254,368.2,246.6,361.4,239.9,354z"/>
	<path class="st27" d="M265,372.8c0-1-0.6-1.7-1.2-2.4c-7.2-7.2-14.3-14.3-21.5-21.5c-0.7-0.7-1.3-1.3-2.3-1.3c0-1.8,0-3.7,0-5.5
		c0.5,0.2,1.1,0.2,1.5,0.5c9,9,18.3,17.7,26.8,27.2C267.4,371.1,266.3,372.1,265,372.8z"/>
	<path class="st13" d="M115,234.7c-0.7-1.9-2.1-3.3-3.5-4.7c-8.3-8.4-16.6-16.9-24.9-25.3c1.6,0,3.2,0.1,4.8,0.1
		c0.5,0.2,1,0.5,1.5,0.7c0.7,1.7,1.9,3.1,3.2,4.4c7.4,7.3,14.7,14.7,22,22c1,1,2.3,1.8,2.4,3.4C118.6,235.4,116.8,235.4,115,234.7z"
		/>
	<path class="st13" d="M66,185.5c-9.5-9.9-19.1-19.8-29.2-29.1c0.8-0.8,1.7-1.5,2.5-2.3c10.8,10.2,21.2,20.7,31.4,31.4
		C69.2,185.5,67.6,185.5,66,185.5z"/>
	<path class="st71" d="M34.2,158.7c8.8,9,17.5,17.9,26.3,26.9c-2.1,0-4.2,0-6.3,0c-0.2-0.6-0.3-1.3-0.8-1.7
		c-6.9-7-13.9-14-20.9-20.9c-0.5-0.5-1.4-0.6-2.1-1C31.8,160.8,33,159.7,34.2,158.7z"/>
	<path class="st81" d="M58.9,203.9c0.1,1.8,1.6,2.6,2.6,3.7c8,8.2,16.1,16.3,24.2,24.5c-1.3,0.4-1.7,1.3-1.6,2.6
		c-10.8-10.2-21.2-20.8-31.5-31.5c1.6,0,3.2,0,4.7,0C57.9,203.4,58.4,203.6,58.9,203.9z"/>
	<path class="st95" d="M96.8,233c-0.1-1.7-1.4-2.4-2.4-3.4c-7.4-7.4-14.8-14.8-22.1-22.2c-1-1-2.3-1.8-2.3-3.5
		c1.6,0,3.2,0.1,4.8,0.1c0.3,0.2,0.5,0.4,0.8,0.6c0,1.7,1.4,2.5,2.4,3.5c7.1,7.2,14.3,14.3,21.5,21.5c0.9,0.9,1.7,1.9,2.6,2.8
		c-1,0.9-2,0.4-2.8,0.6C98.4,233,97.6,233,96.8,233z"/>
	<path class="st84" d="M374.7,204.6c0.1,1.8,1.5,2.7,2.6,3.8c8.8,8.8,17.6,17.6,26.4,26.5c1.1,1.1,2.5,2,2.6,3.8
		c-0.5,0.5-1.1,1-1.6,1.5c-8.2-8.3-16.4-16.7-24.6-25c-3.4-3.5-6.8-7-10.1-10.5C371.6,204.7,373.2,204.7,374.7,204.6z"/>
	<path class="st3" d="M296.6,311.3c-2.3,9.6,2.8,15.8,9.7,21.1c0.2,0.2,0.5,0.3,0.7,0.4c-2.8,2.8-5.5,5.6-8.4,8.3
		c-1.1,1.1-2.7,2.1-2.7-0.6c-0.1-12.5,0.1-24.9,0.2-37.4c0-0.2,0.3-0.4,0.4-0.6C296.5,305.4,296.6,308.3,296.6,311.3z"/>
	<path class="st58" d="M381.8,262.1c-1,0.9-2.1,1.7-3.1,2.6c-1.5-0.3-2.4-1.5-3.4-2.5c-5.9-6-12.1-11.8-17.9-18
		c0.9-1.3,1.9-2.4,3.3-3.1c1.7-1.1,2.7,0.4,3.6,1.3c5.5,5.3,10.8,10.7,16.2,16.2C381.4,259.4,382.9,260.4,381.8,262.1z"/>
	<path class="st66" d="M315.5,207.1c7.7,7.8,15.5,15.7,23.2,23.5c1,1.1,2.7,2,1.3,3.9c-0.8,0-1.6,0.1-2.4,0.1
		c-8.4-8.6-16.9-17.2-25.3-25.7c-2.2-2.3-5.3-0.7-7.9-1.2C308.1,206.7,311.8,207.1,315.5,207.1z"/>
	<path class="st13" d="M239.9,354c3.5,1.5,5.6,4.6,8.2,7.2c4.7,4.7,9.3,9.5,14,14.2c-1.1,1-2.2,2.1-3.4,3.1
		c-4.5-2.6-7.5-6.8-11.1-10.3c-2.8-2.7-6-5-7.8-8.7C239.9,357.7,239.9,355.9,239.9,354z"/>
	<path class="st60" d="M415,230.7c-9.2-8.6-18.2-17.6-26.8-26.8c2.3-0.8,4.7-0.9,7.1-0.7c0,2,1.2,3.3,2.5,4.6
		c5.7,5.6,11.3,11.2,16.9,16.9c1.1,1.1,2.5,2,2.8,3.7C416.9,229.4,416.1,230.2,415,230.7z"/>
	<path class="st62" d="M360.5,232.2c-1.8,0.4-3.6,1-5.5,0.7c-0.4-1.8-1.6-2.9-2.8-4.1c-6.1-6.1-12.2-12.2-18.3-18.4
		c-1.1-1.1-2.8-2-2.6-4.1c1.6,0,3.1-0.1,4.7-0.1c2.2,1,3.8,2.8,5.4,4.5c5.8,5.8,11.5,11.5,17.2,17.3
		C359.8,229.1,361.7,230.1,360.5,232.2z"/>
	<path class="st96" d="M27.3,165.1c7.2,6.4,13.9,13.4,20.6,20.4c-2.1,0-4.2,0-6.3,0c-3.3-1.5-5.4-4.4-7.8-6.9
		c-3.3-3.4-7.3-6.3-9.7-10.5C25.1,167.1,26.2,166.1,27.3,165.1z"/>
	<path class="st75" d="M360.5,232.2c0-1.8-1.5-2.6-2.6-3.7c-7.3-7.5-14.6-14.9-21.9-22.3c0.2-0.1,0.4-0.1,0.6-0.1
		c1.4,0,2.7,0.1,4.1,0.1c7.5,7.6,15,15.3,22.5,22.8c1.4,1.4,2,2.3-0.4,3.1C362.1,232.2,361.3,232.2,360.5,232.2z"/>
	<path class="st97" d="M400,244.8c0-1.8-1.6-2.7-2.6-3.8c-10.8-10.8-21.6-21.6-32.4-32.4c-1-1-1.9-2.2-2.9-3.2
		c2.1-0.2,3.5,0.5,5,2.1c10.5,10.8,21.2,21.4,31.9,32.1c1.1,1.1,2.6,1.9,2.6,3.8C401.3,244.1,400.7,244.6,400,244.8z"/>
	<path class="st98" d="M422.8,223.5c-1,0.8-2,1.7-2.9,2.5c-1.6,0.5-2.4-0.7-3.3-1.6c-5.5-5.4-11-10.8-16.3-16.4
		c-1.3-1.4-2.9-2.7-2.6-5c1.6,0,3.1-0.1,4.7-0.1c1.5,0.3,2.4,1.5,3.4,2.5c4.9,4.9,9.8,9.7,14.6,14.6
		C421.3,221.1,422.6,222,422.8,223.5z"/>
	<path class="st99" d="M373.1,270c-0.2-1.9-1.8-2.8-3-3.9c-5.9-5.7-11.3-11.9-17.6-17.2c0.6-1,1.4-1.8,2.5-2.3
		c1.3-1,2.3-0.1,3.1,0.7c5.9,5.7,11.7,11.5,17.4,17.4c0.6,0.6,1.2,1.4,0.8,2.4C375.4,268.2,374.6,269.4,373.1,270z"/>
	<path class="st100" d="M397.7,203.1c6.4,8.6,14.5,15.6,22.2,22.9c-0.8,0.8-1.6,1.5-2.4,2.3c-7.9-7-15-14.9-22.6-22.1
		c-1.4-1.4-0.7-2.2,0.4-3.1C396.1,203.1,396.9,203.1,397.7,203.1z"/>
	<path class="st101" d="M239.9,359.5c6.5,6.1,12.9,12.3,18.8,19c-1.1,1-2.1,2.1-3.2,3.1c-6-4.2-10.6-9.9-15.7-15
		C239.9,364.3,239.9,361.9,239.9,359.5z"/>
	<path class="st24" d="M331.3,206.3c7.7,7.8,15.4,15.6,23.1,23.4c0.9,0.9,2.7,1.7,0.6,3.2c-0.8,0-1.6,0.1-2.4,0.1
		c-6.9-9.4-16-16.8-24.1-25.1c-1.8-1.9-4.5-0.7-6.8-0.8c-0.5,0-1.1-0.1-1.6-0.1C323.9,205.8,327.6,206.4,331.3,206.3z"/>
	<path class="st102" d="M239.9,366.6c3.5,1.2,5.3,4.5,7.8,6.9c2.8,2.6,5.2,5.4,7.8,8.2c-1,1.6-2.3,2.9-4,3.7
		c-4.7-3-8.6-6.9-11.7-11.6C239.9,371.4,239.9,369,239.9,366.6z"/>
	<path class="st103" d="M16.3,175.4c1.1-1.5,2.3-3,4-3.9c1.1-0.9,2-0.3,2.8,0.4c3.7,3.5,7.4,7,10.7,10.8c0.7,0.8,1.2,1.7,0.7,2.9
		c-6.4,0-12.8,0.6-19.2-0.5c3.2-2.1,6.6-1.1,9.6-0.8C22.4,181.4,18.9,178.8,16.3,175.4z"/>
	<path class="st104" d="M34.4,185.5c-3.9-5.5-8.4-10.4-14.2-14.1c1.1-1.3,2.1-2.6,3.7-3.3c6.3,5.4,11.9,11.4,17.6,17.4
		C39.2,185.5,36.8,185.5,34.4,185.5z"/>
	<path class="st28" d="M165.5,45c1.4-1.6,2.7-3.3,4.7-4.2c4.5,2.9,7.8,7,11.3,10.8c0.7,0.8,1.1,1.8,0.7,2.9
		c-1.1,1.2-2.2,2.5-3.3,3.7C173.6,54.7,169.2,50.1,165.5,45z"/>
	<path class="st30" d="M208.9,22.8c-1.8,2.1-3.7,4.2-5.5,6.3c-3.5-3.3-7-6.7-10.3-10.3c1.6-2.4,3.2-4.7,4.8-7.1
		C201.7,15.4,205.4,19,208.9,22.8z"/>
	<path class="st31" d="M376.3,267c-6.4-6.5-12.8-13.1-19.2-19.5c-0.5-0.5-1.4-0.6-2.1-0.9c0.6-1,1.3-1.9,2.4-2.4
		c0.6,0.2,1.4,0.3,1.8,0.7c6.5,6.6,13,13.2,19.5,19.8C378.1,265.7,377.4,266.5,376.3,267z"/>
	<path class="st55" d="M367.5,233.9c7.6,6.6,14.6,13.9,21.4,21.3c-1,0.6-0.9,2.2-2.4,2.3c-1-0.3-1.9-0.9-2.6-1.7
		c-6.3-6.3-12.6-12.5-18.8-18.9C365.9,235.9,366.7,234.9,367.5,233.9z"/>
	<path class="st62" d="M365.2,237c0.7,0.3,1.6,0.4,2.1,0.9c6.5,6.5,12.9,13.1,19.3,19.6c-0.9,0.7-1.1,2-2.4,2.3
		c-1.4-0.2-2.3-1.3-3.2-2.2c-5.1-5.1-10.3-10.2-15.3-15.4c-1-1.1-2.7-1.9-2.1-3.9C364.1,237.9,364.6,237.4,365.2,237z"/>
	<path class="st105" d="M422.8,223.5c-7.1-6.6-14-13.4-20.5-20.5c0,0,0,0,0,0c1.6-0.7,3.2-0.2,4.8-0.4c4.7,3.4,8.3,8,12.4,12
		c2,2,4.6,3.6,5.5,6.5C424.7,222.3,423.9,223,422.8,223.5z"/>
	<path class="st106" d="M186,26c1-1.6,2.3-2.9,3.9-4c0.3-0.2,0.8-0.5,1.1-0.4c4.2,2.7,8.2,5.6,10,10.6c-1.2,1.6-2.1,3.6-3.9,4.7
		C192.6,34.1,189.1,30.2,186,26z"/>
	<path class="st89" d="M239.9,373.8c3.9,3.9,7.8,7.7,11.7,11.6c-2.4,1.8-4.5,4.7-8,2.6c-3.5-2-3.9-5.6-3.8-9.2
		C239.8,377.1,239.8,375.5,239.9,373.8z"/>
	<path class="st107" d="M171,66.9c-4.6-4.9-9.1-9.8-14.3-14.1c0.9-1.2,2-2.3,3.4-3c0.5-0.2,1.1-0.2,1.5,0.2
		c4.5,4.2,9.3,8.1,12.8,13.3C173.4,64.6,172.6,66.1,171,66.9z"/>
	<path class="st108" d="M363.6,238.4c5,6.2,11.2,11.4,16.6,17.1c1.3,1.4,2.6,2.9,4,4.3c-0.5,1-1.3,1.9-2.3,2.3
		c0-1.5-1.2-2.3-2.1-3.2c-5.3-5.3-10.5-10.6-15.8-15.9c-0.9-0.9-1.6-2.1-3.2-2.1C361.7,240.1,362.6,239.3,363.6,238.4z"/>
	<path class="st109" d="M16.3,175.4c4.3,1.8,6.4,5.9,9.7,9.6c-3.6,0-7.2,0-10.7,0c-3.1-1.8-3.8-3.9-1.9-6.6
		C14.1,177.2,15.3,176.4,16.3,175.4z"/>
	<path class="st110" d="M178.2,33.1c1.3-1.1,2.6-2.1,3.9-3.2c0.9-0.7,1.8-0.5,2.5,0.2c3.4,3.2,7.2,6.1,9.6,10.2c-1,1.4-1.7,3-3.2,4
		c-1.4,0.6-2.2-0.4-3-1.2C184.7,39.7,181.2,36.6,178.2,33.1z"/>
	<path class="st111" d="M194.1,40.3c-3.3-2.2-5.7-5.4-8.6-8.1c-1-1-1.8-2.3-3.5-2.3c1-1.6,2.4-2.9,3.9-4c2.6,0.1,3.1,2.7,4.4,4.1
		c2.2,2.4,5.3,3.8,6.7,6.8C196.1,38,195.6,39.6,194.1,40.3z"/>
	<path class="st55" d="M182.2,54.6c-1.9-4.2-5.8-6.6-8.7-9.9c-1.1-1.3-2.6-2.2-3.3-3.8c0.8-0.7,1.5-1.5,2.3-2.2
		c1.1-0.7,2.1-0.3,2.9,0.4c3.3,3,6.4,6.1,9.4,9.4c0.7,0.8,1.3,1.7,0.5,2.8C184.5,52.6,183.5,53.7,182.2,54.6z"/>
	<path class="st112" d="M208.9,22.8c-4.6-2.7-8.3-6.4-11-11c0.5-1.3,1.1-2.6,1.6-4c1.4-0.5,2.2,0.6,3,1.3c3,2.9,6,5.8,8.8,8.9
		C211.2,20,209.9,21.4,208.9,22.8z"/>
	<path class="st113" d="M410.3,202.4c1.6,0,3.1-0.1,4.7-0.1c5.8,3.9,10.1,9.5,15.1,14.2c-0.8,0.8-1.7,1.6-2.5,2.3
		c-1.1,0.9-2,0.3-2.8-0.4c-4.8-4.6-9.6-9.3-14.1-14.2C410.3,203.7,410.1,203.1,410.3,202.4z"/>
	<path class="st58" d="M165.5,45c4.8,4.1,9.2,8.6,13.4,13.3c-0.7,1.4-1.8,2.5-3.1,3.4c-4-3.7-7.7-7.7-11.6-11.5
		c-0.8-0.8-1.8-1.6-1.2-3C163.7,46.2,164.4,45.3,165.5,45z"/>
	<path class="st114" d="M185.2,51.2c-3.4-5.1-7.5-9.5-12.7-12.6c1.2-1.3,2.2-2.8,4-3.3c4.4,2.7,7.5,6.8,11,10.4
		c0.6,0.7,0.9,1.6,0.2,2.5C186.8,49.2,186,50.2,185.2,51.2z"/>
	<path class="st115" d="M211.3,18.1c-3.6-1.2-5.3-4.7-8-6.9c-1.3-1-2.5-2.2-3.7-3.3c-0.1-2,0.3-3.9,1.5-5.6c2.4,2,4.4,4.4,6.6,6.6
		c1.1,1,2,2.2,3.7,1.4C212.9,12.8,212,15.4,211.3,18.1z"/>
	<path class="st46" d="M410.3,202.4c5.1,5.2,10.2,10.4,15.3,15.5c0.5,0.5,1.4,0.6,2.1,0.9c-0.4,1.3-1.8,1.4-2.6,2.3
		c-5.3-5.2-10.6-10.5-16-15.7c-0.7-0.7-1.2-1.4-1.2-2.4c0.4-0.6,1.1-0.3,1.6-0.7C409.7,202.4,410,202.4,410.3,202.4z"/>
	<path class="st116" d="M187.6,48.1c-0.9-3.4-4.2-4.9-6.2-7.4c-1.5-1.9-3.8-3.3-5-5.5c0.6-0.7,1.1-1.4,1.7-2.2
		c3.4,0.9,4.8,4.2,7.3,6.2c1.9,1.6,3.3,3.7,5.5,5C190.3,46,189.1,47.2,187.6,48.1z"/>
	<path class="st117" d="M201,32.3c-3.5-3.7-6.4-7.9-11.1-10.3c0.8-1.3,1.9-2.3,3.2-3.1c4.4,2.4,7.8,5.9,10.3,10.3
		C202.6,30.2,201.8,31.2,201,32.3z"/>
	<path class="st61" d="M163.1,47.1c2.9,4.1,6.9,7.1,10.2,10.8c1,1.1,2.5,2,2.5,3.8c-0.5,0.5-1,1-1.5,1.5c-4.8-4.5-9.5-9-14.3-13.4
		C160.7,48.5,162,47.9,163.1,47.1z"/>
	<path class="st118" d="M434.2,212.6c-0.4,1.3-1.9,1.3-2.7,2.2c-0.9,0.8-1.8,0.4-2.5-0.2c-3.8-3.5-7.5-6.9-10.7-10.9
		c-0.3-0.4-0.4-1-0.1-1.5c0.2-0.1,0.5-0.1,0.7,0c1.3-0.7,2.8-0.2,4.2-0.3C427.7,204.5,431.2,208.3,434.2,212.6z"/>
	<path class="st119" d="M211.3,10.1c-0.3,0.9,0,3.2-1.6,1.7c-3.1-2.9-7-5.3-8.7-9.6c1.8-2.8,3.8-3,6-0.4
		C209.2,4.3,210.9,6.9,211.3,10.1z"/>
	<path class="st120" d="M253.2,12.6c-4.5-2-7-6.1-10.2-9.5c4.3-4.6,6.3-4.2,8.1,1.6C251.8,7.3,252.4,10,253.2,12.6z"/>
	<path class="st121" d="M434.2,212.6c-3.9-3.1-7.3-6.6-10.4-10.4c1.5-0.9,3.2-0.2,4.7-0.4c3.8,1.4,5.8,4.8,8.5,7.5
		C436.5,210.8,435.6,212,434.2,212.6z"/>
	<path class="st122" d="M437,209.3c-3.5-1.4-5.4-4.5-7.8-7.1c-0.3-0.2-0.4-0.3-0.3-0.4c0.1-0.1,0.2-0.2,0.3-0.2c1,0,2.1-0.1,3.1-0.1
		C438.5,201.5,440,204.1,437,209.3z"/>
	<path class="st123" d="M418.2,202.3c4.2,4.5,7.9,9.4,13.3,12.6c-0.1,0.8-0.7,1.3-1.4,1.6c-2.7-0.4-3.9-2.8-5.7-4.5
		c-3.3-3.1-6.3-6.5-9.5-9.8C416.1,202.3,417.1,202.3,418.2,202.3z"/>
	<path class="st123" d="M429.3,201.6c0,0.2,0,0.4,0,0.6c-1.8,0-3.7,0-5.5,0.1c-1.6,0-3.2-0.1-4.8-0.1
		C422.3,201,425.8,201.6,429.3,201.6z"/>
	<path class="st98" d="M409.5,202.4c-0.5,0.2-1,0.4-1.6,0.7c-1.9,0-3.7,0-5.6,0C404.6,201.7,407.1,202.4,409.5,202.4z"/>
	<path class="st116" d="M278.4,309.7c-1.7,0-2.5-1.4-3.5-2.3c-11.1-11-22.1-22-33.2-32.9c-1-1-1.2-1.9-1.2-3.1c0-3.5,0-7.1,0.1-10.6
		c4.9,3,8.4,7.5,12.5,11.4c8.5,8.3,16.9,16.6,25.3,24.9C278.4,301.3,278.4,305.5,278.4,309.7z"/>
</g>
<g>
	<path class="st124" d="M225.8,416.4c64.5,0,128.9,0,193.4,0c8.4,0,12.7,4.3,12.7,12.9c0,23.2-0.2,46.4,0.1,69.5
		c0.1,7.4-4.2,13.3-13.5,13.2c-19.1-0.1-38.1,0-57.2,0c-109.2,0-218.4,0-327.5,0c-10.6,0-14.8-4.2-14.8-14.8c0-22.3,0-44.5,0-66.8
		c0-9.6,4.4-14,13.9-14C97.2,416.4,161.5,416.4,225.8,416.4z"/>
	<path d="M297.9,509c-40.1,0-80.2-0.1-120.3,0.1c-3.8,0-4.8-1.1-4.8-4.8c0.2-27,0.1-54,0-81c0-3.3,0.9-4.2,4.2-4.2
		c80.4,0.1,160.7,0.1,241.1,0.1c8,0,11.5,3.6,11.5,11.6c0.1,22.2,0.1,44.5,0.2,66.7c0,7.2-4.3,11.5-11.6,11.5
		C378.2,509,338.1,509,297.9,509z"/>
	<path d="M85.4,464.6c0,10.7-0.1,21.1,0.1,31.4c0,2.6-0.6,3.3-3.3,3.3c-8-0.1-8,0.1-8-8c0-19.5,0.1-39-0.1-58.5
		c0-2.9,0.5-3.8,3.6-3.8c7.6,0.2,7.6,0,10,7.3c3.1,9.5,6.3,18.9,9.6,29.2c3.7-11.2,7.2-21.5,10.4-31.9c1-3.4,2.4-4.8,6.2-4.6
		c6.7,0.4,6.8,0.1,6.8,6.9c0,19.9-0.1,39.8,0.1,59.7c0,2.9-0.6,3.8-3.6,3.7c-7.9-0.2-7.9,0-7.9-7.8c0-8.6,0-17.3,0-25.9
		c-0.3-0.1-0.5-0.1-0.8-0.2c-2,6.1-4.2,12.2-5.9,18.4c-1,3.5-2.6,4.9-6.3,4.5c-2.1-0.2-2.9-0.9-3.5-2.8c-1.6-5.4-3.4-10.8-5.2-16.1
		C87.1,467.9,86.9,466.1,85.4,464.6z"/>
	<path d="M130.3,480.8c0-6.3,0-6,6.4-6.4c4.1-0.3,5.3,1.1,4.8,5c-0.2,1.8-0.2,3.7,0.4,5.5c1,3.3,3.5,4.1,6.5,3.8c3-0.3,4.6-2,5-5.1
		c0.9-7.4-1-13.2-8.5-16.3c-1.8-0.7-3.4-1.9-5.1-3c-8.8-5.6-11-10.9-9-22.7c1.5-8.8,9.1-13.9,18.3-13.2c8.9,0.6,15.1,7.2,15.8,16.7
		c0,0.7-0.1,1.3,0,2c0.6,3.3-0.5,5-4.2,4.3c-0.3-0.1-0.5,0-0.8,0c-6.2,0-6.3,0-6.6-6.1c-0.2-3.3-1.9-5.1-5.1-5.4
		c-3.3-0.3-5.6,1-6.5,4.4c-1.1,4.4,0,7.7,3.8,10.2c3.3,2.2,6.8,4,10.1,6.2c9.4,6.3,12.5,22.5,6.4,32c-4.1,6.3-11.6,8.9-19.8,6.8
		c-6.6-1.7-11.4-7.9-11.9-15.1C130.2,483.1,130.3,482,130.3,480.8z"/>
	<path d="M64.6,479.5c1.3,15.8-10.8,22.9-22.2,19.9c-6.8-1.8-11.8-7.9-12.2-15.2c0-0.5,0-1.1,0-1.6c-0.1-9-0.1-8.9,9-8.2
		c1.7,0.1,2.4,0.6,2.3,2.3c-0.1,2.2-0.1,4.5,0.1,6.7c0.3,3.6,2.4,5.3,6.1,5.2c3.5-0.1,5.3-2,5.6-5.3c0.8-6.9-0.7-12.5-7.6-15.7
		c-2.3-1-4.3-2.6-6.5-3.8c-10.1-5.7-10.8-16.7-7.5-25.5c2.7-7.4,10.5-11.2,18.6-9.9c7.9,1.3,13.5,7.2,14.3,15.1
		c0.7,7.7,0.7,7.6-7,7.7c-2.9,0.1-4.7-0.2-4.3-3.9c0.4-3.2,0-6.5-4-7.5c-2.8-0.7-5.3-0.2-6.9,2.4c-1.7,2.7-1,8.5,1.4,10.6
		c2.4,2.2,5.4,3.8,8.3,5.3C60.8,463,65.8,469.8,64.6,479.5z"/>
	<path class="st124" d="M406.5,463.9c0-9.6,0.1-18.4-0.1-27.2c-0.1-3.1,0.9-3.7,3.8-3.6c6.3,0.2,6.3,0,6.3,6.2
		c0,17.4-0.1,34.7,0.1,52.1c0,2.9-0.5,4.2-3.8,4c-6.3-0.3-6.3,0-8.3-6c-2.6-7.8-5.1-15.6-8.5-23.3c0,5.9,0,11.9,0,17.8
		c0,2,0,3.9,0,5.9c-0.1,6.4,0.7,5.1-5.4,5.5c-3.8,0.3-4.8-0.9-4.7-4.7c0.2-17.9,0.2-35.8,0-53.7c0-3,0.7-4.1,3.9-3.9
		c6.1,0.2,6.1,0,8,5.8c2.6,7.8,5.2,15.7,7.8,23.6C405.6,462.6,405.8,462.8,406.5,463.9z"/>
	<path class="st124" d="M307.9,464c0-9.2,0.1-18.4-0.1-27.6c0-2.6,0.7-3.4,3.3-3.3c2.9,0.2,5.8,0,8.7,0.1c13,0,19.4,7.4,17.9,20.4
		c-0.4,3.5-3.4,6.4-3.5,9.3c-0.1,2.8,3.7,5.4,4.1,9c0.4,3.5,0.6,7.1,0.1,10.6c-1.1,7.5-6.9,12.5-14.7,12.8c-4.3,0.1-8.7-0.1-13,0.1
		c-2.4,0.1-2.8-0.9-2.8-3C308,482.9,307.9,473.5,307.9,464z"/>
	<path class="st124" d="M269.2,463.9c0-9.2,0.1-18.4-0.1-27.6c0-2.7,0.8-3.4,3.3-3.2c5,0.3,10-0.4,14.9,0.4
		c7.1,1.2,12,6.7,12.2,13.8c0.1,3.4,0,6.8,0,10.3c0,2.7-0.4,5.6-2.4,7.3c-3.5,3.1-2.5,6.3-1.4,9.9c1.7,5.6,2.9,11.4,4.6,17.1
		c0.7,2.5,0.6,3.5-2.4,3.4c-7.2-0.1-7.2,0.1-9-6.8c-1.2-4.7-2.8-9.3-3.6-14.1c-0.6-3.1-2.3-2.8-4.5-2.8c-2.8,0-1.8,2.1-1.8,3.4
		c-0.1,5.7-0.2,11.3,0,17c0.1,2.6-0.7,3.3-3.3,3.3c-6.6-0.1-6.6,0-6.6-6.6C269.2,480.5,269.2,472.2,269.2,463.9z"/>
	<path class="st124" d="M377.4,464.6c0,5.5,0,11,0,16.6c-0.1,8.5-6.4,14.7-15.1,14.9c-8.3,0.2-15.1-5.9-15.3-14.3
		c-0.3-11.7-0.2-23.4,0-35.1c0.2-8.7,6.7-14.3,15.6-14.1c8.5,0.2,14.6,6.2,14.7,14.7C377.5,453.1,377.4,458.9,377.4,464.6z"/>
	<path class="st124" d="M255.2,495.3c-3.7,1.2-4.8-1-5.2-4.9c-0.1-1.6,0.4-4.5-1.6-4.9c-3-0.6-6.3-0.5-9.4,0.1c-1.3,0.3-1,3-1.4,4.6
		c-0.5,1.7,0.2,4.4-1.7,4.8c-2.7,0.6-5.8,0.3-8.6,0c-1.1-0.1-0.5-1.2-0.3-1.9c3.8-19.3,7.7-38.7,11.5-58c0.3-1.6,1.1-2,2.7-2.1
		c7.6-0.5,7.5-0.5,9,6.9c3.3,16.6,6.6,33.3,9.9,49.9C261.2,495.3,261.3,495.3,255.2,495.3z"/>
	<path class="st124" d="M190.7,464.2c0-5.4-0.1-10.8,0-16.2c0.2-10.1,7.2-16.3,17.2-15.4c8.9,0.9,14.9,9.2,13.4,18.5
		c-0.2,1.1-0.5,1.6-1.6,1.6c-2.2,0-4.5-0.1-6.7,0c-1.5,0-1.7-0.8-1.7-2c0-1.2,0-2.4-0.1-3.5c-0.3-3.2-2.2-4.7-5.2-4.7
		c-3.1,0-5.1,1.8-5.1,4.9c-0.1,11.2-0.1,22.4,0,33.5c0,3,1.8,4.9,5,5c3.1,0.1,4.9-1.4,5.4-4.5c0.1-0.5,0.1-1,0.2-1.6
		c0.2-2.1-0.9-5.3,0.5-6c2.3-1.1,5.3-0.4,8.1-0.6c1.3-0.1,1.5,0.8,1.4,1.8c-0.1,3.1,0.1,6.4-0.5,9.4c-1.4,7.1-8.1,11.9-15.3,11.6
		c-7.9-0.4-13.8-5.3-14.4-13c-0.5-6.3-0.1-12.6-0.1-18.9C190.8,464.2,190.7,464.2,190.7,464.2z"/>
	<path d="M318.1,476.6c0-0.9-0.2-1.9,0-2.8c0.4-2.2-1.9-5.8,3.3-5.5c5.5,0.3,7,1.3,7.1,6c0,1.2,0,2.4,0,3.6c0,6.2-2.9,8.5-9,7.3
		c-1.3-0.3-1.4-0.9-1.4-1.9C318.1,481.1,318.1,478.9,318.1,476.6z"/>
	<path d="M327.6,451.5c-0.1,1.1,0.3,2.7-0.5,4.2c-1.7,3.4-4.8,2.8-7.6,2.5c-3-0.3-1.3-2.8-1.5-4.3c-0.3-2.1-0.3-4.2,0-6.3
		c0.2-1.5-1.7-4.1,1.9-4.4c4.5-0.3,7.1,1.1,7.6,4.3C327.8,448.7,327.6,449.9,327.6,451.5z"/>
	<path class="st125" d="M289.7,452.5c0,1.6,0.1,3.2,0,4.7c-0.2,2-1.2,3.7-3.1,4.1c-2.3,0.6-4.7,0.6-7-0.1c-0.8-0.2-0.5-1.4-0.5-2.1
		c0-4.5,0.1-8.9,0-13.4c0-1.8,0.5-2.4,2.4-2.5C288.5,442.9,289.8,444.3,289.7,452.5z"/>
	<path class="st126" d="M356.9,463.7c0-5,0-10,0-15c0-4,1.8-6.1,5.1-6.2c3.3-0.1,5.4,1.7,5.4,5.7c0.2,10.6,0.2,21.3,0,31.9
		c-0.1,4.2-1.9,5.9-5.4,5.8c-3.4-0.1-5.1-2-5.1-6.1C356.8,474.5,356.9,469.1,356.9,463.7z"/>
	<path class="st127" d="M244.2,458.1c1,5.2,2.2,10.4,2.8,15.7c0.3,2.9-2.5,1.2-3.9,1.5c-1.7,0.4-2.7-0.2-2.3-2.3
		c0.9-4.9,1.8-9.8,2.7-14.7C243.7,458.2,244,458.1,244.2,458.1z"/>
</g>
</svg>
