<?xml version="1.0" encoding="utf-8"?>
<!-- Generator: Adobe Illustrator 28.0.0, SVG Export Plug-In . SVG Version: 6.00 Build 0)  -->
<svg version="1.1" id="Capa_1" xmlns="http://www.w3.org/2000/svg" xmlns:xlink="http://www.w3.org/1999/xlink" x="0px" y="0px"
	 viewBox="0 0 1000 1000" style="enable-background:new 0 0 1000 1000;" xml:space="preserve">
<style type="text/css">
	.st0{fill:#FFFFFF;}
	.st1{fill:#267B3E;}
</style>
<g id="XMLID_32_">
	<g>
		<g>
			<path class="st0" d="M433.2,554.8l-0.1-34.9l25.3-0.1v5.9l-17.8,0.1v8.3L456,534v5.9l-15.4,0.1v14.8H433.2z"/>
			<path class="st0" d="M469.8,537.1l-6.4-1.1c0.7-2.4,2-4.3,3.7-5.4c1.8-1.2,4.4-1.8,7.9-1.8c3.2,0,5.5,0.3,7.1,1
				c1.5,0.7,2.6,1.6,3.3,2.7c0.6,1.1,1,3.1,1,6l-0.1,7.8c0,2.2,0.1,3.9,0.4,4.9c0.2,1.1,0.7,2.2,1.3,3.4h-7c-0.2-0.4-0.4-1.1-0.7-2
				c-0.1-0.4-0.2-0.7-0.3-0.8c-1.2,1.1-2.5,2-3.9,2.5c-1.4,0.6-2.8,0.8-4.4,0.8c-2.8,0-4.9-0.7-6.5-2.1c-1.6-1.4-2.4-3.2-2.4-5.3
				c0-1.4,0.4-2.7,1.1-3.8s1.7-2,3-2.6s3.2-1.1,5.6-1.6c3.3-0.6,5.6-1.1,6.9-1.7v-0.7c0-1.3-0.3-2.2-1-2.7s-1.9-0.8-3.8-0.8
				c-1.3,0-2.2,0.2-2.9,0.7C470.8,535.1,470.3,535.9,469.8,537.1z M479.3,542.5c-0.9,0.3-2.3,0.6-4.3,1s-3.2,0.8-3.9,1.2
				c-0.9,0.6-1.4,1.4-1.4,2.4c0,0.9,0.4,1.7,1.1,2.4s1.7,1,2.8,1c1.3,0,2.5-0.4,3.6-1.2c0.9-0.6,1.4-1.3,1.7-2.2
				c0.2-0.6,0.3-1.7,0.3-3.3L479.3,542.5z"/>
			<path class="st0" d="M492.7,529.3h6.5v3.5c2.3-2.7,5.1-4,8.3-4.1c1.7,0,3.2,0.3,4.5,1s2.3,1.7,3.1,3c1.2-1.4,2.4-2.4,3.8-3
				c1.4-0.7,2.8-1,4.4-1c2,0,3.6,0.4,5,1.1c1.4,0.7,2.4,1.9,3.1,3.3c0.5,1.1,0.7,2.8,0.7,5.2l0.1,16.2h-7.1v-14.4
				c0-2.5-0.3-4.1-0.7-4.9c-0.7-1-1.7-1.4-3-1.4c-1,0-1.9,0.3-2.8,0.9c-0.9,0.6-1.5,1.4-1.9,2.5s-0.6,2.8-0.6,5.2v12.1H509v-13.9
				c0-2.5-0.1-4-0.4-4.8c-0.3-0.7-0.6-1.2-1.2-1.6c-0.5-0.3-1.2-0.5-2.2-0.5c-1.1,0-2.1,0.3-2.9,0.8c-0.9,0.6-1.5,1.4-1.9,2.4
				s-0.6,2.8-0.5,5.2v12.3h-7.1L492.7,529.3z"/>
			<path class="st0" d="M539,525.8v-6.2h7.1v6.2H539z M539.1,554.5l-0.1-25.3h7.1l0.1,25.3H539.1z"/>
			<path class="st0" d="M553.5,554.4l-0.1-34.9h7.1l0.1,34.9H553.5z"/>
			<path class="st0" d="M567.7,525.7v-6.2h7.1v6.2H567.7z M567.8,554.4l-0.1-25.3h7.1l0.1,25.3H567.8z"/>
			<path class="st0" d="M587.3,536.7l-6.4-1.1c0.7-2.4,2-4.3,3.7-5.4c1.8-1.2,4.4-1.8,7.9-1.8c3.2,0,5.5,0.3,7.1,1
				c1.5,0.7,2.6,1.6,3.3,2.7c0.6,1.1,1,3.1,1,6l-0.1,7.8c0,2.2,0.1,3.9,0.4,4.9c0.2,1.1,0.7,2.2,1.3,3.4h-7c-0.2-0.4-0.4-1.1-0.7-2
				c-0.1-0.4-0.2-0.7-0.3-0.8c-1.2,1.1-2.5,2-3.9,2.5c-1.4,0.6-2.8,0.8-4.4,0.8c-2.8,0-4.9-0.7-6.5-2.1c-1.6-1.4-2.4-3.2-2.4-5.3
				c0-1.4,0.4-2.7,1.1-3.8c0.7-1.1,1.7-2,3-2.6s3.2-1.1,5.6-1.6c3.3-0.6,5.6-1.2,6.9-1.7v-0.7c0-1.3-0.3-2.2-1-2.7s-1.9-0.8-3.8-0.8
				c-1.3,0-2.2,0.2-2.9,0.7C588.3,534.7,587.8,535.6,587.3,536.7z M596.8,542.1c-0.9,0.3-2.3,0.6-4.3,1s-3.2,0.8-3.9,1.2
				c-0.9,0.6-1.4,1.4-1.4,2.4c0,0.9,0.4,1.7,1.1,2.4c0.7,0.7,1.7,1,2.8,1c1.3,0,2.5-0.4,3.6-1.2c0.9-0.6,1.4-1.3,1.7-2.2
				c0.2-0.6,0.3-1.7,0.3-3.3L596.8,542.1z"/>
			<path class="st0" d="M642.6,563.7V551c-0.9,1.1-2.1,2-3.4,2.7c-1.4,0.7-2.9,1-4.5,1c-3,0-5.5-1.1-7.5-3.2
				c-2.3-2.5-3.5-5.9-3.5-10.2c0-4.1,1.1-7.2,3.2-9.5c2.2-2.3,4.9-3.4,8.1-3.4c1.8,0,3.3,0.3,4.6,1.1c1.3,0.7,2.5,1.8,3.5,3.2V529
				h6.5l0.1,34.9L642.6,563.7z M642.8,541.2c0-2.6-0.6-4.5-1.7-5.8c-1.1-1.3-2.5-1.9-4.2-1.9s-3.1,0.7-4.3,1.9
				c-1.1,1.3-1.7,3.3-1.7,6.1s0.6,4.8,1.7,6c1.1,1.2,2.5,1.8,4.1,1.8s3-0.7,4.3-2.1C642.2,546,642.8,543.9,642.8,541.2z"/>
			<path class="st0" d="M688.5,554v-3.8c-1,1.4-2.2,2.4-3.8,3.2s-3.3,1.2-5,1.2c-1.8,0-3.4-0.4-4.8-1.1c-1.4-0.7-2.5-1.8-3.1-3.1
				s-1-3.2-1-5.6l-0.1-16h7.1v11.6c0,3.6,0.2,5.7,0.4,6.5c0.3,0.8,0.7,1.4,1.4,1.9s1.6,0.7,2.6,0.7c1.2,0,2.3-0.3,3.2-0.9
				c1-0.6,1.6-1.4,2-2.3c0.3-0.9,0.5-3.2,0.5-6.8v-10.7h7.1l0.1,25.3L688.5,554z"/>
			<path class="st0" d="M717.9,545.8l7,1.1c-0.9,2.4-2.3,4.3-4.3,5.6s-4.4,1.9-7.3,1.9c-4.6,0-8.1-1.4-10.3-4.3
				c-1.8-2.3-2.7-5.2-2.7-8.7c0-4.2,1.1-7.5,3.4-9.9c2.3-2.4,5.2-3.6,8.8-3.6c4,0,7.1,1.2,9.4,3.7c2.3,2.5,3.4,6.3,3.3,11.4
				l-17.7,0.1c0.1,2,0.6,3.5,1.7,4.6c1.1,1.1,2.5,1.6,4.1,1.6c1.1,0,2-0.3,2.8-0.9C716.9,548,717.5,547.1,717.9,545.8z M718.2,539.1
				c-0.1-1.9-0.6-3.4-1.6-4.4s-2.2-1.5-3.7-1.5s-2.8,0.5-3.8,1.6s-1.5,2.5-1.5,4.3L718.2,539.1z"/>
			<path class="st0" d="M745.1,528.5h6.6v3.7c0.9-1.3,2-2.3,3.5-3.1s3.1-1.2,4.9-1.2c3.1,0,5.7,1.1,7.9,3.4c2.2,2.3,3.3,5.5,3.3,9.6
				c0,4.2-1.1,7.5-3.2,9.9c-2.2,2.3-4.8,3.5-7.9,3.5c-1.5,0-2.8-0.3-4-0.8s-2.5-1.5-3.8-2.8v12.7h-7.1L745.1,528.5z M752.2,540.7
				c0,2.8,0.6,4.9,1.8,6.3c1.2,1.4,2.7,2,4.4,2c1.6,0,3-0.6,4.1-1.9c1.1-1.2,1.6-3.3,1.6-6.1c0-2.7-0.6-4.6-1.7-5.9
				c-1.1-1.3-2.5-1.9-4.2-1.9s-3.2,0.6-4.3,1.9C752.7,536.4,752.1,538.2,752.2,540.7z"/>
			<path class="st0" d="M783.7,553.7h-7.1l-0.1-25.3h6.6v3.6c1.1-1.7,2.1-2.8,3-3.4c0.9-0.5,1.9-0.8,3.1-0.8c1.6,0,3.2,0.4,4.7,1.2
				l-2.2,5.8c-1.2-0.7-2.3-1.1-3.3-1.1s-1.8,0.3-2.5,0.8s-1.2,1.5-1.6,2.8c-0.4,1.4-0.6,4.2-0.6,8.5L783.7,553.7z"/>
			<path class="st0" d="M795.3,540.6c0-2.2,0.6-4.4,1.7-6.5c1.1-2.1,2.8-3.7,4.9-4.8c2.1-1.1,4.5-1.7,7.1-1.7c4,0,7.4,1.2,10,3.7
				s3.9,5.6,3.9,9.4c0,3.8-1.3,7-3.9,9.5c-2.6,2.5-5.9,3.8-9.8,3.8c-2.4,0-4.8-0.5-7-1.5s-3.9-2.6-5.1-4.6
				C795.9,546,795.3,543.5,795.3,540.6z M802.5,541c0,2.5,0.6,4.4,1.9,5.8c1.3,1.3,2.8,2,4.7,2c1.8,0,3.4-0.7,4.6-2
				c1.3-1.3,1.9-3.3,1.9-5.8s-0.6-4.4-1.9-5.7c-1.3-1.3-2.8-2-4.6-2s-3.4,0.7-4.7,2C803.1,536.5,802.5,538.5,802.5,541z"/>
			<path class="st0" d="M827.8,555.2l8.1,0.9c0.1,0.9,0.5,1.5,0.9,1.8c0.7,0.5,1.7,0.7,3.2,0.7c1.8,0,3.2-0.3,4.1-0.8
				c0.6-0.3,1.1-0.9,1.4-1.7c0.2-0.6,0.3-1.6,0.3-3.1v-3.7c-2.1,2.7-4.8,4.1-8,4.1c-3.6,0-6.4-1.4-8.5-4.3c-1.7-2.3-2.5-5.1-2.5-8.5
				c0-4.2,1.1-7.5,3.2-9.7c2.1-2.2,4.8-3.4,8-3.4c3.3,0,6,1.4,8.2,4.1v-3.5h6.6l0.1,22.7c0,3-0.2,5.2-0.8,6.7
				c-0.5,1.5-1.2,2.6-2.2,3.5c-0.9,0.8-2.2,1.5-3.8,2s-3.5,0.7-5.9,0.7c-4.5,0-7.8-0.7-9.7-2.2s-2.9-3.3-2.9-5.6
				C827.8,555.8,827.8,555.5,827.8,555.2z M834.1,540.3c0,2.7,0.6,4.6,1.7,5.9c1.1,1.2,2.5,1.9,4.1,1.9c1.7,0,3.2-0.6,4.4-1.9
				c1.2-1.3,1.8-3.2,1.8-5.7c0-2.6-0.6-4.6-1.7-5.8c-1.1-1.3-2.6-1.9-4.3-1.9s-3.1,0.6-4.2,1.9C834.6,535.9,834.1,537.8,834.1,540.3
				z"/>
			<path class="st0" d="M866.7,553.4h-7.1l-0.1-25.3h6.6v3.6c1.1-1.7,2.1-2.8,3-3.4c0.9-0.5,1.9-0.8,3.1-0.8c1.6,0,3.2,0.4,4.7,1.2
				l-2.2,5.8c-1.2-0.7-2.3-1.1-3.3-1.1s-1.8,0.3-2.5,0.8s-1.2,1.5-1.6,2.8c-0.4,1.4-0.6,4.2-0.6,8.5L866.7,553.4z"/>
			<path class="st0" d="M895.5,545.3l7,1.1c-0.9,2.4-2.3,4.3-4.3,5.6s-4.4,1.9-7.3,1.9c-4.6,0-8.1-1.4-10.3-4.3
				c-1.8-2.3-2.7-5.2-2.7-8.7c0-4.2,1.1-7.5,3.4-9.9c2.3-2.4,5.2-3.6,8.8-3.6c4,0,7.1,1.2,9.4,3.7c2.3,2.5,3.4,6.3,3.3,11.4
				l-17.7,0.1c0.1,2,0.6,3.5,1.7,4.6c1.1,1.1,2.5,1.6,4.1,1.6c1.1,0,2-0.3,2.8-0.9C894.5,547.4,895.1,546.5,895.5,545.3z
				 M895.9,538.5c-0.1-1.9-0.6-3.4-1.6-4.4s-2.2-1.5-3.7-1.5s-2.8,0.5-3.8,1.6s-1.5,2.5-1.5,4.3L895.9,538.5z"/>
			<path class="st0" d="M906.2,546.1l7.1-1c0.3,1.3,0.9,2.3,1.8,3c0.9,0.7,2.2,1,3.9,1c1.8,0,3.2-0.3,4.1-1c0.6-0.4,0.9-1,0.9-1.8
				c0-0.5-0.2-0.9-0.5-1.3c-0.4-0.3-1.1-0.6-2.4-0.9c-5.7-1.2-9.3-2.2-10.9-3.2c-2.1-1.4-3.2-3.3-3.2-5.7c0-2.2,0.9-4,2.7-5.5
				s4.7-2.3,8.5-2.3c3.7,0,6.4,0.5,8.2,1.7c1.8,1.1,3,2.8,3.7,5l-6.7,1.2c-0.3-1-0.8-1.7-1.6-2.3c-0.8-0.5-1.9-0.8-3.4-0.8
				c-1.9,0-3.2,0.3-4,0.8c-0.5,0.4-0.8,0.8-0.8,1.4c0,0.5,0.2,0.9,0.7,1.2c0.6,0.4,2.8,1.1,6.6,1.9c3.8,0.8,6.4,1.8,7.9,2.9
				c1.5,1.2,2.2,2.8,2.2,5c0,2.3-1,4.3-3.1,6c-2,1.7-5.1,2.5-9.1,2.5c-3.6,0-6.5-0.7-8.7-2.1C908.2,550.3,906.8,548.4,906.2,546.1z"
				/>
			<path class="st0" d="M942.6,535.6l-6.4-1.1c0.7-2.4,2-4.3,3.7-5.4c1.8-1.2,4.4-1.8,7.9-1.8c3.2,0,5.5,0.3,7.1,1
				c1.5,0.7,2.6,1.6,3.3,2.7c0.6,1.1,1,3.1,1,6l-0.1,7.8c0,2.2,0.1,3.9,0.4,4.9c0.2,1.1,0.7,2.2,1.3,3.4h-7c-0.2-0.4-0.4-1.1-0.7-2
				c-0.1-0.4-0.2-0.7-0.3-0.8c-1.2,1.1-2.5,2-3.9,2.5c-1.4,0.6-2.8,0.8-4.4,0.8c-2.8,0-4.9-0.7-6.5-2.1c-1.6-1.4-2.4-3.2-2.4-5.3
				c0-1.4,0.4-2.7,1.1-3.8c0.7-1.1,1.7-2,3-2.6s3.2-1.1,5.6-1.6c3.3-0.6,5.6-1.2,6.9-1.7v-0.7c0-1.3-0.3-2.2-1-2.7s-1.9-0.8-3.8-0.8
				c-1.3,0-2.2,0.2-2.9,0.7C943.6,533.6,943,534.4,942.6,535.6z M952.1,541c-0.9,0.3-2.3,0.6-4.3,1s-3.2,0.8-3.9,1.2
				c-0.9,0.6-1.4,1.4-1.4,2.4c0,0.9,0.4,1.7,1.1,2.4c0.7,0.7,1.7,1,2.8,1c1.3,0,2.5-0.4,3.6-1.2c0.9-0.6,1.4-1.3,1.7-2.2
				c0.2-0.6,0.3-1.7,0.3-3.3L952.1,541z"/>
		</g>
		<g id="XMLID_95_">
			<g id="XMLID_123_">
				<path class="st1" d="M965.7,533.9c-2.8-15.2-13.9-24.2-29.8-24.2c-76,0.2-152.1,0.5-228.1,0.7c-88.4,0.3-176.8,0.6-265.2,0.9
					c-12.7,0-22.9,7.4-27.1,19.2c-4.1,11.5-0.5,24,9.2,31.9c6.1,4.9,13.3,6.2,21,6.2c81.2-0.4,162.5-0.6,243.8-0.8
					c57.8-0.2,115.5-0.4,173.3-0.6c25.4-0.1,50.8,0,76.2-0.4C955.9,566.5,968.7,550.4,965.7,533.9z M735.9,562.8c1,0,2,0,3-0.1
					c-0.6,0.1-1.4,0.1-2.2,0.1C736.4,562.8,736.1,562.8,735.9,562.8z"/>
			</g>
			<g id="XMLID_112_">
				<path class="st1" d="M255.8,463.1c-3.8,10.3-9.5,19-17.5,26.3c-28.4,26.1-78.8,21.9-101.4-8.6c-18.5-24.9-15.2-56.9,8.1-78
					c29-26.3,78.3-22,101.7,9.2c4.2,5.6,7,12.3,10.6,18.6c0.3-0.5,1-1.1,1.4-2c10.4-24.4,29.3-37.2,55.2-40.2
					c24.3-2.8,45.3,4.6,61,23.4c21.4,25.6,16.9,61.7-9.5,82.2c-30.6,23.8-76,18.6-98.7-11.8C262.4,476.8,259.6,470.1,255.8,463.1z
					 M190.1,405.1c-2.1,0.3-5.8,0.6-9.3,1.4c-30.5,6.5-44,40.3-25.5,63.6c15.5,19.5,46,22.9,65.6,7.2c20.1-16.1,21.3-42.7,2.7-59.9
					C214.4,409.1,203.7,405.3,190.1,405.1z M321.4,406.9c-5.2,1.1-10.7,1.5-15.7,3.3c-15.1,5.5-25.5,15.7-28.4,31.8
					c-2.6,14.7,2.8,26.9,14.2,36.5c18.1,15.3,46.5,14.1,63.2-2.6c15.3-15.2,15.9-38.2,1.2-53.9C346.7,412.2,335,407.6,321.4,406.9z"
					/>
			</g>
			<g id="XMLID_108_">
				<path class="st1" d="M109.9,701.6c3.9-14.4,7.6-28.8,11.7-43.1c9.5-33.8,19.6-67.3,34.1-99.4c6.2-13.6,12.9-27,23.5-37.9
					c12.2-12.4,24.5-12.5,36.7-0.2c12,12.1,19.5,27,25.9,42.4c7.2,17.3,13.4,35,20,52.5c0.3,0.8,0.7,1.5,1.6,3.7
					c1.3-3.7,2.2-6.2,3-8.6c8-23.5,16.1-47,28.8-68.5c4.1-7,8.9-13.8,14.5-19.6c10.9-11.5,23.5-11.9,34.7-0.7
					c6.4,6.4,11.9,14.1,16.4,22c15.4,26.8,25.1,56,34.5,85.3c3.8,11.8,7.3,23.8,10.2,35.9c-5.3-13.2-10.3-26.5-15.9-39.5
					c-8.7-20.5-18-40.7-32-58.3c-2.4-3-5-5.8-7.7-8.4c-13.6-13-28.4-12.8-41.9,0.4c-11,10.8-18.6,23.8-25.4,37.4
					c-5.1,10.1-9.7,20.4-14,30.8c-1.1,2.6-1.1,6.1-0.3,8.9c2.1,8.4,4.9,16.6,6.5,25.1c-3-7.8-6.1-15.6-9.1-23.4
					c-0.6-0.1-1.2-0.2-1.8-0.3c-8.1,22.5-16.1,45-24.2,67.5c-0.2,0-0.3-0.1-0.5-0.1c3-11.4,6-22.9,9.1-34.3
					c3.8-13.5,7.8-27,11.6-40.5c0.5-1.7,0.8-3.9,0.1-5.4c-8.9-21-18-41.9-32.6-59.7c-4.9-5.9-11-11.1-17.5-15.2
					c-8.7-5.6-17.7-3.5-25.9,2.2c-12.5,8.8-20.2,21.4-27.3,34.4c-17.9,32.7-30.1,67.9-42.2,103c-1.4,4-2.7,8.1-4.1,12.1
					C110.5,701.8,110.2,701.7,109.9,701.6z"/>
			</g>
			<path id="XMLID_105_" d="M428.1,473.7c0,5.5-0.1,10.3,0.1,15.2c0.2,4.1-1.7,6.8-5.4,7.9c-3.3,0.9-6.8,1.9-10.1,1.7
				c-9.5-0.4-11.3-2.6-11.3-12c-0.1-23.1-0.2-46.2-0.2-69.3c0-6.2,2.4-10.1,8.6-10.1c22.7,0.1,45.6-3.3,68,2.6
				c6.3,1.7,12.6,4.3,18,7.8c16.8,10.9,16.9,32.8,0.8,44.7c-8.2,6-17.7,9-27.6,10c-10.5,1.1-21.1,1-31.7,1.4
				C434.5,473.8,431.8,473.7,428.1,473.7z M428.9,456c12.1,0,23.8,0.7,35.3-0.4c10.5-1,16.9-7.9,17-15.4c0-7.7-6.2-14.6-16.7-15.6
				c-11.6-1.1-23.5-0.2-35.6-0.1C428.8,434.8,428.9,445.3,428.9,456z"/>
			<path id="XMLID_102_" d="M772.5,448.2c6.4,4.9,12.6,7.2,19.5,7.3c8,0.2,16-0.3,24,0.2c3.3,0.2,6.9,1.3,9.7,3.1
				c4.4,2.7,4.4,7.7,0.3,10.8c-1.7,1.3-4,2.7-6.1,2.6c-14.9-0.4-29.9-0.4-44.7-2.2c-7.4-0.9-15.1-4.6-21.4-8.8
				c-16.5-11.1-16.2-32.7-0.1-44.4c9.9-7.2,21.5-10.1,33.3-10.7c12.5-0.6,25.1-0.5,37.5,0.7c6.3,0.6,12.9,3.5,18.2,7.1
				c9.5,6.5,9.2,18.6,0,25.6c-7.6,5.8-16.6,7.8-26,8c-13.2,0.2-26.4,0.2-39.7,0.3C775.9,447.8,774.7,448,772.5,448.2z M773.4,429.2
				c0.1,0.5,0.3,0.9,0.4,1.4c13.9,0,27.8,0.1,41.6-0.3c2-0.1,5.4-2.1,5.6-3.5c0.5-3.5-2.7-4.2-5.7-4.2c-7.6,0-15.3-0.3-22.9,0.2
				C785.6,423.1,778.9,424.6,773.4,429.2z"/>
			<path id="XMLID_99_" d="M546.8,448.8c6.4,5.1,12.6,7.3,19.4,7.4c8,0.2,16-0.1,24,0.1c2.9,0.1,5.9,0.8,8.5,2
				c6.2,3.1,6.4,9.3,0.4,13c-1.3,0.8-2.9,1.6-4.3,1.6c-16.1-0.2-32.4,2.3-48.2-2.8c-6.2-2-12.6-4.4-17.9-8
				c-16.5-11-16.9-33-0.6-44.2c6.8-4.7,15.2-8.5,23.3-9.4c15.8-1.7,31.8-1.6,47.7-1.1c5.4,0.2,11.2,2.7,16.1,5.5
				c11.7,6.7,11.9,20.4,0.7,28.1c-7.4,5.1-15.9,6.9-24.7,7.1c-12.9,0.2-25.7,0.2-38.6,0.3C551,448.5,549.6,448.6,546.8,448.8z
				 M546.7,431.2c15.7-0.1,30.1,0,44.5-0.3c1.6,0,3.2-2.3,4.7-3.6c-1.7-1.4-3.4-3.8-5.1-3.9c-8.5-0.4-17.1-0.5-25.6,0.1
				C558.9,423.9,552.7,425.6,546.7,431.2z"/>
			<path id="XMLID_98_" d="M86.3,495.2c-11.3-0.5-22.7,0-33.8-1.6c-13.2-2-24.7-8.4-32-20.3c-1.9-3.1-2.8-7.1-3-10.8
				c-0.5-8.7,0.2-17.4-0.3-26.1c-0.5-8.5,3.2-14.7,9.2-20c8.9-7.7,19.7-11.6,31-12.4c19-1.3,38.2-1.1,57.3-1.3
				c5.4,0,9.8,4.3,9.7,8.4c-0.1,4.4-4.7,8.1-10.5,8.2c-14.8,0.1-29.6-0.4-44.3,0.4c-6.7,0.4-13.3,3.2-19.7,5.7
				c-4,1.5-5.6,5.2-5.5,9.8c0.2,8.9,0.2,17.7,0.1,26.6c-0.1,4.4,1.8,7.6,5.2,10.2c5.2,3.9,11,5.9,17.4,5.9c14.3,0,28.5-0.1,42.8-0.1
				c1.6,0,3.1-0.1,4.7,0c5.4,0.4,10.1,4.7,10,8.9c-0.2,4.2-4.4,7.7-10.2,7.8c-9.4,0.2-18.8,0.1-28.2,0.1
				C86.3,494.8,86.3,495,86.3,495.2z"/>
			<path id="XMLID_97_" d="M893.8,404.3c12.4,1,25,1.3,37.3,3.1c9.9,1.4,18.9,5.8,26.5,12.7c5.2,4.7,8,10.3,7.9,17.5
				c-0.1,8.2-0.1,16.4,0.1,24.5c0.2,4.8-2.1,8.2-6.4,8.7c-5.4,0.6-10.9,0-16.3-0.8c-3.2-0.5-4.6-3.1-4.5-6.6
				c0.2-7.8-0.2-15.7,0-23.5c0.1-6.2-2.6-10.7-8-12.9c-5.5-2.2-11.5-4-17.4-4.6c-7.9-0.7-16,0.1-24-0.1c-3.6-0.1-4.9,1.1-4.8,4.8
				c0.2,11.8-0.1,23.7,0.2,35.5c0.1,4.8-1.9,7.3-6.1,8.3c-3.3,0.7-6.9,1.5-10.3,1.1c-9.1-1-10.8-3.2-10.8-12.3
				c-0.1-14.1-0.2-28.2-0.2-42.3c0-8.3,3.1-11.6,11.5-11.9c8.3-0.3,16.7-0.1,25-0.1C893.7,404.9,893.7,404.6,893.8,404.3z"/>
			<path id="XMLID_96_" d="M701.5,405.8c7.7,0,15.3-0.1,23-0.1c1,0,2.1,0,3.1,0c6.1,0.2,11.5,4,11.8,8.3c0.2,4.1-5.2,8.3-11.5,8.4
				c-12.7,0.2-25.4-0.1-38.1,0.3c-5.8,0.1-11.9,0.5-17.4,2.1c-10,2.8-13.6,8.5-13.6,18.8c0,6.6-0.2,13.2,0.1,19.8
				c0.2,3.9-1.5,6.2-4.9,7.7c-6.1,2.7-12.3,2.5-18.1-0.3c-1.7-0.8-3.6-3.5-3.7-5.5c-0.4-9.4-0.5-18.8-0.2-28.2
				c0.2-6.7,3.7-12.3,8.6-16.7c10.3-9.4,22.7-14,36.5-14.4C685.2,405.7,693.4,405.9,701.5,405.8
				C701.5,405.9,701.5,405.8,701.5,405.8z"/>
		</g>
		<g id="XMLID_3_">
			<path id="XMLID_92_" class="st0" d="M439.1,556.2l-0.1-33.6l25-0.1v5.7l-17.6,0.1v8h15.2v5.7h-15.2v14.3L439.1,556.2z"/>
			<path id="XMLID_89_" class="st0" d="M475.3,539.2l-6.3-1c0.7-2.4,1.9-4.1,3.7-5.2c1.7-1.1,4.3-1.7,7.8-1.7c3.1,0,5.4,0.3,7,1
				c1.5,0.7,2.6,1.5,3.2,2.6c0.6,1,0.9,3,1,5.8l-0.1,7.5c0,2.1,0.1,3.7,0.4,4.7c0.2,1,0.6,2.1,1.3,3.3h-6.9
				c-0.2-0.4-0.4-1.1-0.7-1.9c-0.1-0.4-0.2-0.6-0.3-0.8c-1.2,1.1-2.5,1.9-3.8,2.4c-1.4,0.5-2.8,0.8-4.3,0.8c-2.7,0-4.9-0.7-6.4-2
				c-1.6-1.4-2.4-3.1-2.4-5.2c0-1.4,0.3-2.6,1.1-3.7c0.7-1.1,1.7-1.9,3-2.5s3.1-1.1,5.6-1.5c3.3-0.6,5.5-1.1,6.8-1.6v-0.6
				c0-1.2-0.3-2.1-1-2.6s-1.9-0.8-3.8-0.8c-1.2,0-2.2,0.2-2.9,0.7C476.3,537.3,475.7,538.1,475.3,539.2z M484.6,544.4
				c-0.9,0.3-2.3,0.6-4.2,1c-1.9,0.4-3.2,0.8-3.8,1.1c-0.9,0.6-1.4,1.4-1.4,2.3c0,0.9,0.4,1.7,1.1,2.3c0.7,0.7,1.7,1,2.8,1
				c1.3,0,2.5-0.4,3.6-1.2c0.8-0.6,1.4-1.3,1.7-2.1c0.2-0.6,0.3-1.6,0.3-3.1L484.6,544.4z"/>
			<path id="XMLID_84_" class="st0" d="M497.8,531.7h6.4v3.3c2.3-2.6,5-3.9,8.2-3.9c1.7,0,3.2,0.3,4.4,0.9s2.3,1.6,3.1,2.9
				c1.2-1.3,2.4-2.3,3.7-2.9s2.8-1,4.3-1c1.9,0,3.6,0.4,4.9,1.1c1.3,0.7,2.4,1.8,3,3.2c0.5,1,0.7,2.7,0.7,5l0.1,15.6h-7V542
				c0-2.4-0.3-4-0.7-4.7c-0.6-0.9-1.6-1.4-3-1.4c-1,0-1.9,0.3-2.8,0.8s-1.5,1.4-1.9,2.4c-0.4,1.1-0.6,2.7-0.6,5v11.7h-7v-13.4
				c0-2.4-0.1-3.9-0.4-4.6c-0.3-0.7-0.6-1.2-1.2-1.5c-0.5-0.3-1.2-0.5-2.1-0.5c-1.1,0-2,0.3-2.9,0.8s-1.5,1.3-1.8,2.3
				c-0.4,1-0.6,2.7-0.5,5v11.8h-7L497.8,531.7z"/>
			<path id="XMLID_75_" class="st0" d="M543.6,528.2v-6h7v6H543.6z M543.7,555.9l-0.1-24.4h7l0.1,24.4H543.7z"/>
			<path id="XMLID_72_" class="st0" d="M557.9,555.9l-0.1-33.6h7l0.1,33.6H557.9z"/>
			<path id="XMLID_45_" class="st0" d="M571.9,528.1v-6h7v6H571.9z M572,555.8l-0.1-24.4h7l0.1,24.4H572z"/>
			<path id="XMLID_38_" class="st0" d="M591.3,538.8l-6.3-1c0.7-2.4,1.9-4.1,3.7-5.2c1.7-1.1,4.3-1.7,7.8-1.7c3.1,0,5.4,0.3,7,1
				c1.5,0.7,2.6,1.5,3.2,2.6c0.6,1,0.9,3,1,5.8l-0.1,7.5c0,2.1,0.1,3.7,0.4,4.7c0.2,1,0.6,2.1,1.3,3.3h-6.9
				c-0.2-0.4-0.4-1.1-0.7-1.9c-0.1-0.4-0.2-0.6-0.3-0.8c-1.2,1.1-2.5,1.9-3.8,2.4c-1.4,0.5-2.8,0.8-4.3,0.8c-2.7,0-4.9-0.7-6.4-2
				c-1.6-1.4-2.4-3.1-2.4-5.2c0-1.4,0.3-2.6,1.1-3.7c0.7-1.1,1.7-1.9,3-2.5s3.1-1.1,5.6-1.5c3.3-0.6,5.5-1.1,6.8-1.6v-0.6
				c0-1.2-0.3-2.1-1-2.6s-1.9-0.8-3.8-0.8c-1.2,0-2.2,0.2-2.9,0.7C592.3,536.9,591.7,537.7,591.3,538.8z M600.7,544
				c-0.9,0.3-2.3,0.6-4.2,1s-3.2,0.8-3.8,1.1c-0.9,0.6-1.4,1.4-1.4,2.3c0,0.9,0.4,1.7,1.1,2.3c0.7,0.7,1.7,1,2.8,1
				c1.3,0,2.5-0.4,3.6-1.2c0.8-0.6,1.4-1.3,1.7-2.1c0.2-0.6,0.3-1.6,0.3-3.1L600.7,544z"/>
			<path id="XMLID_30_" class="st0" d="M645.9,564.8v-12.3c-0.9,1.1-2,2-3.4,2.6s-2.8,1-4.4,1c-3,0-5.5-1-7.4-3.1
				c-2.3-2.4-3.4-5.7-3.5-9.9c0-3.9,1.1-7,3.2-9.2c2.1-2.2,4.8-3.3,8-3.3c1.8,0,3.3,0.3,4.6,1s2.4,1.7,3.4,3.1v-3.6h6.4l0.1,33.6
				L645.9,564.8z M646.1,543.1c0-2.5-0.6-4.3-1.7-5.6c-1.1-1.2-2.5-1.8-4.1-1.8c-1.7,0-3.1,0.6-4.2,1.9c-1.1,1.2-1.7,3.2-1.7,5.9
				s0.6,4.6,1.7,5.8c1.1,1.2,2.5,1.8,4.1,1.8s3-0.7,4.2-2C645.5,547.7,646.1,545.7,646.1,543.1z"/>
			<path id="XMLID_28_" class="st0" d="M677.1,555.5v-3.6c-1,1.3-2.2,2.3-3.8,3.1s-3.2,1.1-5,1.1s-3.4-0.3-4.8-1.1
				c-1.4-0.7-2.4-1.7-3.1-3c-0.6-1.3-1-3.1-1-5.4l-0.1-15.4h7v11.2c0,3.4,0.1,5.5,0.4,6.3c0.3,0.8,0.7,1.4,1.4,1.8
				c0.7,0.4,1.5,0.7,2.6,0.7c1.2,0,2.3-0.3,3.2-0.9c0.9-0.6,1.6-1.4,1.9-2.3c0.3-0.9,0.5-3.1,0.5-6.6v-10.3h7l0.1,24.4H677.1z"/>
			<path id="XMLID_25_" class="st0" d="M706.1,547.6l7,1.1c-0.9,2.4-2.3,4.2-4.2,5.4s-4.3,1.9-7.2,1.9c-4.6,0-8-1.4-10.2-4.1
				c-1.7-2.2-2.6-5-2.6-8.4c0-4,1.1-7.2,3.4-9.5c2.3-2.3,5.2-3.4,8.7-3.5c3.9,0,7,1.2,9.3,3.6s3.4,6.1,3.3,11l-17.5,0.1
				c0.1,1.9,0.6,3.4,1.7,4.5c1.1,1.1,2.4,1.6,4,1.6c1.1,0,2-0.3,2.8-0.8C705.2,549.7,705.7,548.8,706.1,547.6z M706.5,541.1
				c-0.1-1.9-0.6-3.3-1.6-4.3s-2.2-1.5-3.6-1.4c-1.5,0-2.8,0.5-3.8,1.5s-1.5,2.4-1.5,4.2H706.5z"/>
			<path id="XMLID_22_" class="st0" d="M733,530.9h6.5v3.6c0.8-1.2,2-2.2,3.4-3s3-1.2,4.8-1.2c3.1,0,5.7,1.1,7.8,3.3
				s3.2,5.3,3.2,9.3c0,4.1-1.1,7.2-3.2,9.5c-2.1,2.3-4.8,3.4-7.8,3.4c-1.5,0-2.8-0.3-4-0.8s-2.4-1.4-3.8-2.7v12.3h-7L733,530.9z
				 M740,542.7c0,2.7,0.6,4.8,1.8,6.1s2.6,2,4.3,1.9c1.6,0,3-0.6,4-1.8c1.1-1.2,1.6-3.2,1.6-5.9c0-2.6-0.6-4.5-1.7-5.7
				s-2.5-1.9-4.1-1.8c-1.7,0-3.1,0.6-4.2,1.8C740.5,538.5,740,540.3,740,542.7z"/>
			<path id="XMLID_20_" class="st0" d="M771.1,555.2h-7l-0.1-24.4h6.5v3.5c1.1-1.6,2.1-2.7,3-3.2s1.9-0.8,3-0.8
				c1.6,0,3.1,0.4,4.6,1.2l-2.1,5.6c-1.2-0.7-2.3-1-3.3-1s-1.8,0.3-2.5,0.8s-1.2,1.4-1.6,2.7c-0.4,1.3-0.6,4-0.6,8.2L771.1,555.2z"
				/>
			<path id="XMLID_17_" class="st0" d="M782.6,542.6c0-2.1,0.6-4.2,1.7-6.2c1.1-2,2.8-3.5,4.8-4.6c2.1-1.1,4.4-1.6,7-1.6
				c4,0,7.3,1.2,9.8,3.6c2.6,2.4,3.8,5.4,3.9,9.1c0,3.7-1.3,6.7-3.8,9.2c-2.6,2.4-5.8,3.7-9.7,3.7c-2.4,0-4.7-0.5-6.9-1.5
				s-3.9-2.5-5-4.4C783.1,547.8,782.6,545.4,782.6,542.6z M789.7,542.9c0,2.4,0.6,4.3,1.9,5.5c1.2,1.3,2.8,1.9,4.6,1.9
				s3.3-0.7,4.6-1.9c1.2-1.3,1.8-3.2,1.8-5.6c0-2.4-0.6-4.2-1.9-5.5c-1.2-1.3-2.8-1.9-4.6-1.9s-3.4,0.7-4.6,1.9
				C790.3,538.7,789.7,540.5,789.7,542.9z"/>
			<path id="XMLID_14_" class="st0" d="M814.7,556.6l8,0.9c0.1,0.9,0.4,1.4,0.9,1.8c0.7,0.5,1.7,0.7,3.1,0.7c1.8,0,3.2-0.3,4.1-0.8
				c0.6-0.3,1.1-0.9,1.4-1.6c0.2-0.5,0.3-1.5,0.3-3V551c-2.1,2.6-4.7,4-7.9,4c-3.5,0-6.4-1.4-8.4-4.1c-1.6-2.2-2.5-4.9-2.5-8.2
				c0-4.1,1-7.2,3.2-9.4c2.1-2.2,4.8-3.3,7.9-3.3c3.3,0,6,1.3,8.1,3.9v-3.4h6.5l0.1,21.9c0,2.9-0.2,5-0.7,6.5
				c-0.5,1.4-1.2,2.5-2.2,3.4c-0.9,0.8-2.2,1.5-3.7,1.9c-1.5,0.5-3.5,0.7-5.9,0.7c-4.5,0-7.7-0.7-9.5-2.1c-1.9-1.4-2.8-3.2-2.8-5.4
				C814.6,557.2,814.7,556.9,814.7,556.6z M820.9,542.3c0,2.6,0.6,4.5,1.6,5.7s2.4,1.8,4,1.8c1.7,0,3.1-0.6,4.3-1.9
				c1.2-1.2,1.8-3.1,1.7-5.5c0-2.5-0.6-4.4-1.7-5.6c-1.1-1.2-2.6-1.8-4.3-1.8s-3.1,0.6-4.1,1.8S820.9,539.9,820.9,542.3z"/>
			<path id="XMLID_12_" class="st0" d="M853.1,554.9h-7l-0.1-24.4h6.5v3.5c1.1-1.6,2.1-2.7,3-3.2s1.9-0.8,3-0.8
				c1.6,0,3.1,0.4,4.6,1.2l-2.1,5.6c-1.2-0.7-2.3-1-3.3-1s-1.8,0.3-2.5,0.8s-1.2,1.4-1.6,2.7s-0.6,4-0.6,8.2L853.1,554.9z"/>
			<path id="XMLID_9_" class="st0" d="M881.5,547.1l7,1.1c-0.9,2.4-2.3,4.2-4.2,5.4s-4.3,1.9-7.2,1.9c-4.6,0-8-1.4-10.2-4.1
				c-1.7-2.2-2.6-5-2.6-8.4c0-4,1.1-7.2,3.4-9.5c2.3-2.3,5.2-3.4,8.7-3.5c3.9,0,7,1.2,9.3,3.6c2.3,2.4,3.4,6.1,3.3,11l-17.5,0.1
				c0.1,1.9,0.6,3.4,1.7,4.5c1.1,1.1,2.4,1.6,4,1.6c1.1,0,2-0.3,2.8-0.8C880.6,549.2,881.1,548.3,881.5,547.1z M881.9,540.5
				c-0.1-1.9-0.6-3.3-1.6-4.3s-2.2-1.5-3.6-1.4c-1.5,0-2.8,0.5-3.8,1.6c-1,1-1.5,2.4-1.5,4.2L881.9,540.5z"/>
			<path id="XMLID_7_" class="st0" d="M892.1,547.8l7-1c0.3,1.3,0.9,2.2,1.8,2.9c0.9,0.6,2.2,1,3.8,1c1.8,0,3.2-0.3,4.1-0.9
				c0.6-0.4,0.9-1,0.9-1.7c0-0.5-0.2-0.9-0.5-1.2s-1.1-0.6-2.3-0.8c-5.6-1.1-9.2-2.2-10.7-3.1c-2.1-1.3-3.1-3.1-3.2-5.5
				c0-2.1,0.9-3.9,2.7-5.3c1.8-1.4,4.6-2.2,8.4-2.2c3.6,0,6.3,0.5,8.1,1.6s3,2.7,3.6,4.8l-6.6,1.1c-0.3-0.9-0.8-1.7-1.6-2.2
				s-1.9-0.8-3.4-0.7c-1.8,0-3.2,0.2-4,0.7c-0.5,0.3-0.8,0.8-0.8,1.3s0.2,0.8,0.7,1.2c0.6,0.4,2.8,1,6.5,1.8s6.3,1.7,7.8,2.8
				s2.2,2.7,2.2,4.8c0,2.2-1,4.2-3,5.8s-5,2.4-9,2.4c-3.6,0-6.4-0.7-8.5-2C894.1,552,892.7,550.1,892.1,547.8z"/>
			<path id="XMLID_4_" class="st0" d="M928,537.7l-6.3-1c0.7-2.4,1.9-4.1,3.7-5.2c1.7-1.1,4.3-1.7,7.8-1.7c3.1,0,5.4,0.3,7,1
				c1.5,0.7,2.6,1.5,3.2,2.6c0.6,1,0.9,3,1,5.8l-0.1,7.5c0,2.1,0.1,3.7,0.4,4.7c0.2,1,0.6,2.1,1.3,3.3h-6.9
				c-0.2-0.4-0.4-1.1-0.7-1.9c-0.1-0.4-0.2-0.6-0.3-0.8c-1.2,1.1-2.5,1.9-3.8,2.4c-1.4,0.5-2.8,0.8-4.3,0.8c-2.7,0-4.9-0.7-6.4-2
				c-1.6-1.4-2.4-3.1-2.4-5.2c0-1.4,0.3-2.6,1.1-3.7c0.7-1.1,1.7-1.9,3-2.5s3.1-1.1,5.6-1.5c3.3-0.6,5.5-1.1,6.8-1.6v-0.6
				c0-1.2-0.3-2.1-1-2.6s-1.9-0.8-3.8-0.8c-1.2,0-2.2,0.2-2.9,0.7C929,535.8,928.5,536.6,928,537.7z M937.4,542.9
				c-0.9,0.3-2.3,0.6-4.2,1s-3.2,0.8-3.8,1.1c-0.9,0.6-1.4,1.4-1.4,2.3c0,0.9,0.4,1.7,1.1,2.3c0.7,0.7,1.7,1,2.8,1
				c1.3,0,2.5-0.4,3.6-1.2c0.8-0.6,1.4-1.3,1.7-2.1c0.2-0.6,0.3-1.6,0.3-3.1L937.4,542.9z"/>
		</g>
	</g>
</g>
</svg>
