<?xml version="1.0" encoding="utf-8"?>
<!-- Generator: Adobe Illustrator 28.0.0, SVG Export Plug-In . SVG Version: 6.00 Build 0)  -->
<svg version="1.1" id="Capa_1" xmlns="http://www.w3.org/2000/svg" xmlns:xlink="http://www.w3.org/1999/xlink" x="0px" y="0px"
	 viewBox="0 0 1000 1000" style="enable-background:new 0 0 1000 1000;" xml:space="preserve">
<style type="text/css">
	.st0{fill-rule:evenodd;clip-rule:evenodd;fill:#FFFFFF;}
	.st1{fill-rule:evenodd;clip-rule:evenodd;fill:#C7061E;}
	.st2{fill:#FFFFFF;}
	.st3{fill-rule:evenodd;clip-rule:evenodd;fill:#00792D;}
	.st4{fill-rule:evenodd;clip-rule:evenodd;fill:#E88000;}
	.st5{fill:#00792D;}
	.st6{fill:#00793D;}
	.st7{fill-rule:evenodd;clip-rule:evenodd;}
</style>
<g>
	<path class="st0" d="M941.5,505.9c10.1,0,18.2,8.1,18.2,18.2s-8.1,18.2-18.2,18.2c-10.1,0-18.2-8.1-18.2-18.2
		C923.4,514,931.6,505.9,941.5,505.9"/>
	<path class="st0" d="M394.3,488c1.1,0.7,2,1.5,2.7,2.4C396.2,489.4,395.4,488.5,394.3,488 M399.7,447.6c0-0.2,0-0.4-0.2-0.6v-0.2
		C399.7,447.2,399.7,447.6,399.7,447.6z M466.6,382.6c0,0.2,0,0.4,0,0.6V383C466.6,383,466.6,383,466.6,382.6z M603.6,469.9
		c0-0.4,0.2-0.6,0.2-0.7C603.8,469.4,603.6,469.9,603.6,469.9z M908.6,463.2c-0.6-0.2-0.9-0.6-1.5-0.9c-0.4-3.6-0.4-8.3-0.4-13.3
		c0-6,0.2-12.4,0.2-18.6c0.2-7.3,0.2-13,0.2-17.8c0-12.4-0.6-18.4-2.5-22.5c-0.9-2-2.2-3.6-3.6-4.9c3-2.7,6.2-6,8.8-10.3
		c6.3-9.4,7.5-19.5,4-28.7c-4.1-10.5-13.9-16.8-21.5-18.2c-5.8-1.3-12.1,0.4-18.4,4.7c-8.3,5.6-17.5,16.6-19.7,28.7
		c-1.1,6.5-1.8,13.5,0,19.7c-1.3,0.2-2.4,0.6-3.4,0.9c-7.7,2.4-14.8,7.5-21.1,15.5c-0.7-2.5-1.5-4.7-2.7-6.5
		c-0.4-0.7-0.9-1.3-1.5-1.8c-3-3.2-7.3-5.1-11.8-5.1c-5.8,0-12.2,3-18.2,7.4c-1.1-1.3-2.4-2.4-4-3.4c-0.6-0.4-1.1-0.6-1.7-0.7
		c-13.1-5.8-30.3,0.7-42.4,10.7c-0.7-2.5-1.7-4.9-2.7-6.9c-0.4-0.7-0.9-1.3-1.5-1.8c-3-3.2-7.3-5.1-11.8-5.1c-5.8,0-12.1,3-18,7.4
		c-1.1-1.3-2.4-2.4-4.1-3.4c-0.6-0.4-1.1-0.6-1.7-0.7c-12.2-5.4-27.9-0.2-39.9,8.6c-0.6-1.1-1.1-2.2-2-3c-2.4-2.5-5.6-4-9-4h-32.8
		c-4.7,0-8.6,2.7-10.8,6.5c-1.7-2.2-3.6-4.1-6.3-5.6c-9.7-5.4-23.6-3-34.7,6l-4.3,3.4c-2.7,2-5.4,4.3-8.1,6.7
		c-2-4.1-4.1-7.9-7.1-11.2c-4.5-4.9-13-11.4-26.6-11.4c0-0.7,0.4-2.7,0.4-2.7c0.7-5.8,1.5-11.4,1.5-16.6c0-10.1-2.7-18.4-13-23.3
		c-12.4-5.8-35.6,0.2-47.1,9.2c-8.3,6.5-10.3,13.5-10.3,18.6c0,1.5,0.2,2.7,0.4,4c0.4,2.2,1.5,4.1,2.9,5.8c1.8,2.2,4,4.9,5.1,6.5
		c-0.6,4-1.7,12.4-2.7,21.3c-2.2,16.6-4,30.7-5.4,42.9c-1.7-21.7-3-47.8-4.1-72.7c0.4-1.7,0.7-3.8,0.7-6.3c0-3.2-0.7-7.1-2.9-10.5
		c-3-5.1-8.3-8.1-14.8-8.8l-1.8-0.2c-11.4-1.3-38.1-4.1-46.2,19.3c-7.3,19.3-14.3,39.7-20.4,57.7c-7.9,23.3-17.1,49.5-20.2,54.3
		c-2.9,3.2-16.8,18.9-16.8,34.5c0,2.9,0.4,5.6,1.5,8.3c2,5.1,7.5,13.5,23.6,14.1c0.4,0,0.7,0,0.9,0c6.7-0.2,12.2,0,16.6,0
		c8.3,0.2,17.3,0.6,24-5.6c2.9,2,6.3,3.4,10.1,4c30.3,4.3,41.4,0.4,46.9-3.2c3.2,3.6,8.1,5.8,13.5,6.2c5.4,0.4,10.8-1.1,15.5-3.6
		c10.8,4,21.5,4.1,31.4,0.7c14.1-4.9,26.2-17.5,35.9-37.3c0.9,18.6,7.1,32.8,25.8,35.8c10.1,1.5,19.9-3.6,27.2-8.6
		c3.2,4.5,7.7,7.4,14.4,8.3c10.7,1.3,24.7-3.2,35.4-11.2c0.4,2.4,1.5,4.5,3,6.3c2.4,2.7,5.8,4.1,9.4,4l32.8-1.1
		c6.3-0.2,11.4-5.1,11.8-11.4c0-0.2,1.1-14.4,4.7-46.1c0,0.2-0.2,0.9-0.2,1.1l0.9-6.2c0-0.6,0.2-1.3,0.4-2c2.5,0.7,5.4,0.7,8.3,0
		c0.7-0.2,1.3-0.4,1.8-0.6c6.9-2.9,12.2-9.2,16.1-19.1c-0.9,15.9-4,45.1-7.3,71.4c0,0.6,0,0.9,0,1.5c0,3,1.1,6,3.2,8.3
		c2.4,2.7,5.8,4.1,9.4,4l32.8-1.1c6.3-0.2,11.4-5.1,11.8-11.4c0-0.2,1.1-14.4,4.7-46.1c0,0.2-0.2,0.9-0.2,1.1l0.9-6.2
		c0.2-0.6,0.2-1.3,0.4-2c2.2,0.6,4.3,0.6,6.7,0.4c-0.6,11.2,0.2,23.4,3.2,36.1c0.2,0.4,0.2,0.9,0.4,1.3c7.5,21,19.5,26.8,28.1,27.8
		c7.5,1.1,15.5-1.7,22.5-6.5c2.4,2.2,5.1,3.8,8.5,4.9c12,3.4,22.9-4.3,31.3-11.6c16.5-14.3,18.2-29.1,18.9-36.3l0.2-2
		c0.2-1.1,0.4-2.2,0.4-3.2C920.2,469.9,911.9,465.2,908.6,463.2z"/>
	<path class="st1" d="M504,481.9c0,0,8.3,5.8,14.1-26.6c1.5-16.3-10.5-20.4-12.1-4.7C504.5,466.3,504,481.9,504,481.9 M510.3,351.9
		c9.9,4.7,5.2,15.7,2.5,46.5c48.5-17.1,48.5,51.6,29.2,93.5c-19.3,41.6-43.3,38.1-59,30.3c-5.2,6.3-16.3,7.4-19.3,2.2
		c-3-5.1,15.2-137.4,15.2-141.1c0-3.6-8.3-13-8.3-13C467.9,357.1,500.4,347.2,510.3,351.9z"/>
	<path class="st1" d="M624.8,401l-8.8,70.6c-2.5,11.6-19.3,13.5-17.3-6.3c6.3-47.6,7.3-55.4,7.3-55.4c1.7-12-13-14.6-25.1-4.7
		s-31.4,20.4-11,36.6c-5.2,40.3-13.5,77.8,9.9,81.6c11.6,1.7,27-14.1,29.8-14.6c6.9-1.1-1.1,12.4,11.6,14.1
		c12.4,1.7,37.5-10.5,38.1-27.6c-2-9.9-11.4-11.6-11.4-11.6c7.3-52.1,9.9-82.5,9.9-82.5L624.8,401L624.8,401L624.8,401L624.8,401z"
		/>
	<path class="st1" d="M709.3,412c0,0,19.9-21,25.7-14.6c5.8,9.4,2.5,53.2-11.6,59c-6.9,1.7-6.3-6.3-11.6-7.4
		c-5.2-1.1-6.3,19.9-7.4,25.1c-3.6,32.3-4.7,46.4-4.7,46.4l-32.8,1.1c0,0,9.4-77.8,7.4-86.2c-2.2-8.3-15.7-5.2-9.9-17.3
		c5.8-12,27-25.1,39.2-19.9C710.3,402.6,700.9,413.5,709.3,412"/>
	<path class="st1" d="M791.3,412c0,0,19.9-21,25.7-14.6c5.8,9.4,2.7,53.2-11.6,59c-6.9,1.7-6.3-6.3-11.6-7.4
		c-5.2-1.1-6.3,19.9-7.3,25.1c-3.6,32.3-4.7,46.4-4.7,46.4l-32.8,1.3c0,0,9.4-77.8,7.3-86.2c-2.2-8.3-15.7-5.2-9.9-17.3
		c5.8-12,27.2-25.1,39.2-19.9C792.4,402.6,782.8,413.5,791.3,412"/>
	<path class="st1" d="M854,444.3c-4.1,28.1,4.1,28.7,4.1,28.7c11,1.1,6.3-41.6,6.3-41.6C863.9,428.1,860.8,421.4,854,444.3
		 M875.4,397.4c0,0,15.2-8.8,18.2-2.2c3,6.9-0.6,53.8,1.7,71.4c1.7,6.9,13.5,7.9,12.6,13c-1.1,5.2,0,18.2-15.2,31.4
		c-15.2,13-24,13-29.2-3.6c-10.5,15.2-30.9,24.5-41.8-5.8c-8.8-36.5,3.6-68.4,9.4-82.5C844.6,390.5,860.8,388.4,875.4,397.4z"/>
	<path class="st1" d="M876.9,382.2c0,0,12.4,1.7,23.1-14.1c10.5-15.7-2.7-26.8-9.9-28.1c-7.3-1.7-21.3,11.6-23.4,23.4
		C864.5,375.3,864.9,384.2,876.9,382.2"/>
	<path class="st1" d="M400.1,442.4c-2.2,7.4,1.1,6.7,4.7,6.7c3.2,0,8.1-0.4,6.7-5.2c-0.4-1.1-2.2-11.2-3.2-18.9
		c-0.4-7.7-2.7,0.4-2.7,0.4S404.8,427.2,400.1,442.4 M452.4,502.2c5.8,8.3,4.1,15.7-3.2,21c-7.3,5.2-27.6,3-38.6,1.7
		c-11-1.7-12.1-14.1-5.8-22.9c11.4-13,7.3-17.1-6.3-17.1c-11-0.6-14.6,5.2-11,13.5c3,2.2,9.9,8.8,6.3,19.3c-3.6,13-9.9,7.7-36.1,8.8
		c-27.2-1.1-5.2-30.9,0.6-36.6c5.8-5.8,23.4-63.7,42.8-115.8c5.2-15.2,25.1-12.1,35-11c9.9,1.1,5.8,12,5.8,12
		S447.1,491.4,452.4,502.2z"/>
	<g>
		<path class="st2" d="M501.1,577.9c0.4-1.5,1.1-3.6,1.1-5.2c0-1.1-0.4-2.2-1.1-3c2.2-1.1,3.6-3.2,3.6-5.8c0-3-2.5-5.6-5.8-5.6
			c-3.4,0-6.3,2.9-6.3,6.5c0,1.3,0.4,2.4,1.1,3c-2,0.6-3.8,1.7-5.6,3.2c-0.6,0.4-1.1,0.9-1.7,1.5c-1.1-3.2-4.3-5.2-8.8-5.2
			c-8.5,0-17.8,6.3-19.1,15.2c-0.4,0-0.7,0-1.1,0l1.5-3.8c0.7-2,1.5-4,1.5-6.2c0-3.2-2.4-5.2-6-5.2s-6.5,1.8-9,4.5
			c-0.6-3.6-3.2-4.5-5.4-4.5c-3.2,0-5.6,1.3-7.5,3.2c-0.6-2-2.4-3.2-4.7-3.2c-2.9,0-6,1.5-9,4.3l-0.2,0.2c-1.5,1.5-2.9,2.9-2.9,4.7
			c0,1.7,1.3,3,2.9,3c0.6,0,0.9-0.2,1.3-0.4l-3,10.3c-0.6,1.5-0.6,2.2-0.6,2.4c0,1.1,0.6,2.4,2.2,2.7c0.6,0.2,1.1,0.2,1.8,0.2
			c0.4,0,0.6,0,0.9,0h0.2h2.2c0.7,0,2.5,0,3.4-1.3l0.2-0.2c0.6-0.7,0.9-2.4,1.1-2.7l4-9.2c0.4-0.6,0.7-1.3,0.9-1.7
			c-0.4,1.3-0.7,2.4-0.9,3.2l-2.2,7.3c0,0,0,0.2,0,0.4v0.2c-0.2,0.6-0.2,0.9-0.2,1.3c0,0.9,0.6,2.2,2.2,2.5c0.4,0.2,0.9,0.2,1.5,0.2
			c0.4,0,0.6,0,0.7,0h0.2h2.7c1.7,0,3.2-0.4,4.1-3c0.6-2.2,2.7-6.5,4.3-9.4c-0.9,2.4-2,5.2-2,7.7c0,3.2,2.4,5.2,5.6,5.2
			c4,0,6.5-2.2,8.5-4.1c0.6-0.7,1.1-1.3,1.7-2c1.7,3.8,5.6,6.2,10.7,6.2c3.2,0,6.5-1.1,9.2-3c0,0,4.9-3.4,4.9-6.2
			c0-1.7-1.3-2.9-2.9-2.9c-1.1,0-2,0.7-2.9,1.7c-1.3,1.3-3,2.7-5.2,2.7c-1.5,0-2.2-0.7-2.4-2.4l0,0c4.7-0.6,12.8-1.5,15.4-6.5
			c0.4,0.2,0.9,0.4,1.5,0.4c0.7,0,1.3-0.2,1.8-0.6l-3.8,12.8l-1.7,6.2v0.2c-0.9-1.5-2.4-2.9-4.7-2.9c-2.7,0-5.1,2.2-5.1,4.9
			c0,4.3,5.1,6.3,8.5,6.3c3.6,0,7.5-1.8,10.1-4.3c2.4-2.5,3.4-6,4.3-9l4.1-14.3L501.1,577.9z M475.6,573.6c-0.2,1.3-1.1,3-2,4
			c-0.4,0.4-0.9,0.7-1.7,0.9C473,576.2,474.4,574.1,475.6,573.6z"/>
		<path class="st2" d="M390.1,567.4c-8.6,0-17.8,6.3-18.2,15.5c-0.6-0.4-1.3-0.7-2-0.7c-2,0-3,1.7-3.4,2.4c-1.8,3-2.7,3.6-6.3,3.6
			h-0.4l5.8-19.1l0.2-0.4c0.2-0.7,0.7-2,1.1-2.4l0.2-0.2c0,0,0.4,0,0.7-0.2c0.2,0,0.4,0,0.6-0.2c3.2-0.4,3.8-2.2,3.8-3.6
			c0-1.5-0.9-3-3.6-3c-1.1,0-2,0-3,0.2c-2.7,0.2-5.4,0.2-8.1,0c-0.9,0-2-0.2-2.9-0.2c-2.4,0-4,1.5-4,3.4c0,1.5,1.1,2.9,3.2,3
			c-0.2,0.6-0.4,1.1-0.4,1.7l-5.8,19.1c-0.2,0.7-0.6,1.5-0.6,1.7c0,0-0.4,0.2-1.3,0.4c-3.2,0.4-3.8,2.2-3.8,3.4c0,1.1,0.7,3,3.6,3
			c1.8,0,3.6-0.2,5.4-0.2h1.7h3.8c3.8,0,7.7,0.2,11.6,0.2l0,0c0.6,0,2.4,0,3.2-1.5c0.4-0.6,0.6-1.3,0.7-2c0-0.2,0.2-0.4,0.2-0.4
			v-0.2l0.6-1.8c0.2-0.4,0.2-0.6,0.4-0.9c0.7,1.8,2,3.2,3.6,4.5c2.5,1.8,5.4,2.7,8.8,2.7c9,0,18.6-6,18.6-15.5
			C404,571.7,396.9,567.4,390.1,567.4z M384.3,586.5c0-2.4,0.7-5.2,2-8.1c1.1-2.4,2.9-5.1,4.7-5.1c0.6,0,0.9,0,0.9,2.2
			c0,4.3-3.4,13.7-6.7,13.7C384.3,589.3,384.3,586.7,384.3,586.5z"/>
		<path class="st2" d="M895.6,582c-0.6,0-0.9,0.2-1.5,0.4l0.6-2c0.2-0.6,0.4-1.3,0.7-2.4c1.8-5.6,2.2-7.3,2.2-7.9
			c0-1.1-0.7-2.9-3.4-2.9c-0.2,0-0.4,0-0.7,0h-1.8c-0.2,0-0.4,0-0.6,0c-1.5,0-2.7,0.2-3.4,0.9c-0.9-0.4-1.8-0.6-2.9-0.6
			c-5.1,0-10.1,3-13.1,6c-4,4-6.2,8.5-6.2,13.1c0,5.1,2.5,8.3,6.7,8.3c3.4,0,6.5-1.8,9.2-4.3c0.2,2.7,1.8,4.3,4.5,4.3
			c3.6,0,7.3-2.7,9.4-4.9c1.3-1.3,3.2-3.4,3.2-5.4C898.4,583.3,897.3,582,895.6,582z M879.9,579.5c2.5-4.5,4.3-5.4,5.2-5.6
			c-0.4,2.5-5.1,10.1-7.5,12.1C877.8,584.2,878.5,581.8,879.9,579.5z"/>
		<path class="st2" d="M863.5,570.4c-1.5-1.7-3.4-2.4-5.8-2.4c-1.7,0-3.2,0.4-4.9,1.1l2.4-7.4c0.2-0.4,0.2-0.7,0.2-1.1v-0.6
			c0.2-1.3-0.2-2.4-0.9-3c-0.9-0.7-2-0.9-2.7-0.9c-1.1,0-2.4,0.2-4,0.6c-4.1,1.1-7.1,2.4-7.3,4.7c0,0.7,0,2,1.5,3l0.2,0.2l-7.5,25.3
			l-0.4,0.9c0,0.2-0.2,0.4-0.2,0.7c0,1.1,0.7,3.2,3.8,3.2h2.9c1.7,0,2.7-0.2,3.2-0.4c1.3-0.4,2-1.5,2.4-2.7c0.9-3.4,2-6.5,3-9
			c1.7-3.8,3-5.2,4-5.6l-2.9,9.6v0.2l-0.7,3.6c0,0.2,0,0.4,0,0.6c0,1.7,0.4,2.7,1.3,3.6c0.7,0.7,1.5,1.1,2.5,1.1
			c1,0,2.5-0.2,4.3-0.7c3.6-0.9,7.3-2.4,7.5-5.2c0,0,0-0.2,0-0.4c0-0.6-0.2-2.2-2.4-2.9l2.2-7.9c0-0.2,0-0.2,0-0.2l0.2-1.5
			C865.8,574.3,865.1,572.1,863.5,570.4z M855.5,575.5l-1.8,1.3c0,0,0,0-0.2-0.2L855.5,575.5z"/>
		<path class="st2" d="M831.9,582.9c-1.5,0-2.5,1.1-3,1.8c0,0.2-0.2,0.2-0.2,0.2l-0.2,0.2c-1.1,1.1-3.4,2.2-5.1,2.2
			c-0.6,0-2.2,0-2.2-3.2c0-2.4,0.7-4.9,2-7.3c0.6-1.1,1.7-2.4,2.4-3c0,0,0,0.2,0.2,0.2c0.7,1.8,2.2,4.1,6,4.1c3,0,5.4-2.2,5.4-5.1
			c0-4-4.1-6-8.3-6c-6.3,0-13.1,3.2-17,8.5c0-0.4,0-0.6,0-0.9c0-4.5-3.6-7.5-9.2-7.5c-9.2,0-19.3,7.4-19.3,17.5
			c0,6.2,4.7,10.5,11.6,10.5c3.2,0,6.5-1.1,9.2-3c0,0,4.7-3.4,4.7-6.2c0-1.7-1.3-2.9-2.9-2.9c-1.1,0-2,0.7-2.9,1.7
			c-1.3,1.3-3,2.7-5.2,2.7c-1.5,0-2.2-0.7-2.2-2.4l0,0c4-0.4,10.3-1.1,13.9-4.5c-0.4,1.3-0.6,2.5-0.6,4c0,6.2,4.3,10.5,10.7,10.5
			c3.6,0,7.4-1.1,10.5-3.2c3.2-2.4,5.1-4.5,5.1-6.3C834.7,584.2,833.4,582.9,831.9,582.9z M800.4,573.6c-0.2,1.3-1.1,3-2,4
			c-0.4,0.4-0.9,0.7-1.7,0.9C797.6,576.2,799.1,574.1,800.4,573.6z"/>
		<path class="st2" d="M554,567.4c-3,0-5.2,1.5-7.3,3.4c-0.6-2.2-2.4-3.4-4.9-3.4c-4,0-7.4,2.9-8.8,4.5c-1.1,0.9-1.7,1.8-2.2,2.4
			c-2.4-4.5-7.5-6.9-12.6-6.9c-8.8,0-18.2,6.5-18.2,16.3c0,3.6,1.7,6.7,4.5,9c2.5,1.8,5.4,2.7,8.8,2.7c9,0,18.6-6,18.6-15.5l0,0
			c0.7,0.2,1.7,0,2.2-0.6l-3.2,10.7v0.2c-0.2,0.9-0.4,1.3-0.4,1.7c0,1.3,0.7,2.2,1.8,2.5c0.4,0.2,0.9,0.4,1.7,0.4h0.6h1.8
			c0.2,0,0.6,0,0.9,0c1.3,0,2.7-0.2,3.6-0.9c0.7-0.6,1.1-1.7,1.5-2.2l4.7-10.5c0.7-1.5,1.5-2.5,2.2-3.4c1.1,1.8,2.9,2.2,4.1,2.2
			c3.8,0,6.2-3.6,6.2-6.9C559.6,569.9,557,567.4,554,567.4z M512.3,586.5c0-2.4,0.7-5.1,2-8.1c1.1-2.5,2.9-5.1,4.7-5.1
			c0.6,0,0.9,0,0.9,2.2c0,4.3-3.4,13.7-6.7,13.7C512.3,589.3,512.3,586.7,512.3,586.5z"/>
		<path class="st2" d="M618.8,567.4c-8.3,0-17.5,6.2-19.1,14.6c-0.6,0-1.3,0-1.8,0.4l5.8-19.7l0.2-0.4c0.6-1.5,0.7-2.2,0.7-2.9
			c0-1.7-1.3-2.7-2.7-2.7c-0.7,0-1.3,0.2-1.7,0.6c-1.8,0.9-4.1,1.5-6.3,1.5h-1.5c-2.7,0-4,1.7-4,3.2c0,0.7,0.2,2.7,2.7,3l-0.9,2.9
			c-0.6-0.2-1.1-0.2-1.8-0.2c-4.7,0-9.6,2.2-13.7,6c-1.5,1.5-6.5,6.7-6.5,13.1c0,5.2,2.9,8.8,7.1,8.8c3.4,0,6.5-2.2,9.2-4.9
			c0,2.9,2,4.9,5.1,4.9c4.3,0,7.3-2.7,9-4.7c0.6-0.6,0.9-1.1,1.3-1.7c1.7,3.8,5.6,6.3,10.7,6.3c3.2,0,6.5-1.1,9.2-3
			c0,0,4.7-3.4,4.7-6.2c0-1.7-1.3-2.9-2.9-2.9c-1.1,0-1.8,0.7-2.9,1.7c-1.3,1.1-3,2.7-5.2,2.7c-1.5,0-2.2-0.7-2.2-2.4l0,0
			c5.8-0.7,16.3-1.8,16.3-10.3C628,570.2,624.2,567.4,618.8,567.4z M584.1,578.1c1.5-2.2,3.4-4,4.7-4.3c-0.4,1.7-1.7,4-3.4,6.7
			c-2,2.9-3.4,4.1-4.1,4.9C581.4,582.9,582.8,580,584.1,578.1z M616.6,573.6c-0.2,1.3-1.1,3-2,4c-0.4,0.4-0.9,0.7-1.7,0.9
			C613.9,576.2,615.4,574.3,616.6,573.6z"/>
		<path class="st2" d="M683.2,582c-0.6,0-0.9,0.2-1.5,0.4l0.6-2c0.2-0.6,0.6-1.7,0.9-2.9c1.8-5.4,2.2-6.7,2.2-7.4
			c0-1.1-0.7-2.9-3.4-2.9c-0.2,0-0.4,0-0.7,0h-1.8c-0.2,0-0.4,0-0.6,0c-1.5,0-2.7,0.2-3.4,0.9c-0.9-0.4-1.8-0.6-2.9-0.6
			c-6.3,0-11.6,4.7-13.1,6c-2.9,2.7-4.7,5.8-5.6,8.8c-0.6,0-1.1,0.2-1.7,0.6l6.3-21.5l0.2-0.9c0.2-0.4,0.4-0.9,0.4-1.7
			c0-1.5-1.1-2.7-2.7-2.7h-0.2c-1.1,0-2,0.6-2.2,0.7c-1.7,1.1-4,1.3-6.2,1.3h-0.8c-4.1,0-4.5,2.5-4.5,3.2c0,0.9,0.4,2.7,3,3
			c-0.2,0.4-0.4,1.1-0.6,2l-4.7,16.1l-0.2,0.7c-0.6,1.7-1.1,3.6-1.1,5.6c0,3.4,2.4,6,5.6,6c3.8,0,7.1-2.9,8.5-4.1
			c0.2-0.2,0.4-0.4,0.4-0.6c0.9,2.9,3,4.5,6.2,4.5c3.4,0,6.5-2,9-4.3c0.2,2.7,2,4.3,4.7,4.3c2.9,0,6.2-1.7,9.2-4.7
			c0.6-0.6,3.2-3.2,3.2-5.4C685.9,583.3,684.8,582,683.2,582z M667.5,579.5c2.5-4.1,4.1-5.4,5.2-5.6c-0.4,2.5-5.1,10.1-7.5,12.1
			C665.3,584.2,666,581.8,667.5,579.5z"/>
		<path class="st2" d="M776,575.7c1.5,1.5,2.9,3,4.7,3c2.9,0,3.4-2.7,3.6-3.6l0.2-0.7c0.2-0.7,0.2-1.5,0.2-2c0-4.7-7.4-5.2-10.5-5.2
			s-5.8,0.6-7.9,1.8c-2.7,1.5-4.3,4-4.3,6.7c0,4.1,3.6,7.3,6.2,9.2l0.4,0.4c1.1,0.9,2.5,2.2,2.5,3c0,0.4-0.2,0.6-0.2,0.7
			c-0.7,0-2.2-2-3-2.9c-1.8-2-3.4-4-5.6-4c-0.7,0-1.5,0.2-2,0.7c0.2-1.1,0.4-2.2,0.4-3.4c0-7.9-7.3-12.4-13.9-12.4
			c-7.9,0-16.3,5.2-17.8,13.3c-0.4-0.2-0.7-0.2-1.3-0.2c-1.7,0-2.7,1.3-3.6,2.4c-0.2,0.2-0.2,0.2-0.4,0.4c-1.7,1.7-4.9,3.2-7.3,3.2
			c-2.4,0-3.6-1.7-3.6-5.1c0-3.2,0.9-6.7,2.7-9.9c1.1-2.2,3-4.1,4.1-4.7c0.2,0.4,0.4,0.7,0.4,0.9v0.2c1.3,3.4,3.6,5.1,7.1,5.1
			c3.2,0,6.5-2.2,6.5-6c0-5.2-6.2-7.3-10.3-7.3c-12.1,0-25.8,9.2-25.8,22.3c0,7.7,5.6,13.1,13.3,13.1c4.7,0,9.6-1.5,13.5-4.1
			c1.5-1.1,3.2-2.5,4.7-4.1c0.7,2.2,2.2,4.1,4,5.6c2.5,1.8,5.4,2.7,8.8,2.7c6.3,0,13-2.9,16.5-8.1c0,0.2,0,0.4,0,0.7
			c0,2.9,1.1,4.7,3.8,6c2.5,1.1,5.8,1.5,7.9,1.5c5.2,0,12.4-3,12.4-9.7c0-4-3.2-6.5-5.8-8.6c-1.3-1.1-2.7-2.2-3-3
			C774.4,574.1,775.3,575.1,776,575.7z M740.8,586.5c0-2.4,0.7-5.1,2-8.1c1.5-3.2,3.2-5.1,4.9-5.1c0.6,0,0.9,0,0.9,2.2
			c0,4.3-3.4,13.7-6.7,13.7C740.8,589.3,740.8,586.7,740.8,586.5z"/>
	</g>
	<path class="st0" d="M227.5,257h0.4c15.4,4.1,38.4,15.7,53,46.2c3.4,7.5,5.2,16.3,6.7,24.5l4,0.2c3.2-8.8,13.9-19.5,24-15.4
		c2.7,1.7,4.1,3.8,4.7,7.1c5.4-0.9,13.7,3.8,11.6,10.3c5.8,3.4,7.3,11.8,0.6,15.4c2,11-9,14.8-18,14.8c-5.4-0.6-10.7-2.5-15.5-4.9
		c-7.3,5.2-17.8,10.3-26.4,12c-10.1,18.4-25.5,32.1-45.9,37.3c-11,2.4-21.5,3-32.6,0.7c-8.5-2.2-16.3-5.6-23.6-10.5
		c-9-6.3-15.7-13.1-21.9-22.3l-0.2-0.2l-0.2,0.6l-0.7,1.5l8.6,39.5c0.4,6.5-4,11.8-10.8,11.4c-5.6-0.2-8.3-6-9.6-10.8l-6-26.6
		c-2.5,2-17.3,0.4-20.2-1.5c-5.8-1.8-12.2-5.4-15.5-10.7c-5.6-10.3-1.1-23.6,7.5-30c4.9-4.1,10.1-6.5,16.1-8.6l-6.2-30.7
		c-6-4.3-10.5-13.7-10.3-21.5c0.7-11.8,5.2-28.5,7.3-39.5l22.2,32.8c2.9,8.1,3,14.4-0.4,22.2c0.7,3.8,1.7,7.9,2.5,11.8
		c5.4-18.9,19.9-36.3,36.1-46.1c9.4-5.8,15.5-7.5,24.5-9.4c-5.2-31.7,8.1-42.6,18.8-41.2C221.7,216.9,231.4,233.7,227.5,257"/>
	<path class="st3" d="M126.8,279.3c2.7,6.5,2.7,13.7-1.1,19.5c2.2,12.8,5.8,25.1,8.6,37.7c2.9-0.4,4.9-0.4,6.5-0.2
		c0.4-4.1,0.2-9,0.7-13.1l-7.3,0.2c0-4.9,1.3-9.7,2.9-14.3c10.1-25.7,32.3-45.7,54.3-49.3c-1.1,0,2.2,2.9,3.4,3.6
		c11.4,7.9,22.2,5.8,32.5-2.5c27.4,7.9,50.2,32.1,55.3,61.9l-6.9,0.6l0.4,8.3c2.4-0.9,5.6-1.1,7.3-0.7c3.6-0.4,7.4,1.5,10.7-1.7
		c3.2-7.3,8.8-14.6,17.5-14.6c1.7,0.4,3,1.5,4,2.9c0.4,1.8,0.7,3.6,0.2,5.4c2,0.2,4-0.2,6-0.4c2,0.2,4.1,0.7,5.4,2.7
		c1.7,2-0.4,4.1,0,6c1.8,1.1,4,2,5.1,3.8c0.4,1.7,0.4,3.2-0.6,4.5c-1.3,1.3-2.9,2.2-4.5,2.7c0.7,1.8,2.2,4.3,1.1,6.5
		c-2.7,5.6-8.5,6.2-14.1,6.2c-5.6-0.4-10.7-2.9-15.9-5.4c-9.9,7.1-17.1,10.8-29.2,13.9c-12.1,24.2-33.7,37.9-60.5,38.1
		c-25.1,0.9-51.8-17.5-61.5-41.2c-2.9-6.9-4.7-14.1-5.6-21.9c-1.8-0.6-4.3-0.4-6.3,0l2.9,13.1c1.3,0.9,2.2,1.3,3.8,3
		c1.5,1.8,1.5,4.1,1.5,6.5c1.5,2.5,2.5,5.8,1.3,8.6l-1.5,2.7l8.8,40.6c0.2,2-0.6,4.3-2.5,5.8c-1.8,0.9-3.8,1.5-5.8,0.9
		c-2.9-1.3-3.8-4.5-4.5-7.4l-6.7-29.4c-3.4,0.4-7.1,0.2-9.6-1.3c-1.3-0.7-1.8,1.5-4.9,1.3c-7.7,0.4-16.6-4-21.1-11
		c-3.4-6.5-0.9-13.1-0.2-14.3c4.9-11.8,15-15.7,25.8-19.1l-7.7-35.4c-6.5-4.5-10.3-12.6-9.9-20.8l5.1-28.1L126.8,279.3z"/>
	<path class="st0" d="M124.4,279.9c2.9,6.5,2.5,13.9-1.3,19.7l2.2,10.1l10.8,46.2c-1.3,1.8-5.2,2.2-7.1,1.7l-0.2-0.9l-10.8-50.4
		c-0.4-1.1-0.9-4.1-1.5-4.5c-4.7-3.4-7.5-7.5-9.4-16.1c0.2-1.1,0.2-2.9,0.4-4.1l3.4-22L124.4,279.9z"/>
	<path class="st4" d="M210,219c0,2.5,1.1,6,0.7,7.7c4.7-3.4,7.7,0.2,10.3-2.2c-0.4,2.7-2,4.5-3.2,5.6c-1.3,1.3-4.1,2.2-6.9,0.6v6
		c2.5-4,8.6-2.5,12.6-3c-2.2,4.9-5.6,7.4-10.3,7.1c-0.7-0.4-1.7-0.9-2.5-1.5v5.8c4.3-4.1,10.1,0.9,14.8-1.3c-2.2,4-6.5,7.5-12,6.5
		c-1.1-0.9-1.7-0.9-2.7-2v8.3c2.7-5.6,9.7-4,14.4-4.9c-1.5,3.6-2.5,4.9-4.7,6.7c-2.7,2-7.4,3.2-9.9,0.4v5.4l-1.8,0.2v-4.9
		c-3,1.7-6,1.3-7.7-0.4c-3-2-4-3.4-5.1-7.5c4,1.8,9.4,0.2,13,3.4v-6.9c-2,2-5.4,1.8-7.7,0.7c-2.4-1.7-3.8-3.2-5.2-5.4
		c1.5,0.4,2,0.7,3,0.7c3.2-0.7,7.3-1.7,9.7,0.9v-5.4c0,1.1-4.5,3.4-7.4,0.7c-1.3-0.4-3.2-4-3.2-6.2c2.4,3.6,6-1.3,10.7,2.2v-6.3
		c0,1.7-3,3.2-6,2.2c-1.1,0-4-3.4-3.6-6c2.7,2.9,4.5-0.7,9.4,0.7C209.3,225,209.1,221.4,210,219"/>
	<path class="st0" d="M207.8,229.5c-1.1,1.7-3,1.8-4.5,1.3l-2-2C203.7,229,207.5,226.7,207.8,229.5"/>
	<path class="st0" d="M218.9,226.7c-0.6,1.7-3.4,3.4-4.9,3.2c-0.4,0.2-2.4,0-3-1.1C214.2,225.2,216.3,226.8,218.9,226.7"/>
	<path class="st0" d="M208.2,238.5c-3.2,2.7-6,1.5-7.9-1.5C202.9,237,206.7,235.3,208.2,238.5"/>
	<path class="st0" d="M221.2,235.1c-2.5,2.5-4,4.1-7.4,3.8l-1.8-0.6c0.2-1.3,1.3-2,2.4-2.5C216.5,235.1,219.2,235.1,221.2,235.1"/>
	<path class="st0" d="M207.6,246.5c-1.5,1.7-2.9,1.5-4.7,1.5c-0.7-0.2-2.2-0.7-3.4-2.2C201.8,245.2,205.8,244.1,207.6,246.5"/>
	<path class="st0" d="M221.9,245.4c-2.4,2.7-6.3,4.5-9.2,2.5l-1.7-1.3C214.3,242.8,218.7,246.2,221.9,245.4"/>
	<path class="st0" d="M209.1,257.3c-1.5,1.1-4.3,1.5-6.2,0.9c-1.7-0.7-3.8-2.9-4.7-4.3C201.5,254.6,206.3,254.4,209.1,257.3"/>
	<path class="st0" d="M223,253.5c-2,2.7-3,4.9-7.3,5.1c-1.1-0.2-3-0.2-3.4-1.3C213.6,254.1,219.6,252.8,223,253.5"/>
	<path class="st0" d="M237.8,281.4c3.6,0.2,10.3,9.9,14.1,14.3c-23.6-4.9-54.7-8.8-87.7,1.1c3.6-5.2,8.3-11.6,14.3-14.3
		C199.5,277.7,219.2,276.9,237.8,281.4"/>
	<path class="st0" d="M261.4,312c2.4,3.8,2.7,7.5,3.2,11.4h7.9c3.6,23.1-5.8,46.9-23.6,61.5c-16.8,15-45.5,18.4-65.4,9
		c-24.7-11.6-40.3-35.4-39.5-63.7l0.7-7.1h7.7c1.1-1.8,1.3-7.7,3.8-11.2C192.8,303.9,220.6,301.3,261.4,312"/>
	<path class="st3" d="M190.4,337.8c6.7,7.5,16.5,11.6,26,7.7c5.8-2.5,7.7-4.7,11.4-9.4l1.7,1.3c-1.8,3.6-4.9,5.8-7.3,7.5
		c-0.6,4.1-1.7,8.3-5.4,10.8c-4.1,2.7-10.5,3-14.4,0c-5.6-4.3-5.4-9-5.8-10.1c-1.7-1.3-5.4-4-7.5-6.9L190.4,337.8z"/>
	<path class="st0" d="M313.4,319.4c1.8,2.9-2.9,6,0,7.4c3.4-1.1,8.1-3.2,11,0c1.3,2.5-2.7,3.6-1.8,5.6c2.4,1.1,7.1,1.8,7.1,5.4
		c-1.1,2.4-3.6,2.7-6,3c-1.3,2.2,1.8,3.2,1.8,5.2c0.7,2-0.9,3.8-2.4,4.7c-8.6,4.3-17.5,0.2-25.1-4.5c-7.5,6.2-16.1,11-26.4,13
		c2.2-7.9,4.7-15.9,4.7-24.4c6.7-4.3,14.8,2,20.6-4.7c2.5-5.2,5.8-11.6,11.8-13.1C310.5,317,312.5,317.6,313.4,319.4"/>
	<path class="st3" d="M213.1,329.9c1.3,1.3,2.4,2.5,2.5,4.5l-2,0.4c0-1.5-1.5-4-4.3-4.1c-3.4-0.2-4.9,2.4-4.9,3.8l-2.2,0.4
		c0-2.7,2-4.9,4.3-5.8C208.7,328.3,211,328.4,213.1,329.9"/>
	<path class="st5" d="M205.4,320.8c0-5.4-4.3-9.7-9.6-9.7c-5.2,0-9.6,4.3-9.6,9.7s4.3,9.7,9.6,9.7c0.2,0,0.6,0,0.7,0h0.2v-0.2
		C201.7,330.1,205.4,325.9,205.4,320.8 M190,320.8c0-3.4,2.7-6.2,6-6.2c1.3,0,2.4,0.4,3.4,1.1c-2.7,0.6-5.1,2.4-6.2,5.2
		c-0.6,1.8-0.6,3.6,0,5.4C191.4,325.6,190,323.4,190,320.8z M197.7,326.8c-1.1-1.3-1.7-2.9-1.1-4.5c0.7-2.2,3-3.4,5.2-2.9
		c0.2,0.6,0.2,0.9,0.2,1.5C202,323.8,200.1,326,197.7,326.8z"/>
	<path class="st5" d="M231.4,321.5c0-5.4-4.3-9.7-9.6-9.7c-5.2,0-9.6,4.3-9.6,9.7s4.3,9.7,9.6,9.7c0.2,0,0.4,0,0.6,0
		c0,0,0,0,0.2,0.2l0.2-0.2C227.5,330.9,231.4,326.6,231.4,321.5 M215.9,321.5c0-3.4,2.7-6.2,6-6.2c1.3,0,2.4,0.4,3.4,1.1
		c-0.7,0.2-1.5,0.4-2.2,0.7c-2,0.9-3.2,2.5-4,4.7c-0.6,1.8-0.6,3.6,0,5.2C217.2,325.9,215.9,323.9,215.9,321.5z M223.5,327.5
		c-1.1-1.1-1.7-2.9-1.1-4.5c0.4-1.1,1.1-2,2.2-2.5c0.9-0.6,2-0.6,3-0.2c0.2,0.6,0.2,0.9,0.2,1.5C227.9,324.5,226,326.8,223.5,327.5z
		"/>
	<path class="st0" d="M125.5,350.4c-3.8,0.9-7.3,3.4-9.6,6.7c-2.7-0.9-6.2-1.7-8.6,0l0.2,1.5c3.6-0.9,6.9-0.4,9.7,1.3
		c1.1-2.4,2.4-4.1,4.5-5.4c2,4.3,6.9,5.4,11,5.2c2.7-0.2,4.7-1.3,6.9-2.4c2,1.7,0,4.9,2.4,6.3c1.1,2.2,0.6,4.3-0.2,6.3
		c-4.7,1.7,0.4,7.3-4.3,8.8c-4.5,2.5-9.6,2.5-14.3,0.7c-5.2,3-11.4,1.7-16.5-0.7c-4.7-2.9-9.4-6.9-9.4-13.1c-0.2-0.7-0.9-5.4,4-11.6
		c5.2-7.1,13.1-11,21.7-12.8L125.5,350.4z"/>
	<path class="st0" d="M127.2,357.1c-0.4-0.2-3.4-1.7-3.6-3.6l2.5-1.1L127.2,357.1z"/>
	<path class="st0" d="M219.8,346.6c0,3.4-2.5,6.9-5.4,8.1c-4,2-8.5,1.5-11.8-1.1c-2-1.8-3.4-4-3.8-6.9
		C205,350.2,213.1,350,219.8,346.6"/>
	<path class="st0" d="M141.4,379.4c2.9,11.6,5.6,23.1,7.7,34.8c0,1.7-1.1,3-2.4,3.6c-1.7,0.4-3.4-0.2-4.3-1.8
		c-2.7-11-4.9-22.2-7.3-33.4C137.4,381.9,139.6,380.9,141.4,379.4"/>
	<path class="st0" d="M195.5,403.6h0.4c17.7,4.9,44,17.8,60.9,53c4,8.8,6,17.5,7.5,27c-3.8,1.1,7.9,1.7,4.5,1.5
		c3.8-10.3,16.1-22.2,27.6-17.7c3,1.8,4.7,4.3,5.4,8.1c6.3-1.1,15.7,4.3,13.1,12c6.7,4,8.1,13.3,0.7,17.5c2.2,12.6-10.5,17-20.8,17
		c-6.2-0.6-12.1-2.9-17.7-5.6c-8.3,6-20.6,11.8-30.3,13.5c-11.8,21.1-29.2,37-52.5,42.8c-12.8,2.7-24.7,3.4-37.5,0.7
		c-9.7-2.5-18.6-6.5-27-12c-10.3-7.3-18-15.2-25.1-25.7l-0.2-0.2l-0.4,0.6l-0.9,1.8l9.9,45.3c0.4,7.4-4.7,13.5-12.4,13
		c-6.5-0.2-9.6-6.9-10.8-12.4l-6.8-30.5c-2.9,2.4-19.5,1.1-22.5-1.1c-6.5-2-14.6-8.6-18.6-14.6c-4.7-11.8,1.1-24.4,9.6-32.3
		c5.8-4.9,11.6-7.5,18.4-10.1l-7.7-35.4c-6.9-4.9-12-15.7-12-24.5c0.9-13.3,6-32.6,8.3-45.3l25.7,37.9c3.4,9.4,3.6,16.5-0.4,25.5
		c0.7,4.3,1.8,9.2,2.9,13.5c6.2-21.7,22.7-42.8,41.5-54c7.7-4.3,19.1-8.8,28.1-9.7c-6-36.5,9.4-48.9,21.5-47.1
		C189.1,357.5,200.1,376.8,195.5,403.6"/>
	<path class="st3" d="M80,429.5c3.2,7.4,3,15.7-1.1,22.2c2.5,14.6,6.7,28.7,9.9,43.1c2.5-0.7,6.3-0.2,7.4-0.4
		c0.6-4.9,0.2-10.5,0.7-15.2l-8.3,0.4c0-5.6,1.5-11.2,3.4-16.5c11-29.1,34.5-50.2,63.5-56.3c7.9,11.2,29.2,11.4,40.1,1.1
		c31.4,9,57.6,36.8,63.3,71.1l-7.9,0.6l0.4,9.6c2.7,0.6,5.6-0.9,8.3-0.7c4.1-0.4,8.6,2.4,12.2-1.1c3.6-8.3,10.1-17.3,20.2-17.3
		c1.8,0.4,3.6,1.7,4.5,3.2c0.6,2,0.9,4.1,0.2,6.2c2.2,0.2,4.5-0.2,6.9-0.4c2.2,0.2,4.7,0.7,6.2,3c1.8,2.4-0.4,4.7,0,6.9
		c2.2,1.1,4.5,2.2,5.8,4.3c0.6,1.8,0.6,3.8-0.6,5.2c-1.5,1.5-3.2,2.4-5.2,3.2c0.7,2,2.4,5.1,1.3,7.4c-3,6.3-9.7,7.1-16.1,7.1
		c-6.5-0.4-12.2-3.2-18.2-6.2c-9.4,7.1-20.8,12.1-33,14.8c-13.9,27.8-39.2,44.6-69.9,44.8c-28.9,0.9-59.4-20-70.8-47.1
		c-3.2-7.7-5.2-16.1-6.5-25.1c-2.5-0.2-4.9,0.2-7.1,0.2l4,17.3c-0.2-0.7,2.4-0.6,3.6,1.1c1.7,2.2,1.8,4.9,1.7,7.4
		c1.8,2.9,2.9,6.7,1.5,9.7l-1.7,3l10.3,46.5c0.2,2.4-0.7,4.9-2.9,6.5c-2.2,1.1-4.3,1.8-6.5,0.9c-3.4-1.7-4.3-5.2-5.2-8.6l-7.5-33.7
		c-4,0.4-8.1,0.2-10.8-1.5c-1.5-0.7-2,1.7-5.6,1.5c-9,0.4-19.1-4.5-24.2-12.6c-4-7.4-1.1-14.6-0.4-16.3c5.1-12.2,17.3-18,29.1-21.5
		l0.4-0.7L66,456.5c-7.4-5.2-11.8-14.3-11.4-23.6l5.8-32.3L80,429.5z"/>
	<path class="st0" d="M77.4,429.8c3.4,7.4,3,15.9-1.5,22.5l2.4,11.6l12.6,52.9c-1.5,2-5.2,2-8.3,1.5L70,460
		c-0.4-1.1-1.1-4.7-1.7-5.1c-5.4-4-8.6-8.6-10.7-18.4c0.2-1.3,0.2-3.4,0.4-4.7l4-25.3L77.4,429.8z"/>
	<path class="st0" d="M209.3,434.7c6,4,9.9,8.3,14.3,13.3c-27-5.6-62.6-10.1-100.5,1.3c4.1-6,10.1-12.1,17-15.4
		C164.1,428.7,187.8,429.3,209.3,434.7"/>
	<path class="st0" d="M232.9,465.8l1.5,1.1c2.4,4.3,3.2,8.8,3.6,13h9c4,26.6-6.7,53.8-27.2,70.6c-19.1,17.1-52.1,21.1-75.1,10.3
		c-28.3-13.3-46.2-40.6-45.3-73.1l0.7-7.9l8.8-0.7c0.6-3.8,1.5-8.1,4.3-12.1C154.8,457.8,195.2,457.3,232.9,465.8"/>
	<path class="st0" d="M75.9,501.4l2.2,10.3c-4.3,0.9-7.9,3.4-10.5,7.3c-3-1.1-7.1-1.8-9.9,0l0.2,1.7c4.1-1.1,7.7-0.4,11.2,1.5
		c1.3-2.7,2.7-4.7,5.1-6.3c2.2,4.9,7.9,6.3,12.6,6c3-0.2,5.4-1.3,7.7-2.7c2.2,1.8,0,5.6,2.7,7.3c1.3,2.4,0.7,4.9-0.2,7.3
		c-5.4,2,0.4,8.3-4.9,10.3c-5.2,2.9-11,2.9-16.3,0.9c-6,3.4-13,1.8-18.8-0.9c-5.4-3.2-10.7-7.9-10.8-15c0-0.4-1.1-6.3,4.7-13.3
		c6.2-7.9,14.4-12.4,24.2-14.6L75.9,501.4z"/>
	<path class="st3" d="M153.7,496.8c7.5,8.6,18.4,13,29.4,8.6c5.4-2.4,9.7-7.4,13.5-12l1.3,1.8c-2.7,3.8-6.2,7.3-8.8,9.9
		c-0.6,5.4-1.1,8.3-6,12c-4.7,3-10.7,4.1-16.1,0.6c-4.5-2.7-6.5-8.8-7.3-12c-2.9-2-4.9-3.4-7.9-7.4L153.7,496.8z"/>
	<path class="st0" d="M294.1,475.4c2.2,3.2-3.2,6.9,0,8.6c4-1.3,9.4-3.6,12.6,0c1.5,2.9-3,4.1-2,6.5c2.7,1.1,8.1,2,7.9,6.2
		c-1.3,2.7-4.1,3-6.9,3.4c-1.5,2.4,2.2,3.6,2.2,6.2c0.9,2.4-1.1,4.3-2.9,5.4c-9.9,5.1-20,0.2-28.9-5.2c-8.6,7.1-18.4,12.6-30.3,15
		c2.4-9.2,5.2-18.2,5.4-27.9c7.7-5.1,17,2.4,23.6-5.4c2.9-6.2,6.5-13.3,13.3-15.2C290.7,472.6,293.2,473.3,294.1,475.4"/>
	<path class="st0" d="M79.8,517.7c-0.6-0.4-3-2.4-3-3c0.4-0.2,1.3-0.7,2.2-0.6L79.8,517.7z"/>
	<path class="st0" d="M186.5,506.7c0,4-2.9,7.5-6.3,9.2c-4.5,2.4-9.4,1.5-13-1.3c-3-2.2-4.3-5.8-4.7-7.7
		C169.8,510.8,178.6,511.6,186.5,506.7"/>
	<path class="st0" d="M96.7,544.1c3.2,13.1,6.3,26.6,9,39.9c0,1.8-1.3,3.4-2.7,4.1c-1.8,0.4-3.8-0.4-4.9-2
		c-3-12.6-5.6-25.5-8.3-38.2C92.3,547,94.6,545.9,96.7,544.1"/>
	<path class="st3" d="M181.8,492.6l-2.4,0.4c0-2-1.8-5.6-5.6-5.4c-3.2,0.2-5.1,2.4-5.2,5.4h-2.3c0.7-4.1,2.4-5.4,4.5-6.7
		C175.4,484.2,181.1,486.9,181.8,492.6"/>
	<path class="st5" d="M169.8,477c0-6.2-4.9-11.2-10.8-11.2c-6,0-10.8,5.1-10.8,11.2s4.9,11.2,10.8,11.2c2.7,0,5.1-1.1,6.9-2.5
		c0.2,0,0.2,0,0.4,0v-0.2C168.3,483.3,169.8,480.4,169.8,477 M158.9,484.6c-4,0-7.4-3.4-7.4-7.5c0-4.1,3.2-7.5,7.4-7.5
		c0.2,0,0.6,0,0.7,0c-0.7,0.7-1.5,1.5-2,2.4c-1.3,2.2-1.5,4.7-0.9,7.1s2.2,4.1,4,5.4C160.2,484.4,159.5,484.6,158.9,484.6z
		 M164.5,481.9c-2-0.4-3.8-1.8-4.3-4c-0.4-1.5-0.2-2.9,0.6-4.1c0.7-1.3,1.8-2,2.9-2.5c1.7,1.5,2.7,3.4,2.7,5.8
		C166.3,478.8,165.6,480.6,164.5,481.9z"/>
	<path class="st5" d="M189.2,466.7c-6,0-10.8,5.1-10.8,11.2s4.9,11.2,10.8,11.2c6,0,10.8-5.1,10.8-11.2
		C200.1,471.6,195.2,466.7,189.2,466.7 M181.8,477.8c0-4.1,3.2-7.5,7.4-7.5h0.2c-0.6,0.4-1.1,0.9-1.7,1.7c-1.5,2-2,4.3-1.8,6.7
		c0.4,2.9,2,5.2,4.1,6.7c-0.4,0-0.7,0.2-1.1,0.2C185.1,485.5,181.8,482,181.8,477.8z M194.5,482.9c-2.5-0.2-4.7-2.2-5.1-4.9
		c-0.2-1.5,0.2-2.9,1.1-4.1c0.9-1.1,2-1.8,3.2-2c1.7,1.5,2.7,3.4,2.7,5.8C196.6,479.9,195.7,481.7,194.5,482.9z"/>
	<path class="st4" d="M174.8,360.5c0.7,2.4,1.5,6.9,1.1,8.8c5.2-3.8,8.6,0.2,11.6-2.5c-0.4,2.9-2.2,4.9-3.6,6.2
		c-1.5,1.5-4.7,3-7.7,0.7v6.7c2.7-4.5,9.7-2.7,14.3-3.4c-2.5,4.3-6.3,8.3-11.8,7.7c-0.7-0.4-1.8-0.7-2.9-1.3v6
		c5.1-4.7,11.4,1.1,16.6-1.5c-2.5,4.5-7.3,8.5-13.3,7.3c-1.3-1.1-1.8-1.1-3-2.2l0.2,9.2c3-6.3,10.8-4.5,16.3-5.4
		c-1.7,4.1-2.9,5.4-5.2,7.5c-3,2.2-8.3,3.6-11.2,0.4v6.3l-2,0.2v-5.4c-2.9,1.7-6,0.9-8.8-0.4c-2.5-2.2-5.4-4.5-5.8-8.5
		c4.5,2.2,10.7,0.4,14.6,4v-7.5c-2.2,2.2-6.2,1.5-8.8,0.9c-2.7-2-4.3-3.6-6-6.2c1.5,0.4,2.2,0.9,3.4,0.7c3.6-0.9,8.1-1.8,11,0.9
		v-6.2c0,1.1-6.2,3.6-9.6,0.4c-1.8-1.7-2.5-4-2.5-6.5c2.7,4,6.7-1.5,12.1,2.5v-7.3c0,1.8-3.4,3.6-6.7,2.4c-1.1,0-3.6-3.2-4-6.7
		c3,3.2,5.1-0.9,10.7,0.7C173.7,367.4,173.9,363.1,174.8,360.5"/>
	<path class="st0" d="M172.8,372.3c-1.3,1.8-3.6,1.8-5.4,1.1c-0.9-0.2-1.5-1.3-2.2-2C168.1,371.9,172.2,369.1,172.8,372.3"/>
	<path class="st0" d="M185.3,369.3c-0.7,1.8-3.4,4-5.1,3.8c-1.5,0.4-3.6-0.2-4.3-1.5C179.3,368.3,182.4,369.4,185.3,369.3"/>
	<path class="st0" d="M173.2,382.4c-3.6,3-7.9,0.7-9.6-1.8C166.6,380.6,171.5,378.8,173.2,382.4"/>
	<path class="st0" d="M187.6,378.6c-2.7,2.9-4.5,4.7-8.3,4.1l-2.5-0.6c0.2-1.3,2-2.2,3-2.9C182.5,378.6,185.7,378.8,187.6,378.6"/>
	<path class="st0" d="M172.4,391.4c-1.7,1.8-3.2,1.5-5.2,1.7c-0.7-0.2-2.4-0.7-3.8-2.5C166,390.1,170.5,388.9,172.4,391.4"/>
	<path class="st0" d="M188.5,390.1c-2.5,3-7.1,5.1-10.3,2.9l-1.8-1.3C180.1,387.5,184.9,391.2,188.5,390.1"/>
	<path class="st0" d="M174.1,403.7c-1.7,1.3-4.5,1.5-6.5,0.9c-1.8-0.9-4.5-3-5.6-4.7C165.6,400.4,171.1,400.4,174.1,403.7"/>
	<path class="st0" d="M189.6,399.3c-1.5,3-3.8,5.2-8.1,5.6c-1.3-0.2-3.4-0.2-4-1.5C179.1,400.1,185.8,398.5,189.6,399.3"/>
	<path class="st0" d="M270.2,569.2h0.4c19.9,5.4,49.3,20,68,59.4c4.5,9.9,6.7,19.7,8.6,30.3c-4.3,1.3,9,1.8,5.1,1.5
		c3-11.6,17.5-26.8,30.5-21.7c3.4,2.2,5.6,6.7,6.5,11c7.1-1.3,17.5,4.7,14.8,13.1c7.4,4.5,9.2,15,0.7,19.7
		c2.5,14.3-11.8,18.9-23.1,18.9c-6.9-0.7-13.5-3.2-19.9-6.3c-9.2,6.7-22.9,13.1-33.9,15.2c-13,23.6-32.6,41.4-58.8,47.8
		c-14.3,3-27.6,3.8-41.8,0.7c-11-2.7-20.8-7.3-30.3-13.3c-11.6-8.1-20.2-17-27.9-28.7l-0.2-0.2l-0.4,0.6l-0.9,2l11,50.8
		c0.6,8.3-5.2,15-13.9,14.6c-7.3-0.2-10.8-7.5-12.2-13.9l-7.7-33.9c-5.4-0.2-5.8-0.4-7.5-1.3c-6.5,2-15.5,1.5-17.7,0
		c-7.3-2.2-15.4-8.1-19.9-14.8c-7.7-13.3-1.1-27.6,9.7-37.7c6.3-5.4,13-8.5,20.8-11.4l-8.6-39.5c-7.5-5.4-13.3-17.7-13.3-27.6
		c0.9-15,6.7-36.6,9.4-50.8l28.5,42.2c3.8,10.5,4,18.4-0.6,28.3c0.9,4.9,2.2,10.3,3.2,15c6.9-23.6,25.3-47.1,46.2-59.8
		c8.8-4.9,21.5-9.9,31.6-10.8c-6.7-40.8,10.5-54.7,24.2-52.7C263.1,517.6,275.5,539.3,270.2,569.2"/>
	<path class="st3" d="M141.3,598.5c3.4,8.3,3.4,17.7-1.3,24.9c2.9,16.3,7.4,32.1,11.2,48.4c2.5,0.7,5.6,0.2,8.3-0.4
		c0.6-5.4,0.2-11.8,0.9-17l-9.2,0.4c0-6.2,1.7-12.4,3.8-18.2c12.2-32.6,38.6-56.2,71.1-63c14.8,13.1,33,10.1,43.3,0.2
		c35.2,10.1,65.9,42.2,72.2,80.6l-8.8,0.6l0.4,10.8c1.1-0.6,6.3-1.1,9.4-0.9c4.5-0.6,9.6,2.5,13.7-1.3c4.1-9.2,9.9-20,21.1-20
		c2,0.4,5.4,2.4,6.3,4.3c0.6,2.4,1.1,4.7,0.4,6.9c3.4-1.8,11.2-2.2,14.4,3c2,2.7-0.2,5.8-1.3,7.5c2.2,0,6.3,2.5,7.5,4.9
		c0.6,2.2,0.6,4.3-0.6,6c-1.7,1.7-3.8,2.7-6,3.6c0.9,2.2,2.7,5.6,1.5,8.3c-3.4,7.1-10.8,7.7-18,7.9c-7.3-0.6-13.7-3.6-20.2-6.9
		c-10.7,7.7-23.1,13.3-37,16.6c-15.5,31.1-43.9,49.8-78.1,50c-32.1,1.1-66.4-22.3-79.1-52.7c-3.6-8.6-6-17.8-7.3-27.9
		c-2.4-0.7-4.9-0.4-7.4,0.2l-0.7,0.4l4.7,19.3c3.4-1.1,6,6.5,5.8,9.2c2,3,3.2,7.4,1.7,11l-1.8,3.4l11.4,51.9c0.2,2.7-0.7,5.6-3,7.4
		c-2.4,1.3-4.9,2-7.4,1.1c-3.8-1.7-4.7-5.8-5.8-9.6l-8.5-37.7c-4.3,0.4-9,0.4-12.2-1.7c-0.9,0.4-1.7,1.5-6.3,1.7
		c-10.1,0.4-21.5-5.1-27-14.1c-4.5-8.1-0.7-17.8-0.6-18.2c5.6-13.7,19.5-20.2,32.8-24.2l0.7-0.2L126,629
		c-8.3-5.8-13.1-16.1-12.8-26.6l6.5-36.1L141.3,598.5z"/>
	<path class="st0" d="M138.1,599c3.8,8.3,3.2,17.7-1.7,25.3l2.7,13l14.1,59.2c-1.8,2.5-7.4,2.4-9.4,0.9l-13.9-64.6
		c-0.4-1.3-1.1-5.2-1.8-5.6c-6.2-4.5-9.7-9.7-12-20.6c0.2-1.5,0.2-3.8,0.4-5.2l4.3-28.3L138.1,599z"/>
	<path class="st0" d="M285.8,604.2c6.7,4.3,12.4,10.1,15.9,14.8c-30.3-6.3-70.2-11.4-112.4,1.3c4.7-6.7,11.4-13.5,19.1-17.1
		C235.2,597.5,261.8,598.3,285.8,604.2"/>
	<path class="st0" d="M313.9,640.1c2.5,4.9,3.4,9.7,4.1,14.6h10.1c4.5,29.8-7.4,60.3-30.3,79.1c-21.5,19.3-58.3,23.6-83.9,11.6
		c-31.7-14.8-51.6-45.5-50.6-81.7l0.9-8.8l9.9-0.9c0.4-4.1,1.7-10.1,4.9-13.5C226.8,629.6,266.5,631.3,313.9,640.1"/>
	<path class="st0" d="M136.7,677.6L139,690c-4.9,1.1-8.8,3.8-11.8,8.1c-3.4-1.3-8.1-2-11.4-0.6l0.6,2.4c4.5-1.3,8.6-0.4,12.4,1.7
		c1.3-3,2.9-5.2,5.8-7.1c2.5,5.4,8.8,7.1,14.3,6.7c3.4-0.2,6-1.7,8.6-3c2.5,2,0,6.2,3,8.1c1.5,2.7,0.9,8.1-2,10.7
		c-0.2,1.7,2.2,6.5-3.6,8.8c-5.8,3.2-12.4,3.2-18.2,1.1c-6.7,4-14.6,2-21.1-1.1c-6.2-3.6-12-8.8-12.1-16.8c0-0.6-1.1-7.1,5.2-15
		c6.9-9,16.1-14.1,26.8-16.5L136.7,677.6L136.7,677.6z"/>
	<path class="st3" d="M223.2,673.3c8.5,9.7,20.2,14.8,32.5,10.1c6-2.7,11.8-8.1,15.9-13.1l1.7,1.5c-2,3.8-7.5,7.9-9.9,10.8
		c0,4.5-1.5,9.9-6.7,14.1c-5.6,4.1-12.2,4.3-18.8,0.4c-6.7-4.5-7.5-12.6-8.1-13.9c-3-2.7-5.2-4.5-8.5-8.6L223.2,673.3z"/>
	<path class="st0" d="M380.8,649.7c2.4,3.6-3.6,7.5,0,9.6c4.3-1.3,10.5-4.1,14.1-0.2c1.7,3.2-3.4,4.5-2.4,7.3c2.9,1.3,9,2.4,9,7.1
		c-1.5,3-4.5,3.6-7.7,4c-1.7,2.7,2.4,4.1,2.4,6.9c0.9,2.5-1.3,4.9-3,6.2c-11,5.6-22.3,0.2-32.1-5.8c-10.8,8.6-19.1,11.8-33.7,16.6
		c2.7-10.1,6-20.4,6.2-31.3c8.6-5.6,19.1,2.5,26.4-6c3.2-6.7,7.4-15,15-16.8C376.9,646.6,379.7,647.6,380.8,649.7"/>
	<path class="st0" d="M140.5,696.3c-0.7-0.4-2.5-2-2.9-3c0.4-0.2,0.9-0.4,2-0.7L140.5,696.3z"/>
	<path class="st0" d="M260.3,683.8c0,4.5-3.2,9.4-7.1,11.2c-5.1,2.5-10.8,1.8-15-1.5c-2.5-2.2-4.5-5.2-4.9-8.8
		C241.6,689.2,251.5,689.4,260.3,683.8"/>
	<path class="st0" d="M160,726.5c3.6,14.8,7.3,29.6,10.1,44.6c0,2-1.3,4-3,4.7c-2.2,0.6-4.3-0.4-5.4-2.2
		c-3.6-14.1-6.3-28.5-9.2-42.8C155,729.8,157.6,728.6,160,726.5"/>
	<path class="st6" d="M228.2,653.1c3.8,2.5,8.8,1.8,12-1.7l-2.5-2.5c-1.8,2.2-5.1,2.5-7.4,1.1c-2.5-1.7-3.4-5.1-2.2-7.7l-3-1.7
		C222.6,645.2,224.3,650.6,228.2,653.1"/>
	<path class="st5" d="M217.4,651.1c0,6.5,5.2,12,11.6,12c6.3,0,11.6-5.2,11.6-12c0-6.5-5.2-12-11.6-12
		C222.6,639.4,217.4,644.6,217.4,651.1 M221,651.1c0-4.5,3.6-8.3,7.9-8.3c4.3,0,7.9,3.6,7.9,8.3c0,4.5-3.6,8.3-7.9,8.3
		C224.6,659.4,221,655.7,221,651.1z"/>
	<path class="st6" d="M261.2,653.3c3.8,2.5,8.8,1.8,12-1.7l-2.5-2.5c-2,2.2-5.1,2.5-7.4,1.1c-2.7-1.8-3.6-5.6-2-8.3l-2.9-2
		C255.4,644.4,256.9,650.6,261.2,653.3"/>
	<path class="st5" d="M250,651.1c0,6.5,5.2,12,11.6,12c6.3,0,11.6-5.2,11.6-12c0-6.5-5.2-12-11.6-12
		C255.1,639.4,250,644.6,250,651.1 M253.5,651.1c0-4.5,3.6-8.3,7.9-8.3s7.9,3.6,7.9,8.3c0,4.5-3.6,8.3-7.9,8.3
		S253.5,655.7,253.5,651.1z"/>
	<path class="st5" d="M243.2,660c-4.1,0.6-7.5,4-7.9,8.3l4.7,0.4c0.2-2.2,1.8-3.8,3.8-4c1.1-0.2,2.2,0.2,3,0.9
		c0.9,0.7,1.5,1.8,1.7,2.9l4.7-0.6c-0.2-2.4-1.5-4.7-3.2-6.2C247.9,660.5,245.5,659.8,243.2,660"/>
	<path class="st4" d="M247.5,523.2c0.9,2.5,1.7,7.5,1.3,9.7c5.8-4.1,9.6,0.2,12.6-2.7c-0.6,3.2-2.4,5.4-4,6.9
		c-1.7,1.7-5.2,3.4-8.5,0.7v7.4c3-4.9,10.7-3,15.5-3.6c-2.7,4.7-6.9,9.2-12.8,8.6c-0.9-0.4-2-0.7-3-1.3v6.7c5.4-5.1,12.4,1.3,18-1.7
		c-2.7,4.9-7.9,9.2-14.6,7.9c-1.3-1.1-2-1.1-3.2-2.5v10.3c3.2-6.9,12-4.9,17.8-6c-1.8,4.5-3,6-5.8,8.3c-3.2,2.4-9,3.8-12.1,0.4
		l-0.2,6.9l-2.2,0.2v-6c-3.2,1.8-6.7,1.1-9.6-0.6c-2.7-2.4-6-5.1-6.3-9.4c5.1,2.4,11.6,0.4,15.9,4.3v-8.3c-2.4,2.4-6.7,1.7-9.6,0.9
		c-2.9-2.2-4.7-4-6.5-6.7c1.7,0.4,2.4,0.9,3.8,0.9c4-0.9,8.8-1.8,12.1,1.1v-6.7c0,1.3-6.7,4-10.5,0.4c-2-1.7-2.7-4.3-2.7-7.3
		c2.9,4.3,7.3-1.7,13.1,2.7l0.2-7.7c-0.2,2-3.8,4-7.4,2.5c-1.3,0-4-3.4-4.3-7.4c3.4,3.6,5.6-0.9,11.6,0.9
		C246.2,530.6,246.4,526,247.5,523.2"/>
	<path class="st0" d="M245.3,535.9c-1.3,2-4,1.8-6,1.3c-0.9-0.2-1.7-1.5-2.4-2.2C240.3,535.5,244.8,532.5,245.3,535.9"/>
	<path class="st0" d="M258.9,532.5c-0.7,2-3.8,4.3-5.6,4.1c-1.7,0.4-3.8-0.4-4.7-1.5C252.4,531.6,255.8,532.9,258.9,532.5"/>
	<path class="st0" d="M245.7,547.2c-4,3.4-8.6,0.7-10.5-1.8C238.5,545.2,244,543.2,245.7,547.2"/>
	<path class="st0" d="M261.6,543c-3,3-4.9,5.2-9,4.7l-2.7-0.6c0.2-1.5,2.2-2.4,3.4-3C256,543,259.2,543,261.6,543"/>
	<path class="st0" d="M244.8,557.1c-1.8,2-3.6,1.7-5.8,1.7c-0.9-0.2-2.5-0.9-4.1-2.7C237.8,555.4,242.8,554.2,244.8,557.1"/>
	<path class="st0" d="M262.7,555.6c-2.9,3.4-7.7,5.6-11.4,3l-2-1.5C253.1,552.6,258.6,556.7,262.7,555.6"/>
	<path class="st0" d="M246.8,570.4c-1.8,1.3-5.1,1.7-7.1,0.9c-2-0.9-5.1-3.2-6.2-5.1C237.4,566.8,243.6,566.8,246.8,570.4"/>
	<path class="st0" d="M263.6,565.7c-1.7,3.2-4.1,5.8-8.8,6.2c-1.3-0.2-3.8-0.2-4.3-1.5C252.2,566.3,259.4,564.7,263.6,565.7"/>
	<path class="st4" d="M171.7,330.6L171.7,330.6c0,0-16.1,7.9-17.5,8.6c0.2,0.4,0.4,0.9,0.4,0.9s2,6.7,2.7,9.6
		c0.6-0.4,1.3-0.7,1.3-0.7c5.8-3.8,10.8-6,16.1-8.3c0,0,0.6-0.2,1.1-0.6c-0.2-0.6-0.2-1.3-0.2-1.3s-1.8-6.2-2.7-8.8
		C172.2,330.3,171.7,330.6,171.7,330.6 M156.9,340.3l14.4-7.3l0.6,1.8l1.1,3.6l-0.9,0.4c-4.9,2.2-8.6,4.1-12.4,6.3l-1.1,0.7
		L156.9,340.3z"/>
	<path class="st4" d="M246.4,331.1c0,0-2,7.4-2.5,8.8c0.7,0.4,1.8,0.7,1.8,0.7c6.9,2.7,8.5,3.4,15.4,7.1c0,0,0.6,0.4,1.3,0.7
		c0.6-1.8,2.7-9.6,3-11c-1.5-0.6-16.8-6.9-18.6-7.5C246.6,330.6,246.4,331.1,246.4,331.1 M246.8,338.7l0.2-0.9l1.3-4.7l14.4,5.8
		l-1.8,6.2L246.8,338.7z"/>
	<path class="st1" d="M175.2,340.3c-7.3,2.5-12.6,5.8-17.3,8.8c0,0-0.4,0.2-0.7,0.6c0.4,1.1,2.2,8.5,2.7,10.7
		c0.7-0.6,1.3-0.9,1.3-0.9c4.9-3.6,9.2-5.6,13.7-7.5c0,0,2.7-1.3,4.1-1.8c-0.2-0.6-2-7.4-2.7-9.9
		C175.9,340.2,175.2,340.3,175.2,340.3 M159.8,350.8l0.6-0.4c4.5-2.7,8.8-5.1,13.3-6.9l1.1-0.4l1.5,5.4l-2.4,1.1
		c-4.7,2.2-8.1,4-11.8,6.3l-1.3,0.7L159.8,350.8z"/>
	<path class="st1" d="M241,350c0.7,0.2,1.5,0.6,1.5,0.6c6,2.2,8.6,3,15.7,6.9c0,0,0.7,0.4,1.3,0.7c0.4-2,2.2-9.2,2.4-10.3
		c-0.9-0.4-2.4-1.1-2.4-1.1c-4.7-2.4-9.2-4.5-14.4-6.2c0,0-0.6-0.2-1.1-0.4C244,340.9,241.6,348.7,241,350 M256.7,354.1
		c-4.7-2.5-7.7-3.6-12-5.2l-0.9-0.4l1.7-5.4l13.7,6l-0.2,0.7l-1.1,4.9L256.7,354.1z"/>
	<path class="st4" d="M131,488.9c-6.3,2.9-11.8,5.6-18,9.4c0,0-0.4,0.2-0.7,0.6c0.4,1.3,2.7,9.6,3.2,11.6c0.6-0.4,1.3-0.7,1.3-0.7
		c5.2-3.4,9.9-5.8,15.4-8.3c0,0,2.7-1.3,4.1-2c-0.6-1.5-3.4-9.2-4.1-10.8C131.5,488.7,131,488.9,131,488.9 M114.7,499.9l0.7-0.4
		c4.3-2.7,8.8-5.1,14.4-7.5l1.1-0.4l2.4,6.5l-2.2,1.1c-4.1,2-8.5,4.1-13.1,7.1l-1.1,0.7L114.7,499.9z"/>
	<path class="st4" d="M216.5,488.3c0,0-2.7,8.3-3.2,9.9c0.6,0.2,1.1,0.4,1.1,0.4c6.9,2.2,13,5.1,18.2,7.4c0,0,0.6,0.4,1.1,0.6
		c0.6-1.8,3-9.9,3.4-11.2c-1.5-0.7-13.3-5.6-13.3-5.6s-4.9-1.8-7.1-2.7C216.6,487.8,216.5,488.3,216.5,488.3 M231.3,502.9
		c-5.1-2.4-9.6-4.3-14.3-5.8l-0.9-0.4l2.2-6.5l4.9,1.8l11.2,4.7l-2,6.7L231.3,502.9z"/>
	<path class="st1" d="M134.9,499.4c-8.1,3.8-13.7,6.9-19.1,10.5c0,0-0.4,0.2-0.7,0.6c0.4,1.3,2.9,9.2,3.4,11.2c1.5-0.9,4-2.5,4-2.5
		c6.3-4,9.7-6.2,16.1-8.8c0,0,0.6-0.2,1.1-0.4c-0.6-1.5-3-9.2-3.6-11C135.5,499.2,134.9,499.4,134.9,499.4 M119.4,516.8l-1.7-5.4
		l0.7-0.4c4.1-2.7,9-5.4,15.2-8.3l1.1-0.6l2.2,6.5l-0.9,0.4c-5.4,2.4-8.8,4.5-14.6,8.1l-1.7,0.9L119.4,516.8z"/>
	<path class="st1" d="M213.2,499.2L213.2,499.2c0,0-2.5,8.3-3,9.7c1.7,0.6,18.9,7.5,20.8,8.3c0.2-0.7,0.4-1.3,0.4-1.3
		s1.8-7.1,2.4-9.4c-0.7-0.4-1.8-0.9-1.8-0.9c-5.8-2.7-11.2-5.2-17.1-7.4c0,0-0.6-0.2-1.1-0.4C213.4,498.4,213.2,499.2,213.2,499.2
		 M212.9,507.4l2-6.3l1.1,0.2l15,6.5l-0.2,0.9l-1.3,5.4L212.9,507.4z"/>
	<path class="st4" d="M199.2,665.6l-0.7,0.4c-8.8,3.8-13.3,5.6-20.8,10.1c0,0-0.4,0.2-0.9,0.6c0.4,1.3,3.4,10.3,4.1,12.2
		c0.6-0.4,1.3-0.9,1.3-0.9c6.3-4.5,12.4-7.3,21-10.3c0,0,0.6-0.2,1.1-0.4c-0.6-1.5-3.4-10.3-4-12
		C199.7,665.4,199.2,665.6,199.2,665.6 M179.7,677.4l0.7-0.4c6.2-3.6,10.8-5.6,17.5-8.5l1.1-0.4l2.5,7.5l-0.9,0.4
		c-7.3,2.7-12.2,5.2-17.1,8.3l-1.1,0.7L179.7,677.4z"/>
	<path class="st4" d="M291.8,665.6c0,0-2.7,9-3.2,10.7c0.6,0.2,1.1,0.4,1.1,0.4c7.5,2.5,12,4.9,18.6,8.3c0,0,1.8,0.9,2.9,1.5
		c0.6-1.8,3.4-11,3.8-12.2c-0.4-0.2-0.9-0.6-0.9-0.6c-5.1-2.7-10.3-4.7-15.4-6.7c0,0-4.7-1.8-6.7-2.5
		C291.9,665,291.8,665.6,291.8,665.6 M308.7,682.5c-5.6-3-9.9-5.2-16.5-7.4l-0.9-0.4l2.2-7.4l4.5,1.7c5.1,2,9.2,3.6,13.3,5.8
		l0.7,0.4l-2.5,7.7L308.7,682.5z"/>
	<path class="st1" d="M203.5,677.3c-8.1,2.9-14.4,6.2-21.7,10.8c0,0-0.4,0.2-0.6,0.4c0.4,1.3,3.2,10.3,4,12.4
		c0.6-0.4,0.9-0.7,0.9-0.7c6.7-5.1,12-7.4,18-10.3c0,0,2.4-1.1,3.4-1.7c-0.4-1.5-2.9-9.6-3.4-11.2
		C203.9,677.2,203.5,677.3,203.5,677.3 M183.3,689.2l0.7-0.4c6-3.8,11.6-6.5,18.2-9l1.1-0.4l2.4,7.9l-2.2,0.9
		c-5.8,2.7-10.7,5.1-16.5,9l-1.1,0.9L183.3,689.2z"/>
	<path class="st1" d="M284.9,687c0.4,0.2,0.7,0.4,0.7,0.4c6,2.2,13.3,5.1,21.3,9.6c0,0,0.6,0.4,0.9,0.6c0.6-2,2.7-10.5,3-11.8
		c-0.9-0.6-3-1.5-3-1.5c-5.6-2.7-11.4-5.4-18.4-7.9c0,0-0.4-0.2-0.9-0.2C288,677.4,285.4,685.4,284.9,687 M305.6,694.3
		c-5.6-3-11.4-5.6-17.7-7.9l-0.9-0.4l2.5-7.7l1.1,0.4c6.3,2.4,11.6,4.7,16.6,7.1l1.8,0.9l-2.2,8.3L305.6,694.3z"/>
	<path class="st7" d="M938,522.6h2.7c1.7,0,2.7,0,3.2-0.2c0.4-0.2,0.7-0.4,0.9-0.7c0.2-0.4,0.4-0.7,0.4-1.3c0-0.6-0.2-1.1-0.6-1.5
		s-0.7-0.6-1.3-0.7c-0.4,0-1.1,0-2.5,0h-2.7v4.3L938,522.6L938,522.6z M934.6,532.7v-17.3h7.4c1.8,0,3.2,0.2,4,0.6
		c0.9,0.4,1.5,0.9,2,1.7c0.6,0.7,0.7,1.7,0.7,2.7c0,1.3-0.4,2.4-1.1,3.2c-0.7,0.9-2,1.5-3.4,1.7c0.7,0.6,1.5,0.9,1.8,1.5
		c0.6,0.6,1.1,1.5,2,2.9l2.2,3.4h-4.1l-2.5-3.8c-0.9-1.3-1.5-2.2-1.8-2.5c-0.4-0.4-0.7-0.6-1.1-0.7s-0.9-0.2-1.8-0.2h-0.7v7.3h-3.4
		L934.6,532.7L934.6,532.7z M941.5,510c7.7,0,14.1,6.3,14.1,14.1s-6.3,14.1-14.1,14.1c-7.7,0-14.1-6.3-14.1-14.1
		C927.6,516.3,933.9,510,941.5,510z M941.5,506.3c9.7,0,17.7,7.9,17.7,17.7s-7.9,17.7-17.7,17.7c-9.7,0-17.7-7.9-17.7-17.7
		C923.9,514.3,931.9,506.3,941.5,506.3z"/>
	<path class="st7" d="M848.5,575.7c2.7-3.6,5.8-5.4,9.2-5.4c1.7,0,3,0.6,4.1,1.7c1.3,1.3,1.7,2.5,1.3,4.1l-0.2,1.5l-2.4,7.9
		c-0.2,0.4-0.2,0.7-0.2,0.9c0,0.7,0.4,1.3,1.7,1.7c0.6,0.2,0.9,0.6,0.9,0.9c-0.2,1.1-2.2,2.2-6,3.2c-1.7,0.4-2.9,0.7-3.6,0.7
		c-0.9,0-1.5-0.7-1.5-2.4l0.7-3.6l2.9-9.6c0-0.2,0-0.4,0.2-0.6c0-0.6,0-0.9-0.4-1.5c-0.4-0.6-0.9-0.9-1.7-0.9
		c-2.2,0-4.1,2.4-6.3,7.1c-1.3,2.7-2.4,5.8-3.2,9.4c-0.2,0.7-0.6,1.1-0.9,1.3c-0.4,0.2-1.3,0.2-2.5,0.2h-2.9c-1.1,0-1.5-0.4-1.5-0.9
		l0.4-0.9l7.5-25.3c0-0.4,0.2-0.6,0.2-0.9s-0.2-0.7-0.6-0.9c-0.2-0.2-0.4-0.4-0.6-0.6c-0.4-0.4-0.7-0.7-0.6-1.1c0-0.9,2-1.8,5.4-2.7
		c1.5-0.4,2.5-0.6,3.4-0.6c0.6,0,0.9,0,1.3,0.2c0.2,0.2,0.2,0.6,0.2,1.1v0.6c0,0.2,0,0.4-0.2,0.7L848.5,575.7z M891.7,569.6
		c-1.3,0-2.4-0.4-3,0.9c0,0.2-0.2,0.4-0.4,0.4s-0.4,0-0.6-0.2c-0.9-0.6-2-0.7-3-0.7c-4.1,0-8.6,2.7-11.6,5.4c-3,3-5.6,7.1-5.6,11.6
		c0,2.9,1.1,6,4.3,6c5.4,0,10.1-6.3,13-10.5c-0.4,2.5-1.7,5.8-1.7,8.1c0,1.7,0.9,2.4,2.4,2.4c2.9,0,5.8-2.2,7.7-4.1
		c0.7-0.7,2.5-2.7,2.5-3.8c0-0.4-0.2-0.7-0.6-0.7c-0.7,0-2.7,4-4.1,4c-0.6,0-0.7-0.6-0.7-0.9c0-0.9,0.6-2.7,0.7-3.6l1.1-4
		c0.6-1.7,2.9-8.8,2.9-9.7c0-0.7-1.5-0.6-1.8-0.6L891.7,569.6L891.7,569.6z M876.7,588.5c-1.1,0-1.5-1.1-1.5-2
		c0-2.7,1.5-5.8,2.7-8.1c1.5-2.5,4.1-6.7,7.4-6.7c1.1,0,2,0.9,2,2C887.5,577.1,880.3,588.5,876.7,588.5z M825.9,571.3
		c-1.8,0-4.1,3-5.1,4.5c-1.5,2.5-2.2,5.4-2.2,8.3s1.3,5.6,4.5,5.6c2.4,0,5.2-1.3,6.9-3c0.4-0.4,1.3-1.5,1.8-1.5
		c0.4,0,0.6,0.2,0.6,0.6c0,1.3-3,3.8-4.1,4.5c-2.7,1.8-6,2.9-9.2,2.9c-5.1,0-8.3-3.2-8.3-8.3c0-9,9.4-15.2,17.7-15.2
		c2.2,0,6.2,0.9,6.2,3.8c0,1.8-1.7,2.7-3.2,2.7c-2,0-3-0.9-3.8-2.7C827.4,572.6,827,571.3,825.9,571.3z M793.1,583.3
		c5.2-0.7,16.3-1.1,16.3-8.3c0-3.8-3.6-5.2-6.9-5.2c-8.1,0-17.1,6.7-17.1,15.4c0,5.4,4.3,8.1,9.2,8.1c2.7,0,5.6-1.1,7.9-2.7
		c0.7-0.6,3.8-3.2,3.8-4.3c0-0.4-0.4-0.6-0.6-0.6c-0.9,0-3.6,4.3-8.1,4.3c-2.9,0-4.5-2.2-4.5-5.1V583.3z M793.3,581.5
		c0.6-3,3.6-10.5,7.5-10.5c1.1,0,1.7,1.1,1.7,2.2c0,2-1.3,4.7-2.9,6C798.2,580.5,795.7,581.5,793.3,581.5z M764.2,575.8
		c0-2.2,1.5-3.8,3.2-4.7c2.2-1.3,4.5-1.7,6.9-1.7c1.7,0,8.1,0.4,8.1,3c0,0.6-0.2,1.5-0.4,1.8c-0.2,0.9-0.4,2.2-1.7,2.2
		c-2.2,0-4.5-5.4-7.5-5.4c-1.1,0-1.8,1.1-1.8,2.2c0,4.3,8.8,6.7,8.8,12.1c0,5.1-6,7.5-10.3,7.5c-2.2,0-5.1-0.4-7.1-1.3
		c-2-0.9-2.4-1.8-2.4-3.8c0-1.1,0.2-3.2,1.7-3.2c2.5,0,5.6,6.9,8.6,6.9c1.5,0,2.5-1.5,2.5-2.9c0-2.2-2.2-4-3.8-5.2
		C767.3,581.6,764.2,579,764.2,575.8z M741.9,593c7.5,0,16.5-5.1,16.5-13.3c0-6.5-5.6-10.1-11.6-10.1c-7.7,0-15.9,5.8-15.9,13.9
		c0,2.9,1.3,5.4,3.8,7.3C736.7,592.5,739.1,593,741.9,593z M741.7,591.6c-2.7,0-3.2-2.9-3.2-4.9c0-3,0.9-6.3,2.2-9
		c1.3-2.7,3.6-6.5,6.9-6.5c2.7,0,3.2,2.2,3.2,4.5C750.7,580,747.3,591.6,741.7,591.6z M719.8,564.4c-2.5,0-5.6,4.1-6.7,6
		c-1.8,3.4-2.9,7.3-2.9,11c0,3.8,1.7,7.4,6,7.4c2.9,0,7.1-1.8,8.8-4c0.6-0.6,1.7-2,2.4-2c0.4,0,0.7,0.4,0.7,0.7c0,1.8-4.1,5.1-5.4,6
		c-3.4,2.4-7.7,3.8-12.1,3.8c-6.5,0-11.2-4.3-11.2-11c0-12,12.4-20,23.4-20c2.9,0,7.9,1.3,7.9,4.9c0,2.4-2.2,3.6-4.1,3.6
		c-2.7,0-4-1.1-5.1-3.6C721.7,566.1,721.1,564.4,719.8,564.4z M679.2,569.6c-1.3,0-2.4-0.4-3,0.9c-0.2,0.2-0.2,0.4-0.4,0.4
		s-0.4,0-0.4-0.2c-0.9-0.6-2-0.7-3-0.7c-4.1,0-8.6,2.7-11.6,5.4c-3.2,3-5.6,7.1-5.6,11.6c0,2.9,1.1,6,4.5,6c5.4,0,10.1-6.3,13-10.5
		c-0.4,2.5-1.7,5.8-1.7,8.1c0,1.7,0.9,2.4,2.4,2.4c2.9,0,5.8-2.2,7.7-4.1c0.7-0.7,2.5-2.7,2.5-3.8c0-0.4-0.2-0.7-0.6-0.7
		c-0.7,0-2.7,4-4.1,4c-0.6,0-0.7-0.6-0.7-0.9c0-0.9,0.6-2.7,0.7-3.6l1.1-4c0.6-1.7,2.9-8.8,2.9-9.7c0-0.7-1.5-0.6-2-0.6H679v0.1
		H679.2z M664.3,588.5c-1.1,0-1.5-1.1-1.5-2c0-2.7,1.5-5.8,2.7-8.1c1.5-2.5,4.1-6.7,7.4-6.7c1.1,0,2,0.9,2,2
		C675.1,577.1,667.9,588.5,664.3,588.5z M649.1,584.9c-0.4,0.9-0.9,2.7-0.9,3.6c0,0.4,0.2,0.7,0.6,0.7c1.1,0,2.9-2.4,3.6-3.2
		c0.2-0.4,0.7-1.3,1.3-1.3c0.4,0,0.6,0.2,0.6,0.6c0,1.1-2,3.2-2.7,4.1c-1.8,1.7-4.3,3.4-6.9,3.4c-2.2,0-3.2-1.8-3.2-3.8
		c0-1.8,0.7-3.8,1.3-5.6l4.7-15.9c0.2-0.9,0.9-3,0.9-3.8c0-0.9-0.6-1.3-1.5-1.3c-0.6,0-1.8,0-1.8-0.7c0-1.3,2.4-1.1,3-1.1
		c2.5,0,5.2-0.4,7.4-1.8c0.2-0.2,0.7-0.4,0.9-0.4c0.4,0,0.6,0.2,0.6,0.4c0,0.4-0.2,0.6-0.2,0.7l-0.4,0.9L649.1,584.9z M609.4,583.3
		c5.2-0.7,16.3-1.1,16.3-8.3c0-3.8-3.6-5.2-6.9-5.2c-8.1,0-17.1,6.7-17.1,15.4c0,5.4,4.3,8.1,9.2,8.1c2.7,0,5.6-1.1,7.9-2.7
		c0.7-0.6,3.8-3.2,3.8-4.3c0-0.4-0.4-0.6-0.6-0.6c-0.9,0-3.6,4.3-8.1,4.3c-2.9,0-4.5-2.2-4.5-5.1V583.3z M609.8,581.5
		c0.6-3,3.6-10.5,7.5-10.5c1.1,0,1.7,1.1,1.7,2.2c0,2-1.3,4.7-2.7,6C614.5,580.5,611.9,581.5,609.8,581.5z M592,570.4
		c-0.9-0.6-2-0.9-3.2-0.9c-4.5,0-8.8,2.2-12.1,5.4c-3,2.9-6,7.3-6,11.6c0,3,1.3,6.5,4.7,6.5c5.1,0,10.1-6.9,12.8-10.7l-0.9,4.3
		c-0.2,1.3-0.6,2.5-0.6,3.8c0,1.8,1.1,2.5,2.7,2.5c3,0,5.4-1.8,7.4-4c0.6-0.7,2.7-3,2.7-4.1c0-0.4-0.2-0.6-0.6-0.6
		c-1.1,0-2.9,4.3-4.3,4.3c-0.4,0-0.7-0.4-0.7-0.7c0-0.9,0.7-3,0.9-4l0.4-1.8l6-20.2c0.2-0.6,0.7-2,0.7-2.5c0-0.4-0.2-0.6-0.6-0.6
		c-0.2,0-0.6,0-0.6,0.2c-2.2,1.1-5.1,1.7-7.4,1.7h-1.5c-0.6,0-1.7,0.2-1.7,1.1c0,0.9,0.9,0.7,1.5,0.9c0.9,0,1.5,0.2,1.5,1.1
		c0,0.6-0.2,1.5-0.4,2L592,570.4z M580.5,587.8c-1.1,0-1.5-1.5-1.5-2.4c0-2.9,1.7-6.5,3.2-8.8c1.5-2,4.3-5.4,7.1-5.4
		c1.1,0,1.8,0.7,1.8,1.8c0,2.5-2.5,6.5-4,8.5C586,583.3,582.7,587.8,580.5,587.8z M540.5,590.5c-0.2,0.4-0.6,1.3-0.9,1.7
		c-0.7,0.6-2.7,0.4-3.4,0.4h-1.3c-0.4,0-1.7,0.2-1.7-0.6c0-0.2,0.2-0.9,0.2-1.1l3.4-11.8c0.4-0.9,1.1-3.4,1.1-4.3
		c0-0.4-0.2-0.7-0.6-0.7c-1.8,0-3.4,3.8-4.5,3.8c-0.4,0-0.6-0.2-0.6-0.6c0-0.9,1.8-2.7,2.5-3.4c1.8-2,4.5-4,7.3-4
		c1.7,0,2.7,0.9,2.7,2.7c0,1.8-0.6,4-0.9,5.8l-0.6,2.2c2.4-4,5.4-10.7,10.8-10.7c2,0,3.4,1.7,3.4,3.4c0,2.2-1.5,4.5-4,4.5
		c-1.8,0-2.4-0.9-2.5-2.7c0-0.4-0.2-0.9-0.7-0.9c-1.7,0-4.3,4.7-5.1,6L540.5,590.5z M513.5,593c7.5,0,16.5-5.1,16.5-13.3
		c0-6.5-5.8-10.1-11.6-10.1c-7.7,0-15.9,5.8-15.9,13.9c0,2.9,1.3,5.4,3.6,7.3C508.3,592.5,510.9,593,513.5,593z M513.3,591.6
		c-2.7,0-3.2-2.9-3.2-4.9c0-3,0.9-6.3,2.2-9c1.3-2.7,3.6-6.5,6.9-6.5c2.7,0,3.2,2.2,3.2,4.5C522.4,580,518.9,591.6,513.3,591.6z
		 M494.9,564.7c0-2.2,1.8-4.1,4-4.1c1.8,0,3.4,1.5,3.4,3.2c0,2.2-1.8,4.1-4.1,4.1C496.6,567.9,494.9,566.5,494.9,564.7z M494.8,591
		c-0.9,2.9-1.8,6.5-4,8.6c-2.2,2.2-5.4,3.6-8.5,3.6c-2.4,0-6.3-1.3-6.3-4.1c0-1.5,1.5-2.5,2.7-2.5c2.2,0,3,2,3.6,3.8
		c0.2,0.6,0.6,1.3,1.1,1.3c1.5,0,1.8-2.9,2.2-3.8l1.7-6.2l4.5-15.5c0.2-0.6,0.7-2.2,0.7-2.7c0-0.4-0.2-0.7-0.6-0.7
		c-1.8,0-4,3.8-4.9,3.8c-0.4,0-0.7-0.4-0.7-0.7c0-0.7,2.2-2.9,2.7-3.2c2-1.8,4.5-3.2,7.4-3.2c1.7,0,2.9,1.3,2.9,3
		c0,1.5-0.7,3.4-1.1,4.9L494.8,591z M468.5,583.3c5.2-0.7,16.3-1.1,16.3-8.3c0-3.8-3.6-5.2-6.9-5.2c-7.9,0-17.1,6.7-17.1,15.4
		c0,5.4,4.3,8.1,9.2,8.1c2.7,0,5.6-1.1,7.9-2.7c0.9-0.6,3.8-3.2,3.8-4.3c0-0.4-0.4-0.6-0.6-0.6c-0.9,0-3.6,4.3-8.1,4.3
		c-2.9,0-4.5-2.2-4.5-5.1L468.5,583.3L468.5,583.3z M468.7,581.5c0.6-3,3.6-10.5,7.5-10.5c1.1,0,1.7,1.1,1.7,2.2c0,2-1.3,4.7-2.7,6
		C473.5,580.5,471,581.5,468.7,581.5z M454,585.8c-0.2,0.6-0.7,2-0.7,2.5c0,0.4,0.2,0.6,0.7,0.6c1.5,0,3.6-4.3,4.3-4.3
		c0.4,0,0.6,0.4,0.6,0.6c0,1.3-2,3.4-2.7,4.3c-2,2-3.8,3.2-6.7,3.2c-2,0-3.4-0.9-3.4-3c0-2.4,1.3-5.8,2.2-8.1
		c0.6-1.3,2.9-7.1,2.9-8.3c0-0.4-0.2-0.7-0.6-0.7c-1.8,0-5.2,5.4-6.2,6.9c-1.5,2.5-4.3,8.3-5.2,11c-0.6,1.7-1.1,1.5-2.7,1.5h-2
		c-0.4,0-2.4,0.2-2.4-0.4c0-0.2,0.2-1.1,0.2-1.3l2.2-7.3c0.6-2,2.4-8.1,2.4-9.9c0-0.4,0-0.9-0.6-0.9c-1.8,0-5.2,6.3-6,7.5l-4,9.4
		c-0.2,0.6-0.6,1.8-0.9,2.4c-0.4,0.6-1.8,0.4-2.4,0.4h-1.7c-0.6,0-2.7,0.2-2.7-0.7c0-0.4,0.4-1.3,0.4-1.7l3-10.7
		c0.4-0.9,1.3-4.7,1.3-5.6c0-0.2,0-0.6-0.4-0.6c-0.9,0-3.8,3.8-4.5,3.8c-0.4,0-0.6-0.4-0.6-0.7c0-1.1,1.7-2.5,2.4-3.2
		c2-1.8,4.5-3.8,7.4-3.8c1.7,0,2.7,0.9,2.7,2.5c0,1.3-0.6,3.6-0.9,5.1l-0.6,2.4c2.5-4.3,5.4-9.7,11.2-9.7c2.5,0,3.2,1.5,3.2,3.8
		c0,2.2-0.9,5.1-1.3,7.4c2.5-4.5,6.7-11.2,12.4-11.2c2,0,3.8,0.7,3.8,3c0,1.8-0.7,3.8-1.5,5.6L454,585.8z M385.4,593
		c7.5,0,16.5-5.1,16.5-13.3c0-6.5-5.8-10.1-11.6-10.1c-7.7,0-15.9,5.8-15.9,13.9c0,2.9,1.3,5.4,3.6,7.3
		C380.2,592.5,382.7,593,385.4,593z M385.3,591.6c-2.7,0-3.2-2.9-3.2-4.9c0-3,0.9-6.3,2.4-9c1.1-2.7,3.6-6.5,6.9-6.5
		c2.7,0,3.2,2.2,3.2,4.5C394.3,580,390.9,591.6,385.3,591.6z M355.3,568.5c0.2-0.9,0.7-2.5,0.7-3.4c0-1.3-0.9-1.7-2-1.7
		c-0.6,0-1.3-0.2-1.3-0.9c0-0.9,0.9-1.1,1.7-1.1c2.4,0,4.7,0.2,7.1,0.2s4.7-0.2,7.1-0.2c0.7,0,1.3,0.2,1.3,0.9c0,1.1-1.1,1.3-2,1.3
		c-1.1,0.2-2,0.2-2.7,1.1c-0.7,0.9-1.3,2.5-1.7,3.6l-5.8,19.5c-0.2,0.4-0.4,1.1-0.4,1.5c0,1.5,2,1.3,2.9,1.3c4.3,0,6.2-0.9,8.3-4.7
		c0.4-0.6,0.7-1.3,1.5-1.3c0.6,0,1.1,0.4,1.1,1.1c0,0.7-0.4,2-0.7,2.7l-0.6,1.8c-0.2,0.6-0.4,1.7-0.7,2c-0.2,0.4-0.9,0.4-1.3,0.4
		c-5.1,0-10.3-0.2-15.4-0.2c-2.4,0-4.7,0.2-7.3,0.2c-0.6,0-1.3,0-1.3-0.9c0-0.9,1.1-1.1,1.8-1.3c2.9-0.4,3-0.9,3.8-3.6L355.3,568.5z
		"/>
</g>
</svg>
