<?xml version="1.0" encoding="utf-8"?>
<!-- Generator: Adobe Illustrator 27.1.1, SVG Export Plug-In . SVG Version: 6.00 Build 0)  -->
<svg version="1.1" id="Capa_1" xmlns="http://www.w3.org/2000/svg" xmlns:xlink="http://www.w3.org/1999/xlink" x="0px" y="0px"
	 viewBox="0 0 1000 1000" style="enable-background:new 0 0 1000 1000;" xml:space="preserve">
<style type="text/css">
	.st0{fill:#F4F4F4;}
	.st1{fill:#398DDE;}
	.st2{fill:#3A8DDE;}
	.st3{fill:#FFFFFF;}
</style>
<rect class="st0" width="1000" height="1000"/>
<g>
	<circle class="st1" cx="234.4" cy="517.5" r="234.2"/>
	<polygon class="st2" points="569.7,583.6 569.7,424.7 537.3,424.7 537.3,583.6 537.3,612.1 569.7,612.1 643.3,612.1 643.3,583.6 	
		"/>
	<path class="st2" d="M898.7,466c-18.1,0-34.7,6.7-47.5,17.8v-69.5h-32.4v197.7h32.4V598c12.8,11.1,29.3,17.8,47.5,17.8
		c40.5,0,73.3-33.5,73.3-74.9S939.2,466,898.7,466z M893.6,586.5c-19.6,0-36.3-13-42.3-31v-29.3c6-18,22.7-31,42.3-31
		c24.7,0,44.7,20.4,44.7,45.6S918.2,586.5,893.6,586.5z"/>
	<path class="st3" d="M379.1,450.6c-22.5,0-43.2,8.1-59.3,21.6v-86.3h-41.9V635h41.9v-14.5c16.2,13.5,36.8,21.6,59.3,21.6
		c51.8,0,93.7-42.9,93.7-95.7C472.9,493.5,430.9,450.6,379.1,450.6z M373.2,600.4c-29.2,0-52.8-24.2-52.8-54c0-29.8,23.7-54,52.8-54
		s52.8,24.2,52.8,54C426.1,576.2,402.4,600.4,373.2,600.4z"/>
	<path class="st3" d="M205.2,502.2h-80.3v41.9h70.9c-1.8,32.2-40.9,56.3-71,56.3c-46.6,0-84.4-39.9-84.4-89.2s37.8-89.2,84.4-89.2
		c31.2,0,58.5,18,73.1,44.6h43.6l-0.4-16.9c-21.6-42.9-65.4-72.2-115.8-72.2c-71.9,0-130.2,59.6-130.2,133s58.3,133,130.2,133
		c30.1,0,57.8-10.4,79.9-28V635h41.9v-90.9v-41.9H205.2z"/>
	<path class="st2" d="M788.5,514c0-22.1-19.5-37.4-41.1-43.2c-21.6-5.8-82.8,5.3-82.8,5.3v28.5c0,0,36.3-6.4,59.7-8.8
		c5.1-0.5,10.3-0.2,15.2,1.3c22.8,6.8,18.5,28.7,17.1,33.7c-15.6-1.7-45.1-1.8-65.6,1.2c-24.8,3.7-31.6,29.5-32.7,45.3
		s15.3,39,49.6,38.5c28.1-0.4,48-19.8,54.3-26.8v23.1h26.4V514L788.5,514z M756.4,562.3c-2.1,6.2-5.8,11.8-10.7,16.1
		c-5.7,5.1-14.9,10.8-27.1,10.9c-22.1,0.2-32.6-9.8-32-16.7c0.7-6.9,5.1-18,21.1-19.6h47.3C758.3,553.6,757.8,558,756.4,562.3z"/>
	<g>
		<path class="st2" d="M975.2,411.7c-13.7,0-24.8,11.1-24.8,24.8c0,13.7,11.1,24.8,24.8,24.8c13.7,0,24.8-11.1,24.8-24.8
			C1000,422.8,988.9,411.7,975.2,411.7z M975.2,456.7c-11.1,0-20.2-9-20.2-20.2c0-11.1,9-20.2,20.2-20.2s20.2,9,20.2,20.2
			C995.3,447.6,986.3,456.7,975.2,456.7z"/>
		<path class="st2" d="M985,432.8c0-4.9-3.6-7-9.4-7h-9.1v22.1h4.1v-8.1h5c0.3,0,0.6,0,0.9,0l4.5,8.2h4.4l-5.1-9
			C983.3,437.7,985,436.1,985,432.8z M975.4,436.3h-4.8v-7.1h4.8c3.6,0,5.5,0.8,5.5,3.6C980.9,435.5,979,436.3,975.4,436.3z"/>
	</g>
</g>
</svg>
