<?xml version="1.0" encoding="utf-8"?>
<!-- Generator: Adobe Illustrator 27.1.1, SVG Export Plug-In . SVG Version: 6.00 Build 0)  -->
<svg version="1.1" id="Capa_1" xmlns="http://www.w3.org/2000/svg" xmlns:xlink="http://www.w3.org/1999/xlink" x="0px" y="0px"
	 viewBox="0 0 1000 1000" style="enable-background:new 0 0 1000 1000;" xml:space="preserve">
<style type="text/css">
	.st0{fill:#F5F5F5;}
	.st1{fill-rule:evenodd;clip-rule:evenodd;fill:#FFFFFF;}
	.st2{fill-rule:evenodd;clip-rule:evenodd;fill:#C7061E;}
	.st3{fill:#FFFFFF;}
	.st4{fill-rule:evenodd;clip-rule:evenodd;fill:#00792D;}
	.st5{fill-rule:evenodd;clip-rule:evenodd;fill:#E88000;}
	.st6{fill:#00792D;}
	.st7{fill:#00793D;}
	.st8{fill-rule:evenodd;clip-rule:evenodd;}
</style>
<rect x="0" class="st0" width="1000" height="1000"/>
<g>
	<path class="st1" d="M980.2,506.4c11,0,19.8,8.8,19.8,19.8s-8.8,19.8-19.8,19.8c-11,0-19.8-8.8-19.8-19.8
		C960.5,515.2,969.4,506.4,980.2,506.4"/>
	<path class="st1" d="M385,486.9c1.2,0.8,2.2,1.6,2.9,2.6C387.1,488.5,386.2,487.5,385,486.9 M390.9,443c0-0.2,0-0.4-0.2-0.6v-0.2
		C390.9,442.6,390.9,443,390.9,443z M463.7,372.3c0,0.2,0,0.4,0,0.6v-0.2C463.7,372.7,463.7,372.7,463.7,372.3z M612.7,467.3
		c0-0.4,0.2-0.6,0.2-0.8C612.9,466.7,612.7,467.3,612.7,467.3z M944.4,460c-0.6-0.2-1-0.6-1.6-1c-0.4-3.9-0.4-9-0.4-14.5
		c0-6.5,0.2-13.5,0.2-20.2c0.2-7.9,0.2-14.1,0.2-19.4c0-13.5-0.6-20-2.7-24.5c-1-2.2-2.4-3.9-3.9-5.3c3.3-2.9,6.7-6.5,9.6-11.2
		c6.9-10.2,8.2-21.2,4.3-31.2c-4.5-11.4-15.1-18.3-23.4-19.8c-6.3-1.4-13.2,0.4-20,5.1c-9,6.1-19,18.1-21.4,31.2
		c-1.2,7.1-2,14.7,0,21.4c-1.4,0.2-2.6,0.6-3.7,1c-8.4,2.6-16.1,8.2-23,16.9c-0.8-2.7-1.6-5.1-2.9-7.1c-0.4-0.8-1-1.4-1.6-2
		c-3.3-3.5-7.9-5.5-12.8-5.5c-6.3,0-13.3,3.3-19.8,8c-1.2-1.4-2.6-2.6-4.3-3.7c-0.6-0.4-1.2-0.6-1.8-0.8c-14.3-6.3-33,0.8-46.1,11.6
		c-0.8-2.7-1.8-5.3-2.9-7.5c-0.4-0.8-1-1.4-1.6-2c-3.3-3.5-7.9-5.5-12.8-5.5c-6.3,0-13.2,3.3-19.6,8c-1.2-1.4-2.6-2.6-4.5-3.7
		c-0.6-0.4-1.2-0.6-1.8-0.8c-13.3-5.9-30.4-0.2-43.4,9.4c-0.6-1.2-1.2-2.4-2.2-3.3c-2.6-2.7-6.1-4.3-9.8-4.3h-35.7
		c-5.1,0-9.4,2.9-11.8,7.1c-1.8-2.4-3.9-4.5-6.9-6.1c-10.6-5.9-25.7-3.3-37.7,6.5l-4.7,3.7c-2.9,2.2-5.9,4.7-8.8,7.3
		c-2.2-4.5-4.5-8.6-7.7-12.2c-4.9-5.3-14.1-12.4-28.9-12.4c0-0.8,0.4-2.9,0.4-2.9c0.8-6.3,1.6-12.4,1.6-18.1c0-11-2.9-20-14.1-25.3
		c-13.5-6.3-38.7,0.2-51.2,10c-9,7.1-11.2,14.7-11.2,20.2c0,1.6,0.2,2.9,0.4,4.3c0.4,2.4,1.6,4.5,3.1,6.3c2,2.4,4.3,5.3,5.5,7.1
		c-0.6,4.3-1.8,13.5-2.9,23.2c-2.4,18.1-4.3,33.4-5.9,46.7c-1.8-23.6-3.3-52-4.5-79.1c0.4-1.8,0.8-4.1,0.8-6.9
		c0-3.5-0.8-7.7-3.1-11.4c-3.3-5.5-9-8.8-16.1-9.6l-2-0.2c-12.4-1.4-41.4-4.5-50.3,21c-7.9,21-15.5,43.2-22.2,62.8
		c-8.6,25.3-18.6,53.8-22,59.1c-3.1,3.5-18.3,20.6-18.3,37.5c0,3.1,0.4,6.1,1.6,9c2.2,5.5,8.2,14.7,25.7,15.3c0.4,0,0.8,0,1,0
		c7.3-0.2,13.3,0,18.1,0c9,0.2,18.8,0.6,26.1-6.1c3.1,2.2,6.9,3.7,11,4.3c33,4.7,45,0.4,51-3.5c3.5,3.9,8.8,6.3,14.7,6.7
		c5.9,0.4,11.8-1.2,16.9-3.9c11.8,4.3,23.4,4.5,34.2,0.8c15.3-5.3,28.5-19,39.1-40.6c1,20.2,7.7,35.7,28.1,38.9
		c11,1.6,21.6-3.9,29.6-9.4c3.5,4.9,8.4,8,15.7,9c11.6,1.4,26.9-3.5,38.5-12.2c0.4,2.6,1.6,4.9,3.3,6.9c2.6,2.9,6.3,4.5,10.2,4.3
		l35.7-1.2c6.9-0.2,12.4-5.5,12.8-12.4c0-0.2,1.2-15.7,5.1-50.1c0,0.2-0.2,1-0.2,1.2l1-6.7c0-0.6,0.2-1.4,0.4-2.2
		c2.7,0.8,5.9,0.8,9,0c0.8-0.2,1.4-0.4,2-0.6c7.5-3.1,13.3-10,17.5-20.8c-1,17.3-4.3,49.1-7.9,77.7c0,0.6,0,1,0,1.6
		c0,3.3,1.2,6.5,3.5,9c2.6,2.9,6.3,4.5,10.2,4.3l35.7-1.2c6.9-0.2,12.4-5.5,12.8-12.4c0-0.2,1.2-15.7,5.1-50.1c0,0.2-0.2,1-0.2,1.2
		l1-6.7c0.2-0.6,0.2-1.4,0.4-2.2c2.4,0.6,4.7,0.6,7.3,0.4c-0.6,12.2,0.2,25.5,3.5,39.3c0.2,0.4,0.2,1,0.4,1.4
		c8.2,22.8,21.2,29.1,30.6,30.2c8.2,1.2,16.9-1.8,24.5-7.1c2.6,2.4,5.5,4.1,9.2,5.3c13,3.7,24.9-4.7,34-12.6
		c17.9-15.5,19.8-31.6,20.6-39.5l0.2-2.2c0.2-1.2,0.4-2.4,0.4-3.5C957,467.3,948,462.2,944.4,460z"/>
	<path class="st2" d="M504.3,480.3c0,0,9,6.3,15.3-28.9c1.6-17.7-11.4-22.2-13.2-5.1C504.9,463.4,504.3,480.3,504.3,480.3
		 M511.2,338.9c10.8,5.1,5.7,17.1,2.7,50.6c52.8-18.6,52.8,56.1,31.8,101.7c-21,45.3-47.1,41.4-64.2,33c-5.7,6.9-17.7,8-21,2.4
		S477,377.2,477,373.1c0-3.9-9-14.1-9-14.1C465.1,344.6,500.4,333.8,511.2,338.9z"/>
	<path class="st2" d="M635.7,392.3l-9.6,76.8c-2.7,12.6-21,14.7-18.8-6.9c6.9-51.8,7.9-60.3,7.9-60.3c1.8-13-14.1-15.9-27.3-5.1
		c-13.2,10.8-34.2,22.2-12,39.8c-5.7,43.8-14.7,84.6,10.8,88.7c12.6,1.8,29.4-15.3,32.4-15.9c7.5-1.2-1.2,13.5,12.6,15.3
		c13.5,1.8,40.8-11.4,41.4-30c-2.2-10.8-12.4-12.6-12.4-12.6c7.9-56.7,10.8-89.7,10.8-89.7h-35.7V392.3z"/>
	<path class="st2" d="M727.7,404.3c0,0,21.6-22.8,27.9-15.9c6.3,10.2,2.7,57.9-12.6,64.2c-7.5,1.8-6.9-6.9-12.6-8
		c-5.7-1.2-6.9,21.6-8,27.3c-3.9,35.1-5.1,50.5-5.1,50.5l-35.7,1.2c0,0,10.2-84.6,8-93.8c-2.4-9-17.1-5.7-10.8-18.8
		c6.3-13,29.4-27.3,42.6-21.6C728.7,394.1,718.5,405.9,727.7,404.3"/>
	<path class="st2" d="M816.8,404.3c0,0,21.6-22.8,27.9-15.9c6.3,10.2,2.9,57.9-12.6,64.2c-7.5,1.8-6.9-6.9-12.6-8
		c-5.7-1.2-6.9,21.6-7.9,27.3c-3.9,35.1-5.1,50.5-5.1,50.5l-35.7,1.4c0,0,10.2-84.6,7.9-93.8c-2.4-9-17.1-5.7-10.8-18.8
		c6.3-13,29.6-27.3,42.6-21.6C818,394.1,807.6,405.9,816.8,404.3"/>
	<path class="st2" d="M885,439.4c-4.5,30.6,4.5,31.2,4.5,31.2c12,1.2,6.9-45.3,6.9-45.3C895.8,421.8,892.4,414.5,885,439.4
		 M908.3,388.4c0,0,16.5-9.6,19.8-2.4c3.3,7.5-0.6,58.5,1.8,77.7c1.8,7.5,14.7,8.6,13.7,14.1c-1.2,5.7,0,19.8-16.5,34.2
		c-16.5,14.1-26.1,14.1-31.8-3.9c-11.4,16.5-33.6,26.7-45.5-6.3c-9.6-39.7,3.9-74.4,10.2-89.7C874.8,380.9,892.4,378.6,908.3,388.4z
		"/>
	<path class="st2" d="M909.9,371.9c0,0,13.5,1.8,25.1-15.3c11.4-17.1-2.9-29.1-10.8-30.6c-7.9-1.8-23.2,12.6-25.5,25.5
		S896.9,374.1,909.9,371.9"/>
	<path class="st2" d="M391.3,437.3c-2.4,8,1.2,7.3,5.1,7.3c3.5,0,8.8-0.4,7.3-5.7c-0.4-1.2-2.4-12.2-3.5-20.6
		c-0.4-8.4-2.9,0.4-2.9,0.4S396.4,420.8,391.3,437.3 M448.2,502.4c6.3,9,4.5,17.1-3.5,22.8c-7.9,5.7-30,3.3-42,1.8
		c-12-1.8-13.2-15.3-6.3-24.9c12.4-14.1,7.9-18.6-6.9-18.6c-12-0.6-15.9,5.7-12,14.7c3.3,2.4,10.8,9.6,6.9,21
		c-3.9,14.1-10.8,8.4-39.3,9.6c-29.6-1.2-5.7-33.6,0.6-39.8c6.3-6.3,25.5-69.3,46.5-126c5.7-16.5,27.3-13.2,38.1-12
		c10.8,1.2,6.3,13,6.3,13S442.5,490.7,448.2,502.4z"/>
	<g>
		<path class="st3" d="M501.2,584.7c0.4-1.6,1.2-3.9,1.2-5.7c0-1.2-0.4-2.4-1.2-3.3c2.4-1.2,3.9-3.5,3.9-6.3c0-3.3-2.7-6.1-6.3-6.1
			c-3.7,0-6.9,3.1-6.9,7.1c0,1.4,0.4,2.6,1.2,3.3c-2.2,0.6-4.1,1.8-6.1,3.5c-0.6,0.4-1.2,1-1.8,1.6c-1.2-3.5-4.7-5.7-9.6-5.7
			c-9.2,0-19.4,6.9-20.8,16.5c-0.4,0-0.8,0-1.2,0l1.6-4.1c0.8-2.2,1.6-4.3,1.6-6.7c0-3.5-2.6-5.7-6.5-5.7s-7.1,2-9.8,4.9
			c-0.6-3.9-3.5-4.9-5.9-4.9c-3.5,0-6.1,1.4-8.2,3.5c-0.6-2.2-2.6-3.5-5.1-3.5c-3.1,0-6.5,1.6-9.8,4.7l-0.2,0.2
			c-1.6,1.6-3.1,3.1-3.1,5.1c0,1.8,1.4,3.3,3.1,3.3c0.6,0,1-0.2,1.4-0.4l-3.3,11.2c-0.6,1.6-0.6,2.4-0.6,2.6c0,1.2,0.6,2.6,2.4,2.9
			c0.6,0.2,1.2,0.2,2,0.2c0.4,0,0.6,0,1,0h0.2h2.4c0.8,0,2.7,0,3.7-1.4l0.2-0.2c0.6-0.8,1-2.6,1.2-2.9l4.3-10c0.4-0.6,0.8-1.4,1-1.8
			c-0.4,1.4-0.8,2.6-1,3.5l-2.4,7.9c0,0,0,0.2,0,0.4v0.2c-0.2,0.6-0.2,1-0.2,1.4c0,1,0.6,2.4,2.4,2.7c0.4,0.2,1,0.2,1.6,0.2
			c0.4,0,0.6,0,0.8,0h0.2h2.9c1.8,0,3.5-0.4,4.5-3.3c0.6-2.4,2.9-7.1,4.7-10.2c-1,2.6-2.2,5.7-2.2,8.4c0,3.5,2.6,5.7,6.1,5.7
			c4.3,0,7.1-2.4,9.2-4.5c0.6-0.8,1.2-1.4,1.8-2.2c1.8,4.1,6.1,6.7,11.6,6.7c3.5,0,7.1-1.2,10-3.3c0,0,5.3-3.7,5.3-6.7
			c0-1.8-1.4-3.1-3.1-3.1c-1.2,0-2.2,0.8-3.1,1.8c-1.4,1.4-3.3,2.9-5.7,2.9c-1.6,0-2.4-0.8-2.6-2.6l0,0c5.1-0.6,13.9-1.6,16.7-7.1
			c0.4,0.2,1,0.4,1.6,0.4c0.8,0,1.4-0.2,2-0.6l-4.1,13.9l-1.8,6.7v0.2c-1-1.6-2.6-3.1-5.1-3.1c-2.9,0-5.5,2.4-5.5,5.3
			c0,4.7,5.5,6.9,9.2,6.9c3.9,0,8.2-2,11-4.7c2.6-2.7,3.7-6.5,4.7-9.8l4.5-15.5L501.2,584.7z M473.5,580c-0.2,1.4-1.2,3.3-2.2,4.3
			c-0.4,0.4-1,0.8-1.8,1C470.6,582.9,472.1,580.6,473.5,580z"/>
		<path class="st3" d="M380.5,573.3c-9.4,0-19.4,6.9-19.8,16.9c-0.6-0.4-1.4-0.8-2.2-0.8c-2.2,0-3.3,1.8-3.7,2.6
			c-2,3.3-2.9,3.9-6.9,3.9h-0.4l6.3-20.8l0.2-0.4c0.2-0.8,0.8-2.2,1.2-2.6l0.2-0.2c0,0,0.4,0,0.8-0.2c0.2,0,0.4,0,0.6-0.2
			c3.5-0.4,4.1-2.4,4.1-3.9c0-1.6-1-3.3-3.9-3.3c-1.2,0-2.2,0-3.3,0.2c-2.9,0.2-5.9,0.2-8.8,0c-1,0-2.2-0.2-3.1-0.2
			c-2.6,0-4.3,1.6-4.3,3.7c0,1.6,1.2,3.1,3.5,3.3c-0.2,0.6-0.4,1.2-0.4,1.8l-6.3,20.8c-0.2,0.8-0.6,1.6-0.6,1.8c0,0-0.4,0.2-1.4,0.4
			c-3.5,0.4-4.1,2.4-4.1,3.7c0,1.2,0.8,3.3,3.9,3.3c2,0,3.9-0.2,5.9-0.2h1.8h4.1c4.1,0,8.4,0.2,12.6,0.2l0,0c0.6,0,2.6,0,3.5-1.6
			c0.4-0.6,0.6-1.4,0.8-2.2c0-0.2,0.2-0.4,0.2-0.4v-0.2l0.6-2c0.2-0.4,0.2-0.6,0.4-1c0.8,2,2.2,3.5,3.9,4.9c2.7,2,5.9,2.9,9.6,2.9
			c9.8,0,20.2-6.5,20.2-16.9C395.6,578,387.9,573.3,380.5,573.3z M374.2,594.1c0-2.6,0.8-5.7,2.2-8.8c1.2-2.6,3.1-5.5,5.1-5.5
			c0.6,0,1,0,1,2.4c0,4.7-3.7,14.9-7.3,14.9C374.2,597.1,374.2,594.3,374.2,594.1z"/>
		<path class="st3" d="M930.3,589.2c-0.6,0-1,0.2-1.6,0.4l0.6-2.2c0.2-0.6,0.4-1.4,0.8-2.6c2-6.1,2.4-7.9,2.4-8.6
			c0-1.2-0.8-3.1-3.7-3.1c-0.2,0-0.4,0-0.8,0h-2c-0.2,0-0.4,0-0.6,0c-1.6,0-2.9,0.2-3.7,1c-1-0.4-2-0.6-3.1-0.6
			c-5.5,0-11,3.3-14.3,6.5c-4.3,4.3-6.7,9.2-6.7,14.3c0,5.5,2.7,9,7.3,9c3.7,0,7.1-2,10-4.7c0.2,2.9,2,4.7,4.9,4.7
			c3.9,0,7.9-2.9,10.2-5.3c1.4-1.4,3.5-3.7,3.5-5.9C933.3,590.6,932.1,589.2,930.3,589.2z M913.2,586.5c2.7-4.9,4.7-5.9,5.7-6.1
			c-0.4,2.7-5.5,11-8.2,13.2C910.9,591.6,911.7,589,913.2,586.5z"/>
		<path class="st3" d="M895.4,576.6c-1.6-1.8-3.7-2.6-6.3-2.6c-1.8,0-3.5,0.4-5.3,1.2l2.6-8c0.2-0.4,0.2-0.8,0.2-1.2v-0.6
			c0.2-1.4-0.2-2.6-1-3.3c-1-0.8-2.2-1-2.9-1c-1.2,0-2.6,0.2-4.3,0.6c-4.5,1.2-7.7,2.6-7.9,5.1c0,0.8,0,2.2,1.6,3.3l0.2,0.2
			l-8.2,27.5l-0.4,1c0,0.2-0.2,0.4-0.2,0.8c0,1.2,0.8,3.5,4.1,3.5h3.1c1.8,0,2.9-0.2,3.5-0.4c1.4-0.4,2.2-1.6,2.6-2.9
			c1-3.7,2.2-7.1,3.3-9.8c1.8-4.1,3.3-5.7,4.3-6.1l-3.1,10.4v0.2l-0.8,3.9c0,0.2,0,0.4,0,0.6c0,1.8,0.4,2.9,1.4,3.9
			c0.8,0.8,1.6,1.2,2.7,1.2s2.7-0.2,4.7-0.8c3.9-1,7.9-2.6,8.2-5.7c0,0,0-0.2,0-0.4c0-0.6-0.2-2.4-2.6-3.1l2.4-8.6
			c0-0.2,0-0.2,0-0.2l0.2-1.6C897.9,580.8,897.1,578.4,895.4,576.6z M886.7,582.1l-2,1.4c0,0,0,0-0.2-0.2L886.7,582.1z"/>
		<path class="st3" d="M861,590.2c-1.6,0-2.7,1.2-3.3,2c0,0.2-0.2,0.2-0.2,0.2l-0.2,0.2c-1.2,1.2-3.7,2.4-5.5,2.4
			c-0.6,0-2.4,0-2.4-3.5c0-2.6,0.8-5.3,2.2-7.9c0.6-1.2,1.8-2.6,2.6-3.3c0,0,0,0.2,0.2,0.2c0.8,2,2.4,4.5,6.5,4.5
			c3.3,0,5.9-2.4,5.9-5.5c0-4.3-4.5-6.5-9-6.5c-6.9,0-14.3,3.5-18.5,9.2c0-0.4,0-0.6,0-1c0-4.9-3.9-8.2-10-8.2c-10,0-21,8-21,19
			c0,6.7,5.1,11.4,12.6,11.4c3.5,0,7.1-1.2,10-3.3c0,0,5.1-3.7,5.1-6.7c0-1.8-1.4-3.1-3.1-3.1c-1.2,0-2.2,0.8-3.1,1.8
			c-1.4,1.4-3.3,2.9-5.7,2.9c-1.6,0-2.4-0.8-2.4-2.6l0,0c4.3-0.4,11.2-1.2,15.1-4.9c-0.4,1.4-0.6,2.7-0.6,4.3
			c0,6.7,4.7,11.4,11.6,11.4c3.9,0,8-1.2,11.4-3.5c3.5-2.6,5.5-4.9,5.5-6.9C864,591.6,862.6,590.2,861,590.2z M826.7,580
			c-0.2,1.4-1.2,3.3-2.2,4.3c-0.4,0.4-1,0.8-1.8,1C823.7,582.9,825.3,580.6,826.7,580z"/>
		<path class="st3" d="M558.7,573.3c-3.3,0-5.7,1.6-7.9,3.7c-0.6-2.4-2.6-3.7-5.3-3.7c-4.3,0-8,3.1-9.6,4.9c-1.2,1-1.8,2-2.4,2.6
			c-2.6-4.9-8.2-7.5-13.7-7.5c-9.6,0-19.8,7.1-19.8,17.7c0,3.9,1.8,7.3,4.9,9.8c2.7,2,5.9,2.9,9.6,2.9c9.8,0,20.2-6.5,20.2-16.9l0,0
			c0.8,0.2,1.8,0,2.4-0.6l-3.5,11.6v0.2c-0.2,1-0.4,1.4-0.4,1.8c0,1.4,0.8,2.4,2,2.7c0.4,0.2,1,0.4,1.8,0.4h0.6h2c0.2,0,0.6,0,1,0
			c1.4,0,2.9-0.2,3.9-1c0.8-0.6,1.2-1.8,1.6-2.4l5.1-11.4c0.8-1.6,1.6-2.7,2.4-3.7c1.2,2,3.1,2.4,4.5,2.4c4.1,0,6.7-3.9,6.7-7.5
			C564.8,576,562,573.3,558.7,573.3z M513.4,594.1c0-2.6,0.8-5.5,2.2-8.8c1.2-2.7,3.1-5.5,5.1-5.5c0.6,0,1,0,1,2.4
			c0,4.7-3.7,14.9-7.3,14.9C513.4,597.1,513.4,594.3,513.4,594.1z"/>
		<path class="st3" d="M629.2,573.3c-9,0-19,6.7-20.8,15.9c-0.6,0-1.4,0-2,0.4l6.3-21.4l0.2-0.4c0.6-1.6,0.8-2.4,0.8-3.1
			c0-1.8-1.4-2.9-2.9-2.9c-0.8,0-1.4,0.2-1.8,0.6c-2,1-4.5,1.6-6.9,1.6h-1.6c-2.9,0-4.3,1.8-4.3,3.5c0,0.8,0.2,2.9,2.9,3.3l-1,3.1
			c-0.6-0.2-1.2-0.2-2-0.2c-5.1,0-10.4,2.4-14.9,6.5c-1.6,1.6-7.1,7.3-7.1,14.3c0,5.7,3.1,9.6,7.7,9.6c3.7,0,7.1-2.4,10-5.3
			c0,3.1,2.2,5.3,5.5,5.3c4.7,0,7.9-2.9,9.8-5.1c0.6-0.6,1-1.2,1.4-1.8c1.8,4.1,6.1,6.9,11.6,6.9c3.5,0,7.1-1.2,10-3.3
			c0,0,5.1-3.7,5.1-6.7c0-1.8-1.4-3.1-3.1-3.1c-1.2,0-2,0.8-3.1,1.8c-1.4,1.2-3.3,2.9-5.7,2.9c-1.6,0-2.4-0.8-2.4-2.6l0,0
			c6.3-0.8,17.7-2,17.7-11.2C639.2,576.4,635.1,573.3,629.2,573.3z M591.5,584.9c1.6-2.4,3.7-4.3,5.1-4.7c-0.4,1.8-1.8,4.3-3.7,7.3
			c-2.2,3.1-3.7,4.5-4.5,5.3C588.5,590.2,590.1,587,591.5,584.9z M626.8,580c-0.2,1.4-1.2,3.3-2.2,4.3c-0.4,0.4-1,0.8-1.8,1
			C623.9,582.9,625.5,580.8,626.8,580z"/>
		<path class="st3" d="M699.3,589.2c-0.6,0-1,0.2-1.6,0.4l0.6-2.2c0.2-0.6,0.6-1.8,1-3.1c2-5.9,2.4-7.3,2.4-8c0-1.2-0.8-3.1-3.7-3.1
			c-0.2,0-0.4,0-0.8,0h-2c-0.2,0-0.4,0-0.6,0c-1.6,0-2.9,0.2-3.7,1c-1-0.4-2-0.6-3.1-0.6c-6.9,0-12.6,5.1-14.3,6.5
			c-3.1,2.9-5.1,6.3-6.1,9.6c-0.6,0-1.2,0.2-1.8,0.6l6.9-23.4l0.2-1c0.2-0.4,0.4-1,0.4-1.8c0-1.6-1.2-2.9-2.9-2.9h-0.2
			c-1.2,0-2.2,0.6-2.4,0.8c-1.8,1.2-4.3,1.4-6.7,1.4H660c-4.5,0-4.9,2.7-4.9,3.5c0,1,0.4,2.9,3.3,3.3c-0.2,0.4-0.4,1.2-0.6,2.2
			l-5.1,17.5l-0.2,0.8c-0.6,1.8-1.2,3.9-1.2,6.1c0,3.7,2.6,6.5,6.1,6.5c4.1,0,7.7-3.1,9.2-4.5c0.2-0.2,0.4-0.4,0.4-0.6
			c1,3.1,3.3,4.9,6.7,4.9c3.7,0,7.1-2.2,9.8-4.7c0.2,2.9,2.2,4.7,5.1,4.7c3.1,0,6.7-1.8,10-5.1c0.6-0.6,3.5-3.5,3.5-5.9
			C702.2,590.6,701,589.2,699.3,589.2z M682.2,586.5c2.7-4.5,4.5-5.9,5.7-6.1c-0.4,2.7-5.5,11-8.2,13.2
			C679.8,591.6,680.6,589,682.2,586.5z"/>
		<path class="st3" d="M800.2,582.3c1.6,1.6,3.1,3.3,5.1,3.3c3.1,0,3.7-2.9,3.9-3.9l0.2-0.8c0.2-0.8,0.2-1.6,0.2-2.2
			c0-5.1-8-5.7-11.4-5.7s-6.3,0.6-8.6,2c-2.9,1.6-4.7,4.3-4.7,7.3c0,4.5,3.9,7.9,6.7,10l0.4,0.4c1.2,1,2.7,2.4,2.7,3.3
			c0,0.4-0.2,0.6-0.2,0.8c-0.8,0-2.4-2.2-3.3-3.1c-2-2.2-3.7-4.3-6.1-4.3c-0.8,0-1.6,0.2-2.2,0.8c0.2-1.2,0.4-2.4,0.4-3.7
			c0-8.6-7.9-13.5-15.1-13.5c-8.6,0-17.7,5.7-19.4,14.5c-0.4-0.2-0.8-0.2-1.4-0.2c-1.8,0-2.9,1.4-3.9,2.6c-0.2,0.2-0.2,0.2-0.4,0.4
			c-1.8,1.8-5.3,3.5-7.9,3.5s-3.9-1.8-3.9-5.5c0-3.5,1-7.3,2.9-10.8c1.2-2.4,3.3-4.5,4.5-5.1c0.2,0.4,0.4,0.8,0.4,1v0.2
			c1.4,3.7,3.9,5.5,7.7,5.5c3.5,0,7.1-2.4,7.1-6.5c0-5.7-6.7-7.9-11.2-7.9c-13.2,0-28.1,10-28.1,24.3c0,8.4,6.1,14.3,14.5,14.3
			c5.1,0,10.4-1.6,14.7-4.5c1.6-1.2,3.5-2.7,5.1-4.5c0.8,2.4,2.4,4.5,4.3,6.1c2.7,2,5.9,2.9,9.6,2.9c6.9,0,14.1-3.1,17.9-8.8
			c0,0.2,0,0.4,0,0.8c0,3.1,1.2,5.1,4.1,6.5c2.7,1.2,6.3,1.6,8.6,1.6c5.7,0,13.5-3.3,13.5-10.6c0-4.3-3.5-7.1-6.3-9.4
			c-1.4-1.2-2.9-2.4-3.3-3.3C798.4,580.6,799.4,581.7,800.2,582.3z M761.9,594.1c0-2.6,0.8-5.5,2.2-8.8c1.6-3.5,3.5-5.5,5.3-5.5
			c0.6,0,1,0,1,2.4c0,4.7-3.7,14.9-7.3,14.9C761.9,597.1,761.9,594.3,761.9,594.1z"/>
	</g>
	<path class="st1" d="M203.6,235.7h0.4c16.7,4.5,41.8,17.1,57.7,50.3c3.7,8.2,5.7,17.7,7.3,26.7l4.3,0.2
		c3.5-9.6,15.1-21.2,26.1-16.7c2.9,1.8,4.5,4.1,5.1,7.7c5.9-1,14.9,4.1,12.6,11.2c6.3,3.7,7.9,12.8,0.6,16.7
		c2.2,12-9.8,16.1-19.6,16.1c-5.9-0.6-11.6-2.7-16.9-5.3c-7.9,5.7-19.4,11.2-28.7,13c-11,20-27.7,34.9-49.9,40.6
		c-12,2.6-23.4,3.3-35.5,0.8c-9.2-2.4-17.7-6.1-25.7-11.4c-9.8-6.9-17.1-14.3-23.8-24.3l-0.2-0.2l-0.2,0.6l-0.8,1.6l9.4,43
		c0.4,7.1-4.3,12.8-11.8,12.4c-6.1-0.2-9-6.5-10.4-11.8l-6.5-28.9c-2.7,2.2-18.8,0.4-22-1.6c-6.3-2-13.3-5.9-16.9-11.6
		c-6.1-11.2-1.2-25.7,8.2-32.6c5.3-4.5,11-7.1,17.5-9.4l-6.7-33.4c-6.5-4.7-11.4-14.9-11.2-23.4c0.8-12.8,5.7-31,7.9-43l24.1,35.7
		c3.1,8.8,3.3,15.7-0.4,24.1c0.8,4.1,1.8,8.6,2.7,12.8c5.9-20.6,21.6-39.5,39.3-50.1c10.2-6.3,16.9-8.2,26.7-10.2
		c-5.7-34.5,8.8-46.3,20.4-44.8C197.3,192.1,207.9,210.3,203.6,235.7"/>
	<path class="st4" d="M94.1,260c2.9,7.1,2.9,14.9-1.2,21.2c2.4,13.9,6.3,27.3,9.4,41c3.1-0.4,5.3-0.4,7.1-0.2
		c0.4-4.5,0.2-9.8,0.8-14.3l-7.9,0.2c0-5.3,1.4-10.6,3.1-15.5c11-27.9,35.1-49.7,59.1-53.6c-1.2,0,2.4,3.1,3.7,3.9
		c12.4,8.6,24.1,6.3,35.3-2.7c29.8,8.6,54.6,34.9,60.1,67.3l-7.5,0.6l0.4,9c2.6-1,6.1-1.2,7.9-0.8c3.9-0.4,8,1.6,11.6-1.8
		c3.5-7.9,9.6-15.9,19-15.9c1.8,0.4,3.3,1.6,4.3,3.1c0.4,2,0.8,3.9,0.2,5.9c2.2,0.2,4.3-0.2,6.5-0.4c2.2,0.2,4.5,0.8,5.9,2.9
		c1.8,2.2-0.4,4.5,0,6.5c2,1.2,4.3,2.2,5.5,4.1c0.4,1.8,0.4,3.5-0.6,4.9c-1.4,1.4-3.1,2.4-4.9,2.9c0.8,2,2.4,4.7,1.2,7.1
		c-2.9,6.1-9.2,6.7-15.3,6.7c-6.1-0.4-11.6-3.1-17.3-5.9c-10.8,7.7-18.6,11.8-31.8,15.1c-13.2,26.3-36.7,41.2-65.8,41.4
		c-27.3,1-56.3-19-66.9-44.8c-3.1-7.5-5.1-15.3-6.1-23.8c-2-0.6-4.7-0.4-6.9,0l3.1,14.3c1.4,1,2.4,1.4,4.1,3.3
		c1.6,2,1.6,4.5,1.6,7.1c1.6,2.7,2.7,6.3,1.4,9.4l-1.6,2.9l9.6,44.2c0.2,2.2-0.6,4.7-2.7,6.3c-2,1-4.1,1.6-6.3,1
		c-3.1-1.4-4.1-4.9-4.9-8l-7.3-32c-3.7,0.4-7.7,0.2-10.4-1.4c-1.4-0.8-2,1.6-5.3,1.4c-8.4,0.4-18.1-4.3-23-12
		c-3.7-7.1-1-14.3-0.2-15.5c5.3-12.8,16.3-17.1,28.1-20.8l-8.4-38.5c-7.1-4.9-11.2-13.7-10.8-22.6l5.5-30.6L94.1,260z"/>
	<path class="st1" d="M91.5,260.6c3.1,7.1,2.7,15.1-1.4,21.4l2.4,11l11.8,50.3c-1.4,2-5.7,2.4-7.7,1.8l-0.2-1l-11.8-54.8
		c-0.4-1.2-1-4.5-1.6-4.9c-5.1-3.7-8.2-8.2-10.2-17.5c0.2-1.2,0.2-3.1,0.4-4.5l3.7-23.9L91.5,260.6z"/>
	<path class="st5" d="M184.6,194.4c0,2.7,1.2,6.5,0.8,8.4c5.1-3.7,8.4,0.2,11.2-2.4c-0.4,2.9-2.2,4.9-3.5,6.1
		c-1.4,1.4-4.5,2.4-7.5,0.6v6.5c2.7-4.3,9.4-2.7,13.7-3.3c-2.4,5.3-6.1,8-11.2,7.7c-0.8-0.4-1.8-1-2.7-1.6v6.3
		c4.7-4.5,11,1,16.1-1.4c-2.4,4.3-7.1,8.2-13,7.1c-1.2-1-1.8-1-2.9-2.2v9c2.9-6.1,10.6-4.3,15.7-5.3c-1.6,3.9-2.7,5.3-5.1,7.3
		c-2.9,2.2-8,3.5-10.8,0.4v5.9l-2,0.2v-5.3c-3.3,1.8-6.5,1.4-8.4-0.4c-3.3-2.2-4.3-3.7-5.5-8.2c4.3,2,10.2,0.2,14.1,3.7V226
		c-2.2,2.2-5.9,2-8.4,0.8c-2.6-1.8-4.1-3.5-5.7-5.9c1.6,0.4,2.2,0.8,3.3,0.8c3.5-0.8,7.9-1.8,10.6,1v-5.9c0,1.2-4.9,3.7-8,0.8
		c-1.4-0.4-3.5-4.3-3.5-6.7c2.6,3.9,6.5-1.4,11.6,2.4v-6.9c0,1.8-3.3,3.5-6.5,2.4c-1.2,0-4.3-3.7-3.9-6.5c2.9,3.1,4.9-0.8,10.2,0.8
		C183.8,200.9,183.6,197,184.6,194.4"/>
	<path class="st1" d="M182.2,205.8c-1.2,1.8-3.3,2-4.9,1.4l-2.2-2.2C177.7,205.2,181.8,202.7,182.2,205.8"/>
	<path class="st1" d="M194.2,202.7c-0.6,1.8-3.7,3.7-5.3,3.5c-0.4,0.2-2.6,0-3.3-1.2C189.1,201.1,191.4,202.9,194.2,202.7"/>
	<path class="st1" d="M182.6,215.6c-3.5,2.9-6.5,1.6-8.6-1.6C176.9,213.9,181,212.1,182.6,215.6"/>
	<path class="st1" d="M196.7,211.9c-2.7,2.7-4.3,4.5-8,4.1l-2-0.6c0.2-1.4,1.4-2.2,2.6-2.7C191.6,211.9,194.6,211.9,196.7,211.9"/>
	<path class="st1" d="M182,224.3c-1.6,1.8-3.1,1.6-5.1,1.6c-0.8-0.2-2.4-0.8-3.7-2.4C175.7,222.9,180,221.7,182,224.3"/>
	<path class="st1" d="M197.5,223.1c-2.6,2.9-6.9,4.9-10,2.7l-1.8-1.4C189.3,220.3,194,223.9,197.5,223.1"/>
	<path class="st1" d="M183.6,236c-1.6,1.2-4.7,1.6-6.7,1c-1.8-0.8-4.1-3.1-5.1-4.7C175.3,233.1,180.6,232.9,183.6,236"/>
	<path class="st1" d="M198.7,231.9c-2.2,2.9-3.3,5.3-7.9,5.5c-1.2-0.2-3.3-0.2-3.7-1.4C188.5,232.5,195,231.1,198.7,231.9"/>
	<path class="st1" d="M214.8,262.2c3.9,0.2,11.2,10.8,15.3,15.5c-25.7-5.3-59.5-9.6-95.4,1.2c3.9-5.7,9-12.6,15.5-15.5
		C173.2,258.2,194.6,257.3,214.8,262.2"/>
	<path class="st1" d="M240.5,295.5c2.6,4.1,2.9,8.2,3.5,12.4h8.6c3.9,25.1-6.3,51-25.7,66.9c-18.3,16.3-49.5,20-71.1,9.8
		c-26.9-12.6-43.8-38.5-43-69.3l0.8-7.7h8.4c1.2-2,1.4-8.4,4.1-12.2C165.9,286.7,196.1,283.9,240.5,295.5"/>
	<path class="st4" d="M163.2,323.6c7.3,8.2,17.9,12.6,28.3,8.4c6.3-2.7,8.4-5.1,12.4-10.2l1.8,1.4c-2,3.9-5.3,6.3-7.9,8.2
		c-0.6,4.5-1.8,9-5.9,11.8c-4.5,2.9-11.4,3.3-15.7,0c-6.1-4.7-5.9-9.8-6.3-11c-1.8-1.4-5.9-4.3-8.2-7.5L163.2,323.6z"/>
	<path class="st1" d="M297,303.6c2,3.1-3.1,6.5,0,8c3.7-1.2,8.8-3.5,12,0c1.4,2.7-2.9,3.9-2,6.1c2.6,1.2,7.7,2,7.7,5.9
		c-1.2,2.6-3.9,2.9-6.5,3.3c-1.4,2.4,2,3.5,2,5.7c0.8,2.2-1,4.1-2.6,5.1c-9.4,4.7-19,0.2-27.3-4.9c-8.2,6.7-17.5,12-28.7,14.1
		c2.4-8.6,5.1-17.3,5.1-26.5c7.3-4.7,16.1,2.2,22.4-5.1c2.7-5.7,6.3-12.6,12.8-14.3C293.9,301,296.1,301.6,297,303.6"/>
	<path class="st4" d="M187.9,315c1.4,1.4,2.6,2.7,2.7,4.9l-2.2,0.4c0-1.6-1.6-4.3-4.7-4.5c-3.7-0.2-5.3,2.6-5.3,4.1l-2.4,0.4
		c0-2.9,2.2-5.3,4.7-6.3C183.2,313.2,185.7,313.4,187.9,315"/>
	<path class="st6" d="M179.6,305.1c0-5.9-4.7-10.6-10.4-10.6c-5.7,0-10.4,4.7-10.4,10.6c0,5.9,4.7,10.6,10.4,10.6c0.2,0,0.6,0,0.8,0
		h0.2v-0.2C175.5,315.2,179.6,310.6,179.6,305.1 M162.8,305.1c0-3.7,2.9-6.7,6.5-6.7c1.4,0,2.6,0.4,3.7,1.2
		c-2.9,0.6-5.5,2.6-6.7,5.7c-0.6,2-0.6,3.9,0,5.9C164.3,310.3,162.8,307.9,162.8,305.1z M171.2,311.6c-1.2-1.4-1.8-3.1-1.2-4.9
		c0.8-2.4,3.3-3.7,5.7-3.1c0.2,0.6,0.2,1,0.2,1.6C175.9,308.3,173.8,310.8,171.2,311.6z"/>
	<path class="st6" d="M207.9,305.9c0-5.9-4.7-10.6-10.4-10.6s-10.4,4.7-10.4,10.6s4.7,10.6,10.4,10.6c0.2,0,0.4,0,0.6,0
		c0,0,0,0,0.2,0.2l0.2-0.2C203.6,316.1,207.9,311.4,207.9,305.9 M191,305.9c0-3.7,2.9-6.7,6.5-6.7c1.4,0,2.6,0.4,3.7,1.2
		c-0.8,0.2-1.6,0.4-2.4,0.8c-2.2,1-3.5,2.7-4.3,5.1c-0.6,2-0.6,3.9,0,5.7C192.4,310.6,191,308.5,191,305.9z M199.3,312.4
		c-1.2-1.2-1.8-3.1-1.2-4.9c0.4-1.2,1.2-2.2,2.4-2.7c1-0.6,2.2-0.6,3.3-0.2c0.2,0.6,0.2,1,0.2,1.6C204,309.1,202,311.6,199.3,312.4z
		"/>
	<path class="st1" d="M92.7,337.3c-4.1,1-7.9,3.7-10.4,7.3c-2.9-1-6.7-1.8-9.4,0l0.2,1.6c3.9-1,7.5-0.4,10.6,1.4
		c1.2-2.6,2.6-4.5,4.9-5.9c2.2,4.7,7.5,5.9,12,5.7c2.9-0.2,5.1-1.4,7.5-2.6c2.2,1.8,0,5.3,2.6,6.9c1.2,2.4,0.6,4.7-0.2,6.9
		c-5.1,1.8,0.4,7.9-4.7,9.6c-4.9,2.7-10.4,2.7-15.5,0.8c-5.7,3.3-12.4,1.8-17.9-0.8c-5.1-3.1-10.2-7.5-10.2-14.3
		c-0.2-0.8-1-5.9,4.3-12.6c5.7-7.7,14.3-12,23.6-13.9L92.7,337.3z"/>
	<path class="st1" d="M94.5,344.6c-0.4-0.2-3.7-1.8-3.9-3.9l2.7-1.2L94.5,344.6z"/>
	<path class="st1" d="M195.2,333.2c0,3.7-2.7,7.5-5.9,8.8c-4.3,2.2-9.2,1.6-12.8-1.2c-2.2-2-3.7-4.3-4.1-7.5
		C179.1,337.1,187.9,336.9,195.2,333.2"/>
	<path class="st1" d="M110,368.8c3.1,12.6,6.1,25.1,8.4,37.9c0,1.8-1.2,3.3-2.6,3.9c-1.8,0.4-3.7-0.2-4.7-2
		c-2.9-12-5.3-24.1-7.9-36.3C105.6,371.5,108,370.5,110,368.8"/>
	<path class="st1" d="M168.8,395.1h0.4c19.2,5.3,47.9,19.4,66.2,57.7c4.3,9.6,6.5,19,8.2,29.4c-4.1,1.2,8.6,1.8,4.9,1.6
		c4.1-11.2,17.5-24.1,30-19.2c3.3,2,5.1,4.7,5.9,8.8c6.9-1.2,17.1,4.7,14.3,13c7.3,4.3,8.8,14.5,0.8,19
		c2.4,13.7-11.4,18.5-22.6,18.5c-6.7-0.6-13.2-3.1-19.2-6.1c-9,6.5-22.4,12.8-33,14.7c-12.8,23-31.8,40.2-57.1,46.5
		c-13.9,2.9-26.9,3.7-40.8,0.8c-10.6-2.7-20.2-7.1-29.4-13c-11.2-7.9-19.6-16.5-27.3-27.9l-0.2-0.2l-0.4,0.6l-1,2l10.8,49.3
		c0.4,8-5.1,14.7-13.5,14.1c-7.1-0.2-10.4-7.5-11.8-13.5L46.6,558c-3.1,2.6-21.2,1.2-24.5-1.2c-7.1-2.2-15.9-9.4-20.2-15.9
		c-5.1-12.8,1.2-26.5,10.4-35.1c6.3-5.3,12.6-8.2,20-11l-8.4-38.5c-7.5-5.3-13-17.1-13-26.7c1-14.5,6.5-35.5,9-49.3l27.9,41.2
		c3.7,10.2,3.9,17.9-0.4,27.7c0.8,4.7,2,10,3.1,14.7c6.7-23.6,24.7-46.5,45.1-58.7c8.4-4.7,20.8-9.6,30.6-10.6
		c-6.5-39.7,10.2-53.2,23.4-51.2C161.8,345,173.8,366,168.8,395.1"/>
	<path class="st4" d="M43.2,423.3c3.5,8,3.3,17.1-1.2,24.1c2.7,15.9,7.3,31.2,10.8,46.9c2.7-0.8,6.9-0.2,8-0.4
		c0.6-5.3,0.2-11.4,0.8-16.5l-9,0.4c0-6.1,1.6-12.2,3.7-17.9c12-31.6,37.5-54.6,69.1-61.2c8.6,12.2,31.8,12.4,43.6,1.2
		c34.2,9.8,62.6,40,68.9,77.3l-8.6,0.6l0.4,10.4c2.9,0.6,6.1-1,9-0.8c4.5-0.4,9.4,2.6,13.3-1.2c3.9-9,11-18.8,22-18.8
		c2,0.4,3.9,1.8,4.9,3.5c0.6,2.2,1,4.5,0.2,6.7c2.4,0.2,4.9-0.2,7.5-0.4c2.4,0.2,5.1,0.8,6.7,3.3c2,2.6-0.4,5.1,0,7.5
		c2.4,1.2,4.9,2.4,6.3,4.7c0.6,2,0.6,4.1-0.6,5.7c-1.6,1.6-3.5,2.6-5.7,3.5c0.8,2.2,2.6,5.5,1.4,8c-3.3,6.9-10.6,7.7-17.5,7.7
		c-7.1-0.4-13.3-3.5-19.8-6.7c-10.2,7.7-22.6,13.2-35.9,16.1c-15.1,30.2-42.6,48.5-76,48.7c-31.4,1-64.6-21.8-77-51.2
		c-3.5-8.4-5.7-17.5-7.1-27.3c-2.7-0.2-5.3,0.2-7.7,0.2l4.3,18.8c-0.2-0.8,2.6-0.6,3.9,1.2c1.8,2.4,2,5.3,1.8,8
		c2,3.1,3.1,7.3,1.6,10.6l-1.8,3.3l11.2,50.6c0.2,2.6-0.8,5.3-3.1,7.1c-2.4,1.2-4.7,2-7.1,1c-3.7-1.8-4.7-5.7-5.7-9.4l-8.2-36.7
		c-4.3,0.4-8.8,0.2-11.8-1.6c-1.6-0.8-2.2,1.8-6.1,1.6c-9.8,0.4-20.8-4.9-26.3-13.7c-4.3-8-1.2-15.9-0.4-17.7
		c5.5-13.3,18.8-19.6,31.6-23.4l0.4-0.8l-10-43.6c-8-5.7-12.8-15.5-12.4-25.7l6.3-35.1L43.2,423.3z"/>
	<path class="st1" d="M40.3,423.7c3.7,8,3.3,17.3-1.6,24.5l2.6,12.6L55,518.3c-1.6,2.2-5.7,2.2-9,1.6l-13.7-63.4
		c-0.4-1.2-1.2-5.1-1.8-5.5c-5.9-4.3-9.4-9.4-11.6-20c0.2-1.4,0.2-3.7,0.4-5.1l4.3-27.5L40.3,423.7z"/>
	<path class="st1" d="M183.8,429c6.5,4.3,10.8,9,15.5,14.5c-29.4-6.1-68.1-11-109.3,1.4c4.5-6.5,11-13.2,18.5-16.7
		C134.7,422.5,160.4,423.1,183.8,429"/>
	<path class="st1" d="M209.5,462.8l1.6,1.2c2.6,4.7,3.5,9.6,3.9,14.1h9.8c4.3,28.9-7.3,58.5-29.6,76.8c-20.8,18.6-56.7,23-81.7,11.2
		c-30.8-14.5-50.3-44.2-49.3-79.5l0.8-8.6l9.6-0.8c0.6-4.1,1.6-8.8,4.7-13.2C124.5,454.1,168.5,453.6,209.5,462.8"/>
	<path class="st1" d="M38.7,501.5l2.4,11.2c-4.7,1-8.6,3.7-11.4,7.9c-3.3-1.2-7.7-2-10.8,0l0.2,1.8c4.5-1.2,8.4-0.4,12.2,1.6
		c1.4-2.9,2.9-5.1,5.5-6.9c2.4,5.3,8.6,6.9,13.7,6.5c3.3-0.2,5.9-1.4,8.4-2.9c2.4,2,0,6.1,2.9,7.9c1.4,2.6,0.8,5.3-0.2,7.9
		c-5.9,2.2,0.4,9-5.3,11.2c-5.7,3.1-12,3.1-17.7,1c-6.5,3.7-14.1,2-20.4-1c-5.9-3.5-11.6-8.6-11.8-16.3c0-0.4-1.2-6.9,5.1-14.5
		c6.7-8.6,15.7-13.5,26.3-15.9L38.7,501.5z"/>
	<path class="st4" d="M123.3,496.5c8.2,9.4,20,14.1,32,9.4c5.9-2.6,10.6-8,14.7-13l1.4,2c-2.9,4.1-6.7,7.9-9.6,10.8
		c-0.6,5.9-1.2,9-6.5,13c-5.1,3.3-11.6,4.5-17.5,0.6c-4.9-2.9-7.1-9.6-7.9-13c-3.1-2.2-5.3-3.7-8.6-8L123.3,496.5z"/>
	<path class="st1" d="M276,473.2c2.4,3.5-3.5,7.5,0,9.4c4.3-1.4,10.2-3.9,13.7,0c1.6,3.1-3.3,4.5-2.2,7.1c2.9,1.2,8.8,2.2,8.6,6.7
		c-1.4,2.9-4.5,3.3-7.5,3.7c-1.6,2.6,2.4,3.9,2.4,6.7c1,2.6-1.2,4.7-3.1,5.9c-10.8,5.5-21.8,0.2-31.4-5.7c-9.4,7.7-20,13.7-33,16.3
		c2.6-10,5.7-19.8,5.9-30.4c8.4-5.5,18.5,2.6,25.7-5.9c3.1-6.7,7.1-14.5,14.5-16.5C272.3,470.2,275.1,471,276,473.2"/>
	<path class="st1" d="M43,519.3c-0.6-0.4-3.3-2.6-3.3-3.3c0.4-0.2,1.4-0.8,2.4-0.6L43,519.3z"/>
	<path class="st1" d="M159,507.3c0,4.3-3.1,8.2-6.9,10c-4.9,2.6-10.2,1.6-14.1-1.4c-3.3-2.4-4.7-6.3-5.1-8.4
		C140.8,511.7,150.4,512.6,159,507.3"/>
	<path class="st1" d="M61.3,548c3.5,14.3,6.9,28.9,9.8,43.4c0,2-1.4,3.7-2.9,4.5c-2,0.4-4.1-0.4-5.3-2.2c-3.3-13.7-6.1-27.7-9-41.6
		C56.6,551.1,59.1,549.9,61.3,548"/>
	<path class="st4" d="M153.9,492l-2.6,0.4c0-2.2-2-6.1-6.1-5.9c-3.5,0.2-5.5,2.6-5.7,5.9H137c0.8-4.5,2.6-5.9,4.9-7.3
		C146.9,482.8,153.1,485.7,153.9,492"/>
	<path class="st6" d="M140.8,475c0-6.7-5.3-12.2-11.8-12.2c-6.5,0-11.8,5.5-11.8,12.2s5.3,12.2,11.8,12.2c2.9,0,5.5-1.2,7.5-2.7
		c0.2,0,0.2,0,0.4,0v-0.2C139.2,481.8,140.8,478.7,140.8,475 M129,483.2c-4.3,0-8-3.7-8-8.2c0-4.5,3.5-8.2,8-8.2c0.2,0,0.6,0,0.8,0
		c-0.8,0.8-1.6,1.6-2.2,2.6c-1.4,2.4-1.6,5.1-1,7.7c0.6,2.6,2.4,4.5,4.3,5.9C130.4,483,129.6,483.2,129,483.2z M135.1,480.3
		c-2.2-0.4-4.1-2-4.7-4.3c-0.4-1.6-0.2-3.1,0.6-4.5c0.8-1.4,2-2.2,3.1-2.7c1.8,1.6,2.9,3.7,2.9,6.3
		C137,476.9,136.3,478.9,135.1,480.3z"/>
	<path class="st6" d="M162,463.8c-6.5,0-11.8,5.5-11.8,12.2s5.3,12.2,11.8,12.2s11.8-5.5,11.8-12.2
		C173.8,469.1,168.5,463.8,162,463.8 M153.9,475.9c0-4.5,3.5-8.2,8-8.2h0.2c-0.6,0.4-1.2,1-1.8,1.8c-1.6,2.2-2.2,4.7-2,7.3
		c0.4,3.1,2.2,5.7,4.5,7.3c-0.4,0-0.8,0.2-1.2,0.2C157.5,484.2,153.9,480.4,153.9,475.9z M167.7,481.4c-2.7-0.2-5.1-2.4-5.5-5.3
		c-0.2-1.6,0.2-3.1,1.2-4.5c1-1.2,2.2-2,3.5-2.2c1.8,1.6,2.9,3.7,2.9,6.3C170,478.1,169,480.1,167.7,481.4z"/>
	<path class="st5" d="M146.3,348.3c0.8,2.6,1.6,7.5,1.2,9.6c5.7-4.1,9.4,0.2,12.6-2.7c-0.4,3.1-2.4,5.3-3.9,6.7
		c-1.6,1.6-5.1,3.3-8.4,0.8v7.3c2.9-4.9,10.6-2.9,15.5-3.7c-2.7,4.7-6.9,9-12.8,8.4c-0.8-0.4-2-0.8-3.1-1.4v6.5
		c5.5-5.1,12.4,1.2,18.1-1.6c-2.7,4.9-7.9,9.2-14.5,7.9c-1.4-1.2-2-1.2-3.3-2.4l0.2,10c3.3-6.9,11.8-4.9,17.7-5.9
		c-1.8,4.5-3.1,5.9-5.7,8.2c-3.3,2.4-9,3.9-12.2,0.4v6.9l-2.2,0.2v-5.9c-3.1,1.8-6.5,1-9.6-0.4c-2.7-2.4-5.9-4.9-6.3-9.2
		c4.9,2.4,11.6,0.4,15.9,4.3v-8.2c-2.4,2.4-6.7,1.6-9.6,1c-2.9-2.2-4.7-3.9-6.5-6.7c1.6,0.4,2.4,1,3.7,0.8c3.9-1,8.8-2,12,1v-6.7
		c0,1.2-6.7,3.9-10.4,0.4c-2-1.8-2.7-4.3-2.7-7.1c2.9,4.3,7.3-1.6,13.2,2.7v-7.9c0,2-3.7,3.9-7.3,2.6c-1.2,0-3.9-3.5-4.3-7.3
		c3.3,3.5,5.5-1,11.6,0.8C145.1,355.8,145.3,351.1,146.3,348.3"/>
	<path class="st1" d="M144.1,361.1c-1.4,2-3.9,2-5.9,1.2c-1-0.2-1.6-1.4-2.4-2.2C139,360.7,143.5,357.6,144.1,361.1"/>
	<path class="st1" d="M157.7,357.8c-0.8,2-3.7,4.3-5.5,4.1c-1.6,0.4-3.9-0.2-4.7-1.6C151.2,356.8,154.5,358,157.7,357.8"/>
	<path class="st1" d="M144.5,372.1c-3.9,3.3-8.6,0.8-10.4-2C137.4,370.1,142.7,368.2,144.5,372.1"/>
	<path class="st1" d="M160.2,368c-2.9,3.1-4.9,5.1-9,4.5l-2.7-0.6c0.2-1.4,2.2-2.4,3.3-3.1C154.7,368,158.1,368.2,160.2,368"/>
	<path class="st1" d="M143.7,381.9c-1.8,2-3.5,1.6-5.7,1.8c-0.8-0.2-2.6-0.8-4.1-2.7C136.7,380.5,141.6,379.2,143.7,381.9"/>
	<path class="st1" d="M161.2,380.5c-2.7,3.3-7.7,5.5-11.2,3.1l-2-1.4C152,377.6,157.3,381.7,161.2,380.5"/>
	<path class="st1" d="M145.5,395.3c-1.8,1.4-4.9,1.6-7.1,1c-2-1-4.9-3.3-6.1-5.1C136.3,391.7,142.3,391.7,145.5,395.3"/>
	<path class="st1" d="M162.4,390.5c-1.6,3.3-4.1,5.7-8.8,6.1c-1.4-0.2-3.7-0.2-4.3-1.6C151,391.3,158.2,389.6,162.4,390.5"/>
	<path class="st1" d="M250.1,575.3h0.4c21.6,5.9,53.6,21.8,74,64.6c4.9,10.8,7.3,21.4,9.4,33c-4.7,1.4,9.8,2,5.5,1.6
		c3.3-12.6,19-29.2,33.2-23.6c3.7,2.4,6.1,7.3,7.1,12c7.7-1.4,19,5.1,16.1,14.3c8,4.9,10,16.3,0.8,21.4
		c2.7,15.5-12.8,20.6-25.1,20.6c-7.5-0.8-14.7-3.5-21.6-6.9c-10,7.3-24.9,14.3-36.9,16.5c-14.1,25.7-35.5,45-64,52
		c-15.5,3.3-30,4.1-45.5,0.8c-12-2.9-22.6-7.9-33-14.5c-12.6-8.8-22-18.5-30.4-31.2l-0.2-0.2l-0.4,0.6l-1,2.2l12,55.2
		c0.6,9-5.7,16.3-15.1,15.9c-7.9-0.2-11.8-8.2-13.3-15.1l-8.4-36.9c-5.9-0.2-6.3-0.4-8.2-1.4c-7.1,2.2-16.9,1.6-19.2,0
		c-7.9-2.4-16.7-8.8-21.6-16.1c-8.4-14.5-1.2-30,10.6-41c6.9-5.9,14.1-9.2,22.6-12.4l-9.4-43c-8.2-5.9-14.5-19.2-14.5-30
		c1-16.3,7.3-39.8,10.2-55.2l31,45.9c4.1,11.4,4.3,20-0.6,30.8c1,5.3,2.4,11.2,3.5,16.3c7.5-25.7,27.5-51.2,50.3-65
		c9.6-5.3,23.4-10.8,34.4-11.8c-7.3-44.4,11.4-59.5,26.3-57.3C242.3,519.1,255.8,542.7,250.1,575.3"/>
	<path class="st4" d="M109.8,607.1c3.7,9,3.7,19.2-1.4,27.1c3.1,17.7,8,34.9,12.2,52.6c2.7,0.8,6.1,0.2,9-0.4
		c0.6-5.9,0.2-12.8,1-18.5l-10,0.4c0-6.7,1.8-13.5,4.1-19.8c13.3-35.5,42-61.1,77.3-68.5c16.1,14.3,35.9,11,47.1,0.2
		c38.3,11,71.7,45.9,78.5,87.7l-9.6,0.6l0.4,11.8c1.2-0.6,6.9-1.2,10.2-1c4.9-0.6,10.4,2.7,14.9-1.4c4.5-10,10.8-21.8,23-21.8
		c2.2,0.4,5.9,2.6,6.9,4.7c0.6,2.6,1.2,5.1,0.4,7.5c3.7-2,12.2-2.4,15.7,3.3c2.2,2.9-0.2,6.3-1.4,8.2c2.4,0,6.9,2.7,8.2,5.3
		c0.6,2.4,0.6,4.7-0.6,6.5c-1.8,1.8-4.1,2.9-6.5,3.9c1,2.4,2.9,6.1,1.6,9c-3.7,7.7-11.8,8.4-19.6,8.6c-7.9-0.6-14.9-3.9-22-7.5
		c-11.6,8.4-25.1,14.5-40.2,18.1c-16.9,33.8-47.7,54.2-85,54.4c-34.9,1.2-72.2-24.3-86-57.3c-3.9-9.4-6.5-19.4-7.9-30.4
		c-2.6-0.8-5.3-0.4-8,0.2l-0.8,0.4l5.1,21c3.7-1.2,6.5,7.1,6.3,10c2.2,3.3,3.5,8,1.8,12l-2,3.7l12.4,56.5c0.2,2.9-0.8,6.1-3.3,8
		c-2.6,1.4-5.3,2.2-8,1.2c-4.1-1.8-5.1-6.3-6.3-10.4l-9.2-41c-4.7,0.4-9.8,0.4-13.3-1.8c-1,0.4-1.8,1.6-6.9,1.8
		c-11,0.4-23.4-5.5-29.4-15.3c-4.9-8.8-0.8-19.4-0.6-19.8c6.1-14.9,21.2-22,35.7-26.3l0.8-0.2l-11.2-50.1
		c-9-6.3-14.3-17.5-13.9-28.9l7.1-39.3L109.8,607.1z"/>
	<path class="st1" d="M106.4,607.7c4.1,9,3.5,19.2-1.8,27.5l2.9,14.1l15.3,64.4c-2,2.7-8,2.6-10.2,1l-15.1-70.3
		c-0.4-1.4-1.2-5.7-2-6.1c-6.7-4.9-10.6-10.6-13-22.4c0.2-1.6,0.2-4.1,0.4-5.7l4.7-30.8L106.4,607.7z"/>
	<path class="st1" d="M267,613.3c7.3,4.7,13.5,11,17.3,16.1c-33-6.9-76.4-12.4-122.3,1.4c5.1-7.3,12.4-14.7,20.8-18.6
		C212,606.1,240.9,606.9,267,613.3"/>
	<path class="st1" d="M297.6,652.4c2.7,5.3,3.7,10.6,4.5,15.9h11c4.9,32.4-8,65.6-33,86c-23.4,21-63.4,25.7-91.3,12.6
		c-34.5-16.1-56.1-49.5-55-88.9l1-9.6l10.8-1c0.4-4.5,1.8-11,5.3-14.7C202.8,641,246,642.8,297.6,652.4"/>
	<path class="st1" d="M104.9,693.2l2.4,13.5c-5.3,1.2-9.6,4.1-12.8,8.8c-3.7-1.4-8.8-2.2-12.4-0.6l0.6,2.6c4.9-1.4,9.4-0.4,13.5,1.8
		c1.4-3.3,3.1-5.7,6.3-7.7c2.7,5.9,9.6,7.7,15.5,7.3c3.7-0.2,6.5-1.8,9.4-3.3c2.7,2.2,0,6.7,3.3,8.8c1.6,2.9,1,8.8-2.2,11.6
		c-0.2,1.8,2.4,7.1-3.9,9.6c-6.3,3.5-13.5,3.5-19.8,1.2c-7.3,4.3-15.9,2.2-23-1.2c-6.7-3.9-13-9.6-13.2-18.3c0-0.6-1.2-7.7,5.7-16.3
		c7.5-9.8,17.5-15.3,29.2-17.9H104.9z"/>
	<path class="st4" d="M198.9,688.5c9.2,10.6,22,16.1,35.3,11c6.5-2.9,12.8-8.8,17.3-14.3l1.8,1.6c-2.2,4.1-8.2,8.6-10.8,11.8
		c0,4.9-1.6,10.8-7.3,15.3c-6.1,4.5-13.3,4.7-20.4,0.4c-7.3-4.9-8.2-13.7-8.8-15.1c-3.3-2.9-5.7-4.9-9.2-9.4L198.9,688.5z"/>
	<path class="st1" d="M370.3,662.8c2.6,3.9-3.9,8.2,0,10.4c4.7-1.4,11.4-4.5,15.3-0.2c1.8,3.5-3.7,4.9-2.6,7.9
		c3.1,1.4,9.8,2.6,9.8,7.7c-1.6,3.3-4.9,3.9-8.4,4.3c-1.8,2.9,2.6,4.5,2.6,7.5c1,2.7-1.4,5.3-3.3,6.7c-12,6.1-24.3,0.2-34.9-6.3
		c-11.8,9.4-20.8,12.8-36.7,18.1c2.9-11,6.5-22.2,6.7-34c9.4-6.1,20.8,2.7,28.7-6.5c3.5-7.3,8-16.3,16.3-18.3
		C366.1,659.5,369.1,660.5,370.3,662.8"/>
	<path class="st1" d="M109,713.5c-0.8-0.4-2.7-2.2-3.1-3.3c0.4-0.2,1-0.4,2.2-0.8L109,713.5z"/>
	<path class="st1" d="M239.3,699.9c0,4.9-3.5,10.2-7.7,12.2c-5.5,2.7-11.8,2-16.3-1.6c-2.7-2.4-4.9-5.7-5.3-9.6
		C218.9,705.8,229.7,706,239.3,699.9"/>
	<path class="st1" d="M130.2,746.4c3.9,16.1,7.9,32.2,11,48.5c0,2.2-1.4,4.3-3.3,5.1c-2.4,0.6-4.7-0.4-5.9-2.4
		c-3.9-15.3-6.9-31-10-46.5C124.7,750,127.6,748.6,130.2,746.4"/>
	<path class="st7" d="M204.4,666.5c4.1,2.7,9.6,2,13-1.8l-2.7-2.7c-2,2.4-5.5,2.7-8,1.2c-2.7-1.8-3.7-5.5-2.4-8.4l-3.3-1.8
		C198.3,657.9,200.1,663.8,204.4,666.5"/>
	<path class="st6" d="M192.6,664.4c0,7.1,5.7,13,12.6,13s12.6-5.7,12.6-13c0-7.1-5.7-13-12.6-13
		C198.3,651.6,192.6,657.3,192.6,664.4 M196.5,664.4c0-4.9,3.9-9,8.6-9s8.6,3.9,8.6,9c0,4.9-3.9,9-8.6,9
		C200.5,673.4,196.5,669.3,196.5,664.4z"/>
	<path class="st7" d="M240.3,666.7c4.1,2.7,9.6,2,13-1.8l-2.7-2.7c-2.2,2.4-5.5,2.7-8,1.2c-2.9-2-3.9-6.1-2.2-9l-3.1-2.2
		C234,657.1,235.6,663.8,240.3,666.7"/>
	<path class="st6" d="M228.1,664.4c0,7.1,5.7,13,12.6,13c6.9,0,12.6-5.7,12.6-13c0-7.1-5.7-13-12.6-13
		C233.6,651.6,228.1,657.3,228.1,664.4 M231.9,664.4c0-4.9,3.9-9,8.6-9s8.6,3.9,8.6,9c0,4.9-3.9,9-8.6,9
		C235.8,673.4,231.9,669.3,231.9,664.4z"/>
	<path class="st6" d="M220.7,674c-4.5,0.6-8.2,4.3-8.6,9l5.1,0.4c0.2-2.4,2-4.1,4.1-4.3c1.2-0.2,2.4,0.2,3.3,1c1,0.8,1.6,2,1.8,3.1
		l5.1-0.6c-0.2-2.6-1.6-5.1-3.5-6.7C225.8,674.6,223.2,673.8,220.7,674"/>
	<path class="st5" d="M225.4,525.2c1,2.7,1.8,8.2,1.4,10.6c6.3-4.5,10.4,0.2,13.7-2.9c-0.6,3.5-2.6,5.9-4.3,7.5
		c-1.8,1.8-5.7,3.7-9.2,0.8v8c3.3-5.3,11.6-3.3,16.9-3.9c-2.9,5.1-7.5,10-13.9,9.4c-1-0.4-2.2-0.8-3.3-1.4v7.3
		c5.9-5.5,13.5,1.4,19.6-1.8c-2.9,5.3-8.6,10-15.9,8.6c-1.4-1.2-2.2-1.2-3.5-2.7v11.2c3.5-7.5,13-5.3,19.4-6.5c-2,4.9-3.3,6.5-6.3,9
		c-3.5,2.6-9.8,4.1-13.2,0.4l-0.2,7.5l-2.4,0.2V580c-3.5,2-7.3,1.2-10.4-0.6c-2.9-2.6-6.5-5.5-6.9-10.2c5.5,2.6,12.6,0.4,17.3,4.7
		v-9c-2.6,2.6-7.3,1.8-10.4,1c-3.1-2.4-5.1-4.3-7.1-7.3c1.8,0.4,2.6,1,4.1,1c4.3-1,9.6-2,13.2,1.2v-7.3c0,1.4-7.3,4.3-11.4,0.4
		c-2.2-1.8-2.9-4.7-2.9-7.9c3.1,4.7,7.9-1.8,14.3,2.9l0.2-8.4c-0.2,2.2-4.1,4.3-8,2.7c-1.4,0-4.3-3.7-4.7-8c3.7,3.9,6.1-1,12.6,1
		C224,533.3,224.2,528.3,225.4,525.2"/>
	<path class="st1" d="M223,539.1c-1.4,2.2-4.3,2-6.5,1.4c-1-0.2-1.8-1.6-2.6-2.4C217.5,538.6,222.4,535.4,223,539.1"/>
	<path class="st1" d="M237.8,535.4c-0.8,2.2-4.1,4.7-6.1,4.5c-1.8,0.4-4.1-0.4-5.1-1.6C230.7,534.4,234.4,535.8,237.8,535.4"/>
	<path class="st1" d="M223.4,551.3c-4.3,3.7-9.4,0.8-11.4-2C215.6,549.2,221.5,547,223.4,551.3"/>
	<path class="st1" d="M240.7,546.8c-3.3,3.3-5.3,5.7-9.8,5.1l-2.9-0.6c0.2-1.6,2.4-2.6,3.7-3.3C234.6,546.8,238.1,546.8,240.7,546.8
		"/>
	<path class="st1" d="M222.4,562.1c-2,2.2-3.9,1.8-6.3,1.8c-1-0.2-2.7-1-4.5-2.9C214.8,560.3,220.3,559,222.4,562.1"/>
	<path class="st1" d="M241.9,560.5c-3.1,3.7-8.4,6.1-12.4,3.3l-2.2-1.6C231.5,557.2,237.4,561.7,241.9,560.5"/>
	<path class="st1" d="M224.6,576.6c-2,1.4-5.5,1.8-7.7,1c-2.2-1-5.5-3.5-6.7-5.5C214.4,572.7,221.1,572.7,224.6,576.6"/>
	<path class="st1" d="M242.9,571.5c-1.8,3.5-4.5,6.3-9.6,6.7c-1.4-0.2-4.1-0.2-4.7-1.6C230.5,572.1,238.3,570.4,242.9,571.5"/>
	<path class="st5" d="M142.9,315.7L142.9,315.7c0,0-17.5,8.6-19,9.4c0.2,0.4,0.4,1,0.4,1s2.2,7.3,2.9,10.4c0.6-0.4,1.4-0.8,1.4-0.8
		c6.3-4.1,11.8-6.5,17.5-9c0,0,0.6-0.2,1.2-0.6c-0.2-0.6-0.2-1.4-0.2-1.4s-2-6.7-2.9-9.6C143.5,315.4,142.9,315.7,142.9,315.7
		 M126.8,326.3l15.7-7.9l0.6,2l1.2,3.9l-1,0.4c-5.3,2.4-9.4,4.5-13.5,6.9l-1.2,0.8L126.8,326.3z"/>
	<path class="st5" d="M224.2,316.3c0,0-2.2,8-2.7,9.6c0.8,0.4,2,0.8,2,0.8c7.5,2.9,9.2,3.7,16.7,7.7c0,0,0.6,0.4,1.4,0.8
		c0.6-2,2.9-10.4,3.3-12c-1.6-0.6-18.3-7.5-20.2-8.2C224.4,315.7,224.2,316.3,224.2,316.3 M224.6,324.6l0.2-1l1.4-5.1l15.7,6.3
		l-2,6.7L224.6,324.6z"/>
	<path class="st2" d="M146.7,326.3c-7.9,2.7-13.7,6.3-18.8,9.6c0,0-0.4,0.2-0.8,0.6c0.4,1.2,2.4,9.2,2.9,11.6c0.8-0.6,1.4-1,1.4-1
		c5.3-3.9,10-6.1,14.9-8.2c0,0,2.9-1.4,4.5-2c-0.2-0.6-2.2-8-2.9-10.8C147.5,326.2,146.7,326.3,146.7,326.3 M130,337.7l0.6-0.4
		c4.9-2.9,9.6-5.5,14.5-7.5l1.2-0.4l1.6,5.9l-2.6,1.2c-5.1,2.4-8.8,4.3-12.8,6.9l-1.4,0.8L130,337.7z"/>
	<path class="st2" d="M218.3,336.9c0.8,0.2,1.6,0.6,1.6,0.6c6.5,2.4,9.4,3.3,17.1,7.5c0,0,0.8,0.4,1.4,0.8c0.4-2.2,2.4-10,2.6-11.2
		c-1-0.4-2.6-1.2-2.6-1.2c-5.1-2.6-10-4.9-15.7-6.7c0,0-0.6-0.2-1.2-0.4C221.5,326.9,218.9,335.4,218.3,336.9 M235.4,341.3
		c-5.1-2.7-8.4-3.9-13-5.7l-1-0.4l1.8-5.9l14.9,6.5l-0.2,0.8l-1.2,5.3L235.4,341.3z"/>
	<path class="st5" d="M98.6,487.9c-6.9,3.1-12.8,6.1-19.6,10.2c0,0-0.4,0.2-0.8,0.6c0.4,1.4,2.9,10.4,3.5,12.6
		c0.6-0.4,1.4-0.8,1.4-0.8c5.7-3.7,10.8-6.3,16.7-9c0,0,2.9-1.4,4.5-2.2c-0.6-1.6-3.7-10-4.5-11.8C99.2,487.7,98.6,487.9,98.6,487.9
		 M80.9,499.9l0.8-0.4c4.7-2.9,9.6-5.5,15.7-8.2l1.2-0.4l2.6,7.1l-2.4,1.2c-4.5,2.2-9.2,4.5-14.3,7.7l-1.2,0.8L80.9,499.9z"/>
	<path class="st5" d="M191.6,487.3c0,0-2.9,9-3.5,10.8c0.6,0.2,1.2,0.4,1.2,0.4c7.5,2.4,14.1,5.5,19.8,8c0,0,0.6,0.4,1.2,0.6
		c0.6-2,3.3-10.8,3.7-12.2c-1.6-0.8-14.5-6.1-14.5-6.1s-5.3-2-7.7-2.9C191.8,486.7,191.6,487.3,191.6,487.3 M207.7,503.2
		c-5.5-2.6-10.4-4.7-15.5-6.3l-1-0.4l2.4-7.1l5.3,2l12.2,5.1l-2.2,7.3L207.7,503.2z"/>
	<path class="st2" d="M102.9,499.3c-8.8,4.1-14.9,7.5-20.8,11.4c0,0-0.4,0.2-0.8,0.6c0.4,1.4,3.1,10,3.7,12.2c1.6-1,4.3-2.7,4.3-2.7
		c6.9-4.3,10.6-6.7,17.5-9.6c0,0,0.6-0.2,1.2-0.4c-0.6-1.6-3.3-10-3.9-12C103.5,499.1,102.9,499.3,102.9,499.3 M86,518.3l-1.8-5.9
		l0.8-0.4c4.5-2.9,9.8-5.9,16.5-9l1.2-0.6l2.4,7.1l-1,0.4c-5.9,2.6-9.6,4.9-15.9,8.8l-1.8,1L86,518.3z"/>
	<path class="st2" d="M188.1,499.1L188.1,499.1c0,0-2.7,9-3.3,10.6c1.8,0.6,20.6,8.2,22.6,9c0.2-0.8,0.4-1.4,0.4-1.4s2-7.7,2.6-10.2
		c-0.8-0.4-2-1-2-1c-6.3-2.9-12.2-5.7-18.6-8c0,0-0.6-0.2-1.2-0.4C188.3,498.3,188.1,499.1,188.1,499.1 M187.7,508.1l2.2-6.9
		l1.2,0.2l16.3,7.1l-0.2,1l-1.4,5.9L187.7,508.1z"/>
	<path class="st5" d="M172.8,680.1l-0.8,0.4c-9.6,4.1-14.5,6.1-22.6,11c0,0-0.4,0.2-1,0.6c0.4,1.4,3.7,11.2,4.5,13.3
		c0.6-0.4,1.4-1,1.4-1c6.9-4.9,13.5-7.9,22.8-11.2c0,0,0.6-0.2,1.2-0.4c-0.6-1.6-3.7-11.2-4.3-13
		C173.4,679.9,172.8,680.1,172.8,680.1 M151.6,693l0.8-0.4c6.7-3.9,11.8-6.1,19-9.2l1.2-0.4l2.7,8.2l-1,0.4
		c-7.9,2.9-13.3,5.7-18.6,9l-1.2,0.8L151.6,693z"/>
	<path class="st5" d="M273.5,680.1c0,0-2.9,9.8-3.5,11.6c0.6,0.2,1.2,0.4,1.2,0.4c8.2,2.7,13,5.3,20.2,9c0,0,2,1,3.1,1.6
		c0.6-2,3.7-12,4.1-13.3c-0.4-0.2-1-0.6-1-0.6c-5.5-2.9-11.2-5.1-16.7-7.3c0,0-5.1-2-7.3-2.7C273.7,679.5,273.5,680.1,273.5,680.1
		 M291.9,698.5c-6.1-3.3-10.8-5.7-17.9-8l-1-0.4l2.4-8l4.9,1.8c5.5,2.2,10,3.9,14.5,6.3l0.8,0.4l-2.7,8.4L291.9,698.5z"/>
	<path class="st2" d="M177.5,692.8c-8.8,3.1-15.7,6.7-23.6,11.8c0,0-0.4,0.2-0.6,0.4c0.4,1.4,3.5,11.2,4.3,13.5c0.6-0.4,1-0.8,1-0.8
		c7.3-5.5,13-8,19.6-11.2c0,0,2.6-1.2,3.7-1.8c-0.4-1.6-3.1-10.4-3.7-12.2C177.9,692.7,177.5,692.8,177.5,692.8 M155.5,705.8
		l0.8-0.4c6.5-4.1,12.6-7.1,19.8-9.8l1.2-0.4l2.6,8.6l-2.4,1c-6.3,2.9-11.6,5.5-17.9,9.8l-1.2,1L155.5,705.8z"/>
	<path class="st2" d="M266,703.4c0.4,0.2,0.8,0.4,0.8,0.4c6.5,2.4,14.5,5.5,23.2,10.4c0,0,0.6,0.4,1,0.6c0.6-2.2,2.9-11.4,3.3-12.8
		c-1-0.6-3.3-1.6-3.3-1.6c-6.1-2.9-12.4-5.9-20-8.6c0,0-0.4-0.2-1-0.2C269.4,693,266.6,701.7,266,703.4 M288.6,711.3
		c-6.1-3.3-12.4-6.1-19.2-8.6l-1-0.4l2.7-8.4l1.2,0.4c6.9,2.6,12.6,5.1,18.1,7.7l2,1l-2.4,9L288.6,711.3z"/>
	<path class="st8" d="M976.4,524.6h2.9c1.8,0,2.9,0,3.5-0.2c0.4-0.2,0.8-0.4,1-0.8c0.2-0.4,0.4-0.8,0.4-1.4c0-0.6-0.2-1.2-0.6-1.6
		c-0.4-0.4-0.8-0.6-1.4-0.8c-0.4,0-1.2,0-2.7,0h-2.9v4.7H976.4z M972.7,535.6v-18.8h8c2,0,3.5,0.2,4.3,0.6c1,0.4,1.6,1,2.2,1.8
		s0.8,1.8,0.8,2.9c0,1.4-0.4,2.6-1.2,3.5c-0.8,1-2.2,1.6-3.7,1.8c0.8,0.6,1.6,1,2,1.6c0.6,0.6,1.2,1.6,2.2,3.1l2.4,3.7h-4.5
		l-2.7-4.1c-1-1.4-1.6-2.4-2-2.7c-0.4-0.4-0.8-0.6-1.2-0.8c-0.4-0.2-1-0.2-2-0.2h-0.8v7.9h-3.7V535.6z M980.2,510.9
		c8.4,0,15.3,6.9,15.3,15.3s-6.9,15.3-15.3,15.3c-8.4,0-15.3-6.9-15.3-15.3C965.1,517.7,971.9,510.9,980.2,510.9z M980.2,506.9
		c10.6,0,19.2,8.6,19.2,19.2s-8.6,19.2-19.2,19.2c-10.6,0-19.2-8.6-19.2-19.2C961.1,515.6,969.8,506.9,980.2,506.9z"/>
	<path class="st8" d="M879.1,582.3c2.9-3.9,6.3-5.9,10-5.9c1.8,0,3.3,0.6,4.5,1.8c1.4,1.4,1.8,2.7,1.4,4.5l-0.2,1.6l-2.6,8.6
		c-0.2,0.4-0.2,0.8-0.2,1c0,0.8,0.4,1.4,1.8,1.8c0.6,0.2,1,0.6,1,1c-0.2,1.2-2.4,2.4-6.5,3.5c-1.8,0.4-3.1,0.8-3.9,0.8
		c-1,0-1.6-0.8-1.6-2.6l0.8-3.9l3.1-10.4c0-0.2,0-0.4,0.2-0.6c0-0.6,0-1-0.4-1.6c-0.4-0.6-1-1-1.8-1c-2.4,0-4.5,2.6-6.9,7.7
		c-1.4,2.9-2.6,6.3-3.5,10.2c-0.2,0.8-0.6,1.2-1,1.4c-0.4,0.2-1.4,0.2-2.7,0.2h-3.1c-1.2,0-1.6-0.4-1.6-1l0.4-1l8.2-27.5
		c0-0.4,0.2-0.6,0.2-1s-0.2-0.8-0.6-1c-0.2-0.2-0.4-0.4-0.6-0.6c-0.4-0.4-0.8-0.8-0.6-1.2c0-1,2.2-2,5.9-2.9
		c1.6-0.4,2.7-0.6,3.7-0.6c0.6,0,1,0,1.4,0.2c0.2,0.2,0.2,0.6,0.2,1.2v0.6c0,0.2,0,0.4-0.2,0.8L879.1,582.3z M926,575.7
		c-1.4,0-2.6-0.4-3.3,1c0,0.2-0.2,0.4-0.4,0.4c-0.2,0-0.4,0-0.6-0.2c-1-0.6-2.2-0.8-3.3-0.8c-4.5,0-9.4,2.9-12.6,5.9
		c-3.3,3.3-6.1,7.7-6.1,12.6c0,3.1,1.2,6.5,4.7,6.5c5.9,0,11-6.9,14.1-11.4c-0.4,2.7-1.8,6.3-1.8,8.8c0,1.8,1,2.6,2.6,2.6
		c3.1,0,6.3-2.4,8.4-4.5c0.8-0.8,2.7-2.9,2.7-4.1c0-0.4-0.2-0.8-0.6-0.8c-0.8,0-2.9,4.3-4.5,4.3c-0.6,0-0.8-0.6-0.8-1
		c0-1,0.6-2.9,0.8-3.9l1.2-4.3c0.6-1.8,3.1-9.6,3.1-10.6c0-0.8-1.6-0.6-2-0.6H926V575.7z M909.7,596.3c-1.2,0-1.6-1.2-1.6-2.2
		c0-2.9,1.6-6.3,2.9-8.8c1.6-2.7,4.5-7.3,8-7.3c1.2,0,2.2,1,2.2,2.2C921.5,583.9,913.6,596.3,909.7,596.3z M854.5,577.6
		c-2,0-4.5,3.3-5.5,4.9c-1.6,2.7-2.4,5.9-2.4,9s1.4,6.1,4.9,6.1c2.6,0,5.7-1.4,7.5-3.3c0.4-0.4,1.4-1.6,2-1.6c0.4,0,0.6,0.2,0.6,0.6
		c0,1.4-3.3,4.1-4.5,4.9c-2.9,2-6.5,3.1-10,3.1c-5.5,0-9-3.5-9-9c0-9.8,10.2-16.5,19.2-16.5c2.4,0,6.7,1,6.7,4.1
		c0,2-1.8,2.9-3.5,2.9c-2.2,0-3.3-1-4.1-2.9C856.1,579,855.7,577.6,854.5,577.6z M818.8,590.6c5.7-0.8,17.7-1.2,17.7-9
		c0-4.1-3.9-5.7-7.5-5.7c-8.8,0-18.6,7.3-18.6,16.7c0,5.9,4.7,8.8,10,8.8c2.9,0,6.1-1.2,8.6-2.9c0.8-0.6,4.1-3.5,4.1-4.7
		c0-0.4-0.4-0.6-0.6-0.6c-1,0-3.9,4.7-8.8,4.7c-3.1,0-4.9-2.4-4.9-5.5L818.8,590.6z M819,588.6c0.6-3.3,3.9-11.4,8.2-11.4
		c1.2,0,1.8,1.2,1.8,2.4c0,2.2-1.4,5.1-3.1,6.5C824.3,587.6,821.6,588.6,819,588.6z M787.4,582.5c0-2.4,1.6-4.1,3.5-5.1
		c2.4-1.4,4.9-1.8,7.5-1.8c1.8,0,8.8,0.4,8.8,3.3c0,0.6-0.2,1.6-0.4,2c-0.2,1-0.4,2.4-1.8,2.4c-2.4,0-4.9-5.9-8.2-5.9
		c-1.2,0-2,1.2-2,2.4c0,4.7,9.6,7.3,9.6,13.2c0,5.5-6.5,8.2-11.2,8.2c-2.4,0-5.5-0.4-7.7-1.4s-2.6-2-2.6-4.1c0-1.2,0.2-3.5,1.8-3.5
		c2.7,0,6.1,7.5,9.4,7.5c1.6,0,2.7-1.6,2.7-3.1c0-2.4-2.4-4.3-4.1-5.7C790.7,588.8,787.4,585.9,787.4,582.5z M763.1,601.2
		c8.2,0,17.9-5.5,17.9-14.5c0-7.1-6.1-11-12.6-11c-8.4,0-17.3,6.3-17.3,15.1c0,3.1,1.4,5.9,4.1,7.9
		C757.4,600.6,760.1,601.2,763.1,601.2z M762.9,599.6c-2.9,0-3.5-3.1-3.5-5.3c0-3.3,1-6.9,2.4-9.8c1.4-2.9,3.9-7.1,7.5-7.1
		c2.9,0,3.5,2.4,3.5,4.9C772.7,587,769,599.6,762.9,599.6z M739.1,570c-2.7,0-6.1,4.5-7.3,6.5c-2,3.7-3.1,7.9-3.1,12
		c0,4.1,1.8,8,6.5,8c3.1,0,7.7-2,9.6-4.3c0.6-0.6,1.8-2.2,2.6-2.2c0.4,0,0.8,0.4,0.8,0.8c0,2-4.5,5.5-5.9,6.5
		c-3.7,2.6-8.4,4.1-13.2,4.1c-7.1,0-12.2-4.7-12.2-12c0-13,13.5-21.8,25.5-21.8c3.1,0,8.6,1.4,8.6,5.3c0,2.6-2.4,3.9-4.5,3.9
		c-2.9,0-4.3-1.2-5.5-3.9C741.1,571.9,740.5,570,739.1,570z M694.9,575.7c-1.4,0-2.6-0.4-3.3,1c-0.2,0.2-0.2,0.4-0.4,0.4
		c-0.2,0-0.4,0-0.4-0.2c-1-0.6-2.2-0.8-3.3-0.8c-4.5,0-9.4,2.9-12.6,5.9c-3.5,3.3-6.1,7.7-6.1,12.6c0,3.1,1.2,6.5,4.9,6.5
		c5.9,0,11-6.9,14.1-11.4c-0.4,2.7-1.8,6.3-1.8,8.8c0,1.8,1,2.6,2.6,2.6c3.1,0,6.3-2.4,8.4-4.5c0.8-0.8,2.7-2.9,2.7-4.1
		c0-0.4-0.2-0.8-0.6-0.8c-0.8,0-2.9,4.3-4.5,4.3c-0.6,0-0.8-0.6-0.8-1c0-1,0.6-2.9,0.8-3.9l1.2-4.3c0.6-1.8,3.1-9.6,3.1-10.6
		c0-0.8-1.6-0.6-2.2-0.6h-2V575.7z M678.7,596.3c-1.2,0-1.6-1.2-1.6-2.2c0-2.9,1.6-6.3,2.9-8.8c1.6-2.7,4.5-7.3,8-7.3
		c1.2,0,2.2,1,2.2,2.2C690.4,583.9,682.6,596.3,678.7,596.3z M662.2,592.3c-0.4,1-1,2.9-1,3.9c0,0.4,0.2,0.8,0.6,0.8
		c1.2,0,3.1-2.6,3.9-3.5c0.2-0.4,0.8-1.4,1.4-1.4c0.4,0,0.6,0.2,0.6,0.6c0,1.2-2.2,3.5-2.9,4.5c-2,1.8-4.7,3.7-7.5,3.7
		c-2.4,0-3.5-2-3.5-4.1c0-2,0.8-4.1,1.4-6.1l5.1-17.3c0.2-1,1-3.3,1-4.1c0-1-0.6-1.4-1.6-1.4c-0.6,0-2,0-2-0.8
		c0-1.4,2.6-1.2,3.3-1.2c2.7,0,5.7-0.4,8-2c0.2-0.2,0.8-0.4,1-0.4c0.4,0,0.6,0.2,0.6,0.4c0,0.4-0.2,0.6-0.2,0.8l-0.4,1L662.2,592.3z
		 M619,590.6c5.7-0.8,17.7-1.2,17.7-9c0-4.1-3.9-5.7-7.5-5.7c-8.8,0-18.6,7.3-18.6,16.7c0,5.9,4.7,8.8,10,8.8c2.9,0,6.1-1.2,8.6-2.9
		c0.8-0.6,4.1-3.5,4.1-4.7c0-0.4-0.4-0.6-0.6-0.6c-1,0-3.9,4.7-8.8,4.7c-3.1,0-4.9-2.4-4.9-5.5L619,590.6z M619.4,588.6
		c0.6-3.3,3.9-11.4,8.2-11.4c1.2,0,1.8,1.2,1.8,2.4c0,2.2-1.4,5.1-2.9,6.5C624.5,587.6,621.7,588.6,619.4,588.6z M600.1,576.6
		c-1-0.6-2.2-1-3.5-1c-4.9,0-9.6,2.4-13.2,5.9c-3.3,3.1-6.5,7.9-6.5,12.6c0,3.3,1.4,7.1,5.1,7.1c5.5,0,11-7.5,13.9-11.6l-1,4.7
		c-0.2,1.4-0.6,2.7-0.6,4.1c0,2,1.2,2.7,2.9,2.7c3.3,0,5.9-2,8-4.3c0.6-0.8,2.9-3.3,2.9-4.5c0-0.4-0.2-0.6-0.6-0.6
		c-1.2,0-3.1,4.7-4.7,4.7c-0.4,0-0.8-0.4-0.8-0.8c0-1,0.8-3.3,1-4.3l0.4-2l6.5-22c0.2-0.6,0.8-2.2,0.8-2.7c0-0.4-0.2-0.6-0.6-0.6
		c-0.2,0-0.6,0-0.6,0.2c-2.4,1.2-5.5,1.8-8,1.8h-1.6c-0.6,0-1.8,0.2-1.8,1.2s1,0.8,1.6,1c1,0,1.6,0.2,1.6,1.2c0,0.6-0.2,1.6-0.4,2.2
		L600.1,576.6z M587.6,595.5c-1.2,0-1.6-1.6-1.6-2.6c0-3.1,1.8-7.1,3.5-9.6c1.6-2.2,4.7-5.9,7.7-5.9c1.2,0,2,0.8,2,2
		c0,2.7-2.7,7.1-4.3,9.2C593.5,590.6,589.9,595.5,587.6,595.5z M544,598.4c-0.2,0.4-0.6,1.4-1,1.8c-0.8,0.6-2.9,0.4-3.7,0.4h-1.4
		c-0.4,0-1.8,0.2-1.8-0.6c0-0.2,0.2-1,0.2-1.2l3.7-12.8c0.4-1,1.2-3.7,1.2-4.7c0-0.4-0.2-0.8-0.6-0.8c-2,0-3.7,4.1-4.9,4.1
		c-0.4,0-0.6-0.2-0.6-0.6c0-1,2-2.9,2.7-3.7c2-2.2,4.9-4.3,7.9-4.3c1.8,0,2.9,1,2.9,2.9c0,2-0.6,4.3-1,6.3l-0.6,2.4
		c2.6-4.3,5.9-11.6,11.8-11.6c2.2,0,3.7,1.8,3.7,3.7c0,2.4-1.6,4.9-4.3,4.9c-2,0-2.6-1-2.7-2.9c0-0.4-0.2-1-0.8-1
		c-1.8,0-4.7,5.1-5.5,6.5L544,598.4z M514.7,601.2c8.2,0,17.9-5.5,17.9-14.5c0-7.1-6.3-11-12.6-11c-8.4,0-17.3,6.3-17.3,15.1
		c0,3.1,1.4,5.9,3.9,7.9C509,600.6,511.8,601.2,514.7,601.2z M514.5,599.6c-2.9,0-3.5-3.1-3.5-5.3c0-3.3,1-6.9,2.4-9.8
		c1.4-2.9,3.9-7.1,7.5-7.1c2.9,0,3.5,2.4,3.5,4.9C524.4,587,520.6,599.6,514.5,599.6z M494.5,570.4c0-2.4,2-4.5,4.3-4.5
		c2,0,3.7,1.6,3.7,3.5c0,2.4-2,4.5-4.5,4.5C496.3,573.9,494.5,572.3,494.5,570.4z M494.3,599c-1,3.1-2,7.1-4.3,9.4
		c-2.4,2.4-5.9,3.9-9.2,3.9c-2.6,0-6.9-1.4-6.9-4.5c0-1.6,1.6-2.7,2.9-2.7c2.4,0,3.3,2.2,3.9,4.1c0.2,0.6,0.6,1.4,1.2,1.4
		c1.6,0,2-3.1,2.4-4.1l1.8-6.7l4.9-16.9c0.2-0.6,0.8-2.4,0.8-2.9c0-0.4-0.2-0.8-0.6-0.8c-2,0-4.3,4.1-5.3,4.1
		c-0.4,0-0.8-0.4-0.8-0.8c0-0.8,2.4-3.1,2.9-3.5c2.2-2,4.9-3.5,8-3.5c1.8,0,3.1,1.4,3.1,3.3c0,1.6-0.8,3.7-1.2,5.3L494.3,599z
		 M465.7,590.6c5.7-0.8,17.7-1.2,17.7-9c0-4.1-3.9-5.7-7.5-5.7c-8.6,0-18.6,7.3-18.6,16.7c0,5.9,4.7,8.8,10,8.8
		c2.9,0,6.1-1.2,8.6-2.9c1-0.6,4.1-3.5,4.1-4.7c0-0.4-0.4-0.6-0.6-0.6c-1,0-3.9,4.7-8.8,4.7c-3.1,0-4.9-2.4-4.9-5.5V590.6z
		 M465.9,588.6c0.6-3.3,3.9-11.4,8.2-11.4c1.2,0,1.8,1.2,1.8,2.4c0,2.2-1.4,5.1-2.9,6.5C471.2,587.6,468.4,588.6,465.9,588.6z
		 M450,593.3c-0.2,0.6-0.8,2.2-0.8,2.7c0,0.4,0.2,0.6,0.8,0.6c1.6,0,3.9-4.7,4.7-4.7c0.4,0,0.6,0.4,0.6,0.6c0,1.4-2.2,3.7-2.9,4.7
		c-2.2,2.2-4.1,3.5-7.3,3.5c-2.2,0-3.7-1-3.7-3.3c0-2.6,1.4-6.3,2.4-8.8c0.6-1.4,3.1-7.7,3.1-9c0-0.4-0.2-0.8-0.6-0.8
		c-2,0-5.7,5.9-6.7,7.5c-1.6,2.7-4.7,9-5.7,12c-0.6,1.8-1.2,1.6-2.9,1.6h-2.2c-0.4,0-2.6,0.2-2.6-0.4c0-0.2,0.2-1.2,0.2-1.4l2.4-7.9
		c0.6-2.2,2.6-8.8,2.6-10.8c0-0.4,0-1-0.6-1c-2,0-5.7,6.9-6.5,8.2l-4.3,10.2c-0.2,0.6-0.6,2-1,2.6c-0.4,0.6-2,0.4-2.6,0.4h-1.8
		c-0.6,0-2.9,0.2-2.9-0.8c0-0.4,0.4-1.4,0.4-1.8l3.3-11.6c0.4-1,1.4-5.1,1.4-6.1c0-0.2,0-0.6-0.4-0.6c-1,0-4.1,4.1-4.9,4.1
		c-0.4,0-0.6-0.4-0.6-0.8c0-1.2,1.8-2.7,2.6-3.5c2.2-2,4.9-4.1,8-4.1c1.8,0,2.9,1,2.9,2.7c0,1.4-0.6,3.9-1,5.5l-0.6,2.6
		c2.7-4.7,5.9-10.6,12.2-10.6c2.7,0,3.5,1.6,3.5,4.1c0,2.4-1,5.5-1.4,8c2.7-4.9,7.3-12.2,13.5-12.2c2.2,0,4.1,0.8,4.1,3.3
		c0,2-0.8,4.1-1.6,6.1L450,593.3z M375.4,601.2c8.2,0,17.9-5.5,17.9-14.5c0-7.1-6.3-11-12.6-11c-8.4,0-17.3,6.3-17.3,15.1
		c0,3.1,1.4,5.9,3.9,7.9C369.7,600.6,372.4,601.2,375.4,601.2z M375.2,599.6c-2.9,0-3.5-3.1-3.5-5.3c0-3.3,1-6.9,2.6-9.8
		c1.2-2.9,3.9-7.1,7.5-7.1c2.9,0,3.5,2.4,3.5,4.9C385,587,381.3,599.6,375.2,599.6z M342.6,574.5c0.2-1,0.8-2.7,0.8-3.7
		c0-1.4-1-1.8-2.2-1.8c-0.6,0-1.4-0.2-1.4-1c0-1,1-1.2,1.8-1.2c2.6,0,5.1,0.2,7.7,0.2c2.6,0,5.1-0.2,7.7-0.2c0.8,0,1.4,0.2,1.4,1
		c0,1.2-1.2,1.4-2.2,1.4c-1.2,0.2-2.2,0.2-2.9,1.2c-0.8,1-1.4,2.7-1.8,3.9l-6.3,21.2c-0.2,0.4-0.4,1.2-0.4,1.6
		c0,1.6,2.2,1.4,3.1,1.4c4.7,0,6.7-1,9-5.1c0.4-0.6,0.8-1.4,1.6-1.4c0.6,0,1.2,0.4,1.2,1.2c0,0.8-0.4,2.2-0.8,2.9l-0.6,2
		c-0.2,0.6-0.4,1.8-0.8,2.2c-0.2,0.4-1,0.4-1.4,0.4c-5.5,0-11.2-0.2-16.7-0.2c-2.6,0-5.1,0.2-7.9,0.2c-0.6,0-1.4,0-1.4-1
		s1.2-1.2,2-1.4c3.1-0.4,3.3-1,4.1-3.9L342.6,574.5z"/>
</g>
</svg>
