<?xml version="1.0" encoding="utf-8"?>
<!-- Generator: Adobe Illustrator 27.1.1, SVG Export Plug-In . SVG Version: 6.00 Build 0)  -->
<svg version="1.1" id="Capa_1" xmlns="http://www.w3.org/2000/svg" xmlns:xlink="http://www.w3.org/1999/xlink" x="0px" y="0px"
	 viewBox="0 0 1000 1000" style="enable-background:new 0 0 1000 1000;" xml:space="preserve">
<style type="text/css">
	.st0{fill:#1B2C4D;}
	.st1{fill:#FFDC00;}
	.st2{fill:#009EE2;}
	.st3{fill:#E20613;}
	.st4{fill:#FFFFFF;}
</style>
<rect x="0" class="st0" width="1000" height="1000"/>
<g>
	<g>
		<g>
			<path class="st1" d="M301.7,373.7l-0.1,11.6l5.4,0.1C305.7,381.4,303.9,377.5,301.7,373.7z"/>
			<path class="st1" d="M312.9,398.2c0,0-12.5-4.4-12.6-4.3l-1,11.1l13.9,0.2L312.9,398.2z"/>
			<polygon class="st1" points="301.2,427.1 308.1,427.2 310,419.9 301.5,415.4 			"/>
			<polygon class="st1" points="295.1,425.9 298.8,426.2 291.7,366.6 286.3,443.2 298,447 302,439.3 292.5,431 			"/>
			<path class="st1" d="M99.1,373.7c-2.2,3.8-4,7.7-5.3,11.6l5.4-0.1L99.1,373.7z"/>
			<path class="st1" d="M99.8,395.9c-0.1-0.1-12.6,4.3-12.6,4.3l-0.3,7.7l13.9-0.2L99.8,395.9z"/>
			<polygon class="st1" points="99.2,415.7 90.8,420.1 92.7,427.4 99.6,427.4 			"/>
			<polygon class="st1" points="109.2,366.6 102,426.2 105.8,425.9 108.4,431 98.8,439.3 102.9,447 114.6,443.2 			"/>
			<path class="st1" d="M218.9,343.7l-0.3,22.5c0.6,0.6,1.1,1.1,1.7,1.7L218.9,343.7z"/>
			<path class="st1" d="M190.4,341.3l-0.3,19.8c0.5-0.2,0.9-0.4,1.4-0.5L190.4,341.3z"/>
			<path class="st1" d="M205.4,340.6l-0.4,18.7c0.4,0.1,0.9,0.2,1.3,0.3L205.4,340.6z"/>
			<path class="st1" d="M274.9,357.4l-1.1,88.6c-1.3,2.6-3.2,4.4-5.5,6l-6.4-97.9l-2.4,107.1c-1.4,1.5-3,2.8-4.9,3.7l-7.5-114.7
				l-2.2,121.7c-0.9,0.7-2,1.2-3.3,1.4l-8.4-126.9l-2.2,131.3c-1.4,0.8-3,1.2-4.8,1.2l-4.2-78.2c-1.2,1.6-2.5,3.1-4,4.5l-1.1,76.6
				c-1.4,0.4-3,0.7-4.5,0.4l-3.6-71.7c-1.6,0.6-3.3,0.9-5,1.2l-1.5,71c-1.3,0.2-2.6,0.2-4.1-0.1l-3.9-71.4c-1.7-0.4-3.4-1-5-1.7
				l-1.2,72.5c-1.2,0.1-2.4,0-3.5-0.2l-4.4-79.3c-1.8-2.1-3.3-4.6-4.3-7.2l-1.9,83.6c-1.6-0.1-2.9-0.4-4-1.1L162,346.4l-1.9,126.5
				c-1.5-0.3-2.9-1.1-4.4-2.4l-7.4-120.5l-2.3,114.4c-1.6-0.8-3.2-2-4.5-3.6l-7.1-106.9l-1.7,97.7c-2.3-1.8-4.5-3.9-6-6.5l-6.7-83.7
				l-0.9,84.1l-9.6,11.5l6.1,7.7l12.2-7.1c2,2.1,4.1,4,6.3,5.8l-7.8,12.3l7.7,6.8l10.8-10.3c2.3,1.6,4.7,3.2,7,4.4l-3.6,13.6
				l9.2,4.5l7.1-12.5c2.5,1.3,5.1,2.2,7.8,2.8l-1,14.6l9.2,2.4l5.1-14.2c3,0.6,6.1,0.6,9,0.6l1.3,14.5l10.9,0.4l1.1-15.9
				c3.3,0.4,6.3,0.2,8.9-0.5L221,501l9.4-1.7v-16c2.6-0.4,5.2-1.3,7.8-2.6l7.2,12.2l9.4-4.7l-4.2-13.9c2.6-1.4,5-2.7,7-4.5
				l10.3,10.6l7.6-7.2l-6.8-12.9c1.7-1.4,3.3-2.6,4.4-4.2l12,7.8l6.4-8.2l-8-8.7L274.9,357.4z"/>
			<path class="st1" d="M177,345.3l-0.6,29.2c0.6-1.3,1.3-2.5,2.1-3.7L177,345.3z"/>
		</g>
		<g>
			<path class="st2" d="M396.8,502.7l-3.8,3.9l8.3,8C400.2,510.4,398.7,506.4,396.8,502.7z"/>
			<path class="st2" d="M391.7,489.4l-4.8-5.1l-9.6,10.1l8.7,7.1C386.1,501.4,391.7,489.4,391.7,489.4z"/>
			<polygon class="st2" points="374.2,476.4 367.7,472.7 362.9,477.6 371.4,485.5 			"/>
			<polygon class="st2" points="359.5,482.8 354,481.1 354.8,468.5 346.4,466 341,477 399.4,526.7 361.9,479.9 			"/>
			<path class="st2" d="M247.5,654.9c3.7,1.8,7.8,3.2,12,4.3l-8.2-8.2L247.5,654.9z"/>
			<path class="st2" d="M226.6,644.1l5.7,5.2c0,0,11.9-5.9,11.9-6l-7.7-8.9L226.6,644.1z"/>
			<polygon class="st2" points="221.5,621.4 216.7,626.2 220.6,632.7 229.6,629.8 			"/>
			<polygon class="st2" points="209.9,605.3 212.5,613.6 225.1,612.5 227,618 224.1,620.5 271.7,657 220.8,599.6 			"/>
			<path class="st2" d="M330.3,483.9l64,61.2l-58.2-68.8l-0.6-11.9l-10.3-1.2l-2.8,14.1c-1.9-0.3-3.9,0-6,0.2l-4.4-13.8l-10.4,0.3
				l0.4,14.8c-2.6,0.2-5.3,1-8.1,1.8l-6.9-12.7l-9.9,3.3l3.7,13.7c-2.7,0.9-5.2,2.2-7.4,3.7l-11.4-11.2l-7.7,5.5l7.3,12.9
				c-2.4,1.4-4.6,3.3-6.6,6l-12.1-10.3l-7.3,8.1l9.4,11.1c-2.1,2.1-4.3,4.4-5.9,6.8l-13.7-6.3l-4.7,8.3l11.1,9.5
				c-1.4,2.3-2.6,4.8-3.4,7.5l-13.9-3.7l-3.2,9.7l12.2,6.9c-0.8,2.5-1.3,5.3-1.8,8.1l-14.9,0.5l-0.5,10.3l14.2,3
				c-0.3,2.8-0.4,5.7-0.3,8.5l-13.6,3.7l1.2,9.8l14.9,1.2L283,653l-55.1-63.5c-0.8-2.9-0.7-5.9-0.4-8.8l71,67.2L227.1,568
				c-0.2-2,0.1-4,0.6-5.7l83.3,78.5l-80.9-89.7c0.1-2,0.6-3.6,1.4-4.8l91.6,87.2l-88.2-97.7c0.3-1.2,0.9-2.4,2-3.6l61,57.2
				c-1.1-2.6-1.8-5.3-2.1-8.1l-53.5-58.7c0.6-1,1.4-1.9,2.3-2.6l52.6,49.9c0.6-1.6,1.3-3.2,2.3-4.8l-48.2-52.8
				c0.8-1.3,1.8-2.2,2.8-3l51.8,48.6c1.4-1.1,2.8-2,4.3-2.8l-48.7-52.7c0.9-1.3,2.2-2.2,3.5-2.9l55.5,52.9c2-0.1,4,0,6,0.3
				L273.6,495c1.2-1.3,2.6-2.2,4.2-2.6l95.3,90.3l-84.8-94.8c1.1-0.8,2.2-1.2,3.3-1.3l88.4,83.6l-76.6-85.6c2-0.6,4-1,6.1-0.8
				l78.1,73.2l-65.4-73.2C324.8,483.1,327.5,483.1,330.3,483.9z"/>
			<path class="st2" d="M343.9,593.7l13.7,12.8l-12.9-14C344.5,593,344.2,593.3,343.9,593.7z"/>
			<path class="st2" d="M313.1,603.6l21.3,20l-17.2-18.9C315.8,604.5,314.4,604.1,313.1,603.6z"/>
			<path class="st2" d="M348.6,579.2l16.3,15.5l-16.4-17.9C348.6,577.6,348.6,578.4,348.6,579.2z"/>
			<path class="st2" d="M332.3,603.2l14.3,13.6l-13-14.2C333.2,602.8,332.8,603,332.3,603.2z"/>
		</g>
		<g>
			<path class="st3" d="M141.9,659.4c4.3-1.1,8.3-2.5,12-4.4l-3.9-3.8L141.9,659.4z"/>
			<path class="st3" d="M4.6,503c-1.9,3.7-3.4,7.7-4.6,12l8.3-8L4.6,503z"/>
			<path class="st3" d="M25.4,492.3l-9.6-10.1l-5.3,5.6c0,0,5.7,12,5.8,12L25.4,492.3z"/>
			<polygon class="st3" points="38.6,477.6 33.8,472.7 27.3,476.4 30.1,485.5 			"/>
			<path class="st3" d="M155.4,644.2c0,0.1,11.9,6,11.9,6l5.2-4.7l-9.9-9.8L155.4,644.2z"/>
			<polygon class="st3" points="171.6,630 180.7,633 184.6,626.5 179.7,621.6 			"/>
			<polygon class="st3" points="129.9,657.2 177.4,620.6 174.6,618.1 176.4,612.6 189,613.7 191.6,605.4 180.7,599.7 			"/>
			<polygon class="st3" points="54.9,466.2 46.6,468.7 47.4,481.3 41.9,483.1 39.5,480.2 2,527 60.4,477.2 			"/>
			<path class="st3" d="M180.7,581.1c0.4-1.9,0.1-3.8-0.1-6l13.9-4.2l-0.1-10.4l-14.8,0.1c-0.1-2.6-0.9-5.3-1.7-8.1l12.8-6.7
				l-3.2-10l-13.8,3.5c-0.9-2.8-2.1-5.2-3.6-7.4l11.4-11.2l-5.4-7.8l-13,7.1c-1.3-2.4-3.2-4.6-5.9-6.7L168,501l-8-7.5l-11.2,9.2
				c-2-2.1-4.3-4.3-6.8-6l6.6-13.5l-8.2-4.9l-9.7,10.9c-2.3-1.4-4.7-2.7-7.4-3.6l4-13.9l-9.6-3.4l-7.2,12.1c-2.5-0.8-5.2-1.4-8-1.9
				l-0.2-14.9l-10.3-0.7l-3.3,14.2c-2.8-0.4-5.7-0.5-8.5-0.5L76.5,463l-9.8,1l-1.5,14.9L5.9,538.4l64.5-53.9
				c2.9-0.7,5.9-0.6,8.8-0.3L10.6,554l81.2-69.9c2-0.1,4,0.2,5.7,0.7l-80,81.8l91.2-79.2c2,0.1,3.6,0.6,4.8,1.4l-88.9,90l99.3-86.3
				c1.2,0.3,2.4,1,3.6,2.1l-58.3,59.9c2.6-1.1,5.4-1.7,8.1-1.9l59.7-52.4c0.9,0.6,1.8,1.4,2.6,2.4l-50.9,51.7
				c1.6,0.6,3.2,1.4,4.7,2.3l53.7-47.2c1.3,0.8,2.2,1.8,3,2.8l-49.6,50.9c1.1,1.4,1.9,2.9,2.7,4.4l53.6-47.7
				c1.3,0.9,2.1,2.3,2.9,3.5l-53.9,54.5c0.1,2,0,4-0.4,6L164,532c1.3,1.3,2.2,2.7,2.5,4.2l-92.1,93.6l96.4-83
				c0.8,1.1,1.2,2.2,1.3,3.4L86.9,637l87.1-75c0.6,2,0.9,4.1,0.7,6.1L100,644.9l74.4-64.1c0.5,2.7,0.5,5.4-0.4,8.1l-62.4,62.9
				l69.9-56.9l11.9-0.4l1.3-10.3L180.7,581.1z"/>
			<path class="st3" d="M54.7,569.4l-20.4,20.9l19.2-16.8C53.7,572.1,54.1,570.8,54.7,569.4z"/>
			<path class="st3" d="M78.4,605.4l-15.8,16l18.2-16C80,605.4,79.2,605.4,78.4,605.4z"/>
			<path class="st3" d="M64,600.5l-13.1,13.4l14.2-12.6C64.7,601,64.3,600.7,64,600.5z"/>
			<path class="st3" d="M54.7,588.7l-13.8,14.1L55.3,590C55.1,589.6,54.9,589.1,54.7,588.7z"/>
		</g>
		<g>
			<g>
				<path class="st4" d="M519.7,378.1l46.8,176.8h-37.2l-8.2-37.4h-47.1l-8.2,37.4h-37.2l46.8-176.8H519.7z M515,488.3l-17.1-79.5
					h-0.5l-17.1,79.5H515z"/>
				<path class="st4" d="M644.9,409.6c-3.1-5.9-8.6-8.8-16.7-8.8c-4.5,0-8.1,1.2-11,3.6c-2.9,2.4-5.2,6.3-6.8,11.6
					c-1.7,5.4-2.8,12.4-3.5,21.1c-0.7,8.7-1,19.3-1,31.8c0,13.4,0.5,24.2,1.4,32.4c0.9,8.3,2.3,14.7,4.2,19.2
					c1.9,4.5,4.3,7.6,7.2,9.2c2.9,1.6,6.2,2.4,10,2.4c3.1,0,6.1-0.5,8.8-1.6c2.7-1.1,5.1-3.2,7.1-6.4c2-3.2,3.5-7.8,4.7-13.6
					c1.2-5.9,1.7-13.6,1.7-23.2h35.7c0,9.6-0.7,18.7-2.2,27.2c-1.5,8.6-4.3,16.1-8.3,22.5c-4,6.4-9.7,11.5-17.1,15.1
					c-7.4,3.6-16.9,5.4-28.6,5.4c-13.4,0-24-2.1-31.9-6.4c-7.9-4.3-14-10.5-18.2-18.6c-4.2-8.1-6.9-17.7-8.2-29
					c-1.2-11.2-1.9-23.6-1.9-37.1c0-13.4,0.6-25.7,1.9-37c1.2-11.3,4-21,8.2-29.1c4.2-8.1,10.3-14.4,18.2-18.9
					c7.9-4.5,18.6-6.8,31.9-6.8c12.7,0,22.7,2.1,30.1,6.2c7.3,4.1,12.8,9.4,16.5,15.7c3.6,6.4,5.9,13.2,6.8,20.6
					c0.9,7.3,1.4,14.2,1.4,20.7h-35.7C649.5,424.9,648,415.5,644.9,409.6z"/>
				<path class="st4" d="M700.4,429.4c1.2-11.3,4-21,8.2-29.1c4.2-8.1,10.3-14.4,18.2-18.9c7.9-4.5,18.6-6.8,31.9-6.8
					c13.4,0,24,2.3,32,6.8c7.9,4.5,14,10.9,18.2,18.9c4.2,8.1,6.9,17.8,8.2,29.1c1.2,11.3,1.9,23.7,1.9,37c0,13.5-0.6,25.9-1.9,37.1
					c-1.2,11.2-4,20.9-8.2,29c-4.2,8.1-10.3,14.3-18.2,18.6c-7.9,4.3-18.6,6.4-32,6.4c-13.4,0-24-2.1-31.9-6.4s-14-10.5-18.2-18.6
					c-4.2-8.1-6.9-17.7-8.2-29c-1.2-11.2-1.9-23.6-1.9-37.1C698.5,453.1,699.2,440.8,700.4,429.4z M735.1,496.8
					c0.6,8.3,1.7,15.1,3.5,20.3c1.7,5.2,4.2,9,7.4,11.4c3.2,2.4,7.5,3.6,12.8,3.6c5.3,0,9.5-1.2,12.8-3.6c3.2-2.4,5.7-6.2,7.4-11.4
					c1.7-5.2,2.9-12,3.5-20.3c0.6-8.3,0.9-18.5,0.9-30.3c0-11.9-0.3-22-0.9-30.2c-0.6-8.3-1.7-15-3.5-20.3
					c-1.7-5.3-4.2-9.1-7.4-11.5c-3.2-2.4-7.5-3.6-12.8-3.6c-5.3,0-9.5,1.2-12.8,3.6c-3.2,2.4-5.7,6.2-7.4,11.5
					c-1.7,5.3-2.9,12.1-3.5,20.3c-0.6,8.3-0.9,18.3-0.9,30.2C734.2,478.4,734.5,488.5,735.1,496.8z"/>
				<path class="st4" d="M897.7,378.1c9.1,0,16.7,1.5,22.9,4.6c6.2,3.1,11.2,7.1,15,12c3.8,5,6.5,10.6,8.2,17
					c1.6,6.4,2.5,12.8,2.5,19.4c0,9.1-1.4,17-4.1,23.8c-2.7,6.8-6.5,12.3-11.4,16.6c-4.9,4.3-10.8,7.5-17.7,9.7
					c-6.9,2.1-14.6,3.2-23,3.2h-19.1v70.6h-35.7V378.1H897.7z M886.8,458.1c7.1,0,12.8-2.1,17.2-6.4c4.4-4.3,6.6-11,6.6-20.1
					c0-8.9-1.9-15.7-5.7-20.3c-3.8-4.6-10.2-6.9-19.1-6.9h-14.9v53.7H886.8z"/>
				<path class="st4" d="M960.6,378.1h35.7v176.8h-35.7V378.1z"/>
			</g>
			<g>
				<path class="st4" d="M455,568.3l13.5,50.9h-10.7l-2.4-10.8h-13.5l-2.4,10.8h-10.7l13.5-50.9H455z M453.6,600.1l-4.9-22.9h-0.1
					l-4.9,22.9H453.6z"/>
				<path class="st4" d="M529.1,603.2h0.1v-34.9h9.4v50.9H527l-12.5-35.7h-0.1v35.7h-9.4v-50.9h11.8L529.1,603.2z"/>
				<path class="st4" d="M608.4,576.7h-11.1v42.5H587v-42.5h-11.1v-8.4h32.5V576.7z"/>
				<path class="st4" d="M646,568.3h10.3v50.9H646V568.3z"/>
				<path class="st4" d="M696.2,583.1c0.4-3.3,1.1-6,2.4-8.4c1.2-2.3,3-4.1,5.2-5.5c2.3-1.3,5.3-2,9.2-2c3.9,0,6.9,0.7,9.2,2
					c2.3,1.3,4,3.1,5.2,5.5c1.2,2.3,2,5.1,2.4,8.4c0.4,3.3,0.5,6.8,0.5,10.7c0,3.9-0.2,7.5-0.5,10.7c-0.4,3.2-1.1,6-2.4,8.3
					c-1.2,2.3-3,4.1-5.2,5.3c-2.3,1.2-5.3,1.9-9.2,1.9c-3.9,0-6.9-0.6-9.2-1.9c-2.3-1.2-4-3-5.2-5.3c-1.2-2.3-2-5.1-2.4-8.3
					c-0.4-3.2-0.5-6.8-0.5-10.7C695.7,589.9,695.8,586.4,696.2,583.1z M706.2,602.5c0.2,2.4,0.5,4.3,1,5.8c0.5,1.5,1.2,2.6,2.1,3.3
					c0.9,0.7,2.1,1,3.7,1c1.5,0,2.7-0.3,3.7-1c0.9-0.7,1.6-1.8,2.1-3.3c0.5-1.5,0.8-3.4,1-5.8c0.2-2.4,0.2-5.3,0.2-8.7
					c0-3.4-0.1-6.3-0.2-8.7c-0.2-2.4-0.5-4.3-1-5.8c-0.5-1.5-1.2-2.6-2.1-3.3c-0.9-0.7-2.2-1-3.7-1c-1.5,0-2.7,0.3-3.7,1
					c-0.9,0.7-1.6,1.8-2.1,3.3c-0.5,1.5-0.8,3.5-1,5.8c-0.2,2.4-0.3,5.3-0.3,8.7C705.9,597.2,706,600.1,706.2,602.5z"/>
				<path class="st4" d="M792.2,619.2c-1.9,0.5-4.2,0.8-6.8,0.8c-3.9,0-6.9-0.6-9.2-1.9c-2.3-1.2-4-3-5.2-5.3
					c-1.2-2.3-2-5.1-2.4-8.3c-0.4-3.2-0.5-6.8-0.5-10.7c0-3.8,0.2-7.4,0.5-10.7c0.4-3.3,1.1-6,2.4-8.4c1.2-2.3,3-4.1,5.2-5.5
					c2.3-1.3,5.3-2,9.2-2s6.9,0.7,9.2,2c2.3,1.3,4,3.1,5.2,5.5c1.2,2.3,2,5.1,2.4,8.4c0.4,3.3,0.5,6.8,0.5,10.7
					c0,4.3-0.2,8.2-0.7,11.8c-0.5,3.5-1.5,6.5-3.2,8.9l5.5,5.3l-6.1,5.5L792.2,619.2z M778.6,602.5c0.2,2.4,0.5,4.3,1,5.8
					c0.5,1.5,1.2,2.6,2.1,3.3c0.9,0.7,2.1,1,3.7,1c1.5,0,2.7-0.3,3.7-1c0.9-0.7,1.6-1.8,2.1-3.3c0.5-1.5,0.8-3.4,1-5.8
					c0.2-2.4,0.2-5.3,0.2-8.7c0-3.4-0.1-6.3-0.2-8.7c-0.2-2.4-0.5-4.3-1-5.8c-0.5-1.5-1.2-2.6-2.1-3.3c-0.9-0.7-2.2-1-3.7-1
					c-1.5,0-2.7,0.3-3.7,1c-0.9,0.7-1.6,1.8-2.1,3.3c-0.5,1.5-0.8,3.5-1,5.8c-0.2,2.4-0.3,5.3-0.3,8.7
					C778.4,597.2,778.5,600.1,778.6,602.5z"/>
				<path class="st4" d="M851.2,603.8c0,1.3,0.1,2.5,0.3,3.5c0.2,1.1,0.5,2,0.9,2.8c0.5,0.8,1.1,1.4,1.9,1.9c0.8,0.5,1.8,0.7,3,0.7
					c1.2,0,2.2-0.2,3-0.7c0.8-0.5,1.4-1.1,1.8-1.9c0.5-0.8,0.8-1.7,0.9-2.8c0.2-1.1,0.3-2.2,0.3-3.5v-35.5h10.3v35.5
					c0,3.2-0.5,5.9-1.4,8c-0.9,2.1-2.1,3.8-3.6,5c-1.5,1.2-3.3,2.1-5.2,2.5c-2,0.4-4,0.6-6.1,0.6s-4.1-0.2-6.1-0.6
					c-2-0.4-3.7-1.2-5.2-2.3c-1.5-1.2-2.7-2.8-3.6-5c-0.9-2.1-1.4-4.9-1.4-8.3v-35.5h10.3V603.8z"/>
				<path class="st4" d="M913.2,568.3h10.3v50.9h-10.3V568.3z"/>
				<path class="st4" d="M986.5,568.3l13.5,50.9h-10.7l-2.4-10.8h-13.5l-2.4,10.8h-10.7l13.5-50.9H986.5z M985.2,600.1l-4.9-22.9
					h-0.1l-4.9,22.9H985.2z"/>
			</g>
		</g>
	</g>
</g>
</svg>
