<?xml version="1.0" encoding="utf-8"?>
<!-- Generator: Adobe Illustrator 28.0.0, SVG Export Plug-In . SVG Version: 6.00 Build 0)  -->
<svg version="1.1" id="Capa_1" xmlns="http://www.w3.org/2000/svg" xmlns:xlink="http://www.w3.org/1999/xlink" x="0px" y="0px"
	 viewBox="0 0 1000 1000" style="enable-background:new 0 0 1000 1000;" xml:space="preserve">
<style type="text/css">
	.st0{fill:#FFFFFF;}
	.st1{fill:#E30C0A;}
</style>
<circle class="st0" cx="500" cy="500" r="349.2"/>
<g>
	<path class="st1" d="M728.4,210.7c-45.5-36.2-99.9-61.7-159.2-73.1c-8.9-1.7-18.1-3.1-27.4-4.2c-13.9-1.6-28-2.4-42.4-2.4
		c-46.8,0-91.5,8.8-132.5,24.6C229,209.1,131.6,343,131.6,500c0,156.9,97.3,291,235.2,344.5c41,15.9,85.7,24.5,132.5,24.5
		c14.5,0,28.5-0.9,42.4-2.4c9.3-1.1,18.4-2.4,27.4-4.3c59.4-11.2,113.8-37,159.2-73.1c39.4-31.2,72.2-70.2,96.1-114.6
		c28-52.1,43.9-111.6,43.9-174.8s-15.9-122.5-43.8-174.5C800.6,280.8,767.8,241.9,728.4,210.7 M764.7,708.8
		c-10.9,14.2-23.2,27.5-36.3,39.8c-43.8,40.8-98.5,69.9-159.2,82.6c-8.9,1.8-18.1,3.3-27.4,4.4c-13.7,1.9-28,2.7-42.4,2.7
		c-47,0-91.8-9.9-132.5-27.3c-92.7-39.9-164-120-191.7-218.8c-1.4-5.1,1.3-10.2,6.4-11.4c5.1-1.3,10.3,1.3,11.4,6.5
		c25.1,90.9,89.6,165.5,173.8,204.3c40.3,18.6,85.2,28.9,132.5,28.9c14.5,0,28.7-0.9,42.4-2.9c9.3-1.2,18.4-2.7,27.4-4.8
		c52.2-11.7,99.3-36,137.8-69.2c-11.4,3.8-24.3,5.1-37.1,5.1c-51.3,0-77-28.3-77-84.5V447.4H569h-14.7v-14H569h23.9v-91l101.2,1.2
		v89.7h34.2H753v14h-24.7h-34.2v206.3c0,17.9,1.4,29.6,2.6,35.8c3.9,14.1,12.8,20.5,25.7,20.5c2.3,0,4.3,0,6.1-0.3
		c6.1-0.4,11.1-1.9,17.2-4.9c1.2-2.6,3.7-5.2,4.9-6.3c4-5.3,8.9-5.3,12.9-2.6C767.2,699.9,768.4,705,764.7,708.8 M836.4,501.2
		c0,5.2-3.7,9.1-8.9,9.1c-0.9,0-2-0.2-2.9-0.4c-3.7-1.3-6.1-4.5-6.1-8.7c0-86-34.1-164-90.1-221.3c-42.4-43.7-97.4-75.2-159.2-88.7
		c-8.9-2.1-18.1-3.7-27.4-4.9c-13.7-1.9-28-2.8-42.4-2.8c-46.6,0-91.8,10-132.5,28.1c-14.1,6.3-27.5,13.6-40.4,21.8
		c12.2-1.7,25.7-3.5,40.4-4.3c6.7-0.5,13.8-0.9,21-0.9c71.8,0,112.7,18,123,51.4c3.9,11.5,5.2,25.7,5.2,43.5v160.1
		c0,23,5.1,34.5,14,34.5c4.2,0,8.1-0.5,11.6-2c6.5-2.1,12.2-6.5,17.9-12l9.5,8.3l0.7,0.7l-0.7,0.9c-8.4,9.3-17.4,17-27.2,23.1
		c-18,11.2-38,17-60.3,17c-14.1,0-28.3-5.2-41.1-15.3c-12.8-10.2-21.6-21.7-25.6-34.5c-14.4,16.3-30.3,28.6-48.1,36.9
		c-18.7,8.6-39.3,13-62.2,13c-25.7,0-48.7-7.7-67.9-21.7c-19.2-15.3-29.4-35.9-29.4-61.6c0-42.2,25.7-70.4,78.1-85.8
		c20.4-6.2,47.8-10,81.4-11.7c14.7-0.8,30.8-1.1,48.1-1.1v-55c0-23.2-4-40.9-9-51.3c-6.1-14.6-20.2-22.3-39-23h-3.2
		c-21.9,0-37.2,2.6-46.2,7.8c-9,5-12.9,10.2-12.9,15.3c0,5.2,3.9,12.9,14.1,21.8c9,9,14,19.2,14,30.8c0,12.8-5.1,23.1-14,30.8
		c-9,8.9-19.3,12.7-32,12.7c-14.1,0-25.6-5-35.8-13.9c-10.3-9-15.3-19.3-15.3-33.3c0-10.3,2.6-20.6,8.9-30.8
		c5.1-8.9,12.7-15.3,20.5-23.1l1.2-1.2c29.1-28.4,63.1-51.5,100.7-67.7c40.4-17.6,85.3-27.2,132.5-27.2c14.5,0,28.7,0.9,42.4,2.6
		c9.3,1.1,18.4,2.6,27.4,4.6c60.8,12.7,115.6,41.8,159.2,82.3c45.6,42.2,79.3,96.8,96.1,158.3C832.3,440.6,836.4,470.4,836.4,501.2"
		/>
	<path class="st1" d="M322.7,438.6c-2.6,10.3-3.9,17.9-3.9,24.3c0,18,2.6,30.8,6.5,38.3c6.4,10.4,16.6,16.6,33.2,16.6
		c2.7,0,5.7-0.1,8.4-0.7c15.2-2.6,30.8-12.3,48.1-27.4V384.6c-19,0-34.9,2.4-48.1,7C343.4,400,329.2,415.5,322.7,438.6"/>
</g>
</svg>
