<?xml version="1.0" encoding="utf-8"?>
<!-- Generator: Adobe Illustrator 28.0.0, SVG Export Plug-In . SVG Version: 6.00 Build 0)  -->
<svg version="1.1" id="Capa_1" xmlns="http://www.w3.org/2000/svg" xmlns:xlink="http://www.w3.org/1999/xlink" x="0px" y="0px"
	 viewBox="0 0 1000 1000" style="enable-background:new 0 0 1000 1000;" xml:space="preserve">
<style type="text/css">
	.st0{fill-rule:evenodd;clip-rule:evenodd;fill:#006FA9;}
	.st1{fill-rule:evenodd;clip-rule:evenodd;fill:#1B3A68;}
	.st2{fill-rule:evenodd;clip-rule:evenodd;fill:#2A89BB;}
	.st3{fill:#1B3A68;}
</style>
<g>
	<path class="st0" d="M409.5,420.5c-3.9,1.5-36,24.5-41.4,29l-0.3,0.3c0,0-0.1,0.1-0.2,0.1c-0.2-0.5,1.4-9.2,1.6-10.8
		c0.4-4.2,0.5-8.4,0.7-12.7v-1.1c-2,0.5-7.3,2.9-9.2,3.8c-2.8,1.3-5.9,2.6-8.8,4c-25.4,11.5-42.5,20.9-64.3,37.8
		c-5,3.9-12.2,10.2-17.2,14.7c-1.1,1-2,2.2-3.1,3.3L254.9,502c-1.7,2-4.6,4.8-5.8,6.8l21.7-16.2c7.4-5.6,15.1-10.4,22.8-15.4
		c7.6-5,15.9-9.2,24.3-13.7c5.4-2.8,21.8-9.8,27.7-10.8c-2.1,16.1-19.3,40.4-29.2,53l-12.1,15.5l0.5,0.3c1.7,1.2,4,1.9,5.9,3.6
		c1.9,1.7,0.8,1.3,2,1.1c1.6-1.1,3.2-2.6,4.8-4l14.8-12.5c47.1-38.3,102.2-69.5,157.6-96.4c16.1-7.8,33.3-14.9,50.6-21.8
		s35.2-13.3,53.3-19.3c27.5-9.1,55.4-17.6,83.4-25.5c9.3-2.6,19.1-5.8,28.5-8c0.5,0.4,0.2,3.4,0.2,4c-1.4,11.3-2.4,16-3.2,28.8
		c-2.1,33.4,1.2,66.5,10.5,97.8c-0.4,0.3,0,0.2-0.8,0.2c-7.2-4.8-10.6-8.5-15.6-15.3c-2.1-2.9-4.1-6.1-6.1-9.4
		c-1.3-2-4.7-8.5-5.9-9.7l-0.6-1.5l-1,1.5c-0.3,0.6-0.5,1.2-0.8,1.9c-7.4,16.4-11.2,27.7-13.3,46.6c-0.8,7.1-0.8,13.4-1.2,20.7
		l-1.8-1c-29.1-17.7-49.8-62.4-50.4-79.1c-6,3-12,6.6-18,9.6c-10,5-25.2,13.6-35.4,19.3c-3,1.7-5.8,3.2-8.8,4.9
		c-2.1,1.2-7.3,3.7-8.7,4.9c-0.4-0.8,2.5-7.3,3.2-9c2.3-6,7.6-24.7,8.4-30.8l0.3-1.1c-5.9,0.3-48,10.3-53.8,11.8
		c-16.8,4.3-34.6,9.7-49.8,16.1c-3.9,1.6-7.8,3.2-11.6,4.8c-9.3,3.8-24.3,11.6-32.8,16.4c-6.5,3.6-34.5,20.9-39.9,26.1
		c-1.3,0.6-6,4.3-6.8,5.3c1.4-0.3,4.2-1.9,5.8-2.7c1-0.4,1.9-0.8,2.9-1.3l2.4-1.2c0,0,0.1-0.1,0.2-0.1c0,0,0.1-0.1,0.2-0.1
		c2.3-0.7,5.5-2.5,7.8-3.5c36.6-16.9,91.9-38.7,131.6-40.4l1.6-0.1c-1.6,6.8-17,24.3-22.2,29.4c-7.5,7.5-15.5,14.2-24.2,20.5
		c-1.3,0.9-2.8,1.8-3.8,2.8l3.1,0.1h198.8h2.3h90.8c-0.7-2.6-6.2-16.1-8-21.8c-2.5-7.7-4.7-14.9-6.7-23.1c-4-16.3-7-34.5-7.7-52.1
		c-0.7-19.5,0.2-37.9,3.1-56.6c1.9-12.3,4.8-24.7,8.1-36.6c1-3.5,2.8-8.2,3.5-11.7l-2.4,0.4c-4.4,0.6-41.3,9.7-46.1,10.9
		c-23.7,6-44.2,11.6-67.4,18.3c-41,11.9-87.5,28-126.4,44.9c-6.7,2.9-13,5.9-19.7,8.9c-15.9,7-41.2,20.6-56,29.7l-13,8.2
		c-1.3,0.8-3.4,2-4.3,2.9c-1.9-2.8-3.7-5.6-5.6-8.3L409.5,420.5z"/>
	<path class="st1" d="M712.9,469.4c-0.3,0.2,0,0.1-0.7,0.1c-2.8-1.9-5.1-3.6-7.1-5.4c-3.2-2.6-5.5-5.7-8.6-9.9
		c-2.1-2.9-4.1-6.1-6.1-9.4c-1.3-2-4.7-8.5-5.9-9.7l-0.6-1.5l-0.3,0.4c-0.8,2.7,0.9,15,4.1,20.9c3.6,8,7.5,12.7,13.7,17.7
		c5.4,3.4,9.9,7.9,11.6,1.1C713.3,473,713.1,470.8,712.9,469.4"/>
	<path class="st1" d="M665.8,503.3c-29.1-17.7-49.8-62.4-50.4-79.1c-4,6.1-5.8,12.1-5.1,18.1c0.9,7.5,8.2,22,12.3,28.5
		c5.5,8.8,14.7,21.5,24.1,26.4C654.6,501.5,664.2,504,665.8,503.3"/>
	<path class="st1" d="M544.5,463c-0.4-0.8,2.5-7.3,3.2-9c2.3-6,7.6-24.8,8.4-30.8l0.3-1.1c-4.3,3.8-7.3,6.7-10.7,11.1
		c-2.6,3.4-7.9,17.1-10,25.3c-0.9,3.4-1.6,11.4,4,10.3C542.3,468.2,542.4,464.9,544.5,463"/>
	<path class="st1" d="M363.6,449.8c-0.2-0.5,5.2-7.8,5.6-10.3c0.1-1.4,0.2-2.7,0.4-4c0.2-3.1,0.3-6.1,0.4-9.3v-1.1
		c-3.7,6-7.5,11.9-11.2,17.8c-5,10.2,2.7,16.8,8.3,16c2.2-1-0.6-5.6,0.6-9.2"/>
	<path class="st1" d="M304.7,521.4c1.7,1.2,3.2,2.3,5.4,3.8c1.3,1,2.1,1.4,2.5,0.9c1.6-1.1,3.2-2.6,4.8-4l14.8-12.5
		C392,461,468.4,419.9,540.3,391.4c17.3-6.9,35.2-13.3,53.3-19.3c27.5-9.1,55.3-17.6,83.4-25.5c9.3-2.6,19.1-5.8,28.5-8
		c2.4,0.4,4.1-4.5,9.2-2.3c0-8-8.3-9.1-14.2-7.1c-164.6,50.5-232.2,75.5-350,153.8c-8.8,6.4-16.1,14.4-23.6,22
		c-1.6,1.6-12.9,13.8-14.2,14.4C310.2,520.6,307.3,520.9,304.7,521.4"/>
	<path class="st1" d="M736,320c-23,46.7-7.4,153.1,6.7,172.9c1.9,2.7,3.8,3.5,4.8,5.1c-2.3-0.6-4.8-1.6-7.6-1.6
		c-3.5-0.3-51.2,0-56.8,0c-6.8,0.2-13.9,6.9-14.9,9.6H759c-0.7-2.6-6.2-16.1-8-21.8c-2.5-7.7-4.7-14.9-6.7-23.1
		c-4-16.3-7-34.5-7.7-52.1c-0.7-19.5,0.2-37.9,3.1-56.6c1.9-12.3,4.8-24.7,8.1-36.6c1-3.5,2.8-8.2,3.5-11.7
		C746.6,304.9,738.3,315.4,736,320"/>
	<path class="st1" d="M464.2,505.9l203.2,0.1c-2.1-1.3-4.2-1.8-6.6-2.6c-3.4-1.1-8.2-2.9-13-4.5c-10.5-3.5-20.5-4.3-31.1-4.2
		c-41.2,0.4-78.6,0.2-118.7,1.2c-2.5,0.1-7.7,1.7-12.5,3.2C478.4,501.4,471.4,503.6,464.2,505.9"/>
	<path class="st1" d="M374.3,495.5c-1.2,0.8-1.2,0.4-1.2,1.7c2.3-0.7,5.5-2.5,7.8-3.5c36.6-16.9,93.5-38.7,133.2-40.4
		c4.8-0.7,5.8-8.7,3-8.4C487.8,444.7,428.4,462,374.3,495.5"/>
	<path class="st1" d="M412,428.3c-1.9-2.8,0.3-5.6-1.5-8.3c-3.8,8.3-4.4,16.4,1.6,17.7c7.3,1.9,2.9-5.4,4-9.4"/>
	<path class="st2" d="M551.1,473c21.2-7.3,35.5-22.1,56.3-31.8c6.5,23.2,19.1,40.6,34.7,55.1c-13-4.7-45.4-2.6-77.1-2.4
		c-30.2,0.2-59.8-1.5-71.9,1.8c19.5-12.8,45.9-53.3,25.7-52.6c-43.7,3.3-99.6,23.9-145.5,53.1c36.7-23.9,83.9-49.9,168.2-59.9
		c-1.6,3.9-3.1,7.8-4.7,11.6c-2.4,6-5.8,12.1-4.3,18.7C534.3,473.9,541.8,476.3,551.1,473"/>
	<path class="st1" d="M477.8,516.6c-15.3,1.5-22.4,6.4-29.9,14.5c-6.5,7-11.8,18.3-13.2,31.1c-1.1,9.8-0.3,19.5,4.1,28.1
		c2.4,4.6,6.5,8.9,10.5,11.7c2.3,1.6,4.4,2.8,7.2,4.1c5.3,2.5,12,3.6,18.7,3.3c14.3-0.7,23.6-7,29.9-14.4c11-12.7,17-34.4,12.2-51.6
		c-1.8-6.3-3.8-9.6-7.7-14.5C504.1,521.9,491.8,515.2,477.8,516.6 M477.2,537.4c6.6-1.6,11.4,2,13.1,6.6c2,5.3,0.7,12.3-0.3,18
		c-1.7,10.3-4.2,24.5-13.8,26.6c-6.8,1.5-11.6-1.5-13.3-6.5c-1.8-5.2-0.9-12.7,0.1-18.3C464.5,554.3,467.1,539.8,477.2,537.4"/>
	<path class="st1" d="M312.6,526.1c-1.2,0.2-0.1,0.6-2-1.1c-1.9-1.7-4.2-2.4-5.9-3.6l-0.5-0.3c-1.7-0.2-3.7-1.1-5.6-1.4
		c-8.3-1.5-39.6-0.9-48.9-0.9L235,607.1l7.4,0.1c-0.3,1.1-0.4,1-0.7,2c0.8-0.5,1.1-1.3,1.4-1.9l17-0.1c0.8-2.2,4.3-25.3,5.2-30.3
		c0.3-1.6,1.1-2.3,1.8-3.3h9.3l7.8,33.5l26.1,0.1l-9.5-36.9c3.6-2.5,13.8-4.3,17.4-17.2c2.3-8.1,1.4-17.3-3.5-24.2
		C313.7,527.7,313,527.5,312.6,526.1 M276.5,555.1l-7.6,0.1l3.1-17.8c4.4-0.7,13.4-0.1,17.2,1.3c2.1,1.7,3.3,2,4,5.4
		c0.5,2.9-0.1,5.5-1.7,7.2C287.9,555.1,282.7,555.3,276.5,555.1"/>
	<path class="st1" d="M0,607.2h25l5.7-33.6c12.3,0,10.3-1.2,11.4,3.8c1,4.2,6.3,28.1,7,29.7h25.8c0.1-1.7-3.8-15.5-4.5-18.2
		c-0.8-3.2-1.6-6.1-2.4-9.2c-0.7-2.7-2.1-6.9-2.4-9.5c1.1-0.8,4.3-2,5.7-2.8c5.6-3.2,9.8-8.1,11.6-14.5c3-10.6,0.1-20.8-5.7-26.6
		c-6.2-6.2-15.8-7.6-27.2-7.6c-11.7,0-23.3,0-34.9,0c-0.9,0.2-0.9,1.5-1,2.3c-3.1,20.8-7.2,42.8-10.6,63.7C2.5,592,0.8,600,0,607.2
		 M33.9,555.2l2.9-17.9c9.2,0,23.1-1.6,21.2,10.1C56.5,556.7,43.1,555.2,33.9,555.2"/>
	<path class="st1" d="M584.9,597.8l0.7,9.2l12.8,0.2l8.1-48.4h-38.9l-3.3,18.6h14.3c-0.3,3.5-4.4,8-6.8,9.3c-3.5,2-9.3,2.4-13,0.2
		c-7.1-4.2-6.5-16.3-4.7-25.7c1.6-8.7,4.5-18.8,10.7-22.2c3.9-2.2,9.5-2.3,13.4,0c3.6,2.1,4.9,5.1,6.3,10l24.1-3.9
		c-1.1-7.4-6.9-16.7-12.9-21.3c-13.4-10.4-38.9-9.5-51.9,2.7c-6.4,6-10.5,11.6-14.1,20.2c-4.9,11.9-6.8,30.4-0.7,42.9
		c6.3,13,17.7,19.5,32.5,19.3C579,608.7,583.2,598.8,584.9,597.8"/>
	<path class="st1" d="M675.5,579.1l-25.5,4.8c0.4,3,3.8,8.3,5.3,10.2c15.4,20.2,63.6,20.8,73.3-6.6c3.1-8.7,1.5-18.8-3.6-24.3
		c-9.5-10.1-19.6-10.3-31.3-15.5c-2-0.9-3.6-1.6-4.4-3.2c-4.5-9.5,17.6-12,21.7,0.4l22.7-5.6c-7.3-24.8-47-26.7-62.3-15.3
		c-13.9,10.4-14.8,31.6-1.8,40.8c8.5,6.1,28.9,10.3,31.4,14.1c2.8,4.2-1.2,7.9-4.7,8.8C687.1,590.2,677.4,586.2,675.5,579.1"/>
	<path class="st1" d="M88.3,607.2h64.8l3.6-20.2h-39.5l2.5-15.7h31.8l3.2-19.1L123,552c0.2-3.1,1.5-11.3,2.3-13.9h37.3
		c0.9-0.2,0.9-2.7,1.2-4.3l2.5-15h-62.9c-1,0.3-1.2,3.7-1.4,5.1C100.1,534.9,88,605.4,88.3,607.2"/>
	<path class="st1" d="M921.3,576c-3.4-0.4-22.2-3.2-23.5-2.8c-0.5,0.4-2,7.1-5.5,11.2c-2.2,2.6-7.7,4.6-12.7,2.8
		c-8.7-3.1-6.9-16.6-5.2-25.6c1.6-9,3.5-19.5,10-23.3c4.1-2.5,9.7-2,12.7,1.1c2.8,2.9,3.3,8.3,3.7,13.4c1.1,0.2,23.2-1.3,24.7-1.7
		c1-4.1-1.8-13-3.3-16.1c-6.9-14.7-23.1-20.6-40.3-17.5c-43.5,7.9-50.8,85.1-6.1,91.2c18.1,2.5,31.2-5.2,39.6-18.8
		C917.2,587,920.9,579.9,921.3,576"/>
	<path class="st1" d="M918,607.2h21.4c1-1.3,7.1-15.3,8.4-18c1.1-0.1,22.4-0.4,23.7,0.2l2.6,17.7h26l-13.7-88.3h-27.8
		c-0.9,2.7-18.3,39.8-20.3,44.1C935.9,567.9,918,605.8,918,607.2 M966.2,545.7c0.8,1.1,3.7,24.8,3.7,25.2l-15.2-0.1L966.2,545.7z"/>
	<path class="st1" d="M164.3,607.2h25.3l5.8-33.6l28.3-0.1l3.3-19.3h-28.3l2.5-15.6h36.6l3.4-19.9h-61.8c-0.9,0.3-1.1,3.6-1.4,5.2
		C176.1,535.1,164.1,605.1,164.3,607.2"/>
	<path class="st1" d="M363.9,607.2H424l3.5-21.2H394l11.1-67.2h-26.5c-1,1.6-10.7,62.6-11.3,66.3
		C366.8,588.3,363.6,605.4,363.9,607.2"/>
	<path class="st1" d="M740.4,538.7l18.7,0.1c0.2,1.7-4.8,29.8-5.5,33.9c-1.9,11.3-4.2,23-5.7,34.4H773c1.1-0.3,1.8-7.5,1.9-8.3
		l7.2-42.9c0.5-2.9,1-5.7,1.5-8.6c0.4-2.3,0.8-6.4,1.5-8.5l18.9-0.1c0.7-0.2,0.8-1.3,0.9-2c0.9-5.7,2.4-13.2,3-18.3h-64L740.4,538.7
		z"/>
	<path class="st1" d="M613,607.2h21.8c1,0,2.5,0.1,2.9-0.3c0.7-0.7,9.7-56.8,11.2-65.7c1.2-6.8,3.1-15.7,3.7-22.5h-24.8
		c-1,1.8-6.7,38.8-7.6,44.2c-1.3,7.4-2.5,14.7-3.7,22.1C615.9,588.3,612.7,605.5,613,607.2"/>
	<path class="st1" d="M802,607.2h23.6c1.9-0.1,1.5-1.1,2.2-5.8l11.4-68.5c0.7-4.4,1.9-9.8,2.3-14.2h-24.8
		C816.2,519.7,801.7,605.1,802,607.2"/>
	<polygon class="st1" points="323.1,607.1 348.1,607.2 363,518.8 337.8,518.8 	"/>
	<path class="st3" d="M981.5,683.2c-5.3,0-9.4-1.4-12.2-4.3c-2.8-2.8-4.2-7-4.2-12.4c0-7.2,1.7-13,5-17.3c3.4-4.3,7.9-6.5,13.5-6.5
		c5.4,0,9.4,1.4,12.2,4.2s4.2,7,4.2,12.4c0,7.2-1.7,13-5,17.3C991.7,681,987.2,683.2,981.5,683.2 M978.9,667.4
		c0,1.4,0.2,2.4,0.6,3.1c0.4,0.7,1,1,1.8,1c1.3,0,2.5-1.3,3.5-3.9c1-2.6,1.5-5.7,1.5-9.2c0-1.4-0.2-2.5-0.6-3.2c-0.4-0.7-1-1-1.8-1
		c-1.3,0-2.4,1.3-3.4,3.9C979.4,660.9,978.9,663.9,978.9,667.4 M959.9,638.6H954l4.5-11.6h9.7L959.9,638.6z M944.6,682l6-38.2h13.8
		l-6,38.2H944.6z M918,682l6.1-38.2h13.1l-0.9,5.4c1.5-2,3.3-3.5,5.1-4.5c1.9-1.1,4-1.7,6.2-1.9l-2.1,13.5h-0.3
		c-3.4,0-5.9,0.6-7.4,1.9c-1.6,1.3-2.6,3.6-3.1,6.9L932,682H918z M888.4,682l8.7-54.5h27l-2.1,13.2h-11.8l-1.2,7.9h10.2l-2,12.8
		h-10.3l-3.3,20.6H888.4z M832.4,682l6.1-38.2H851l-0.6,4c1.3-1.5,2.8-2.7,4.5-3.5s3.4-1.2,5.3-1.2c3,0,5.3,0.8,6.9,2.3
		c1.6,1.5,2.4,3.6,2.4,6.4c0,0.6,0,1.4-0.1,2.2s-0.2,1.9-0.4,3.1l-4,24.9h-13.8l3.6-22.6c0-0.1,0-0.2,0-0.4c0.1-0.5,0.1-0.8,0.1-0.9
		c0-0.7-0.2-1.3-0.6-1.7c-0.4-0.4-1-0.6-1.7-0.6s-1.4,0.3-1.9,1c-0.5,0.6-0.8,1.6-1,2.8l-3.6,22.4H832.4z M812.6,658.1h8.2
		c0.1-0.8,0.1-1.4,0.1-1.8c0-0.4,0-0.7,0-1c0-1.2-0.3-2.1-0.8-2.8c-0.5-0.6-1.3-1-2.4-1c-1.4,0-2.5,0.5-3.2,1.5
		C813.7,654.2,813.1,655.8,812.6,658.1 M830.6,668.7c-0.4,4.6-2,8.1-4.9,10.7c-2.9,2.6-6.8,3.9-11.6,3.9c-5.2,0-9.2-1.4-12-4.3
		c-2.7-2.9-4.1-7-4.1-12.5c0-7.2,1.7-12.9,5.2-17.2s8.1-6.5,13.9-6.5c4.7,0,8.4,1.2,11.2,3.7c2.7,2.5,4.1,5.9,4.1,10.2
		c0,1.1,0,2.3-0.1,3.6s-0.3,2.7-0.5,4.3h-20.2c-0.1,1.2-0.3,2.1-0.3,2.8c-0.1,0.7-0.1,1.3-0.1,1.7c0,1.3,0.3,2.3,0.9,2.9
		c0.6,0.6,1.5,1,2.7,1c1.3,0,2.3-0.4,3-1.1c0.7-0.7,1.1-1.8,1.2-3.2L830.6,668.7L830.6,668.7z M759.4,682l0.6-4.2
		c-1.7,1.8-3.3,3.2-4.9,4c-1.6,0.8-3.2,1.3-5,1.3c-3,0-5.4-1.2-7-3.5c-1.7-2.3-2.5-5.6-2.5-9.8c0-7.7,1.5-14.1,4.6-19.3
		s6.9-7.7,11.4-7.7c1.8,0,3.3,0.4,4.6,1.2s2.5,2.2,3.6,4l0.7-4.1h13.8l-6.1,38.2h-13.8V682z M760,654.7c-1.4,0-2.6,1.2-3.6,3.5
		s-1.5,5.1-1.5,8.4c0,1.5,0.2,2.6,0.7,3.4c0.4,0.8,1.1,1.2,1.9,1.2c1.4,0,2.6-1.2,3.6-3.6c1-2.4,1.5-5.2,1.5-8.5
		c0-1.4-0.2-2.5-0.6-3.3C761.4,655,760.8,654.7,760,654.7 M735.5,681.7c-1.3,0.4-2.5,0.8-3.8,1c-1.2,0.2-2.5,0.4-3.7,0.4
		c-4.2,0-7.4-1.3-9.7-3.8c-2.3-2.6-3.5-6.1-3.5-10.7c0-7.8,1.8-14,5.4-18.8c3.6-4.7,8.4-7.1,14.3-7.1c1.1,0,2.3,0.1,3.4,0.4
		c1.1,0.3,2.3,0.6,3.4,1.1l-1.9,11.7c-0.5-0.3-1-0.6-1.6-0.8c-0.5-0.2-1.1-0.2-1.7-0.2c-1.6,0-3,1-4.1,3s-1.6,4.5-1.6,7.4
		c0,1.7,0.3,3,0.9,3.8c0.6,0.8,1.5,1.2,2.8,1.2c0.5,0,1-0.1,1.6-0.2c0.5-0.1,1.1-0.4,1.6-0.6L735.5,681.7z M717.1,629.3
		c0,2.7-0.8,5-2.4,6.8c-1.6,1.8-3.7,2.7-6.2,2.7c-1.9,0-3.5-0.6-4.6-1.9c-1.2-1.2-1.7-2.9-1.7-4.9c0-2.7,0.8-5,2.5-6.8
		c1.6-1.8,3.7-2.7,6.2-2.7c2,0,3.5,0.6,4.6,1.9C716.5,625.5,717.1,627.2,717.1,629.3 M694.5,682l6-38.2h13.8l-6,38.2H694.5z
		 M673.2,682l4.1-26.1h-4.7l1.9-12.1h4.7l1.7-11.2h13.9l-1.8,11.2h5l-1.9,12.1h-5L687,682H673.2z M645.4,668.6
		c1.5,1.4,2.9,2.4,4.3,3.1c1.4,0.7,2.8,1,4,1c0.9,0,1.6-0.2,2.2-0.6c0.5-0.4,0.8-1,0.8-1.7c0-1.1-1.1-2.4-3.3-3.7
		c-0.4-0.3-0.8-0.5-1-0.6c-2.6-1.7-4.4-3.3-5.5-4.9c-1.1-1.6-1.6-3.4-1.6-5.5c0-3.8,1.3-6.9,4-9.3c2.7-2.4,6.2-3.6,10.5-3.6
		c1.9,0,3.8,0.2,5.7,0.7s3.6,1.2,5.3,2l-2.3,10.2c-1.3-1-2.5-1.8-3.7-2.3c-1.1-0.5-2.2-0.8-3.2-0.8c-0.9,0-1.7,0.2-2.2,0.6
		c-0.6,0.4-0.8,1-0.8,1.7c0,0.8,0.8,1.8,2.3,2.8c0.6,0.4,1,0.7,1.3,0.9c3.2,2.4,5.3,4.3,6.2,5.9c0.9,1.5,1.4,3.4,1.4,5.4
		c0,3.9-1.4,7.1-4.1,9.5c-2.7,2.4-6.4,3.6-10.9,3.6c-2.2,0-4.5-0.4-6.8-1.1c-2.3-0.7-4.4-1.7-6.4-3L645.4,668.6z M638.4,638.6h-5.9
		L637,627h9.7L638.4,638.6z M623,682l6-38.2h13.8l-6,38.2H623z M610.7,643.7h13.2l-5.8,36.5c-1,6.1-2.8,10.3-5.4,12.4
		c-2.7,2.1-7,3.2-13.1,3.2c-4.9,0-8.5-0.9-10.8-2.7s-3.4-4.6-3.4-8.5c0-0.1,0-0.4,0-0.7s0-0.5,0-0.7H597v0.8c0,0.8,0.3,1.4,0.8,1.9
		c0.6,0.5,1.3,0.7,2.1,0.7c1.2,0,2.1-0.4,2.9-1.2c0.7-0.8,1.2-2.1,1.5-3.8l1-6.3c-1.2,1.6-2.6,2.8-4.1,3.6s-3.1,1.2-4.9,1.2
		c-2.9,0-5.1-1.1-6.8-3.3c-1.6-2.2-2.4-5.3-2.4-9.2c0-7.2,1.4-13.1,4.3-17.9c2.9-4.7,6.5-7.1,10.7-7.1c1.7,0,3.1,0.4,4.4,1.1
		c1.2,0.7,2.4,2,3.5,3.7L610.7,643.7z M606.1,653.7c-1.3,0-2.5,1.1-3.5,3.4c-1,2.3-1.4,4.9-1.4,8.1c0,1.5,0.2,2.5,0.6,3.3
		c0.4,0.7,1,1,1.8,1c1.3,0,2.4-1.1,3.4-3.4c1-2.2,1.4-4.9,1.4-8.1c0-1.4-0.2-2.5-0.6-3.2C607.4,654,606.8,653.7,606.1,653.7
		 M567.3,683.2c-5.4,0-9.4-1.4-12.2-4.3c-2.8-2.8-4.2-7-4.2-12.4c0-7.2,1.7-13,5-17.3s7.9-6.5,13.5-6.5c5.4,0,9.4,1.4,12.2,4.2
		s4.2,7,4.2,12.4c0,7.2-1.7,13-5,17.3C577.5,681,573,683.2,567.3,683.2 M564.7,667.4c0,1.4,0.2,2.4,0.6,3.1c0.4,0.7,1,1,1.8,1
		c1.3,0,2.5-1.3,3.5-3.9c1-2.6,1.5-5.7,1.5-9.2c0-1.4-0.2-2.5-0.6-3.2c-0.4-0.7-1-1-1.8-1c-1.3,0-2.4,1.3-3.4,3.9
		C565.2,660.9,564.7,663.9,564.7,667.4 M519.6,682l8.7-54.5h15.3l-6.5,41h11.2l-2.1,13.5H519.6z"/>
</g>
</svg>
