<?xml version="1.0" encoding="utf-8"?>
<!-- Generator: Adobe Illustrator 28.0.0, SVG Export Plug-In . SVG Version: 6.00 Build 0)  -->
<svg version="1.1" id="Capa_1" xmlns="http://www.w3.org/2000/svg" xmlns:xlink="http://www.w3.org/1999/xlink" x="0px" y="0px"
	 viewBox="0 0 1000 1000" style="enable-background:new 0 0 1000 1000;" xml:space="preserve">
<style type="text/css">
	.st0{display:none;fill:#F4F4F4;}
	.st1{fill:#2D2E83;}
</style>
<rect y="0" class="st0" width="1000" height="1000"/>
<g>
	<g>
		<path class="st1" d="M200.6,554.7h6.5v63.8h-6.5V554.7z"/>
		<path class="st1" d="M252.6,607.9v-53.2h5.9v63.8h-7.2L224.8,564v54.5h-5.9v-63.8h7.8L252.6,607.9z"/>
		<path class="st1" d="M279,560.7h-13v-6h32.4v6h-12.9v57.9H279V560.7z"/>
		<path class="st1" d="M306,554.7h29.9v6h-23.5V583h23.5v6h-23.5v23.7h23.5v6H306V554.7z"/>
		<path class="st1" d="M347,554.7h6.5v57.9h20.4v6H347V554.7z"/>
		<path class="st1" d="M380.9,554.7h6.5v63.8h-6.5V554.7z"/>
		<path class="st1" d="M435,575.8c-0.1-3-1.1-7-2.8-9.8c-2.2-3.7-5.7-6.6-11.6-6.6c-10.4,0-17.4,9.3-17.4,27.2
			c0,19,7.5,27.2,17.4,27.2c5.3,0,9.8-2.2,12.5-7.5c2.3-4.7,2.8-9.4,2.8-14.5H418v-5.9h24.6c0,2.8,0,6.3-0.2,9.4
			c-0.4,10.9-6,24.3-21.7,24.3c-16.4,0-24.1-14-24.1-33c0-19.8,9.2-33,24.1-33c13.4,0,20.3,10.3,21,22.3H435V575.8z"/>
		<path class="st1" d="M452.1,554.7H482v6h-23.5V583H482v6h-23.5v23.7H482v6h-29.9V554.7z"/>
		<path class="st1" d="M526.7,607.9v-53.2h5.9v63.8h-7.2L498.9,564v54.5H493v-63.8h7.8L526.7,607.9z"/>
		<path class="st1" d="M583.8,597.7c0,11-6.5,21.9-19.9,21.9c-13.6,0-22.2-11.5-22.2-33c0-20.2,7.5-33,22.2-33
			c13.5,0,20,11.2,19.9,23.3h-6.4c-0.2-8.4-3.5-17.3-13.2-17.3c-11.1,0-15.9,10.8-15.9,27.6c0,18.1,6.7,26.4,15.9,26.4
			c9.8,0,12.9-8.2,13.2-15.9H583.8z"/>
		<path class="st1" d="M592,554.7h6.5v63.8H592V554.7z"/>
		<path class="st1" d="M610.8,618.5h-6.6l18.2-63.8h6.4l18.5,63.8h-6.6l-5.4-18.9h-19.2L610.8,618.5z M625.7,563.1l-7.9,30.7h15.7
			L625.7,563.1z"/>
		<path class="st1" d="M671.1,618.5h-6.6l18.2-63.8h6.4l18.5,63.8H701l-5.4-18.9h-19.2L671.1,618.5z M685.9,563.1l-7.9,30.7h15.7
			L685.9,563.1z"/>
		<path class="st1" d="M713.1,554.7h12.2c9.5,0,13.4,1.6,15.8,3.8c4.1,3.4,6.6,8.7,6.6,15.4c0,4-0.7,8.1-2.8,11.6
			c-2.5,4-6.3,6.6-11,7.3l12.8,25.7h-7.2l-14.2-29.7c0.9,0,1.5,0,2.2-0.1c4.4-0.1,7.5-1.1,10-3.5c2.7-2.6,3.7-6.5,3.7-10.8
			c0-4.1-1-8.9-4.8-11.7c-2.8-2.1-7.2-2.2-11.1-2.2h-5.5v57.9h-6.5v-63.7H713.1z"/>
		<path class="st1" d="M763.5,560.7h-12.9v-6H783v6h-12.9v57.9h-6.5L763.5,560.7L763.5,560.7z"/>
		<path class="st1" d="M790.2,554.7h6.5v63.8h-6.5V554.7z"/>
		<path class="st1" d="M808.2,554.7h27.5v6h-21V583h21v5.9h-21v29.8h-6.5V554.7z"/>
		<path class="st1" d="M844.8,554.7h6.5v63.8h-6.5V554.7z"/>
		<path class="st1" d="M902.4,597.7c0,11-6.5,21.9-19.9,21.9c-13.6,0-22.2-11.5-22.2-33c0-20.2,7.5-33,22.2-33
			c13.5,0,20,11.2,19.9,23.3H896c-0.2-8.4-3.5-17.3-13.2-17.3c-11.1,0-15.9,10.8-15.9,27.6c0,18.1,6.7,26.4,15.9,26.4
			c9.8,0,12.9-8.2,13.2-15.9H902.4z"/>
		<path class="st1" d="M910.7,554.7h6.5v63.8h-6.5V554.7z"/>
		<path class="st1" d="M929.5,618.5h-6.6l18.2-63.8h6.4l18.5,63.8h-6.6l-5.4-18.9h-19.2L929.5,618.5z M944.4,563.1l-7.9,30.7h15.7
			L944.4,563.1z"/>
		<path class="st1" d="M971.8,554.7h6.5v57.9h20.4v6h-26.8v-63.9H971.8z"/>
	</g>
	<path class="st1" d="M211,395.3c0,8.3-6.7,15-15,15s-15-6.7-15-15s6.7-15,15-15S211,387,211,395.3"/>
	<path class="st1" d="M153.7,478.6c0,8.3-6.7,15-15,15s-15-6.7-15-15s6.7-15,15-15C147,463.7,153.7,470.4,153.7,478.6"/>
	<path class="st1" d="M84.3,491.7c0,8.3-6.7,15-15,15s-15-6.7-15-15s6.7-15,15-15S84.3,483.4,84.3,491.7"/>
	<path class="st1" d="M29.9,576.9c0,8.3-6.7,15-15,15s-15-6.7-15-15s6.7-15,15-15S29.9,568.7,29.9,576.9"/>
	<polygon class="st1" points="18.5,579 11.4,574.9 64.9,482 134.6,481.2 186.4,400.6 193.3,405.1 139.1,489.4 69.7,490.2 	"/>
	<path class="st1" d="M246.2,501.8l-14.3,33.9h-29.6l66.3-146.6h35.2l1.7,146.6h-29.4l0.5-33.9L246.2,501.8L246.2,501.8z
		 M277.5,481.8l0.7-32.4c0.2-8.9,1.2-24.4,1.5-35.5h-0.5c-3.9,11.1-9.2,27.2-12.6,35.2l-13.1,32.6L277.5,481.8L277.5,481.8z"/>
	<path class="st1" d="M353.1,391.1c8.3-1.5,19.4-2.6,31.3-2.6c19.7,0,32.6,6.1,40.6,15c9,10.2,11.9,23.5,11.9,38.1
		c0,37.2-18.5,68.7-35.2,80.9c-13.4,10-27.9,13.9-49.3,13.9c-9.7,0-21.9-1.1-29.4-2.8L353.1,391.1z M356.5,512.7
		c2.2,0.2,5.1,0.7,8,0.7c10,0,21.4-7.2,28.4-20.2c7.5-13.9,12.9-32.2,12.9-54.2c0-14.1-4.9-28.5-20.4-28.5c-2.9,0-5.3,0-6.8,0.4
		L356.5,512.7z"/>
	<polygon class="st1" points="501,389.1 469.7,535.7 439.3,535.7 470.7,389.1 	"/>
	<path class="st1" d="M498.8,535.7l31.3-146.6h27.7l12.4,58.3c4.4,19.4,7,33.3,8.3,45.5h0.5c1.9-16.1,4.9-41.3,10-65.7l8.3-38.1h26
		L592,535.7h-25.8L553,481.1c-5.1-20.4-6.6-30.5-8.5-48.7H544c-1.9,14.8-5.6,39.2-10.9,64.4l-8.3,38.9H498.8z"/>
	<polygon class="st1" points="661.6,414.8 632.9,414.8 638.5,389.1 725.7,389.1 720.1,414.8 691.7,414.8 666,535.7 635.6,535.7 	"/>
	<polygon class="st1" points="791.3,470.9 755.1,470.9 746.1,511.6 787.7,511.6 782.3,535.7 710.9,535.7 742.3,389.1 810.8,389.1 
		805.4,413 767.8,413 759.7,448 796.2,448 	"/>
	<polygon class="st1" points="836,389.1 866.6,389.1 840.2,512 880.2,512 875.1,535.7 804.9,535.7 	"/>
	<path class="st1" d="M1000,434.1c0,30.9-11.4,70-33,89.4c-10.2,9.4-22.1,13.9-36.2,13.9c-35.7,0-40.6-32-40.6-47.9
		c0-29.8,11.4-69,34-88.8c9.7-8.5,21.6-13.5,36-13.5C995.6,387.4,1000,416.5,1000,434.1 M945.1,415.9
		c-15.3,13.7-23.6,54.6-23.6,76.4c0,8.3,1,21.3,13.8,21.3c3.4,0,7-1.5,10-4.4c16.3-14.4,23.3-61.6,23.3-77.4
		c0-9.1-1.5-20.4-12.6-20.4C952.1,411.3,948.5,412.8,945.1,415.9"/>
</g>
</svg>
