<?xml version="1.0" encoding="utf-8"?>
<!-- Generator: Adobe Illustrator 27.1.1, SVG Export Plug-In . SVG Version: 6.00 Build 0)  -->
<svg version="1.1" id="Capa_1" xmlns="http://www.w3.org/2000/svg" xmlns:xlink="http://www.w3.org/1999/xlink" x="0px" y="0px"
	 viewBox="0 0 1000 1000" style="enable-background:new 0 0 1000 1000;" xml:space="preserve">
<style type="text/css">
	.st0{fill:#F4F4F4;}
	.st1{fill-rule:evenodd;clip-rule:evenodd;fill:#00348C;}
	.st2{fill:#00348C;}
	.st3{fill:#FFFFFF;}
</style>
<rect class="st0" width="1000" height="1000"/>
<g>
	<path class="st1" d="M642.7,659.6L625.3,682l-23.1-26.1l-12.1,27.2l-31.9-15.2l-121.3,9l-0.1-10.7l-36.3,3.2l-0.2,3.1l-84.8,1.3
		l-8.6-132.2c-0.6,2.8-1.3,5.6-2.2,8.4c-2.9,9.1-7.5,17.6-13.7,25.3c-6.1,7.6-13.6,13.9-23.2,19.4c-13.1,7.5-24.8,12-35.7,13.7
		c-3.6,0.5-7.2,0.8-10.6,0.8c-8,0-15.4-1.5-22.2-4.5c-2.5-1.1-4.8-2.4-7.1-3.8l3.1,10.1L98,676.5L66.1,558.9L39.5,576L11.9,473.4
		L164,378.2l9.7,53.9l56-10.6l50.4-28.6l7.6,29.9c3.2,12.8,6.5,25.6,9.5,38.4c1.8,7.5,3.6,14.9,5.3,22.4l0.4,1.7
		c0.7,3.1,1.4,6.1,2.1,9.2l0.5,2.6c1.8,7.8,2.8,16.1,3,24.2l22.9-1.6l-17.4-172.7l170.1-39.3l-1.6,53.1l62.6-9l-0.4,11.6l112.4-2.4
		l-2.4,15.2c5.6-2.4,11.6-4,18-4.9c4-0.5,8.1-0.8,12.3-0.8c4.8,0,9.7,0.4,14.7,1.1c8.2,1.2,16.4,3.2,24.2,5.9
		c8.1,2.8,15.7,6.4,22.7,10.7l5.4,3.3l113.6,25.8l-20.6,68.1l75.8-62.7l64.9,230.1l-104.3-13.4l-7.9-32.6l-6.9-3.3l-16.5,24.6
		l-43.6-40l-0.2,1.2l-92.6-17.5l3.9-18.6c-5.8,2.6-12.2,4.5-19.1,5.6l40.4,81.9l-82.4,49.5L642.7,659.6z M529.8,582.3l6.9-1.1
		l17.5-37.6l-22,0L529.8,582.3z M434.5,516.2l15.8-0.6l-0.1-26.6l-17,3.7L434.5,516.2z M821.7,505l4.4-3.7l-3.6-0.7L821.7,505z"/>
	<path class="st2" d="M473.6,320.9l-1.6,52l62.5-9l-0.4,10.1l111-2.4l-4.1,26.2c3.4-3.5,7.1-6.4,11.1-8.7c7-4.1,14.5-6.5,22.1-7.5
		c3.6-0.5,7.3-0.7,10.9-0.7c4.4,0,8.8,0.3,13.2,1c7.5,1.1,15,2.9,22.3,5.4c7.1,2.4,14,5.6,20.6,9.7l6.8,4.2L852.7,425l-20.3,67.1
		l-18.3-3.6l-7.6,42.3l108.8-90l56.4,199.9l-81.8-10.5l-7.4-30.5l-19.3-9.2l-14.8,22.1l-48.6-44.5l-1.7,9.4l-72.1-13.6l7.5-35.8
		c-4.7,6.3-10.3,11-16.6,14.3c-7.4,4-15.4,6-23.4,6.9c-3.4,0.4-6.7,0.5-10.1,0.5c-0.3,0-0.6,0-0.9,0l43,87.1l-64.4,38.7L645,639.9
		l-20.2,26l-25.4-28.8L585,669.3l-24.9-11.9l-113.1,8.4l-0.2-12.7l-0.3,1.8l-56,5l-0.1,2.4l-65.4,1l-8.6-132l26.3-1.9l-17.5-174.2
		L473.6,320.9 M621.3,455.9l6.8-0.3c0-0.1-0.1-0.2-0.1-0.3c-1.1-3.2-1.9-6.4-2.3-9.8l-2.8,0L621.3,455.9 M743.5,480.6l1.4-6.7
		l-3.5-0.7c0.1,0.2,0.2,0.4,0.2,0.6C742.4,476.1,743,478.3,743.5,480.6 M424.8,526.8l35.9-1.3l-0.1-49.4l-37.9,8.4L424.8,526.8
		 M518.7,594.4l25-3.8l26.7-57.3l-47.6,0.1l0.1-3.8l0,0L518.7,594.4 M625.8,556.4l19-14.4c-1.2-0.5-2.3-1-3.5-1.5
		c-4.1-1.8-8.1-3.9-12.1-6.1c-0.7-0.4-1.3-0.8-2-1.2l-26.4,0.1L625.8,556.4 M156.6,395l8.8,49.2l61.1-11.5l0.4,2.4l46.7-26.5
		l4.3,16.8c3.2,12.7,6.4,25.5,9.5,38.3c1.8,7.4,3.6,14.9,5.3,22.3c0.8,3.6,1.7,7.1,2.4,10.7c0.2,0.8,0.4,1.7,0.5,2.5
		c1.7,7.4,2.7,15,2.8,22.7c0.2,8.6-1,17-3.5,24.9c-2.7,8.4-6.9,15.8-11.9,22c-5.8,7.3-13,12.7-20.3,16.9
		c-10.1,5.8-21.1,10.7-32.1,12.4c-3,0.4-6,0.7-9.1,0.7c-6.1,0-12.2-1-18-3.6c-8.2-3.6-15.2-9.7-20.6-18.5
		c-5.1-8.3-8.5-17.9-10.5-28.3c-0.1-0.5-0.2-0.9-0.3-1.3c-0.5-2.4-0.9-4.9-1.3-7.3c-0.8-4.6-1.7-9.3-2.6-13.9
		c-1.6-8.2-3.1-16.5-4.5-24.8c-0.9-5.3-1.9-10.6-2.8-15.9l-11.9,7.9l34.3,113.7l-79.2,53.2L72.3,542.6l-26.5,17l-21.9-81.5
		L156.6,395 M495,294.8l-26,6l-148.2,34.3l-17.7,4.1l1.8,18l15.4,153.1l-2,0.1c-0.6-5.2-1.4-10.5-2.6-15.7l-0.3-1.5l-0.2-0.8
		c-0.7-3.1-1.4-6.3-2.1-9.4l-0.4-1.7c-1.7-7.5-3.5-15-5.3-22.5c-3.2-13.5-6.6-27-9.6-38.6l-4.3-16.8l-6.6-26.2l-23.5,13.3
		l-37.2,21.1l-3.5,0.7l-40.7,7.7l-5.2-28.7l-5.4-30l-25.8,16.2L12.9,460.7L0,468.8l4,14.7L25.9,565l7.3,27.2L56.9,577l2.9-1.9
		l24.5,90.2l7.5,27.7l23.8-16l79.2-53.2l9.7-6.5c5.4,1.4,11.2,2.1,17.1,2.1c3.9,0,8-0.3,12.1-0.9c12.3-1.8,25.1-6.7,39.3-14.9
		c10.5-6.1,19.3-13.4,26-21.8c0.1-0.1,0.1-0.1,0.1-0.2l5.4,83.1l1.3,19.5l19.6-0.3l65.4-1l19.1-0.3l0.2-3.8l16.4-1.5l0.1,10.6
		l21.9-1.6l107.6-8l19.9,9.5l19.1,9.1l8.6-19.3l1.3-2.9l4.2,4.8l16.5,18.6l14.5-18.7l2.2,4.8l9.6,21l19.8-11.9l64.4-38.7l16.2-9.8
		l-8.4-17l-21.5-43.6l71.8,13.6l9.2,1.7l30.9,28.3l17.7,16.2l13.3-19.9l1.3-1.9l3.1,12.9l3.4,13.7l14,1.8l81.8,10.5l30.9,4l-8.5-30
		l-56.4-199.9l-8.6-30.4L902.2,425l-37.3,30.8l7.5-24.9l6.4-21.2l-21.5-4.9l-101.2-23l-3.9-2.4c-7.6-4.7-15.9-8.6-24.7-11.6
		c-8.4-2.9-17.2-5-26-6.3c-5.5-0.8-10.9-1.2-16.2-1.2c-4.6,0-9.3,0.3-13.7,0.9c-1.3,0.2-2.6,0.4-3.9,0.6l1.8-11.3l-24.6,0.5
		l-89.2,1.9l0.5-13l-24.4,3.5l-38.3,5.5l0.8-27.5L495,294.8z"/>
	<polygon class="st3" points="157.2,469.3 133.3,485.2 167.6,598.9 111,637 79.3,520 52.8,537 39.2,486.6 148.1,418.4 	"/>
	<path class="st3" d="M266.1,430.5c4,15.8,7.1,28.4,9.5,38.1c2.3,9.6,4.1,17,5.3,22.2s2,8.6,2.3,10.3c0.4,1.7,0.5,2.5,0.5,2.5
		c1.4,6.3,2.2,12.6,2.4,18.9c0.2,6.2-0.7,12.3-2.5,18.1c-1.8,5.8-4.8,11.3-9,16.5c-4.2,5.2-9.7,9.8-16.7,13.8
		c-10.7,6.2-20.2,9.9-28.6,11.1c-8.4,1.3-15.6,0.5-21.8-2.1c-6.2-2.7-11.1-7.1-15-13.3c-3.8-6.2-6.5-13.6-8.1-22.1
		c0-0.1-0.1-0.6-0.3-1.6c-0.2-1-0.6-3.3-1.2-6.6c-0.6-3.4-1.5-8.1-2.6-14.2c-1.2-6.1-2.6-14.3-4.5-24.5c-1.8-10.3-4-22.7-6.6-37.4
		l47.5-9l11.3,75.2c0.1,2.9,0.7,5.3,1.6,7.2c0.9,1.9,1.7,3.2,2.5,4c0.7,0.7,1.2,1.2,1.3,1.2c1.3,0.8,2.7,1,4.1,0.7
		c1.4-0.3,2.7-2.1,3.9-5.5c0.1-0.1,0.3-0.9,0.5-2.3c0.3-1.4,0.4-3.7,0.3-6.9c-0.1-3.2-0.7-7-1.9-11.3l-16-59L266.1,430.5z"/>
	<polygon class="st3" points="339.2,368.6 460.7,340.5 458.9,397.7 403.4,408.7 402.5,426 448.7,415.8 455.9,460.6 409.5,470.9 
		412.4,526.5 356.1,536.8 	"/>
	<polygon class="st3" points="521.5,382.3 516.7,514 473,520.1 472.7,389.3 	"/>
	<polygon class="st3" points="538,390.4 630,388.4 623.6,429.3 581.8,428.9 581.4,436.7 611.8,436.1 607.4,464.4 579.6,465.1 
		579,474 626.7,472.1 624.6,516.9 535.4,517 	"/>
	<path class="st3" d="M705.4,453.2c3.2,2.2,6.5,4.5,9.9,7.1c3.4,2.6,6.3,5.6,8.9,8.9c2.6,3.3,4.7,7.2,6.2,11.4
		c1.5,4.3,2.1,9.1,1.7,14.5c-0.5,7.7-2.5,14.2-6,19.5c-3.5,5.3-8.1,9.5-13.7,12.5c-5.7,3-12.2,4.9-19.7,5.8
		c-7.5,0.8-15.4,0.6-23.8-0.7c-3.8-0.6-7.8-1.6-11.8-2.8c-4-1.3-7.9-2.7-11.8-4.5c-3.9-1.7-7.6-3.6-11.2-5.7
		c-3.6-2.1-7-4.1-10.1-6.3l16.3-32.1c1.6,1,3.5,2.2,5.7,3.6c2.2,1.5,4.6,2.9,7.1,4.2c2.5,1.4,5.2,2.6,8,3.8c2.8,1.2,5.6,2,8.3,2.4
		c4.1,0.6,7.6,0.5,10.5-0.1c2.9-0.6,4.5-2.4,4.7-5.2c0.1-1.8-0.7-3.4-2.4-4.7c-1.7-1.3-3.8-2.7-6.2-4.1c-1.6-0.7-3.7-1.8-6.3-3
		c-2.6-1.3-5.4-2.8-8.3-4.7c-2.9-1.9-5.9-4-8.8-6.4c-2.9-2.4-5.5-5.2-7.8-8.2c-2.3-3.1-4.1-6.5-5.5-10.2c-1.3-3.7-1.8-7.8-1.4-12.2
		c0.6-7.6,2.6-14,6.1-19.3c3.5-5.3,7.9-9.5,13.3-12.7c5.4-3.2,11.5-5.3,18.3-6.2c6.8-0.9,14-0.9,21.5,0.2c7,1,13.8,2.7,20.5,5
		c6.7,2.3,12.9,5.2,18.6,8.7l-13.8,35.3c-4.2-2.7-8-5-11.5-6.9c-3.5-1.9-7.6-3.7-12.4-5.2c-1.4-0.5-3.3-1-5.7-1.4
		c-2.3-0.4-4.6-0.6-6.9-0.6c-2.3,0.1-4.3,0.5-6.1,1.2c-1.8,0.8-2.8,2.1-3.1,4c-0.1,0.9,0.2,1.6,1,2.2c0.8,0.6,1.7,1.2,2.8,1.7
		c1.1,0.5,2.3,0.9,3.5,1.3c1.2,0.4,2.2,0.7,2.9,1c3.1,1.3,5.6,2.3,7.3,3c1.8,0.8,2.6,1.2,2.6,1.2C699.8,450,702.7,451.5,705.4,453.2
		"/>
	<polygon class="st3" points="824.6,474 804.8,470.1 788.8,559.2 741.7,550.4 760.4,460.8 738.7,456.1 746.8,417.5 835.6,437.7 	"/>
	<path class="st3" d="M909,465.3L953.2,622l-54-6.9l-6.8-27.9l-32.9-15.6l-13,19.5l-42.4-38.8L909,465.3z M874.6,551.5l19.4,6.3
		l-1.7-24.6L874.6,551.5z"/>
	<polygon class="st3" points="330,546.7 380,543.1 374,589.4 399.3,588 401.4,544 450.2,542.3 436.3,639.5 396.6,643 398.8,615.3 
		380.8,617.2 379.1,646.2 336.5,646.8 	"/>
	<polygon class="st3" points="583.2,536.8 625.1,575.8 665.5,545 707.5,629.9 666.2,654.7 647.5,613.8 624.3,643.8 596.2,612 
		579.6,649.3 539.7,630.3 	"/>
	<polygon class="st3" points="458,547.3 509.6,542 505.1,612.9 547.1,606.5 549.1,641.9 459.2,648.6 	"/>
</g>
</svg>
