<?xml version="1.0" encoding="utf-8"?>
<!-- Generator: Adobe Illustrator 28.0.0, SVG Export Plug-In . SVG Version: 6.00 Build 0)  -->
<svg version="1.1" id="Capa_1" xmlns="http://www.w3.org/2000/svg" xmlns:xlink="http://www.w3.org/1999/xlink" x="0px" y="0px"
	 viewBox="0 0 1000 1000" style="enable-background:new 0 0 1000 1000;" xml:space="preserve">
<style type="text/css">
	.st0{fill:#253F9E;}
	.st1{fill:#E7831F;}
	.st2{fill:#FFFFFF;}
</style>
<g>
	<g>
		<path class="st0" d="M722,284.5h-53.8c-43.4,0-78.5,35.1-78.5,78.5v78.5H676v-84.1c0-8.5,6.9-15.3,15.3-15.3
			c8.5,0,15.3,6.9,15.3,15.3v309.2c0,8.5-6.9,15.3-15.3,15.3c-8.5,0-15.3-6.9-15.3-15.3V558.4h-86.4v97c0,43.4,35.1,78.5,78.5,78.5
			H722c43.4,0,78.5-35.1,78.5-78.5V362.9C800.5,319.7,765.3,284.5,722,284.5z"/>
	</g>
	<g>
		<path class="st0" d="M131.4,284.5h53.8c43.4,0,78.5,35.1,78.5,78.5v78.5h-86.4v-84.1c0-8.5-6.9-15.3-15.3-15.3
			c-8.4,0-15.3,6.9-15.3,15.3v309.2c0,8.5,6.9,15.3,15.3,15.3c8.4,0,15.3-6.9,15.3-15.3V558.4h86.4v97c0,43.4-35.1,78.5-78.5,78.5
			h-53.8c-43.4,0-78.5-35.1-78.5-78.4V363C52.9,319.7,88,284.5,131.4,284.5z"/>
	</g>
	<g>
		
			<ellipse transform="matrix(0.9732 -0.2298 0.2298 0.9732 -96.2833 154.0193)" class="st1" cx="613.1" cy="490.4" rx="13.8" ry="13.8"/>
		<path class="st1" d="M599.3,507.4c-0.6,0.1-1.3,0.2-2,0.2c-7.6,0-13.8-6.2-13.8-13.8c0-4.8,2.5-9,6.3-11.5l-0.2-0.5l-83.3,12
			L415,191.6L305.5,722.8l66.9,11.2l22.5-192.2l64.7-10.5l36.2,196.1l78-10.2l-58.8-194.8l84.8-13.7L599.3,507.4z M398.7,509.3
			l22-187.6l33.3,179.6L398.7,509.3z"/>
	</g>
	<g>
		<path class="st2" d="M256.1,743.4c2.7,0,5.1,5.1,5.3,7.8c0.3,4.7-2.5,12.5-8.3,22.3c13.6-20.4,24.4-28.2,26.6-28.3l0,0
			c0.9,0,4.1,2.1,4.3,5.6c0.2,2.8-3.1,11.1-10.7,24.5c16.2-20.1,26.8-29.7,29.4-29.8c0,0,0,0,0.1,0c1.8,0,4.2,4.7,4.3,6.7
			c0.1,2.3-3,5.3-7.8,12.2c-8.5,12.3-12.4,21.6-12.1,27.6c0.1,2.1,0.5,3,2.1,3c0.1,0,0.2,0,0.3,0c1.9-0.1,7.5-3.2,14-10.2l0.2,3.4
			c-8,10.3-16.4,14.8-19.7,15c-0.1,0-0.2,0-0.3,0c-3.6,0-5.9-3.8-6.3-10.4c-0.4-6,4.6-17.4,16.1-31.8c-9.4,8.5-17.1,18.3-24.5,28.7
			c-5.6,7.8-8.6,12-10.1,12.1l0,0c-0.9,0-2.7-3.8-3-7.5c-0.4-7,11.2-17.7,19.3-39.6c-7.8,6.2-15,15.9-23,29.1
			c-6.3,10.7-8.9,16.5-11.4,16.7c0,0,0,0-0.1,0c-1.5,0-3.8-3.6-4-7.4c-0.2-3.4,3.6-7.6,8.5-16c7.1-12.3,10.1-20,9.9-22.5
			c0-0.4-0.6-0.9-1.3-0.9h-0.1c-0.9,0.1-3.9,1.8-9.1,5.2c-4.6,3-7.3,5.1-8.9,5.2c-0.1,0-0.1,0-0.2,0c-1.1,0-1.4-0.5-1.5-1.6
			c-0.2-3.1,0.8-8.1,2.4-10.7c2.1-3.1,5.5-5.5,6-5.5l0,0c0.3,0,0.4,0.4,0.4,0.4c0,0.2-0.3,0.8-1,1.6l-2.6,2.9
			c8.9-5.3,14.9-7.6,16.7-7.7C256,743.4,256,743.4,256.1,743.4 M256.1,738.1c-0.2,0-0.3,0-0.4,0c-2.3,0.1-6.3,1.6-10.4,3.7
			c-0.9-0.5-1.9-0.8-2.9-0.8h-0.2h-0.2c-3.3,0.2-8.1,4.7-10.2,7.9l0,0l0,0c-2.4,3.8-3.4,10-3.2,13.8c0.2,3.8,3,6.6,6.8,6.6
			c0.2,0,0.3,0,0.4,0c2.7-0.2,5.1-1.7,8.6-4.1c0.4-0.3,1-0.6,1.5-1c-1.3,2.8-3.1,6.1-5.5,10.2c-1.5,2.6-2.9,4.7-4.1,6.6
			c-3.1,4.8-5.4,8.3-5.1,12.3c0.3,5.2,3.7,12.4,9.3,12.4c0.1,0,0.3,0,0.4,0c4-0.3,6.3-3.2,9.7-9c0.7,4.1,2.8,10.4,8,10.4h0.2h0.2
			c3.8-0.2,6.1-3.1,13.1-12.8c1.2,13.1,9,14.2,11.4,14.2c0.2,0,0.4,0,0.6,0c5.2-0.3,14.8-5.7,23.6-17.1l1.3-1.5l-0.1-2l-0.2-3.4
			l-0.7-12.5l-8.5,9.2c-2.4,2.6-4.6,4.6-6.3,5.9c1.2-4,3.9-10.3,10.5-19.8c1.4-2.1,2.7-3.8,3.8-5.3c3-4,5-6.6,4.8-10.2
			c-0.2-3.5-3.7-11.7-9.6-11.7c-0.1,0-0.3,0-0.4,0c-2.1,0.1-4.8,0.9-13,8.9c-0.1,0.1-0.1,0.1-0.2,0.2c-0.9-5.4-5.6-9.5-9.5-9.5h-0.2
			h-0.2c-3,0.2-7.7,3.4-13.1,8.8C265.2,744,261.7,738.1,256.1,738.1L256.1,738.1z"/>
		<path class="st2" d="M329.9,762.5c1.8,0,3.8,2.5,3.9,3.9c0,0.6-0.4,0.9-1.3,1.5l-1.3,0.9l1.5,2.8c0.3,0.5,0.5,1.1,0.6,1.5
			c0.1,2.2-5.7,8.1-5.5,12.5c0.1,1.2,0.8,1.8,2.1,1.8c0.1,0,0.2,0,0.3,0c2.6-0.2,5.9-3.1,11-8.4l0.3,3.4
			c-7.7,9.3-12.3,14.7-16.1,14.8c-0.1,0-0.2,0-0.3,0c-2.2,0-4.2-1.8-4.4-4.6c-0.1-2,0.6-4.4,1.5-8c-6.5,7.7-10.9,11.6-13.1,11.7l0,0
			c-1.8,0-6.7-6-7-11.1c-0.2-3.2,2.3-7.6,7.2-12.2c3.6-3.3,7.6-5.9,12.4-8C326.2,763.1,329.4,762.5,329.9,762.5
			C329.9,762.5,329.9,762.5,329.9,762.5 M327.8,770.7c-13,6.3-19.8,10.3-19.4,16.5c0.1,1.3,0.7,2.1,1.4,2.1c0,0,0,0,0.1,0
			C311.7,789.1,319.1,783.1,327.8,770.7 M329.9,757.2c-0.2,0-0.3,0-0.4,0c-1.7,0.1-5.5,1.1-10.1,3.2c-5.3,2.3-9.8,5.3-13.9,8.9l0,0
			l0,0c-4.2,4-9.1,10-8.8,16.3c0.3,4.4,2.5,8.2,3.8,10.2c2.7,3.9,5.5,5.9,8.4,5.9h0.2h0.2c2.1-0.1,4.2-1,7.6-3.8
			c1.7,2.8,4.7,4.7,8.1,4.7c0.2,0,0.4,0,0.5,0c6.3-0.4,11.4-6.5,19.9-16.8l1.3-1.6l-0.2-2.1l-0.3-3.4l-1-11.7l-7,7.3
			c0.1-0.4,0.1-0.9,0.1-1.3c-0.1-1-0.4-1.9-0.6-2.6c0.8-1,1.4-2.3,1.3-4.1C338.9,762.1,334.7,757.2,329.9,757.2L329.9,757.2z
			 M329.6,782.2L329.6,782.2L329.6,782.2L329.6,782.2z"/>
		<path class="st2" d="M348.8,763.6c0.5,0,1,0.4,1,1.1c0,0.3-0.2,1.1-0.8,2.3l6.6-0.8c1.1-0.2,2-0.3,2.8-0.4c0.1,0,0.3,0,0.4,0
			c2.4,0,3.8,1.4,4,5.1c0.1,1.4-1.8,2.6-3.7,4.8c-3.3,3.8-4.7,7.9-4.7,9.4c0.1,1.5,0.8,2.3,2.1,2.3c0.1,0,0.1,0,0.2,0
			c1.9-0.1,5.5-3.6,11.8-10l0.2,3.5c-7.7,9.4-12.9,14.4-16.3,14.6c-0.1,0-0.2,0-0.3,0c-2.5,0-5-2.2-5.2-5.9
			c-0.3-4.9,2.3-9.4,7.3-15.1c-2.8,0.8-5.4,1.5-8,2c-3.8,4.5-6.5,7.9-8.7,9.7l-1.3-2.6l5.1-5.5c-1.3-0.7-2.1-1.7-2.1-2.7
			C339,770.8,345.7,763.8,348.8,763.6L348.8,763.6 M348.8,758.3L348.8,758.3L348.8,758.3c-0.1,0-0.3,0-0.4,0
			c-4.1,0.3-7.8,3.9-9.7,6.1c-1.9,2.2-5,6.6-4.7,11.3c0,0.7,0.2,1.4,0.4,2.1l-2.1,2.2l-2.4,2.6l1.5,3.2l1.3,2.6l3,6.3l5.3-4.6
			c0.2-0.2,0.4-0.4,0.6-0.5c0,0.1,0,0.2,0,0.3c0.4,6.3,4.8,10.9,10.5,10.9c0.2,0,0.4,0,0.5,0c5-0.3,10.3-4.7,20-16.5l1.3-1.6
			l-0.1-2.1l-0.2-3.5l-0.6-12l-5,5.1c-0.5-7.2-5.1-9.8-9.3-9.8c-0.2,0-0.4,0-0.6,0c-0.9,0.1-1.8,0.2-2.8,0.3l-0.4,0.1l-1,0.1
			C352.8,759.4,350.9,758.3,348.8,758.3L348.8,758.3z"/>
		<path class="st2" d="M395,738.4c1,0,1.7,0.8,1.8,1.9c0.2,3-8.4,16.7-26.7,39.3l-0.3,2.9c11.3-13.8,19.5-20.2,22.5-20.4
			c0.1,0,0.1,0,0.2,0c1.9,0,3.8,2.1,3.9,4.8c0.3,5.6-4.7,9.5-13.5,16.7c1.8,2.3,3.1,3.5,4.2,3.5h0.1c2.1-0.1,7-3.9,14-11.7l0.3,3.5
			c-7.6,9.7-13.1,14.8-16.6,15c-0.1,0-0.3,0-0.4,0c-3.6,0-6.3-3.2-9.7-9.7c-4.1,5.5-5.7,8.8-7.2,8.9h-0.1c-1.4,0-2.1-2.7-2.5-8.4
			c-0.4-8.4,3.4-16.4,11.7-27.7C385.9,744.5,393.3,738.4,395,738.4L395,738.4 M380.9,780.8c6-5.4,9-8.8,8.9-10.6
			c0-0.3-0.2-0.4-0.4-0.4c0,0,0,0-0.1,0c-1.2,0.1-6,3.3-12,10.6L380.9,780.8 M395,733.1c-0.1,0-0.3,0-0.4,0
			c-1.2,0.1-3.5,0.2-9.7,6.2c-2.8,2.7-7.2,7.3-12.6,14.7c-8,11.1-13.2,20.6-12.7,31.1c0.2,3.5,0.5,5.8,1,7.6
			c1.5,5.3,5.3,5.9,6.8,5.9c0.1,0,0.3,0,0.4,0c3-0.2,4.7-2,6.6-4.7c2.6,3.1,5.7,5.5,10,5.5c0.2,0,0.4,0,0.6,0
			c5.5-0.3,11.2-5.1,20.6-17.1l1.3-1.6l-0.2-2.1l-0.3-3.5l-1-12.2l-3.8,4.3c0-0.2,0-0.3,0-0.4c-0.3-4.9-3.7-8.9-7.9-9.7
			c0.4-0.5,0.6-1,1-1.4c7-10.5,7.4-13.5,7.3-15.6C401.9,736,398.9,733.1,395,733.1L395,733.1z"/>
		<path class="st2" d="M420.5,759.6c3.2,0,4.8,1.1,5,3.2c0.3,4.6-6.6,12.6-19.2,16.4c0,0.2,0,0.3,0,0.4c0.2,3.6,2.3,5.6,5.2,5.6
			c0.1,0,0.3,0,0.4,0c3.8-0.2,9.6-3.8,16.2-10.9l0.2,3.5c-7.5,9.1-13.6,14-19.9,14.4c-0.3,0-0.4,0-0.7,0c-5.3,0-8.5-3.4-8.9-10.2
			c-0.3-5.1,1.9-10.1,6.3-14.8c4.6-4.8,9.5-7.3,14.4-7.6C419.9,759.6,420.2,759.6,420.5,759.6 M406.5,775.8
			c8.8-4.7,13.1-8.7,13.1-10.9c0-0.6-0.2-0.9-0.6-0.9c0,0,0,0-0.1,0C416.7,764.1,410.1,767.6,406.5,775.8 M420.5,754.2
			c-0.4,0-0.8,0-1.3,0c-6.3,0.4-12.5,3.6-18,9.3c-5.5,5.8-8.1,12.2-7.8,18.8c0.6,11.2,7.7,15.2,14.1,15.2c0.4,0,0.6,0,1,0
			c7.5-0.4,14.6-5.3,23.6-16.4l1.3-1.6l-0.1-2.1l-0.2-3.5l-0.7-12.4l-1.9,2.1c0-0.4,0-0.7,0-1.1
			C430.5,758.5,427.7,754.2,420.5,754.2L420.5,754.2z"/>
		<path class="st2" d="M451.3,747c0.8,0,1.6,0.5,1.6,1.1c0,0.7-0.3,1.3-0.9,2.1l-3.1,4.1c2.8,0,4.2,0.5,4.3,1.3
			c0,0.3-1.4,3.5-4.6,6.8c-1.5,1.5-2.6,2-4.6,2.1c-0.7,0-1.3,0.1-1.8,0.1c-0.2,0-0.4,0-0.6,0c-4.7,6.6-6.5,13.2-6.3,17
			c0.1,1.5,0.8,2.2,2.1,2.2c0.1,0,0.1,0,0.2,0c2.2-0.1,6.8-3.8,13.9-10.9l0.3,3.4c-8.3,9.9-15,14.9-19.1,15.2c-0.2,0-0.3,0-0.4,0
			c-2.9,0-4.6-1.7-4.7-4.7c-0.2-2.5,0.5-5.8,2.3-9.7c-0.8,0.6-1.6,1.3-2.3,1.9l-0.3-3.3c3.2-3.8,6.3-7.7,8.9-11.5
			c-1.2-0.1-2.2-0.2-3.3-0.2c-0.4,0-0.6,0-0.9,0c-0.4,0-1,0.1-1.6,0.1h-0.1c-0.4,0-0.6-0.2-0.6-0.4c-0.1-0.9,2.5-5.5,4.5-7.2
			c1.3-1.1,4-1.6,8-1.9C445.2,749.6,446.3,747.2,451.3,747C451.3,747,451.3,747,451.3,747 M451.3,741.8c-0.1,0-0.3,0-0.4,0
			c-6.8,0.4-9.5,3.9-12.1,7.9c-3.8,0.4-6.4,1.3-8.3,2.8l0,0l0,0c-2.4,2-6.6,8-6.4,11.5c0.1,1.8,1,3.3,2.3,4.3
			c-1.1,1.3-2.1,2.7-3.4,4.1l-1.3,1.7l0.2,2.1l0.3,3.3l0.3,3.3c-0.3,1.5-0.4,3-0.3,4.3c0.4,5.8,4.4,9.7,10,9.7c0.3,0,0.4,0,0.7,0
			c6.1-0.4,13.8-6.1,23-17.1l1.3-1.6L457,776l-0.3-3.4l-0.9-10.6c1.5-2.1,2.8-4.7,2.7-6.6c-0.1-1-0.4-2.2-1.3-3.4
			c0.6-1.1,1.1-2.5,1-4.2C458.1,744.5,455,741.8,451.3,741.8L451.3,741.8z M444.5,769.8c1.2-0.1,2.2-0.3,3.2-0.5l0,0
			c-2.3,2.3-4.1,4-5.6,5.4C442.6,773.2,443.4,771.5,444.5,769.8L444.5,769.8z"/>
		<path class="st2" d="M468.3,746.4c1.4,0,2.2,0.8,2.3,2.5c0.2,2.8-3,7.5-5.9,7.7c-0.1,0-0.1,0-0.2,0c-1.5,0-2.6-1.1-2.7-2.6
			c-0.2-3.5,3.1-7.3,6.2-7.5C468.2,746.4,468.3,746.4,468.3,746.4 M461.6,758.5c1.5,0,2.4,0.7,2.5,2.1c0.2,2.7-2.9,7.9-9.7,14.4
			c-0.2,1-0.4,1.9-0.3,2.7c0.1,2.1,1.7,3.6,3.8,3.6c0.1,0,0.2,0,0.3,0c2.3-0.1,6.8-3.1,12.6-9.5l0.3,3.5c-6.4,8.8-11.3,13.5-16,13.8
			c-0.2,0-0.3,0-0.4,0c-4,0-6.8-3.5-7.2-10.1c-0.4-6,1.8-10.6,6.9-16.3c2.3-2.6,4.2-4.1,6.8-4.3
			C461.5,758.5,461.5,758.5,461.6,758.5 M468.3,741.1c-0.2,0-0.4,0-0.5,0c-3,0.2-5.8,1.8-8,4.4c-2.1,2.5-3.2,5.7-3.1,8.7v0.1
			c-2.4,1.2-4.4,3-6.1,4.9c-6.2,6.8-8.7,12.8-8.2,20.1c0.6,11.1,6.8,15.1,12.4,15.1c0.3,0,0.4,0,0.7,0c7.2-0.4,13.1-6.6,19.9-15.9
			l1.2-1.6l-0.2-2l-0.3-3.5l-1-12.1l-8.1,8.9c1.6-2.7,2.6-5.4,2.4-7.9c3.9-2.5,6.7-7.6,6.5-11.7
			C475.7,744.2,472.6,741.1,468.3,741.1L468.3,741.1z"/>
		<path class="st2" d="M494.1,757.2c1.2,0,2.6,2.4,2.8,4.8c0.2,2.9-2.1,4.2-4.2,7.4c-2.7,4-3.8,7.4-3.8,8.3c0.1,1.1,0.5,1.6,1.5,1.6
			c0.1,0,0.1,0,0.2,0c1.4-0.1,4.9-3.3,10.9-9.4l0.2,3.6c-7.5,9.1-12,14.7-16.3,14.8c-0.1,0-0.2,0-0.2,0c-2.3,0-4.1-2.1-4.3-5.2
			c-0.2-3.3,1.9-8.1,6.2-14.8c-10.4,10.7-13.4,18.7-16,18.8H471c-2.3,0-4.3-3.8-4.7-10c0-0.4-0.1-1.1,0-2.1
			c3.5-9.3,7.2-14.1,10.6-14.3c0.1,0,0.3,0,0.4,0c2,0,3.5,0.8,3.6,1.5c0.1,1.1-2.1,4.2-6.3,9.6c-1.3,1.6-1.8,3.4-1.8,4.9
			c0,0,0,0.1,0,0.2C483.5,763.5,491.8,757.4,494.1,757.2L494.1,757.2 M494.1,752c-0.1,0-0.3,0-0.4,0c-2.7,0.2-6.3,2.3-10.1,5.6
			c-1.6-1.3-3.8-2-6.3-2c-0.3,0-0.4,0-0.7,0c-6,0.4-10.8,6-15.3,17.7l-0.4,0.8v0.9c0,1.3,0,2.1,0,2.5c0.6,11.1,5.5,15,9.9,15
			c0.2,0,0.3,0,0.4,0c2.5-0.2,4.2-1.4,6-3.5c1.7,2.9,4.6,4.6,7.9,4.6c0.2,0,0.4,0,0.5,0c6.6-0.4,11.7-6.5,20-16.8l1.3-1.6l-0.1-2.1
			l-0.2-3.6l-0.6-11.9l-4,4l0,0C501.9,757,498.8,752,494.1,752L494.1,752z"/>
		<path class="st2" d="M520.7,753.4c2.2,0,4.2,1,4.2,2.1c0.2,2.4-3.5,4.8-9.8,8.5c-7,4.1-11.6,7.8-11.3,13c0.1,1,0.9,1.6,1.8,1.6
			h0.1c2.4-0.1,6.3-3.2,11.3-9.5s7.3-10.5,9.4-10.6c0,0,0,0,0.1,0c1.1,0,2.2,1.8,2.3,4c0.1,1.9-0.9,4-2.1,6.9l-4.2,10.2
			c3.1-2.4,7.5-6,12.6-11.2l0.2,3.6c-4.5,5-10.3,10-16.6,16.1c-6.6,14-14.6,20.9-16.9,21h-0.1c-1.1,0-1.9-0.7-2-2.1
			c-0.2-3.7,4-11.7,14.6-21.4c1.3-2,3.1-6.1,5-12c-6.2,8.1-12.7,11.9-14.6,12c-0.1,0-0.1,0-0.2,0c-3.2,0-6.1-4.7-6.3-10.5
			c-0.2-3.8,2-8.4,6.4-12.4c7-6.1,12.5-9.2,15.7-9.4C520.4,753.4,520.6,753.4,520.7,753.4 M520.7,748.1c-0.3,0-0.4,0-0.7,0
			c-4.7,0.3-11.1,3.8-18.9,10.6c-5.5,4.9-8.6,11-8.2,16.6c0.4,7.7,4.3,13.8,9.4,15.2c-5.2,6.3-8,12.3-7.8,16.6
			c0.3,4.1,3.2,7.1,7.2,7.1c0.2,0,0.3,0,0.4,0c3-0.2,6.4-2.5,10.5-7.1c2.7-3,6.6-8.2,10.5-16.1c1.8-1.8,3.6-3.4,5.4-5
			c3.9-3.7,7.7-7.2,10.8-10.6l1.4-1.6l-0.1-2.1l-0.2-3.6l-0.6-12.1l-5.6,5.8c-0.3-3.3-1.8-6-3.9-7.5
			C529.4,750.6,525.7,748.1,520.7,748.1L520.7,748.1z"/>
		<path class="st2" d="M595.5,728c4.5,0,7.9,3.4,8,7.2c0.3,4.7-5.5,10.1-17,16.9c1,3.1,2.5,6.3,4.3,9.5c7.3-4.6,9.3-9.4,10.6-9.4
			l0,0c0.5,0,1,1.1,1.1,3.1c0.3,4.6-2,9.5-6.5,13.8l2.5,2.4l1.9-1.3c0.7,0.5,1,1.2,1,1.7c0.1,1.3-1.1,3.4-2.9,6.4
			c-1,1.8-1.9,2.9-3.2,3h-0.1c-1.4,0-3.5-1.5-5.9-4.5c-5.7,4.7-11,7-14.6,7.2c-0.3,0-0.4,0-0.7,0c-3.1,0-5.5-1.2-7.8-3.6
			c-3-3.2-4.7-6.8-4.8-9.7c-0.4-6.9,5.1-14.7,15.5-19.5c-0.1-0.8-0.3-1.7-0.3-2.4c-0.3-4.1,0.7-7.6,3-10.6
			c4.2-5.9,11.2-9.7,15.5-9.8C595.2,728,595.3,728,595.5,728 M585.1,745.3c7.9-4.7,11.8-10.4,11.6-12.6c0-0.6-0.6-1-1.5-1
			c-0.1,0-0.1,0-0.2,0C591.8,731.9,585.7,737.1,585.1,745.3 M572.1,772.4c0.1,0,0.2,0,0.4,0c3.2-0.2,6.6-2,11-4.8
			c-1.8-3.3-3.3-6.5-4.3-9.8c-6.9,4.3-10,10.5-9.9,12.7C569.3,771.6,570.4,772.4,572.1,772.4 M595.5,722.7c-0.3,0-0.5,0-0.8,0
			c-6.5,0.4-14.7,5.5-19.4,12c-2.8,3.8-4.2,8.2-4,13.1c-9.9,5.7-15.6,14.2-15.1,22.9c0.3,4.4,2.5,9.1,6.3,13.1
			c3.3,3.5,7.2,5.2,11.6,5.2c0.4,0,0.7,0,1,0c4-0.3,8.9-2.1,13.8-5.5c2.2,1.9,4.4,2.8,6.4,2.8c0.2,0,0.3,0,0.4,0
			c4.6-0.3,6.7-4.1,7.5-5.6c2.3-3.9,3.7-6.5,3.5-9.4c-0.1-1.7-0.8-3.3-2.1-4.7c2.3-3.8,3.4-7.9,3.2-11.8c-0.4-6-3.2-7.6-5.1-8
			c4.5-4.2,6.3-8.1,6.1-12.1C608.5,728.1,602.6,722.7,595.5,722.7L595.5,722.7z"/>
		<path class="st2" d="M665.1,720.6c13.5,0,21.3,5.8,21.9,16.6c0.4,8.3-2.6,15.1-8.9,19.9c-6.4,4.9-15.7,8.2-25.1,8.8
			c-0.5,0-1.2,0.1-1.7,0.1c-2.1,0-4-0.2-6.1-0.5l-3.7,6.9c0.4,0.3,0.6,0.4,0.6,1c0.1,0.9-0.7,2.6-2.1,5.1c-1.9,3.4-3.2,5.2-5.1,5.4
			h-0.1c-1.2,0-2-1-2.1-2.7c-0.1-1.5,1.6-8,6.7-17c-2.1-1.5-3.4-2.6-3.5-4.5c-0.2-3.8,3.8-7.2,11-8.7c2.7-4.5,6.9-10.6,13-18.3
			c-16.6,1.9-25.8,7.2-27.5,7.2l0,0c-0.4,0-0.4-0.4-0.4-1c0-0.4,1.6-4.4,5.2-10.1c0.9-1.5,1.3-2.3,3.7-3.2
			c5.9-2.4,14.1-4.4,21.4-4.8C663.2,720.7,664.2,720.6,665.1,720.6 M654.4,749.8c0.6-0.1,1.4-0.3,1.9-0.3c0.8,0,1.4-0.1,2.1-0.1
			c1.3,0,2.2,0.1,3,0.4c-1.4,0.7-4.3,1.7-8.4,2.4l-1.9,3.1c1.6,0.2,3.1,0.3,4.7,0.3c0.8,0,1.5,0,2.2-0.1c6.3-0.4,12.2-2.5,16.5-6.2
			c4.8-3.9,7.4-8.9,7.2-11.4c-0.2-3.7-6.2-5.6-17.9-5.6c-0.2,1.9-0.9,3.7-2.3,5.8L654.4,749.8 M665.1,715.3c-1,0-2.1,0-3.1,0.1
			c-7.4,0.4-16.3,2.4-23,5.2c-3.5,1.3-4.8,3.1-6.1,5.2l-0.1,0.2c-2.1,3.4-3.4,6-4.2,7.6c-1.6,3.3-1.8,4.5-1.8,5.6
			c0.3,4.1,3.1,6,5.7,6h0.1h0.2c1.3-0.1,2.4-0.5,4.4-1.3c2.1-0.9,5.7-2.3,10.6-3.6c-1.6,2.3-3,4.3-4,6c-8.2,2.2-13.2,7.4-12.9,13.6
			c0.1,2.2,1,4,2.1,5.4c-3.8,7.5-5.5,13.4-5.4,16c0.3,5,3.9,7.6,7.3,7.6c0.2,0,0.3,0,0.4,0c5-0.3,7.5-4.7,9.4-8l0,0l0,0
			c1.9-3.5,2.9-5.6,2.7-7.9c0-0.2,0-0.4,0-0.4l0.7-1.3c1.1,0.1,2.1,0.1,3.1,0.1c0.6,0,1.3,0,2-0.1c10.4-0.5,20.6-4.2,28.1-9.8
			c7.7-5.8,11.4-14.2,10.9-24.3c-0.4-6.9-3.2-12.5-8.2-16.3C679.3,717.1,673,715.3,665.1,715.3L665.1,715.3z M663.7,745.2l2.5-4
			c0.7-1.2,1.3-2.2,1.8-3.3c4.9,0.3,7.3,0.9,8.4,1.3c-0.6,1.3-2.1,3.8-5.1,6.3c-0.9,0.7-1.8,1.3-2.9,2L663.7,745.2L663.7,745.2
			L663.7,745.2z"/>
		<path class="st2" d="M715.6,743.3c0.9,0,1.5,1.1,1.6,3.3c0.2,2.4-0.3,2.8-1.4,4.4c-5.6,7.2-7.8,12.9-7.7,14.8
			c0.1,1.1,1,1.7,1.9,1.7h0.1c2-0.1,5.5-3.6,11.6-9.7l0.2,3.6c-7.6,9.6-12.4,14.8-16.5,15c-0.1,0-0.2,0-0.4,0
			c-2.7,0-4.6-1.9-4.7-4.7c-0.1-1.7,0.4-4.3,1.7-7.9c-5.2,7.5-8.9,11.4-11.2,11.4c0,0-0.1,0-0.2,0c-2.3,0-6.1-3.3-6.4-9.2
			c-0.3-5.2,1.9-9.5,6.3-14.9c2.3-2.9,3.8-4.2,6.3-4.4c0.3,0,0.4,0,0.6,0c2.1,0,3.8,0.6,3.8,1.4c0.1,2-3.5,5.8-9.9,12.8
			c-0.9,2.1-1.3,3.8-1.3,4.9c0,0.5,0.1,0.9,0.4,0.9l0,0c1.5-0.1,6.8-4.3,14.1-13.1C710.5,747.3,713.7,743.4,715.6,743.3L715.6,743.3
			 M715.6,738c-0.1,0-0.3,0-0.4,0c-3.1,0.2-5.5,2.1-9.5,6.8c-1.3-1.8-3.8-3.2-8-3.2c-0.3,0-0.6,0-1,0c-5.2,0.3-8,3.7-10.1,6.3
			c-4.1,5.1-8,10.9-7.5,18.5c0.4,8.8,6.4,14.2,11.7,14.2c0.2,0,0.3,0,0.4,0c2-0.1,3.8-0.9,6-2.7c1.8,2.4,4.7,3.8,7.9,3.8
			c0.2,0,0.4,0,0.6,0c6.5-0.4,12.3-7,20.2-17l1.3-1.6l-0.1-2l-0.2-3.6l-0.6-11.7l-4.2,4.1c0.3-1,0.4-2.2,0.3-3.8
			C722.1,738.5,716.7,738,715.6,738L715.6,738z"/>
		<path class="st2" d="M749.4,715.7c0.9,0,1.7,1.1,1.8,3c0.4,6.1-7.8,20.7-26,40.2c0,1.2,0,2.3,0,3.4c0.2,3.7,1,5.2,2.8,5.2
			c0.1,0,0.1,0,0.2,0c1.8-0.1,3.4-1.7,5.4-4.7c-0.7-1.1-1-2.1-1.1-3.4c-0.1-2.3,1.4-6,4.8-9.6c2.3-2.3,4.7-3.4,5.3-3.4h0.1
			c1,0,1.4,0.8,1.5,2.2c0.2,2.9-0.8,7-3.1,11.5c0.6,0.5,1.3,0.7,2,0.7c0.1,0,0.2,0,0.2,0c2.1-0.1,4.3-1.9,7.4-4.8l0.3,3.3
			c-4.3,4.3-8,6.3-10.4,6.4c-0.1,0-0.2,0-0.3,0c-0.6,0-1.2-0.2-1.9-0.4c-5.1,6.4-9.5,9.6-12.6,9.7c-0.1,0-0.2,0-0.3,0
			c-3.8,0-6.6-4.7-7.1-12.6c-0.5-9.7,4.9-22,16.5-34.8C742.3,719.8,748,715.8,749.4,715.7L749.4,715.7 M745.9,722.2
			c-9.5,11-15.7,20.6-18.5,28.8C736.7,739.7,743.5,730.8,745.9,722.2 M749.4,710.5c-0.1,0-0.3,0-0.4,0c-5.5,0.3-15.2,10.7-18.1,14
			c-12.3,13.7-18.5,27-17.8,38.6c0.7,13,6.9,17.6,12.3,17.6c0.2,0,0.4,0,0.5,0c4.4-0.3,9.1-3.3,14.4-9.4c0.1,0,0.2,0,0.3,0
			c5.1-0.3,10.4-4.5,13.9-8l1.7-1.7l-0.2-2.4l-0.3-3.3l-0.9-11l-5.5,5.3c0-0.5,0-1,0-1.5c-0.2-3.2-1.6-5.4-3.6-6.4
			c6-8.4,10.9-17.3,10.6-23.7C756.2,713,752.6,710.5,749.4,710.5L749.4,710.5z"/>
		<path class="st2" d="M772.8,719.6c1,0,1.5,0.9,1.7,2.7c0.5,10.4-5.7,23.1-19.1,34.4c0,0.4,0.1,0.9,0.1,1.6
			c0.3,4.8,1.7,7.2,4.1,7.2c0.1,0,0.2,0,0.2,0c2.2-0.1,5.9-3.8,12.3-10.4l0.3,3.4c-7.7,9-11.8,14.4-16.1,14.6c-0.1,0-0.2,0-0.3,0
			c-4.3,0-7.7-5.2-8-11.4c-0.4-6.2,3.6-18.3,12.4-30.4C765.9,723.7,770.7,719.7,772.8,719.6C772.7,719.6,772.7,719.6,772.8,719.6
			 M769.7,726.7c-6.5,7.9-11,15.8-13.2,23.8C763.2,744.5,767.4,736.7,769.7,726.7 M772.8,714.3c-0.1,0-0.3,0-0.4,0
			c-5.3,0.3-11.8,7.8-16.5,14c-9.8,13.4-13.9,26.6-13.5,33.8c0.5,9.4,6.3,16.4,13.3,16.4c0.2,0,0.4,0,0.6,0
			c6.2-0.4,10.6-5.5,18-14.2c0.6-0.7,1.3-1.4,1.9-2.2l1.4-1.7l-0.2-2.1l-0.3-3.4l-0.9-11.6l-8.1,8.4c-0.4,0.4-0.7,0.7-1,1.1
			c8.6-9.8,13.1-20.6,12.5-30.5C779.4,716.7,776,714.3,772.8,714.3L772.8,714.3z"/>
		<path class="st2" d="M788.9,728.6c1.4,0,2.2,0.8,2.3,2.5c0.2,2.8-3,7.5-5.9,7.6c-0.1,0-0.1,0-0.2,0c-1.5,0-2.6-1.1-2.7-2.6
			c-0.2-3.5,3.1-7.3,6.2-7.5C788.8,728.6,788.9,728.6,788.9,728.6 M782.2,740.7c1.5,0,2.4,0.7,2.5,2.1c0.2,2.7-2.9,7.9-9.7,14.4
			c-0.2,1-0.4,1.9-0.3,2.7c0.1,2.1,1.7,3.6,3.8,3.6c0.1,0,0.2,0,0.3,0c2.3-0.1,6.8-3.1,12.6-9.5l0.3,3.5c-6.4,8.8-11.3,13.5-16,13.8
			c-0.2,0-0.3,0-0.4,0c-4,0-6.8-3.5-7.2-10.1c-0.4-6,1.8-10.6,6.9-16.3c2.3-2.6,4.2-4.1,6.8-4.3
			C782.1,740.7,782.1,740.7,782.2,740.7 M788.9,723.3c-0.2,0-0.4,0-0.5,0c-3,0.2-5.8,1.8-8,4.4c-2.1,2.5-3.2,5.7-3.1,8.7v0.1
			c-2.4,1.2-4.4,3-6.1,4.9c-6.2,6.8-8.7,12.8-8.2,20.1c0.6,11.1,6.8,15.1,12.4,15.1c0.3,0,0.4,0,0.7,0c7.2-0.4,13.1-6.6,19.9-15.9
			l1.2-1.6l-0.2-2l-0.3-3.5l-1-12.1l-8.1,8.9c1.6-2.7,2.5-5.4,2.4-7.9c1.3-0.8,2.6-2.1,3.8-3.6c0.9-1.3,3-4.6,2.8-8.2
			C796.3,726.4,793.2,723.3,788.9,723.3L788.9,723.3z"/>
		<path class="st2" d="M808.7,737.7c2.2,0,3.3,1,3.4,3c0.3,4.7-5.1,11.1-7.3,11.2h-0.1c-1.1,0-1.5-0.8-1.7-2.7
			c-4.2,3-7.1,5.7-8.8,8.5c0,0.4,0,0.6,0.1,0.8c0.2,3.3,2,5.1,4.8,5.1c0.1,0,0.3,0,0.4,0c4.7-0.3,10.2-3.9,16.9-10.9l0.2,3.5
			c-7.7,9.8-14,14.8-18.4,15.1c-0.1,0-0.2,0-0.3,0c-4.3,0-8.9-5.5-9.2-12.1c-0.3-4.8,2-9.8,6.9-14.4c4.9-4.7,10.3-7,12.8-7.1
			C808.4,737.7,808.5,737.7,808.7,737.7 M808.7,732.4c-0.3,0-0.5,0-0.7,0c-4.5,0.3-11,3.7-16.1,8.5c-5.9,5.5-8.9,12-8.5,18.6
			c0.5,9.3,7.2,17.1,14.5,17.1c0.2,0,0.4,0,0.5,0c6.3-0.4,13.6-5.9,22.3-17.1l1.3-1.5l-0.1-2l-0.2-3.5l-0.7-12.2l-3.9,4.1
			c0.4-1.3,0.5-2.6,0.4-3.9C817.1,735.5,813.7,732.4,808.7,732.4L808.7,732.4z M800.5,758.1c0.4-0.4,1-1,1.5-1.4
			c0.4,0.2,0.7,0.3,1.1,0.4C802.1,757.5,801.2,757.9,800.5,758.1L800.5,758.1z"/>
		<path class="st2" d="M833.1,726.2c1.4,0,2.2,0.8,2.3,2.5c0.2,2.8-3,7.5-5.9,7.7c-0.1,0-0.1,0-0.2,0c-1.5,0-2.6-1.1-2.7-2.6
			c-0.2-3.5,3.1-7.3,6.2-7.5C832.9,726.2,833,726.2,833.1,726.2 M826.5,738.3c1.5,0,2.4,0.7,2.5,2.1c0.2,2.7-2.9,7.9-9.7,14.4
			c-0.2,1-0.4,1.9-0.3,2.7c0.1,2.1,1.7,3.6,3.8,3.6c0.1,0,0.2,0,0.3,0c2.3-0.1,6.8-3.1,12.6-9.5l0.3,3.5c-6.4,8.8-11.3,13.5-16,13.8
			c-0.2,0-0.3,0-0.4,0c-4,0-6.8-3.5-7.2-10.1c-0.4-6,1.8-10.6,6.9-16.3c2.3-2.6,4.2-4.1,6.8-4.3
			C826.2,738.3,826.4,738.3,826.5,738.3 M833.1,720.9c-0.2,0-0.4,0-0.5,0c-3,0.2-5.8,1.8-8,4.4c-2.1,2.5-3.2,5.7-3.1,8.7v0.1
			c-2.4,1.2-4.4,3-6.1,4.9c-6.2,6.8-8.7,12.8-8.2,20.1c0.6,11.1,6.8,15.1,12.4,15.1c0.3,0,0.4,0,0.7,0c7.2-0.4,13.1-6.6,19.9-15.9
			l1.2-1.6l-0.2-2l-0.3-3.5l-1-12.1l-8.1,8.9c1.6-2.7,2.5-5.4,2.4-7.9c3.9-2.5,6.7-7.6,6.5-11.7
			C840.5,723.9,837.4,720.9,833.1,720.9L833.1,720.9z"/>
		<path class="st2" d="M869.3,716.2c1.3,0,2.9,1.4,3,3.5c0.2,3.2-3.9,9.6-10.6,20.3c-3.4,5.5-5.1,14.2-4.9,18.1
			c0.1,0.9,0.8,1.9,1.6,1.9c0,0,0,0,0.1,0c2.1-0.1,5.5-3.9,11.9-10.1l0.2,3.4c-7.5,9.3-11.6,14.6-15.9,14.8c-0.1,0-0.2,0-0.3,0
			c-2.6,0-3.5-2-3.8-6.1c-0.1-2.1-0.1-4.6,0.3-7.3c-7.1,8.2-11.3,12.3-13,12.4c0,0,0,0-0.1,0c-1.9,0-5.2-4.7-5.6-12.5
			c-0.2-3.8,2-7.2,6.6-11c5.6-4.6,10.6-6.6,13.2-6.8c0.1,0,0.3,0,0.4,0c1.3,0,2.2,0.4,3.1,1.6c7.5-14.8,11.9-22,13.5-22.1
			C869.3,716.2,869.3,716.2,869.3,716.2 M853.9,743.5c-10.8,4.7-16.1,8.5-15.7,14.9c0.1,0.8,0.2,1.3,0.6,1.3c0,0,0,0,0.1,0
			c1.5-0.1,5-3.2,10.9-9.2C851.2,749,852.9,747.6,853.9,743.5 M869.3,710.9c-0.1,0-0.3,0-0.4,0c-3.3,0.2-5.5,2.9-8.8,8.1
			c-1.8,3-4,7.1-6.9,12.4c-0.3,0-0.4,0-0.7,0c-0.2,0-0.4,0-0.7,0c-4.4,0.3-10.3,3.1-16.3,8c-6.1,4.8-8.9,9.8-8.6,15.4
			c0.5,9.9,5.2,17.4,10.9,17.4c0.1,0,0.3,0,0.4,0c2.1-0.1,4.1-1,8-4.8c0.2,0.6,0.4,1.2,0.7,1.7c1.5,2.7,4.1,4.2,7.3,4.2
			c0.2,0,0.4,0,0.6,0c6.5-0.4,11.1-6.1,19.4-16.4l0.4-0.4l1.3-1.6l-0.1-2.1l-0.2-3.4l-0.6-11.5l-8.3,8c-1.2,1.2-2.2,2.1-3.2,3.1
			c0.6-2.2,1.5-4.6,2.7-6.3l1.3-2.1c6.9-11.1,10.3-16.6,10-21.3C877.3,714.7,873.5,710.9,869.3,710.9L869.3,710.9z"/>
		<path class="st2" d="M894.3,731.2c1.8,0,3.8,2.5,3.9,3.9c0,0.6-0.4,0.9-1.3,1.5l-1.3,0.9l1.5,2.8c0.3,0.5,0.5,1.1,0.6,1.5
			c0.1,2.2-5.7,8.1-5.5,12.5c0.1,1.2,0.8,1.8,2.1,1.8c0.1,0,0.2,0,0.3,0c2.6-0.2,5.9-3.1,11-8.4l0.3,3.4
			c-7.7,9.3-12.3,14.7-16.1,14.8c-0.1,0-0.2,0-0.3,0c-2.2,0-4.2-1.8-4.4-4.6c-0.1-2,0.6-4.4,1.5-8c-6.5,7.7-10.9,11.6-13.1,11.7l0,0
			c-1.8,0-6.7-6-7-11.1c-0.2-3.2,2.3-7.6,7.2-12.2c3.6-3.3,7.6-5.9,12.4-8C890.6,731.8,893.8,731.2,894.3,731.2
			C894.2,731.2,894.2,731.2,894.3,731.2 M892.1,739.4c-13,6.3-19.8,10.3-19.4,16.5c0.1,1.3,0.7,2.1,1.4,2.1c0,0,0,0,0.1,0
			C876,757.8,883.5,751.9,892.1,739.4 M894.3,725.9c-0.2,0-0.3,0-0.4,0c-1.7,0.1-5.5,1.1-10.1,3.2c-5.3,2.3-9.8,5.3-13.9,8.9l0,0
			l0,0c-4.2,4-9.1,10-8.8,16.3c0.3,4.4,2.5,8.2,3.8,10.2c2.7,3.9,5.5,5.9,8.4,5.9h0.2h0.2c2.1-0.1,4.2-1,7.6-3.8
			c1.7,2.8,4.7,4.7,8.1,4.7c0.2,0,0.4,0,0.5,0c6.3-0.4,11.4-6.5,19.9-16.8l1.3-1.6l-0.2-2.1l-0.3-3.4l-1-11.7l-7,7.3
			c0.1-0.4,0.1-0.9,0.1-1.3c-0.1-1-0.4-1.9-0.6-2.6c0.8-1,1.4-2.3,1.3-4.1C903.2,730.8,899.1,725.9,894.3,725.9L894.3,725.9z
			 M893.9,750.9L893.9,750.9L893.9,750.9L893.9,750.9z"/>
		<path class="st2" d="M938.9,712.3c1.3,0,2.9,1.4,3,3.5c0.2,3.2-3.9,9.6-10.6,20.3c-3.4,5.5-5.1,14.2-4.9,18.1
			c0.1,0.9,0.8,1.9,1.6,1.9c0,0,0,0,0.1,0c2.1-0.1,5.5-3.9,11.9-10.1l0.2,3.4c-7.5,9.3-11.6,14.6-15.9,14.8c-0.1,0-0.2,0-0.3,0
			c-2.6,0-3.5-2-3.8-6.1c-0.1-2.1-0.1-4.6,0.3-7.3c-7.1,8.2-11.3,12.3-13,12.4c0,0,0,0-0.1,0c-1.9,0-5.2-4.7-5.6-12.5
			c-0.2-3.8,2-7.2,6.6-11c5.6-4.6,10.6-6.6,13.2-6.8c0.1,0,0.3,0,0.4,0c1.3,0,2.2,0.4,3.1,1.6C932.8,719.8,937.2,712.4,938.9,712.3
			C938.8,712.3,938.8,712.3,938.9,712.3 M923.4,739.6c-10.8,4.7-16.1,8.5-15.7,14.9c0.1,0.8,0.2,1.3,0.6,1.3c0,0,0,0,0.1,0
			c1.5-0.1,5-3.2,10.9-9.2C920.8,745.2,922.5,743.7,923.4,739.6 M938.9,707.1c-0.1,0-0.3,0-0.4,0c-3.3,0.2-5.5,2.9-8.8,8.1
			c-1.8,3-4,7.1-6.9,12.4c-0.3,0-0.4,0-0.7,0c-0.2,0-0.4,0-0.7,0c-4.4,0.3-10.3,3.1-16.3,8c-6.1,4.8-8.9,9.8-8.6,15.4
			c0.5,9.9,5.2,17.4,10.9,17.4c0.1,0,0.3,0,0.4,0c2.1-0.1,4.1-1,8-4.8c0.2,0.6,0.4,1.2,0.7,1.7c1.5,2.7,4.1,4.2,7.3,4.2
			c0.2,0,0.4,0,0.6,0c6.5-0.4,11.1-6.1,19.4-16.4l0.4-0.4l1.3-1.6l-0.1-2.1l-0.2-3.4l-0.6-11.5l-8.3,8c-1.2,1.2-2.2,2.1-3.2,3.1
			c0.6-2.2,1.5-4.6,2.7-6.3l1.3-2.1c6.9-11.1,10.3-16.6,10-21.3C946.9,710.8,943.2,707.1,938.9,707.1L938.9,707.1z"/>
	</g>
	<g>
		<path class="st0" d="M303.5,788.2c-8,10.3-16.4,14.8-19.7,15c-3.8,0.2-6.2-3.6-6.5-10.3c-0.4-6,4.6-17.4,16.1-31.8
			c-9.4,8.5-17.1,18.3-24.5,28.7c-5.6,7.8-8.6,12-10.1,12.1c-0.9,0.1-2.8-3.8-3-7.5c-0.4-7,11.2-17.7,19.3-39.6
			c-7.8,6.2-15,15.9-23,29.1c-6.3,10.7-8.9,16.5-11.4,16.7c-1.5,0.1-3.9-3.6-4.1-7.4c-0.2-3.4,3.6-7.6,8.5-16
			c7.1-12.3,10.1-20,9.9-22.5c0-0.5-0.6-1-1.3-0.9c-0.9,0.1-3.9,1.8-9.1,5.2c-4.6,3-7.3,5.1-8.9,5.2c-1.2,0.1-1.6-0.5-1.7-1.6
			c-0.2-3.1,0.8-8.1,2.4-10.7c2.1-3.1,5.5-5.5,6-5.5c0.3,0,0.4,0.3,0.4,0.4c0,0.2-0.3,0.8-1,1.6l-2.6,2.9c8.9-5.3,14.9-7.6,16.7-7.7
			c2.8-0.2,5.3,5,5.4,7.8c0.3,4.7-2.5,12.5-8.3,22.3c13.6-20.4,24.4-28.2,26.6-28.3c0.8-0.1,4.1,2.1,4.4,5.6
			c0.2,2.8-3.1,11.1-10.7,24.5c16.2-20.1,26.8-29.7,29.4-29.8c1.8-0.1,4.2,4.7,4.3,6.7c0.1,2.3-3,5.3-7.8,12.2
			c-8.5,12.3-12.4,21.6-12.1,27.6c0.1,2.2,0.6,3,2.2,3c1.9-0.1,7.5-3.2,14-10.2L303.5,788.2z"/>
		<path class="st0" d="M309,796.5c-1.8,0.1-6.7-5.9-7-11.1c-0.2-3.2,2.3-7.6,7.2-12.2c3.6-3.3,7.6-5.9,12.4-8
			c4.5-2.1,7.6-2.7,8.2-2.8c1.9-0.1,3.9,2.5,4,3.9c0,0.6-0.4,0.9-1.3,1.5l-1.3,0.9l1.5,2.8c0.3,0.5,0.5,1.1,0.6,1.5
			c0.1,2.2-5.7,8.1-5.5,12.5c0.1,1.3,1,1.9,2.4,1.8c2.6-0.2,5.9-3.1,11-8.4l0.3,3.4c-7.7,9.3-12.3,14.7-16.1,14.8
			c-2.3,0.1-4.5-1.7-4.7-4.6c-0.1-2,0.6-4.4,1.5-8C315.6,792.4,311.2,796.3,309,796.5z M308.4,787.2c0.1,1.3,0.7,2.1,1.4,2.1
			c2-0.1,9.3-6.1,18-18.6C314.8,777,308,780.8,308.4,787.2z"/>
		<path class="st0" d="M336.3,783.6l5.1-5.5c-1.3-0.7-2.1-1.7-2.1-2.7c-0.3-4.6,6.4-11.6,9.5-11.8c0.6,0,1.1,0.4,1.1,1.1
			c0,0.3-0.2,1.1-0.8,2.3l6.6-0.8c1.1-0.2,2-0.3,2.8-0.4c2.6-0.2,4.2,1.3,4.4,5.1c0.1,1.4-1.8,2.6-3.7,4.8c-3.3,3.8-4.7,7.9-4.7,9.4
			c0.1,1.6,0.9,2.4,2.2,2.3c1.9-0.1,5.5-3.6,11.8-10l0.2,3.5c-7.7,9.4-12.9,14.4-16.3,14.6c-2.6,0.2-5.3-2.1-5.5-5.9
			c-0.3-4.9,2.3-9.4,7.3-15.1c-2.8,0.8-5.4,1.5-8,2c-3.8,4.5-6.5,7.9-8.7,9.7L336.3,783.6z"/>
		<path class="st0" d="M367.6,793.2c-1.5,0.1-2.2-2.6-2.6-8.4c-0.4-8.4,3.4-16.4,11.7-27.7c9.2-12.5,16.6-18.6,18.3-18.7
			c1-0.1,1.8,0.7,1.9,1.9c0.2,3-8.4,16.7-26.7,39.3l-0.3,2.9c11.3-13.8,19.5-20.2,22.5-20.4c2-0.1,3.9,2.1,4,4.8
			c0.3,5.6-4.7,9.5-13.5,16.7c1.8,2.4,3.2,3.5,4.3,3.5c2.1-0.1,7-3.9,14-11.7l0.3,3.5c-7.6,9.7-13.1,14.8-16.6,15
			c-3.8,0.2-6.5-3-10.1-9.7C370.5,789.9,369,793.2,367.6,793.2z M380.9,780.8c6-5.4,9-8.8,8.9-10.6c0-0.4-0.2-0.4-0.4-0.4
			c-1.2,0.1-6,3.3-12,10.6L380.9,780.8z"/>
		<path class="st0" d="M406.3,779.6c0.2,3.7,2.5,5.7,5.5,5.5c3.8-0.2,9.6-3.8,16.2-10.9l0.2,3.5c-7.5,9.1-13.6,14-19.9,14.4
			c-5.7,0.4-9.2-3.1-9.6-10.2c-0.3-5.1,1.9-10.1,6.3-14.8c4.6-4.8,9.5-7.3,14.4-7.6c3.8-0.2,5.8,0.9,5.9,3.2
			c0.3,4.6-6.6,12.6-19.2,16.4C406.3,779.3,406.3,779.4,406.3,779.6z M419.4,764.8c0-0.6-0.2-0.9-0.6-0.9
			c-2.1,0.1-8.7,3.7-12.4,11.8C415.2,771.2,419.6,767.2,419.4,764.8z"/>
		<path class="st0" d="M427.3,779.2l-0.3-3.3c3.2-3.8,6.3-7.7,8.9-11.5c-1.5-0.2-3-0.3-4.2-0.2c-0.4,0-1,0.1-1.6,0.1
			c-0.5,0-0.8-0.1-0.8-0.4c-0.1-0.9,2.5-5.5,4.5-7.2c1.3-1.1,4-1.6,8-1.9c3.2-5,4.3-7.4,9.3-7.7c0.8-0.1,1.7,0.5,1.7,1.1
			c0,0.7-0.3,1.3-0.9,2.1l-3.1,4.1c2.8,0,4.2,0.5,4.3,1.3c0,0.3-1.4,3.5-4.6,6.8c-1.5,1.5-2.6,2-4.6,2.1c-1.1,0.1-1.9,0.1-2.4,0.1
			c-4.7,6.6-6.5,13.2-6.3,17c0.1,1.6,0.9,2.3,2.2,2.2c2.2-0.1,6.8-3.8,13.9-10.9l0.3,3.4c-8.3,9.9-15,14.9-19.1,15.2
			c-3.1,0.2-5-1.6-5.2-4.7c-0.2-2.5,0.5-5.8,2.3-9.7C428.8,777.9,428,778.5,427.3,779.2z"/>
		<path class="st0" d="M471.1,775.4c-6.4,8.8-11.3,13.5-16,13.8c-4.3,0.3-7.2-3.3-7.5-10.1c-0.4-6,1.8-10.6,6.9-16.3
			c2.3-2.6,4.2-4.1,6.8-4.3c1.8-0.1,2.7,0.6,2.8,2.1c0.2,2.7-2.9,7.9-9.7,14.4c-0.2,1-0.4,1.9-0.3,2.7c0.1,2.2,1.8,3.7,4,3.6
			c2.3-0.1,6.8-3.1,12.6-9.5L471.1,775.4z M468.1,746.4c1.6-0.1,2.5,0.7,2.6,2.5c0.2,2.8-3,7.5-5.9,7.7c-1.6,0.1-2.8-1-2.9-2.6
			C461.7,750.4,465,746.6,468.1,746.4z"/>
		<path class="st0" d="M476.9,760.9c2.1-0.1,3.9,0.7,3.9,1.5c0.1,1.1-2.1,4.2-6.3,9.6c-1.3,1.6-1.8,3.4-1.8,4.9c0,0,0,0.1,0,0.2
			c10.6-13.6,19-19.8,21.3-19.9c1.2-0.1,2.7,2.4,2.8,4.8c0.2,2.9-2.1,4.2-4.2,7.4c-2.7,4-3.8,7.4-3.8,8.3c0.1,1.1,0.6,1.6,1.7,1.6
			c1.4-0.1,4.9-3.3,10.9-9.4l0.2,3.6c-7.5,9.1-12,14.7-16.3,14.8c-2.4,0.1-4.3-2-4.5-5.2c-0.2-3.3,1.9-8.1,6.2-14.8
			c-10.4,10.7-13.4,18.7-16,18.8c-2.3,0.1-4.4-3.7-4.7-10c0-0.4-0.1-1.1,0-2.1C469.9,765.9,473.5,761.1,476.9,760.9z"/>
		<path class="st0" d="M504.7,785.6c-3.3,0.2-6.3-4.7-6.5-10.5c-0.2-3.8,2-8.4,6.4-12.4c7-6.1,12.5-9.2,15.7-9.4
			c2.4-0.1,4.6,0.9,4.7,2.1c0.2,2.4-3.5,4.8-9.8,8.5c-7,4.1-11.6,7.8-11.3,13c0.1,1,0.9,1.6,2,1.6c2.4-0.1,6.3-3.2,11.3-9.5
			s7.3-10.5,9.4-10.6c1.1-0.1,2.3,1.7,2.4,4c0.1,1.9-0.9,4-2.1,6.9l-4.2,10.2c3.1-2.4,7.5-6,12.6-11.2l0.2,3.6
			c-4.5,5-10.3,10-16.6,16.1c-6.6,14-14.6,20.9-16.9,21c-1.1,0.1-2-0.6-2.1-2.1c-0.2-3.7,4-11.7,14.6-21.4c1.3-2,3.1-6.1,5-12
			C513.1,781.8,506.5,785.5,504.7,785.6z"/>
		<path class="st0" d="M574.8,783.9c-3.5,0.2-6.1-1-8.5-3.6c-3-3.2-4.7-6.8-4.8-9.7c-0.4-6.9,5.1-14.7,15.5-19.5
			c-0.1-0.8-0.3-1.7-0.3-2.4c-0.3-4.1,0.7-7.6,3-10.6c4.2-5.9,11.2-9.7,15.5-9.8c4.7-0.3,8.3,3.2,8.6,7.1c0.3,4.7-5.5,10.1-17,16.9
			c1,3.1,2.5,6.3,4.3,9.5c7.3-4.6,9.3-9.4,10.6-9.4c0.5,0,1,1.1,1.1,3.1c0.3,4.6-2,9.5-6.5,13.8l2.5,2.4l1.9-1.3
			c0.7,0.5,1,1.2,1,1.7c0.1,1.3-1.1,3.4-2.9,6.4c-1,1.8-1.9,2.9-3.2,3c-1.4,0.1-3.5-1.4-6.1-4.5
			C583.6,781.3,578.3,783.6,574.8,783.9z M579.1,757.8c-6.9,4.3-10,10.5-9.9,12.7c0.1,1.3,1.3,2.1,3.1,2.1c3.2-0.2,6.6-2,11-4.8
			C581.6,764.4,580.1,761.1,579.1,757.8z M596.8,732.7c0-0.6-0.7-1.1-1.7-1c-3.3,0.2-9.4,5.4-9.9,13.6
			C593,740.6,596.9,734.9,596.8,732.7z"/>
		<path class="st0" d="M641.6,772.3c0.4,0.3,0.6,0.4,0.6,1c0.1,0.9-0.7,2.6-2.1,5.1c-1.9,3.4-3.2,5.2-5.1,5.4
			c-1.2,0.1-2.1-0.9-2.1-2.7c-0.1-1.5,1.6-8,6.7-17c-2.1-1.5-3.4-2.6-3.5-4.5c-0.2-3.8,3.8-7.2,11-8.7c2.7-4.5,6.9-10.6,13-18.3
			c-16.6,1.9-25.8,7.2-27.5,7.2c-0.4,0-0.4-0.4-0.4-1c0-0.4,1.6-4.4,5.2-10.1c0.9-1.5,1.3-2.3,3.7-3.2c5.9-2.4,14.1-4.4,21.4-4.8
			c15.2-0.8,24.1,5,24.8,16.5c0.4,8.3-2.6,15.1-8.9,19.9c-6.4,4.9-15.7,8.2-25.1,8.8c-2.6,0.2-5.1-0.1-7.8-0.5L641.6,772.3z
			 M658,755.6c6.3-0.4,12.2-2.5,16.5-6.2c4.8-3.9,7.4-8.9,7.2-11.4c-0.2-3.7-6.2-5.6-17.9-5.6c-0.2,1.9-0.9,3.7-2.3,5.8l-7.2,11.5
			c0.6-0.1,1.4-0.3,1.9-0.3c2.2-0.1,3.9-0.2,5.1,0.4c-1.4,0.7-4.3,1.7-8.4,2.4l-1.9,3.1C653.5,755.7,655.9,755.8,658,755.6z"/>
		<path class="st0" d="M691.1,775.4c-2.3,0.1-6.3-3.2-6.5-9.2c-0.3-5.2,1.9-9.5,6.3-14.9c2.3-2.9,3.8-4.2,6.3-4.4
			c2.5-0.2,4.4,0.5,4.5,1.4c0.1,2-3.5,5.8-9.9,12.8c-0.9,2.1-1.3,3.8-1.3,4.9c0,0.6,0.2,0.9,0.4,0.9c1.5-0.1,6.8-4.3,14.1-13.1
			c5.5-6.5,8.7-10.4,10.6-10.6c0.9-0.1,1.6,1,1.7,3.3c0.2,2.4-0.3,2.8-1.4,4.4c-5.6,7.2-7.8,12.9-7.7,14.8c0.1,1.1,1,1.8,2.1,1.7
			c2-0.1,5.5-3.6,11.6-9.7l0.2,3.6c-7.6,9.6-12.4,14.8-16.5,15c-2.9,0.2-4.9-1.8-5.1-4.7c-0.1-1.7,0.4-4.3,1.7-7.9
			C697,771.5,693.3,775.2,691.1,775.4z"/>
		<path class="st0" d="M725.8,775.4c-3.9,0.2-6.9-4.6-7.3-12.6c-0.5-9.7,4.9-22,16.5-34.8c7.2-8.1,13-12.1,14.4-12.2
			c0.9-0.1,1.7,1,1.9,3c0.4,6.1-7.8,20.7-26,40.2c0,1.2,0,2.3,0,3.4c0.2,3.8,1.1,5.4,2.9,5.2c1.8-0.1,3.4-1.7,5.4-4.7
			c-0.7-1.1-1-2.1-1.1-3.4c-0.1-2.3,1.4-6,4.8-9.6c2.3-2.3,4.7-3.4,5.3-3.4c1-0.1,1.5,0.7,1.6,2.2c0.2,2.9-0.8,7-3.1,11.5
			c0.7,0.5,1.4,0.8,2.2,0.7c2.1-0.1,4.3-1.9,7.4-4.8l0.3,3.3c-4.3,4.3-8,6.3-10.4,6.4c-0.7,0-1.3-0.1-2.1-0.4
			C733.3,772,728.9,775.2,725.8,775.4z M745.9,722.2c-9.5,11-15.7,20.6-18.5,28.8C736.7,739.7,743.5,730.8,745.9,722.2z"/>
		<path class="st0" d="M772.2,758.6c-7.7,9-11.8,14.4-16.1,14.6c-4.5,0.3-8-5-8.4-11.4c-0.4-6.2,3.6-18.3,12.4-30.4
			c5.7-7.7,10.6-11.7,12.4-11.8c1-0.1,1.6,0.8,1.8,2.7c0.5,10.4-5.7,23.1-19.1,34.4c0,0.4,0.1,0.9,0.1,1.6c0.3,4.9,1.8,7.3,4.4,7.2
			c2.2-0.1,5.9-3.8,12.3-10.4L772.2,758.6z M769.7,726.7c-6.5,7.9-11,15.8-13.2,23.8C763.2,744.5,767.4,736.7,769.7,726.7z"/>
		<path class="st0" d="M791.7,757.6c-6.4,8.8-11.3,13.5-16,13.8c-4.3,0.3-7.2-3.3-7.5-10.1c-0.4-6,1.8-10.6,6.9-16.3
			c2.3-2.6,4.2-4.1,6.8-4.3c1.8-0.1,2.7,0.6,2.8,2.1c0.2,2.7-2.9,7.9-9.7,14.4c-0.2,1-0.4,1.9-0.3,2.7c0.1,2.2,1.8,3.7,4,3.6
			c2.3-0.1,6.8-3.1,12.6-9.5L791.7,757.6z M788.7,728.6c1.6-0.1,2.5,0.7,2.6,2.5c0.2,2.8-3,7.5-5.9,7.6c-1.6,0.1-2.8-1-2.9-2.6
			C782.3,732.6,785.7,728.8,788.7,728.6z"/>
		<path class="st0" d="M816.5,756.3c-7.7,9.8-14,14.8-18.4,15.1c-4.4,0.3-9.1-5.3-9.5-12.1c-0.3-4.8,2-9.8,6.9-14.4
			c4.9-4.7,10.3-7,12.8-7.1c2.5-0.2,3.8,0.8,3.8,3c0.3,4.7-5.1,11.1-7.3,11.2c-1.2,0.1-1.6-0.7-1.8-2.7c-4.2,3-7.1,5.7-8.8,8.5
			c0,0.4,0,0.6,0.1,0.8c0.2,3.4,2.1,5.3,5.2,5.1c4.7-0.3,10.2-3.9,16.9-10.9L816.5,756.3z"/>
		<path class="st0" d="M835.9,755.2c-6.4,8.8-11.3,13.5-16,13.8c-4.3,0.3-7.2-3.3-7.5-10.1c-0.4-6,1.8-10.6,6.9-16.3
			c2.3-2.6,4.2-4.1,6.8-4.3c1.8-0.1,2.7,0.6,2.8,2.1c0.2,2.7-2.9,7.9-9.7,14.4c-0.2,1-0.4,1.9-0.3,2.7c0.1,2.2,1.8,3.7,4,3.6
			c2.3-0.1,6.8-3.1,12.6-9.5L835.9,755.2z M832.9,726.2c1.6-0.1,2.5,0.7,2.6,2.5c0.2,2.8-3,7.5-5.9,7.7c-1.6,0.1-2.8-1-2.9-2.6
			C826.6,730.1,829.9,726.4,832.9,726.2z"/>
		<path class="st0" d="M838,767c-1.9,0.1-5.2-4.6-5.6-12.5c-0.2-3.8,2-7.2,6.6-11c5.6-4.6,10.6-6.6,13.2-6.8
			c1.5-0.1,2.5,0.3,3.6,1.6c7.5-14.8,11.9-22,13.5-22.1c1.3-0.1,3,1.3,3,3.5c0.2,3.2-3.9,9.6-10.6,20.3c-3.4,5.5-5.1,14.2-4.9,18.1
			c0.1,0.9,0.9,1.9,1.7,1.9c2.1-0.1,5.5-3.9,11.9-10.1l0.2,3.4c-7.5,9.3-11.6,14.6-15.9,14.8c-2.9,0.2-3.8-1.8-4-6.1
			c-0.1-2.1-0.1-4.6,0.3-7.3C843.9,762.8,839.7,766.9,838,767z M838.1,758.4c0.1,0.8,0.2,1.3,0.6,1.3c1.5-0.1,5-3.2,10.9-9.2
			c1.4-1.4,3.1-2.9,4.1-7C843,748.2,837.8,752,838.1,758.4z"/>
		<path class="st0" d="M873.4,765.2c-1.8,0.1-6.7-5.9-7-11.1c-0.2-3.2,2.3-7.6,7.2-12.2c3.6-3.3,7.6-5.9,12.4-8
			c4.5-2.1,7.6-2.7,8.2-2.8c1.9-0.1,3.9,2.5,4,3.9c0,0.6-0.4,0.9-1.3,1.5l-1.3,0.9l1.5,2.8c0.3,0.5,0.5,1.1,0.6,1.5
			c0.1,2.2-5.7,8.1-5.5,12.5c0.1,1.3,1,1.9,2.4,1.8c2.6-0.2,5.9-3.1,11-8.4l0.3,3.4c-7.7,9.3-12.3,14.7-16.1,14.8
			c-2.3,0.1-4.5-1.7-4.7-4.6c-0.1-2,0.6-4.4,1.5-8C879.9,761.1,875.6,765,873.4,765.2z M872.6,755.9c0.1,1.3,0.7,2.1,1.4,2.1
			c2-0.1,9.3-6.1,18-18.6C879.2,745.7,872.3,749.6,872.6,755.9z"/>
		<path class="st0" d="M907.5,763.1c-1.9,0.1-5.2-4.6-5.6-12.5c-0.2-3.8,2-7.2,6.6-11c5.6-4.6,10.6-6.6,13.2-6.8
			c1.5-0.1,2.5,0.3,3.6,1.6c7.5-14.8,11.9-22,13.5-22.1c1.3-0.1,3,1.3,3,3.5c0.2,3.2-3.9,9.6-10.6,20.3c-3.4,5.5-5.1,14.2-4.9,18.1
			c0.1,0.9,0.9,1.9,1.7,1.9c2.1-0.1,5.5-3.9,11.9-10.1l0.2,3.4c-7.5,9.3-11.6,14.6-15.9,14.8c-2.9,0.2-3.8-1.8-4-6.1
			c-0.1-2.1-0.1-4.6,0.3-7.3C913.4,758.9,909.2,763.1,907.5,763.1z M907.7,754.6c0.1,0.8,0.2,1.3,0.6,1.3c1.5-0.1,5-3.2,10.9-9.2
			c1.4-1.4,3.1-2.9,4.1-7C912.6,744.4,907.3,748,907.7,754.6z"/>
	</g>
</g>
</svg>
