<?xml version="1.0" encoding="utf-8"?>
<!-- Generator: Adobe Illustrator 28.0.0, SVG Export Plug-In . SVG Version: 6.00 Build 0)  -->
<svg version="1.1" id="Capa_1" xmlns="http://www.w3.org/2000/svg" xmlns:xlink="http://www.w3.org/1999/xlink" x="0px" y="0px"
	 viewBox="0 0 1000 1000" style="enable-background:new 0 0 1000 1000;" xml:space="preserve">
<style type="text/css">
	.st0{fill-rule:evenodd;clip-rule:evenodd;fill:#C5442E;}
	
		.st1{clip-path:url(#SVGID_00000144306977527191033350000007933631758130211508_);fill:url(#SVGID_00000098181846301416324410000014383765241393071535_);}
	
		.st2{clip-path:url(#SVGID_00000088109776586458863750000016334023738842343333_);fill:url(#SVGID_00000173121982824471055680000013723885965147323558_);}
	
		.st3{clip-path:url(#SVGID_00000026145974303382021910000002065772095962408876_);fill:url(#SVGID_00000171711248460745957490000009707922105462594210_);}
	.st4{fill-rule:evenodd;clip-rule:evenodd;fill:#DF001A;}
	.st5{fill:#DF001A;}
	.st6{fill-rule:evenodd;clip-rule:evenodd;fill:#AFB0B3;}
	.st7{fill-rule:evenodd;clip-rule:evenodd;}
	
		.st8{clip-path:url(#SVGID_00000089540802049627064580000009092525731900187790_);fill:url(#SVGID_00000001651477121370026850000011840575944862202777_);}
	
		.st9{clip-path:url(#SVGID_00000045613745331887978560000011963205979211996848_);fill:url(#SVGID_00000072245935472070244370000015942129470349058705_);}
</style>
<g>
	<path d="M914.6,647.6h9.5l29.8,41.8h0.2V655c0-0.6,0-1.5-0.2-2.7c-0.2-1.3-0.2-2.7-0.6-4.5h5.3c-0.4,1.7-0.6,3.1-0.7,4.5
		c-0.2,1.3-0.2,2.3-0.2,2.9v39.1h-9.5l-28.9-41.6h-0.2v34c0,0.9,0,1.9,0.2,3.4c0.2,1.5,0.4,2.7,0.6,3.8h-5.5
		c0.4-0.9,0.6-2.3,0.7-4.7c0.2-2.1,0.2-3.8,0.2-4.5v-28.2c0-0.4,0-1.5-0.2-3.2C915.2,651.4,915,649.5,914.6,647.6 M874.5,647.6h24.5
		c3.2,0,5.6,0.9,7,2.3c1.5,1.7,2.1,3.6,2.1,6.1v29.2c0,3.1-0.9,5.5-2.5,6.7c-1.7,1.3-4,1.9-7,1.9h-24.1c-3.2,0-5.6-0.7-7.2-2.3
		c-1.5-1.5-2.1-3.6-2.1-6.3v-29.4c0-2.7,0.9-4.9,2.5-6.1C869.4,648.2,871.9,647.6,874.5,647.6 M897.9,651.2h-22
		c-1.1,0-1.9,0.2-2.3,0.7c-0.6,0.6-0.7,1.5-0.7,2.7v32.2c0,1.3,0.2,2.1,0.7,2.7c0.6,0.6,1.3,0.7,2.5,0.7h21.9c1.3,0,1.9-0.2,2.5-0.7
		c0.4-0.6,0.7-1.5,0.6-2.7V655c0-1.3-0.2-2.1-0.6-2.9C900,651.6,899.1,651.2,897.9,651.2 M848.9,647.6h8.9c-0.2,1.1-0.4,2.1-0.6,3.2
		c-0.2,1.1-0.2,1.9-0.2,2.9v34.2c0,0.7,0,1.9,0.2,3.1c0.2,1.3,0.4,2.1,0.6,3.1h-8.9c0.2-0.7,0.4-1.9,0.6-2.9
		c0.2-1.3,0.2-2.1,0.2-2.9v-34.5c0-0.4,0-1.1,0-2.3C849.4,650.3,849.3,648.8,848.9,647.6 M796.9,647.6h9.5l29.8,41.8h0.2V655
		c0-0.6,0-1.5-0.2-2.7c-0.2-1.3-0.4-2.7-0.6-4.5h5.3c-0.4,1.7-0.6,3.1-0.7,4.5c-0.2,1.3-0.2,2.3-0.2,2.9v39.1h-9.5L801.3,653h-0.2
		v34c0,0.9,0,1.9,0.2,3.4c0.2,1.5,0.4,2.7,0.6,3.8h-5.5c0.4-0.9,0.6-2.3,0.7-4.7c0.2-2.1,0.2-3.8,0.2-4.5v-28.2c0-0.4,0-1.5-0.2-3.2
		C797.5,651.4,797.3,649.5,796.9,647.6 M747.8,647.6h8.9c-0.2,1.3-0.4,2.3-0.6,3.4c-0.2,1.1-0.2,1.9-0.2,2.7v32.9
		c0,1.3,0.2,2.1,0.6,2.9c0.4,0.6,1.3,0.9,2.3,0.9h24.1c1.5,0,2.3-0.4,2.7-0.9c0.4-0.6,0.6-1.5,0.6-2.7v-31.9c0-0.4,0-1.3-0.2-2.5
		c-0.2-1.2-0.2-2.9-0.6-4.5h5.3c-0.2,1.3-0.6,2.5-0.6,4.2c-0.2,1.5-0.2,2.5-0.2,3.4v30.7c0,2.5-0.4,4.5-1.5,5.9
		c-1.1,1.5-3.1,2.1-5.9,2.1h-24.9c-3.2,0-5.6-0.7-7-1.9c-1.3-1.3-1.9-3.4-1.9-6.1v-32.5c0-0.4,0-1.3-0.2-2.5
		C748.3,649.9,748,648.6,747.8,647.6 M745.3,647.6c-0.4,0.6-0.9,1.3-1.3,2.1c-0.6,0.9-0.9,1.9-1.7,3.1l-15.5,41h-9.1l-15.2-38.7
		c-0.6-1.5-1.3-2.9-1.9-4.2c-0.6-1.3-1.3-2.3-1.9-3.6h9.7c0,0.6,0.2,1.5,0.4,2.3c0.2,1.1,0.6,1.9,0.7,2.9l14.4,37.4l0,0l14.3-37.6
		c0.4-0.7,0.6-1.7,0.7-2.7c0.2-1.1,0.4-1.9,0.4-2.3h5.6L745.3,647.6L745.3,647.6L745.3,647.6z M661.6,651.2v17.7h24.1
		c1.5,0,2.3-0.2,2.9-0.9c0.4-0.6,0.7-1.7,0.6-2.9v-10.5c0-1.5-0.2-2.3-0.7-2.9c-0.6-0.6-1.5-0.7-2.7-0.7h-24.1L661.6,651.2
		L661.6,651.2z M653.4,647.6h33.4c3.6,0,6.1,0.7,7.6,1.9c1.5,1.5,2.1,3.6,2.1,6.7v8.5c0,3.1-0.7,5.3-2.1,6.5
		c-1.5,1.3-3.6,1.9-6.7,1.9c2.3,5.3,4.4,9.7,6.1,13.2c1.9,3.4,3.2,6.1,4.7,8h-8.9l-9.9-21.1h-18.2v15.2c0,0.6,0,1.5,0.2,2.7
		c0.2,1.3,0.2,2.3,0.6,3.2h-8.9c0.2-1.3,0.4-2.3,0.6-3.4c0.2-1.1,0.2-1.9,0.2-2.5V654c0-0.7,0-1.7-0.2-2.9
		C653.8,649.3,653.6,648.2,653.4,647.6 M612.2,647.6h36.3l0.4,4.2c-1.7-0.2-3.2-0.4-4.7-0.4c-1.7,0-2.5-0.2-3.1-0.2h-20.7v17.7h19
		c0.4,0,1.5,0,3.2,0s3.4-0.2,4.9-0.4v4.7c-1.9-0.2-3.8-0.4-5.5-0.4c-1.5,0-2.5,0-2.9,0h-19v17.7h21.3c0.6,0,1.7,0,2.9-0.2
		c1.5-0.2,2.9-0.2,4.4-0.4l-0.4,4.2H612c0.4-1.3,0.6-2.5,0.6-3.4s0.2-1.9,0.2-2.7v-34.5c0-1.1,0-1.9-0.2-3.1
		C612.6,649.2,612.4,648.2,612.2,647.6 M607.3,652c-1.5-0.4-2.9-0.6-4.5-0.7c-1.7-0.2-2.9-0.2-4-0.2h-17c-1.5,0-2.3,0.2-2.7,0.7
		c-0.6,0.6-0.7,1.5-0.7,2.9v31.9c0,1.3,0.2,2.1,0.6,2.7c0.4,0.6,1.3,0.9,2.7,0.9h18.2c1.1,0,2.3,0,4-0.2s2.9-0.4,4-0.7l-0.4,4.5
		h-26.9c-3.6,0-5.9-0.6-7.4-1.9c-1.5-1.3-2.1-3.4-2.1-6.5v-29.6c0-2.9,0.7-5.1,2.1-6.5c1.5-1.3,4-1.9,7.4-1.9h26.2L607.3,652z"/>
	<path class="st0" d="M263.7,703.8c-14.8-14.4-41.4-19.4-40.5-28.1l-14.6,6.3c-0.9,8.7,26.4,14.6,41.2,28.9L263.7,703.8z"/>
	<g>
		<g>
			<g>
				<g>
					<defs>
						<path id="SVGID_1_" d="M144.6,559.7c28.4,11.2,105.9,22.4,153.5,36.3c109.2,31.9-87.9,71-89.4,85.6
							c37.6-18.2,171-43.9,130.4-78.2c-7.6-6.5-17.1-10.1-26.6-13.2c-56.9-19.3-162.8-28.9-170.7-41.3l-7.6-0.4
							C135.3,550.6,138.6,557.3,144.6,559.7"/>
					</defs>
					<clipPath id="SVGID_00000145757161109203013550000017393572863424425651_">
						<use xlink:href="#SVGID_1_"  style="overflow:visible;"/>
					</clipPath>
					
						<linearGradient id="SVGID_00000172442133066547483220000011672712555464791688_" gradientUnits="userSpaceOnUse" x1="-185.5576" y1="1016.282" x2="-181.2753" y2="1016.282" gradientTransform="matrix(69.3201 -18.1606 11.5468 44.0748 1248.8293 -47508.0352)">
						<stop  offset="0" style="stop-color:#DF001A"/>
						<stop  offset="0.1" style="stop-color:#F1E2E0"/>
						<stop  offset="0.2" style="stop-color:#DF001A"/>
						<stop  offset="1" style="stop-color:#C30D23"/>
					</linearGradient>
					
						<polygon style="clip-path:url(#SVGID_00000145757161109203013550000017393572863424425651_);fill:url(#SVGID_00000172442133066547483220000011672712555464791688_);" points="
						101.5,556.9 389.6,481 439.7,673 151.4,749 					"/>
				</g>
			</g>
		</g>
	</g>
	<g>
		<g>
			<g>
				<g>
					<defs>
						<path id="SVGID_00000175316296025944522390000006306006224920784801_" d="M45.7,383.8c-3.6,5.1-7,11.2-7.8,16.3
							c40.3-66.8,202.9-96.8,344.7-93.9l5.9-14.8c-9.9-0.4-20.1-0.6-30.2-0.6C224.5,290.7,83.1,319.1,45.7,383.8"/>
					</defs>
					<clipPath id="SVGID_00000169525581949487840200000003122148913340497582_">
						<use xlink:href="#SVGID_00000175316296025944522390000006306006224920784801_"  style="overflow:visible;"/>
					</clipPath>
					
						<linearGradient id="SVGID_00000168094065919674718340000007798816292806648732_" gradientUnits="userSpaceOnUse" x1="-185.4962" y1="1012.1948" x2="-181.2166" y2="1012.1948" gradientTransform="matrix(81.9569 0 0 26.3352 15241.1279 -26311.0293)">
						<stop  offset="0" style="stop-color:#DE1A24"/>
						<stop  offset="9.000000e-02" style="stop-color:#DD684E"/>
						<stop  offset="0.16" style="stop-color:#E8B8AD"/>
						<stop  offset="0.2" style="stop-color:#E79F8C"/>
						<stop  offset="0.24" style="stop-color:#EDC3BA"/>
						<stop  offset="0.26" style="stop-color:#ECB9AE"/>
						<stop  offset="0.43" style="stop-color:#DE1A24"/>
						<stop  offset="0.67" style="stop-color:#E77C66"/>
						<stop  offset="1" style="stop-color:#DE1A24"/>
					</linearGradient>
					
						<rect x="37.7" y="290.7" style="clip-path:url(#SVGID_00000169525581949487840200000003122148913340497582_);fill:url(#SVGID_00000168094065919674718340000007798816292806648732_);" width="350.7" height="109.2"/>
				</g>
			</g>
		</g>
	</g>
	<g>
		<g>
			<g>
				<g>
					<defs>
						<path id="SVGID_00000140016003287716951990000002716265116219401105_" d="M37.7,400.1c-12.9,73.3,205.4,103.7,376.2,94.4
							l8.7-10.1c-170.8,9.4-389.3-24.3-376.4-97.9L37.7,400.1z"/>
					</defs>
					<clipPath id="SVGID_00000139977353423421514490000001291690488656251831_">
						<use xlink:href="#SVGID_00000140016003287716951990000002716265116219401105_"  style="overflow:visible;"/>
					</clipPath>
					
						<linearGradient id="SVGID_00000135673110851294237850000011426769405333705381_" gradientUnits="userSpaceOnUse" x1="-187.2026" y1="987.0597" x2="-182.9115" y2="987.0597" gradientTransform="matrix(83.4277 47.0939 -39.2076 69.457 54361.4375 -59398.7148)">
						<stop  offset="0" style="stop-color:#E47567"/>
						<stop  offset="1.000000e-02" style="stop-color:#EDB8B2"/>
						<stop  offset="0.37" style="stop-color:#DB1B24"/>
						<stop  offset="1" style="stop-color:#CB2429"/>
					</linearGradient>
					
						<polygon style="clip-path:url(#SVGID_00000139977353423421514490000001291690488656251831_);fill:url(#SVGID_00000135673110851294237850000011426769405333705381_);" points="
						121,215.5 472.3,415.1 326.4,675 -24.9,475.5 					"/>
				</g>
			</g>
		</g>
	</g>
	<polygon class="st0" points="369.1,283.1 387.7,315.6 447.9,307.1 448.4,304.3 369.6,280 	"/>
	<polygon class="st4" points="370.2,280.4 388.4,312.2 448.1,304.6 448.3,304.1 	"/>
	<path class="st5" d="M960.4,597.3c0,9.7-3.4,18.1-10.5,24.9c-6.9,7-15.6,10.5-25.6,10.5h-107c-9.9,0-18.4-3.4-25.5-10.5
		c-7-7-10.6-15.4-10.6-24.9V459c0-9.7,3.6-18.1,10.6-24.9c7-6.9,15.6-10.5,25.5-10.5h107c10.1,0,18.6,3.4,25.6,10.5
		c6.9,6.9,10.5,15.4,10.5,24.9v54.8c0,8-4,11.8-11.9,11.8h-53.3c-8,0-11.9-4-11.9-11.8v-39.1c0-8-4-11.8-12.1-11.8
		c-8,0-11.9,4-11.9,11.8v106.7c0,8,4,11.8,11.9,11.8c8,0,12.1-4,12.1-11.8v-7.8c0-8,4-11.8,11.9-11.8h53.3c8,0,11.9,4,11.9,11.8
		L960.4,597.3L960.4,597.3z M757.8,621c0,8-4,11.8-11.9,11.8H632c-8,0-11.9-4-11.9-11.8V435.5c0-8,4-11.8,11.9-11.8h113.9
		c8,0,11.9,4,11.9,11.8v15.7c0,8-4,11.8-11.9,11.8h-36.1c-8,0-12.1,4-12.1,11.8c0,7.6,4,11.6,12.1,11.8h36.1c8,0,11.9,4,11.9,11.8
		v15.4c0,8-4,11.8-11.9,11.8H710c-8,0-11.9,4-11.9,11.8l-0.4,44.1c0,8,4.2,11.8,12.3,11.8h35.8c8,0,11.9,4,11.9,11.8L757.8,621
		L757.8,621z M596.3,513.8c0,8-4,11.8-12.1,11.8h-36.3c-8.1,0-12.1,4-12.1,11.8v122.9c0,8-4,11.8-11.9,11.8h-29.3
		c-9.9,0-18.4-3.4-25.5-10.5c-7-6.9-10.6-15.4-10.6-24.9V435.5c0-8,4-11.8,11.9-11.8h113.7c8,0,12.1,4,12.1,11.8v15.7
		c0,8-4,11.8-12.1,11.8h-36c-8,0-11.9,4-11.9,11.8c0,7.6,4,11.6,11.9,11.8h36c8,0,12.1,4,12.1,11.8L596.3,513.8L596.3,513.8z"/>
	<path d="M961.7,366.5l0.4,2.9c-0.7-0.2-1.7-0.2-2.7-0.2c-1.1,0-1.9,0-2.5,0H943c-0.9,0-1.5,0.2-1.7,0.6c-0.4,0.4-0.6,0.9-0.4,1.9
		v5.6c0,0.9,0.2,1.5,0.4,1.9c0.4,0.4,0.9,0.6,1.9,0.6h13.7c2.3,0,3.8,0.4,4.9,1.3c0.9,0.9,1.5,2.3,1.3,4.2v7.2
		c0,2.1-0.6,3.6-1.7,4.4c-1.1,0.7-2.5,1.1-4.5,1.1h-20.1l-0.4-2.7c0.9,0.2,1.9,0.2,2.7,0.2c0.9,0,1.7,0.2,1.9,0.2h14.8
		c0.9,0,1.5-0.2,1.9-0.6c0.4-0.4,0.4-1.1,0.4-1.9v-6.5c0-0.9-0.2-1.7-0.4-1.9c-0.4-0.4-0.9-0.6-1.7-0.6h-13.7
		c-2.5,0-4.4-0.6-5.1-1.7s-1.1-2.3-1.1-4v-6.3c0-1.9,0.4-3.1,1.3-4.2c0.9-0.9,2.5-1.5,4.9-1.5L961.7,366.5L961.7,366.5z
		 M909.4,366.5h16.3c2.1,0,3.8,0.6,4.7,1.7c0.9,1.1,1.5,2.3,1.5,4.2v19.4c0,1.9-0.6,3.6-1.7,4.5s-2.7,1.3-4.7,1.3h-15.9
		c-2.1,0-3.8-0.6-4.7-1.5c-0.9-1.1-1.5-2.3-1.5-4.2v-19.6c0-1.9,0.6-3.2,1.7-4.2C906,366.9,907.4,366.5,909.4,366.5 M924.8,368.8
		h-14.6c-0.7,0-1.3,0.2-1.7,0.6c-0.4,0.4-0.6,0.9-0.4,1.9v21.3c0,0.9,0.2,1.5,0.4,1.9c0.4,0.4,0.9,0.6,1.7,0.6h14.4
		c0.7,0,1.5-0.2,1.7-0.6c0.4-0.4,0.4-0.9,0.4-1.9v-20.9c0-0.9,0-1.5-0.4-1.9C926.2,369,925.7,368.8,924.8,368.8 M876,368.8v25.8
		h15.9c0.9,0,1.5-0.2,1.7-0.6c0.4-0.4,0.4-0.9,0.4-1.9v-21.1c0-0.7-0.2-1.5-0.4-1.9c-0.4-0.4-0.9-0.6-1.9-0.6L876,368.8L876,368.8z
		 M870.6,366.5h22c2.5,0,4.2,0.6,5.1,1.5c0.9,0.9,1.3,2.3,1.3,4.2v19.7c0,1.9-0.4,3.2-1.5,4.2c-0.9,0.9-2.5,1.3-4.9,1.3h-22
		c0.2-0.4,0.2-1.1,0.4-1.9c0-0.7,0.2-1.5,0.2-2.3v-23c0-0.4,0-0.9-0.2-1.7C870.9,367.7,870.7,367.1,870.6,366.5 M850.5,370.6
		L850.5,370.6l-7.2,14.6h14.4L850.5,370.6z M847.2,366.5h6.1c2.5,5.1,4.7,9.4,6.5,13.2c1.9,3.6,3.2,6.7,4.5,9.3
		c1.3,2.5,2.1,4.4,2.9,5.7c0.7,1.5,1.3,2.1,1.9,2.7h-6.5c0-0.4-0.2-0.7-0.2-1.1s-0.2-0.7-0.4-1.1c-0.6-1.3-1.1-2.5-1.7-3.6
		c-0.6-1.1-1.3-2.3-1.9-3.6h-16.9c-0.6,1.1-1.1,2.1-1.7,3.2c-0.6,1.1-1.1,2.1-1.7,3.2c-0.2,0.6-0.4,0.9-0.6,1.5
		c-0.2,0.6-0.2,0.9-0.2,1.5h-4c0.4-0.4,0.7-0.9,1.1-1.5c0.4-0.6,0.7-1.1,1.1-1.9l12.5-25.5c-0.2-0.2-0.4-0.6-0.6-0.7
		C848.2,367.3,847.8,366.9,847.2,366.5 M809.8,366.5h24.1l0.2,2.9c-1.1-0.2-2.1-0.2-3.1-0.2c-1.1,0-1.7,0-1.9,0h-13.9v11.8h12.7
		c0.4,0,1.1,0,2.1,0c1.1,0,2.1-0.2,3.2-0.2v3.1c-1.3-0.2-2.5-0.2-3.6-0.4c-1.1,0-1.7,0-1.9,0h-12.5v11.8h14.1c0.4,0,1.1,0,1.9-0.2
		c0.9,0,1.9-0.2,2.9-0.2l-0.2,2.7h-24.1c0.2-0.9,0.4-1.7,0.4-2.3c0-0.6,0.2-1.3,0.2-1.9v-23c0-0.7,0-1.3-0.2-1.9
		C810,367.5,810,366.9,809.8,366.5 M781.9,366.5h5.7c-0.2,0.9-0.4,1.7-0.4,2.3c0,0.7-0.2,1.3-0.2,1.7v24.3h14.8c0.6,0,1.5,0,2.3-0.2
		c0.9,0,1.9-0.2,2.9-0.2l-0.4,2.7h-24.9c0.2-0.6,0.2-1.1,0.4-1.9c0-0.7,0.2-1.5,0.2-1.9v-23.1c0-0.2,0-0.7,0-1.5
		C782.3,367.9,782.1,367.1,781.9,366.5 M755.2,368.8v14.3h16.5c0.9,0,1.5-0.2,1.7-0.6c0.4-0.4,0.4-1.1,0.4-1.9v-9.4
		c0-0.9-0.2-1.5-0.4-1.9c-0.2-0.4-0.9-0.6-1.7-0.6L755.2,368.8L755.2,368.8z M749.8,366.5h22.6c2.3,0,4,0.6,4.9,1.5s1.3,2.3,1.3,4.2
		v8.1c0,1.9-0.4,3.4-1.5,4.4c-0.9,0.9-2.5,1.3-4.9,1.3h-17.1v7.6c0,0.2,0,0.6,0,1.5c0,0.7,0.2,1.7,0.4,2.5h-5.7
		c0.2-0.7,0.4-1.5,0.4-2.1c0-0.7,0.2-1.5,0.2-1.9v-22.8c0-0.4,0-1.1-0.2-1.9C750.2,367.5,750,366.9,749.8,366.5 M707.1,366.5h6.9
		l12.5,27.5l12.3-27.5h6.9c-0.2,0.9-0.4,1.9-0.4,2.9c0,1-0.2,1.9-0.2,2.1v21.9c0,0.4,0,0.9,0,1.7s0.2,1.5,0.4,2.1h-5.9
		c0.2-0.9,0.4-1.7,0.4-2.3c0-0.6,0-1.3,0-1.5v-23.5h-0.2l-12.3,27.5h-4.9L710,369.8h-0.2v23.9c0,0.6,0,1.1,0.2,1.9
		c0,0.7,0.2,1.3,0.4,1.9H707c0.2-0.9,0.4-1.9,0.6-3.4c0-1.5,0.2-2.3,0.2-2.9v-18.6c0-0.6,0-1.5-0.2-2.7
		C707.5,368.2,707.3,367.1,707.1,366.5 M680,366.5h24.1l0.2,2.9c-1.1-0.2-2.1-0.2-3.1-0.2c-1.1,0-1.7,0-1.9,0h-13.9v11.8h12.7
		c0.4,0,0.9,0,2.1,0c1.1,0,2.1-0.2,3.2-0.2v3.1c-1.3-0.2-2.5-0.2-3.6-0.4c-1.1,0-1.7,0-1.9,0h-12.5v11.8h14.1c0.4,0,1.1,0,1.9-0.2
		c0.9,0,1.9-0.2,2.9-0.2l-0.2,2.7H680c0.2-0.9,0.4-1.7,0.4-2.3c0-0.6,0-1.3,0-1.9v-23c0-0.7,0-1.3-0.2-1.9
		C680.2,367.5,680,366.9,680,366.5 M639,366.5h24.1l0.2,2.9c-1.1-0.2-2.1-0.2-3.1-0.2c-1.1,0-1.7,0-1.9,0h-13.9v11.8H657
		c0.4,0,1.1,0,2.1,0c1.1,0,2.1-0.2,3.2-0.2v3.1c-1.3-0.2-2.5-0.2-3.6-0.4c-1.1,0-1.7,0-1.9,0h-12.7v11.8h14.1c0.4,0,1.1,0,1.9-0.2
		c0.9,0,1.9-0.2,2.9-0.2l-0.2,2.7h-24.1c0.2-0.9,0.4-1.7,0.4-2.3c0-0.6,0-1.3,0-1.9v-23c0-0.7,0-1.3-0.2-1.9
		C639.4,367.5,639.2,366.9,639,366.5 M611.7,368.8v25.8h15.9c0.9,0,1.5-0.2,1.7-0.6c0.4-0.4,0.4-0.9,0.4-1.9v-21.1
		c0-0.7,0-1.5-0.4-1.9s-0.9-0.6-1.9-0.6L611.7,368.8L611.7,368.8z M606.4,366.5h22c2.5,0,4.2,0.6,5.1,1.5s1.3,2.3,1.3,4.2v19.7
		c0,1.9-0.4,3.2-1.5,4.2c-0.9,0.9-2.5,1.3-4.9,1.3h-22.2c0.2-0.4,0.2-1.1,0.4-1.9s0.2-1.5,0.2-2.3v-23c0-0.4,0-0.9-0.2-1.7
		C606.6,367.7,606.4,367.1,606.4,366.5 M566.1,366.5h16.3c2.1,0,3.8,0.6,4.7,1.7c0.9,1.1,1.5,2.3,1.5,4.2v19.4
		c0,1.9-0.6,3.6-1.7,4.5c-1.1,0.9-2.7,1.3-4.7,1.3h-15.9c-2.1,0-3.8-0.6-4.7-1.5c-0.9-1.1-1.5-2.3-1.5-4.2v-19.6
		c0-1.9,0.6-3.2,1.7-4.2C562.7,366.9,564.2,366.5,566.1,366.5 M581.5,368.8h-14.6c-0.7,0-1.3,0.2-1.7,0.6c-0.4,0.4-0.6,0.9-0.4,1.9
		v21.3c0,0.9,0.2,1.5,0.4,1.9c0.4,0.4,0.9,0.6,1.7,0.6h14.4c0.7,0,1.5-0.2,1.7-0.6c0.4-0.4,0.4-0.9,0.4-1.9v-20.9
		c0-0.9,0-1.5-0.4-1.9C583,369,582.4,368.8,581.5,368.8 M532.7,368.8v25.8h16.1c0.9,0,1.5-0.2,1.7-0.6c0.4-0.4,0.4-0.9,0.4-1.9
		v-21.1c0-0.7-0.2-1.5-0.4-1.9c-0.4-0.4-0.9-0.6-1.9-0.6L532.7,368.8L532.7,368.8z M527.2,366.5h22c2.5,0,4.2,0.6,5.1,1.5
		s1.3,2.3,1.3,4.2v19.7c0,1.9-0.4,3.2-1.5,4.2c-0.9,0.9-2.5,1.3-4.9,1.3H527c0.2-0.4,0.2-1.1,0.4-1.9s0.2-1.5,0.2-2.3v-23
		c0-0.4,0-0.9-0.2-1.7C527.6,367.7,527.4,367.1,527.2,366.5 M493.6,366.5h6.3l19.9,27.7h0.2v-22.9c0-0.4,0-1.1-0.2-1.9
		c0-0.9-0.2-1.9-0.4-3.1h3.4c-0.2,1.1-0.4,1.9-0.4,2.9s-0.2,1.7-0.2,1.9v26h-6.1l-19.4-27.3h-0.2v22.6c0,0.6,0,1.3,0.2,2.1
		c0,0.9,0.2,1.9,0.4,2.5h-3.6c0.2-0.6,0.4-1.7,0.4-3.1c0.2-1.5,0.2-2.5,0.2-3.1v-18.6c0-0.2,0-0.9-0.2-2.1
		C494,369,494,367.7,493.6,366.5 M467,366.5h16.3c2.1,0,3.8,0.6,4.7,1.7c0.9,1.1,1.5,2.3,1.5,4.2v19.4c0,1.9-0.6,3.6-1.7,4.5
		s-2.7,1.3-4.7,1.3h-15.9c-2.1,0-3.8-0.6-4.7-1.5c-0.9-1.1-1.5-2.3-1.5-4.2v-19.6c0-1.9,0.6-3.2,1.7-4.2
		C463.8,366.9,465.3,366.5,467,366.5 M482.6,368.8H468c-0.7,0-1.3,0.2-1.7,0.6c-0.4,0.4-0.6,0.9-0.4,1.9v21.3c0,0.9,0.2,1.5,0.4,1.9
		c0.4,0.4,0.9,0.6,1.7,0.6h14.4c0.7,0,1.5-0.2,1.7-0.6c0.4-0.4,0.4-0.9,0.4-1.9v-20.9c0-0.9-0.2-1.5-0.4-1.9
		C483.9,369,483.3,368.8,482.6,368.8 M459.3,366.5l0.4,2.9c-0.9-0.2-1.9-0.2-3.1-0.2s-1.9,0-2.7,0h-13.7v11.8h12.3
		c0.4,0,1.1,0,2.3,0c1.1,0,2.1-0.2,3.1-0.2v3.1c-1.3-0.2-2.3-0.2-3.2-0.4c-1.1,0-1.9,0-2.1,0h-12.1v10.1c0,0.6,0,1.1,0,1.9
		c0,0.7,0.2,1.5,0.4,1.9H435c0.2-0.9,0.4-1.7,0.4-2.3s0-1.3,0-1.9v-23c0-0.7,0-1.3-0.2-1.9c0-0.7-0.2-1.3-0.4-1.9L459.3,366.5
		L459.3,366.5z"/>
	<path class="st6" d="M324.6,387c4.2,24.3-4.2,36.1-53,74.6c-76.3,60.2,96.8,133.2,14.1,247.5c1.9-56.2-8-103.6-43.4-131.2
		c-22.2,81.4-68.3,125.6-131.9,141.9c244.1-214.3-22.6-336.9,6.1-181.7C29.6,381.5,285.4,484.5,324.6,387"/>
	<path class="st6" d="M217.8,374.3c-11.8,0-21.3,9.4-21.3,20.9c0,11.6,9.5,20.9,21.3,20.9c11.8,0,21.3-9.4,21.3-20.9
		C239.1,383.6,229.7,374.3,217.8,374.3"/>
	<path class="st7" d="M329.1,378.2c4.2,24.3-4.2,36.1-52.8,74.6c-76.3,60.2,96.8,133.2,14.1,247.5c1.9-56.2-8-103.6-43.6-131.2
		c-22.2,81.4-68.1,125.6-131.9,141.9c244.1-214.3-22.6-336.8,6.1-181.7C34.1,372.4,289.9,475.5,329.1,378.2"/>
	<path class="st7" d="M222.4,365.4c-11.8,0-21.3,9.4-21.3,20.9s9.5,20.9,21.3,20.9s21.3-9.4,21.3-20.9
		C243.6,374.7,234.2,365.4,222.4,365.4"/>
	<g>
		<g>
			<g>
				<g>
					<defs>
						<path id="SVGID_00000026843102708491867790000006960215508670211205_" d="M132.4,534.7c-5.3,4.2,1.7,20.5,8,15
							c25.5-22.2,136.5-36.3,282.6-50.5v-15.4C276.1,498.1,158.4,513.4,132.4,534.7"/>
					</defs>
					<clipPath id="SVGID_00000054242525888715125220000013190576186900045702_">
						<use xlink:href="#SVGID_00000026843102708491867790000006960215508670211205_"  style="overflow:visible;"/>
					</clipPath>
					
						<linearGradient id="SVGID_00000018941782101508316910000013091251756868351899_" gradientUnits="userSpaceOnUse" x1="-181.0956" y1="1033.26" x2="-176.824" y2="1033.26" gradientTransform="matrix(69.1898 0 0 16.5765 12657.2959 -16608.2559)">
						<stop  offset="0" style="stop-color:#DF001A"/>
						<stop  offset="4.000000e-02" style="stop-color:#C91223"/>
						<stop  offset="0.62" style="stop-color:#CE1023"/>
						<stop  offset="0.7" style="stop-color:#E35C4A"/>
						<stop  offset="0.85" style="stop-color:#DF001A"/>
						<stop  offset="0.94" style="stop-color:#EFB0A6"/>
						<stop  offset="1" style="stop-color:#E55236"/>
					</linearGradient>
					
						<rect x="127.3" y="484" style="clip-path:url(#SVGID_00000054242525888715125220000013190576186900045702_);fill:url(#SVGID_00000018941782101508316910000013091251756868351899_);" width="295.6" height="71.2"/>
				</g>
			</g>
		</g>
	</g>
	<g>
		<g>
			<g>
				<g>
					<defs>
						<path id="SVGID_00000006707944914007604160000017209344043492143292_" d="M307,598.9c88.4,31.3-96.9,68.7-98.5,82.8
							c37.6-18.2,171-43.9,130.4-78.2c-8.9-7.6-20.8-11.6-31.9-15V598.9z M144.6,559.7l-2.9-10.8l-7.6-0.4
							C135.3,550.6,138.6,557.3,144.6,559.7"/>
					</defs>
					<clipPath id="SVGID_00000137100990835603107470000004601596714827149211_">
						<use xlink:href="#SVGID_00000006707944914007604160000017209344043492143292_"  style="overflow:visible;"/>
					</clipPath>
					
						<linearGradient id="SVGID_00000159439502166562197020000000911875691816137091_" gradientUnits="userSpaceOnUse" x1="-185.5697" y1="1016.2293" x2="-181.2869" y2="1016.2293" gradientTransform="matrix(69.3576 -18.1704 11.553 44.0986 1251.0045 -47533.4492)">
						<stop  offset="0" style="stop-color:#DF001A"/>
						<stop  offset="0.1" style="stop-color:#F1E2E0"/>
						<stop  offset="0.2" style="stop-color:#DF001A"/>
						<stop  offset="1" style="stop-color:#C30D23"/>
					</linearGradient>
					
						<polygon style="clip-path:url(#SVGID_00000137100990835603107470000004601596714827149211_);fill:url(#SVGID_00000159439502166562197020000000911875691816137091_);" points="
						101.5,556.9 378.6,484 428,673 150.7,746.1 					"/>
				</g>
			</g>
		</g>
	</g>
</g>
</svg>
