<?xml version="1.0" encoding="utf-8"?>
<!-- Generator: Adobe Illustrator 28.0.0, SVG Export Plug-In . SVG Version: 6.00 Build 0)  -->
<svg version="1.1" id="Capa_2_00000011736935919877412780000001462457809247342976_"
	 xmlns="http://www.w3.org/2000/svg" xmlns:xlink="http://www.w3.org/1999/xlink" x="0px" y="0px" viewBox="0 0 1000 1000"
	 style="enable-background:new 0 0 1000 1000;" xml:space="preserve">
<style type="text/css">
	.st0{fill:url(#SVGID_1_);}
	.st1{fill:url(#SVGID_00000061452122142624966390000013768278004498794168_);}
	.st2{fill:url(#SVGID_00000010277845296548584390000006493109974815413140_);}
	.st3{fill:url(#SVGID_00000060001804864296452770000001395641109763498156_);}
	.st4{fill:url(#SVGID_00000023987542513737549120000013280888289136122252_);}
	.st5{fill:url(#SVGID_00000134959225274974913870000006382292916465493932_);}
	.st6{fill:url(#SVGID_00000031207577070940694910000014927344120470601109_);}
	.st7{fill:url(#SVGID_00000183218966919288197250000010433196771488892819_);}
	.st8{fill:url(#SVGID_00000137840745248453294140000007393140800916487821_);}
	.st9{fill:url(#SVGID_00000082357266424373120400000001744010461147540635_);}
	.st10{fill:url(#SVGID_00000147212250050853545350000010702632931706061706_);}
	.st11{fill:url(#SVGID_00000108297765956099623850000006464357839453568917_);}
	.st12{fill:url(#SVGID_00000013171311019748563440000016609948611331667361_);}
	.st13{fill:url(#SVGID_00000024692188178352211870000018089187554336264595_);}
	.st14{fill:url(#SVGID_00000094619858311322258950000013417889961609475753_);}
	.st15{fill:url(#SVGID_00000139278108033653321400000010556640865769072005_);}
	.st16{fill:url(#SVGID_00000127005139003391880040000018056203916736680861_);}
	.st17{fill:url(#SVGID_00000026151657065629043550000008094037230664448179_);}
	.st18{fill:#FFFFFF;}
</style>
<g>
	
		<linearGradient id="SVGID_1_" gradientUnits="userSpaceOnUse" x1="669.2486" y1="27.4271" x2="198.3189" y2="113.2921" gradientTransform="matrix(1 0 0 1 0 160.11)">
		<stop  offset="0.1296" style="stop-color:#283337"/>
		<stop  offset="1" style="stop-color:#5DBBAE"/>
	</linearGradient>
	<path class="st0" d="M568.9,247.1c26.7-14.5,29.6-16.2,45.6-24.8c4.6-2.5,10.4-5.6,18.3-9.9c7.9-4.3,16.4-7.5,25.1-9.3
		c4.6-1,9.4-1.6,14.3-1.8c3.9-0.1,7.9,0,11.9,0.4c7.1,0.8,14.9,2.4,22.9,5.6c5,2,10.2,4.6,15.3,7.9l0.1,0.1l0,0l0,0l0.1,0.1l0.1,0.1
		c0.1,0,0.1,0.1,0.3,0.1l0.1,0.1l0,0l0,0l0,0l0,0l0,0l0,0c0,0-0.1-0.8-0.3-2c-0.5-2.8-1.6-8.3-4.1-15c-1-2.8-2.1-5.6-3.6-8.8
		c-6-12.5-16.2-27-33.5-36.6c-16.2-9.2-38.6-14-69.6-9.3c-9.7,5.4-19.2,10.8-28.8,16.2c-1.5,0.9-3,1.6-4.5,2.5
		c-17.5,9.8-35.1,19.7-52.6,29.5c2.1,23.2,5.3,52.3,7.4,74.1c9.3-5.1,18.4-10,20.7-11.3C555.7,254.2,567.6,247.9,568.9,247.1z"/>
	
		<linearGradient id="SVGID_00000115496114274070229550000005626556592644674724_" gradientUnits="userSpaceOnUse" x1="549.9808" y1="409.229" x2="700.466" y2="-43.9966" gradientTransform="matrix(1 0 0 1 0 160.11)">
		<stop  offset="0.1296" style="stop-color:#283337"/>
		<stop  offset="1" style="stop-color:#5DBBAE"/>
	</linearGradient>
	<path style="fill:url(#SVGID_00000115496114274070229550000005626556592644674724_);" d="M547,532.3c0,0,1.5,46.5-47,70.6
		c0,0,87.1,28,117.8-62.4v-89.6l-70.8-48V532.3z"/>
	
		<linearGradient id="SVGID_00000005233016205830450170000016409152381671337379_" gradientUnits="userSpaceOnUse" x1="558.55" y1="387.7832" x2="691.9211" y2="-38.2961" gradientTransform="matrix(1 0 0 1 0 160.11)">
		<stop  offset="0.1296" style="stop-color:#283337"/>
		<stop  offset="1" style="stop-color:#5DBBAE"/>
	</linearGradient>
	<path style="fill:url(#SVGID_00000005233016205830450170000016409152381671337379_);" d="M547,532.3c0,0,1.5,46.5-47,70.6
		c0,0,87.1,28,117.8-62.4v-89.6l-70.8-48V532.3z"/>
	
		<linearGradient id="SVGID_00000135665316003551521790000005746421695554657962_" gradientUnits="userSpaceOnUse" x1="271.1649" y1="121.7908" x2="632.3292" y2="424.5313" gradientTransform="matrix(1 0 0 1 0 160.11)">
		<stop  offset="0.1296" style="stop-color:#283337"/>
		<stop  offset="1" style="stop-color:#5DBBAE"/>
	</linearGradient>
	<path style="fill:url(#SVGID_00000135665316003551521790000005746421695554657962_);" d="M310.8,294.2c0,0-37.2-16-36.4-78.3
		c-47.6,44.5-29.8,94-17,117.1c2.5,4.3,5.3,8.6,8.5,13.2l88,52.3l68.6-42.5L310.8,294.2z"/>
	
		<linearGradient id="SVGID_00000090253569579138052450000010794957352013873824_" gradientUnits="userSpaceOnUse" x1="390.6847" y1="-62.2256" x2="715.2603" y2="234.0235" gradientTransform="matrix(1 0 0 1 0 160.11)">
		<stop  offset="0" style="stop-color:#3EABC5"/>
		<stop  offset="1" style="stop-color:#051A22"/>
	</linearGradient>
	<path style="fill:url(#SVGID_00000090253569579138052450000010794957352013873824_);" d="M689.2,394.3c0,0,37.2,16,36.4,78.3
		c47.6-44.5,29.8-94,17-117.1c-2.5-4.3-5.3-8.6-8.5-13.2l-19.3-11.5l-63.3-37.7L573.1,330l1.4,0.8L689.2,394.3z"/>
	
		<linearGradient id="SVGID_00000018224440585140493570000012532491912067410097_" gradientUnits="userSpaceOnUse" x1="458.0251" y1="-41.4819" x2="266.8204" y2="468.3969" gradientTransform="matrix(1 0 0 1 0 160.11)">
		<stop  offset="0" style="stop-color:#051A22"/>
		<stop  offset="1" style="stop-color:#3EABC5"/>
	</linearGradient>
	<path style="fill:url(#SVGID_00000018224440585140493570000012532491912067410097_);" d="M437.8,325.4c9.3-5.1,15.2-14.9,15.2-25.6
		V156.2c0,0-1.5-46.5,47-70.6c0,0-87.1-28-117.8,62.4v122.2c0,2.8-1.5,5.4-3.9,6.8l-25,15l68.9,42.1L437.8,325.4z"/>
	
		<linearGradient id="SVGID_00000112619862347671651990000009353973193849726910_" gradientUnits="userSpaceOnUse" x1="422.1361" y1="-96.6845" x2="746.7119" y2="199.5646" gradientTransform="matrix(1 0 0 1 0 160.11)">
		<stop  offset="0" style="stop-color:#3EABC5"/>
		<stop  offset="0.8321" style="stop-color:#051A22"/>
	</linearGradient>
	<path style="fill:url(#SVGID_00000112619862347671651990000009353973193849726910_);" d="M502.3,23.4H500
		c0,0-103.7-5.3-117.8,114.2V148C412.9,57.7,500,85.5,500,85.5h2.3c3.1,1.5,6.1,3.3,8.8,5V23.6C505.5,23.2,502.3,23.4,502.3,23.4z"
		/>
	
		<linearGradient id="SVGID_00000029037507412290923230000002745560147942935179_" gradientUnits="userSpaceOnUse" x1="254.5121" y1="92.5946" x2="619.2173" y2="492.7079" gradientTransform="matrix(1 0 0 1 0 160.11)">
		<stop  offset="0.1296" style="stop-color:#283337"/>
		<stop  offset="1" style="stop-color:#5DBBAE"/>
	</linearGradient>
	<path style="fill:url(#SVGID_00000029037507412290923230000002745560147942935179_);" d="M310.8,294.2c0,0-37.2-16-36.4-78.3
		c-47.6,44.5-29.8,94-17,117.1c2.5,4.3,5.3,8.6,8.5,13.2l88,52.3l68.6-42.5L310.8,294.2z"/>
	
		<linearGradient id="SVGID_00000075149291358459107730000006472602832737247114_" gradientUnits="userSpaceOnUse" x1="430.2556" y1="-48.0993" x2="279.1803" y2="375.6195" gradientTransform="matrix(1 0 0 1 0 160.11)">
		<stop  offset="0" style="stop-color:#051A22"/>
		<stop  offset="1" style="stop-color:#3EABC5"/>
	</linearGradient>
	<path style="fill:url(#SVGID_00000075149291358459107730000006472602832737247114_);" d="M207.8,434.3c-1.1,15.4,0.9,32.6,7.9,51.3
		l0.6,1.4c51.7,115,163.2,62.2,163.2,62.2l8.4-4.8c-101.2,15.4-111.1-71.7-111.1-71.7c-0.9-62.3,36.4-78.3,36.4-78.3l109.2-60.2
		l-68.9-42.1l-89.6,53.3C231.7,364.2,210.4,397.3,207.8,434.3z"/>
	
		<linearGradient id="SVGID_00000098912822691976851710000012977424660909299098_" gradientUnits="userSpaceOnUse" x1="437.367" y1="-49.2287" x2="246.1623" y2="460.6501" gradientTransform="matrix(1 0 0 1 0 160.11)">
		<stop  offset="0" style="stop-color:#051A22"/>
		<stop  offset="1" style="stop-color:#3EABC5"/>
	</linearGradient>
	<path style="fill:url(#SVGID_00000098912822691976851710000012977424660909299098_);" d="M207.8,434.3c-1.1,15.4,0.9,32.6,7.9,51.3
		l0.6,1.4c51.7,115,163.2,62.2,163.2,62.2l8.4-4.8c-101.2,15.4-111.1-71.7-111.1-71.7c-0.9-62.3,36.4-78.3,36.4-78.3l109.2-60.2
		l-68.9-42.1l-89.6,53.3C231.7,364.2,210.4,397.3,207.8,434.3z"/>
	
		<linearGradient id="SVGID_00000042734343624388292550000014056451469637139134_" gradientUnits="userSpaceOnUse" x1="591.3115" y1="398.0381" x2="724.6826" y2="-28.0413" gradientTransform="matrix(1 0 0 1 0 160.11)">
		<stop  offset="0.1296" style="stop-color:#283337"/>
		<stop  offset="1" style="stop-color:#5DBBAE"/>
	</linearGradient>
	<path style="fill:url(#SVGID_00000042734343624388292550000014056451469637139134_);" d="M621.7,411.4l114.6-68.2
		c31.8-18.9,53.3-52,55.9-89c1.1-15.4-0.9-32.6-7.9-51.3l-0.6-1.4c-51.7-115-163.2-62.2-163.2-62.2l-8.4,4.8
		c101.2-15.4,111.1,71.7,111.1,71.7c0.9,62.3-36.4,78.3-36.4,78.3L562.2,363c-9.3,5.1-15.2,14.9-15.2,25.6v14.5l70.8,47.9v-32.8
		C617.8,415.5,619.3,412.8,621.7,411.4z"/>
	
		<linearGradient id="SVGID_00000026124106431020805930000014483805280553921694_" gradientUnits="userSpaceOnUse" x1="665.5369" y1="7.0708" x2="194.6071" y2="92.9356" gradientTransform="matrix(1 0 0 1 0 160.11)">
		<stop  offset="0.1296" style="stop-color:#283337"/>
		<stop  offset="1" style="stop-color:#5DBBAE"/>
	</linearGradient>
	<path style="fill:url(#SVGID_00000026124106431020805930000014483805280553921694_);" d="M511,200.6c-7.5,4.3-16.8,4.3-24.3-0.1
		c-39.5-22.6-79-45-118.6-67.6c0,0-82.7-29.2-133.7,33.8c-7.9,9.8-15,21.7-20.9,36.2c-0.5,1.3-1,2.6-1.4,3.9c-0.4,1-0.8,2.1-1,3.1
		c-0.4,1.4-0.9,2.8-1.3,4c-0.3,0.9-0.5,1.9-0.8,2.8c-0.6,2.3-1.1,4.4-1.5,6.6c-0.5,2.6-0.9,5.1-1.3,7.6c-1.1,8.5-1.3,17.2-0.5,25.7
		c1.1,11.3,3.9,22.2,8.3,32.3c3.5,8.1,7.9,15.9,13.2,23.1c5.8,7.8,12.5,14.9,20.2,21.2c0.8,0.6,1.4,1.1,2.1,1.6
		c2.3,1.8,4.6,3.5,7.1,5.1c3,2,6.3,3.9,9.4,5.8c0,0-3.9-4.9-8.5-13.2c-7.5-13.2-11.8-25.4-13.5-36.9c-7.8-49.6,30.6-80.2,30.6-80.2
		c0.4-0.3,0.6-0.5,1-0.8c5.4-4,33.7-22.7,70.8-12.9c7.3,1.9,14,4.9,20.6,8.5c40,22.6,80.1,45.1,120.1,67.7
		c7.4,4.1,16.4,4.3,23.9,0.1c2.4-1.3,12.7-6.9,22.6-12.3c-2.1-21.8-5.3-51-7.4-74.1C521.1,195,516,197.8,511,200.6z"/>
	
		<linearGradient id="SVGID_00000083796006413031369910000017562430075378980256_" gradientUnits="userSpaceOnUse" x1="681.6298" y1="24.0743" x2="216.8964" y2="113.4803" gradientTransform="matrix(1 0 0 1 0 160.11)">
		<stop  offset="0.1296" style="stop-color:#283337"/>
		<stop  offset="1" style="stop-color:#5DBBAE"/>
	</linearGradient>
	<path style="fill:url(#SVGID_00000083796006413031369910000017562430075378980256_);" d="M568.9,247.1
		c26.7-14.5,29.6-16.2,45.6-24.8c4.6-2.5,10.4-5.6,18.3-9.9c7.9-4.3,16.4-7.5,25.1-9.3c4.6-1,9.4-1.6,14.3-1.8
		c3.9-0.1,7.9,0,11.9,0.4c7.1,0.8,14.9,2.4,22.9,5.6c5,2,10.2,4.6,15.3,7.9l0.1,0.1l0,0l0,0l0.1,0.1l0.1,0.1c0.1,0,0.1,0.1,0.3,0.1
		l0.1,0.1l0,0l0,0l0,0l0,0l0,0l0,0c0,0-0.1-0.8-0.3-2c-0.5-2.8-1.6-8.3-4.1-15c-1-2.8-2.1-5.6-3.6-8.8c-6-12.5-16.2-27-33.5-36.6
		c-16.2-9.2-38.6-14-69.6-9.3c-9.7,5.4-19.2,10.8-28.8,16.2c-1.5,0.9-3,1.6-4.5,2.5c-17.5,9.8-35.1,19.7-52.6,29.5
		c2.1,23.2,5.3,52.3,7.4,74.1c9.3-5.1,18.4-10,20.7-11.3C555.7,254.2,567.6,247.9,568.9,247.1z"/>
	
		<linearGradient id="SVGID_00000036222094273323306360000007728199235614192558_" gradientUnits="userSpaceOnUse" x1="427.6742" y1="-102.7519" x2="752.25" y2="193.4972" gradientTransform="matrix(1 0 0 1 0 160.11)">
		<stop  offset="0" style="stop-color:#3EABC5"/>
		<stop  offset="1" style="stop-color:#051A22"/>
	</linearGradient>
	<path style="fill:url(#SVGID_00000036222094273323306360000007728199235614192558_);" d="M624,277.1c-2.4-1.4-3.9-4-3.9-6.8V137.5
		C608.4,39.4,536.5,25.5,511,23.6v66.9c39.6,24.9,38.2,65.7,38.2,65.7V300c0,10.7,5.8,20.4,15.2,25.6l8.6,4.8l78.3-36.9L624,277.1z"
		/>
	
		<linearGradient id="SVGID_00000115499897679308145050000018287599313951496084_" gradientUnits="userSpaceOnUse" x1="320.682" y1="392.6096" x2="772.1373" y2="277.5328" gradientTransform="matrix(1 0 0 1 0 160.11)">
		<stop  offset="0" style="stop-color:#051A22"/>
		<stop  offset="1" style="stop-color:#3EABC5"/>
	</linearGradient>
	<path style="fill:url(#SVGID_00000115499897679308145050000018287599313951496084_);" d="M794.2,431.6c-1.1-11.3-3.9-22.2-8.3-32.3
		c-3.5-8.1-7.9-15.9-13.2-23.1c-5.8-7.8-12.5-14.9-20.2-21.2c-0.8-0.6-1.4-1.1-2.1-1.6c-2.3-1.8-4.6-3.5-7.1-5.1
		c-3-2-6.3-3.9-9.4-5.8c0,0,3.9,4.9,8.5,13.2c7.5,13.2,11.8,25.4,13.5,36.9c7.8,49.6-30.6,80.2-30.6,80.2c-0.4,0.3-0.6,0.5-1,0.8
		c-5.4,4-33.7,22.7-70.8,12.9c-7.3-1.9-14-4.9-20.6-8.5c-40-22.6-80.1-45.1-120.1-67.7c-7.4-4.1-16.4-4.3-23.9-0.1
		c-1.5,0.9-6.3,3.4-12,6.5v78.1c4-2.3,7.9-4.4,11.9-6.6c7.5-4.3,16.8-4.3,24.3,0.1c39.5,22.6,79,45,118.6,67.6
		c0,0,82.7,29.2,133.7-33.8c7.9-9.8,15-21.7,20.9-36.2c0.5-1.3,1-2.6,1.4-3.9c0.4-1,0.8-2.1,1-3.1c0.4-1.4,0.9-2.8,1.3-4
		c0.3-0.9,0.5-1.9,0.8-2.8c0.6-2.3,1.1-4.4,1.5-6.6c0.5-2.6,0.9-5.1,1.3-7.6C794.8,448.8,795.1,440.1,794.2,431.6z"/>
	
		<linearGradient id="SVGID_00000021093511357611432740000005129731020670237590_" gradientUnits="userSpaceOnUse" x1="276.9" y1="321.3549" x2="794.8009" y2="321.3549" gradientTransform="matrix(1 0 0 1 0 160.11)">
		<stop  offset="0" style="stop-color:#051A22"/>
		<stop  offset="1" style="stop-color:#3EABC5"/>
	</linearGradient>
	<path style="fill:url(#SVGID_00000021093511357611432740000005129731020670237590_);" d="M445.8,433.5c-1.4,0.8-13.3,7.1-14.8,8
		c-26.7,14.5-29.6,16.2-45.6,24.8c-4.6,2.5-10.4,5.6-18.3,9.9s-16.4,7.5-25.1,9.3c-4.6,1-9.4,1.6-14.3,1.8c-3.9,0.1-7.9,0-11.9-0.4
		c-7.1-0.8-14.9-2.4-22.9-5.6c-5-2-10.2-4.6-15.3-7.9l-0.1-0.1l0,0l0,0l-0.1-0.1l-0.1-0.1c-0.1,0-0.1-0.1-0.3-0.1l-0.1-0.1l0,0l0,0
		l0,0l0,0l0,0l0,0c0,0,0.1,0.8,0.3,2c0.5,2.8,1.6,8.3,4.1,15c1,2.8,2.1,5.6,3.6,8.8c6,12.5,16.2,27,33.5,36.6
		c16.2,9.2,38.6,14,69.6,9.3c9.7-5.4,19.2-10.8,28.8-16.2c1.5-0.9,3-1.6,4.5-2.5c18.6-10.4,37.2-20.8,55.8-31.3v-78.1
		C465.3,422.8,449,431.7,445.8,433.5z"/>
	
		<linearGradient id="SVGID_00000160150085081705058940000009960422445766977157_" gradientUnits="userSpaceOnUse" x1="310.2333" y1="351.6187" x2="761.6886" y2="236.5419" gradientTransform="matrix(1 0 0 1 0 160.11)">
		<stop  offset="0" style="stop-color:#051A22"/>
		<stop  offset="1" style="stop-color:#3EABC5"/>
	</linearGradient>
	<path style="fill:url(#SVGID_00000160150085081705058940000009960422445766977157_);" d="M445.8,433.5c-1.4,0.8-13.3,7.1-14.8,8
		c-26.7,14.5-29.6,16.2-45.6,24.8c-4.6,2.5-10.4,5.6-18.3,9.9s-16.4,7.5-25.1,9.3c-4.6,1-9.4,1.6-14.3,1.8c-3.9,0.1-7.9,0-11.9-0.4
		c-7.1-0.8-14.9-2.4-22.9-5.6c-5-2-10.2-4.6-15.3-7.9l-0.1-0.1l0,0l0,0l-0.1-0.1l-0.1-0.1c-0.1,0-0.1-0.1-0.3-0.1l-0.1-0.1l0,0l0,0
		l0,0l0,0l0,0l0,0c0,0,0.1,0.8,0.3,2c0.5,2.8,1.6,8.3,4.1,15c1,2.8,2.1,5.6,3.6,8.8c6,12.5,16.2,27,33.5,36.6
		c16.2,9.2,38.6,14,69.6,9.3c9.7-5.4,19.2-10.8,28.8-16.2c1.5-0.9,3-1.6,4.5-2.5c18.6-10.4,37.2-20.8,55.8-31.3v-78.1
		C465.3,422.8,449,431.7,445.8,433.5z"/>
	
		<linearGradient id="SVGID_00000168795748288545406460000004309762719088584596_" gradientUnits="userSpaceOnUse" x1="229.5951" y1="115.3067" x2="594.3001" y2="515.4201" gradientTransform="matrix(1 0 0 1 0 160.11)">
		<stop  offset="0.1296" style="stop-color:#283337"/>
		<stop  offset="1" style="stop-color:#5DBBAE"/>
	</linearGradient>
	<path style="fill:url(#SVGID_00000168795748288545406460000004309762719088584596_);" d="M500,603h-2.3c-48.6-24.2-47-70.6-47-70.6
		V388.6c0-10.7-5.8-20.4-15.2-25.6l-13.2-7.3l-68.6,42.5l22.1,13.2c2.4,1.4,3.9,4,3.9,6.8V551c14.2,119.5,117.8,114.2,117.8,114.2
		h2.3c0,0,103.7,5.3,117.8-114.2v-3.4l-2.1-1.3C583.2,629.6,500,603,500,603z"/>
</g>
<g>
	<path class="st18" d="M696.1,798.6c0-15.8,0-31.6,0-47.4c0-2.6,0.7-3.8,3.4-3.8c16,0.2,32-0.3,47.9,0.7
		c16.6,1.1,30.4,8.3,39.8,22.7c5.5,8.5,7.5,17.9,7.5,27.9c0,7.7-1.1,15.3-4.4,22.3c-4.9,10.6-12.7,18.4-23.3,23.3
		c-9.3,4.3-19,5.8-29.1,5.8c-12.6,0.1-25.1,0-37.7,0c-3.9,0-4.2-0.4-4.1-4.3C696.2,830.2,696.2,814.4,696.1,798.6L696.1,798.6z
		 M725.7,798.6C725.7,798.6,725.8,798.6,725.7,798.6c0,7.3,0.1,14.6,0,21.9c0,2.5,0.9,3.5,3.5,3.4c3.5-0.2,7.1,0.2,10.5-0.2
		c3.7-0.4,7.6-1,11-2.4c8.6-3.7,13.1-10.6,13.8-20c0.9-13-5.2-23.6-18.5-26.1c-5.4-1-11-0.9-16.5-1.1c-3.4-0.1-3.8,0.3-3.8,3.8
		C725.7,784.7,725.7,791.7,725.7,798.6z"/>
	<path class="st18" d="M355.6,798.7c0-15.9,0-31.8,0-47.7c0-2.4,0.7-3.7,3.3-3.6c16.5,0.1,33.1-0.1,49.6,0.5
		c8.5,0.3,16.5,3.2,23,9.1c8.5,7.7,11.8,17.6,11.2,28.9c-0.4,8.1-2.3,15.7-7.9,21.9c-1.9,2.2-4.2,4.1-6.5,5.9c-1.7,1.4-2,2.7-1,4.5
		c5.3,9.5,10.5,19,15.8,28.5c1.3,2.3,0.9,3.3-1.7,3.4c-9.3,0.1-18.7,0.1-28-0.1c-1.3,0-3-1.5-3.7-2.7c-4.1-7.7-8-15.6-11.8-23.4
		c-1-2.1-2.5-3.1-4.8-2.9c-0.6,0.1-1.3,0.1-1.9,0c-6.8-0.6-6,1-6,6.1c0,6.6,0,13.3,0,19.9c0,2.2-0.8,3.2-3.1,3.1
		c-7.7-0.1-15.3,0-23,0c-3.1,0-3.6-0.5-3.6-3.8C355.6,830.5,355.6,814.6,355.6,798.7L355.6,798.7z M384.9,784.4L384.9,784.4
		c0,3.4,0,6.8,0,10.2c0,1.6,0.6,3,2.5,2.9c4.4-0.1,8.9,0.1,13.3-0.4s8.6-1.8,10.7-6.3c4.5-9.6-0.9-18.7-11.5-19.1
		c-4-0.2-8.1,0-12.2-0.1c-2,0-2.9,0.8-2.8,2.8C384.9,777.8,384.9,781.1,384.9,784.4z"/>
	<path class="st18" d="M297.6,850.3c-4.2,0-8.3-0.1-12.5,0c-2,0.1-3.2-0.7-3.9-2.4c-1.1-2.8-2.2-5.7-3.2-8.5
		c-0.8-2.4-2.1-3.6-4.8-3.5c-9.5,0.1-19,0-28.5,0c-2.4,0-3.9,0.8-4.6,3.3c-0.9,3.2-2.2,6.3-3.7,9.2c-0.4,0.9-1.9,1.8-3,1.9
		c-8.5,0.1-17,0.1-25.5,0c-2.7,0-3.3-0.9-2.2-3.5c5.1-13,10.3-26,15.4-39c3.8-9.7,7.3-19.5,11.1-29.2c3-7.6,6-15.2,9.1-22.8
		c0.8-2.1,1.4-4.2,2.5-6.1c0.6-1,2-2,3.1-2c8.1-0.2,16.2-0.1,24.4-0.1c1.7,0,2.7,0.5,3.4,2.2c2.4,6.4,5,12.7,7.5,19
		c3.1,8,6.2,16,9.3,24c3.8,9.9,7.5,19.8,11.4,29.7c3,7.8,6.1,15.6,9.3,23.3c1.6,3.8,1.2,4.6-2.8,4.6
		C305.3,850.2,301.5,850.2,297.6,850.3C297.6,850.2,297.6,850.3,297.6,850.3z M259.3,783.2c-0.8,1.6-1.4,2.4-1.7,3.3
		c-3,8.2-6,16.4-9,24.6c-0.7,1.9-0.1,2.9,2,2.9c5.8,0,11.6,0,17.4,0c1.9,0,2.4-1,1.8-2.7c-2.7-7.4-5.4-14.9-8.1-22.3
		C261,787.3,260.3,785.6,259.3,783.2z"/>
	<path class="st18" d="M604.8,772.2c-1.5-0.2-2.4-0.3-3.2-0.3c-9.7,0-19.4,0-29.1,0c-3.8,0-4-0.3-4-4.2c0-5.5,0-11.1,0-16.6
		c0-3.3,0.2-3.6,3.7-3.6c21.9,0,43.8,0,65.7,0c3.3,0,3.7,0.4,3.7,3.6c0,4.3,0.2,8.7-0.1,13c-0.1,1.6-0.6,3.6-1.7,4.7
		c-5.4,5.5-10.9,10.7-16.5,16c-2.4,2.2-2.4,3.3,0.8,4.2c5.1,1.3,9.1,4.3,12.9,7.7c8,7,10.3,16.1,9.3,26.3
		c-1.1,11-6.5,19.4-16.5,24.2c-4.5,2.2-9.5,3.8-14.4,4.5c-8.6,1.3-17.4,1-25.7-1.8c-9.2-3.2-16.6-9-20.6-18.1
		c-1.7-3.8-2.2-8.1-3-12.3c-0.4-2.1,0.9-3.1,2.9-3.1c7.2,0,14.4,0,21.6,0.1c1.8,0,3.3,0.7,3.7,2.6c1.1,4.8,4.5,6.9,9,7.7
		c5.9,1.1,11.6-1.2,14.1-5.3c3.8-6.1-0.4-14.9-8.7-15.5c-5.7-0.4-11.4-0.2-17.2-0.2c-3.5,0-4-0.5-4-4c0-3.2-0.3-6.5,0.1-9.7
		c0.2-1.6,1.1-3.3,2.3-4.5c4-4.2,8.3-8.2,12.4-12.3C603,774.6,603.7,773.6,604.8,772.2z"/>
	<path class="st18" d="M490.6,798.9c0-15.8,0-31.6,0-47.4c0-3.6,0.4-4.1,3.9-4.1c7.5,0,15,0.1,22.4,0c2.5,0,3.4,0.7,3.4,3.3
		c-0.1,31.9,0,63.9-0.1,95.8c0,3.4-0.3,3.7-3.6,3.7c-7.4,0-14.8,0-22.2,0c-3.6,0-3.9-0.4-3.9-4C490.6,830.5,490.6,814.7,490.6,798.9
		L490.6,798.9z"/>
	<path class="st18" d="M269.8,902.9c0.1-0.1,0.6-0.4,1.1-0.6c0.4-0.2,0.9-0.1,1.4-0.1c11-0.2,7.6-0.3,11.9,10.3
		c2.3,5.8,4.2,11.8,6.2,17.7c0.1,0.4,0.5,0.7,1.1,1.5c0.8-1.4,1.6-2.5,2-3.7c1.7-4.8,3.2-9.6,4.9-14.3c1.1-3.2,2.5-6.3,3.7-9.5
		c0.2-0.4,0.4-0.9,0.7-1.2c1.3-1.4,9.3-1.1,11.1,0.7c-4.6,0.8-3.5,4.3-3.5,7.2c0,7.6-0.1,15.1,0,22.7c0,3.2-1.5,7.4,4.5,7.9
		c-0.2,0.3-0.3,0.5-0.5,0.8c-0.8,0.3-1.6,0.8-2.5,0.8c-3.6,0.1-7.2,0.1-10.8,0c-0.7,0-1.4-0.5-2.2-0.8c0.6-0.5,1.3-0.9,1.9-1.5
		c0.8-0.9,2-1.8,2-2.8c0.2-7.8,0.2-15.5,0.1-23.3c0-0.8-0.6-1.6-1-2.4c-0.5,0.7-1.3,1.4-1.6,2.2c-2.6,7.1-5.2,14.3-7.8,21.5
		c-0.7,1.9-2.1,2.3-3.9,2.3c-2-0.1-3.4-0.8-4.1-2.7c-2.1-6.1-4.2-12.2-6.3-18.3c-0.7-2-1.7-4-2.5-6c-0.3,0-0.5,0.1-0.8,0.1
		c-0.1,0.9-0.4,1.8-0.4,2.7c0,7.2,0.2,14.4,0,21.6c-0.1,3.2,0.9,5.3,4.5,5.9c-0.1,0.2-0.2,0.4-0.3,0.7c-0.6,0.3-1.2,0.8-1.8,0.8
		c-2.3,0.1-4.6,0.1-6.9,0c-0.6,0-1.1-0.7-1.6-1.1c0.5-0.4,0.9-1,1.4-1.1c2-0.2,2.3-1.5,2.3-3.2c0-10.1,0.2-20.1,0.1-30.2
		C272.3,906,270.8,904.6,269.8,902.9z"/>
	<path class="st18" d="M388,902.7c0.7-0.2,1.4-0.6,2.2-0.6c6.1,0.1,12.2,0.1,18.3,0.3c4.2,0.2,8.2,3.5,9.1,7
		c1.4,5.8,0,10.2-4.4,12.8c-2.1,1.2-2.2,2.4-1.2,4.3c1.9,3.6,3.7,7.2,5.8,10.7c0.9,1.4,2.6,2.4,3.9,3.5c0.4,0.4,0.8,0.8,1.3,1.2
		c-0.6,0.3-1.1,1-1.7,1c-2.5,0.1-5,0.1-7.5-0.2c-0.9-0.1-2-1-2.4-1.8c-2.1-3.9-3.9-7.9-5.9-11.9c-0.5-1-0.8-2.2-1.6-2.9
		c-1-0.8-2.4-1.5-3.5-1.4c-0.7,0.1-1.5,1.9-1.5,3c-0.2,3,0,6.1,0,9.1c0,2.1,0.3,3.7,2.8,3.9c0.4,0,0.7,0.6,1.1,1
		c-0.4,0.4-0.7,1-1.1,1c-4.5,0-9-0.1-13.5-0.2c-0.2,0-0.4-0.4-0.6-0.6c0.1-0.3,0.1-0.7,0.3-0.7c3.8-0.6,3.6-3.3,3.6-6.2
		c-0.1-9.2-0.2-18.5,0-27.7c0.1-2.7-1.9-3-3.5-3.9C387.9,903.3,387.9,903,388,902.7z M398.7,913C398.7,913,398.6,913,398.7,913
		c0,2-0.2,4.1,0,6.1c0.1,1,0.6,2.3,1.3,2.8c2.8,2,9.3-0.5,9.7-3.9c0.5-3.3,0.4-6.8-0.1-10.1c-0.4-3.2-7.8-5.2-10.2-3
		c-0.5,0.5-0.7,1.5-0.7,2.2C398.6,909.1,398.7,911.1,398.7,913z"/>
	<path class="st18" d="M613.4,922.7c-0.6,3.4-0.7,7-1.9,10.3c-2.9,7.8-7.4,10.5-15.7,10.3c-7.7-0.2-13.1-4.7-14.6-12.9
		c-1.2-6.4-1.2-12.8,1-19.1c2.6-7.3,9-10,16.3-9.5c9.7,0.7,13.8,8,14.2,15.7c0.1,1.8,0.2,3.5,0.3,5.3
		C613.2,922.7,613.3,922.7,613.4,922.7z M588.6,922.2c-0.1,0-0.2,0-0.4,0c0.2,4,0.1,8,0.6,11.9c0.6,4.6,3.7,6.9,8.6,6.8
		c4.4-0.1,7.3-2.7,7.5-7.3c0.2-7.5,0.3-15.1-0.1-22.7c-0.1-2-1.5-4.8-3.2-5.7c-6.1-3.5-12.7-0.4-13,7
		C588.5,915.6,588.6,918.9,588.6,922.2z"/>
	<path class="st18" d="M643.3,910c-0.2,0.9-0.5,1.9-0.5,2.8c0,7.9,0,15.9,0,23.8c0,2,0,4,2.8,4.3c0.4,0,0.7,0.7,1,1.1
		c0.1,0.2-0.4,0.8-0.6,0.8c-3.2,0-6.5,0.8-9.6-0.4c0.1-0.5,0.1-0.8,0.2-0.9c3.8-1.1,3.8-4,3.7-7.2c-0.1-8,0-16.1,0.2-24.1
		c0.1-2.9-0.3-5.4-3.5-6.9c0.1-0.2,0.3-0.4,0.4-0.7c1-0.2,2-0.6,3-0.7c1.6-0.1,3.1,0.1,4.7,0.1c2,0,3.3,0.8,4.4,2.7
		c4.5,7.7,9.3,15.3,14,22.9c0.1,0.2,0.4,0.3,1.2,0.9c0.3-1.3,0.8-2.3,0.8-3.3c0.1-5.9,0.2-11.8-0.1-17.7c-0.1-1.6-1.6-3.1-2.5-4.7
		c1.6-1.2,5.7-1.2,8.3,0.5c-5.1,2.4-3.2,6.9-3.3,10.6c-0.2,8.8,0.1,17.5,0,26.3c0,0.8-0.9,2.3-1.3,2.3c-1-0.1-2.4-0.5-3-1.3
		c-2.9-4.4-5.6-8.9-8.4-13.4c-3.4-5.6-6.8-11.2-10.2-16.8c-0.3-0.5-0.5-0.9-0.8-1.4C644,909.8,643.6,909.9,643.3,910z"/>
	<path class="st18" d="M442.7,902.7c0.7-0.1,1.6-0.5,2.6-0.6c7.1-0.1,14.2-0.1,21.3-0.1c3.1,0,3.6,0.6,3.6,3.8
		c0,1.9-0.2,3.8-0.4,5.6c-0.5,0-0.9,0.1-1.4,0.1c-0.4-1.1-0.8-2.2-1.1-3.4c-0.8-3.2-1.7-4-5-4c-2.1,0-4.2,0-6.4,0
		c-1.9,0-3,0.8-2.9,2.8c0,3.7,0,7.4,0,11.1c0,0.5,0.1,1.5,0.3,1.5c2.3,0.5,4.6,1.1,6.8,1c1,0,2.2-1.3,3-2.3c0.5-0.6,0.3-1.7,0.7-2.3
		c0.2-0.3,1.8-0.1,1.8-0.1c0.3,4.2,0.6,8.5-0.1,12.6c-0.3,0.1-0.7,0.1-1,0.2c-0.4-0.9-0.9-1.7-1.2-2.6c-0.9-2.9-3.1-3.9-7.8-3.3
		c-2.9,0.3-2.5,2.5-2.6,4.4c-0.1,3.4,0.1,6.8,0,10.2c-0.1,2,0.7,3,2.7,3c2.8,0,5.5,0,8.3,0c2.2,0,3.4-1.1,3.7-3.3
		c0.1-0.7,0.2-1.5,0.6-2.1c0.3-0.5,1-0.9,1.6-1.3c0.4,0.6,1,1.1,1.1,1.7c0.1,1.6,0.1,3.3,0,5c-0.2,2.2-1.8,2.3-3.5,2.3
		c-6.4,0-12.7,0-19.1,0c-1.7,0-3.3,0.1-5,0.1c-0.5,0-1-0.6-1.5-0.9c0.4-0.4,0.8-1.1,1.2-1.2c2.3-0.2,2.5-1.7,2.5-3.5
		c0-10,0.1-19.9-0.1-29.9C445.5,905.9,443.8,904.5,442.7,902.7z"/>
	<path class="st18" d="M335.9,941.5c0.6-0.3,1.4-0.4,1.9-0.8c0.8-0.7,2-1.7,2-2.5c0.2-10.3,0.2-20.6,0.1-31c0-1.3-1.6-2.7-2.7-4.3
		c0.6-0.2,1.4-0.7,2.1-0.7c5.9,0.1,11.8,0,17.7,0.5c5.8,0.5,9.8,5.4,9.6,11.5c-0.1,5.2-3.4,10.3-9.3,11c-2.3,0.3-4.6,0.3-6.9,0.3
		c-2.2,0-3.3,1.1-3.4,3.1c-0.1,3.2,0,6.5,0,9.7c0,2.1,1.5,2.4,3.2,2.6c0.7,0.1,1.3,0.7,2,1c-0.7,0.4-1.4,1.2-2.1,1.2
		c-4.1,0.1-8.1,0.1-12.2,0c-0.7,0-1.4-0.4-2.2-0.6C335.9,942.1,335.9,941.8,335.9,941.5z M347,913.8L347,913.8
		c0.1,2.2-0.1,4.4,0.1,6.6c0.1,1,0.8,2.4,1.7,2.9c3.3,1.7,8.4-0.5,9.3-4.1c0.6-2.4,0.9-4.9,0.7-7.3c-0.4-6.1-3.2-8.2-9.2-7.5
		c-1.8,0.2-2.6,1.1-2.6,2.9C347,909.4,347,911.6,347,913.8z"/>
	<path class="st18" d="M719.9,911.8c-0.7-1.5-1.5-3-2-4.6c-0.6-2-1.7-2.9-3.7-2.9c-2.5,0-5,0-7.5,0c-2,0-3.1,1-3,3.1
		c0,3.7,0,7.4,0.1,11.1c0,0.5,0.1,1.2,0.4,1.6c1.2,1.8,8.7,1.1,9.7-0.9c0.6-1.2,1.3-2.4,2-3.6c0.3,0.1,0.5,0.2,0.8,0.3
		c0,4.2,0,8.4,0,12.6c-0.3,0.1-0.6,0.2-0.9,0.3c-0.6-1-1.4-2-1.9-3.1c-1.3-2.4-3.9-3.2-8-2.4c-2.6,0.5-2.1,2.7-2.1,4.4
		c-0.1,3.4,0,6.8,0,10.2c-0.1,2,0.8,2.9,2.8,2.9c2.2,0,4.4,0,6.6,0c4.1,0,4.6-0.4,5.9-4.3c0.4-1.1,1.3-2.1,1.9-3.2
		c0.3,1.3,0.9,2.5,0.9,3.8c-0.1,6.2,0.8,6-6,6c-6.7,0.1-13.5,0-20.2-0.1c-1,0-2-0.3-3-0.5c0.1-0.6,0.1-0.9,0.2-0.9
		c4.1-0.8,4.1-3.7,4-7.1c-0.2-8-0.1-16.1,0-24.1c0-2.8,0.6-5.7-3.5-6.7c0.2-0.3,0.3-0.6,0.5-0.8c1.2-0.3,2.5-0.7,3.7-0.7
		c6.5-0.1,13.1,0,19.6,0c3.6,0,4.4,0.8,4.4,4.4c0,1.7,0,3.4,0,5.1C720.9,911.6,720.4,911.7,719.9,911.8z"/>
	<path class="st18" d="M756.7,943.2c-4.8,0.6-9-1.6-12-6.2c-0.5-0.7-1-1.8-0.8-2.5c0.2-0.8,1.1-1.7,1.9-2c0.4-0.2,1.7,0.7,1.9,1.3
		c3,8,7.5,7.7,13.1,6.7c1.9-0.3,3.9-3.1,4.7-5.1c0.9-2.5-0.6-5.3-3-6.6c-2.9-1.6-6.2-2.7-9.4-3.8c-5.9-2-9.9-7.9-8.8-13.1
		c1.5-7.1,6.8-11.1,13.7-10.6c4.9,0.4,9.3,1.8,11.4,6.8c1.6,3.7,0.4,6-3.1,6.4c-2.2,0.2-3.3-0.4-3.1-2.9c0.2-2.8-0.6-5.3-3.2-6.9
		c-3.4-2-7.4-1.1-9.4,2.1c-1.7,2.7-0.5,8.1,2.6,9.8c3,1.6,6.3,3,9.7,3.9c6.5,1.8,9.6,8.5,7.7,14
		C768.3,940.5,765.2,942.9,756.7,943.2z"/>
	<path class="st18" d="M507,943.2c-5.4,0.4-9.5-1.8-12.3-6.4c-0.5-0.9-0.8-2.1-0.6-3.1c0.1-0.6,1.3-1.3,2.1-1.4
		c0.5-0.1,1.3,0.8,1.6,1.5c2.3,6.3,7.1,9,13.3,6.7c1.9-0.7,3.8-3.1,4.4-5.1c0.8-2.7-0.7-5.4-3.2-6.8c-2.7-1.5-5.7-2.4-8.7-3.5
		c-6.6-2.3-10.6-8.2-9.1-13.8c1.9-7.4,8-11.2,15.5-9.8c4,0.7,7.3,2.3,9.3,6.1s0.5,6.8-3.5,6.9c-1.9,0.1-2.7-0.6-2.5-2.6
		c0.2-2.9-0.5-5.5-3.1-7.2s-5.2-1.6-7.7,0.3c-2.3,1.7-3,4.3-2.2,7.2c1.1,3.5,3.4,5.5,6.9,6.5c2.6,0.8,5.3,1.5,7.8,2.7
		c4.5,2.1,7,6.7,6.2,11c-1.1,6.2-4.6,9.8-10,10.5C509.8,943.1,508.4,943.1,507,943.2z"/>
	<path class="st18" d="M542.7,903.7c3-2,12.4-2,14.3-0.6c0,0.1,0,0.2,0,0.3c-3.7,1.5-3.3,4.7-3.3,7.8c0,8.7,0.1,17.3,0.1,26
		c0,2.2,0.5,3.6,2.9,3.8c0.4,0,0.7,0.7,1,1.1c-0.4,0.3-0.7,1-1.1,1c-4.3,0.1-8.7,0-13,0c-0.4,0-0.8-0.6-1.1-0.8
		c0.1-0.3,0.1-0.5,0.1-0.5c4.3-1,3.7-4.4,3.7-7.5c0-7.9,0-15.9,0-23.8C546.4,907.6,547.3,904.5,542.7,903.7z"/>
	<path class="st18" d="M231.2,942.1c0.1-0.4,0.2-0.7,0.2-0.7c4.2-0.8,3.9-4.1,3.8-7.2c-0.1-7.7,0-15.5,0-23.2c0-2.9,1-6.2-3.2-7.3
		c2.1-2.1,11.4-2.1,13.7-0.2c-4.7,1.4-3.5,5.2-3.5,8.4c-0.1,8.2,0.1,16.4,0,24.6c0,2.4,0.3,4.2,3.1,4.5c0.3,0,0.5,0.4,0.8,0.6
		C244.8,943.2,233.7,943.5,231.2,942.1z"/>
</g>
</svg>
