<?xml version="1.0" encoding="utf-8"?>
<!-- Generator: Adobe Illustrator 28.0.0, SVG Export Plug-In . SVG Version: 6.00 Build 0)  -->
<svg version="1.1" id="Capa_1" xmlns="http://www.w3.org/2000/svg" xmlns:xlink="http://www.w3.org/1999/xlink" x="0px" y="0px"
	 viewBox="0 0 1000 1000" style="enable-background:new 0 0 1000 1000;" xml:space="preserve">
<style type="text/css">
	.st0{fill:#253F9E;}
	.st1{fill:#E7831F;}
	.st2{fill:#FFFFFF;}
</style>
<g>
	<g>
		<path class="st0" d="M748.2,258.7H688c-48.5,0-87.8,39.3-87.8,87.8v87.8h96.6v-94c0-9.5,7.7-17.1,17.1-17.1
			c9.5,0,17.1,7.7,17.1,17.1V686c0,9.5-7.7,17.1-17.1,17.1c-9.5,0-17.1-7.7-17.1-17.1V565h-96.6v108.5c0,48.5,39.3,87.8,87.8,87.8
			h60.2c48.5,0,87.8-39.3,87.8-87.8V346.4C836,298,796.7,258.7,748.2,258.7z"/>
	</g>
	<g>
		<path class="st0" d="M87.8,258.7H148c48.5,0,87.8,39.3,87.8,87.8v87.8h-96.6v-94c0-9.5-7.7-17.1-17.1-17.1s-17.1,7.7-17.1,17.1
			V686c0,9.5,7.7,17.1,17.1,17.1s17.1-7.7,17.1-17.1V565h96.6v108.5c0,48.5-39.3,87.8-87.8,87.8H87.8C39.3,761.3,0,722,0,673.6
			V346.5C0,298,39.3,258.7,87.8,258.7z"/>
	</g>
	<g>
		
			<ellipse transform="matrix(0.9732 -0.2298 0.2298 0.9732 -95.5939 157.0606)" class="st1" cx="626.5" cy="488.9" rx="15.4" ry="15.4"/>
		<path class="st1" d="M611,507.9c-0.7,0.1-1.5,0.2-2.2,0.2c-8.5,0-15.4-6.9-15.4-15.4c0-5.4,2.8-10.1,7-12.9l-0.2-0.6L507,492.6
			L405,154.8l-122.5,594l74.8,12.5l25.2-214.9l72.3-11.7L495.3,754l87.2-11.4l-65.8-217.8l94.8-15.3L611,507.9z M386.7,510
			l24.6-209.8L448.5,501L386.7,510z"/>
	</g>
	<g>
		<path class="st2" d="M227.3,771.8c3,0,5.7,5.7,5.9,8.7c0.3,5.2-2.8,14-9.3,24.9c15.2-22.8,27.3-31.5,29.7-31.7l0,0
			c1,0,4.6,2.3,4.8,6.3c0.2,3.1-3.5,12.4-12,27.4c18.1-22.5,30-33.2,32.9-33.3c0,0,0,0,0.1,0c2,0,4.7,5.2,4.8,7.5
			c0.1,2.6-3.3,5.9-8.7,13.6c-9.5,13.8-13.9,24.1-13.5,30.9c0.1,2.4,0.6,3.3,2.3,3.3c0.1,0,0.2,0,0.3,0c2.1-0.1,8.4-3.6,15.6-11.4
			l0.2,3.8c-9,11.5-18.3,16.6-22,16.8c-0.1,0-0.2,0-0.3,0c-4,0-6.6-4.2-7-11.6c-0.4-6.7,5.1-19.5,18-35.6
			c-10.5,9.5-19.1,20.5-27.4,32.1c-6.3,8.7-9.6,13.4-11.3,13.5l0,0c-1,0-3-4.2-3.3-8.4c-0.4-7.8,12.5-19.8,21.6-44.3
			c-8.7,6.9-16.8,17.8-25.7,32.5c-7.1,12-10,18.5-12.8,18.7c0,0,0,0-0.1,0c-1.7,0-4.3-4-4.5-8.3c-0.2-3.8,4-8.5,9.5-17.9
			c7.9-13.7,11.3-22.4,11.1-25.2c0-0.5-0.7-1-1.4-1h-0.1c-1,0.1-4.4,2-10.2,5.8c-5.1,3.3-8.2,5.7-10,5.8c-0.1,0-0.1,0-0.2,0
			c-1.2,0-1.6-0.6-1.7-1.8c-0.2-3.5,0.9-9.1,2.7-12c2.3-3.5,6.2-6.1,6.7-6.1l0,0c0.3,0,0.5,0.4,0.5,0.4c0,0.2-0.3,0.9-1.1,1.8
			l-2.9,3.2c10-5.9,16.7-8.5,18.7-8.6C227.2,771.8,227.2,771.8,227.3,771.8 M227.3,765.9c-0.2,0-0.3,0-0.5,0
			c-2.6,0.1-7,1.8-11.6,4.1c-1-0.6-2.1-0.9-3.2-0.9h-0.2h-0.2c-3.7,0.2-9.1,5.3-11.4,8.8l0,0l0,0c-2.7,4.3-3.8,11.2-3.6,15.4
			c0.2,4.3,3.4,7.4,7.6,7.4c0.2,0,0.3,0,0.5,0c3-0.2,5.7-1.9,9.6-4.6c0.5-0.3,1.1-0.7,1.7-1.1c-1.5,3.1-3.5,6.8-6.1,11.4
			c-1.7,2.9-3.2,5.3-4.6,7.4c-3.5,5.4-6,9.3-5.7,13.8c0.3,5.8,4.1,13.9,10.4,13.9c0.1,0,0.3,0,0.4,0c4.5-0.3,7.1-3.6,10.9-10.1
			c0.8,4.6,3.1,11.6,8.9,11.6h0.2h0.2c4.3-0.2,6.8-3.5,14.6-14.3c1.3,14.7,10.1,15.9,12.8,15.9c0.2,0,0.4,0,0.7,0
			c5.8-0.3,16.5-6.4,26.4-19.1l1.4-1.7l-0.1-2.2l-0.2-3.8l-0.8-14l-9.5,10.3c-2.7,2.9-5.1,5.1-7.1,6.6c1.3-4.5,4.4-11.5,11.7-22.1
			c1.6-2.3,3-4.2,4.3-5.9c3.4-4.5,5.6-7.4,5.4-11.4c-0.2-3.9-4.1-13.1-10.7-13.1c-0.1,0-0.3,0-0.4,0c-2.3,0.1-5.4,1-14.5,10
			c-0.1,0.1-0.1,0.1-0.2,0.2c-1-6-6.3-10.6-10.6-10.6h-0.2h-0.2c-3.4,0.2-8.6,3.8-14.6,9.8C237.4,772.5,233.5,765.9,227.3,765.9
			L227.3,765.9z"/>
		<path class="st2" d="M309.8,793.2c2,0,4.3,2.8,4.4,4.4c0,0.7-0.4,1-1.5,1.7l-1.5,1l1.7,3.1c0.3,0.6,0.6,1.2,0.7,1.7
			c0.1,2.5-6.4,9.1-6.1,14c0.1,1.3,0.9,2,2.4,2c0.1,0,0.2,0,0.3,0c2.9-0.2,6.6-3.5,12.3-9.4l0.3,3.8c-8.6,10.4-13.7,16.4-18,16.6
			c-0.1,0-0.2,0-0.3,0c-2.5,0-4.7-2-4.9-5.1c-0.1-2.2,0.7-4.9,1.7-8.9c-7.3,8.6-12.2,13-14.7,13.1l0,0c-2,0-7.5-6.7-7.8-12.4
			c-0.2-3.6,2.6-8.5,8-13.6c4-3.7,8.5-6.6,13.9-9c5-2.3,8.5-3,9.2-3.1C309.8,793.2,309.8,793.2,309.8,793.2 M307.4,802.3
			c-14.5,7.1-22.1,11.5-21.7,18.5c0.1,1.4,0.8,2.3,1.6,2.3c0,0,0,0,0.1,0C289.4,822.9,297.7,816.2,307.4,802.3 M309.8,787.3
			c-0.2,0-0.3,0-0.5,0c-1.9,0.1-6.1,1.2-11.3,3.6c-5.9,2.6-11,5.9-15.5,10l0,0l0,0c-4.7,4.5-10.2,11.2-9.8,18.2
			c0.3,4.9,2.8,9.2,4.3,11.4c3,4.4,6.2,6.6,9.4,6.6h0.2h0.2c2.3-0.1,4.7-1.1,8.5-4.3c1.9,3.1,5.3,5.2,9.1,5.2c0.2,0,0.4,0,0.6,0
			c7.1-0.4,12.8-7.3,22.2-18.8l1.5-1.8l-0.2-2.4l-0.3-3.8l-1.1-13.1l-7.8,8.2c0.1-0.5,0.1-1,0.1-1.5c-0.1-1.1-0.4-2.1-0.7-2.9
			c0.9-1.1,1.6-2.6,1.4-4.6C319.8,792.7,315.2,787.3,309.8,787.3L309.8,787.3z M309.5,815.2L309.5,815.2L309.5,815.2L309.5,815.2z"
			/>
		<path class="st2" d="M330.9,794.4c0.6,0,1.1,0.5,1.1,1.2c0,0.3-0.2,1.2-0.9,2.6l7.4-0.9c1.2-0.2,2.2-0.3,3.1-0.4
			c0.1,0,0.3,0,0.4,0c2.7,0,4.3,1.6,4.5,5.7c0.1,1.6-2,2.9-4.1,5.4c-3.7,4.3-5.3,8.8-5.2,10.5c0.1,1.7,0.9,2.6,2.3,2.6
			c0.1,0,0.1,0,0.2,0c2.1-0.1,6.2-4,13.2-11.2l0.2,3.9c-8.6,10.5-14.4,16.1-18.2,16.3c-0.1,0-0.2,0-0.3,0c-2.8,0-5.6-2.5-5.8-6.6
			c-0.3-5.5,2.6-10.5,8.2-16.9c-3.1,0.9-6,1.7-8.9,2.2c-4.2,5-7.3,8.8-9.7,10.9l-1.4-2.9l5.7-6.2c-1.5-0.8-2.3-1.9-2.3-3
			C320,802.5,327.5,794.6,330.9,794.4L330.9,794.4 M330.9,788.5L330.9,788.5L330.9,788.5c-0.1,0-0.3,0-0.4,0
			c-4.6,0.3-8.7,4.4-10.8,6.8c-2.1,2.5-5.6,7.4-5.3,12.6c0,0.8,0.2,1.6,0.5,2.4l-2.3,2.5l-2.7,2.9l1.7,3.6l1.4,2.9l3.3,7.1l5.9-5.1
			c0.2-0.2,0.4-0.4,0.7-0.6c0,0.1,0,0.2,0,0.3c0.4,7,5.4,12.2,11.7,12.2c0.2,0,0.4,0,0.6,0c5.6-0.3,11.5-5.2,22.4-18.5l1.5-1.8
			l-0.1-2.3l-0.2-3.9l-0.7-13.4l-5.6,5.7c-0.6-8.1-5.7-11-10.4-11c-0.2,0-0.5,0-0.7,0c-1,0.1-2,0.2-3.1,0.3l-0.4,0.1l-1.1,0.1
			C335.4,789.7,333.3,788.5,330.9,788.5L330.9,788.5z"/>
		<path class="st2" d="M382.6,766.2c1.1,0,1.9,0.9,2,2.1c0.2,3.4-9.4,18.7-29.9,44l-0.3,3.2c12.6-15.4,21.8-22.6,25.2-22.8
			c0.1,0,0.1,0,0.2,0c2.1,0,4.2,2.4,4.4,5.4c0.3,6.3-5.2,10.6-15.1,18.7c2,2.6,3.5,3.9,4.7,3.9h0.1c2.4-0.1,7.8-4.4,15.6-13.1
			l0.3,3.9c-8.5,10.9-14.6,16.6-18.6,16.8c-0.1,0-0.3,0-0.4,0c-4,0-7.1-3.6-10.9-10.8c-4.6,6.1-6.4,9.8-8,9.9h-0.1
			c-1.6,0-2.4-3-2.8-9.4c-0.5-9.4,3.8-18.3,13.1-31C372.4,773,380.7,766.2,382.6,766.2C382.6,766.2,382.6,766.2,382.6,766.2
			 M366.8,813.6c6.7-6,10.1-9.8,10-11.8c0-0.3-0.2-0.4-0.4-0.4c0,0,0,0-0.1,0c-1.3,0.1-6.7,3.7-13.4,11.8L366.8,813.6 M382.6,760.3
			c-0.1,0-0.3,0-0.4,0c-1.3,0.1-3.9,0.2-10.8,6.9c-3.1,3-8,8.2-14.1,16.4c-9,12.4-14.8,23-14.2,34.8c0.2,3.9,0.6,6.5,1.1,8.5
			c1.7,5.9,5.9,6.6,7.6,6.6c0.1,0,0.3,0,0.4,0c3.3-0.2,5.2-2.2,7.4-5.2c2.9,3.5,6.4,6.1,11.2,6.1c0.2,0,0.5,0,0.7,0
			c6.1-0.3,12.5-5.7,23-19.1l1.4-1.8l-0.2-2.3l-0.3-3.9l-1.1-13.6l-4.3,4.8c0-0.2,0-0.3,0-0.5c-0.3-5.5-4.1-10-8.8-10.8
			c0.4-0.6,0.7-1.1,1.1-1.6c7.8-11.7,8.3-15.1,8.2-17.4C390.3,763.6,386.9,760.3,382.6,760.3L382.6,760.3z"/>
		<path class="st2" d="M411.1,789.9c3.6,0,5.4,1.2,5.6,3.6c0.3,5.1-7.4,14.1-21.5,18.3c0,0.2,0,0.3,0,0.5c0.2,4,2.6,6.3,5.8,6.3
			c0.1,0,0.3,0,0.4,0c4.2-0.2,10.7-4.2,18.1-12.2l0.2,3.9c-8.4,10.2-15.2,15.7-22.2,16.1c-0.3,0-0.5,0-0.8,0
			c-5.9,0-9.5-3.8-9.9-11.4c-0.3-5.7,2.1-11.3,7.1-16.6c5.1-5.4,10.6-8.2,16.1-8.5C410.4,789.9,410.8,789.9,411.1,789.9 M395.4,808
			c9.8-5.2,14.7-9.7,14.6-12.2c0-0.7-0.2-1-0.7-1c0,0,0,0-0.1,0C406.9,795,399.5,798.9,395.4,808 M411.1,783.9c-0.4,0-0.9,0-1.4,0
			c-7.1,0.4-14,4-20.1,10.4c-6.2,6.5-9.1,13.6-8.7,21c0.7,12.5,8.6,17,15.8,17c0.4,0,0.7,0,1.1,0c8.4-0.5,16.3-5.9,26.4-18.3
			l1.4-1.8l-0.1-2.3l-0.2-3.9l-0.8-13.9l-2.1,2.3c0-0.4,0-0.8,0-1.2C422.3,788.7,419.2,783.9,411.1,783.9L411.1,783.9z"/>
		<path class="st2" d="M445.5,775.9c0.9,0,1.8,0.6,1.8,1.2c0,0.8-0.3,1.5-1,2.4l-3.5,4.6c3.1,0,4.7,0.6,4.8,1.4
			c0,0.3-1.6,3.9-5.1,7.6c-1.7,1.7-2.9,2.2-5.1,2.4c-0.8,0-1.5,0.1-2,0.1c-0.2,0-0.5,0-0.7,0c-5.3,7.4-7.3,14.8-7,19
			c0.1,1.7,0.9,2.5,2.3,2.5c0.1,0,0.1,0,0.2,0c2.5-0.1,7.6-4.2,15.5-12.2l0.3,3.8c-9.3,11.1-16.8,16.7-21.4,17c-0.2,0-0.3,0-0.5,0
			c-3.2,0-5.1-1.9-5.3-5.3c-0.2-2.8,0.6-6.5,2.6-10.8c-0.9,0.7-1.8,1.4-2.6,2.1l-0.3-3.7c3.6-4.3,7-8.6,9.9-12.9
			c-1.3-0.1-2.5-0.2-3.7-0.2c-0.4,0-0.7,0-1,0c-0.5,0-1.1,0.1-1.8,0.1h-0.1c-0.5,0-0.7-0.2-0.7-0.5c-0.1-1,2.8-6.2,5-8
			c1.5-1.2,4.5-1.8,9-2.1c3.6-5.6,4.8-8.3,10.4-8.6C445.5,775.9,445.5,775.9,445.5,775.9 M445.5,770c-0.1,0-0.3,0-0.4,0
			c-7.6,0.4-10.6,4.4-13.5,8.8c-4.3,0.5-7.2,1.5-9.3,3.1l0,0l0,0c-2.7,2.2-7.4,8.9-7.2,12.9c0.1,2,1.1,3.7,2.6,4.8
			c-1.2,1.5-2.4,3-3.8,4.6l-1.5,1.9l0.2,2.4l0.3,3.7l0.3,3.7c-0.3,1.7-0.4,3.3-0.3,4.8c0.4,6.5,4.9,10.9,11.2,10.9
			c0.3,0,0.5,0,0.8,0c6.8-0.4,15.4-6.8,25.7-19.1l1.5-1.8l-0.2-2.4l-0.3-3.8l-1-11.9c1.7-2.4,3.1-5.2,3-7.4
			c-0.1-1.1-0.4-2.5-1.4-3.8c0.7-1.2,1.2-2.8,1.1-4.7C453.1,773,449.7,770,445.5,770L445.5,770z M437.9,801.4
			c1.3-0.1,2.5-0.3,3.6-0.6l0,0c-2.6,2.6-4.6,4.5-6.3,6C435.8,805.1,436.7,803.3,437.9,801.4L437.9,801.4z"/>
		<path class="st2" d="M464.6,775.2c1.6,0,2.5,0.9,2.6,2.8c0.2,3.1-3.3,8.4-6.6,8.6c-0.1,0-0.1,0-0.2,0c-1.7,0-2.9-1.2-3-2.9
			c-0.2-3.9,3.5-8.2,6.9-8.4C464.4,775.2,464.5,775.2,464.6,775.2 M457.1,788.7c1.7,0,2.7,0.8,2.8,2.4c0.2,3-3.2,8.8-10.9,16.1
			c-0.2,1.1-0.4,2.1-0.3,3c0.1,2.4,1.9,4,4.2,4c0.1,0,0.2,0,0.3,0c2.6-0.1,7.6-3.5,14.1-10.6l0.3,3.9c-7.2,9.8-12.6,15.1-17.9,15.4
			c-0.2,0-0.3,0-0.4,0c-4.5,0-7.6-3.9-8-11.3c-0.4-6.7,2-11.9,7.7-18.2c2.6-2.9,4.7-4.6,7.6-4.8C456.9,788.7,457,788.7,457.1,788.7
			 M464.6,769.3c-0.2,0-0.4,0-0.6,0c-3.3,0.2-6.5,2-9,4.9c-2.4,2.8-3.6,6.4-3.5,9.7v0.1c-2.7,1.3-4.9,3.3-6.8,5.5
			c-6.9,7.6-9.7,14.3-9.2,22.5c0.7,12.4,7.6,16.9,13.9,16.9c0.3,0,0.5,0,0.8,0c8-0.4,14.7-7.4,22.3-17.8l1.3-1.8l-0.2-2.2l-0.3-3.9
			l-1.1-13.5l-9.1,9.9c1.8-3,2.9-6,2.7-8.8c4.4-2.8,7.5-8.5,7.3-13.1C472.8,772.7,469.4,769.3,464.6,769.3L464.6,769.3z"/>
		<path class="st2" d="M493.4,787.3c1.3,0,2.9,2.7,3.1,5.4c0.2,3.2-2.4,4.7-4.7,8.3c-3,4.5-4.2,8.3-4.2,9.3c0.1,1.2,0.6,1.8,1.7,1.8
			c0.1,0,0.1,0,0.2,0c1.6-0.1,5.5-3.7,12.2-10.5l0.2,4c-8.4,10.2-13.4,16.4-18.2,16.6c-0.1,0-0.2,0-0.2,0c-2.6,0-4.6-2.3-4.8-5.8
			c-0.2-3.7,2.1-9.1,6.9-16.5c-11.6,12-15,20.9-17.9,21h-0.1c-2.6,0-4.8-4.2-5.2-11.2c0-0.4-0.1-1.2,0-2.3
			c3.9-10.4,8.1-15.8,11.9-16c0.1,0,0.3,0,0.4,0c2.2,0,3.9,0.9,4,1.7c0.1,1.2-2.4,4.7-7.1,10.7c-1.5,1.8-2,3.8-2,5.5
			c0,0,0,0.1,0,0.2C481.5,794.3,490.8,787.5,493.4,787.3L493.4,787.3 M493.4,781.4c-0.1,0-0.3,0-0.4,0c-3,0.2-7,2.6-11.3,6.3
			c-1.8-1.4-4.3-2.2-7.1-2.2c-0.3,0-0.5,0-0.8,0c-6.7,0.4-12.1,6.7-17.1,19.8l-0.4,0.9v1c0,1.4,0,2.4,0,2.8
			c0.7,12.4,6.2,16.8,11.1,16.8c0.2,0,0.3,0,0.5,0c2.8-0.2,4.7-1.6,6.7-3.9c1.9,3.2,5.1,5.1,8.8,5.1c0.2,0,0.4,0,0.6,0
			c7.4-0.4,13.1-7.3,22.4-18.8l1.4-1.8l-0.1-2.3l-0.2-4l-0.7-13.3l-4.5,4.5l0,0C502.1,787,498.7,781.4,493.4,781.4L493.4,781.4z"/>
		<path class="st2" d="M523.2,783c2.5,0,4.7,1.1,4.7,2.3c0.2,2.7-3.9,5.4-11,9.5c-7.8,4.6-13,8.7-12.6,14.5c0.1,1.1,1,1.8,2,1.8h0.1
			c2.7-0.1,7.1-3.6,12.6-10.6s8.2-11.7,10.5-11.8c0,0,0,0,0.1,0c1.2,0,2.5,2,2.6,4.5c0.1,2.1-1,4.5-2.3,7.7l-4.7,11.4
			c3.5-2.7,8.4-6.7,14.1-12.5l0.2,4c-5,5.6-11.5,11.2-18.6,18c-7.4,15.7-16.3,23.4-18.9,23.5h-0.1c-1.2,0-2.1-0.8-2.2-2.3
			c-0.2-4.1,4.5-13.1,16.3-23.9c1.5-2.2,3.5-6.8,5.6-13.4c-6.9,9.1-14.2,13.3-16.3,13.4c-0.1,0-0.1,0-0.2,0c-3.6,0-6.8-5.3-7.1-11.7
			c-0.2-4.3,2.2-9.4,7.2-13.9c7.8-6.8,14-10.3,17.6-10.5C522.8,783,523,783,523.2,783 M523.2,777.1c-0.3,0-0.5,0-0.8,0
			c-5.3,0.3-12.4,4.3-21.1,11.9c-6.2,5.5-9.6,12.3-9.2,18.6c0.5,8.6,4.8,15.4,10.5,17c-5.8,7.1-8.9,13.7-8.7,18.6
			c0.3,4.6,3.6,7.9,8,7.9c0.2,0,0.3,0,0.5,0c3.3-0.2,7.2-2.8,11.7-7.9c3-3.4,7.4-9.2,11.7-18c2-2,4-3.8,6-5.6
			c4.4-4.1,8.6-8,12.1-11.9l1.6-1.8l-0.1-2.4l-0.2-4l-0.7-13.5l-6.3,6.5c-0.3-3.7-2-6.7-4.4-8.4
			C532.9,779.9,528.7,777.1,523.2,777.1L523.2,777.1z"/>
		<path class="st2" d="M606.8,754.6c5,0,8.8,3.8,9,8c0.3,5.2-6.1,11.3-19,18.9c1.1,3.5,2.8,7,4.8,10.6c8.2-5.1,10.4-10.5,11.8-10.5
			l0,0c0.6,0,1.1,1.2,1.2,3.5c0.3,5.1-2.2,10.6-7.3,15.4l2.8,2.7l2.1-1.5c0.8,0.6,1.1,1.3,1.1,1.9c0.1,1.5-1.2,3.8-3.2,7.2
			c-1.1,2-2.1,3.2-3.6,3.3h-0.1c-1.6,0-3.9-1.7-6.6-5c-6.4,5.2-12.3,7.8-16.3,8.1c-0.3,0-0.5,0-0.8,0c-3.5,0-6.2-1.3-8.7-4
			c-3.4-3.6-5.2-7.6-5.4-10.9c-0.4-7.7,5.7-16.4,17.3-21.8c-0.1-0.9-0.3-1.9-0.3-2.7c-0.3-4.6,0.8-8.5,3.4-11.9
			c4.7-6.6,12.5-10.8,17.3-11C606.4,754.6,606.6,754.6,606.8,754.6 M595.2,774c8.8-5.3,13.2-11.6,13-14.1c0-0.7-0.7-1.1-1.7-1.1
			c-0.1,0-0.1,0-0.2,0C602.6,759,595.8,764.8,595.2,774 M580.6,804.3c0.1,0,0.2,0,0.4,0c3.6-0.2,7.4-2.2,12.3-5.4
			c-2-3.7-3.7-7.3-4.8-11c-7.7,4.8-11.2,11.7-11.1,14.2C577.5,803.4,578.7,804.3,580.6,804.3 M606.8,748.7c-0.3,0-0.6,0-0.9,0
			c-7.3,0.4-16.4,6.1-21.7,13.4c-3.1,4.3-4.7,9.2-4.5,14.7c-11.1,6.4-17.5,15.9-16.9,25.6c0.3,4.9,2.8,10.2,7,14.6
			c3.7,3.9,8,5.8,13,5.8c0.4,0,0.8,0,1.1,0c4.5-0.3,9.9-2.4,15.4-6.1c2.5,2.1,4.9,3.1,7.2,3.1c0.2,0,0.3,0,0.4,0
			c5.1-0.3,7.5-4.6,8.4-6.3c2.6-4.4,4.1-7.3,3.9-10.5c-0.1-1.9-0.9-3.7-2.3-5.2c2.6-4.2,3.8-8.8,3.6-13.2c-0.4-6.7-3.6-8.5-5.7-8.9
			c5-4.7,7.1-9.1,6.8-13.5C621.3,754.7,614.7,748.7,606.8,748.7L606.8,748.7z"/>
		<path class="st2" d="M684.6,746.3c15.1,0,23.8,6.5,24.5,18.6c0.5,9.3-2.9,16.9-9.9,22.2c-7.2,5.5-17.5,9.2-28.1,9.8
			c-0.6,0-1.3,0.1-1.9,0.1c-2.3,0-4.5-0.2-6.8-0.6l-4.1,7.7c0.5,0.3,0.7,0.5,0.7,1.1c0.1,1-0.8,2.9-2.3,5.7c-2.1,3.8-3.6,5.8-5.7,6
			h-0.1c-1.3,0-2.2-1.1-2.3-3c-0.1-1.7,1.8-8.9,7.5-19c-2.4-1.7-3.8-2.9-3.9-5c-0.2-4.2,4.3-8.1,12.3-9.7c3-5,7.7-11.9,14.5-20.5
			c-18.6,2.1-28.9,8-30.7,8.1l0,0c-0.4,0-0.5-0.5-0.5-1.1c0-0.5,1.8-4.9,5.8-11.3c1-1.7,1.5-2.6,4.1-3.6c6.6-2.7,15.8-4.9,23.9-5.4
			C682.5,746.4,683.6,746.3,684.6,746.3 M672.7,779c0.7-0.1,1.6-0.3,2.1-0.3c0.9,0,1.6-0.1,2.3-0.1c1.4,0,2.5,0.1,3.3,0.5
			c-1.6,0.8-4.8,1.9-9.4,2.7l-2.1,3.5c1.8,0.2,3.5,0.3,5.2,0.3c0.9,0,1.7,0,2.5-0.1c7-0.4,13.6-2.8,18.5-6.9
			c5.4-4.4,8.3-9.9,8.1-12.8c-0.2-4.1-6.9-6.3-20-6.3c-0.2,2.1-1,4.1-2.6,6.5L672.7,779 M684.6,740.4c-1.1,0-2.3,0-3.5,0.1
			c-8.3,0.5-18.2,2.7-25.7,5.8c-3.9,1.5-5.4,3.5-6.8,5.8l-0.1,0.2c-2.3,3.8-3.8,6.7-4.7,8.5c-1.8,3.7-2,5-2,6.3
			c0.3,4.6,3.5,6.7,6.4,6.7h0.1h0.2c1.4-0.1,2.7-0.6,4.9-1.4c2.4-1,6.4-2.6,11.8-4c-1.8,2.6-3.3,4.8-4.5,6.7
			c-9.2,2.5-14.8,8.3-14.4,15.2c0.1,2.5,1.1,4.5,2.4,6c-4.3,8.4-6.1,15-6,17.9c0.3,5.6,4.4,8.5,8.2,8.5c0.2,0,0.3,0,0.5,0
			c5.6-0.3,8.4-5.3,10.5-8.9l0,0l0,0c2.1-3.9,3.2-6.3,3-8.8c0-0.2,0-0.4,0-0.5l0.8-1.5c1.2,0.1,2.3,0.1,3.5,0.1c0.7,0,1.5,0,2.2-0.1
			c11.6-0.6,23-4.7,31.4-11c8.6-6.5,12.8-15.9,12.2-27.2c-0.4-7.7-3.6-14-9.2-18.2C700.5,742.4,693.4,740.4,684.6,740.4L684.6,740.4
			z M683,773.8l2.8-4.5c0.8-1.3,1.5-2.5,2-3.7c5.5,0.3,8.2,1,9.4,1.5c-0.7,1.5-2.4,4.3-5.7,7c-1,0.8-2,1.5-3.2,2.2L683,773.8
			L683,773.8L683,773.8z"/>
		<path class="st2" d="M741.1,771.7c1,0,1.7,1.2,1.8,3.7c0.2,2.7-0.3,3.1-1.6,4.9c-6.3,8.1-8.7,14.4-8.6,16.6
			c0.1,1.2,1.1,1.9,2.1,1.9h0.1c2.2-0.1,6.2-4,13-10.8l0.2,4c-8.5,10.7-13.9,16.6-18.4,16.8c-0.1,0-0.2,0-0.4,0
			c-3,0-5.1-2.1-5.3-5.3c-0.1-1.9,0.4-4.8,1.9-8.8c-5.8,8.4-9.9,12.7-12.5,12.8c0,0-0.1,0-0.2,0c-2.6,0-6.8-3.7-7.2-10.3
			c-0.3-5.8,2.1-10.6,7.1-16.7c2.6-3.2,4.2-4.7,7.1-4.9c0.3,0,0.5,0,0.7,0c2.4,0,4.2,0.7,4.2,1.6c0.1,2.2-3.9,6.5-11.1,14.3
			c-1,2.4-1.5,4.2-1.4,5.5c0,0.6,0.1,1,0.4,1l0,0c1.7-0.1,7.6-4.8,15.8-14.6C735.4,776.2,739,771.8,741.1,771.7L741.1,771.7
			 M741.1,765.8c-0.1,0-0.3,0-0.4,0c-3.5,0.2-6.2,2.4-10.6,7.6c-1.5-2-4.2-3.6-8.9-3.6c-0.3,0-0.7,0-1.1,0
			c-5.8,0.3-8.9,4.1-11.3,7.1c-4.6,5.7-8.9,12.2-8.4,20.7c0.5,9.8,7.2,15.9,13.1,15.9c0.2,0,0.3,0,0.5,0c2.2-0.1,4.3-1,6.7-3
			c2,2.7,5.2,4.3,8.8,4.3c0.2,0,0.5,0,0.7,0c7.3-0.4,13.7-7.8,22.6-19l1.4-1.8l-0.1-2.2l-0.2-4l-0.7-13.1l-4.7,4.6
			c0.3-1.1,0.4-2.5,0.3-4.2C748.4,766.3,742.3,765.8,741.1,765.8L741.1,765.8z"/>
		<path class="st2" d="M778.9,740.9c1,0,1.9,1.2,2,3.3c0.4,6.8-8.7,23.1-29.1,45c0,1.3,0,2.6,0,3.8c0.2,4.1,1.1,5.8,3.1,5.8
			c0.1,0,0.1,0,0.2,0c2-0.1,3.8-1.9,6-5.2c-0.8-1.2-1.1-2.4-1.2-3.8c-0.1-2.6,1.6-6.7,5.4-10.7c2.6-2.6,5.2-3.8,5.9-3.8h0.1
			c1.1,0,1.6,0.9,1.7,2.5c0.2,3.2-0.9,7.8-3.5,12.9c0.7,0.6,1.4,0.8,2.2,0.8c0.1,0,0.2,0,0.2,0c2.3-0.1,4.8-2.1,8.3-5.4l0.3,3.7
			c-4.8,4.8-9,7.1-11.6,7.2c-0.1,0-0.2,0-0.3,0c-0.7,0-1.3-0.2-2.1-0.4c-5.7,7.2-10.6,10.7-14.1,10.9c-0.1,0-0.2,0-0.3,0
			c-4.3,0-7.4-5.3-7.9-14.1c-0.6-10.9,5.5-24.6,18.4-38.9C770.9,745.4,777.3,741,778.9,740.9L778.9,740.9 M775,748.1
			c-10.6,12.3-17.5,23-20.7,32.2C764.7,767.7,772.3,757.7,775,748.1 M778.9,735c-0.1,0-0.3,0-0.4,0c-6.1,0.3-17,12-20.2,15.6
			c-13.8,15.3-20.7,30.2-19.9,43.2c0.8,14.5,7.7,19.7,13.8,19.7c0.2,0,0.4,0,0.6,0c4.9-0.3,10.2-3.7,16.1-10.5c0.1,0,0.2,0,0.3,0
			c5.7-0.3,11.6-5,15.5-8.9l1.9-1.9l-0.2-2.7l-0.3-3.7l-1-12.3l-6.2,5.9c0-0.6,0-1.1,0-1.7c-0.2-3.6-1.8-6-4-7.2
			c6.7-9.4,12.2-19.4,11.8-26.5C786.5,737.8,782.5,735,778.9,735L778.9,735z"/>
		<path class="st2" d="M805,745.2c1.1,0,1.7,1,1.9,3c0.6,11.6-6.4,25.8-21.4,38.5c0,0.4,0.1,1,0.1,1.8c0.3,5.4,1.9,8,4.6,8
			c0.1,0,0.2,0,0.2,0c2.5-0.1,6.6-4.3,13.7-11.6l0.3,3.8c-8.6,10.1-13.2,16.1-18,16.3c-0.1,0-0.2,0-0.3,0c-4.8,0-8.6-5.8-9-12.8
			c-0.4-6.9,4-20.5,13.9-34C797.3,749.8,802.7,745.3,805,745.2C804.9,745.2,804.9,745.2,805,745.2 M801.6,753.2
			c-7.3,8.8-12.3,17.7-14.8,26.6C794.3,773.1,799,764.3,801.6,753.2 M805,739.3c-0.1,0-0.3,0-0.4,0c-5.9,0.3-13.2,8.7-18.4,15.6
			c-11,15-15.5,29.8-15.1,37.8c0.6,10.5,7,18.3,14.9,18.3c0.2,0,0.4,0,0.7,0c6.9-0.4,11.9-6.2,20.1-15.9c0.7-0.8,1.4-1.6,2.1-2.5
			l1.6-1.9l-0.2-2.4l-0.3-3.8l-1-13l-9.1,9.4c-0.4,0.4-0.8,0.8-1.1,1.2c9.6-11,14.7-23,14-34.1C812.4,742,808.6,739.3,805,739.3
			L805,739.3z"/>
		<path class="st2" d="M823.1,755.3c1.6,0,2.5,0.9,2.6,2.8c0.2,3.1-3.3,8.4-6.6,8.5c-0.1,0-0.1,0-0.2,0c-1.7,0-2.9-1.2-3-2.9
			c-0.2-3.9,3.5-8.2,6.9-8.4C822.9,755.3,823,755.3,823.1,755.3 M815.6,768.8c1.7,0,2.7,0.8,2.8,2.4c0.2,3-3.2,8.8-10.9,16.1
			c-0.2,1.1-0.4,2.1-0.3,3c0.1,2.4,1.9,4,4.2,4c0.1,0,0.2,0,0.3,0c2.6-0.1,7.6-3.5,14.1-10.6l0.3,3.9c-7.2,9.8-12.6,15.1-17.9,15.4
			c-0.2,0-0.3,0-0.4,0c-4.5,0-7.6-3.9-8-11.3c-0.4-6.7,2-11.9,7.7-18.2c2.6-2.9,4.7-4.6,7.6-4.8
			C815.4,768.8,815.5,768.8,815.6,768.8 M823.1,749.4c-0.2,0-0.4,0-0.6,0c-3.3,0.2-6.5,2-9,4.9c-2.4,2.8-3.6,6.4-3.5,9.7v0.1
			c-2.7,1.3-4.9,3.3-6.8,5.5c-6.9,7.6-9.7,14.3-9.2,22.5c0.7,12.4,7.6,16.9,13.9,16.9c0.3,0,0.5,0,0.8,0c8-0.4,14.7-7.4,22.3-17.8
			l1.3-1.8l-0.2-2.2l-0.3-3.9l-1.1-13.5l-9.1,9.9c1.8-3,2.8-6,2.7-8.8c1.5-0.9,2.9-2.3,4.2-4c1-1.4,3.3-5.1,3.1-9.2
			C831.3,752.8,827.9,749.4,823.1,749.4L823.1,749.4z"/>
		<path class="st2" d="M845.2,765.4c2.5,0,3.7,1.1,3.8,3.4c0.3,5.2-5.7,12.4-8.2,12.5h-0.1c-1.2,0-1.7-0.9-1.9-3
			c-4.7,3.3-7.9,6.4-9.8,9.5c0,0.4,0,0.7,0.1,0.9c0.2,3.7,2.2,5.7,5.4,5.7c0.1,0,0.3,0,0.4,0c5.3-0.3,11.4-4.4,18.9-12.2l0.2,3.9
			c-8.6,11-15.6,16.6-20.6,16.9c-0.1,0-0.2,0-0.3,0c-4.8,0-9.9-6.1-10.3-13.5c-0.3-5.4,2.2-11,7.7-16.1c5.5-5.2,11.5-7.8,14.3-7.9
			C844.8,765.4,845,765.4,845.2,765.4 M845.2,759.5c-0.3,0-0.6,0-0.8,0c-5,0.3-12.3,4.1-18,9.5c-6.6,6.2-9.9,13.4-9.5,20.8
			c0.6,10.4,8,19.1,16.2,19.1c0.2,0,0.4,0,0.6,0c7-0.4,15.2-6.6,24.9-19.1l1.4-1.7l-0.1-2.2l-0.2-3.9l-0.8-13.6l-4.4,4.6
			c0.4-1.4,0.6-2.9,0.5-4.4C854.6,763,850.8,759.5,845.2,759.5L845.2,759.5z M836,788.3c0.5-0.5,1.1-1.1,1.7-1.6
			c0.4,0.2,0.8,0.3,1.2,0.4C837.8,787.6,836.8,788,836,788.3L836,788.3z"/>
		<path class="st2" d="M872.5,752.6c1.6,0,2.5,0.9,2.6,2.8c0.2,3.1-3.3,8.4-6.6,8.6c-0.1,0-0.1,0-0.2,0c-1.7,0-2.9-1.2-3-2.9
			c-0.2-3.9,3.5-8.2,6.9-8.4C872.3,752.6,872.4,752.6,872.5,752.6 M865.1,766.1c1.7,0,2.7,0.8,2.8,2.4c0.2,3-3.2,8.8-10.9,16.1
			c-0.2,1.1-0.4,2.1-0.3,3c0.1,2.4,1.9,4,4.2,4c0.1,0,0.2,0,0.3,0c2.6-0.1,7.6-3.5,14.1-10.6l0.3,3.9c-7.2,9.8-12.6,15.1-17.9,15.4
			c-0.2,0-0.3,0-0.4,0c-4.5,0-7.6-3.9-8-11.3c-0.4-6.7,2-11.9,7.7-18.2c2.6-2.9,4.7-4.6,7.6-4.8C864.8,766.1,865,766.1,865.1,766.1
			 M872.5,746.7c-0.2,0-0.4,0-0.6,0c-3.3,0.2-6.5,2-9,4.9c-2.4,2.8-3.6,6.4-3.5,9.7v0.1c-2.7,1.3-4.9,3.3-6.8,5.5
			c-6.9,7.6-9.7,14.3-9.2,22.5c0.7,12.4,7.6,16.9,13.9,16.9c0.3,0,0.5,0,0.8,0c8-0.4,14.7-7.4,22.3-17.8l1.3-1.8l-0.2-2.2l-0.3-3.9
			l-1.1-13.5L871,777c1.8-3,2.8-6,2.7-8.8c4.4-2.8,7.5-8.5,7.3-13.1C880.8,750,877.3,746.7,872.5,746.7L872.5,746.7z"/>
		<path class="st2" d="M912.9,741.4c1.4,0,3.2,1.6,3.3,3.9c0.2,3.6-4.4,10.7-11.8,22.7c-3.8,6.1-5.7,15.9-5.5,20.2
			c0.1,1,0.9,2.1,1.8,2.1c0,0,0,0,0.1,0c2.3-0.1,6.2-4.4,13.3-11.3l0.2,3.8c-8.4,10.4-13,16.3-17.8,16.6c-0.1,0-0.2,0-0.3,0
			c-2.9,0-3.9-2.2-4.2-6.8c-0.1-2.4-0.1-5.1,0.3-8.2c-7.9,9.2-12.6,13.8-14.5,13.9c0,0,0,0-0.1,0c-2.1,0-5.8-5.2-6.3-14
			c-0.2-4.2,2.2-8.1,7.4-12.3c6.3-5.1,11.8-7.4,14.8-7.6c0.1,0,0.3,0,0.4,0c1.5,0,2.5,0.5,3.5,1.8c8.4-16.5,13.3-24.6,15.1-24.7
			C912.9,741.4,912.9,741.4,912.9,741.4 M895.7,771.9c-12.1,5.3-18,9.5-17.6,16.7c0.1,0.9,0.2,1.4,0.7,1.4c0,0,0,0,0.1,0
			c1.7-0.1,5.6-3.6,12.2-10.3C892.7,778.1,894.6,776.5,895.7,771.9 M912.9,735.5c-0.1,0-0.3,0-0.4,0c-3.7,0.2-6.2,3.2-9.8,9.1
			c-2,3.3-4.5,7.9-7.7,13.9c-0.3,0-0.5,0-0.8,0c-0.2,0-0.5,0-0.8,0c-4.9,0.3-11.5,3.5-18.2,8.9c-6.8,5.4-10,11-9.6,17.2
			c0.6,11.1,5.8,19.5,12.2,19.5c0.1,0,0.3,0,0.4,0c2.3-0.1,4.6-1.1,9-5.4c0.2,0.7,0.5,1.3,0.8,1.9c1.7,3,4.6,4.7,8.2,4.7
			c0.2,0,0.4,0,0.7,0c7.3-0.4,12.4-6.8,21.7-18.3l0.4-0.5l1.4-1.8l-0.1-2.3l-0.2-3.8l-0.7-12.9l-9.3,8.9c-1.3,1.3-2.5,2.4-3.6,3.5
			c0.7-2.5,1.7-5.1,3-7.1l1.4-2.3c7.7-12.4,11.5-18.6,11.2-23.8C921.9,739.7,917.7,735.5,912.9,735.5L912.9,735.5z"/>
		<path class="st2" d="M940.9,758.2c2,0,4.3,2.8,4.4,4.4c0,0.7-0.4,1-1.5,1.7l-1.5,1l1.7,3.1c0.3,0.6,0.6,1.2,0.7,1.7
			c0.1,2.5-6.4,9.1-6.1,14c0.1,1.3,0.9,2,2.4,2c0.1,0,0.2,0,0.3,0c2.9-0.2,6.6-3.5,12.3-9.4l0.3,3.8c-8.6,10.4-13.7,16.4-18,16.6
			c-0.1,0-0.2,0-0.3,0c-2.5,0-4.7-2-4.9-5.1c-0.1-2.2,0.7-4.9,1.7-8.9c-7.3,8.6-12.2,13-14.7,13.1l0,0c-2,0-7.5-6.7-7.8-12.4
			c-0.2-3.6,2.6-8.5,8-13.6c4-3.7,8.5-6.6,13.9-9c5-2.3,8.5-3,9.2-3.1C940.8,758.2,940.8,758.2,940.9,758.2 M938.4,767.3
			c-14.5,7.1-22.1,11.5-21.7,18.5c0.1,1.4,0.8,2.3,1.6,2.3c0,0,0,0,0.1,0C920.5,787.9,928.8,781.3,938.4,767.3 M940.9,752.3
			c-0.2,0-0.3,0-0.5,0c-1.9,0.1-6.1,1.2-11.3,3.6c-5.9,2.6-11,5.9-15.5,10l0,0l0,0c-4.7,4.5-10.2,11.2-9.8,18.2
			c0.3,4.9,2.8,9.2,4.3,11.4c3,4.4,6.2,6.6,9.4,6.6h0.2h0.2c2.3-0.1,4.7-1.1,8.5-4.3c1.9,3.1,5.3,5.2,9.1,5.2c0.2,0,0.4,0,0.6,0
			c7.1-0.4,12.8-7.3,22.2-18.8l1.5-1.8l-0.2-2.4l-0.3-3.8l-1.1-13.1l-7.8,8.2c0.1-0.5,0.1-1,0.1-1.5c-0.1-1.1-0.4-2.1-0.7-2.9
			c0.9-1.1,1.6-2.6,1.4-4.6C950.9,757.7,946.3,752.3,940.9,752.3L940.9,752.3z M940.5,780.2L940.5,780.2L940.5,780.2L940.5,780.2z"
			/>
		<path class="st2" d="M990.8,737.1c1.4,0,3.2,1.6,3.3,3.9c0.2,3.6-4.4,10.7-11.8,22.7c-3.8,6.1-5.7,15.9-5.5,20.2
			c0.1,1,0.9,2.1,1.8,2.1c0,0,0,0,0.1,0c2.3-0.1,6.2-4.4,13.3-11.3l0.2,3.8c-8.4,10.4-13,16.3-17.8,16.6c-0.1,0-0.2,0-0.3,0
			c-2.9,0-3.9-2.2-4.2-6.8c-0.1-2.4-0.1-5.1,0.3-8.2c-7.9,9.2-12.6,13.8-14.5,13.9c0,0,0,0-0.1,0c-2.1,0-5.8-5.2-6.3-14
			c-0.2-4.2,2.2-8.1,7.4-12.3c6.3-5.1,11.8-7.4,14.8-7.6c0.1,0,0.3,0,0.4,0c1.5,0,2.5,0.5,3.5,1.8
			C984,745.4,988.9,737.2,990.8,737.1C990.7,737.1,990.7,737.1,990.8,737.1 M973.5,767.6c-12.1,5.3-18,9.5-17.6,16.7
			c0.1,0.9,0.2,1.4,0.7,1.4c0,0,0,0,0.1,0c1.7-0.1,5.6-3.6,12.2-10.3C970.5,773.8,972.4,772.2,973.5,767.6 M990.8,731.2
			c-0.1,0-0.3,0-0.4,0c-3.7,0.2-6.2,3.2-9.8,9.1c-2,3.3-4.5,7.9-7.7,13.9c-0.3,0-0.5,0-0.8,0c-0.2,0-0.5,0-0.8,0
			c-4.9,0.3-11.5,3.5-18.2,8.9c-6.8,5.4-10,11-9.6,17.2c0.6,11.1,5.8,19.5,12.2,19.5c0.1,0,0.3,0,0.4,0c2.3-0.1,4.6-1.1,9-5.4
			c0.2,0.7,0.5,1.3,0.8,1.9c1.7,3,4.6,4.7,8.2,4.7c0.2,0,0.4,0,0.7,0c7.3-0.4,12.4-6.8,21.7-18.3l0.4-0.5l1.4-1.8l-0.1-2.3l-0.2-3.8
			l-0.7-12.9l-9.3,8.9c-1.3,1.3-2.5,2.4-3.6,3.5c0.7-2.5,1.7-5.1,3-7.1l1.4-2.3c7.7-12.4,11.5-18.6,11.2-23.8
			C999.7,735.4,995.6,731.2,990.8,731.2L990.8,731.2z"/>
	</g>
	<g>
		<path class="st0" d="M280.3,821.9c-9,11.5-18.3,16.6-22,16.8c-4.2,0.2-6.9-4-7.3-11.5c-0.4-6.7,5.1-19.5,18-35.6
			c-10.5,9.5-19.1,20.5-27.4,32.1c-6.3,8.7-9.6,13.4-11.3,13.5c-1,0.1-3.1-4.2-3.3-8.4c-0.4-7.8,12.5-19.8,21.6-44.3
			c-8.7,6.9-16.8,17.8-25.7,32.5c-7.1,12-10,18.5-12.8,18.7c-1.7,0.1-4.4-4-4.6-8.3c-0.2-3.8,4-8.5,9.5-17.9
			c7.9-13.7,11.3-22.4,11.1-25.2c0-0.6-0.7-1.1-1.5-1c-1,0.1-4.4,2-10.2,5.8c-5.1,3.3-8.2,5.7-10,5.8c-1.3,0.1-1.8-0.6-1.9-1.8
			c-0.2-3.5,0.9-9.1,2.7-12c2.3-3.5,6.2-6.1,6.7-6.1c0.3,0,0.5,0.3,0.5,0.4c0,0.2-0.3,0.9-1.1,1.8l-2.9,3.2
			c10-5.9,16.7-8.5,18.7-8.6c3.1-0.2,5.9,5.6,6,8.7c0.3,5.2-2.8,14-9.3,24.9c15.2-22.8,27.3-31.5,29.7-31.7c0.9-0.1,4.6,2.3,4.9,6.3
			c0.2,3.1-3.5,12.4-12,27.4c18.1-22.5,30-33.2,32.9-33.3c2-0.1,4.7,5.2,4.8,7.5c0.1,2.6-3.3,5.9-8.7,13.6
			c-9.5,13.8-13.9,24.1-13.5,30.9c0.1,2.5,0.7,3.4,2.5,3.3c2.1-0.1,8.4-3.6,15.6-11.4L280.3,821.9z"/>
		<path class="st0" d="M286.4,831.2c-2,0.1-7.5-6.6-7.8-12.4c-0.2-3.6,2.6-8.5,8-13.6c4-3.7,8.5-6.6,13.9-9c5-2.3,8.5-3,9.2-3.1
			c2.1-0.1,4.4,2.8,4.5,4.4c0,0.7-0.4,1-1.5,1.7l-1.5,1l1.7,3.1c0.3,0.6,0.6,1.2,0.7,1.7c0.1,2.5-6.4,9.1-6.1,14
			c0.1,1.4,1.1,2.1,2.7,2c2.9-0.2,6.6-3.5,12.3-9.4l0.3,3.8c-8.6,10.4-13.7,16.4-18,16.6c-2.6,0.1-5-1.9-5.2-5.1
			c-0.1-2.2,0.7-4.9,1.7-8.9C293.8,826.6,288.9,831,286.4,831.2z M285.7,820.8c0.1,1.4,0.8,2.3,1.6,2.3c2.2-0.1,10.4-6.8,20.1-20.8
			C292.9,809.4,285.3,813.7,285.7,820.8z"/>
		<path class="st0" d="M316.9,816.8l5.7-6.2c-1.5-0.8-2.3-1.9-2.3-3c-0.3-5.1,7.2-13,10.6-13.2c0.7,0,1.2,0.5,1.2,1.2
			c0,0.3-0.2,1.2-0.9,2.6l7.4-0.9c1.2-0.2,2.2-0.3,3.1-0.4c2.9-0.2,4.7,1.4,4.9,5.7c0.1,1.6-2,2.9-4.1,5.4
			c-3.7,4.3-5.3,8.8-5.2,10.5c0.1,1.8,1,2.7,2.5,2.6c2.1-0.1,6.2-4,13.2-11.2l0.2,3.9c-8.6,10.5-14.4,16.1-18.2,16.3
			c-2.9,0.2-5.9-2.4-6.1-6.6c-0.3-5.5,2.6-10.5,8.2-16.9c-3.1,0.9-6,1.7-8.9,2.2c-4.2,5-7.3,8.8-9.7,10.9L316.9,816.8z"/>
		<path class="st0" d="M351.9,827.5c-1.7,0.1-2.5-2.9-2.9-9.4c-0.5-9.4,3.8-18.3,13.1-31c10.3-14,18.6-20.8,20.5-20.9
			c1.1-0.1,2,0.8,2.1,2.1c0.2,3.4-9.4,18.7-29.9,44l-0.3,3.2c12.6-15.4,21.8-22.6,25.2-22.8c2.2-0.1,4.4,2.3,4.5,5.4
			c0.3,6.3-5.2,10.6-15.1,18.7c2,2.7,3.6,3.9,4.8,3.9c2.4-0.1,7.8-4.4,15.6-13.1l0.3,3.9c-8.5,10.9-14.6,16.6-18.6,16.8
			c-4.2,0.2-7.3-3.4-11.3-10.8C355.2,823.8,353.5,827.5,351.9,827.5z M366.8,813.6c6.7-6,10.1-9.8,10-11.8c0-0.4-0.2-0.5-0.5-0.4
			c-1.3,0.1-6.7,3.7-13.4,11.8L366.8,813.6z"/>
		<path class="st0" d="M395.2,812.3c0.2,4.1,2.8,6.4,6.2,6.2c4.2-0.2,10.7-4.2,18.1-12.2l0.2,3.9c-8.4,10.2-15.2,15.7-22.2,16.1
			c-6.4,0.4-10.3-3.5-10.7-11.4c-0.3-5.7,2.1-11.3,7.1-16.6c5.1-5.4,10.6-8.2,16.1-8.5c4.3-0.2,6.5,1,6.6,3.6
			c0.3,5.1-7.4,14.1-21.5,18.3C395.2,812,395.2,812.1,395.2,812.3z M409.9,795.8c0-0.7-0.2-1-0.7-1c-2.3,0.1-9.7,4.1-13.9,13.2
			C405.2,802.9,410.1,798.4,409.9,795.8z"/>
		<path class="st0" d="M418.7,811.8l-0.3-3.7c3.6-4.3,7-8.6,9.9-12.9c-1.7-0.2-3.3-0.3-4.7-0.2c-0.5,0-1.1,0.1-1.8,0.1
			c-0.6,0-0.9-0.1-0.9-0.5c-0.1-1,2.8-6.2,5-8c1.5-1.2,4.5-1.8,9-2.1c3.6-5.6,4.8-8.3,10.4-8.6c0.9-0.1,1.9,0.6,1.9,1.2
			c0,0.8-0.3,1.5-1,2.4l-3.5,4.6c3.1,0,4.7,0.6,4.8,1.4c0,0.3-1.6,3.9-5.1,7.6c-1.7,1.7-2.9,2.2-5.1,2.4c-1.2,0.1-2.1,0.1-2.7,0.1
			c-5.3,7.4-7.3,14.8-7,19c0.1,1.8,1,2.6,2.5,2.5c2.5-0.1,7.6-4.2,15.5-12.2l0.3,3.8c-9.3,11.1-16.8,16.7-21.4,17
			c-3.5,0.2-5.6-1.8-5.8-5.3c-0.2-2.8,0.6-6.5,2.6-10.8C420.4,810.4,419.5,811.1,418.7,811.8z"/>
		<path class="st0" d="M467.7,807.6c-7.2,9.8-12.6,15.1-17.9,15.4c-4.8,0.3-8-3.7-8.4-11.3c-0.4-6.7,2-11.9,7.7-18.2
			c2.6-2.9,4.7-4.6,7.6-4.8c2-0.1,3,0.7,3.1,2.4c0.2,3-3.2,8.8-10.9,16.1c-0.2,1.1-0.4,2.1-0.3,3c0.1,2.5,2,4.1,4.5,4
			c2.6-0.1,7.6-3.5,14.1-10.6L467.7,807.6z M464.3,775.2c1.8-0.1,2.8,0.8,2.9,2.8c0.2,3.1-3.3,8.4-6.6,8.6c-1.8,0.1-3.1-1.1-3.2-2.9
			C457.2,779.7,460.9,775.4,464.3,775.2z"/>
		<path class="st0" d="M474.2,791.4c2.3-0.1,4.4,0.8,4.4,1.7c0.1,1.2-2.4,4.7-7.1,10.7c-1.5,1.8-2,3.8-2,5.5c0,0,0,0.1,0,0.2
			c11.9-15.2,21.2-22.1,23.8-22.2c1.3-0.1,3,2.7,3.1,5.4c0.2,3.2-2.4,4.7-4.7,8.3c-3,4.5-4.2,8.3-4.2,9.3c0.1,1.2,0.7,1.8,1.9,1.8
			c1.6-0.1,5.5-3.7,12.2-10.5l0.2,4c-8.4,10.2-13.4,16.4-18.2,16.6c-2.7,0.1-4.8-2.2-5-5.8c-0.2-3.7,2.1-9.1,6.9-16.5
			c-11.6,12-15,20.9-17.9,21c-2.6,0.1-4.9-4.1-5.3-11.2c0-0.4-0.1-1.2,0-2.3C466.3,797,470.4,791.6,474.2,791.4z"/>
		<path class="st0" d="M505.2,819c-3.7,0.2-7-5.2-7.3-11.7c-0.2-4.3,2.2-9.4,7.2-13.9c7.8-6.8,14-10.3,17.6-10.5
			c2.7-0.1,5.1,1,5.2,2.3c0.2,2.7-3.9,5.4-11,9.5c-7.8,4.6-13,8.7-12.6,14.5c0.1,1.1,1,1.8,2.2,1.8c2.7-0.1,7.1-3.6,12.6-10.6
			s8.2-11.7,10.5-11.8c1.2-0.1,2.6,1.9,2.7,4.5c0.1,2.1-1,4.5-2.3,7.7l-4.7,11.4c3.5-2.7,8.4-6.7,14.1-12.5l0.2,4
			c-5,5.6-11.5,11.2-18.6,18c-7.4,15.7-16.3,23.4-18.9,23.5c-1.2,0.1-2.2-0.7-2.3-2.3c-0.2-4.1,4.5-13.1,16.3-23.9
			c1.5-2.2,3.5-6.8,5.6-13.4C514.6,814.8,507.3,818.9,505.2,819z"/>
		<path class="st0" d="M583.6,817.1c-3.9,0.2-6.8-1.1-9.5-4c-3.4-3.6-5.2-7.6-5.4-10.9c-0.4-7.7,5.7-16.4,17.3-21.8
			c-0.1-0.9-0.3-1.9-0.3-2.7c-0.3-4.6,0.8-8.5,3.4-11.9c4.7-6.6,12.5-10.8,17.3-11c5.3-0.3,9.3,3.6,9.6,7.9
			c0.3,5.2-6.1,11.3-19,18.9c1.1,3.5,2.8,7,4.8,10.6c8.2-5.1,10.4-10.5,11.8-10.5c0.6,0,1.1,1.2,1.2,3.5c0.3,5.1-2.2,10.6-7.3,15.4
			l2.8,2.7l2.1-1.5c0.8,0.6,1.1,1.3,1.1,1.9c0.1,1.5-1.2,3.8-3.2,7.2c-1.1,2-2.1,3.2-3.6,3.3c-1.6,0.1-3.9-1.6-6.8-5
			C593.5,814.2,587.6,816.8,583.6,817.1z M588.5,787.9c-7.7,4.8-11.2,11.7-11.1,14.2c0.1,1.4,1.4,2.4,3.5,2.3
			c3.6-0.2,7.4-2.2,12.3-5.4C591.3,795.3,589.6,791.6,588.5,787.9z M608.2,759.9c0-0.7-0.8-1.2-1.9-1.1c-3.7,0.2-10.5,6-11.1,15.2
			C604,768.7,608.4,762.3,608.2,759.9z"/>
		<path class="st0" d="M658.3,804.1c0.5,0.3,0.7,0.5,0.7,1.1c0.1,1-0.8,2.9-2.3,5.7c-2.1,3.8-3.6,5.8-5.7,6c-1.3,0.1-2.3-1-2.4-3
			c-0.1-1.7,1.8-8.9,7.5-19c-2.4-1.7-3.8-2.9-3.9-5c-0.2-4.2,4.3-8.1,12.3-9.7c3-5,7.7-11.9,14.5-20.5c-18.6,2.1-28.9,8-30.7,8.1
			c-0.4,0-0.5-0.4-0.5-1.1c0-0.5,1.8-4.9,5.8-11.3c1-1.7,1.5-2.6,4.1-3.6c6.6-2.7,15.8-4.9,23.9-5.4c17-0.9,26.9,5.6,27.7,18.5
			c0.5,9.3-2.9,16.9-9.9,22.2c-7.2,5.5-17.5,9.2-28.1,9.8c-2.9,0.2-5.7-0.1-8.7-0.6L658.3,804.1z M676.7,785.5
			c7-0.4,13.6-2.8,18.5-6.9c5.4-4.4,8.3-9.9,8.1-12.8c-0.2-4.1-6.9-6.3-20-6.3c-0.2,2.1-1,4.1-2.6,6.5l-8.1,12.9
			c0.7-0.1,1.6-0.3,2.1-0.3c2.5-0.1,4.4-0.2,5.7,0.4c-1.6,0.8-4.8,1.9-9.4,2.7l-2.1,3.5C671.7,785.6,674.3,785.7,676.7,785.5z"/>
		<path class="st0" d="M713.7,807.6c-2.6,0.1-7-3.6-7.3-10.3c-0.3-5.8,2.1-10.6,7.1-16.7c2.6-3.2,4.2-4.7,7.1-4.9
			c2.8-0.2,4.9,0.6,5,1.6c0.1,2.2-3.9,6.5-11.1,14.3c-1,2.4-1.5,4.2-1.4,5.5c0,0.7,0.2,1,0.4,1c1.7-0.1,7.6-4.8,15.8-14.6
			c6.1-7.3,9.7-11.6,11.8-11.8c1-0.1,1.8,1.1,1.9,3.7c0.2,2.7-0.3,3.1-1.6,4.9c-6.3,8.1-8.7,14.4-8.6,16.6c0.1,1.2,1.1,2,2.3,1.9
			c2.2-0.1,6.2-4,13-10.8l0.2,4c-8.5,10.7-13.9,16.6-18.4,16.8c-3.2,0.2-5.5-2-5.7-5.3c-0.1-1.9,0.4-4.8,1.9-8.8
			C720.3,803.2,716.2,807.4,713.7,807.6z"/>
		<path class="st0" d="M752.5,807.6c-4.4,0.2-7.7-5.1-8.2-14.1c-0.6-10.9,5.5-24.6,18.4-38.9c8.1-9.1,14.5-13.5,16.1-13.6
			c1-0.1,1.9,1.1,2.1,3.3c0.4,6.8-8.7,23.1-29.1,45c0,1.3,0,2.6,0,3.8c0.2,4.2,1.2,6,3.2,5.8c2-0.1,3.8-1.9,6-5.2
			c-0.8-1.2-1.1-2.4-1.2-3.8c-0.1-2.6,1.6-6.7,5.4-10.7c2.6-2.6,5.2-3.8,5.9-3.8c1.1-0.1,1.7,0.8,1.8,2.5c0.2,3.2-0.9,7.8-3.5,12.9
			c0.8,0.6,1.6,0.9,2.5,0.8c2.3-0.1,4.8-2.1,8.3-5.4l0.3,3.7c-4.8,4.8-9,7.1-11.6,7.2c-0.8,0-1.5-0.1-2.4-0.4
			C760.9,803.8,756,807.4,752.5,807.6z M775,748.1c-10.6,12.3-17.5,23-20.7,32.2C764.7,767.7,772.3,757.7,775,748.1z"/>
		<path class="st0" d="M804.4,788.8c-8.6,10.1-13.2,16.1-18,16.3c-5,0.3-9-5.6-9.4-12.7c-0.4-6.9,4-20.5,13.9-34
			c6.4-8.6,11.8-13.1,13.9-13.2c1.1-0.1,1.8,0.9,2,3c0.6,11.6-6.4,25.8-21.4,38.5c0,0.4,0.1,1,0.1,1.8c0.3,5.5,2,8.2,4.9,8
			c2.5-0.1,6.6-4.3,13.7-11.6L804.4,788.8z M801.6,753.2c-7.3,8.8-12.3,17.7-14.8,26.6C794.3,773.1,799,764.3,801.6,753.2z"/>
		<path class="st0" d="M826.2,787.7c-7.2,9.8-12.6,15.1-17.9,15.4c-4.8,0.3-8-3.7-8.4-11.3c-0.4-6.7,2-11.9,7.7-18.2
			c2.6-2.9,4.7-4.6,7.6-4.8c2-0.1,3,0.7,3.1,2.4c0.2,3-3.2,8.8-10.9,16.1c-0.2,1.1-0.4,2.1-0.3,3c0.1,2.5,2,4.1,4.5,4
			c2.6-0.1,7.6-3.5,14.1-10.6L826.2,787.7z M822.8,755.3c1.8-0.1,2.8,0.8,2.9,2.8c0.2,3.1-3.3,8.4-6.6,8.5c-1.8,0.1-3.1-1.1-3.2-2.9
			C815.7,759.8,819.5,755.5,822.8,755.3z"/>
		<path class="st0" d="M853.9,786.2c-8.6,11-15.6,16.6-20.6,16.9c-4.9,0.3-10.2-5.9-10.6-13.5c-0.3-5.4,2.2-11,7.7-16.1
			c5.5-5.2,11.5-7.8,14.3-7.9c2.8-0.2,4.2,0.9,4.3,3.4c0.3,5.2-5.7,12.4-8.2,12.5c-1.3,0.1-1.8-0.8-2-3c-4.7,3.3-7.9,6.4-9.8,9.5
			c0,0.4,0,0.7,0.1,0.9c0.2,3.8,2.4,5.9,5.8,5.7c5.3-0.3,11.4-4.4,18.9-12.2L853.9,786.2z"/>
		<path class="st0" d="M875.6,785c-7.2,9.8-12.6,15.1-17.9,15.4c-4.8,0.3-8-3.7-8.4-11.3c-0.4-6.7,2-11.9,7.7-18.2
			c2.6-2.9,4.7-4.6,7.6-4.8c2-0.1,3,0.7,3.1,2.4c0.2,3-3.2,8.8-10.9,16.1c-0.2,1.1-0.4,2.1-0.3,3c0.1,2.5,2,4.1,4.5,4
			c2.6-0.1,7.6-3.5,14.1-10.6L875.6,785z M872.3,752.6c1.8-0.1,2.8,0.8,2.9,2.8c0.2,3.1-3.3,8.4-6.6,8.6c-1.8,0.1-3.1-1.1-3.2-2.9
			C865.2,757,868.9,752.8,872.3,752.6z"/>
		<path class="st0" d="M877.9,798.2c-2.1,0.1-5.8-5.1-6.3-14c-0.2-4.2,2.2-8.1,7.4-12.3c6.3-5.1,11.8-7.4,14.8-7.6
			c1.7-0.1,2.8,0.3,4,1.8c8.4-16.5,13.3-24.6,15.1-24.7c1.4-0.1,3.3,1.5,3.4,3.9c0.2,3.6-4.4,10.7-11.8,22.7
			c-3.8,6.1-5.7,15.9-5.5,20.2c0.1,1,1,2.1,1.9,2.1c2.3-0.1,6.2-4.4,13.3-11.3l0.2,3.8c-8.4,10.4-13,16.3-17.8,16.6
			c-3.2,0.2-4.3-2-4.5-6.8c-0.1-2.4-0.1-5.1,0.3-8.2C884.5,793.5,879.8,798.1,877.9,798.2z M878.1,788.6c0.1,0.9,0.2,1.4,0.7,1.4
			c1.7-0.1,5.6-3.6,12.2-10.3c1.6-1.6,3.5-3.2,4.6-7.8C883.6,777.2,877.7,781.4,878.1,788.6z"/>
		<path class="st0" d="M917.5,796.2c-2,0.1-7.5-6.6-7.8-12.4c-0.2-3.6,2.6-8.5,8-13.6c4-3.7,8.5-6.6,13.9-9c5-2.3,8.5-3,9.2-3.1
			c2.1-0.1,4.4,2.8,4.5,4.4c0,0.7-0.4,1-1.5,1.7l-1.5,1l1.7,3.1c0.3,0.6,0.6,1.2,0.7,1.7c0.1,2.5-6.4,9.1-6.1,14
			c0.1,1.4,1.1,2.1,2.7,2c2.9-0.2,6.6-3.5,12.3-9.4l0.3,3.8c-8.6,10.4-13.7,16.4-18,16.6c-2.6,0.1-5-1.9-5.2-5.1
			c-0.1-2.2,0.7-4.9,1.7-8.9C924.8,791.6,920,796,917.5,796.2z M916.7,785.8c0.1,1.4,0.8,2.3,1.6,2.3c2.2-0.1,10.4-6.8,20.1-20.8
			C924,774.4,916.3,778.8,916.7,785.8z"/>
		<path class="st0" d="M955.7,793.9c-2.1,0.1-5.8-5.1-6.3-14c-0.2-4.2,2.2-8.1,7.4-12.3c6.3-5.1,11.8-7.4,14.8-7.6
			c1.7-0.1,2.8,0.3,4,1.8c8.4-16.5,13.3-24.6,15.1-24.7c1.4-0.1,3.3,1.5,3.4,3.9c0.2,3.6-4.4,10.7-11.8,22.7
			c-3.8,6.1-5.7,15.9-5.5,20.2c0.1,1,1,2.1,1.9,2.1c2.3-0.1,6.2-4.4,13.3-11.3l0.2,3.8c-8.4,10.4-13,16.3-17.8,16.6
			c-3.2,0.2-4.3-2-4.5-6.8c-0.1-2.4-0.1-5.1,0.3-8.2C962.3,789.2,957.6,793.8,955.7,793.9z M955.9,784.3c0.1,0.9,0.2,1.4,0.7,1.4
			c1.7-0.1,5.6-3.6,12.2-10.3c1.6-1.6,3.5-3.2,4.6-7.8C961.4,772.9,955.5,777,955.9,784.3z"/>
	</g>
</g>
</svg>
