<?xml version="1.0" encoding="utf-8"?>
<!-- Generator: Adobe Illustrator 28.0.0, SVG Export Plug-In . SVG Version: 6.00 Build 0)  -->
<svg version="1.1" id="Capa_1" xmlns="http://www.w3.org/2000/svg" xmlns:xlink="http://www.w3.org/1999/xlink" x="0px" y="0px"
	 viewBox="0 0 1000 1000" style="enable-background:new 0 0 1000 1000;" xml:space="preserve">
<style type="text/css">
	.st0{fill:#32B5FC;}
	.st1{fill:none;stroke:#FDFEFE;stroke-width:4.7857;stroke-miterlimit:10;}
	.st2{fill:#FDFEFE;}
</style>
<g>
	<path class="st0" d="M48.7,313.7v17.9c5.3,0,10.4,1.4,15.2,4.1L302.2,472c9.5,5.5,15.5,15.7,15.5,26.6s-5.8,21-15.2,26.5
		l-238.4,139c-4.8,2.8-10,4.3-15.4,4.3c-14.8,0-30.8-11.8-30.8-30.8V497.9V362.4c0-19,16-30.8,30.8-30.8L48.7,313.7 M48.7,313.7
		C23.3,313.7,0,334,0,362.4v135.5v139.7c0,28.4,23.3,48.7,48.7,48.7c8.2,0,16.5-2.1,24.4-6.7l238.3-138.9
		c14.9-8.7,24.1-24.7,24.1-42c0-17.5-9.3-33.6-24.5-42.2L72.8,320.2C65,315.7,56.7,313.7,48.7,313.7L48.7,313.7z"/>
	<g>
		<polygon class="st1" points="811.6,379.9 811.6,463.5 738.7,463.5 738.7,379.9 688.2,379.9 688.2,590.7 738.7,590.7 738.7,505.5 
			811.6,505.5 811.6,590.7 862.1,590.7 862.1,379.9 		"/>
		<g>
			<path class="st0" d="M995.2,376.3v210.8h-50.5L862,463.5v-83.6l82.7,125.6V376.3H995.2 M995.2,371.5h-50.5
				c-2.6,0-4.8,2.1-4.8,4.8v113.2L866,377.3c-0.9-1.4-2.4-2.2-4-2.2c-0.5,0-0.9,0.1-1.4,0.2c-2,0.6-3.4,2.5-3.4,4.6v83.6
				c0,0.9,0.3,1.9,0.8,2.7l82.7,123.6c0.9,1.3,2.4,2.1,4,2.1h50.5c2.6,0,4.8-2.1,4.8-4.8V376.3C1000,373.6,997.9,371.5,995.2,371.5
				L995.2,371.5z"/>
			<path class="st0" d="M653.8,331v64.7v65.6h31.9v50.8h-31.9v49.2h-61.4v-49.2h-93.2v-50.8L584.4,331h8H653.8 M550,461.3h42.4
				v-65.6h-2.3L550,461.3 M653.8,326.2h-61.4h-8c-1.6,0-3.1,0.8-4,2.2l-85.2,130.3c-0.5,0.8-0.8,1.7-0.8,2.6v50.8
				c0,2.6,2.1,4.8,4.8,4.8h88.5v44.4c0,2.6,2.1,4.8,4.8,4.8h61.4c2.6,0,4.8-2.1,4.8-4.8v-44.4h27.1c2.6,0,4.8-2.1,4.8-4.8v-50.8
				c0-2.6-2.1-4.8-4.8-4.8h-27.1v-60.8V331C658.6,328.3,656.4,326.2,653.8,326.2L653.8,326.2z M558.5,456.5l29.1-47.6v47.6H558.5
				L558.5,456.5z"/>
			<path class="st0" d="M421.8,389.6c66.3,0,71.8,59.1,69.4,71.7c-2,10.1-2.4,24.9-37.8,53.3c-12.2,9.8-23.9,18.4-37.8,27.5l0,0h76
				v45.4H342.7v-45.4c0,0,68.8-45.1,86.1-71.3c16.1-24.6-3.2-38.2-8.8-38.2l0,0h-0.1c-1.1,0-2.6-0.2-4.5-0.2
				c-7.8,0-20.5,3-23.8,33.9l-48.9-9.5c0,0,3.8-64.4,74.5-67.2C418.7,389.6,420.3,389.6,421.8,389.6 M421.8,384.8
				c-1.6,0-3.2,0-4.9,0.1c-38.7,1.6-58.1,21-67.7,37c-10.3,17.3-11.4,34-11.4,34.7c-0.1,2.4,1.5,4.5,3.9,5l48.9,9.5
				c0.3,0.1,0.6,0.1,0.9,0.1c1,0,2-0.3,2.8-0.9c1.1-0.8,1.8-2,1.9-3.3c3.2-29.7,14.7-29.7,19.1-29.7c0.9,0,1.8,0,2.5,0.1
				c0.7,0,1.3,0.1,1.9,0.1h0.1c1.5,0.2,6.3,2.9,8.8,8.1c3,6.3,1.7,14.1-3.9,22.6c-16.6,25.1-84.1,69.5-84.8,69.9
				c-1.3,0.9-2.2,2.4-2.2,4v45.4c0,2.6,2.1,4.8,4.8,4.8h148.9c2.6,0,4.8-2.1,4.8-4.8v-45.4c0-2.6-2.1-4.8-4.8-4.8H431
				c8.4-5.9,16.5-12,25.2-19c34.4-27.6,37.2-43.5,39.1-54.1c0.1-0.7,0.2-1.4,0.4-2c1.7-8.6,0-33.9-15.8-53.1
				C466.8,393,447.2,384.8,421.8,384.8L421.8,384.8z"/>
		</g>
		<polygon class="st0" points="811.6,379.9 811.6,463.5 738.7,463.5 738.7,379.9 688.2,379.9 688.2,590.7 738.7,590.7 738.7,505.5 
			811.6,505.5 811.6,590.7 862.1,590.7 862.1,379.9 		"/>
		<g>
			<polygon class="st2" points="944.7,376.3 944.7,505.5 862.1,379.9 862.1,463.5 944.7,587.1 995.2,587.1 995.2,376.3 			"/>
			<path class="st2" d="M653.8,395.7V331h-61.4h-8l-85.2,130.3v50.8h93.2v49.2h61.4v-49.2h31.9v-50.8h-31.9V395.7z M592.4,461.3H550
				l40.2-65.6h2.3L592.4,461.3L592.4,461.3z"/>
			<path class="st2" d="M453.4,514.6c35.4-28.4,35.8-43.2,37.8-53.3c2.5-12.9-3.4-74.5-74-71.6c-70.7,2.8-74.5,67.2-74.5,67.2
				l48.9,9.5c4.1-38.5,22.9-33.7,28.4-33.8c5.5,0,24.9,13.6,8.8,38.2c-17.4,26.2-86.1,71.3-86.1,71.3v45.4h148.9v-45.4h-76l0,0
				C429.5,533,441.2,524.4,453.4,514.6z"/>
		</g>
	</g>
</g>
</svg>
